<svg xmlns="http://www.w3.org/2000/svg" width="636.1" height="606"><g fill="none" stroke="#D1D1D1" stroke-width="2" stroke-miterlimit="10"><path d="M285.7 149.3v3"/><path stroke-dasharray="6.5269,6.5269" d="M285.7 158.9v48.9"/><path d="M285.7 211.1v3h-3"/><path stroke-dasharray="5.9855,5.9855" d="M276.7 214.1H28.3"/><path d="M25.3 214.1h-3v-3"/><path stroke-dasharray="5.9511,5.9511" d="M22.3 205.1V29.6"/><path d="M22.3 26.6v-3h3"/><path stroke-dasharray="5.9855,5.9855" d="M31.3 23.6h248.4"/><path d="M282.7 23.6h3v3"/><path stroke-dasharray="5.4275,5.4275" d="M285.7 32v29.9"/><path d="M285.7 64.6v3"/></g><g fill="none" stroke="#40B481" stroke-width="2" stroke-miterlimit="10"><path d="M386.4 69.3v-3"/><path stroke-dasharray="5.6775,5.6775" d="M386.4 60.7V29.4"/><path d="M386.4 26.6v-3h3"/><path stroke-dasharray="5.911,5.911" d="M395.4 23.6h233.4"/><path d="M631.8 23.6h3v3"/><path stroke-dasharray="6.046,6.046" d="M634.8 32.7v565.2"/><path d="M634.8 601v3h-3"/><path stroke-dasharray="5.911,5.911" d="M625.9 604H392.4"/><path d="M389.4 604h-3v-3"/><path stroke-dasharray="5.9681,5.9681" d="M386.4 595V156.3"/><path d="M386.4 153.4v-3"/></g><g fill="none" stroke="#40B481" stroke-width="2" stroke-miterlimit="10"><path d="M603.9 571.3v3h-3"/><path stroke-dasharray="6.1024,6.1024" d="M594.8 574.3H427"/><path d="M424 574.3h-3v-3"/><path stroke-dasharray="6.276,6.276" d="M421 565v-47.1"/><path d="M421 514.8v-3h3"/><path stroke-dasharray="6.1024,6.1024" d="M430.1 511.8h167.8"/><path d="M600.9 511.8h3v3"/><path stroke-dasharray="6.276,6.276" d="M603.9 521.1v47"/></g><g fill="#515151"><path d="M320.9 104.3c-.6 0-1.2-.1-1.7-.3-.5-.2-1-.5-1.3-.9-.4-.4-.7-.9-.9-1.5-.2-.6-.3-1.3-.3-2s.1-1.4.3-2 .5-1.1.9-1.5c.4-.4.8-.7 1.4-.9.5-.2 1.1-.3 1.7-.3.4 0 .7 0 1 .1.3.1.6.1.8.2.2.1.4.1.5.2s.2.1.3.2l-.4 1c-.1-.1-.2-.1-.3-.2-.1-.1-.3-.1-.5-.2s-.4-.1-.6-.1c-.2 0-.4-.1-.7-.1-.5 0-.9.1-1.3.2-.4.2-.7.4-1 .7-.3.3-.5.7-.6 1.1-.1.4-.2.9-.2 1.5 0 .5.1 1 .2 1.5.1.4.3.8.6 1.1.3.3.6.6.9.7s.8.3 1.3.3c.6 0 1.1-.1 1.4-.2.4-.1.7-.2.9-.3l.3 1c-.1 0-.2.1-.3.2-.2.1-.4.1-.6.2-.2.1-.5.1-.8.2-.3.1-.7.1-1 .1zM327.5 97.2h.4c.1 0 .3 0 .4.1.1 0 .2 0 .4.1s.2 0 .2.1l-.2 1.1c-.1 0-.3-.1-.5-.1s-.5-.1-.9-.1c-.2 0-.4 0-.7.1s-.4.1-.4.1v5.7H325v-6.5c.3-.1.6-.2 1.1-.3.4-.2.8-.3 1.4-.3zM336 100.7c0 .5-.1 1-.2 1.5-.2.4-.4.8-.7 1.1-.3.3-.6.6-1 .7-.4.2-.8.3-1.3.3s-.9-.1-1.3-.3c-.4-.2-.7-.4-1-.7-.3-.3-.5-.7-.7-1.1-.2-.4-.2-.9-.2-1.5 0-.5.1-1 .2-1.4.2-.4.4-.8.7-1.1.3-.3.6-.6 1-.7.4-.2.8-.3 1.3-.3s.9.1 1.3.3c.4.2.7.4 1 .7.3.3.5.7.7 1.1.1.4.2.9.2 1.4zm-1.3 0c0-.8-.2-1.4-.5-1.8s-.8-.7-1.4-.7c-.6 0-1.1.2-1.4.7-.3.4-.5 1.1-.5 1.8s.2 1.4.5 1.8c.3.4.8.7 1.4.7.6 0 1.1-.2 1.4-.7s.5-1 .5-1.8zM339.2 103.3c.5 0 .9-.1 1.1-.2.2-.1.4-.3.4-.6s-.1-.5-.4-.7c-.2-.2-.6-.4-1.2-.6-.3-.1-.5-.2-.7-.3-.2-.1-.4-.2-.6-.4-.2-.1-.3-.3-.4-.5-.1-.2-.2-.5-.2-.8 0-.6.2-1.1.7-1.4.4-.4 1-.5 1.8-.5h.6c.2 0 .4 0 .5.1.2 0 .3.1.4.1.1 0 .2.1.3.1l-.2 1c-.1-.1-.3-.1-.6-.2s-.6-.1-1-.1c-.3 0-.6.1-.9.2-.3.1-.4.3-.4.6 0 .1 0 .3.1.4.1.1.1.2.3.3s.3.2.4.3c.2.1.4.2.6.2.3.1.6.2.9.4.3.1.5.3.6.4s.3.3.4.6c.1.2.1.5.1.8 0 .6-.2 1.1-.7 1.4-.5.3-1.1.5-2 .5-.6 0-1.1 0-1.4-.1s-.6-.2-.7-.2l.2-1c.1.1.4.1.7.2.4-.1.8 0 1.3 0zM345 103.3c.5 0 .9-.1 1.1-.2.2-.1.4-.3.4-.6s-.1-.5-.4-.7c-.2-.2-.6-.4-1.2-.6-.3-.1-.5-.2-.7-.3-.2-.1-.4-.2-.6-.4-.2-.1-.3-.3-.4-.5-.1-.2-.2-.5-.2-.8 0-.6.2-1.1.7-1.4.4-.4 1-.5 1.8-.5h.6c.2 0 .4 0 .5.1.2 0 .3.1.4.1.1 0 .2.1.3.1l-.2 1c-.1-.1-.3-.1-.6-.2s-.6-.1-1-.1c-.3 0-.6.1-.9.2-.3.1-.4.3-.4.6 0 .1 0 .3.1.4.1.1.1.2.3.3s.3.2.4.3c.2.1.4.2.6.2.3.1.6.2.9.4.3.1.5.3.6.4s.3.3.4.6c.1.2.1.5.1.8 0 .6-.2 1.1-.7 1.4-.5.3-1.1.5-2 .5-.6 0-1.1 0-1.4-.1s-.6-.2-.7-.2l.2-1c.1.1.4.1.7.2.4-.1.8 0 1.3 0zM348.6 99.7h3.2v1.1h-3.2v-1.1zM352.9 99.6c0-.8.1-1.5.3-2s.5-1.1.9-1.5.9-.7 1.4-.9 1.1-.3 1.7-.3c.6 0 1.1.1 1.6.3s1 .5 1.4.9.7.9.9 1.5.3 1.3.3 2-.1 1.5-.3 2c-.2.6-.5 1.1-.9 1.5s-.8.7-1.4.9c-.5.2-1.1.3-1.6.3-.6 0-1.1-.1-1.7-.3-.5-.2-1-.5-1.4-.9s-.7-.9-.9-1.5c-.2-.5-.3-1.2-.3-2zm1.3 0c0 .5.1 1 .2 1.5s.3.8.6 1.1c.3.3.6.6.9.7s.8.3 1.2.3c.5 0 .9-.1 1.2-.3s.7-.4.9-.7c.3-.3.5-.7.6-1.1.1-.4.2-.9.2-1.5s-.1-1-.2-1.5c-.1-.4-.3-.8-.6-1.1-.3-.3-.6-.6-.9-.7s-.8-.3-1.2-.3c-.5 0-.9.1-1.2.3s-.7.4-.9.7c-.3.3-.5.7-.6 1.1s-.2 1-.2 1.5zM365.8 97.2h.4c.1 0 .3 0 .4.1.1 0 .2 0 .4.1s.2 0 .2.1l-.2 1.1c-.1 0-.3-.1-.5-.1s-.5-.1-.9-.1c-.2 0-.4 0-.7.1s-.4.1-.4.1v5.7h-1.2v-6.5c.3-.1.6-.2 1.1-.3.4-.2.8-.3 1.4-.3zM368.9 96.1c-.2 0-.4-.1-.6-.2-.2-.1-.2-.3-.2-.6s.1-.4.2-.6c.2-.1.3-.2.6-.2s.4.1.6.2.2.3.2.6-.1.4-.2.6c-.2.2-.4.2-.6.2zm.6 8h-1.2v-6.8h1.2v6.8zM375.8 103.4c-.1.1-.3.2-.6.3-.3.1-.6.2-1 .2s-.8-.1-1.2-.2c-.4-.1-.7-.3-.9-.6-.3-.3-.5-.6-.6-1-.2-.4-.2-.9-.2-1.5 0-.5.1-.9.2-1.4.1-.4.4-.8.6-1.1s.6-.5 1-.7c.4-.2.9-.3 1.4-.3.6 0 1.1 0 1.5.1.4.1.8.2 1.1.2v6c0 1-.3 1.8-.8 2.3s-1.4.7-2.4.7c-.4 0-.8 0-1.2-.1s-.7-.2-1-.2l.2-1.1c.2.1.5.2.9.3.4.1.7.1 1.1.1.7 0 1.2-.1 1.6-.4.3-.3.5-.7.5-1.4v-.2zm0-5c-.1 0-.3-.1-.5-.1h-.8c-.7 0-1.2.2-1.5.6-.4.4-.5 1-.5 1.7 0 .4 0 .7.1 1s.2.5.4.7c.2.2.4.3.6.4s.4.1.7.1c.3 0 .6 0 .9-.1.3-.1.5-.2.6-.3v-4zM379.7 96.1c-.2 0-.4-.1-.6-.2-.2-.1-.2-.3-.2-.6s.1-.4.2-.6c.2-.1.3-.2.6-.2s.4.1.6.2.2.3.2.6-.1.4-.2.6c-.2.2-.4.2-.6.2zm.6 8h-1.2v-6.8h1.2v6.8zM382.4 97.6c.3-.1.6-.1 1.1-.2.5-.1 1-.1 1.6-.1.5 0 1 .1 1.3.2.4.2.6.4.9.6.2.3.4.6.4 1 .1.4.1.8.1 1.3v3.8h-1.2v-3.5c0-.4 0-.8-.1-1.1-.1-.3-.1-.5-.3-.7-.1-.2-.3-.3-.5-.4-.2-.1-.5-.1-.8-.1h-1.3v5.7h-1.2v-6.5zM319.4 112.8h.4c.1 0 .3 0 .4.1.1 0 .2 0 .4.1s.2 0 .2.1l-.2 1.1c-.1 0-.3-.1-.5-.1s-.5-.1-.9-.1c-.2 0-.4 0-.7.1s-.4.1-.4.1v5.7h-1.2v-6.5c.3-.1.6-.2 1.1-.3.4-.2.9-.3 1.4-.3zM321.6 116.4c0-.6.1-1.1.3-1.6.2-.4.4-.8.7-1.1s.6-.5 1-.7c.4-.1.8-.2 1.1-.2.9 0 1.6.3 2.1.9.5.6.7 1.4.7 2.6v.4h-4.6c.1.7.3 1.2.6 1.6s.9.5 1.7.5c.4 0 .8 0 1.1-.1.3-.1.5-.1.7-.2l.2 1c-.1.1-.4.2-.8.2-.4.1-.8.1-1.3.1-.6 0-1.1-.1-1.5-.3-.4-.2-.8-.4-1.1-.7-.3-.3-.5-.7-.6-1.1-.3-.4-.3-.8-.3-1.3zm4.6-.7c0-.5-.1-1-.4-1.3-.3-.4-.7-.5-1.2-.5-.3 0-.5.1-.7.2-.2.1-.4.2-.5.4-.1.2-.3.4-.3.6s-.1.5-.2.7h3.3zM328.8 116.4c0-.5.1-1 .2-1.5.2-.4.4-.8.7-1.1.3-.3.7-.5 1.1-.7.4-.2.9-.2 1.4-.2.6 0 1.1 0 1.5.1.4.1.8.2 1.1.2v9h-1.2v-2.7c-.1.1-.4.2-.7.3s-.6.2-1 .2c-.5 0-.9-.1-1.3-.3-.4-.2-.7-.4-1-.7-.3-.3-.5-.7-.6-1.1-.1-.6-.2-1-.2-1.5zm1.3 0c0 .3 0 .7.1 1s.2.6.3.8c.2.2.4.4.6.5.2.1.5.2.9.2.3 0 .6-.1.9-.2.3-.1.5-.2.6-.4V114c-.1 0-.3-.1-.5-.1h-.9c-.7 0-1.2.2-1.6.6-.2.5-.4 1.1-.4 1.9zM342.2 119.5c-.3.1-.6.1-1.1.2-.5.1-1 .1-1.6.1-.5 0-1-.1-1.3-.2-.4-.2-.6-.4-.9-.6-.2-.3-.4-.6-.5-1-.1-.4-.1-.8-.1-1.3V113h1.2v3.5c0 .8.1 1.4.4 1.8.3.4.7.5 1.3.5h1.3V113h1.2v6.5zM343.9 116.4c0-.6.1-1.1.3-1.6.2-.4.4-.8.7-1.1s.6-.5 1-.7c.4-.1.8-.2 1.1-.2.9 0 1.6.3 2.1.9.5.6.7 1.4.7 2.6v.4h-4.6c.1.7.3 1.2.6 1.6s.9.5 1.7.5c.4 0 .8 0 1.1-.1.3-.1.5-.1.7-.2l.2 1c-.1.1-.4.2-.8.2-.4.1-.8.1-1.3.1-.6 0-1.1-.1-1.5-.3-.4-.2-.8-.4-1.1-.7-.3-.3-.5-.7-.6-1.1-.2-.4-.3-.8-.3-1.3zm4.7-.7c0-.5-.1-1-.4-1.3-.3-.4-.7-.5-1.2-.5-.3 0-.5.1-.7.2-.2.1-.4.2-.5.4-.1.2-.3.4-.3.6s-.1.5-.2.7h3.3zM353.2 118.9c.5 0 .9-.1 1.1-.2.2-.1.4-.3.4-.6s-.1-.5-.4-.7c-.2-.2-.6-.4-1.2-.6-.3-.1-.5-.2-.7-.3-.2-.1-.4-.2-.6-.4-.2-.1-.3-.3-.4-.5-.1-.2-.2-.5-.2-.8 0-.6.2-1.1.7-1.4.4-.4 1-.5 1.8-.5h.6c.2 0 .4 0 .5.1.2 0 .3.1.4.1.1 0 .2.1.3.1l-.2 1c-.1-.1-.3-.1-.6-.2s-.6-.1-1-.1c-.3 0-.6.1-.9.2-.3.1-.4.3-.4.6 0 .1 0 .3.1.4.1.1.1.2.3.3s.3.2.4.3c.2.1.4.2.6.2.3.1.6.2.9.4.3.1.5.3.6.4s.3.3.4.6c.1.2.1.5.1.8 0 .6-.2 1.1-.7 1.4-.5.3-1.1.5-2 .5-.6 0-1.1 0-1.4-.1s-.6-.2-.7-.2l.2-1c.1.1.4.1.7.2.4-.1.8 0 1.3 0zM358.5 113h2.6v1h-2.6v3.1c0 .3 0 .6.1.8.1.2.1.4.2.5.1.1.2.2.4.3s.3.1.5.1c.4 0 .7 0 .9-.1.2-.1.4-.1.5-.2l.2 1c-.1.1-.3.1-.6.2s-.7.1-1 .1c-.5 0-.8-.1-1.1-.2s-.5-.3-.7-.5c-.2-.2-.3-.5-.4-.9-.1-.3-.1-.7-.1-1.2v-6l1.2-.2v2.2z"/></g><g fill="#515151"><path d="M412.5 192.3c-.1-.4-.3-.8-.4-1.2s-.3-.8-.4-1.2h-4.1l-.8 2.3h-1.3c.3-1 .7-1.8 1-2.6.3-.8.6-1.6.9-2.3l.9-2.1c.3-.7.6-1.3.9-2h1.2c.3.6.6 1.3.9 2l.9 2.1c.3.7.6 1.5.9 2.3s.6 1.7 1 2.6h-1.6zm-1.2-3.3c-.3-.8-.6-1.5-.8-2.2-.3-.7-.6-1.4-.9-2-.3.7-.6 1.3-.9 2-.3.7-.5 1.4-.8 2.2h3.4zM416.1 185.5h2.6v1h-2.6v3.1c0 .3 0 .6.1.8.1.2.1.4.2.5.1.1.2.2.4.3s.3.1.5.1c.4 0 .7 0 .9-.1.2-.1.4-.1.5-.2l.2 1c-.1.1-.3.1-.6.2s-.7.1-1 .1c-.5 0-.8-.1-1.1-.2s-.5-.3-.7-.5c-.2-.2-.3-.5-.4-.9-.1-.3-.1-.7-.1-1.2v-6l1.2-.2v2.2zM421.4 185.5h2.6v1h-2.6v3.1c0 .3 0 .6.1.8.1.2.1.4.2.5.1.1.2.2.4.3s.3.1.5.1c.4 0 .7 0 .9-.1.2-.1.4-.1.5-.2l.2 1c-.1.1-.3.1-.6.2s-.7.1-1 .1c-.5 0-.8-.1-1.1-.2s-.5-.3-.7-.5c-.2-.2-.3-.5-.4-.9-.1-.3-.1-.7-.1-1.2v-6l1.2-.2v2.2zM424.9 188.9c0-.6.1-1.1.3-1.6.2-.4.4-.8.7-1.1s.6-.5 1-.7c.4-.1.8-.2 1.1-.2.9 0 1.6.3 2.1.9.5.6.7 1.4.7 2.6v.4h-4.6c.1.7.3 1.2.6 1.6s.9.5 1.7.5c.4 0 .8 0 1.1-.1.3-.1.5-.1.7-.2l.2 1c-.1.1-.4.2-.8.2-.4.1-.8.1-1.3.1-.6 0-1.1-.1-1.5-.3-.4-.2-.8-.4-1.1-.7-.3-.3-.5-.7-.6-1.1-.2-.3-.3-.8-.3-1.3zm4.7-.6c0-.5-.1-1-.4-1.3-.3-.4-.7-.5-1.2-.5-.3 0-.5.1-.7.2-.2.1-.4.2-.5.4-.1.2-.3.4-.3.6s-.1.5-.2.7h3.3zM432.6 185.7c.3-.1.6-.1 1.1-.2s1-.1 1.6-.1c.4 0 .8.1 1.1.2.3.1.5.3.7.5.1 0 .2-.1.3-.2.1-.1.3-.2.5-.2.2-.1.4-.1.6-.2s.5-.1.8-.1c.5 0 .9.1 1.3.2.3.2.6.4.8.6.2.3.3.6.4 1 .1.4.1.8.1 1.2v3.8h-1.2v-3.5c0-.4 0-.7-.1-1 0-.3-.1-.5-.2-.7-.1-.2-.3-.3-.4-.4-.2-.1-.4-.1-.7-.1-.4 0-.7.1-1 .2s-.4.2-.5.3c.1.2.1.5.2.7 0 .3.1.5.1.8v3.8h-1.2v-3.5c0-.4 0-.7-.1-1 0-.3-.1-.5-.2-.7-.1-.2-.3-.3-.4-.4-.2-.1-.4-.1-.7-.1h-1.3v5.7H433v-6.6zM449.7 188.9c0 .5-.1 1-.2 1.4-.1.4-.3.8-.6 1.1-.3.3-.6.6-1 .7-.4.2-.8.3-1.3.3-.4 0-.7-.1-1-.2-.3-.1-.5-.2-.7-.3v2.7h-1.2v-9c.3-.1.6-.1 1.1-.2s.9-.1 1.5-.1c.5 0 1 .1 1.4.2.4.2.8.4 1.1.7.3.3.5.7.7 1.1.2.6.2 1.1.2 1.6zm-1.2 0c0-.8-.2-1.4-.6-1.8-.4-.4-.9-.6-1.6-.6h-.9c-.2 0-.4.1-.5.1v4.3c.1.1.4.2.6.4.3.1.6.2.9.2.3 0 .6-.1.9-.2.2-.1.4-.3.6-.5.2-.2.3-.5.3-.8s.3-.7.3-1.1zM452.6 185.5h2.6v1h-2.6v3.1c0 .3 0 .6.1.8.1.2.1.4.2.5.1.1.2.2.4.3s.3.1.5.1c.4 0 .7 0 .9-.1.2-.1.4-.1.5-.2l.2 1c-.1.1-.3.1-.6.2s-.7.1-1 .1c-.5 0-.8-.1-1.1-.2s-.5-.3-.7-.5c-.2-.2-.3-.5-.4-.9-.1-.3-.1-.7-.1-1.2v-6l1.2-.2v2.2zM460.8 185.5h2.6v1h-2.6v3.1c0 .3 0 .6.1.8.1.2.1.4.2.5.1.1.2.2.4.3s.3.1.5.1c.4 0 .7 0 .9-.1.2-.1.4-.1.5-.2l.2 1c-.1.1-.3.1-.6.2s-.7.1-1 .1c-.5 0-.8-.1-1.1-.2s-.5-.3-.7-.5c-.2-.2-.3-.5-.4-.9-.1-.3-.1-.7-.1-1.2v-6l1.2-.2v2.2zM470.7 188.9c0 .5-.1 1-.2 1.5-.2.4-.4.8-.7 1.1-.3.3-.6.6-1 .7-.4.2-.8.3-1.3.3s-.9-.1-1.3-.3c-.4-.2-.7-.4-1-.7-.3-.3-.5-.7-.7-1.1-.2-.4-.2-.9-.2-1.5 0-.5.1-1 .2-1.4.2-.4.4-.8.7-1.1.3-.3.6-.6 1-.7.4-.2.8-.3 1.3-.3s.9.1 1.3.3c.4.2.7.4 1 .7.3.3.5.7.7 1.1.1.4.2.9.2 1.4zm-1.3 0c0-.8-.2-1.4-.5-1.8s-.8-.7-1.4-.7c-.6 0-1.1.2-1.4.7-.3.4-.5 1.1-.5 1.8s.2 1.4.5 1.8c.3.4.8.7 1.4.7.6 0 1.1-.2 1.4-.7s.5-1 .5-1.8zM479.6 191.6c-.1.1-.3.2-.6.3-.3.1-.6.2-1 .2s-.8-.1-1.2-.2c-.4-.1-.7-.3-.9-.6-.3-.3-.5-.6-.6-1-.2-.4-.2-.9-.2-1.5 0-.5.1-.9.2-1.4.1-.4.4-.8.6-1.1s.6-.5 1-.7c.4-.2.9-.3 1.4-.3.6 0 1.1 0 1.5.1.4.1.8.2 1.1.2v6c0 1-.3 1.8-.8 2.3s-1.4.7-2.4.7c-.4 0-.8 0-1.2-.1s-.7-.2-1-.2l.2-1.1c.2.1.5.2.9.3.4.1.7.1 1.1.1.7 0 1.2-.1 1.6-.4.3-.3.5-.7.5-1.4v-.2zm0-5c-.1 0-.3-.1-.5-.1h-.8c-.7 0-1.2.2-1.5.6-.4.4-.5 1-.5 1.7 0 .4 0 .7.1 1s.2.5.4.7c.2.2.4.3.6.4s.4.1.7.1c.3 0 .6 0 .9-.1.3-.1.5-.2.6-.3v-4zM482.5 188.9c0-.6.1-1.1.3-1.6.2-.4.4-.8.7-1.1s.6-.5 1-.7c.4-.1.8-.2 1.1-.2.9 0 1.6.3 2.1.9.5.6.7 1.4.7 2.6v.4h-4.6c.1.7.3 1.2.6 1.6s.9.5 1.7.5c.4 0 .8 0 1.1-.1.3-.1.5-.1.7-.2l.2 1c-.1.1-.4.2-.8.2-.4.1-.8.1-1.3.1-.6 0-1.1-.1-1.5-.3-.4-.2-.8-.4-1.1-.7-.3-.3-.5-.7-.6-1.1-.2-.3-.3-.8-.3-1.3zm4.7-.6c0-.5-.1-1-.4-1.3-.3-.4-.7-.5-1.2-.5-.3 0-.5.1-.7.2-.2.1-.4.2-.5.4-.1.2-.3.4-.3.6s-.1.5-.2.7h3.3zM491.3 185.5h2.6v1h-2.6v3.1c0 .3 0 .6.1.8.1.2.1.4.2.5.1.1.2.2.4.3s.3.1.5.1c.4 0 .7 0 .9-.1.2-.1.4-.1.5-.2l.2 1c-.1.1-.3.1-.6.2s-.7.1-1 .1c-.5 0-.8-.1-1.1-.2s-.5-.3-.7-.5c-.2-.2-.3-.5-.4-.9-.1-.3-.1-.7-.1-1.2v-6l1.2-.2v2.2zM409.3 208.1c-.5 0-1-.1-1.4-.3-.4-.2-.8-.4-1-.7-.3-.3-.5-.7-.6-1.1s-.2-.9-.2-1.4c0-.5.1-1 .2-1.4.2-.4.4-.8.6-1.1.3-.3.6-.6 1-.7.4-.2.9-.3 1.3-.3.3 0 .6 0 .9.1.3.1.6.1.9.2l-.3 1c-.2-.1-.4-.2-.6-.2s-.5-.1-.8-.1c-.7 0-1.2.2-1.6.6-.4.4-.5 1-.5 1.9 0 .4 0 .7.1 1 .1.3.2.6.4.8s.4.4.7.5c.3.1.6.2 1 .2.3 0 .6 0 .9-.1s.5-.1.6-.2l.2 1c-.1 0-.2.1-.3.1s-.3.1-.4.1c-.2 0-.3.1-.5.1-.2-.1-.4 0-.6 0zM414.6 201c.5 0 .9.1 1.2.2.3.1.6.3.8.5.2.2.3.5.4.8.1.3.1.7.1 1v4.2c-.1 0-.2 0-.4.1-.2 0-.4.1-.6.1-.2 0-.5 0-.8.1h-.8c-.4 0-.7 0-1.1-.1-.3-.1-.6-.2-.8-.4-.2-.2-.4-.4-.5-.7s-.2-.6-.2-1 .1-.7.2-1c.2-.3.4-.5.6-.7.3-.2.6-.3.9-.4.3-.1.7-.1 1.1-.1h.4c.1 0 .3 0 .4.1s.2 0 .3.1h.2v-.3c0-.2 0-.4-.1-.6 0-.2-.1-.4-.2-.5-.1-.2-.3-.3-.5-.4-.2-.1-.4-.1-.8-.1s-.7 0-1 .1c-.3.1-.5.1-.7.2l-.1-1c.2-.1.4-.1.8-.2h1.2zm.1 6h.8c.2 0 .4 0 .6-.1v-2c-.1 0-.2-.1-.4-.1H414.4c-.2 0-.4.1-.6.2-.2.1-.3.2-.4.3-.1.1-.2.3-.2.6 0 .4.1.7.4.9.3.1.6.2 1.1.2zM419.2 201.3c.3-.1.6-.1 1.1-.2.5-.1 1-.1 1.6-.1.5 0 1 .1 1.3.2.4.2.6.4.9.6.2.3.4.6.4 1 .1.4.1.8.1 1.3v3.8h-1.2v-3.5c0-.4 0-.8-.1-1.1-.1-.3-.1-.5-.3-.7-.1-.2-.3-.3-.5-.4-.2-.1-.5-.1-.8-.1h-1.3v5.7h-1.2v-6.5zM431.7 201.1c-.3 1.3-.7 2.5-1.2 3.6s-.9 2.2-1.3 3.1h-1.1c-.4-.9-.9-2-1.3-3.1s-.9-2.4-1.2-3.6h1.3c.1.4.2.9.4 1.4.1.5.3 1 .5 1.4.2.5.3.9.5 1.4.2.4.3.8.5 1.2.1-.3.3-.7.5-1.2.2-.4.3-.9.5-1.4.2-.5.3-.9.5-1.4.1-.5.3-.9.4-1.4h1zM435.2 201c.5 0 .9.1 1.2.2.3.1.6.3.8.5.2.2.3.5.4.8.1.3.1.7.1 1v4.2c-.1 0-.2 0-.4.1-.2 0-.4.1-.6.1-.2 0-.5 0-.8.1h-.8c-.4 0-.7 0-1.1-.1-.3-.1-.6-.2-.8-.4-.2-.2-.4-.4-.5-.7s-.2-.6-.2-1 .1-.7.2-1c.2-.3.4-.5.6-.7.3-.2.6-.3.9-.4.3-.1.7-.1 1.1-.1h.4c.1 0 .3 0 .4.1s.2 0 .3.1h.2v-.3c0-.2 0-.4-.1-.6 0-.2-.1-.4-.2-.5-.1-.2-.3-.3-.5-.4-.2-.1-.4-.1-.8-.1s-.7 0-1 .1c-.3.1-.5.1-.7.2l-.1-1c.2-.1.4-.1.8-.2h1.2zm.1 6h.8c.2 0 .4 0 .6-.1v-2c-.1 0-.2-.1-.4-.1H435c-.2 0-.4.1-.6.2-.2.1-.3.2-.4.3-.1.1-.2.3-.2.6 0 .4.1.7.4.9.2.1.6.2 1.1.2zM441.3 207c.5 0 .9-.1 1.1-.2.2-.1.4-.3.4-.6s-.1-.5-.4-.7c-.2-.2-.6-.4-1.2-.6-.3-.1-.5-.2-.7-.3-.2-.1-.4-.2-.6-.4-.2-.1-.3-.3-.4-.5-.1-.2-.2-.5-.2-.8 0-.6.2-1.1.7-1.4.4-.4 1-.5 1.8-.5h.6c.2 0 .4 0 .5.1.2 0 .3.1.4.1.1 0 .2.1.3.1l-.2 1c-.1-.1-.3-.1-.6-.2s-.6-.1-1-.1c-.3 0-.6.1-.9.2-.3.1-.4.3-.4.6 0 .1 0 .3.1.4.1.1.1.2.3.3s.3.2.4.3c.2.1.4.2.6.2.3.1.6.2.9.4.3.1.5.3.6.4s.3.3.4.6c.1.2.1.5.1.8 0 .6-.2 1.1-.7 1.4-.5.3-1.1.5-2 .5-.6 0-1.1 0-1.4-.1s-.6-.2-.7-.2l.2-1c.1.1.4.1.7.2h1.3zM451.5 208.1c-.5 0-1-.1-1.4-.3-.4-.2-.8-.4-1-.7-.3-.3-.5-.7-.6-1.1s-.2-.9-.2-1.4c0-.5.1-1 .2-1.4.2-.4.4-.8.6-1.1.3-.3.6-.6 1-.7.4-.2.9-.3 1.3-.3.3 0 .6 0 .9.1.3.1.6.1.9.2l-.3 1c-.2-.1-.4-.2-.6-.2s-.5-.1-.8-.1c-.7 0-1.2.2-1.6.6-.4.4-.5 1-.5 1.9 0 .4 0 .7.1 1 .1.3.2.6.4.8s.4.4.7.5c.3.1.6.2 1 .2.3 0 .6 0 .9-.1s.5-.1.6-.2l.2 1c-.1 0-.2.1-.3.1s-.3.1-.4.1c-.2 0-.3.1-.5.1-.2-.1-.4 0-.6 0zM460.4 204.5c0 .5-.1 1-.2 1.5-.2.4-.4.8-.7 1.1-.3.3-.6.6-1 .7-.4.2-.8.3-1.3.3s-.9-.1-1.3-.3c-.4-.2-.7-.4-1-.7-.3-.3-.5-.7-.7-1.1-.2-.4-.2-.9-.2-1.5 0-.5.1-1 .2-1.4.2-.4.4-.8.7-1.1.3-.3.6-.6 1-.7.4-.2.8-.3 1.3-.3s.9.1 1.3.3c.4.2.7.4 1 .7.3.3.5.7.7 1.1.1.4.2.9.2 1.4zm-1.2 0c0-.8-.2-1.4-.5-1.8s-.8-.7-1.4-.7c-.6 0-1.1.2-1.4.7-.3.4-.5 1.1-.5 1.8s.2 1.4.5 1.8c.3.4.8.7 1.4.7.6 0 1.1-.2 1.4-.7s.5-1 .5-1.8zM462.1 201.3c.3-.1.6-.1 1.1-.2.5-.1 1-.1 1.6-.1.5 0 1 .1 1.3.2.4.2.6.4.9.6.2.3.4.6.4 1 .1.4.1.8.1 1.3v3.8h-1.2v-3.5c0-.4 0-.8-.1-1.1-.1-.3-.1-.5-.3-.7-.1-.2-.3-.3-.5-.4-.2-.1-.5-.1-.8-.1h-1.3v5.7h-1.2v-6.5zM470.7 201.1h2.6v1h-2.6v3.1c0 .3 0 .6.1.8.1.2.1.4.2.5.1.1.2.2.4.3s.3.1.5.1c.4 0 .7 0 .9-.1.2-.1.4-.1.5-.2l.2 1c-.1.1-.3.1-.6.2s-.7.1-1 .1c-.5 0-.8-.1-1.1-.2s-.5-.3-.7-.5c-.2-.2-.3-.5-.4-.9-.1-.3-.1-.7-.1-1.2v-6l1.2-.2v2.2zM474.3 204.5c0-.6.1-1.1.3-1.6.2-.4.4-.8.7-1.1s.6-.5 1-.7c.4-.1.8-.2 1.1-.2.9 0 1.6.3 2.1.9.5.6.7 1.4.7 2.6v.4h-4.6c.1.7.3 1.2.6 1.6s.9.5 1.7.5c.4 0 .8 0 1.1-.1.3-.1.5-.1.7-.2l.2 1c-.1.1-.4.2-.8.2-.4.1-.8.1-1.3.1-.6 0-1.1-.1-1.5-.3-.4-.2-.8-.4-1.1-.7-.3-.3-.5-.7-.6-1.1-.2-.3-.3-.8-.3-1.3zm4.6-.6c0-.5-.1-1-.4-1.3-.3-.4-.7-.5-1.2-.5-.3 0-.5.1-.7.2-.2.1-.4.2-.5.4-.1.2-.3.4-.3.6s-.1.5-.2.7h3.3zM481.9 201.3c.3-.1.6-.1 1.1-.2.5-.1 1-.1 1.6-.1.5 0 1 .1 1.3.2.4.2.6.4.9.6.2.3.4.6.4 1 .1.4.1.8.1 1.3v3.8h-1.2v-3.5c0-.4 0-.8-.1-1.1-.1-.3-.1-.5-.3-.7-.1-.2-.3-.3-.5-.4-.2-.1-.5-.1-.8-.1h-1.3v5.7h-1.2v-6.5zM490.5 201.1h2.6v1h-2.6v3.1c0 .3 0 .6.1.8.1.2.1.4.2.5.1.1.2.2.4.3s.3.1.5.1c.4 0 .7 0 .9-.1.2-.1.4-.1.5-.2l.2 1c-.1.1-.3.1-.6.2s-.7.1-1 .1c-.5 0-.8-.1-1.1-.2s-.5-.3-.7-.5c-.2-.2-.3-.5-.4-.9-.1-.3-.1-.7-.1-1.2v-6l1.2-.2v2.2z"/></g><g fill="#515151"><path d="M59.1 316h-1.2c-.2 0-.4 0-.6-.1s-.4-.1-.6-.1v-8.7c.2 0 .4-.1.6-.1.2 0 .4 0 .6-.1s.4 0 .6 0h.6c.5 0 1 0 1.5.1s.8.2 1.2.4c.3.2.6.4.8.7.2.3.3.7.3 1.1 0 .5-.1.9-.4 1.2-.2.3-.5.6-.9.7.5.2.9.4 1.3.7s.5.8.5 1.4c0 .9-.3 1.6-1 2-.9.6-1.9.8-3.3.8zm-1.2-5.3h1.3c.3 0 .6 0 .9-.1.3 0 .5-.1.7-.2.2-.1.4-.3.5-.4.1-.2.2-.4.2-.7 0-.3-.1-.5-.2-.7-.1-.2-.3-.3-.5-.4s-.5-.2-.8-.2c-.3-.1-.6-.1-.9-.1h-1.3v2.8zm0 1.1v3.2h1.2c.4 0 .7 0 1.1-.1.3 0 .6-.1.9-.3s.5-.3.6-.5c.2-.2.2-.5.2-.8 0-.3-.1-.5-.2-.7-.1-.2-.3-.4-.5-.5-.2-.1-.5-.2-.8-.3-.3-.1-.6-.1-1-.1h-1.5zM66.9 316.1c-.7 0-1.3-.2-1.6-.5-.3-.3-.5-.8-.5-1.4v-8.1l1.2-.2v8.1c0 .2 0 .4.1.5s.1.2.2.3c.1.1.2.1.3.2.1 0 .3.1.5.1l-.2 1zM74.4 312.6c0 .5-.1 1-.2 1.5-.2.4-.4.8-.7 1.1-.3.3-.6.6-1 .7-.4.2-.8.3-1.3.3s-.9-.1-1.3-.3c-.4-.2-.7-.4-1-.7-.3-.3-.5-.7-.7-1.1-.2-.4-.2-.9-.2-1.5 0-.5.1-1 .2-1.4.2-.4.4-.8.7-1.1.3-.3.6-.6 1-.7s.8-.3 1.3-.3.9.1 1.3.3c.4.2.7.4 1 .7.3.3.5.7.7 1.1.1.4.2.8.2 1.4zm-1.2 0c0-.8-.2-1.4-.5-1.8s-.8-.7-1.4-.7-1.1.2-1.4.7-.5 1.1-.5 1.8.2 1.4.5 1.8.8.7 1.4.7 1.1-.2 1.4-.7.5-1.1.5-1.8zM79.1 316.1c-.5 0-1-.1-1.4-.3-.4-.2-.8-.4-1-.7-.3-.3-.5-.7-.6-1.1s-.2-.9-.2-1.4c0-.5.1-1 .2-1.4.2-.4.4-.8.6-1.1.3-.3.6-.6 1-.7.4-.2.9-.3 1.3-.3.3 0 .6 0 .9.1.3.1.6.1.9.2l-.3 1c-.2-.1-.4-.2-.6-.2s-.5-.1-.8-.1c-.7 0-1.2.2-1.6.6-.4.4-.5 1-.5 1.9 0 .4 0 .7.1 1 .1.3.2.6.4.8s.4.4.7.5c.3.1.6.2 1 .2.3 0 .6 0 .9-.1.3-.1.5-.1.6-.2l.2 1c-.1 0-.2.1-.3.1-.1 0-.3.1-.4.1-.2 0-.3.1-.5.1h-.6zM84.6 312.2c.3.2.5.4.8.7.3.3.6.6.9 1 .3.3.5.7.8 1s.5.7.6 1h-1.4l-.6-.9c-.2-.3-.5-.6-.7-.9-.3-.3-.5-.6-.8-.8-.3-.2-.5-.4-.8-.6v3.3h-1.2v-9.9l1.2-.2v6.2l.7-.7c.3-.3.5-.5.7-.8.2-.3.5-.5.7-.7l.6-.6h1.4c-.2.2-.4.5-.7.7-.2.3-.5.5-.7.8l-.8.8c-.2.1-.5.4-.7.6zM88.2 312.6c0-.6.1-1.1.3-1.6s.4-.8.7-1.1c.3-.3.6-.5 1-.7.4-.1.8-.2 1.1-.2.9 0 1.6.3 2.1.9.5.6.7 1.4.7 2.6v.4h-4.6c.1.7.3 1.2.6 1.6.4.4.9.5 1.7.5.4 0 .8 0 1.1-.1.3-.1.5-.1.7-.2l.2 1c-.1.1-.4.2-.8.2-.4.1-.8.1-1.3.1-.6 0-1.1-.1-1.5-.3s-.8-.4-1.1-.7c-.3-.3-.5-.7-.6-1.1-.2-.3-.3-.8-.3-1.3zm4.7-.7c0-.5-.1-1-.4-1.3-.3-.4-.7-.5-1.2-.5-.3 0-.5.1-.7.2s-.4.2-.5.4c-.1.2-.3.4-.3.6-.1.2-.1.5-.2.7h3.3zM100.3 306.1l1.2-.2v9.9c-.3.1-.6.2-1.1.2s-.9.1-1.5.1c-.5 0-1-.1-1.4-.2-.4-.2-.8-.4-1.1-.7s-.5-.7-.7-1.1-.2-.9-.2-1.5c0-.5.1-1 .2-1.4.1-.4.3-.8.6-1.1.3-.3.6-.6 1-.7.4-.2.8-.3 1.3-.3.4 0 .7.1 1 .2.3.1.5.2.7.3v-3.5zm0 4.5c-.1-.1-.4-.2-.6-.4-.3-.1-.6-.2-.9-.2-.3 0-.6.1-.9.2-.2.1-.4.3-.6.5s-.3.5-.3.8c-.1.3-.1.6-.1 1 0 .8.2 1.4.6 1.8.4.4.9.6 1.6.6h.8c.2 0 .4-.1.5-.1v-4.2zM105 315.2c0 .2-.1.4-.2.6-.2.2-.4.3-.6.3s-.5-.1-.6-.3c-.2-.2-.2-.4-.2-.6 0-.2.1-.4.2-.6.2-.2.4-.3.6-.3s.5.1.6.3c.1.2.2.4.2.6zM111.9 315.1c1.3 0 2-.5 2-1.4 0-.3-.1-.5-.2-.7-.1-.2-.3-.4-.5-.5-.2-.1-.4-.3-.7-.4-.3-.1-.5-.2-.8-.3-.3-.1-.6-.2-.9-.4-.3-.1-.6-.3-.8-.5-.2-.2-.4-.4-.5-.7-.1-.3-.2-.6-.2-1 0-.8.3-1.4.8-1.8.5-.4 1.3-.7 2.2-.7.5 0 1 .1 1.5.2.4.1.8.2 1 .4l-.4 1c-.2-.1-.5-.2-.8-.3-.4-.1-.8-.2-1.3-.2-.2 0-.5 0-.7.1s-.4.1-.5.2c-.2.1-.3.2-.4.4-.1.2-.1.3-.1.6 0 .2 0 .4.1.6.1.2.2.3.4.4l.6.3c.2.1.5.2.8.3.4.2.7.3 1.1.5.3.2.6.3.8.6s.4.5.6.8.2.7.2 1.1c0 .8-.3 1.4-.9 1.8-.6.4-1.4.6-2.4.6-.4 0-.7 0-1-.1-.3 0-.6-.1-.8-.2-.2-.1-.4-.1-.6-.2-.2-.1-.3-.1-.4-.2l.4-1c.2.1.5.2.9.4s.9.3 1.5.3zM119.6 316.1c-.5 0-1-.1-1.4-.3-.4-.2-.8-.4-1-.7-.3-.3-.5-.7-.6-1.1s-.2-.9-.2-1.4c0-.5.1-1 .2-1.4.2-.4.4-.8.6-1.1.3-.3.6-.6 1-.7.4-.2.9-.3 1.3-.3.3 0 .6 0 .9.1.3.1.6.1.9.2l-.3 1c-.2-.1-.4-.2-.6-.2s-.5-.1-.8-.1c-.7 0-1.2.2-1.6.6-.4.4-.5 1-.5 1.9 0 .4 0 .7.1 1 .1.3.2.6.4.8s.4.4.7.5c.3.1.6.2 1 .2.3 0 .6 0 .9-.1s.5-.1.6-.2l.2 1c-.1 0-.2.1-.3.1s-.3.1-.4.1c-.2 0-.3.1-.5.1h-.6zM125.2 309h.4c.1 0 .3 0 .4.1.1 0 .2 0 .4.1s.2 0 .2.1l-.2 1.1c-.1 0-.3-.1-.5-.1s-.5-.1-.9-.1c-.2 0-.4 0-.7.1s-.4.1-.4.1v5.7h-1.2v-6.5c.3-.1.6-.2 1.1-.3.4-.2.9-.3 1.4-.3zM128.3 308c-.2 0-.4-.1-.6-.2-.2-.1-.2-.3-.2-.6 0-.2.1-.4.2-.6.2-.1.3-.2.6-.2s.4.1.6.2.2.3.2.6c0 .2-.1.4-.2.6-.2.1-.4.2-.6.2zm.6 7.9h-1.2v-6.8h1.2v6.8zM137 312.6c0 .5-.1 1-.2 1.4-.1.4-.3.8-.6 1.1-.3.3-.6.6-1 .7-.4.2-.8.3-1.3.3-.4 0-.7-.1-1-.2-.3-.1-.5-.2-.7-.3v2.7H131v-9c.3-.1.6-.1 1.1-.2s.9-.1 1.5-.1c.5 0 1 .1 1.4.2.4.2.8.4 1.1.7.3.3.5.7.7 1.1.1.5.2 1 .2 1.6zm-1.3 0c0-.8-.2-1.4-.6-1.8-.4-.4-.9-.6-1.6-.6h-.9c-.2 0-.4.1-.5.1v4.3c.1.1.4.2.6.4.3.1.6.2.9.2.3 0 .6-.1.9-.2.2-.1.4-.3.6-.5.2-.2.3-.5.3-.8s.3-.8.3-1.1zM139.8 309.2h2.6v1h-2.6v3.1c0 .3 0 .6.1.8.1.2.1.4.2.5.1.1.2.2.4.3s.3.1.5.1c.4 0 .7 0 .9-.1.2-.1.4-.1.5-.2l.2 1c-.1.1-.3.1-.6.2s-.7.1-1 .1c-.5 0-.8-.1-1.1-.2s-.5-.3-.7-.5c-.2-.2-.3-.5-.4-.9-.1-.3-.1-.7-.1-1.2v-6l1.2-.2v2.2zM145.5 315.1c.5 0 .9-.1 1.1-.2.2-.1.4-.3.4-.6s-.1-.5-.4-.7c-.2-.2-.6-.4-1.2-.6-.3-.1-.5-.2-.7-.3-.2-.1-.4-.2-.6-.4-.2-.1-.3-.3-.4-.5-.1-.2-.2-.5-.2-.8 0-.6.2-1.1.7-1.4.4-.4 1-.5 1.8-.5h.6c.2 0 .4 0 .5.1.2 0 .3.1.4.1.1 0 .2.1.3.1l-.2 1c-.1-.1-.3-.1-.6-.2s-.6-.1-1-.1c-.3 0-.6.1-.9.2-.3.1-.4.3-.4.6 0 .1 0 .3.1.4.1.1.1.2.3.3s.3.2.4.3c.2.1.4.2.6.2.3.1.6.2.9.4.3.1.5.3.6.4s.3.3.4.6c.1.2.1.5.1.8 0 .6-.2 1.1-.7 1.4-.5.3-1.1.5-2 .5-.6 0-1.1 0-1.4-.1s-.6-.2-.7-.2l.2-1c.1.1.4.1.7.2.4-.1.8 0 1.3 0zM155.6 316.1c-.5 0-1-.1-1.4-.3-.4-.2-.8-.4-1-.7-.3-.3-.5-.7-.6-1.1s-.2-.9-.2-1.4c0-.5.1-1 .2-1.4.2-.4.4-.8.6-1.1.3-.3.6-.6 1-.7.4-.2.9-.3 1.3-.3.3 0 .6 0 .9.1.3.1.6.1.9.2l-.3 1c-.2-.1-.4-.2-.6-.2s-.5-.1-.8-.1c-.7 0-1.2.2-1.6.6-.4.4-.5 1-.5 1.9 0 .4 0 .7.1 1 .1.3.2.6.4.8s.4.4.7.5c.3.1.6.2 1 .2.3 0 .6 0 .9-.1s.5-.1.6-.2l.2 1c-.1 0-.2.1-.3.1s-.3.1-.4.1c-.2 0-.3.1-.5.1h-.6zM160.9 309c.5 0 .9.1 1.2.2.3.1.6.3.8.5.2.2.3.5.4.8.1.3.1.7.1 1v4.2c-.1 0-.2 0-.4.1-.2 0-.4.1-.6.1-.2 0-.5 0-.8.1h-.8c-.4 0-.7 0-1.1-.1-.3-.1-.6-.2-.8-.4-.2-.2-.4-.4-.5-.7s-.2-.6-.2-1 .1-.7.2-1c.2-.3.4-.5.6-.7.3-.2.6-.3.9-.4.3-.1.7-.1 1.1-.1h.4c.1 0 .3 0 .4.1s.2 0 .3.1h.2v-.3c0-.2 0-.4-.1-.6 0-.2-.1-.4-.2-.5-.1-.2-.3-.3-.5-.4-.2-.1-.4-.1-.8-.1s-.7 0-1 .1c-.3.1-.5.1-.7.2l-.1-1c.2-.1.4-.1.8-.2.4.1.8 0 1.2 0zm.1 6.1h.8c.2 0 .4 0 .6-.1v-2c-.1 0-.2-.1-.4-.1H160.7c-.2 0-.4.1-.6.2-.2.1-.3.2-.4.3-.1.1-.2.3-.2.6 0 .4.1.7.4.9.3.1.7.2 1.1.2zM165.5 309.4c.3-.1.6-.1 1.1-.2.5-.1 1-.1 1.6-.1.5 0 1 .1 1.3.2.4.2.6.4.9.6.2.3.4.6.4 1 .1.4.1.8.1 1.3v3.8h-1.2v-3.5c0-.4 0-.8-.1-1.1-.1-.3-.1-.5-.3-.7-.1-.2-.3-.3-.5-.4-.2-.1-.5-.1-.8-.1h-1.3v5.7h-1.2v-6.5zM173.9 306.2v.6c0 .5-.1.9-.3 1.3s-.4.9-.6 1.2l-1-.3c.2-.4.3-.8.4-1.2.1-.4.1-.7.1-1.1v-.3-.3h1.4zM176.8 309.2h2.6v1h-2.6v3.1c0 .3 0 .6.1.8.1.2.1.4.2.5.1.1.2.2.4.3s.3.1.5.1c.4 0 .7 0 .9-.1.2-.1.4-.1.5-.2l.2 1c-.1.1-.3.1-.6.2s-.7.1-1 .1c-.5 0-.8-.1-1.1-.2s-.5-.3-.7-.5c-.2-.2-.3-.5-.4-.9-.1-.3-.1-.7-.1-1.2v-6l1.2-.2v2.2zM188.2 315.3c-.1.1-.3.2-.6.3-.3.1-.6.2-1 .2s-.8-.1-1.2-.2c-.4-.1-.7-.3-.9-.6-.3-.3-.5-.6-.6-1-.2-.4-.2-.9-.2-1.5 0-.5.1-.9.2-1.4.1-.4.4-.8.6-1.1s.6-.5 1-.7c.4-.2.9-.3 1.4-.3.6 0 1.1 0 1.5.1.4.1.8.2 1.1.2v6c0 1-.3 1.8-.8 2.3s-1.4.7-2.4.7c-.4 0-.8 0-1.2-.1s-.7-.2-1-.2l.2-1.1c.2.1.5.2.9.3.4.1.7.1 1.1.1.7 0 1.2-.1 1.6-.4.3-.3.5-.7.5-1.4v-.2zm0-5c-.1 0-.3-.1-.5-.1h-.8c-.7 0-1.2.2-1.5.6-.4.4-.5 1-.5 1.7 0 .4 0 .7.1 1s.2.5.4.7c.2.2.4.3.6.4s.4.1.7.1c.3 0 .6 0 .9-.1.3-.1.5-.2.6-.3v-4zM191.1 312.6c0-.6.1-1.1.3-1.6.2-.4.4-.8.7-1.1s.6-.5 1-.7c.4-.1.8-.2 1.1-.2.9 0 1.6.3 2.1.9.5.6.7 1.4.7 2.6v.4h-4.6c.1.7.3 1.2.6 1.6s.9.5 1.7.5c.4 0 .8 0 1.1-.1.3-.1.5-.1.7-.2l.2 1c-.1.1-.4.2-.8.2-.4.1-.8.1-1.3.1-.6 0-1.1-.1-1.5-.3-.4-.2-.8-.4-1.1-.7-.3-.3-.5-.7-.6-1.1-.3-.3-.3-.8-.3-1.3zm4.6-.7c0-.5-.1-1-.4-1.3-.3-.4-.7-.5-1.2-.5-.3 0-.5.1-.7.2-.2.1-.4.2-.5.4-.1.2-.3.4-.3.6s-.1.5-.2.7h3.3zM199.8 309.2h2.6v1h-2.6v3.1c0 .3 0 .6.1.8.1.2.1.4.2.5.1.1.2.2.4.3s.3.1.5.1c.4 0 .7 0 .9-.1.2-.1.4-.1.5-.2l.2 1c-.1.1-.3.1-.6.2s-.7.1-1 .1c-.5 0-.8-.1-1.1-.2s-.5-.3-.7-.5c-.2-.2-.3-.5-.4-.9-.1-.3-.1-.7-.1-1.2v-6l1.2-.2v2.2zM209.1 309c.5 0 .9.1 1.2.2.3.1.6.3.8.5.2.2.3.5.4.8.1.3.1.7.1 1v4.2c-.1 0-.2 0-.4.1-.2 0-.4.1-.6.1-.2 0-.5 0-.8.1h-.8c-.4 0-.7 0-1.1-.1-.3-.1-.6-.2-.8-.4-.2-.2-.4-.4-.5-.7s-.2-.6-.2-1 .1-.7.2-1c.2-.3.4-.5.6-.7.3-.2.6-.3.9-.4.3-.1.7-.1 1.1-.1h.4c.1 0 .3 0 .4.1s.2 0 .3.1h.2v-.3c0-.2 0-.4-.1-.6 0-.2-.1-.4-.2-.5-.1-.2-.3-.3-.5-.4-.2-.1-.4-.1-.8-.1s-.7 0-1 .1c-.3.1-.5.1-.7.2l-.1-1c.2-.1.4-.1.8-.2.4.1.8 0 1.2 0zm.1 6.1h.8c.2 0 .4 0 .6-.1v-2c-.1 0-.2-.1-.4-.1H208.9c-.2 0-.4.1-.6.2-.2.1-.3.2-.4.3-.1.1-.2.3-.2.6 0 .4.1.7.4.9.3.1.7.2 1.1.2zM216.7 316.1c-.5 0-1-.1-1.4-.3-.4-.2-.8-.4-1-.7-.3-.3-.5-.7-.6-1.1s-.2-.9-.2-1.4c0-.5.1-1 .2-1.4.2-.4.4-.8.6-1.1.3-.3.6-.6 1-.7.4-.2.9-.3 1.3-.3.3 0 .6 0 .9.1.3.1.6.1.9.2l-.3 1c-.2-.1-.4-.2-.6-.2s-.5-.1-.8-.1c-.7 0-1.2.2-1.6.6-.4.4-.5 1-.5 1.9 0 .4 0 .7.1 1 .1.3.2.6.4.8s.4.4.7.5c.3.1.6.2 1 .2.3 0 .6 0 .9-.1s.5-.1.6-.2l.2 1c-.1 0-.2.1-.3.1s-.3.1-.4.1c-.2 0-.3.1-.5.1h-.6zM222.7 316.1c-.5 0-1-.1-1.4-.3-.4-.2-.8-.4-1-.7-.3-.3-.5-.7-.6-1.1s-.2-.9-.2-1.4c0-.5.1-1 .2-1.4.2-.4.4-.8.6-1.1.3-.3.6-.6 1-.7.4-.2.9-.3 1.3-.3.3 0 .6 0 .9.1.3.1.6.1.9.2l-.3 1c-.2-.1-.4-.2-.6-.2s-.5-.1-.8-.1c-.7 0-1.2.2-1.6.6-.4.4-.5 1-.5 1.9 0 .4 0 .7.1 1 .1.3.2.6.4.8s.4.4.7.5c.3.1.6.2 1 .2.3 0 .6 0 .9-.1s.5-.1.6-.2l.2 1c-.1 0-.2.1-.3.1s-.3.1-.4.1c-.2 0-.3.1-.5.1h-.6zM225.4 312.6c0-.6.1-1.1.3-1.6.2-.4.4-.8.7-1.1s.6-.5 1-.7c.4-.1.8-.2 1.1-.2.9 0 1.6.3 2.1.9.5.6.7 1.4.7 2.6v.4h-4.6c.1.7.3 1.2.6 1.6s.9.5 1.7.5c.4 0 .8 0 1.1-.1.3-.1.5-.1.7-.2l.2 1c-.1.1-.4.2-.8.2-.4.1-.8.1-1.3.1-.6 0-1.1-.1-1.5-.3-.4-.2-.8-.4-1.1-.7-.3-.3-.5-.7-.6-1.1-.2-.3-.3-.8-.3-1.3zm4.7-.7c0-.5-.1-1-.4-1.3-.3-.4-.7-.5-1.2-.5-.3 0-.5.1-.7.2-.2.1-.4.2-.5.4-.1.2-.3.4-.3.6s-.1.5-.2.7h3.3zM234.7 315.1c.5 0 .9-.1 1.1-.2.2-.1.4-.3.4-.6s-.1-.5-.4-.7c-.2-.2-.6-.4-1.2-.6-.3-.1-.5-.2-.7-.3-.2-.1-.4-.2-.6-.4-.2-.1-.3-.3-.4-.5-.1-.2-.2-.5-.2-.8 0-.6.2-1.1.7-1.4.4-.4 1-.5 1.8-.5h.6c.2 0 .4 0 .5.1.2 0 .3.1.4.1.1 0 .2.1.3.1l-.2 1c-.1-.1-.3-.1-.6-.2s-.6-.1-1-.1c-.3 0-.6.1-.9.2-.3.1-.4.3-.4.6 0 .1 0 .3.1.4.1.1.1.2.3.3s.3.2.4.3c.2.1.4.2.6.2.3.1.6.2.9.4.3.1.5.3.6.4s.3.3.4.6c.1.2.1.5.1.8 0 .6-.2 1.1-.7 1.4-.5.3-1.1.5-2 .5-.6 0-1.1 0-1.4-.1s-.6-.2-.7-.2l.2-1c.1.1.4.1.7.2.4-.1.8 0 1.3 0zM240.5 315.1c.5 0 .9-.1 1.1-.2.2-.1.4-.3.4-.6s-.1-.5-.4-.7c-.2-.2-.6-.4-1.2-.6-.3-.1-.5-.2-.7-.3-.2-.1-.4-.2-.6-.4-.2-.1-.3-.3-.4-.5-.1-.2-.2-.5-.2-.8 0-.6.2-1.1.7-1.4.4-.4 1-.5 1.8-.5h.6c.2 0 .4 0 .5.1.2 0 .3.1.4.1.1 0 .2.1.3.1l-.2 1c-.1-.1-.3-.1-.6-.2s-.6-.1-1-.1c-.3 0-.6.1-.9.2-.3.1-.4.3-.4.6 0 .1 0 .3.1.4.1.1.1.2.3.3s.3.2.4.3c.2.1.4.2.6.2.3.1.6.2.9.4.3.1.5.3.6.4s.3.3.4.6c.1.2.1.5.1.8 0 .6-.2 1.1-.7 1.4-.5.3-1.1.5-2 .5-.6 0-1.1 0-1.4-.1s-.6-.2-.7-.2l.2-1c.1.1.4.1.7.2.4-.1.8 0 1.3 0zM248.8 309.2h2.6v1h-2.6v3.1c0 .3 0 .6.1.8.1.2.1.4.2.5.1.1.2.2.4.3s.3.1.5.1c.4 0 .7 0 .9-.1.2-.1.4-.1.5-.2l.2 1c-.1.1-.3.1-.6.2s-.7.1-1 .1c-.5 0-.8-.1-1.1-.2s-.5-.3-.7-.5c-.2-.2-.3-.5-.4-.9-.1-.3-.1-.7-.1-1.2v-6l1.2-.2v2.2zM258.7 312.6c0 .5-.1 1-.2 1.5-.2.4-.4.8-.7 1.1-.3.3-.6.6-1 .7-.4.2-.8.3-1.3.3s-.9-.1-1.3-.3c-.4-.2-.7-.4-1-.7-.3-.3-.5-.7-.7-1.1-.2-.4-.2-.9-.2-1.5 0-.5.1-1 .2-1.4.2-.4.4-.8.7-1.1.3-.3.6-.6 1-.7.4-.2.8-.3 1.3-.3s.9.1 1.3.3c.4.2.7.4 1 .7.3.3.5.7.7 1.1.1.4.2.8.2 1.4zm-1.3 0c0-.8-.2-1.4-.5-1.8s-.8-.7-1.4-.7c-.6 0-1.1.2-1.4.7-.3.4-.5 1.1-.5 1.8s.2 1.4.5 1.8c.3.4.8.7 1.4.7.6 0 1.1-.2 1.4-.7s.5-1.1.5-1.8zM58.7 327c.5 0 .9.1 1.2.2.3.1.6.3.8.5.2.2.3.5.4.8.1.3.1.7.1 1v4.2c-.1 0-.2 0-.4.1-.2 0-.4.1-.6.1-.2 0-.5 0-.8.1s-.5 0-.8 0c-.4 0-.7 0-1.1-.1-.3-.1-.6-.2-.8-.4-.2-.2-.4-.4-.5-.7s-.2-.6-.2-1 .1-.7.2-1c.2-.3.4-.5.6-.7.3-.2.6-.3.9-.4s.7-.1 1.1-.1h.4c.1 0 .3 0 .4.1.1 0 .2 0 .3.1h.2v-.3c0-.2 0-.4-.1-.6 0-.2-.1-.4-.2-.5-.1-.2-.3-.3-.5-.4-.2-.1-.4-.1-.8-.1s-.7 0-1 .1c-.3.1-.5.1-.7.2l-.1-1c.2-.1.4-.1.8-.2.4.1.8 0 1.2 0zm.1 6.1h.8c.2 0 .4 0 .6-.1v-2c-.1 0-.2-.1-.4-.1H58.5c-.2 0-.4.1-.6.2-.2.1-.3.2-.4.3-.1.1-.2.3-.2.6 0 .4.1.7.4.9.3.1.7.2 1.1.2zM63.3 327.4c.3-.1.6-.1 1.1-.2.5-.1 1-.1 1.6-.1.5 0 1 .1 1.3.2.4.2.6.4.9.6.2.3.4.6.4 1 .1.4.1.8.1 1.3v3.8h-1.2v-3.5c0-.4 0-.8-.1-1.1-.1-.3-.1-.5-.3-.7-.1-.2-.3-.3-.5-.4-.2-.1-.5-.1-.8-.1h-1.3v5.7h-1.2v-6.5zM74.4 326c-.2 0-.4-.1-.6-.2-.2-.1-.2-.3-.2-.6 0-.2.1-.4.2-.6.2-.1.3-.2.6-.2.2 0 .4.1.6.2.2.1.2.3.2.6 0 .2-.1.4-.2.6-.2.1-.4.2-.6.2zm.6 7.9h-1.2v-6.8H75v6.8zM77.1 327.4c.3-.1.6-.1 1.1-.2.5-.1 1-.1 1.6-.1.4 0 .8.1 1.1.2.3.1.5.3.7.5.1 0 .2-.1.3-.2.1-.1.3-.2.5-.2.2-.1.4-.1.6-.2s.5-.1.8-.1c.5 0 .9.1 1.3.2.3.2.6.4.8.6s.3.6.4 1c.1.4.1.8.1 1.2v3.8h-1.2v-3.5c0-.4 0-.7-.1-1 0-.3-.1-.5-.2-.7-.1-.2-.3-.3-.4-.4-.2-.1-.4-.1-.7-.1-.4 0-.7.1-1 .2-.3.1-.4.2-.5.3.1.2.1.5.2.7s.1.5.1.8v3.8h-1.2v-3.5c0-.4 0-.7-.1-1 0-.3-.1-.5-.2-.7-.1-.2-.3-.3-.4-.4s-.4-.1-.7-.1h-1.3v5.7h-1.2v-6.6zM90.5 327c.5 0 .9.1 1.2.2.3.1.6.3.8.5.2.2.3.5.4.8.1.3.1.7.1 1v4.2c-.1 0-.2 0-.4.1-.2 0-.4.1-.6.1-.2 0-.5 0-.8.1s-.5 0-.8 0c-.4 0-.7 0-1.1-.1-.3-.1-.6-.2-.8-.4-.2-.2-.4-.4-.5-.7s-.2-.6-.2-1 .1-.7.2-1c.2-.3.4-.5.6-.7.3-.2.6-.3.9-.4s.7-.1 1.1-.1h.4c.1 0 .3 0 .4.1.1 0 .2 0 .3.1h.2v-.3c0-.2 0-.4-.1-.6 0-.2-.1-.4-.2-.5-.1-.2-.3-.3-.5-.4-.2-.1-.4-.1-.8-.1s-.7 0-1 .1c-.3.1-.5.1-.7.2l-.1-1c.2-.1.4-.1.8-.2.3.1.7 0 1.2 0zm.1 6.1h.8c.2 0 .4 0 .6-.1v-2c-.1 0-.2-.1-.4-.1H90.3c-.2 0-.4.1-.6.2-.2.1-.3.2-.4.3-.1.1-.2.3-.2.6 0 .4.1.7.4.9.2.1.6.2 1.1.2zM99.3 333.3c-.1.1-.3.2-.6.3s-.6.2-1 .2-.8-.1-1.2-.2c-.4-.1-.7-.3-.9-.6-.3-.3-.5-.6-.6-1-.2-.4-.2-.9-.2-1.5 0-.5.1-.9.2-1.4.1-.4.4-.8.6-1.1s.6-.5 1-.7c.4-.2.9-.3 1.4-.3.6 0 1.1 0 1.5.1.4.1.8.2 1.1.2v6c0 1-.3 1.8-.8 2.3s-1.4.7-2.4.7c-.4 0-.8 0-1.2-.1s-.7-.2-1-.2l.2-1.1c.2.1.5.2.9.3.4.1.7.1 1.1.1.7 0 1.2-.1 1.6-.4.3-.3.5-.7.5-1.4v-.2zm0-5c-.1 0-.3-.1-.5-.1H98c-.7 0-1.2.2-1.5.6s-.5 1-.5 1.7c0 .4.1.7.2 1s.2.5.4.7c.2.2.4.3.6.4s.4.1.7.1c.3 0 .6 0 .9-.1.3-.1.5-.2.6-.3v-4zM102.2 330.6c0-.6.1-1.1.3-1.6.2-.4.4-.8.7-1.1s.6-.5 1-.7c.4-.1.8-.2 1.1-.2.9 0 1.6.3 2.1.9.5.6.7 1.4.7 2.6v.4h-4.6c.1.7.3 1.2.6 1.6s.9.5 1.7.5c.4 0 .8 0 1.1-.1.3-.1.5-.1.7-.2l.2 1c-.1.1-.4.2-.8.2-.4.1-.8.1-1.3.1-.6 0-1.1-.1-1.5-.3-.4-.2-.8-.4-1.1-.7-.3-.3-.5-.7-.6-1.1-.2-.3-.3-.8-.3-1.3zm4.6-.7c0-.5-.1-1-.4-1.3-.3-.4-.7-.5-1.2-.5-.3 0-.5.1-.7.2-.2.1-.4.2-.5.4-.1.2-.3.4-.3.6s-.1.5-.2.7h3.3zM115.8 334.1c-.5 0-1-.1-1.4-.3-.4-.2-.8-.4-1-.7-.3-.3-.5-.7-.6-1.1s-.2-.9-.2-1.4c0-.5.1-1 .2-1.4.2-.4.4-.8.6-1.1.3-.3.6-.6 1-.7.4-.2.9-.3 1.3-.3.3 0 .6 0 .9.1.3.1.6.1.9.2l-.3 1c-.2-.1-.4-.2-.6-.2s-.5-.1-.8-.1c-.7 0-1.2.2-1.6.6-.4.4-.5 1-.5 1.9 0 .4 0 .7.1 1 .1.3.2.6.4.8s.4.4.7.5c.3.1.6.2 1 .2.3 0 .6 0 .9-.1s.5-.1.6-.2l.2 1c-.1 0-.2.1-.3.1s-.3.1-.4.1c-.2 0-.3.1-.5.1h-.6zM124.7 330.6c0 .5-.1 1-.2 1.5-.2.4-.4.8-.7 1.1-.3.3-.6.6-1 .7-.4.2-.8.3-1.3.3s-.9-.1-1.3-.3c-.4-.2-.7-.4-1-.7-.3-.3-.5-.7-.7-1.1-.2-.4-.2-.9-.2-1.5 0-.5.1-1 .2-1.4.2-.4.4-.8.7-1.1.3-.3.6-.6 1-.7.4-.2.8-.3 1.3-.3s.9.1 1.3.3c.4.2.7.4 1 .7.3.3.5.7.7 1.1.1.4.2.8.2 1.4zm-1.3 0c0-.8-.2-1.4-.5-1.8s-.8-.7-1.4-.7c-.6 0-1.1.2-1.4.7-.3.4-.5 1.1-.5 1.8s.2 1.4.5 1.8c.3.4.8.7 1.4.7.6 0 1.1-.2 1.4-.7s.5-1.1.5-1.8zM126.4 327.4c.3-.1.6-.1 1.1-.2.5-.1 1-.1 1.6-.1.5 0 1 .1 1.3.2.4.2.6.4.9.6.2.3.4.6.4 1 .1.4.1.8.1 1.3v3.8h-1.2v-3.5c0-.4 0-.8-.1-1.1-.1-.3-.1-.5-.3-.7-.1-.2-.3-.3-.5-.4-.2-.1-.5-.1-.8-.1h-1.3v5.7h-1.2v-6.5zM135 327.2h2.6v1H135v3.1c0 .3 0 .6.1.8.1.2.1.4.2.5.1.1.2.2.4.3s.3.1.5.1c.4 0 .7 0 .9-.1.2-.1.4-.1.5-.2l.2 1c-.1.1-.3.1-.6.2s-.7.1-1 .1c-.5 0-.8-.1-1.1-.2s-.5-.3-.7-.5c-.2-.2-.3-.5-.4-.9-.1-.3-.1-.7-.1-1.2v-6l1.2-.2v2.2zM138.6 330.6c0-.6.1-1.1.3-1.6.2-.4.4-.8.7-1.1s.6-.5 1-.7c.4-.1.8-.2 1.1-.2.9 0 1.6.3 2.1.9.5.6.7 1.4.7 2.6v.4h-4.6c.1.7.3 1.2.6 1.6s.9.5 1.7.5c.4 0 .8 0 1.1-.1.3-.1.5-.1.7-.2l.2 1c-.1.1-.4.2-.8.2-.4.1-.8.1-1.3.1-.6 0-1.1-.1-1.5-.3-.4-.2-.8-.4-1.1-.7-.3-.3-.5-.7-.6-1.1-.3-.3-.3-.8-.3-1.3zm4.6-.7c0-.5-.1-1-.4-1.3-.3-.4-.7-.5-1.2-.5-.3 0-.5.1-.7.2-.2.1-.4.2-.5.4-.1.2-.3.4-.3.6s-.1.5-.2.7h3.3zM146.2 327.4c.3-.1.6-.1 1.1-.2.5-.1 1-.1 1.6-.1.5 0 1 .1 1.3.2.4.2.6.4.9.6.2.3.4.6.4 1 .1.4.1.8.1 1.3v3.8h-1.2v-3.5c0-.4 0-.8-.1-1.1-.1-.3-.1-.5-.3-.7-.1-.2-.3-.3-.5-.4-.2-.1-.5-.1-.8-.1h-1.3v5.7h-1.2v-6.5zM154.8 327.2h2.6v1h-2.6v3.1c0 .3 0 .6.1.8.1.2.1.4.2.5.1.1.2.2.4.3s.3.1.5.1c.4 0 .7 0 .9-.1.2-.1.4-.1.5-.2l.2 1c-.1.1-.3.1-.6.2s-.7.1-1 .1c-.5 0-.8-.1-1.1-.2s-.5-.3-.7-.5c-.2-.2-.3-.5-.4-.9-.1-.3-.1-.7-.1-1.2v-6l1.2-.2v2.2z"/></g><g fill="#717877"><path d="M413.9 10.8c.4-.6.7-1.2 1.1-1.9.4-.6.7-1.3 1-1.9h1.7c-.5.9-.9 1.7-1.4 2.6-.5.9-1 1.7-1.6 2.6v3.3h-1.5v-3.3c-.6-.9-1.1-1.7-1.6-2.6s-1-1.7-1.4-2.6h1.8c.3.6.6 1.3.9 1.9.3.6.6 1.3 1 1.9zM423.8 12.3c0 .5-.1 1-.2 1.4-.1.4-.4.8-.6 1.1-.3.3-.6.5-1 .7-.4.2-.8.2-1.3.2s-.9-.1-1.3-.2c-.4-.2-.7-.4-1-.7-.3-.3-.5-.6-.6-1.1-.2-.4-.2-.9-.2-1.4s.1-1 .2-1.4c.2-.4.4-.8.6-1.1.3-.3.6-.5 1-.7.4-.2.8-.2 1.2-.2s.9.1 1.2.2c.4.2.7.4 1 .7.3.3.5.6.6 1.1s.4.9.4 1.4zm-1.5 0c0-.6-.1-1.1-.4-1.5-.3-.4-.7-.6-1.1-.6s-.9.2-1.1.6c-.3.4-.4.9-.4 1.5s.1 1.2.4 1.5c.3.4.7.6 1.1.6s.9-.2 1.1-.6c.3-.4.4-.9.4-1.5zM430.6 15.3c-.3.1-.7.1-1.1.2-.5.1-1 .1-1.5.1s-.9-.1-1.3-.2c-.3-.1-.6-.4-.8-.6-.2-.3-.4-.6-.4-.9s-.1-.8-.1-1.2V9.1h1.5v3.4c0 .7.1 1.2.3 1.5.2.3.5.4 1 .4h.6c.2 0 .3 0 .4-.1V9.1h1.5v6.2zM436.2 10.4c-.1 0-.3-.1-.5-.1s-.5-.1-.8-.1h-.5c-.2 0-.3.1-.4.1v5.1h-1.5v-6c.3-.1.6-.2 1.1-.3.4-.1.9-.1 1.4-.1h.7c.1 0 .3 0 .4.1.1 0 .2.1.3.1l-.2 1.2zM444.1 11.5l-.6 2.1c-.2.7-.4 1.3-.6 1.9h-1.2c-.2-.4-.3-.8-.5-1.3s-.4-1-.5-1.5c-.2-.5-.4-1.1-.5-1.7-.2-.6-.4-1.2-.5-1.9h1.6c.1.3.2.7.3 1.1l.3 1.2.3 1.2c.1.4.2.8.3 1.1.1-.4.2-.8.4-1.2s.2-.8.3-1.2l.3-1.2c.1-.4.2-.7.3-1.1h1.1c.1.3.2.7.2 1.1l.3 1.2.3 1.2c.1.4.2.8.4 1.2.1-.3.2-.7.3-1.1l.3-1.2.3-1.2c.1-.4.2-.8.3-1.1h1.5c-.2.6-.3 1.2-.5 1.9-.2.6-.4 1.2-.5 1.7-.2.5-.4 1.1-.5 1.5-.2.5-.4.9-.5 1.3h-1.2c-.2-.6-.4-1.2-.7-1.9-.4-.7-.6-1.4-.8-2.1zM449.5 12.3c0-.6.1-1.1.3-1.5.2-.4.4-.8.7-1.1.3-.3.6-.5 1-.6s.7-.2 1.1-.2c.9 0 1.6.3 2.1.8s.7 1.4.7 2.5v.6H451c0 .5.2.9.5 1.2.3.3.8.4 1.4.4.4 0 .7 0 1-.1.3-.1.5-.1.7-.2l.2 1.2c-.1 0-.2.1-.3.1-.1 0-.3.1-.5.1s-.4.1-.6.1h-.6c-.6 0-1.1-.1-1.5-.3-.4-.2-.8-.4-1-.7s-.5-.6-.6-1.1-.2-.7-.2-1.2zm4.3-.6c0-.2 0-.4-.1-.6-.1-.2-.1-.3-.3-.5s-.2-.2-.4-.3-.3-.1-.6-.1c-.2 0-.4 0-.6.1-.2.1-.3.2-.4.3-.1.1-.2.3-.3.5s-.1.4-.1.6h2.8zM462.6 12.3c0 .5-.1 1-.2 1.4-.2.4-.4.8-.6 1.1-.3.3-.6.5-1 .7-.4.2-.9.2-1.4.2-.5 0-1 0-1.4-.1-.4-.1-.8-.2-1.1-.2V6.2l1.5-.2v3.3c.2-.1.4-.2.6-.2.2-.1.5-.1.8-.1.4 0 .9.1 1.2.2.4.2.7.4.9.7.2.3.4.6.5 1.1.2.3.2.8.2 1.3zm-1.5 0c0-.6-.1-1.1-.4-1.5s-.6-.6-1.2-.6c-.2 0-.5 0-.7.1-.2.1-.4.2-.5.2v3.7c.1 0 .2 0 .4.1h.6c.5 0 1-.2 1.3-.6.4-.3.5-.8.5-1.4zM465.8 14.4c.4 0 .7 0 .9-.1.2-.1.3-.3.3-.5s-.1-.4-.3-.5c-.2-.1-.5-.3-1-.5-.3-.1-.5-.2-.7-.3s-.4-.2-.6-.4c-.2-.1-.3-.3-.4-.5-.1-.2-.1-.5-.1-.8 0-.6.2-1.1.7-1.4.4-.3 1-.5 1.8-.5.4 0 .7 0 1.1.1.3.1.6.1.8.2l-.3 1.2c-.2-.1-.4-.1-.6-.2-.3-.1-.5-.1-.9-.1-.3 0-.5.1-.7.2-.2.1-.3.3-.3.5 0 .1 0 .2.1.3 0 .1.1.2.2.2s.2.1.4.2c.1.1.3.1.5.2.4.1.6.3.9.4.2.1.4.3.6.4.2.2.3.3.3.5.1.2.1.4.1.7 0 .6-.2 1.1-.7 1.4-.5.3-1.1.5-1.9.5-.6 0-1 0-1.4-.1-.3-.1-.6-.2-.7-.2l.3-1.2c.2.1.5.2.8.3h.8zM471.4 7.2c0 .3-.1.5-.3.7s-.4.2-.6.2c-.3 0-.5-.1-.6-.2s-.3-.4-.3-.7c0-.3.1-.5.3-.7s.4-.2.6-.2c.2 0 .5.1.6.2s.3.4.3.7zm-.1 8.3h-1.5V9.1h1.5v6.4zM473.1 7.4l1.5-.2v1.9h2.3v1.2h-2.3v2.6c0 .5.1.9.2 1.1.2.2.4.3.8.3.3 0 .5 0 .7-.1.2-.1.4-.1.5-.2l.2 1.2c-.2.1-.4.1-.7.2-.3.1-.6.1-1 .1-.5 0-.8-.1-1.1-.2s-.5-.3-.7-.5-.3-.5-.4-.8c-.1-.3-.1-.7-.1-1.1V7.4zM477.8 12.3c0-.6.1-1.1.3-1.5.2-.4.4-.8.7-1.1.3-.3.6-.5 1-.6s.7-.2 1.1-.2c.9 0 1.6.3 2.1.8s.7 1.4.7 2.5v.6h-4.2c0 .5.2.9.5 1.2.3.3.8.4 1.4.4.4 0 .7 0 1-.1.3-.1.5-.1.7-.2l.2 1.2c-.1 0-.2.1-.3.1-.1 0-.3.1-.5.1s-.4.1-.6.1h-.6c-.6 0-1.1-.1-1.5-.3-.4-.2-.8-.4-1-.7s-.5-.6-.6-1.1-.4-.7-.4-1.2zm4.3-.6c0-.2 0-.4-.1-.6-.1-.2-.1-.3-.3-.5s-.2-.2-.4-.3-.3-.1-.6-.1c-.2 0-.4 0-.6.1-.2.1-.3.2-.4.3-.1.1-.2.3-.3.5s-.1.4-.1.6h2.8z"/></g><g fill="#717877"><path d="M475.2 63.8c-.6 0-1.2-.1-1.7-.3-.5-.2-.9-.5-1.3-.9s-.6-.8-.8-1.4c-.2-.5-.3-1.2-.3-1.9s.1-1.3.3-1.9c.2-.5.5-1 .9-1.4s.8-.7 1.3-.9c.5-.2 1-.3 1.6-.3.4 0 .7 0 1 .1s.5.1.7.2c.2.1.4.1.5.2.1.1.2.1.3.2l-.5 1.3c-.2-.1-.5-.2-.8-.3-.4-.1-.8-.2-1.2-.2-.4 0-.7.1-1 .2-.3.1-.6.3-.8.6-.2.3-.4.6-.5 1s-.2.8-.2 1.3c0 .4.1.9.2 1.2.1.4.3.7.5 1 .2.3.5.5.8.6.3.2.7.2 1.2.2s1-.1 1.3-.2c.3-.1.6-.2.8-.3l.4 1.3c-.1.1-.2.1-.4.2s-.4.1-.6.2c-.2.1-.5.1-.8.1-.3.1-.6.1-.9.1zM481.3 57.1c.5 0 .9.1 1.2.2s.6.3.8.5c.2.2.3.5.4.8.1.3.1.7.1 1v3.9c-.2 0-.6.1-1 .2-.5.1-1 .1-1.6.1-.4 0-.7 0-1.1-.1-.3-.1-.6-.2-.8-.4-.2-.2-.4-.4-.5-.6-.1-.3-.2-.6-.2-1s.1-.7.2-.9c.1-.3.3-.5.6-.6s.5-.3.9-.3c.3-.1.7-.1 1-.1h.5c.2 0 .4.1.6.1v-.2c0-.2 0-.3-.1-.5s-.1-.3-.2-.4c-.1-.1-.2-.2-.4-.3-.2-.1-.4-.1-.6-.1-.3 0-.7 0-.9.1-.3 0-.5.1-.7.2l-.2-1.2c.2-.1.5-.1.8-.2.4-.2.8-.2 1.2-.2zm.1 5.5c.5 0 .8 0 1-.1v-1.6c-.1 0-.2 0-.4-.1s-.3 0-.5 0h-.5c-.2 0-.3.1-.5.1l-.3.3c-.1.1-.1.3-.1.4 0 .4.1.6.3.7s.6.3 1 .3zM485.7 57.4c.3-.1.7-.2 1.1-.2.5-.1 1-.1 1.5-.1s1 .1 1.3.2c.4.1.6.3.8.6s.4.6.4.9c.1.4.1.8.1 1.2v3.6h-1.5v-3.4c0-.3 0-.6-.1-.9s-.1-.4-.2-.6c-.1-.2-.2-.3-.4-.3s-.4-.1-.6-.1h-.6c-.2 0-.4 0-.5.1v5.2h-1.5v-6.2zM494.4 63.6c-.4-.8-.8-1.8-1.3-2.9s-.8-2.3-1.2-3.5h1.6c.1.4.2.7.3 1.2.1.4.2.8.4 1.2.1.4.3.8.4 1.2s.3.7.4 1c.1-.3.3-.7.4-1 .1-.4.3-.8.4-1.2.1-.4.3-.8.4-1.2l.3-1.2h1.5c-.4 1.3-.7 2.4-1.2 3.5s-.9 2.1-1.3 2.9h-1.1zM501.3 57.1c.5 0 .9.1 1.2.2s.6.3.8.5c.2.2.3.5.4.8.1.3.1.7.1 1v3.9c-.2 0-.6.1-1 .2-.5.1-1 .1-1.6.1-.4 0-.7 0-1.1-.1-.3-.1-.6-.2-.8-.4-.2-.2-.4-.4-.5-.6-.1-.3-.2-.6-.2-1s.1-.7.2-.9c.1-.3.3-.5.6-.6s.5-.3.9-.3c.3-.1.7-.1 1-.1h.5c.2 0 .4.1.6.1v-.2c0-.2 0-.3-.1-.5s-.1-.3-.2-.4c-.1-.1-.2-.2-.4-.3-.2-.1-.4-.1-.6-.1-.3 0-.7 0-.9.1-.3 0-.5.1-.7.2l-.2-1.2c.2-.1.5-.1.8-.2.4-.2.8-.2 1.2-.2zm.1 5.5c.5 0 .8 0 1-.1v-1.6c-.1 0-.2 0-.4-.1s-.3 0-.5 0h-.5c-.2 0-.3.1-.5.1l-.3.3c-.1.1-.1.3-.1.4 0 .4.1.6.3.7s.6.3 1 .3zM507.3 62.6c.4 0 .7 0 .9-.1.2-.1.3-.3.3-.5s-.1-.4-.3-.5c-.2-.1-.5-.3-1-.5-.3-.1-.5-.2-.7-.3s-.4-.2-.6-.4c-.2-.1-.3-.3-.4-.5-.1-.2-.1-.5-.1-.8 0-.6.2-1.1.7-1.4.4-.3 1-.5 1.8-.5.4 0 .7 0 1.1.1.3.1.6.1.8.2l-.3 1.2c-.2-.1-.4-.1-.6-.2-.3-.1-.5-.1-.9-.1-.3 0-.5.1-.7.2-.2.1-.3.3-.3.5 0 .1 0 .2.1.3 0 .1.1.2.2.2s.2.1.4.2c.1.1.3.1.5.2.4.1.6.3.9.4.2.1.4.3.6.4.2.2.3.3.3.5.1.2.1.4.1.7 0 .6-.2 1.1-.7 1.4-.5.3-1.1.5-1.9.5-.6 0-1 0-1.4-.1-.3-.1-.6-.2-.7-.2l.3-1.2c.2.1.5.2.8.3.1-.1.4 0 .8 0z"/></g><g fill="#717877"><path d="M484.8 269.9c.9 0 1.6-.2 2-.5s.6-.7.6-1.3c0-.3-.1-.6-.2-.9-.1-.2-.3-.5-.6-.7-.3-.2-.6-.4-.9-.5-.4-.2-.8-.3-1.3-.5s-.9-.4-1.4-.6c-.4-.2-.8-.5-1.2-.8s-.6-.7-.8-1.1c-.2-.4-.3-.9-.3-1.5 0-1.3.4-2.2 1.3-3 .9-.7 2-1.1 3.5-1.1.9 0 1.6.1 2.3.3.7.2 1.2.4 1.6.6l-.8 2c-.5-.3-1-.4-1.5-.6-.5-.1-1.1-.2-1.7-.2-.7 0-1.2.1-1.6.4s-.6.7-.6 1.2c0 .3.1.6.2.8.1.2.3.4.5.6.2.2.5.3.8.5.3.1.7.3 1 .4.7.2 1.2.5 1.8.7.5.2.9.5 1.3.9.4.3.6.7.8 1.2s.3 1 .3 1.7c0 1.3-.4 2.2-1.3 2.9-.9.7-2.2 1-3.9 1-.6 0-1.1 0-1.6-.1s-.9-.2-1.3-.3c-.4-.1-.7-.2-1-.3-.3-.1-.5-.2-.6-.3l.7-2.1c.4.2.8.4 1.5.6.8.5 1.6.6 2.4.6zM491.6 266.5c0-.8.1-1.5.4-2.2.2-.7.6-1.3 1-1.8s1-.9 1.6-1.2c.6-.3 1.4-.4 2.2-.4 1 0 1.9.2 2.8.5l-.5 2c-.3-.1-.6-.2-1-.3s-.7-.1-1.1-.1c-.9 0-1.7.3-2.2.9-.5.6-.7 1.4-.7 2.5 0 1 .2 1.9.7 2.5s1.3.9 2.4.9c.4 0 .8 0 1.2-.1.4-.1.7-.2 1-.3l.3 2c-.3.1-.7.3-1.2.4-.5.1-1.1.2-1.7.2-.9 0-1.7-.1-2.3-.4a5 5 0 01-1.6-1.1c-.4-.5-.8-1.1-1-1.7-.2-.7-.3-1.5-.3-2.3zM507.5 263.5c-.2-.1-.5-.1-.8-.2s-.8-.1-1.2-.1c-.3 0-.6 0-.9.1-.3.1-.5.1-.6.1v8.4h-2.4v-10c.5-.2 1-.3 1.8-.5s1.5-.2 2.3-.2h.6c.2 0 .4 0 .6.1.2 0 .4.1.6.1.2 0 .4.1.5.1l-.5 2.1zM512.3 258.2c0 .5-.1.8-.4 1.1-.3.3-.6.4-1 .4s-.8-.1-1.1-.4c-.3-.3-.4-.6-.4-1.1 0-.5.1-.8.4-1.1.3-.3.6-.4 1.1-.4.4 0 .7.1 1 .4s.4.7.4 1.1zm-.2 13.6h-2.4v-10.5h2.4v10.5zM524.6 266.5c0 .8-.1 1.5-.3 2.2-.2.7-.5 1.2-.9 1.7s-.9.9-1.5 1.1c-.6.3-1.2.4-2 .4-.5 0-.9-.1-1.4-.2-.4-.1-.8-.3-1-.4v4.1h-2.4v-13.8c.5-.1 1.1-.3 1.8-.4.7-.1 1.5-.2 2.3-.2.8 0 1.6.1 2.2.4.7.3 1.2.6 1.7 1.1s.8 1 1.1 1.7c.3.7.4 1.5.4 2.3zm-2.5.1c0-1.1-.2-1.9-.7-2.5-.5-.6-1.3-.9-2.3-.9h-.7c-.2 0-.5.1-.7.1v6c.2.1.5.3.8.4.4.1.7.2 1.1.2.9 0 1.5-.3 1.9-.9.4-.6.6-1.4.6-2.4zM527 258.5l2.4-.4v3.2h3.7v2h-3.7v4.3c0 .8.1 1.4.4 1.8.3.4.7.5 1.4.5.4 0 .8 0 1.2-.1.3-.1.6-.2.8-.3l.4 1.9c-.3.1-.6.2-1.1.4-.5.1-1 .2-1.6.2-.7 0-1.4-.1-1.9-.3-.5-.2-.9-.5-1.2-.9s-.5-.8-.6-1.4c-.1-.5-.2-1.2-.2-1.9v-9zM538.1 270c.6 0 1.1-.1 1.4-.2.3-.2.4-.4.4-.8 0-.3-.2-.6-.5-.9-.3-.2-.8-.5-1.5-.7-.4-.2-.8-.3-1.2-.5-.4-.2-.7-.4-.9-.6-.3-.2-.5-.5-.6-.9-.2-.3-.2-.8-.2-1.3 0-1 .4-1.7 1.1-2.3.7-.6 1.7-.8 2.9-.8.6 0 1.2.1 1.8.2.6.1 1 .2 1.3.3l-.4 2c-.3-.1-.6-.2-1-.3-.4-.1-.9-.2-1.4-.2-.5 0-.9.1-1.2.3-.3.2-.5.4-.5.8 0 .2 0 .3.1.5.1.1.2.3.3.4s.3.2.6.3.5.2.9.3c.6.2 1.1.4 1.5.6.4.2.7.4 1 .7s.5.6.6.9c.1.3.2.7.2 1.2 0 1-.4 1.8-1.1 2.3-.7.5-1.8.8-3.2.8-.9 0-1.7-.1-2.2-.2-.6-.2-1-.3-1.2-.4l.4-2c.4.1.8.3 1.3.4.1.1.6.1 1.3.1z"/></g><g fill="#717877"><path d="M477.8 549.7c-.7 0-1.5 0-2.2-.1-.7 0-1.4-.1-2-.3v-13.5c.3-.1.6-.1.9-.1.3 0 .7-.1 1-.1s.7 0 1-.1h1c.8 0 1.6.1 2.3.2.7.1 1.3.3 1.9.6.5.3.9.7 1.2 1.2.3.5.4 1.1.4 1.8s-.2 1.2-.5 1.7-.8.8-1.3 1.1c.8.3 1.5.7 1.9 1.2.4.5.6 1.2.6 2.1 0 1.4-.5 2.5-1.6 3.2-.8.8-2.4 1.1-4.6 1.1zm-1.7-8.4h1.8c1 0 1.7-.1 2.3-.4s.8-.8.8-1.5-.3-1.1-.8-1.4c-.6-.3-1.3-.4-2.2-.4h-1c-.3 0-.6 0-.8.1v3.6zm0 2v4.2c.3 0 .6 0 .9.1h.9c.5 0 1 0 1.5-.1l1.2-.3c.3-.2.6-.4.8-.7.2-.3.3-.6.3-1.1 0-.8-.3-1.3-.9-1.6-.6-.3-1.4-.5-2.4-.5h-2.3zM490.2 538.8c.8 0 1.5.1 2 .3s1 .5 1.3.8c.3.4.6.8.7 1.3.1.5.2 1.1.2 1.7v6.3c-.4.1-.9.2-1.7.3-.8.1-1.6.2-2.6.2-.6 0-1.2-.1-1.7-.2s-1-.3-1.3-.6c-.4-.3-.7-.6-.9-1-.2-.4-.3-1-.3-1.6 0-.6.1-1.1.4-1.5.2-.4.5-.8.9-1 .4-.3.9-.4 1.4-.6.5-.1 1.1-.2 1.6-.2h.8c.3 0 .6.1.9.2v-.4c0-.3 0-.5-.1-.8-.1-.3-.2-.5-.4-.7-.2-.2-.4-.3-.7-.4-.3-.1-.6-.2-1-.2-.6 0-1.1 0-1.5.1-.5.1-.8.2-1.1.3l-.3-2c.3-.1.8-.2 1.3-.3.8.1 1.4 0 2.1 0zm.2 9c.7 0 1.3 0 1.7-.1V545c-.1 0-.3-.1-.6-.1s-.5-.1-.8-.1c-.3 0-.5 0-.8.1-.3 0-.5.1-.7.2-.2.1-.4.3-.5.5-.1.2-.2.4-.2.7 0 .6.2 1 .5 1.2.3.2.7.3 1.4.3zM496.8 544.3c0-.8.1-1.5.4-2.2.2-.7.6-1.3 1-1.8s1-.9 1.6-1.2c.6-.3 1.4-.4 2.2-.4 1 0 1.9.2 2.8.5l-.5 2c-.3-.1-.6-.2-1-.3s-.7-.1-1.1-.1c-.9 0-1.7.3-2.2.9-.5.6-.7 1.4-.7 2.5 0 1 .2 1.9.7 2.5s1.3.9 2.4.9c.4 0 .8 0 1.2-.1.4-.1.7-.2 1-.3l.3 2c-.3.1-.7.3-1.2.4-.5.1-1.1.2-1.7.2-.9 0-1.7-.1-2.3-.4a5 5 0 01-1.6-1.1c-.4-.5-.8-1.1-1-1.7-.2-.8-.3-1.5-.3-2.3zM509.2 543.2c.3-.3.6-.7 1-1 .3-.4.7-.7 1-1.1.3-.4.7-.7 1-1.1s.6-.6.8-.9h2.9c-.7.7-1.4 1.5-2.1 2.3-.7.8-1.5 1.6-2.2 2.3.4.3.8.7 1.3 1.2.4.5.9 1 1.3 1.5s.8 1.1 1.2 1.6c.4.5.7 1 .9 1.5h-2.8c-.2-.4-.5-.8-.8-1.3s-.7-.9-1-1.3c-.4-.4-.7-.8-1.1-1.2-.4-.4-.7-.7-1.1-1v4.8h-2.4v-15.1l2.4-.4v9.2zM516.8 544.4c0-.9.1-1.7.4-2.4s.6-1.3 1.1-1.7 1-.8 1.6-1c.6-.2 1.2-.3 1.8-.3 1.4 0 2.6.4 3.4 1.3.8.9 1.2 2.2 1.2 4v.9h-6.9c.1.8.4 1.5.9 2s1.3.7 2.3.7c.6 0 1.1-.1 1.6-.2s.9-.2 1.2-.3l.3 2c-.1.1-.3.1-.5.2s-.5.1-.8.2c-.3.1-.6.1-1 .2-.3 0-.7.1-1.1.1-.9 0-1.7-.1-2.4-.4-.7-.3-1.2-.7-1.7-1.1-.4-.5-.8-1.1-1-1.7-.3-1-.4-1.7-.4-2.5zm7-1.1c0-.3 0-.7-.1-1s-.2-.6-.4-.8c-.2-.2-.4-.4-.7-.5-.3-.1-.6-.2-.9-.2-.4 0-.7.1-1 .2-.3.1-.5.3-.7.5-.2.2-.3.5-.5.8-.1.3-.2.6-.2.9h4.5zM528.8 539.4c.5-.1 1.1-.3 1.8-.4.7-.1 1.6-.2 2.5-.2.9 0 1.6.1 2.1.3.6.2 1 .6 1.4 1 .3.4.6.9.7 1.5.1.6.2 1.2.2 2v5.9h-2.4V544c0-.6 0-1-.1-1.4s-.2-.7-.4-1c-.2-.2-.4-.4-.7-.5-.3-.1-.6-.2-1-.2-.3 0-.6 0-1 .1-.3 0-.6.1-.7.1v8.4h-2.4v-10.1zM549.3 549.2c-.5.1-1.1.3-1.8.4-.7.1-1.5.2-2.3.2-.8 0-1.6-.1-2.2-.4s-1.2-.6-1.7-1.1-.8-1-1.1-1.7c-.2-.7-.4-1.4-.4-2.3 0-.8.1-1.6.3-2.3.2-.7.5-1.3.9-1.7.4-.5.9-.9 1.5-1.1s1.2-.4 2-.4c.5 0 1 .1 1.3.2s.7.3 1 .4v-5l2.4-.4v15.2zm-6.9-4.9c0 1.1.3 1.9.8 2.5s1.2.9 2.1.9h1c.3 0 .5-.1.7-.1v-6c-.2-.1-.5-.3-.8-.4-.4-.1-.7-.2-1.1-.2-.9 0-1.5.3-1.9.9-.6.5-.8 1.4-.8 2.4z"/></g><path fill="none" stroke="#40B481" stroke-width="2" stroke-miterlimit="10" d="M459 81.7H238.7"/><path fill="#40B481" d="M240.3 76l-9.8 5.7 9.8 5.7z"/><path fill="none" stroke="#E01717" stroke-width="2.857" stroke-miterlimit="10" d="M515.5 223.3v-44.6"/><path fill="#E01717" d="M521.2 180.4l-5.7-9.9-5.7 9.9z"/><path fill="none" stroke="#C6C6C6" stroke-width="2.857" stroke-miterlimit="10" d="M515.5 308.4v29.5"/><path fill="#C6C6C6" d="M509.8 336.3l5.7 9.8 5.7-9.8z"/><path fill="none" stroke="#C6C6C6" stroke-width="2.857" stroke-miterlimit="10" d="M515.5 454.5v29.6"/><path fill="#C6C6C6" d="M509.8 482.4l5.7 9.9 5.7-9.9z"/><path fill="none" stroke="#40B481" stroke-width="2" stroke-miterlimit="10" d="M230.5 132.7h220.3"/><path fill="#40B481" d="M449.2 138.4l9.8-5.7-9.8-5.7z"/><circle fill="#40B481" stroke="#FFF" stroke-width="2.286" stroke-miterlimit="10" cx="382.8" cy="23.3" r="22.2"/><g fill="#717877"><path d="M53.6 14.4c.6 0 1-.1 1.2-.3s.4-.5.4-.8c0-.2 0-.4-.1-.5-.1-.1-.2-.3-.4-.4l-.6-.3c-.2-.1-.5-.2-.8-.3l-.9-.3c-.3-.1-.5-.3-.7-.5s-.4-.4-.5-.7c-.1-.3-.2-.6-.2-.9 0-.8.3-1.4.8-1.8s1.3-.7 2.2-.7c.5 0 1 .1 1.4.2s.7.2 1 .4L56 8.6c-.3-.2-.6-.3-.9-.4-.3-.1-.7-.1-1-.1-.4 0-.7.1-1 .3-.2.2-.3.4-.3.7 0 .2 0 .3.1.5.1.1.2.3.3.4.1.1.3.2.5.3l.6.3c.4.1.8.3 1.1.4.3.2.6.3.8.5.2.2.4.5.5.7.1.3.2.6.2 1 0 .8-.3 1.4-.8 1.8s-1.3.6-2.4.6c-.4 0-.7 0-1-.1s-.5-.1-.8-.2c-.2-.1-.4-.1-.6-.2-.2-.1-.3-.1-.4-.2l.5-1.3c.2.1.5.2.9.4s.8.4 1.3.4zM58 7.4l1.5-.2v1.9h2.3v1.2h-2.3v2.6c0 .5.1.9.2 1.1.2.2.4.3.8.3.3 0 .5 0 .7-.1.2-.1.4-.1.5-.2l.2 1.2c-.2.1-.4.1-.7.2-.3.1-.6.1-1 .1-.5 0-.8-.1-1.1-.2-.3-.1-.5-.3-.7-.5s-.3-.5-.4-.8c.1-.2 0-.6 0-1V7.4zM68.9 12.3c0 .5-.1 1-.2 1.4-.1.4-.4.8-.6 1.1-.3.3-.6.5-1 .7-.4.2-.8.2-1.3.2s-.9-.1-1.3-.2c-.4-.2-.7-.4-1-.7-.3-.3-.5-.6-.6-1.1-.2-.4-.2-.9-.2-1.4s.1-1 .2-1.4.4-.8.6-1.1c.3-.3.6-.5 1-.7.4-.2.8-.2 1.2-.2.4 0 .9.1 1.2.2.4.2.7.4 1 .7.3.3.5.6.6 1.1.3.4.4.9.4 1.4zm-1.5 0c0-.6-.1-1.1-.4-1.5-.3-.4-.7-.6-1.1-.6s-.9.2-1.1.6c-.3.4-.4.9-.4 1.5s.1 1.2.4 1.5c.3.4.7.6 1.1.6s.9-.2 1.1-.6.4-.9.4-1.5zM74.1 10.4c-.1 0-.3-.1-.5-.1s-.5-.1-.8-.1h-.5c-.2 0-.3.1-.4.1v5.1h-1.5v-6c.3-.1.6-.2 1.1-.3.4-.1.9-.1 1.4-.1h.7c.1 0 .3 0 .4.1.1 0 .2.1.3.1l-.2 1.2zM77.5 8.9c.5 0 .9.1 1.2.2s.6.3.8.5c.2.2.3.5.4.8s.1.7.1 1v3.9c-.2 0-.6.1-1 .2-.5.1-1 .1-1.6.1-.4 0-.7 0-1.1-.1-.3-.1-.6-.2-.8-.4-.2-.2-.4-.4-.5-.6s-.2-.6-.2-1 .1-.7.2-.9.3-.5.6-.6.5-.3.9-.3c.3-.1.7-.1 1-.1h.5c.2 0 .4.1.6.1v-.2c0-.2 0-.3-.1-.5s-.1-.3-.2-.4c-.1-.1-.2-.2-.4-.3s-.4-.1-.6-.1c-.3 0-.7 0-.9.1-.3 0-.5.1-.7.2l-.2-1.2c.2-.1.5-.2.8-.3.4 0 .8-.1 1.2-.1zm.1 5.6c.5 0 .8 0 1-.1v-1.6c-.1 0-.2 0-.4-.1h-1c-.2 0-.3.1-.5.1l-.3.3c-.1.1-.1.3-.1.4 0 .4.1.6.3.7.3.2.6.3 1 .3zM87.2 14.9c0 1-.3 1.8-.8 2.2-.5.5-1.3.7-2.4.7-.4 0-.8 0-1.1-.1-.4-.1-.7-.2-1-.3l.3-1.3c.3.1.5.2.9.3.3.1.7.1 1 .1.6 0 1-.1 1.3-.4.3-.2.4-.6.4-1.1v-.2c-.1.1-.3.1-.6.2-.2.1-.5.1-.8.1-.4 0-.8-.1-1.1-.2-.3-.1-.6-.3-.9-.6-.2-.3-.4-.6-.6-1s-.2-.8-.2-1.3.1-.9.2-1.3.4-.7.6-1c.3-.3.6-.5 1-.6.4-.1.8-.1 1.3-.1s.9 0 1.4.1c.4.1.8.2 1.1.2v5.6zm-4.1-2.8c0 .6.1 1.1.4 1.4.3.3.6.4 1.1.4.2 0 .5 0 .7-.1.2-.1.4-.1.5-.2v-3.3c-.1 0-.2 0-.4-.1h-.6c-.5 0-1 .2-1.2.5s-.5.9-.5 1.4zM88.7 12.3c0-.6.1-1.1.3-1.5.2-.4.4-.8.7-1.1.3-.3.6-.5 1-.6.3-.1.6-.2 1-.2.9 0 1.6.3 2.1.8s.7 1.4.7 2.5v.6h-4.2c0 .5.2.9.5 1.2.3.3.8.4 1.4.4.4 0 .7 0 1-.1s.5-.1.7-.2l.2 1.2c-.1 0-.2.1-.3.1-.1 0-.3.1-.5.1s-.4.1-.6.1h-.6c-.6 0-1.1-.1-1.5-.3-.4-.2-.8-.4-1-.7-.3-.3-.5-.6-.6-1.1-.2-.2-.3-.7-.3-1.2zm4.3-.6c0-.2 0-.4-.1-.6-.1-.2-.1-.3-.3-.5s-.2-.2-.4-.3c-.2-.1-.3-.1-.6-.1-.2 0-.4 0-.6.1-.2.1-.3.2-.4.3-.1.1-.2.3-.3.5s-.1.4-.1.6H93z"/></g><circle fill="#40B481" stroke="#FFF" stroke-width="2.286" stroke-miterlimit="10" cx="23.3" cy="23.3" r="22.2"/><path fill="#FFF" d="M28.9 32.2c-.3-.8-.5-1.5-.8-2.2s-.5-1.5-.8-2.3h-8.1c-.3.8-.5 1.5-.8 2.3s-.5 1.5-.8 2.2H14c.7-2.1 1.4-4 2.1-5.7.6-1.7 1.3-3.4 1.9-4.9s1.2-3 1.8-4.4 1.2-2.8 1.9-4.2H25c.6 1.4 1.3 2.8 1.9 4.2s1.2 2.9 1.8 4.4c.6 1.6 1.3 3.2 1.9 4.9.7 1.7 1.3 3.6 2.1 5.7h-3.8zm-5.6-15.5c-.4 1-.9 2.2-1.5 3.6-.5 1.4-1.1 2.9-1.7 4.6h6.3c-.6-1.6-1.2-3.2-1.7-4.6-.5-1.4-1-2.6-1.4-3.6zM382.9 32.5c-1 0-2 0-3.1-.1-1-.1-1.9-.2-2.7-.4V13.3c.4-.1.8-.1 1.3-.2s.9-.1 1.4-.2 1-.1 1.4-.1h1.3c1.2 0 2.2.1 3.2.3 1 .2 1.9.5 2.6.9.7.4 1.3.9 1.7 1.6.4.7.6 1.5.6 2.5 0 .9-.2 1.7-.7 2.3s-1 1.2-1.8 1.6c1.2.4 2 1 2.6 1.7.6.8.8 1.7.8 2.9 0 2-.7 3.5-2.2 4.5-1.2.9-3.4 1.4-6.4 1.4zm-2.4-11.7h2.5c1.3 0 2.4-.2 3.1-.6.8-.4 1.1-1.1 1.1-2 0-.9-.4-1.6-1.2-2-.8-.4-1.8-.6-3.1-.6h-1.4c-.4 0-.8 0-1.1.1v5.1zm0 2.8v5.9c.4 0 .8.1 1.3.1h1.2c.7 0 1.4 0 2-.1.6-.1 1.2-.3 1.6-.5.5-.2.8-.5 1.1-.9.3-.4.4-.9.4-1.5 0-1.1-.4-1.9-1.2-2.3-.8-.4-1.9-.6-3.3-.6h-3.1z"/><circle fill="#E01717" cx="29" cy="319.8" r="11.4"/><g fill="#515151"><path d="M56.6 263.6h1.3v9h-1.3v-9zM60 266.1c.3-.1.6-.1 1.1-.2.5-.1 1-.1 1.6-.1.4 0 .8.1 1.1.2.3.1.5.3.7.5.1 0 .2-.1.3-.2.1-.1.3-.2.5-.2.2-.1.4-.1.6-.2s.5-.1.8-.1c.5 0 .9.1 1.3.2.3.2.6.4.8.6s.3.6.4 1c.1.4.1.8.1 1.2v3.8H68v-3.5c0-.4 0-.7-.1-1 0-.3-.1-.5-.2-.7-.1-.2-.3-.3-.4-.4-.2-.1-.4-.1-.7-.1-.4 0-.7.1-1 .2-.3.1-.4.2-.5.3.1.2.1.5.2.7s.1.5.1.8v3.8H64v-3.5c0-.4 0-.7-.1-1 0-.3-.1-.5-.2-.7-.1-.2-.3-.3-.4-.4s-.4-.1-.7-.1h-1.3v5.7H60v-6.6zM73.4 265.7c.5 0 .9.1 1.2.2.3.1.6.3.8.5.2.2.3.5.4.8.1.3.1.7.1 1v4.2c-.1 0-.2 0-.4.1-.2 0-.4.1-.6.1-.2 0-.5 0-.8.1s-.5 0-.8 0c-.4 0-.7 0-1.1-.1-.3-.1-.6-.2-.8-.4-.2-.2-.4-.4-.5-.7s-.2-.6-.2-1 .1-.7.2-1c.2-.3.4-.5.6-.7.3-.2.6-.3.9-.4s.7-.1 1.1-.1h.4c.1 0 .3 0 .4.1.1 0 .2 0 .3.1h.2v-.3c0-.2 0-.4-.1-.6 0-.2-.1-.4-.2-.5-.1-.2-.3-.3-.5-.4-.2-.1-.4-.1-.8-.1s-.7 0-1 .1c-.3.1-.5.1-.7.2l-.1-1c.2-.1.4-.1.8-.2h1.2zm.1 6.1h.8c.2 0 .4 0 .6-.1v-2c-.1 0-.2-.1-.4-.1H73.2c-.2 0-.4.1-.6.2-.2.1-.3.2-.4.3-.1.1-.2.3-.2.6 0 .4.1.7.4.9.3.1.7.2 1.1.2zM82.3 272c-.1.1-.3.2-.6.3-.3.1-.6.2-1 .2s-.8-.1-1.2-.2c-.4-.1-.7-.3-.9-.6-.3-.3-.5-.6-.6-1-.2-.4-.2-.9-.2-1.5 0-.5.1-.9.2-1.4.1-.4.4-.8.6-1.1s.6-.5 1-.7c.4-.2.9-.3 1.4-.3.6 0 1.1 0 1.5.1s.8.2 1.1.2v6c0 1-.3 1.8-.8 2.3-.5.5-1.4.7-2.4.7-.4 0-.8 0-1.2-.1s-.7-.2-1-.2l.2-1.1c.2.1.5.2.9.3.4.1.7.1 1.1.1.7 0 1.2-.1 1.6-.4.3-.3.5-.7.5-1.4v-.2zm0-5.1c-.1 0-.3-.1-.5-.1H81c-.7 0-1.2.2-1.5.6-.4.4-.5 1-.5 1.7 0 .4 0 .7.1 1 .1.3.2.5.4.7.2.2.4.3.6.4s.4.1.7.1c.3 0 .6 0 .9-.1.3-.1.5-.2.6-.3v-4zM85.2 269.3c0-.6.1-1.1.3-1.6s.4-.8.7-1.1c.3-.3.6-.5 1-.7.4-.1.8-.2 1.1-.2.9 0 1.6.3 2.1.9.5.6.7 1.4.7 2.6v.4h-4.6c.1.7.3 1.2.6 1.6.4.4.9.5 1.7.5.4 0 .8 0 1.1-.1.3-.1.5-.1.7-.2l.2 1c-.1.1-.4.2-.8.2-.4.1-.8.1-1.3.1-.6 0-1.1-.1-1.5-.3s-.8-.4-1.1-.7c-.3-.3-.5-.7-.6-1.1-.3-.3-.3-.8-.3-1.3zm4.6-.7c0-.5-.1-1-.4-1.3-.3-.4-.7-.5-1.2-.5-.3 0-.5.1-.7.2s-.4.2-.5.4c-.1.2-.3.4-.3.6-.1.2-.1.5-.2.7h3.3zM97.4 271.8c.5 0 .9-.1 1.1-.2.2-.1.4-.3.4-.6s-.1-.5-.4-.7c-.2-.2-.6-.4-1.2-.6-.3-.1-.5-.2-.7-.3-.2-.1-.4-.2-.6-.4s-.3-.3-.4-.5-.2-.5-.2-.8c0-.6.2-1.1.7-1.4.4-.4 1-.5 1.8-.5h.6c.2 0 .4 0 .5.1.2 0 .3.1.4.1.1 0 .2.1.3.1l-.2 1c-.1-.1-.3-.1-.6-.2s-.6-.1-1-.1c-.3 0-.6.1-.9.2-.3.1-.4.3-.4.6 0 .1 0 .3.1.4.1.1.1.2.3.3s.3.2.4.3c.2.1.4.2.6.2.3.1.6.2.9.4.3.1.5.3.6.4s.3.3.4.6c.1.2.1.5.1.8 0 .6-.2 1.1-.7 1.4-.5.3-1.1.5-2 .5-.6 0-1.1 0-1.4-.1s-.6-.2-.7-.2l.2-1c.1.1.4.1.7.2.4-.1.8 0 1.3 0zM107 272.4c-.3.1-.6.1-1.1.2-.5.1-1 .1-1.6.1-.5 0-1-.1-1.3-.2-.4-.2-.6-.4-.9-.6-.2-.3-.4-.6-.5-1-.1-.4-.1-.8-.1-1.3v-3.8h1.2v3.5c0 .8.1 1.4.4 1.8.3.4.7.5 1.3.5h1.3v-5.7h1.2v6.5zM112 272.8c-.5 0-1-.1-1.4-.3-.4-.2-.8-.4-1-.7-.3-.3-.5-.7-.6-1.1s-.2-.9-.2-1.4c0-.5.1-1 .2-1.4.2-.4.4-.8.6-1.1.3-.3.6-.6 1-.7.4-.2.9-.3 1.3-.3.3 0 .6 0 .9.1.3.1.6.1.9.2l-.3 1c-.2-.1-.4-.2-.6-.2s-.5-.1-.8-.1c-.7 0-1.2.2-1.6.6-.4.4-.5 1-.5 1.9 0 .4 0 .7.1 1 .1.3.2.6.4.8s.4.4.7.5c.3.1.6.2 1 .2.3 0 .6 0 .9-.1s.5-.1.6-.2l.2 1c-.1 0-.2.1-.3.1s-.3.1-.4.1c-.2 0-.3.1-.5.1h-.6zM118.1 272.8c-.5 0-1-.1-1.4-.3-.4-.2-.8-.4-1-.7-.3-.3-.5-.7-.6-1.1s-.2-.9-.2-1.4c0-.5.1-1 .2-1.4.2-.4.4-.8.6-1.1.3-.3.6-.6 1-.7.4-.2.9-.3 1.3-.3.3 0 .6 0 .9.1.3.1.6.1.9.2l-.3 1c-.2-.1-.4-.2-.6-.2s-.5-.1-.8-.1c-.7 0-1.2.2-1.6.6-.4.4-.5 1-.5 1.9 0 .4 0 .7.1 1 .1.3.2.6.4.8s.4.4.7.5c.3.1.6.2 1 .2.3 0 .6 0 .9-.1s.5-.1.6-.2l.2 1c-.1 0-.2.1-.3.1s-.3.1-.4.1c-.2 0-.3.1-.5.1h-.6zM120.8 269.3c0-.6.1-1.1.3-1.6.2-.4.4-.8.7-1.1s.6-.5 1-.7c.4-.1.8-.2 1.1-.2.9 0 1.6.3 2.1.9.5.6.7 1.4.7 2.6v.4H122c.1.7.3 1.2.6 1.6s.9.5 1.7.5c.4 0 .8 0 1.1-.1.3-.1.5-.1.7-.2l.2 1c-.1.1-.4.2-.8.2-.4.1-.8.1-1.3.1-.6 0-1.1-.1-1.5-.3-.4-.2-.8-.4-1.1-.7-.3-.3-.5-.7-.6-1.1-.1-.3-.2-.8-.2-1.3zm4.6-.7c0-.5-.1-1-.4-1.3-.3-.4-.7-.5-1.2-.5-.3 0-.5.1-.7.2-.2.1-.4.2-.5.4-.1.2-.3.4-.3.6s-.1.5-.2.7h3.3zM130 271.8c.5 0 .9-.1 1.1-.2.2-.1.4-.3.4-.6s-.1-.5-.4-.7c-.2-.2-.6-.4-1.2-.6-.3-.1-.5-.2-.7-.3-.2-.1-.4-.2-.6-.4-.2-.1-.3-.3-.4-.5-.1-.2-.2-.5-.2-.8 0-.6.2-1.1.7-1.4.4-.4 1-.5 1.8-.5h.6c.2 0 .4 0 .5.1.2 0 .3.1.4.1.1 0 .2.1.3.1l-.2 1c-.1-.1-.3-.1-.6-.2s-.6-.1-1-.1c-.3 0-.6.1-.9.2-.3.1-.4.3-.4.6 0 .1 0 .3.1.4.1.1.1.2.3.3s.3.2.4.3c.2.1.4.2.6.2.3.1.6.2.9.4.3.1.5.3.6.4s.3.3.4.6c.1.2.1.5.1.8 0 .6-.2 1.1-.7 1.4-.5.3-1.1.5-2 .5-.6 0-1.1 0-1.4-.1s-.6-.2-.7-.2l.2-1c.1.1.4.1.7.2.4-.1.8 0 1.3 0zM136.9 262.5c.4 0 .7 0 .9.1.3.1.4.1.5.1l-.2 1c-.1-.1-.3-.1-.4-.1s-.4-.1-.7-.1c-.6 0-1 .2-1.2.5-.2.3-.3.7-.3 1.2v.6h2.6v1h-2.6v5.7h-1.2v-7.4c0-.9.2-1.5.6-2 .4-.3 1.1-.6 2-.6zM144.6 272.4c-.3.1-.6.1-1.1.2-.5.1-1 .1-1.6.1-.5 0-1-.1-1.3-.2-.4-.2-.6-.4-.9-.6-.2-.3-.4-.6-.5-1-.1-.4-.1-.8-.1-1.3v-3.8h1.2v3.5c0 .8.1 1.4.4 1.8.3.4.7.5 1.3.5h1.3v-5.7h1.2v6.5zM148.7 272.8c-.7 0-1.3-.2-1.6-.5-.3-.3-.5-.8-.5-1.4v-8.1l1.2-.2v8.1c0 .2 0 .4.1.5 0 .1.1.2.2.3s.2.1.3.2.3.1.5.1l-.2 1zM155.8 265.7h.4c.1 0 .3 0 .4.1.1 0 .2 0 .4.1s.2 0 .2.1l-.2 1.1c-.1 0-.3-.1-.5-.1s-.5-.1-.9-.1c-.2 0-.4 0-.7.1s-.4.1-.4.1v5.7h-1.2v-6.5c.3-.1.6-.2 1.1-.3.3-.2.8-.3 1.4-.3zM157.9 269.3c0-.6.1-1.1.3-1.6.2-.4.4-.8.7-1.1s.6-.5 1-.7c.4-.1.8-.2 1.1-.2.9 0 1.6.3 2.1.9.5.6.7 1.4.7 2.6v.4h-4.6c.1.7.3 1.2.6 1.6s.9.5 1.7.5c.4 0 .8 0 1.1-.1.3-.1.5-.1.7-.2l.2 1c-.1.1-.4.2-.8.2-.4.1-.8.1-1.3.1-.6 0-1.1-.1-1.5-.3-.4-.2-.8-.4-1.1-.7-.3-.3-.5-.7-.6-1.1-.2-.3-.3-.8-.3-1.3zm4.6-.7c0-.5-.1-1-.4-1.3-.3-.4-.7-.5-1.2-.5-.3 0-.5.1-.7.2-.2.1-.4.2-.5.4-.1.2-.3.4-.3.6s-.1.5-.2.7h3.3zM166.7 265.9h2.6v1h-2.6v3.1c0 .3 0 .6.1.8.1.2.1.4.2.5.1.1.2.2.4.3s.3.1.5.1c.4 0 .7 0 .9-.1.2-.1.4-.1.5-.2l.2 1c-.1.1-.3.1-.6.2s-.7.1-1 .1c-.5 0-.8-.1-1.1-.2s-.5-.3-.7-.5c-.2-.2-.3-.5-.4-.9-.1-.3-.1-.7-.1-1.2v-6l1.2-.2v2.2zM173.3 265.7h.4c.1 0 .3 0 .4.1.1 0 .2 0 .4.1s.2 0 .2.1l-.2 1.1c-.1 0-.3-.1-.5-.1s-.5-.1-.9-.1c-.2 0-.4 0-.7.1s-.4.1-.4.1v5.7h-1.2v-6.5c.3-.1.6-.2 1.1-.3.4-.2.8-.3 1.4-.3zM176.4 264.7c-.2 0-.4-.1-.6-.2-.2-.1-.2-.3-.2-.6 0-.2.1-.4.2-.6.2-.1.3-.2.6-.2s.4.1.6.2.2.3.2.6c0 .2-.1.4-.2.6-.2.1-.4.2-.6.2zm.6 7.9h-1.2v-6.8h1.2v6.8zM178.7 269.3c0-.6.1-1.1.3-1.6.2-.4.4-.8.7-1.1s.6-.5 1-.7c.4-.1.8-.2 1.1-.2.9 0 1.6.3 2.1.9.5.6.7 1.4.7 2.6v.4H180c.1.7.3 1.2.6 1.6s.9.5 1.7.5c.4 0 .8 0 1.1-.1.3-.1.5-.1.7-.2l.2 1c-.1.1-.4.2-.8.2-.4.1-.8.1-1.3.1-.6 0-1.1-.1-1.5-.3-.4-.2-.8-.4-1.1-.7-.3-.3-.5-.7-.6-1.1-.2-.3-.3-.8-.3-1.3zm4.6-.7c0-.5-.1-1-.4-1.3-.3-.4-.7-.5-1.2-.5-.3 0-.5.1-.7.2-.2.1-.4.2-.5.4-.1.2-.3.4-.3.6s-.1.5-.2.7h3.3zM191.6 265.9c-.3 1.3-.7 2.5-1.2 3.6s-.9 2.2-1.3 3.1H188c-.4-.9-.9-2-1.3-3.1s-.9-2.4-1.2-3.6h1.3c.1.4.2.9.4 1.4.1.5.3 1 .5 1.4.2.5.3.9.5 1.4.2.4.3.8.5 1.2.1-.3.3-.7.5-1.2.2-.4.3-.9.5-1.4.2-.5.3-.9.5-1.4.1-.5.3-.9.4-1.4h1zM192.3 269.3c0-.6.1-1.1.3-1.6.2-.4.4-.8.7-1.1s.6-.5 1-.7c.4-.1.8-.2 1.1-.2.9 0 1.6.3 2.1.9.5.6.7 1.4.7 2.6v.4h-4.6c.1.7.3 1.2.6 1.6s.9.5 1.7.5c.4 0 .8 0 1.1-.1.3-.1.5-.1.7-.2l.2 1c-.1.1-.4.2-.8.2-.4.1-.8.1-1.3.1-.6 0-1.1-.1-1.5-.3-.4-.2-.8-.4-1.1-.7-.3-.3-.5-.7-.6-1.1-.2-.3-.3-.8-.3-1.3zm4.6-.7c0-.5-.1-1-.4-1.3-.3-.4-.7-.5-1.2-.5-.3 0-.5.1-.7.2-.2.1-.4.2-.5.4-.1.2-.3.4-.3.6s-.1.5-.2.7h3.3zM204.3 262.8l1.2-.2v9.9c-.3.1-.6.2-1.1.2s-.9.1-1.5.1c-.5 0-1-.1-1.4-.2-.4-.2-.8-.4-1.1-.7s-.5-.7-.7-1.1-.2-.9-.2-1.5c0-.5.1-1 .2-1.4.1-.4.3-.8.6-1.1.3-.3.6-.6 1-.7.4-.2.8-.3 1.3-.3.4 0 .7.1 1 .2.3.1.5.2.7.3v-3.5zm0 4.5c-.1-.1-.4-.2-.6-.4-.3-.1-.6-.2-.9-.2-.3 0-.6.1-.9.2-.2.1-.4.3-.6.5s-.3.5-.3.8c-.1.3-.1.6-.1 1 0 .8.2 1.4.6 1.8.4.4.9.6 1.6.6h.8c.2 0 .4-.1.5-.1v-4.2zM209 271.9c0 .2-.1.4-.2.6-.2.2-.4.3-.6.3s-.5-.1-.6-.3c-.2-.2-.2-.4-.2-.6 0-.2.1-.4.2-.6.2-.2.4-.3.6-.3s.5.1.6.3c.2.2.2.4.2.6z"/></g><circle fill="#40B481" cx="29" cy="268.1" r="11.4"/><path fill="#FFF" d="M25.7 264.2c.7-.3 1.3-.6 2-1s1.3-.9 1.8-1.5H31v11.9h-2.1v-9.1c-.3.2-.7.5-1.2.7-.5.2-.9.4-1.4.6l-.6-1.6z"/><circle fill="#40B481" cx="291.4" cy="108.9" r="11.4"/><path fill="#FFF" d="M288.1 105c.7-.3 1.3-.6 2-1s1.3-.9 1.8-1.5h1.5v11.9h-2.1v-9.1c-.3.2-.7.5-1.2.7s-.9.4-1.4.6l-.6-1.6zM32.4 316.5c0 .4-.1.8-.3 1.2-.2.4-.4.8-.7 1.1s-.6.7-.9 1.1-.7.7-1 1l-.6.6c-.2.2-.4.5-.7.7-.2.2-.4.5-.5.7s-.2.4-.2.6h5.3v1.7h-7.6v-.3-.3c0-.5.1-1.1.3-1.5.2-.5.4-.9.7-1.3s.6-.8 1-1.1c.4-.4.7-.7 1.1-1l.8-.8.7-.7c.2-.2.3-.5.5-.8.1-.3.2-.5.2-.8 0-.6-.2-1-.5-1.3-.3-.3-.8-.4-1.3-.4-.3 0-.6 0-.9.1-.3.1-.5.2-.7.3-.2.1-.4.3-.6.4-.2.1-.3.2-.4.3l-1-1.5c.5-.5 1-.8 1.7-1.1.6-.3 1.3-.4 2.1-.4 1.3 0 2.2.3 2.8.9.4.8.7 1.6.7 2.6z"/><path fill="#E01717" d="M386.7 209.5c-7.3 0-13.2-5.9-13.2-13.2s5.9-13.2 13.2-13.2 13.2 5.9 13.2 13.2-6 13.2-13.2 13.2z"/><path fill="#FFF" d="M386.7 184.9c6.3 0 11.4 5.1 11.4 11.4s-5.1 11.4-11.4 11.4-11.4-5.1-11.4-11.4 5.1-11.4 11.4-11.4m0-3.5c-8.2 0-14.9 6.7-14.9 14.9s6.7 14.9 14.9 14.9 14.9-6.7 14.9-14.9-6.7-14.9-14.9-14.9z"/><path fill="#FFF" d="M390 193c0 .4-.1.8-.3 1.2-.2.4-.4.8-.7 1.1s-.6.7-.9 1.1-.7.7-1 1l-.6.6c-.2.2-.4.5-.7.7-.2.2-.4.5-.5.7-.1.2-.2.4-.2.6h5.3v1.7h-7.6v-.3-.3c0-.5.1-1.1.3-1.5.2-.5.4-.9.7-1.3.3-.4.6-.8 1-1.1.4-.4.7-.7 1.1-1l.8-.8.7-.7c.2-.2.3-.5.5-.8s.2-.5.2-.8c0-.6-.2-1-.5-1.3-.3-.3-.8-.4-1.3-.4-.3 0-.6 0-.9.1s-.5.2-.7.3c-.2.1-.4.3-.6.4-.2.1-.3.2-.4.3l-1-1.5c.5-.5 1-.8 1.7-1.1s1.3-.4 2.1-.4c1.3 0 2.2.3 2.8.9.4.8.7 1.6.7 2.6z"/><path fill="none" stroke="#011627" stroke-width="2.205" stroke-miterlimit="10" d="M127.8 122.5l16.8-17.6c.5-.5 1.2-.5 1.7 0l11.2 11.7 6.2-5.8c.5-.5 1.3-.4 1.7.1l11 11.7c.5.5.4 1.3 0 1.7-.3.2-.6.3-.9.3h-13.2v0h-33.8c-.7 0-1.2-.6-1.2-1.2.1-.3.2-.6.5-.9zM158 93.6c3 .1 4.9 1.7 5.8 3.9.3.8.5 1.7.5 2.6 0 .9-.2 1.7-.5 2.6-.9 2.1-2.8 3.7-5.8 3.7-3.1 0-5.1-1.7-6-3.9-.3-.8-.5-1.7-.5-2.6 0-.9.2-1.8.5-2.6 1-2.1 3-3.7 6-3.7zM486.4 129.5l16.8-17.6c.5-.5 1.2-.5 1.7 0l11.2 11.7 6.2-5.8c.5-.5 1.3-.4 1.7.1l11 11.7c.5.5.4 1.3 0 1.7-.3.2-.6.3-.9.3h-13.2v0h-33.8c-.7 0-1.2-.6-1.2-1.2.1-.3.3-.6.5-.9zM517.2 100.6c3 .1 4.9 1.7 5.8 3.9.3.8.5 1.7.5 2.6 0 .9-.2 1.7-.5 2.6-.9 2.1-2.8 3.7-5.8 3.7-3.1 0-5.1-1.7-6-3.9-.3-.8-.5-1.7-.5-2.6 0-.9.2-1.8.5-2.6 1-2.1 3-3.7 6-3.7zM517.4 406v-2.5l-.4.3-11.2-11.7c-.5-.5-1.3-.4-1.7 0L490.8 406M516.9 379.7c-3 0-4.9 1.6-5.8 3.6-.3.8-.5 1.7-.5 2.6 0 .9.2 1.8.5 2.6.9 2.1 2.8 3.8 5.9 3.9"/><path fill="#011627" d="M516.4 368H512v1.8h4.4V368zm-8.9 0h-4.4v1.8h4.4V368zm-8.8 0h-4.4v1.8h4.4V368zm-8.8 0h-4.4v1.8h4.4V368zm-8.5 2h-1.8v4.4h1.8V370zm0 8.9h-1.8v4.4h1.8v-4.4zm0 8.8h-1.8v4.4h1.8v-4.4zm0 8.8h-1.8v4.4h1.8v-4.4zm4.6 8.6h-4.4v1.8h4.4v-1.8zm8.8 0h-4.4v1.8h4.4v-1.8zm8.8 0h-4.4v1.8h4.4v-1.8zm8.8 0H508v1.8h4.4v-1.8zm5.7-4.9h-1.8v4.4h1.8v-4.4zm0-8.8h-1.8v4.4h1.8v-4.4zm0-8.8h-1.8v4.4h1.8v-4.4zm0-8.8h-1.8v4.4h1.8v-4.4z"/><g><g fill="none" stroke="#40B481" stroke-width="2" stroke-miterlimit="10"><path d="M603.9 293.3v3h-3"/><path stroke-dasharray="6.1024,6.1024" d="M594.8 296.3H427"/><path d="M424 296.3h-3v-3"/><path stroke-dasharray="6.276,6.276" d="M421 287v-47"/><path d="M421 236.8v-3h3"/><path stroke-dasharray="6.1024,6.1024" d="M430.1 233.8h167.8"/><path d="M600.9 233.8h3v3"/><path stroke-dasharray="6.276,6.276" d="M603.9 243.1v47.1"/></g></g><g><g fill="none" stroke="#011627" stroke-width="2" stroke-miterlimit="10"><path d="M192.8 145.8v3h-3"/><path stroke-dasharray="5.6923,5.6923" d="M184.1 148.8h-65.5"/><path d="M115.8 148.8h-3v-3"/><path stroke-dasharray="5.6923,5.6923" d="M112.8 140.1V74.7"/><path d="M112.8 71.8v-3h3"/><path stroke-dasharray="5.6923,5.6923" d="M121.5 68.8h65.4"/><path d="M189.8 68.8h3v3"/><path stroke-dasharray="5.6923,5.6923" d="M192.8 77.5V143"/></g></g><g><g fill="none" stroke="#011627" stroke-width="2" stroke-miterlimit="10"><path d="M551.7 145.8v3h-3"/><path stroke-dasharray="5.6923,5.6923" d="M543 148.8h-65.4"/><path d="M474.7 148.8h-3v-3"/><path stroke-dasharray="5.6923,5.6923" d="M471.7 140.1V74.7"/><path d="M471.7 71.8v-3h3"/><path stroke-dasharray="5.6923,5.6923" d="M480.4 68.8h65.5"/><path d="M548.7 68.8h3v3"/><path stroke-dasharray="5.6923,5.6923" d="M551.7 77.5V143"/></g></g><g><g fill="none" stroke="#D1D1D1" stroke-width="2" stroke-miterlimit="10"><path d="M551.7 435.9v3h-3"/><path stroke-dasharray="5.6923,5.6923" d="M543 438.9h-65.4"/><path d="M474.7 438.9h-3v-3"/><path stroke-dasharray="5.6923,5.6923" d="M471.7 430.2v-65.4"/><path d="M471.7 361.9v-3h3"/><path stroke-dasharray="5.6923,5.6923" d="M480.4 358.9h65.5"/><path d="M548.7 358.9h3v3"/><path stroke-dasharray="5.6923,5.6923" d="M551.7 367.6v65.5"/></g></g></svg>