<?xml version="1.0" encoding="utf-8"?>
<!-- Generator: Adobe Illustrator 18.0.0, SVG Export Plug-In . SVG Version: 6.00 Build 0)  -->
<!DOCTYPE svg PUBLIC "-//W3C//DTD SVG 1.1//EN" "http://www.w3.org/Graphics/SVG/1.1/DTD/svg11.dtd">
<svg version="1.1" id="Layer_1" xmlns="http://www.w3.org/2000/svg" xmlns:xlink="http://www.w3.org/1999/xlink" x="0px" y="0px"
	 width="339.9px" height="307.4px" viewBox="0 31.1 339.9 307.4" enable-background="new 0 31.1 339.9 307.4" xml:space="preserve">
<g>
	<g>
		<polyline fill="none" stroke="#40B481" stroke-width="1.8066" stroke-miterlimit="10" points="339,336.3 339,337.6 337.6,337.6 		
			"/>
		
			<line fill="none" stroke="#40B481" stroke-width="1.8066" stroke-miterlimit="10" stroke-dasharray="2.7266,2.7266" x1="334.9" y1="337.6" x2="3.6" y2="337.6"/>
		<polyline fill="none" stroke="#40B481" stroke-width="1.8066" stroke-miterlimit="10" points="2.2,337.6 0.9,337.6 0.9,336.3 		
			"/>
		
			<line fill="none" stroke="#40B481" stroke-width="1.8066" stroke-miterlimit="10" stroke-dasharray="2.7105,2.7105" x1="0.9" y1="333.6" x2="0.9" y2="63.9"/>
		<polyline fill="none" stroke="#40B481" stroke-width="1.8066" stroke-miterlimit="10" points="0.9,62.5 0.9,61.2 2.2,61.2 		"/>
		
			<line fill="none" stroke="#40B481" stroke-width="1.8066" stroke-miterlimit="10" stroke-dasharray="2.7266,2.7266" x1="5" y1="61.2" x2="336.3" y2="61.2"/>
		<polyline fill="none" stroke="#40B481" stroke-width="1.8066" stroke-miterlimit="10" points="337.6,61.2 339,61.2 339,62.5 		"/>
		
			<line fill="none" stroke="#40B481" stroke-width="1.8066" stroke-miterlimit="10" stroke-dasharray="2.7105,2.7105" x1="339" y1="65.2" x2="339" y2="334.9"/>
	</g>
</g>
<g>
	<path fill="#40B481" d="M1.8,45.1v-0.4c0-2.4,0.6-4.8,1.8-6.9c1-2,2.4-3.7,4-4.8c1.6-1.3,3.2-1.9,4.7-1.9c1.1,0,2,0.4,2.8,1.1
		c0.5,0.6,0.9,1.5,0.9,2.5c0,1.3-0.4,2.4-1.3,3.5c-0.5,0.6-1,1.1-1.6,1.5c-0.3,0.1-0.5,0.3-0.8,0.3s-0.6,0-0.8-0.1
		c-0.1-0.1-0.4-0.3-0.5-0.4c-0.4-0.4-0.5-0.6-0.5-0.9s0.1-0.4,0.3-0.5c1.4-1,2.3-2,2.8-3c0.1-0.4,0.3-0.8,0.3-1.1
		c0-0.8-0.4-1.1-1.1-1.1c-1.1,0-2.4,0.6-3.7,1.9c-1.3,1.1-2.1,2.6-3,4.4c-0.9,1.9-1.3,3.5-1.3,5v0.5c0,1.9,0.4,3,1.1,3.7
		c0.3,0.3,0.6,0.4,1,0.4s0.8,0,1.1-0.1c0.4-0.1,0.6-0.3,1-0.4c0.5-0.3,1.3-0.8,2.1-1.5c0.3-0.3,0.5-0.1,0.6,0.1s0.3,0.5,0.3,0.8
		c0,0.5-0.1,0.8-0.3,1c-0.1,0.3-0.3,0.1-0.6,0.4s-0.6,0.5-1.1,0.6c-1,0.5-2,0.6-3,0.6s-1.8,0-2.4-0.3S3.4,49.4,3,49
		C2.1,48,1.8,46.7,1.8,45.1z"/>
	<path fill="#40B481" d="M14.9,50c-0.1-0.1-0.3-0.3-0.4-0.4c-0.1-0.1-0.1-0.4-0.1-0.5s0-0.3,0.1-0.4s0.1-0.4,0.3-0.6
		c1.6-4.2,2.5-6.9,2.5-8.3c0-0.4-0.1-0.6-0.4-0.9l-0.3-0.1c-0.1,0-0.1-0.1-0.1-0.3c0-0.1,0-0.3,0.1-0.4c0.1-0.1,0.3-0.3,0.4-0.4
		c0.4-0.1,0.8-0.3,1.1-0.3c0.4,0,0.6,0,0.9,0.1s0.4,0.3,0.5,0.4c0.3,0.3,0.5,0.6,0.5,0.9c0,0.3,0,0.6-0.1,1s-0.1,0.6-0.3,1
		c-0.1,0.4-0.3,0.6-0.4,0.9c0,0.3-0.2,0.6-0.2,0.7c-0.1,0.3-0.1,0.5-0.1,0.5c0.3-0.1,0.4-0.4,0.4-0.5l0.5-0.9c1-1.9,2.1-3.2,3.2-3.8
		c0.3-0.1,0.6-0.3,1-0.3s0.8,0.1,1,0.4c0.3,0.3,0.4,0.6,0.4,1s0,0.6-0.1,0.9c-0.1,0.3-0.1,0.5-0.3,0.6c-0.3,0.5-0.5,0.8-0.9,0.8
		c-0.1,0-0.3,0-0.3-0.1l-0.3-0.3c-0.3-0.3-0.5-0.4-0.8-0.4s-0.5,0.1-0.9,0.5s-0.8,0.8-1.1,1.3c-1.3,1.8-2.4,3.7-3.2,5.8l-0.8,1.4
		c-0.1,0.4-0.3,0.6-0.4,0.8c-0.1,0.1-0.3,0.3-0.5,0.3s-0.4,0-0.6-0.1C15.1,50.1,15,50,14.9,50z"/>
	<path fill="#40B481" d="M26.2,49.4c-0.4-0.4-0.6-0.8-0.8-1.3c-0.1-0.5-0.3-1.1-0.3-1.8s0.1-1.4,0.3-2.1c0.1-0.8,0.4-1.4,0.8-2
		s0.8-1.3,1.1-1.9c0.4-0.6,1-1.1,1.5-1.5c1.3-0.9,2.4-1.4,3.8-1.4c1.6,0,2.8,0.8,3.4,2.3c0.4,1.1,0.5,2.4,0.1,3.9
		c-0.4,1.4-1,2.6-1.9,3.9c-0.9,1.1-2,2-3.3,2.5c-0.6,0.3-1.3,0.4-1.9,0.4s-1.1-0.1-1.6-0.3C27,50,26.6,49.7,26.2,49.4z M28.6,43.4
		c-0.3,0.6-0.5,1.3-0.6,1.9c-0.1,0.6-0.3,1.3-0.3,1.8s0.1,1,0.3,1.4c0.1,0.4,0.5,0.5,0.8,0.5s0.8-0.1,1.1-0.4c0.4-0.3,0.8-0.6,1-1
		c0.3-0.4,0.6-0.9,1-1.5s0.6-1.1,0.8-1.8c0.5-1.3,0.8-2.5,0.8-3.5c0-0.9-0.1-1.5-0.5-1.8c-0.1-0.1-0.4-0.1-0.6-0.1
		c-0.3,0-0.6,0.1-0.9,0.4c-0.3,0.3-0.6,0.5-0.9,1s-0.8,0.9-1,1.4C29.3,42.2,28.9,42.8,28.6,43.4z"/>
	<path fill="#40B481" d="M40.3,49.1c0,0.1-0.3,0.8-0.5,1.9c-0.3,1.1-0.6,2.1-0.9,2.8c-0.5,1.5-0.9,2.5-1.3,2.9
		c-0.3,0.3-0.6,0.5-1,0.5c-0.5,0-0.9-0.3-1-0.6c-0.1-0.1-0.1-0.3-0.1-0.4c0-0.1,0.1-0.5,0.4-1c0.6-1.4,1.5-4,2.6-7.9
		c0.4-1.6,0.8-2.6,0.9-3.2l0.4-1.5c0.3-1,0.4-1.8,0.5-2c0.1-0.3,0-0.6-0.1-0.8c-0.1-0.1-0.3-0.3-0.3-0.4s-0.4-0.5-0.5-0.6
		s-0.1-0.1-0.1-0.3c0-0.1,0.1-0.3,0.3-0.4c0.1-0.1,0.3-0.3,0.5-0.4c0.4-0.1,0.8-0.3,1.1-0.3c0.4,0,0.6,0,0.9,0.1
		c0.3,0.1,0.4,0.3,0.5,0.4c0.3,0.4,0.4,0.6,0.4,0.9c-0.1,0.6-0.1,1.1-0.3,1.6c1.4-2,2.9-3,4.4-3c1.4,0,2.4,0.8,2.8,2.1
		c0.1,0.5,0.3,1.1,0.3,1.9c0,0.8-0.1,1.5-0.4,2.1c-0.3,0.6-0.5,1.4-0.9,2.1c-0.4,0.8-0.8,1.3-1.3,1.8s-1,1-1.6,1.4
		c-1.1,0.9-2.3,1.3-3.4,1.3S40.9,49.9,40.3,49.1z M42.2,43.8c-0.3,0.6-0.5,1.1-0.8,1.8c-0.3,0.6-0.3,1.1-0.3,1.6s0.1,0.9,0.3,1.1
		c0.1,0.3,0.5,0.5,0.9,0.5s0.8-0.1,1.3-0.4s0.8-0.5,1.1-0.9c0.4-0.4,0.8-0.8,1-1.3c0.3-0.5,0.6-1,0.9-1.6c0.5-1.3,0.8-2.4,0.8-3.4
		c0-0.6-0.1-1-0.3-1.4c-0.1-0.4-0.4-0.5-0.8-0.5c-0.4,0-0.6,0.1-1,0.4c-0.4,0.3-0.8,0.6-1.1,1s-0.8,0.9-1.1,1.4S42.5,43.2,42.2,43.8
		z"/>
	<path fill="#40B481" d="M54.2,49.1c0,0.1-0.3,0.8-0.5,1.9c-0.3,1.1-0.6,2.1-0.9,2.8c-0.5,1.5-0.9,2.5-1.3,2.9
		c-0.3,0.3-0.6,0.5-1,0.5c-0.5,0-0.9-0.3-1-0.6c-0.1-0.1-0.1-0.3-0.1-0.4c0-0.1,0.1-0.5,0.4-1c0.6-1.4,1.5-4,2.6-7.9
		c0.4-1.6,0.8-2.6,0.9-3.2l0.4-1.5c0.3-1,0.4-1.8,0.5-2c0.1-0.3,0-0.6-0.1-0.8c-0.1-0.1-0.3-0.3-0.3-0.4s-0.4-0.5-0.5-0.6
		s-0.1-0.1-0.1-0.3c0-0.1,0.1-0.3,0.3-0.4c0.1-0.1,0.3-0.3,0.5-0.4c0.4-0.1,0.8-0.3,1.1-0.3c0.4,0,0.6,0,0.9,0.1
		c0.3,0.1,0.4,0.3,0.5,0.4c0.3,0.4,0.4,0.6,0.4,0.9c-0.1,0.6-0.1,1.1-0.3,1.6c1.4-2,2.9-3,4.4-3c1.4,0,2.4,0.8,2.8,2.1
		c0.1,0.5,0.3,1.1,0.3,1.9c0,0.8-0.1,1.5-0.4,2.1c-0.3,0.6-0.5,1.4-0.9,2.1c-0.4,0.8-0.8,1.3-1.3,1.8s-1,1-1.6,1.4
		c-1.1,0.9-2.3,1.3-3.4,1.3S54.7,49.9,54.2,49.1z M56.1,43.8c-0.3,0.6-0.5,1.1-0.8,1.8C55,46.2,55,46.7,55,47.2s0.1,0.9,0.3,1.1
		c0.1,0.3,0.5,0.5,0.9,0.5s0.8-0.1,1.3-0.4s0.8-0.5,1.1-0.9c0.4-0.4,0.8-0.8,1-1.3c0.3-0.5,0.6-1,0.9-1.6c0.5-1.3,0.8-2.4,0.8-3.4
		c0-0.6-0.1-1-0.3-1.4c-0.1-0.4-0.4-0.5-0.8-0.5c-0.4,0-0.5,0-0.9,0.3s-0.8,0.6-1.1,1s-0.8,0.9-1.1,1.4
		C56.7,42.6,56.4,43.2,56.1,43.8z"/>
	<path fill="#40B481" d="M65.9,46c0-0.8,0.1-1.4,0.4-2s0.5-1.3,0.9-1.9s0.8-1.1,1.3-1.8c0.5-0.6,1-1,1.5-1.4
		c1.1-0.9,2.4-1.3,3.5-1.3c1.4,0,2.4,0.6,2.8,1.8c0.1,0.4,0.3,0.9,0.3,1.4s-0.1,0.9-0.4,1.3s-0.5,0.9-0.8,1.3s-0.8,0.8-1.3,1
		c-0.5,0.3-1,0.5-1.5,0.8c-1.1,0.4-2.4,0.6-3.8,0.6c0,0.1,0,0.3,0,0.5s0,0.5,0.1,0.8s0.1,0.5,0.3,0.8c0.3,0.5,0.8,0.8,1.3,0.8
		c1,0,1.9-0.3,2.8-0.9c0.4-0.1,0.6-0.4,0.8-0.6s0.4-0.3,0.5-0.3s0.3,0.1,0.4,0.3c0.1,0.1,0.1,0.4,0.1,0.6c0,0.4-0.1,0.8-0.4,1.1
		c-1,1-2.5,1.5-4.7,1.5c-1.3,0-2.1-0.4-2.9-1.1C66.3,48.5,65.9,47.3,65.9,46z M73.1,39.1c-0.9,0-1.6,0.6-2.5,1.8
		c-0.6,1-1.3,2.3-1.6,3.7c1.4-0.1,2.5-0.6,3.5-1.6c0.9-0.9,1.4-1.8,1.4-2.5S73.8,39.1,73.1,39.1z"/>
	<path fill="#40B481" d="M77.8,50c-0.1-0.1-0.3-0.3-0.4-0.4c-0.1-0.1-0.1-0.3-0.1-0.4c0-0.1,0-0.3,0.1-0.4c0.1-0.1,0.1-0.4,0.3-0.6
		c1.6-4.2,2.5-6.9,2.5-8.3c0-0.4-0.1-0.6-0.4-0.9l-0.3-0.1c-0.1,0-0.1-0.1-0.1-0.3c0-0.1,0-0.3,0.1-0.4c0.1-0.1,0.3-0.3,0.4-0.4
		c0.4-0.1,0.8-0.3,1.1-0.3c0.4,0,0.6,0,0.9,0.1s0.4,0.3,0.5,0.4c0.3,0.3,0.5,0.6,0.5,0.9s0,0.6-0.1,1s-0.3,0.5-0.4,0.9
		s-0.3,0.6-0.4,0.9c0,0.3,0,0.6,0,0.7c-0.1,0.3-0.1,0.5-0.1,0.5c0.3-0.1,0.4-0.4,0.4-0.5l0.5-0.9c1-1.9,2.1-3.2,3.2-3.8
		c0.3-0.1,0.6-0.3,1-0.3s0.8,0.1,1,0.4c0.3,0.3,0.4,0.6,0.4,1s0,0.6-0.1,0.9s-0.1,0.5-0.3,0.6c-0.3,0.5-0.5,0.8-0.9,0.8
		c-0.1,0-0.3,0-0.3-0.1l-0.3-0.3c-0.3-0.3-0.5-0.4-0.8-0.4s-0.8,0.1-1,0.5s-0.8,0.8-1.1,1.3c-1.3,1.8-2.4,3.7-3.2,5.8l-0.5,1.4
		c-0.1,0.4-0.3,0.6-0.4,0.8s-0.3,0.3-0.5,0.3c-0.3,0-0.4,0-0.6-0.1C78.2,50.1,77.9,50,77.8,50z"/>
</g>
<line fill="none" stroke="#4966C4" stroke-width="0.8461" stroke-miterlimit="10" x1="158.7" y1="74.7" x2="180.5" y2="74.7"/>
<line fill="none" stroke="#4966C4" stroke-width="0.8461" stroke-miterlimit="10" x1="158.7" y1="70.4" x2="180.5" y2="70.4"/>
<line fill="none" stroke="#4966C4" stroke-width="0.8461" stroke-miterlimit="10" x1="158.7" y1="321.8" x2="180.5" y2="321.8"/>
<line fill="none" stroke="#4966C4" stroke-width="0.8461" stroke-miterlimit="10" x1="158.7" y1="326" x2="180.5" y2="326"/>
<line fill="none" stroke="#4966C4" stroke-width="1.0543" stroke-miterlimit="10" x1="173.1" y1="76.4" x2="171.2" y2="79.1"/>
<polyline fill="none" stroke="#4966C4" stroke-width="1.0543" stroke-miterlimit="10" points="165.9,76.4 173.1,86.1 171.2,88.7 "/>
<polyline fill="none" stroke="#4966C4" stroke-width="1.0543" stroke-miterlimit="10" points="168.1,83.2 165.9,86.1 173.1,95.7 
	171.2,98.4 "/>
<polyline fill="none" stroke="#4966C4" stroke-width="1.0543" stroke-miterlimit="10" points="168.1,92.8 165.9,95.7 173.1,105.3 
	171.2,108 "/>
<polyline fill="none" stroke="#4966C4" stroke-width="1.0543" stroke-miterlimit="10" points="168.1,102.5 165.9,105.3 173.1,114.9 
	171.2,117.6 "/>
<polyline fill="none" stroke="#4966C4" stroke-width="1.0543" stroke-miterlimit="10" points="168.1,112.1 165.9,114.9 173.1,124.6 
	171.2,127.2 "/>
<polyline fill="none" stroke="#4966C4" stroke-width="1.0543" stroke-miterlimit="10" points="168.1,121.3 165.9,124.1 173.1,133.8 
	171.2,136.4 "/>
<polyline fill="none" stroke="#4966C4" stroke-width="1.0543" stroke-miterlimit="10" points="168.1,130.9 165.9,133.8 173.1,143.4 
	171.2,146.1 "/>
<polyline fill="none" stroke="#4966C4" stroke-width="1.0543" stroke-miterlimit="10" points="168.1,140.5 165.9,143.4 173.1,153 
	171.2,155.7 "/>
<polyline fill="none" stroke="#4966C4" stroke-width="1.0543" stroke-miterlimit="10" points="168.1,150.2 165.9,153 173.1,162.6 
	171.2,165.3 "/>
<polyline fill="none" stroke="#4966C4" stroke-width="1.0543" stroke-miterlimit="10" points="168.1,159.4 165.9,162.2 173.1,171.8 
	171.2,174.5 "/>
<polyline fill="none" stroke="#4966C4" stroke-width="1.0543" stroke-miterlimit="10" points="168.1,169 165.9,171.8 173.1,181.5 
	171.2,184.1 "/>
<polyline fill="none" stroke="#4966C4" stroke-width="1.0543" stroke-miterlimit="10" points="168.1,178.6 165.9,181.5 173.1,191.1 
	171.2,193.8 "/>
<polyline fill="none" stroke="#4966C4" stroke-width="1.0543" stroke-miterlimit="10" points="168.1,188.2 165.9,191.1 173.1,200.7 
	171.2,203.4 "/>
<polyline fill="none" stroke="#4966C4" stroke-width="1.0543" stroke-miterlimit="10" points="168.1,197.4 165.9,200.3 173.1,209.9 
	171.2,212.6 "/>
<polyline fill="none" stroke="#4966C4" stroke-width="1.0543" stroke-miterlimit="10" points="168.1,207.1 165.9,209.9 173.1,219.5 
	171.2,222.2 "/>
<polyline fill="none" stroke="#4966C4" stroke-width="1.0543" stroke-miterlimit="10" points="168.1,216.7 165.9,219.5 173.1,229.2 
	171.2,231.8 "/>
<polyline fill="none" stroke="#4966C4" stroke-width="1.0543" stroke-miterlimit="10" points="168.1,226.3 165.9,229.2 173.1,238.8 
	171.2,241.5 "/>
<polyline fill="none" stroke="#4966C4" stroke-width="1.0543" stroke-miterlimit="10" points="168.1,235.5 165.9,238.4 173.1,248 
	171.2,250.7 "/>
<polyline fill="none" stroke="#4966C4" stroke-width="1.0543" stroke-miterlimit="10" points="168.1,245.1 165.9,248 173.1,257.6 
	171.2,260.3 "/>
<polyline fill="none" stroke="#4966C4" stroke-width="1.0543" stroke-miterlimit="10" points="168.1,254.8 165.9,257.6 173.1,267.2 
	171.2,269.9 "/>
<polyline fill="none" stroke="#4966C4" stroke-width="1.0543" stroke-miterlimit="10" points="168.1,264.4 165.9,267.2 173.1,276.9 
	171.2,279.5 "/>
<polyline fill="none" stroke="#4966C4" stroke-width="1.0543" stroke-miterlimit="10" points="168.1,273.6 165.9,276.4 173.1,286.1 
	171.2,288.7 "/>
<polyline fill="none" stroke="#4966C4" stroke-width="1.0543" stroke-miterlimit="10" points="168.1,283.2 165.9,286.1 173.1,295.7 
	171.2,298.4 "/>
<polyline fill="none" stroke="#4966C4" stroke-width="1.0543" stroke-miterlimit="10" points="168.1,292.8 165.9,295.7 173.1,305.3 
	171.2,308 "/>
<polyline fill="none" stroke="#4966C4" stroke-width="1.0543" stroke-miterlimit="10" points="168.1,302.5 165.9,305.3 173.1,314.9 
	171.2,317.6 "/>
<polyline fill="none" stroke="#4966C4" stroke-width="1.0543" stroke-miterlimit="10" points="168.1,311.6 165.9,314.5 169.8,319.6 
	"/>
<line fill="none" stroke="#4966C4" stroke-width="0.8461" stroke-miterlimit="10" x1="328.1" y1="187.3" x2="328.1" y2="209.1"/>
<line fill="none" stroke="#4966C4" stroke-width="0.8461" stroke-miterlimit="10" x1="332.4" y1="187.3" x2="332.4" y2="209.1"/>
<line fill="none" stroke="#4966C4" stroke-width="0.8461" stroke-miterlimit="10" x1="16" y1="187.3" x2="16" y2="209.1"/>
<line fill="none" stroke="#4966C4" stroke-width="0.8461" stroke-miterlimit="10" x1="11.8" y1="187.3" x2="11.8" y2="209.1"/>
<line fill="none" stroke="#4966C4" stroke-width="1.0543" stroke-miterlimit="10" x1="326.4" y1="201.5" x2="323.7" y2="199.6"/>
<polyline fill="none" stroke="#4966C4" stroke-width="1.0543" stroke-miterlimit="10" points="326.4,194.6 316.7,201.5 314.1,199.6 
	"/>
<polyline fill="none" stroke="#4966C4" stroke-width="1.0543" stroke-miterlimit="10" points="319.6,196.7 316.7,194.6 307.1,201.5 
	304.4,199.6 "/>
<polyline fill="none" stroke="#4966C4" stroke-width="1.0543" stroke-miterlimit="10" points="310,196.7 307.1,194.6 297.5,201.5 
	294.8,199.6 "/>
<polyline fill="none" stroke="#4966C4" stroke-width="1.0543" stroke-miterlimit="10" points="300.3,196.7 297.5,194.6 287.9,201.5 
	285.2,199.6 "/>
<polyline fill="none" stroke="#4966C4" stroke-width="1.0543" stroke-miterlimit="10" points="290.7,196.7 287.9,194.6 278.2,201.5 
	275.6,199.6 "/>
<polyline fill="none" stroke="#4966C4" stroke-width="1.0543" stroke-miterlimit="10" points="281.5,196.7 278.7,194.6 269,201.5 
	266.4,199.6 "/>
<polyline fill="none" stroke="#4966C4" stroke-width="1.0543" stroke-miterlimit="10" points="271.9,196.7 269,194.6 259.4,201.5 
	256.7,199.6 "/>
<polyline fill="none" stroke="#4966C4" stroke-width="1.0543" stroke-miterlimit="10" points="262.3,196.7 259.4,194.6 249.8,201.5 
	247.1,199.6 "/>
<polyline fill="none" stroke="#4966C4" stroke-width="1.0543" stroke-miterlimit="10" points="252.6,196.7 249.8,194.6 240.2,201.5 
	237.5,199.6 "/>
<polyline fill="none" stroke="#4966C4" stroke-width="1.0543" stroke-miterlimit="10" points="243.4,196.7 240.6,194.6 231,201.5 
	228.3,199.6 "/>
<polyline fill="none" stroke="#4966C4" stroke-width="1.0543" stroke-miterlimit="10" points="233.8,196.7 231,194.6 221.3,201.5 
	218.7,199.6 "/>
<polyline fill="none" stroke="#4966C4" stroke-width="1.0543" stroke-miterlimit="10" points="224.2,196.7 221.3,194.6 211.7,201.5 
	209,199.6 "/>
<polyline fill="none" stroke="#4966C4" stroke-width="1.0543" stroke-miterlimit="10" points="214.8,196.7 211.9,194.6 202.3,201.5 
	199.6,199.6 "/>
<polyline fill="none" stroke="#4966C4" stroke-width="1.0543" stroke-miterlimit="10" points="205.1,196.7 202.3,194.6 192.7,201.5 
	190,199.6 "/>
<polyline fill="none" stroke="#4966C4" stroke-width="1.0543" stroke-miterlimit="10" points="195.7,196.7 192.9,194.6 183.3,201.5 
	180.6,199.6 "/>
<polyline fill="none" stroke="#4966C4" stroke-width="1.0543" stroke-miterlimit="10" points="140.4,196.7 137.5,194.6 127.9,201.5 
	125.2,199.6 "/>
<polyline fill="none" stroke="#4966C4" stroke-width="1.0543" stroke-miterlimit="10" points="130.7,196.7 127.9,194.6 118.3,201.5 
	115.6,199.6 "/>
<polyline fill="none" stroke="#4966C4" stroke-width="1.0543" stroke-miterlimit="10" points="159.7,196.7 156.8,194.6 147.2,201.5 
	144.5,199.6 "/>
<polyline fill="none" stroke="#4966C4" stroke-width="1.0543" stroke-miterlimit="10" points="150.1,196.7 147.2,194.6 137.6,201.5 
	134.9,199.6 "/>
<polyline fill="none" stroke="#4966C4" stroke-width="1.0543" stroke-miterlimit="10" points="121.1,196.7 118.3,194.6 108.6,201.5 
	106,199.6 "/>
<polyline fill="none" stroke="#4966C4" stroke-width="1.0543" stroke-miterlimit="10" points="111.5,196.7 108.6,194.6 99,201.5 
	96.3,199.6 "/>
<polyline fill="none" stroke="#4966C4" stroke-width="1.0543" stroke-miterlimit="10" points="102.3,196.7 99.5,194.6 89.8,201.5 
	87.1,199.6 "/>
<polyline fill="none" stroke="#4966C4" stroke-width="1.0543" stroke-miterlimit="10" points="92.7,196.7 89.8,194.6 80.2,201.5 
	77.5,199.6 "/>
<polyline fill="none" stroke="#4966C4" stroke-width="1.0543" stroke-miterlimit="10" points="83,196.7 80.2,194.6 70.6,201.5 
	67.9,199.6 "/>
<polyline fill="none" stroke="#4966C4" stroke-width="1.0543" stroke-miterlimit="10" points="73.4,196.7 70.6,194.6 60.9,201.5 
	58.3,199.6 "/>
<polyline fill="none" stroke="#4966C4" stroke-width="1.0543" stroke-miterlimit="10" points="64.2,196.7 61.4,194.6 51.8,201.5 
	49.1,199.6 "/>
<polyline fill="none" stroke="#4966C4" stroke-width="1.0543" stroke-miterlimit="10" points="54.6,196.7 51.8,194.6 42.1,201.5 
	39.5,199.6 "/>
<polyline fill="none" stroke="#4966C4" stroke-width="1.0543" stroke-miterlimit="10" points="45,196.7 42.1,194.6 32.5,201.5 
	29.8,199.6 "/>
<polyline fill="none" stroke="#4966C4" stroke-width="1.0543" stroke-miterlimit="10" points="35.3,196.7 32.5,194.6 22.9,201.5 
	20.2,199.6 "/>
<polyline fill="none" stroke="#4966C4" stroke-width="1.0543" stroke-miterlimit="10" points="26.2,196.7 23.3,194.6 18.2,198.3 "/>
</svg>
