<svg xmlns="http://www.w3.org/2000/svg" width="339.9" height="307.4" viewBox="0 31.1 339.9 307.4"><g fill="none" stroke="#40B481" stroke-width="1.807" stroke-miterlimit="10"><path d="M339 336.3v1.3h-1.4"/><path stroke-dasharray="2.7266,2.7266" d="M334.9 337.6H3.6"/><path d="M2.2 337.6H.9v-1.3"/><path stroke-dasharray="2.7105,2.7105" d="M.9 333.6V63.9"/><path d="M.9 62.5v-1.3h1.3"/><path stroke-dasharray="2.7266,2.7266" d="M5 61.2h331.3"/><path d="M337.6 61.2h1.4v1.3"/><path stroke-dasharray="2.7105,2.7105" d="M339 65.2v269.7"/></g><g fill="#40B481"><path d="M1.8 45.1v-.4c0-2.4.6-4.8 1.8-6.9 1-2 2.4-3.7 4-4.8 1.6-1.3 3.2-1.9 4.7-1.9 1.1 0 2 .4 2.8 1.1.5.6.9 1.5.9 2.5 0 1.3-.4 2.4-1.3 3.5-.5.6-1 1.1-1.6 1.5-.3.1-.5.3-.8.3s-.6 0-.8-.1c-.1-.1-.4-.3-.5-.4-.4-.4-.5-.6-.5-.9s.1-.4.3-.5c1.4-1 2.3-2 2.8-3 .1-.4.3-.8.3-1.1 0-.8-.4-1.1-1.1-1.1-1.1 0-2.4.6-3.7 1.9-1.3 1.1-2.1 2.6-3 4.4-.9 1.9-1.3 3.5-1.3 5v.5c0 1.9.4 3 1.1 3.7.3.3.6.4 1 .4s.8 0 1.1-.1c.4-.1.6-.3 1-.4.5-.3 1.3-.8 2.1-1.5.3-.3.5-.1.6.1s.3.5.3.8c0 .5-.1.8-.3 1-.1.3-.3.1-.6.4s-.6.5-1.1.6c-1 .5-2 .6-3 .6s-1.8 0-2.4-.3-1.2-.6-1.6-1c-.9-1-1.2-2.3-1.2-3.9zM14.9 50l-.4-.4c-.1-.1-.1-.4-.1-.5s0-.3.1-.4.1-.4.3-.6c1.6-4.2 2.5-6.9 2.5-8.3 0-.4-.1-.6-.4-.9l-.3-.1c-.1 0-.1-.1-.1-.3 0-.1 0-.3.1-.4l.4-.4c.4-.1.8-.3 1.1-.3.4 0 .6 0 .9.1s.4.3.5.4c.3.3.5.6.5.9 0 .3 0 .6-.1 1s-.1.6-.3 1c-.1.4-.3.6-.4.9 0 .3-.2.6-.2.7-.1.3-.1.5-.1.5.3-.1.4-.4.4-.5l.5-.9c1-1.9 2.1-3.2 3.2-3.8.3-.1.6-.3 1-.3s.8.1 1 .4c.3.3.4.6.4 1s0 .6-.1.9c-.1.3-.1.5-.3.6-.3.5-.5.8-.9.8-.1 0-.3 0-.3-.1l-.3-.3c-.3-.3-.5-.4-.8-.4s-.5.1-.9.5-.8.8-1.1 1.3c-1.3 1.8-2.4 3.7-3.2 5.8l-.8 1.4c-.1.4-.3.6-.4.8-.1.1-.3.3-.5.3s-.4 0-.6-.1c-.1-.2-.2-.3-.3-.3zM26.2 49.4c-.4-.4-.6-.8-.8-1.3-.1-.5-.3-1.1-.3-1.8s.1-1.4.3-2.1c.1-.8.4-1.4.8-2s.8-1.3 1.1-1.9c.4-.6 1-1.1 1.5-1.5 1.3-.9 2.4-1.4 3.8-1.4 1.6 0 2.8.8 3.4 2.3.4 1.1.5 2.4.1 3.9-.4 1.4-1 2.6-1.9 3.9-.9 1.1-2 2-3.3 2.5-.6.3-1.3.4-1.9.4s-1.1-.1-1.6-.3c-.4-.1-.8-.4-1.2-.7zm2.4-6c-.3.6-.5 1.3-.6 1.9-.1.6-.3 1.3-.3 1.8s.1 1 .3 1.4c.1.4.5.5.8.5s.8-.1 1.1-.4c.4-.3.8-.6 1-1 .3-.4.6-.9 1-1.5s.6-1.1.8-1.8c.5-1.3.8-2.5.8-3.5 0-.9-.1-1.5-.5-1.8-.1-.1-.4-.1-.6-.1-.3 0-.6.1-.9.4-.3.3-.6.5-.9 1s-.8.9-1 1.4c-.3.5-.7 1.1-1 1.7zM40.3 49.1c0 .1-.3.8-.5 1.9-.3 1.1-.6 2.1-.9 2.8-.5 1.5-.9 2.5-1.3 2.9-.3.3-.6.5-1 .5-.5 0-.9-.3-1-.6-.1-.1-.1-.3-.1-.4 0-.1.1-.5.4-1 .6-1.4 1.5-4 2.6-7.9.4-1.6.8-2.6.9-3.2l.4-1.5c.3-1 .4-1.8.5-2 .1-.3 0-.6-.1-.8-.1-.1-.3-.3-.3-.4s-.4-.5-.5-.6-.1-.1-.1-.3c0-.1.1-.3.3-.4.1-.1.3-.3.5-.4.4-.1.8-.3 1.1-.3.4 0 .6 0 .9.1.3.1.4.3.5.4.3.4.4.6.4.9-.1.6-.1 1.1-.3 1.6 1.4-2 2.9-3 4.4-3 1.4 0 2.4.8 2.8 2.1.1.5.3 1.1.3 1.9 0 .8-.1 1.5-.4 2.1-.3.6-.5 1.4-.9 2.1-.4.8-.8 1.3-1.3 1.8s-1 1-1.6 1.4c-1.1.9-2.3 1.3-3.4 1.3s-1.7-.2-2.3-1zm1.9-5.3c-.3.6-.5 1.1-.8 1.8-.3.6-.3 1.1-.3 1.6s.1.9.3 1.1c.1.3.5.5.9.5s.8-.1 1.3-.4.8-.5 1.1-.9c.4-.4.8-.8 1-1.3.3-.5.6-1 .9-1.6.5-1.3.8-2.4.8-3.4 0-.6-.1-1-.3-1.4-.1-.4-.4-.5-.8-.5s-.6.1-1 .4c-.4.3-.8.6-1.1 1s-.8.9-1.1 1.4-.6 1.1-.9 1.7zM54.2 49.1c0 .1-.3.8-.5 1.9-.3 1.1-.6 2.1-.9 2.8-.5 1.5-.9 2.5-1.3 2.9-.3.3-.6.5-1 .5-.5 0-.9-.3-1-.6-.1-.1-.1-.3-.1-.4 0-.1.1-.5.4-1 .6-1.4 1.5-4 2.6-7.9.4-1.6.8-2.6.9-3.2l.4-1.5c.3-1 .4-1.8.5-2 .1-.3 0-.6-.1-.8-.1-.1-.3-.3-.3-.4s-.4-.5-.5-.6-.1-.1-.1-.3c0-.1.1-.3.3-.4.1-.1.3-.3.5-.4.4-.1.8-.3 1.1-.3.4 0 .6 0 .9.1.3.1.4.3.5.4.3.4.4.6.4.9-.1.6-.1 1.1-.3 1.6 1.4-2 2.9-3 4.4-3 1.4 0 2.4.8 2.8 2.1.1.5.3 1.1.3 1.9 0 .8-.1 1.5-.4 2.1-.3.6-.5 1.4-.9 2.1-.4.8-.8 1.3-1.3 1.8s-1 1-1.6 1.4c-1.1.9-2.3 1.3-3.4 1.3s-1.8-.2-2.3-1zm1.9-5.3c-.3.6-.5 1.1-.8 1.8-.3.6-.3 1.1-.3 1.6s.1.9.3 1.1c.1.3.5.5.9.5s.8-.1 1.3-.4.8-.5 1.1-.9c.4-.4.8-.8 1-1.3.3-.5.6-1 .9-1.6.5-1.3.8-2.4.8-3.4 0-.6-.1-1-.3-1.4-.1-.4-.4-.5-.8-.5s-.5 0-.9.3-.8.6-1.1 1-.8.9-1.1 1.4c-.4.6-.7 1.2-1 1.8zM65.9 46c0-.8.1-1.4.4-2s.5-1.3.9-1.9.8-1.1 1.3-1.8c.5-.6 1-1 1.5-1.4 1.1-.9 2.4-1.3 3.5-1.3 1.4 0 2.4.6 2.8 1.8.1.4.3.9.3 1.4s-.1.9-.4 1.3-.5.9-.8 1.3-.8.8-1.3 1c-.5.3-1 .5-1.5.8-1.1.4-2.4.6-3.8.6v.5c0 .2 0 .5.1.8s.1.5.3.8c.3.5.8.8 1.3.8 1 0 1.9-.3 2.8-.9.4-.1.6-.4.8-.6s.4-.3.5-.3.3.1.4.3c.1.1.1.4.1.6 0 .4-.1.8-.4 1.1-1 1-2.5 1.5-4.7 1.5-1.3 0-2.1-.4-2.9-1.1-.8-.8-1.2-2-1.2-3.3zm7.2-6.9c-.9 0-1.6.6-2.5 1.8-.6 1-1.3 2.3-1.6 3.7 1.4-.1 2.5-.6 3.5-1.6.9-.9 1.4-1.8 1.4-2.5s-.1-1.4-.8-1.4zM77.8 50l-.4-.4c-.1-.1-.1-.3-.1-.4 0-.1 0-.3.1-.4.1-.1.1-.4.3-.6 1.6-4.2 2.5-6.9 2.5-8.3 0-.4-.1-.6-.4-.9l-.3-.1c-.1 0-.1-.1-.1-.3 0-.1 0-.3.1-.4l.4-.4c.4-.1.8-.3 1.1-.3.4 0 .6 0 .9.1s.4.3.5.4c.3.3.5.6.5.9s0 .6-.1 1-.3.5-.4.9-.3.6-.4.9v.7c-.1.3-.1.5-.1.5.3-.1.4-.4.4-.5l.5-.9c1-1.9 2.1-3.2 3.2-3.8.3-.1.6-.3 1-.3s.8.1 1 .4c.3.3.4.6.4 1s0 .6-.1.9-.1.5-.3.6c-.3.5-.5.8-.9.8-.1 0-.3 0-.3-.1l-.3-.3c-.3-.3-.5-.4-.8-.4s-.8.1-1 .5-.8.8-1.1 1.3c-1.3 1.8-2.4 3.7-3.2 5.8l-.5 1.4c-.1.4-.3.6-.4.8s-.3.3-.5.3c-.3 0-.4 0-.6-.1-.2-.2-.5-.3-.6-.3z"/></g><path fill="none" stroke="#4966C4" stroke-width=".846" stroke-miterlimit="10" d="M158.7 74.7h21.8M158.7 70.4h21.8M158.7 321.8h21.8M158.7 326h21.8"/><path fill="none" stroke="#4966C4" stroke-width="1.054" stroke-miterlimit="10" d="M173.1 76.4l-1.9 2.7M165.9 76.4l7.2 9.7-1.9 2.6M168.1 83.2l-2.2 2.9 7.2 9.6-1.9 2.7M168.1 92.8l-2.2 2.9 7.2 9.6-1.9 2.7M168.1 102.5l-2.2 2.8 7.2 9.6-1.9 2.7M168.1 112.1l-2.2 2.8 7.2 9.7-1.9 2.6M168.1 121.3l-2.2 2.8 7.2 9.7-1.9 2.6M168.1 130.9l-2.2 2.9 7.2 9.6-1.9 2.7M168.1 140.5l-2.2 2.9 7.2 9.6-1.9 2.7M168.1 150.2l-2.2 2.8 7.2 9.6-1.9 2.7M168.1 159.4l-2.2 2.8 7.2 9.6-1.9 2.7M168.1 169l-2.2 2.8 7.2 9.7-1.9 2.6M168.1 178.6l-2.2 2.9 7.2 9.6-1.9 2.7M168.1 188.2l-2.2 2.9 7.2 9.6-1.9 2.7M168.1 197.4l-2.2 2.9 7.2 9.6-1.9 2.7M168.1 207.1l-2.2 2.8 7.2 9.6-1.9 2.7M168.1 216.7l-2.2 2.8 7.2 9.7-1.9 2.6M168.1 226.3l-2.2 2.9 7.2 9.6-1.9 2.7M168.1 235.5l-2.2 2.9 7.2 9.6-1.9 2.7M168.1 245.1l-2.2 2.9 7.2 9.6-1.9 2.7M168.1 254.8l-2.2 2.8 7.2 9.6-1.9 2.7M168.1 264.4l-2.2 2.8 7.2 9.7-1.9 2.6M168.1 273.6l-2.2 2.8 7.2 9.7-1.9 2.6M168.1 283.2l-2.2 2.9 7.2 9.6-1.9 2.7M168.1 292.8l-2.2 2.9 7.2 9.6-1.9 2.7M168.1 302.5l-2.2 2.8 7.2 9.6-1.9 2.7M168.1 311.6l-2.2 2.9 3.9 5.1"/><path fill="none" stroke="#4966C4" stroke-width=".846" stroke-miterlimit="10" d="M328.1 187.3v21.8M332.4 187.3v21.8M16 187.3v21.8M11.8 187.3v21.8"/><path fill="none" stroke="#4966C4" stroke-width="1.054" stroke-miterlimit="10" d="M326.4 201.5l-2.7-1.9M326.4 194.6l-9.7 6.9-2.6-1.9M319.6 196.7l-2.9-2.1-9.6 6.9-2.7-1.9M310 196.7l-2.9-2.1-9.6 6.9-2.7-1.9M300.3 196.7l-2.8-2.1-9.6 6.9-2.7-1.9M290.7 196.7l-2.8-2.1-9.7 6.9-2.6-1.9M281.5 196.7l-2.8-2.1-9.7 6.9-2.6-1.9M271.9 196.7l-2.9-2.1-9.6 6.9-2.7-1.9M262.3 196.7l-2.9-2.1-9.6 6.9-2.7-1.9M252.6 196.7l-2.8-2.1-9.6 6.9-2.7-1.9M243.4 196.7l-2.8-2.1-9.6 6.9-2.7-1.9M233.8 196.7l-2.8-2.1-9.7 6.9-2.6-1.9M224.2 196.7l-2.9-2.1-9.6 6.9-2.7-1.9M214.8 196.7l-2.9-2.1-9.6 6.9-2.7-1.9M205.1 196.7l-2.8-2.1-9.6 6.9-2.7-1.9M195.7 196.7l-2.8-2.1-9.6 6.9-2.7-1.9M140.4 196.7l-2.9-2.1-9.6 6.9-2.7-1.9M130.7 196.7l-2.8-2.1-9.6 6.9-2.7-1.9M159.7 196.7l-2.9-2.1-9.6 6.9-2.7-1.9M150.1 196.7l-2.9-2.1-9.6 6.9-2.7-1.9M121.1 196.7l-2.8-2.1-9.7 6.9-2.6-1.9M111.5 196.7l-2.9-2.1-9.6 6.9-2.7-1.9M102.3 196.7l-2.8-2.1-9.7 6.9-2.7-1.9M92.7 196.7l-2.9-2.1-9.6 6.9-2.7-1.9M83 196.7l-2.8-2.1-9.6 6.9-2.7-1.9M73.4 196.7l-2.8-2.1-9.7 6.9-2.6-1.9M64.2 196.7l-2.8-2.1-9.6 6.9-2.7-1.9M54.6 196.7l-2.8-2.1-9.7 6.9-2.6-1.9M45 196.7l-2.9-2.1-9.6 6.9-2.7-1.9M35.3 196.7l-2.8-2.1-9.6 6.9-2.7-1.9M26.2 196.7l-2.9-2.1-5.1 3.7"/></svg>