<?xml version="1.0" encoding="utf-8"?>
<!-- Generator: Adobe Illustrator 18.0.0, SVG Export Plug-In . SVG Version: 6.00 Build 0)  -->
<!DOCTYPE svg PUBLIC "-//W3C//DTD SVG 1.1//EN" "http://www.w3.org/Graphics/SVG/1.1/DTD/svg11.dtd">
<svg version="1.1" id="Layer_1" xmlns="http://www.w3.org/2000/svg" xmlns:xlink="http://www.w3.org/1999/xlink" x="0px" y="0px"
	 width="340.5px" height="284.6px" viewBox="0 0 340.5 284.6" enable-background="new 0 0 340.5 284.6" xml:space="preserve">
<g>
	<g>
		<path fill="#F4F1E6" d="M3.2,57.6c0.3,2.1,1,3.4,2.4,5c1.1,1.3,2.8,0.4,3.3-0.9c1-2.4,1.9-4.7,2.9-7.1c-1.3-0.2-2.6-0.4-3.9-0.5
			c0,2,0.1,4.1,0.1,6.1c0,2.1,2.6,2.5,3.7,1c2.3-3.1,4.5-6.3,6.5-9.6c-1.2-0.3-2.5-0.7-3.7-1c-0.4,4.4-1.4,8.5-3.3,12.6
			c-1.1,2.3,2.1,4.3,3.5,2c4-6.5,8-13,12-19.5c1.4-2.2-2.1-4.2-3.5-2c-5.6,9-9.6,18.7-12.1,29c-0.5,2.2,2.6,3.6,3.7,1.5
			C20.9,62.6,27.1,51,33.2,39.4c-1.2-0.2-2.4-0.3-3.7-0.5c0.9,5.8-1.8,11.1-4.1,16.2c-2.4,5.2-4.8,10.4-7.2,15.6
			c-1.1,2.4,1.9,4.1,3.5,2c7.2-10,14.4-20,21.6-30.1c-1.2-0.3-2.5-0.7-3.7-1c-0.1,6.2-4.1,12.1-6.8,17.6c-2.5,5-4.9,10.1-7.4,15.1
			c-1.1,2.3,2,4.2,3.5,2c5.9-9,11.8-18,17.7-27c-1.2-0.7-2.3-1.3-3.5-2c-2.7,6-5.3,12-8,18c-0.9,2,1.4,4.1,3.1,2.4
			c6.2-5.7,9.8-13.1,13.2-20.7c-1.2-0.5-2.4-1-3.7-1.5c-3,8.8-6,17.6-9.1,26.4c-0.7,2.1,2.7,3.6,3.7,1.5
			c4.9-10.1,9.8-20.1,14.7-30.2c-1.2,0-2.3,0-3.5,0c2.3,3.6-1.5,10.1-2.8,13.6c-1.5,4.2-3,8.4-4.6,12.6c-0.8,2.3,2.4,3.3,3.7,1.5
			c5.7-8.2,11.1-16.5,16.4-25c-1.2-0.5-2.4-1-3.7-1.5c-2.7,9.3-6.1,18.3-10.1,27.1c-1.1,2.3,2,4.1,3.5,2
			c7.1-10.1,13.8-20.5,20.2-31.1c-1.2-0.5-2.4-1-3.7-1.5c-2.2,6.1-4.4,12.3-6.6,18.4c-1.3,3.5-4.1,7.9-0.4,10.6
			c0.9,0.7,2.2,0.1,2.7-0.7c5.3-8.6,10.6-17.2,16-25.7c-1.2-0.7-2.3-1.3-3.5-2c-4.3,9.8-8.6,19.7-13,29.5c-0.8,1.9,1.6,4.4,3.1,2.4
			C79,63.2,87,53,95.1,42.8c-0.9,0-1.9,0-2.8,0c1.6,1.8-3.1,11-3.9,13c-1.7,4.7-3.4,9.4-5.1,14c-0.8,2.1,2.6,3.5,3.7,1.5
			c4.9-9.2,9.8-18.4,14.7-27.6c-1.2-0.5-2.4-1-3.7-1.5c-3.2,8.5-6.5,17-9.7,25.6c-0.9,2.3,2.4,3.2,3.7,1.5
			c6.3-8.4,12.5-16.8,18.8-25.2c-1.2-0.5-2.4-1-3.7-1.5c-2.6,9.7-6.4,19-11.4,27.7c-1.3,2.3,2,4.2,3.5,2
			c6.2-9.4,12.4-18.7,18.6-28.1c-1.2-0.5-2.4-1-3.7-1.5c-2.1,8.7-4.9,17.2-8.5,25.4c-1,2.3,2.1,4.3,3.5,2
			c5.3-9.1,10.5-18.3,15.8-27.4c-1.2-0.3-2.5-0.7-3.7-1c0.4,10.4-7.2,18.9-9.4,28.7c-0.5,2.3,2.3,3.3,3.7,1.5
			c6.6-9,13.3-18.1,19.9-27.1c-1.2-0.7-2.3-1.3-3.5-2c-4.3,8.9-8.6,17.8-12.9,26.7c-1.1,2.4,1.9,4,3.5,2
			c6.7-8.8,13.4-17.6,20.1-26.3c-1.2-0.5-2.4-1-3.7-1.5c-1.2,7.1-3.6,13.7-7.3,19.9c-1.3,2.2,2,4.1,3.5,2
			c5.3-7.8,10.5-15.6,15.8-23.4c-1.2-0.5-2.4-1-3.7-1.5c-3.6,12.2-8.8,23.8-15.4,34.7c-1.2,1.9,1.7,4.2,3.1,2.4
			c8.8-10.5,15.2-22.6,21.4-34.7c-1.2-0.3-2.5-0.7-3.7-1c-0.9,7.4-3.2,14.3-6.9,20.8c-1.1,1.9,1.7,4.2,3.1,2.4
			c5.9-7.3,11.1-15.2,15.5-23.5c-1.2-0.3-2.5-0.7-3.7-1c0.8,9.4-7,16.7-8.8,25.6c-0.4,1.8,1.9,3.5,3.3,1.9
			c7.5-8.3,14.2-17.2,20-26.7c-1.2-0.2-2.4-0.3-3.7-0.5c1.7,5.7-2.9,12.1-5.3,17c-2.2,4.5-4.5,8.9-6.8,13.4c-1.2,2.3,2,4.1,3.5,2
			c5.5-8.1,11.1-16.3,16.6-24.4c-1.2-0.7-2.3-1.3-3.5-2c-4.4,8.3-7.8,17-10.2,26c-0.6,2.3,2.4,3.3,3.7,1.5
			c7-9.4,13.3-19.3,19.5-29.3c-1.2-0.2-2.4-0.3-3.7-0.5c2.2,8.8-6,16.8-7.3,25.3c-0.3,2.2,2.3,3.5,3.7,1.5
			c5.9-8.6,11.7-17.1,17.6-25.7c-1.2-0.2-2.4-0.3-3.7-0.5c2.6,8.1-4.2,15.2-6.7,22.6c-0.8,2.2,2.5,3.4,3.7,1.5
			c5-7.7,10.1-15.4,15.1-23c-1.2-0.5-2.4-1-3.7-1.5c-1.9,10.2-5.6,19.7-11.1,28.5c-1.4,2.2,1.9,4,3.5,2c6.8-8.9,12.7-18.4,18.5-28
			c-1.2-0.5-2.4-1-3.7-1.5c-2.2,8.4-5.8,16-10.8,23c-1.3,1.8,1.7,4.2,3.1,2.4c6.1-7.7,10.5-16.3,13.3-25.7c0.6-2.1-2.7-3.6-3.7-1.5
			c-0.6,1.3-1.2,2.6-1.7,3.9c-1,2.3,2.4,4.4,3.5,2c0.6-1.3,1.2-2.6,1.7-3.9c-1.2-0.5-2.4-1-3.7-1.5c-2.6,8.7-6.7,16.8-12.3,23.9
			c1,0.8,2.1,1.6,3.1,2.4c5.2-7.3,9-15.3,11.2-23.9c0.6-2.2-2.5-3.5-3.7-1.5c-5.9,9.5-11.8,19-18.5,28c1.2,0.7,2.3,1.3,3.5,2
			c5.7-9,9.6-18.9,11.6-29.4c0.4-2.2-2.4-3.5-3.7-1.5c-5,7.7-10.1,15.4-15.1,23c1.2,0.5,2.4,1,3.7,1.5c2.8-8.3,9.7-15.4,6.7-24.7
			c-0.6-1.7-2.7-1.9-3.7-0.5c-5.9,8.6-11.7,17.1-17.6,25.7c1.2,0.5,2.4,1,3.7,1.5c1.5-9.5,9.9-17.3,7.3-27.4
			c-0.4-1.7-2.8-1.9-3.7-0.5c-6.2,9.9-12.5,19.9-19.5,29.3c1.2,0.5,2.4,1,3.7,1.5c2.3-8.8,5.5-17.1,9.8-25.1c1.2-2.3-2-4.1-3.5-2
			c-5.5,8.1-11.1,16.3-16.6,24.4c1.2,0.7,2.3,1.3,3.5,2c3.2-6.1,6.3-12.2,9.3-18.4c2.3-4.8,4.9-9.6,3.3-15c-0.5-1.7-2.8-2-3.7-0.5
			c-5.6,9.3-12.1,17.9-19.4,25.9c1.1,0.6,2.2,1.3,3.3,1.9c1.9-9.4,9.8-16.7,8.9-26.7c-0.2-1.8-2.7-2.9-3.7-1
			c-4.2,8.1-9.2,15.6-14.9,22.7c1,0.8,2.1,1.6,3.1,2.4c4-7.1,6.5-14.7,7.4-22.8c0.2-2-2.9-2.7-3.7-1c-6,11.8-12.2,23.7-20.8,33.9
			c1,0.8,2.1,1.6,3.1,2.4c6.8-11.2,12.1-23.1,15.8-35.6c0.7-2.3-2.4-3.4-3.7-1.5c-5.3,7.8-10.5,15.6-15.8,23.4
			c1.2,0.7,2.3,1.3,3.5,2c3.9-6.5,6.5-13.4,7.7-20.9c0.4-2.3-2.3-3.4-3.7-1.5c-6.7,8.8-13.4,17.6-20.1,26.3c1.2,0.7,2.3,1.3,3.5,2
			c4.3-8.9,8.6-17.8,12.9-26.7c1.1-2.4-1.9-4.1-3.5-2c-6.6,9-13.3,18.1-19.9,27.1c1.2,0.5,2.4,1,3.7,1.5c2.3-10.3,10-18.8,9.5-29.8
			c-0.1-1.9-2.7-2.8-3.7-1c-5.3,9.1-10.5,18.3-15.8,27.4c1.2,0.7,2.3,1.3,3.5,2c3.8-8.5,6.8-17.3,8.9-26.3c0.5-2.3-2.4-3.4-3.7-1.5
			C108.2,51.6,102,61,95.8,70.3c1.2,0.7,2.3,1.3,3.5,2c5.2-9,9.1-18.6,11.8-28.7c0.6-2.3-2.4-3.3-3.7-1.5
			c-6.3,8.4-12.5,16.8-18.8,25.2c1.2,0.5,2.4,1,3.7,1.5c3.2-8.5,6.5-17,9.7-25.6c0.8-2.1-2.6-3.5-3.7-1.5
			c-4.9,9.2-9.8,18.4-14.7,27.6c1.2,0.5,2.4,1,3.7,1.5c2.3-6.4,4.7-12.9,7-19.3c1.4-3.8,4-8.2,0.9-11.6c-0.7-0.7-2.2-0.8-2.8,0
			c-8.1,10.2-16.1,20.4-24.2,30.6c1,0.8,2.1,1.6,3.1,2.4c4.3-9.8,8.6-19.7,13-29.5c1-2.3-2.1-4.3-3.5-2c-5.3,8.6-10.6,17.2-16,25.7
			c0.9-0.2,1.8-0.5,2.7-0.7c-0.9-0.6,8.1-22.2,8.9-24.5c0.8-2.2-2.5-3.4-3.7-1.5c-6.3,10.6-13.1,21-20.2,31.1c1.2,0.7,2.3,1.3,3.5,2
			c4.2-9.1,7.7-18.4,10.5-28c0.6-2.2-2.5-3.4-3.7-1.5c-5.2,8.5-10.7,16.8-16.4,25c1.2,0.5,2.4,1,3.7,1.5c2.2-6,4.4-12,6.5-18
			C58,48.7,59.4,45,57,41.3c-0.7-1.2-2.8-1.4-3.5,0c-4.9,10.1-9.8,20.1-14.7,30.2c1.2,0.5,2.4,1,3.7,1.5c3-8.8,6-17.6,9.1-26.4
			c0.7-2.1-2.7-3.6-3.7-1.5c-3.3,7.2-6.6,14.4-12.5,19.9c1,0.8,2.1,1.6,3.1,2.4c2.7-6,5.3-12,8-18c1-2.3-2-4.2-3.5-2
			c-5.9,9-11.8,18-17.7,27c1.2,0.7,2.3,1.3,3.5,2c3-6.2,6-12.3,9-18.5c2.6-5.2,5.6-10.3,5.7-16.3c0-2.1-2.6-2.5-3.7-1
			c-7.2,10-14.4,20-21.6,30.1c1.2,0.7,2.3,1.3,3.5,2c2.9-6.3,5.8-12.6,8.7-18.9c2.4-5.2,3.9-10.3,3-16c-0.3-1.7-2.9-1.9-3.7-0.5
			C23.6,49,17.5,60.6,11.3,72.1c1.2,0.5,2.4,1,3.7,1.5c2.4-10,6.3-19.3,11.7-28c-1.2-0.7-2.3-1.3-3.5-2c-4,6.5-8,13-12,19.5
			c1.2,0.7,2.3,1.3,3.5,2c2.2-4.7,3.4-9.4,3.8-14.6c0.2-2.1-2.8-2.6-3.7-1c-2,3.3-4.1,6.5-6.5,9.6c1.2,0.3,2.5,0.7,3.7,1
			c0-2-0.1-4.1-0.1-6.1c-0.1-2.4-3.1-2.5-3.9-0.5c-1,2.4-1.9,4.7-2.9,7.1c1.1-0.3,2.2-0.6,3.3-0.9C8,58.7,7.5,57.6,7,56.5
			C6.7,54,2.8,55.1,3.2,57.6L3.2,57.6z"/>
	</g>
</g>
<g>
	<g>
		<path fill="#F4F1E6" d="M207.5,70.9c9.7-6.9,17.7-15.6,23.5-26c1.3-2.3-2.1-4.2-3.5-2c-5.7,8.8-11.4,17.7-17.1,26.5
			c1.2,0.7,2.3,1.3,3.5,2c4.1-8.9,9.9-16.6,17.4-23c-1.1-0.5-2.3-0.9-3.4-1.4c0.7,5.7-2.3,10.4-4.9,15.3c-2.4,4.5-4.7,9-7.1,13.5
			c-1,1.9,1.6,4.3,3.1,2.4c8-9.8,15-20.3,20.9-31.5c1.2-2.3-2-4.2-3.5-2c-4.9,7.5-9.5,15.1-13.8,22.9c-1.1,2.1,1.4,3.9,3.1,2.4
			c9.4-8.1,18.4-16.6,27-25.6c-1-0.8-2.1-1.6-3.1-2.4c-5.2,9.5-10.8,18.7-16.8,27.8c-1.2,1.9,1.7,4.2,3.1,2.4
			c7.8-9.6,15.3-19.4,22.5-29.4c-1.2-0.7-2.3-1.3-3.5-2c-5.9,8.8-11,17.9-15.3,27.5c-0.9,2.1,1.4,3.9,3.1,2.4
			c8.7-7.2,16.2-15.5,22.7-24.7c-1.2-0.7-2.3-1.3-3.5-2c-3.8,7.4-7.6,14.7-11.5,22.1c-1,1.9,1.7,4.3,3.1,2.4
			c6-7.6,12.1-15.2,18.1-22.8c-1-0.8-2.1-1.6-3.1-2.4c-5.4,10.5-10.7,20.9-16.1,31.4c-1.2,2.3,2.1,4.2,3.5,2
			c6.5-10.4,13.9-20.1,22.2-29.1c-1.1-0.5-2.3-0.9-3.4-1.4c-0.3,8.9-3.3,17.2-8.9,24.1c1,0.8,2.1,1.6,3.1,2.4
			c6.4-9.1,11.9-18.7,16.6-28.8c-1.2-0.7-2.3-1.3-3.5-2c-5,11.3-10.4,22.3-16.2,33.2c-1.1,2,1.5,4.1,3.1,2.4
			c9.2-9.5,16.7-20.3,24-31.2c-1.2-0.5-2.4-1-3.7-1.5C286.7,53.6,282.8,62,278,70c-1.3,2.2,2.1,4.2,3.5,2
			c5.7-8.8,11.3-17.7,16.8-26.6c-1.2-0.3-2.5-0.7-3.7-1c-0.7,8.6-3.2,16.6-7.7,24c-1.1,1.9,1.6,4.2,3.1,2.4
			c6.3-7.3,12.1-15.1,17.2-23.2c-1.2-0.2-2.4-0.3-3.7-0.5c0.8,3.9-4.3,10.7-6,14c-2,4-4.1,8.1-6.1,12.1c-1,2,1.5,4.2,3.1,2.4
			c8.1-8.9,14.9-18.7,20.2-29.5c-1.2-0.7-2.3-1.3-3.5-2c-3.6,8.2-6.3,16.6-8.2,25.3c-0.4,1.8,2,3.6,3.3,1.9
			c6.4-7.9,12.8-15.7,19.2-23.6c-1.1-0.3-2.2-0.6-3.3-0.9c1.4,6.3,0.6,12.2-2.5,17.9c1.2,0.7,2.3,1.3,3.5,2
			c2.9-6.3,6.5-12.2,10.6-17.8c-1.2-0.5-2.4-1-3.7-1.5c-1.9,7.8-4.4,15.3-7.3,22.8c-0.7,1.9,2.1,3.4,3.3,1.9
			c5.8-6.5,10.6-13.7,14.1-21.8c1-2.3-2.4-4.4-3.5-2c-3.4,7.7-7.9,14.7-13.5,20.9c1.1,0.6,2.2,1.3,3.3,1.9c3-7.4,5.4-15,7.3-22.8
			c0.6-2.3-2.3-3.3-3.7-1.5c-4.2,5.6-7.7,11.5-10.6,17.8c-1.1,2.3,2.2,4.3,3.5,2c3.6-6.6,4.5-13.7,2.9-21c-0.3-1.4-2.4-2-3.3-0.9
			c-6.4,7.9-12.8,15.7-19.2,23.6c1.1,0.6,2.2,1.3,3.3,1.9c1.8-8.4,4.3-16.5,7.8-24.4c1-2.3-2.3-4.4-3.5-2
			c-5.2,10.5-11.7,20-19.6,28.6c1,0.8,2.1,1.6,3.1,2.4c2.9-5.8,5.8-11.5,8.7-17.3c1.9-3.8,4.6-7.5,3.8-11.9
			c-0.4-1.8-2.8-1.8-3.7-0.5c-5,7.9-10.5,15.4-16.6,22.4c1,0.8,2.1,1.6,3.1,2.4c4.8-8,7.5-16.7,8.2-26c0.2-2.1-2.7-2.6-3.7-1
			c-5.5,8.9-11.1,17.8-16.8,26.6c1.2,0.7,2.3,1.3,3.5,2c5-8.3,9-17,12-26.2c0.7-2.3-2.4-3.3-3.7-1.5c-7.2,10.6-14.5,21.2-23.4,30.4
			c1,0.8,2.1,1.6,3.1,2.4c5.8-10.9,11.2-21.9,16.2-33.2c1-2.3-2.4-4.4-3.5-2c-4.7,10.1-10.2,19.7-16.6,28.8
			c-1.3,1.9,1.7,4.2,3.1,2.4c6.3-7.8,9.8-16.9,10.1-26.9c0-1.7-2.2-2.7-3.4-1.4c-8.5,9.2-16.1,19.2-22.8,29.9c1.2,0.7,2.3,1.3,3.5,2
			c5.4-10.5,10.7-20.9,16.1-31.4c1-1.9-1.7-4.3-3.1-2.4c-6,7.6-12.1,15.2-18.1,22.8c1,0.8,2.1,1.6,3.1,2.4
			c3.8-7.4,7.6-14.7,11.5-22.1c1.2-2.3-2-4.1-3.5-2c-6.3,9-13.6,16.9-22.1,23.9c1,0.8,2.1,1.6,3.1,2.4c4.3-9.6,9.4-18.8,15.3-27.5
			c1.4-2.2-2-4.1-3.5-2c-7,9.8-14.3,19.3-21.9,28.6c1,0.8,2.1,1.6,3.1,2.4c6-9,11.6-18.3,16.8-27.8c1.1-2-1.5-4.1-3.1-2.4
			c-8.6,9-17.6,17.5-27,25.6c1,0.8,2.1,1.6,3.1,2.4c4.3-7.8,8.9-15.5,13.8-22.9c-1.2-0.7-2.3-1.3-3.5-2
			C230.8,55.7,224,66,216.2,75.5c1,0.8,2.1,1.6,3.1,2.4c3-5.6,5.9-11.3,8.9-16.9c2.3-4.4,4.3-8.8,3.7-13.9c-0.2-1.8-2-2.6-3.4-1.4
			c-7.7,6.6-13.8,14.6-18,23.8c-1.1,2.3,2,4.2,3.5,2c5.7-8.8,11.4-17.7,17.1-26.5c-1.2-0.7-2.3-1.3-3.5-2
			c-5.5,9.8-12.8,18.1-22,24.5C203.4,69,205.4,72.4,207.5,70.9L207.5,70.9z"/>
	</g>
</g>
<g>
	<g>
		<path fill="#F4F1E6" d="M3.2,265.4c0.3,2.1,1,3.4,2.4,5c1.1,1.3,2.8,0.4,3.3-0.9c1-2.4,1.9-4.7,2.9-7.1c-1.3-0.2-2.6-0.4-3.9-0.5
			c0,2,0.1,4.1,0.1,6.1c0,2.1,2.6,2.5,3.7,1c2.3-3.1,4.5-6.3,6.5-9.6c-1.2-0.3-2.5-0.7-3.7-1c-0.4,4.4-1.4,8.5-3.3,12.6
			c-1.1,2.3,2.1,4.3,3.5,2c4-6.5,8-13,12-19.5c1.4-2.2-2.1-4.2-3.5-2c-5.6,9-9.6,18.7-12.1,29c-0.5,2.2,2.6,3.6,3.7,1.5
			c6.1-11.6,12.3-23.1,18.4-34.7c-1.2-0.2-2.4-0.3-3.7-0.5c0.9,5.8-1.8,11.1-4.1,16.2c-2.4,5.2-4.8,10.4-7.2,15.6
			c-1.1,2.4,1.9,4.1,3.5,2c7.2-10,14.4-20,21.6-30.1c-1.2-0.3-2.5-0.7-3.7-1c-0.1,6.2-4.1,12.1-6.8,17.6c-2.5,5-4.9,10.1-7.4,15.1
			c-1.1,2.3,2,4.2,3.5,2c5.9-9,11.8-18,17.7-27c-1.2-0.7-2.3-1.3-3.5-2c-2.7,6-5.3,12-8,18c-0.9,2,1.4,4.1,3.1,2.4
			c6.2-5.7,9.8-13.1,13.2-20.7c-1.2-0.5-2.4-1-3.7-1.5c-3,8.8-6,17.6-9.1,26.4c-0.7,2.1,2.7,3.6,3.7,1.5
			c4.9-10.1,9.8-20.1,14.7-30.2c-1.2,0-2.3,0-3.5,0c2.3,3.6-1.5,10.1-2.8,13.6c-1.5,4.2-3,8.4-4.6,12.6c-0.8,2.3,2.4,3.3,3.7,1.5
			c5.7-8.2,11.1-16.5,16.4-25c-1.2-0.5-2.4-1-3.7-1.5c-2.7,9.3-6.1,18.3-10.1,27.1c-1.1,2.3,2,4.1,3.5,2
			c7.1-10.1,13.8-20.5,20.2-31.1c-1.2-0.5-2.4-1-3.7-1.5c-2.2,6.1-4.4,12.3-6.6,18.4c-1.3,3.5-4.1,7.9-0.4,10.6
			c0.9,0.7,2.2,0.1,2.7-0.7c5.3-8.6,10.6-17.2,16-25.7c-1.2-0.7-2.3-1.3-3.5-2c-4.3,9.8-8.6,19.7-13,29.5c-0.8,1.9,1.6,4.4,3.1,2.4
			C79,271,87,260.8,95.1,250.6c-0.9,0-1.9,0-2.8,0c1.6,1.8-3.1,11-3.9,13c-1.7,4.7-3.4,9.4-5.1,14c-0.8,2.1,2.6,3.5,3.7,1.5
			c4.9-9.2,9.8-18.4,14.7-27.6c-1.2-0.5-2.4-1-3.7-1.5c-3.2,8.5-6.5,17-9.7,25.6c-0.9,2.3,2.4,3.2,3.7,1.5
			c6.3-8.4,12.5-16.8,18.8-25.2c-1.2-0.5-2.4-1-3.7-1.5c-2.6,9.7-6.4,19-11.4,27.7c-1.3,2.3,2,4.2,3.5,2
			c6.2-9.4,12.4-18.7,18.6-28.1c-1.2-0.5-2.4-1-3.7-1.5c-2.1,8.7-4.9,17.2-8.5,25.4c-1,2.3,2.1,4.3,3.5,2
			c5.3-9.1,10.5-18.3,15.8-27.4c-1.2-0.3-2.5-0.7-3.7-1c0.4,10.4-7.2,18.9-9.4,28.7c-0.5,2.3,2.3,3.3,3.7,1.5
			c6.6-9,13.3-18.1,19.9-27.1c-1.2-0.7-2.3-1.3-3.5-2c-4.3,8.9-8.6,17.8-12.9,26.7c-1.1,2.4,1.9,4,3.5,2
			c6.7-8.8,13.4-17.6,20.1-26.3c-1.2-0.5-2.4-1-3.7-1.5c-1.2,7.1-3.6,13.7-7.3,19.9c-1.3,2.2,2,4.1,3.5,2
			c5.3-7.8,10.5-15.6,15.8-23.4c-1.2-0.5-2.4-1-3.7-1.5c-3.6,12.2-8.8,23.8-15.4,34.7c-1.2,1.9,1.7,4.2,3.1,2.4
			c8.8-10.5,15.2-22.6,21.4-34.7c-1.2-0.3-2.5-0.7-3.7-1c-0.9,7.4-3.2,14.3-6.9,20.8c-1.1,1.9,1.7,4.2,3.1,2.4
			c5.9-7.3,11.1-15.2,15.5-23.5c-1.2-0.3-2.5-0.7-3.7-1c0.8,9.4-7,16.7-8.8,25.6c-0.4,1.8,1.9,3.5,3.3,1.9
			c7.5-8.3,14.2-17.2,20-26.7c-1.2-0.2-2.4-0.3-3.7-0.5c1.7,5.7-2.9,12.1-5.3,17c-2.2,4.5-4.5,8.9-6.8,13.4c-1.2,2.3,2,4.1,3.5,2
			c5.5-8.1,11.1-16.3,16.6-24.4c-1.2-0.7-2.3-1.3-3.5-2c-4.4,8.3-7.8,17-10.2,26c-0.6,2.3,2.4,3.3,3.7,1.5
			c7-9.4,13.3-19.3,19.5-29.3c-1.2-0.2-2.4-0.3-3.7-0.5c2.2,8.8-6,16.8-7.3,25.3c-0.3,2.2,2.3,3.5,3.7,1.5
			c5.9-8.6,11.7-17.1,17.6-25.7c-1.2-0.2-2.4-0.3-3.7-0.5c2.6,8.1-4.2,15.2-6.7,22.6c-0.8,2.2,2.5,3.4,3.7,1.5
			c5-7.7,10.1-15.4,15.1-23c-1.2-0.5-2.4-1-3.7-1.5c-1.9,10.2-5.6,19.7-11.1,28.5c-1.4,2.2,1.9,4,3.5,2c6.8-8.9,12.7-18.4,18.5-28
			c-1.2-0.5-2.4-1-3.7-1.5c-2.2,8.4-5.8,16-10.8,23c-1.3,1.8,1.7,4.2,3.1,2.4c6.1-7.7,10.5-16.3,13.3-25.7c0.6-2.1-2.7-3.6-3.7-1.5
			c-0.6,1.3-1.2,2.6-1.7,3.9c-1,2.3,2.4,4.4,3.5,2c0.6-1.3,1.2-2.6,1.7-3.9c-1.2-0.5-2.4-1-3.7-1.5c-2.6,8.7-6.7,16.8-12.3,23.9
			c1,0.8,2.1,1.6,3.1,2.4c5.2-7.3,9-15.3,11.2-23.9c0.6-2.2-2.5-3.5-3.7-1.5c-5.9,9.5-11.8,19-18.5,28c1.2,0.7,2.3,1.3,3.5,2
			c5.7-9,9.6-18.9,11.6-29.4c0.4-2.2-2.4-3.5-3.7-1.5c-5,7.7-10.1,15.4-15.1,23c1.2,0.5,2.4,1,3.7,1.5c2.8-8.3,9.7-15.4,6.7-24.7
			c-0.6-1.7-2.7-1.9-3.7-0.5c-5.9,8.6-11.7,17.1-17.6,25.7c1.2,0.5,2.4,1,3.7,1.5c1.5-9.5,9.9-17.3,7.3-27.4
			c-0.4-1.7-2.8-1.9-3.7-0.5c-6.2,9.9-12.5,19.9-19.5,29.3c1.2,0.5,2.4,1,3.7,1.5c2.3-8.8,5.5-17.1,9.8-25.1c1.2-2.3-2-4.1-3.5-2
			c-5.5,8.1-11.1,16.3-16.6,24.4c1.2,0.7,2.3,1.3,3.5,2c3.2-6.1,6.3-12.2,9.3-18.4c2.3-4.8,4.9-9.6,3.3-15c-0.5-1.7-2.8-2-3.7-0.5
			c-5.6,9.3-12.1,17.9-19.4,25.9c1.1,0.6,2.2,1.3,3.3,1.9c1.9-9.4,9.8-16.7,8.9-26.7c-0.2-1.8-2.7-2.9-3.7-1
			c-4.2,8.1-9.2,15.6-14.9,22.7c1,0.8,2.1,1.6,3.1,2.4c4-7.1,6.5-14.7,7.4-22.8c0.2-2-2.9-2.7-3.7-1c-6,11.8-12.2,23.7-20.8,33.9
			c1,0.8,2.1,1.6,3.1,2.4c6.8-11.2,12.1-23.1,15.8-35.6c0.7-2.3-2.4-3.4-3.7-1.5c-5.3,7.8-10.5,15.6-15.8,23.4
			c1.2,0.7,2.3,1.3,3.5,2c3.9-6.5,6.5-13.4,7.7-20.9c0.4-2.3-2.3-3.4-3.7-1.5c-6.7,8.8-13.4,17.6-20.1,26.3c1.2,0.7,2.3,1.3,3.5,2
			c4.3-8.9,8.6-17.8,12.9-26.7c1.1-2.4-1.9-4.1-3.5-2c-6.6,9-13.3,18.1-19.9,27.1c1.2,0.5,2.4,1,3.7,1.5c2.3-10.3,10-18.8,9.5-29.8
			c-0.1-1.9-2.7-2.8-3.7-1c-5.3,9.1-10.5,18.3-15.8,27.4c1.2,0.7,2.3,1.3,3.5,2c3.8-8.5,6.8-17.3,8.9-26.3c0.5-2.3-2.4-3.4-3.7-1.5
			c-6.2,9.4-12.4,18.7-18.6,28.1c1.2,0.7,2.3,1.3,3.5,2c5.2-9,9.1-18.6,11.8-28.7c0.6-2.3-2.4-3.3-3.7-1.5
			c-6.3,8.4-12.5,16.8-18.8,25.2c1.2,0.5,2.4,1,3.7,1.5c3.2-8.5,6.5-17,9.7-25.6c0.8-2.1-2.6-3.5-3.7-1.5
			c-4.9,9.2-9.8,18.4-14.7,27.6c1.2,0.5,2.4,1,3.7,1.5c2.3-6.4,4.7-12.9,7-19.3c1.4-3.8,4-8.2,0.9-11.6c-0.7-0.7-2.2-0.8-2.8,0
			c-8.1,10.2-16.1,20.4-24.2,30.6c1,0.8,2.1,1.6,3.1,2.4c4.3-9.8,8.6-19.7,13-29.5c1-2.3-2.1-4.3-3.5-2c-5.3,8.6-10.6,17.2-16,25.7
			c0.9-0.2,1.8-0.5,2.7-0.7c-0.9-0.6,8.1-22.2,8.9-24.5c0.8-2.2-2.5-3.4-3.7-1.5c-6.3,10.6-13.1,21-20.2,31.1c1.2,0.7,2.3,1.3,3.5,2
			c4.2-9.1,7.7-18.4,10.5-28c0.6-2.2-2.5-3.4-3.7-1.5c-5.2,8.5-10.7,16.8-16.4,25c1.2,0.5,2.4,1,3.7,1.5c2.2-6,4.4-12,6.5-18
			c1.4-3.8,2.7-7.6,0.4-11.2c-0.7-1.2-2.8-1.4-3.5,0c-4.9,10.1-9.8,20.1-14.7,30.2c1.2,0.5,2.4,1,3.7,1.5c3-8.8,6-17.6,9.1-26.4
			c0.7-2.1-2.7-3.6-3.7-1.5c-3.3,7.2-6.6,14.4-12.5,19.9c1,0.8,2.1,1.6,3.1,2.4c2.7-6,5.3-12,8-18c1-2.3-2-4.2-3.5-2
			c-5.9,9-11.8,18-17.7,27c1.2,0.7,2.3,1.3,3.5,2c3-6.2,6-12.3,9-18.5c2.6-5.2,5.6-10.3,5.7-16.3c0-2.1-2.6-2.5-3.7-1
			c-7.2,10-14.4,20-21.6,30.1c1.2,0.7,2.3,1.3,3.5,2c2.9-6.3,5.8-12.6,8.7-18.9c2.4-5.2,3.9-10.3,3-16c-0.3-1.7-2.9-1.9-3.7-0.5
			c-6.1,11.6-12.3,23.1-18.4,34.7c1.2,0.5,2.4,1,3.7,1.5c2.4-10,6.3-19.3,11.7-28c-1.2-0.7-2.3-1.3-3.5-2c-4,6.5-8,13-12,19.5
			c1.2,0.7,2.3,1.3,3.5,2c2.2-4.7,3.4-9.4,3.8-14.6c0.2-2.1-2.8-2.6-3.7-1c-2,3.3-4.1,6.5-6.5,9.6c1.2,0.3,2.5,0.7,3.7,1
			c0-2-0.1-4.1-0.1-6.1c-0.1-2.4-3.1-2.5-3.9-0.5c-1,2.4-1.9,4.7-2.9,7.1c1.1-0.3,2.2-0.6,3.3-0.9c-0.5-1.1-0.9-2.1-1.4-3.2
			C6.7,261.8,2.8,262.9,3.2,265.4L3.2,265.4z"/>
	</g>
</g>
<g>
	<g>
		<path fill="#F4F1E6" d="M207.5,278.7c9.7-6.9,17.7-15.6,23.5-26c1.3-2.3-2.1-4.2-3.5-2c-5.7,8.8-11.4,17.7-17.1,26.5
			c1.2,0.7,2.3,1.3,3.5,2c4.1-8.9,9.9-16.6,17.4-23c-1.1-0.5-2.3-0.9-3.4-1.4c0.7,5.7-2.3,10.4-4.9,15.3c-2.4,4.5-4.7,9-7.1,13.5
			c-1,1.9,1.6,4.3,3.1,2.4c8-9.8,15-20.3,20.9-31.5c1.2-2.3-2-4.2-3.5-2c-4.9,7.5-9.5,15.1-13.8,22.9c-1.1,2.1,1.4,3.9,3.1,2.4
			c9.4-8.1,18.4-16.6,27-25.6c-1-0.8-2.1-1.6-3.1-2.4c-5.2,9.5-10.8,18.7-16.8,27.8c-1.2,1.9,1.7,4.2,3.1,2.4
			c7.8-9.6,15.3-19.4,22.5-29.4c-1.2-0.7-2.3-1.3-3.5-2c-5.9,8.8-11,17.9-15.3,27.5c-0.9,2.1,1.4,3.9,3.1,2.4
			c8.7-7.2,16.2-15.5,22.7-24.7c-1.2-0.7-2.3-1.3-3.5-2c-3.8,7.4-7.6,14.7-11.5,22.1c-1,1.9,1.7,4.3,3.1,2.4
			c6-7.6,12.1-15.2,18.1-22.8c-1-0.8-2.1-1.6-3.1-2.4c-5.4,10.5-10.7,20.9-16.1,31.4c-1.2,2.3,2.1,4.2,3.5,2
			c6.5-10.4,13.9-20.1,22.2-29.1c-1.1-0.5-2.3-0.9-3.4-1.4c-0.3,8.9-3.3,17.2-8.9,24.1c1,0.8,2.1,1.6,3.1,2.4
			c6.4-9.1,11.9-18.7,16.6-28.8c-1.2-0.7-2.3-1.3-3.5-2c-5,11.3-10.4,22.3-16.2,33.2c-1.1,2,1.5,4.1,3.1,2.4
			c9.2-9.5,16.7-20.3,24-31.2c-1.2-0.5-2.4-1-3.7-1.5c-2.9,8.9-6.7,17.3-11.6,25.3c-1.3,2.2,2.1,4.2,3.5,2
			c5.7-8.8,11.3-17.7,16.8-26.6c-1.2-0.3-2.5-0.7-3.7-1c-0.7,8.6-3.2,16.6-7.7,24c-1.1,1.9,1.6,4.2,3.1,2.4
			c6.3-7.3,12.1-15.1,17.2-23.2c-1.2-0.2-2.4-0.3-3.7-0.5c0.8,3.9-4.3,10.7-6,14c-2,4-4.1,8.1-6.1,12.1c-1,2,1.5,4.2,3.1,2.4
			c8.1-8.9,14.9-18.7,20.2-29.5c-1.2-0.7-2.3-1.3-3.5-2c-3.6,8.2-6.3,16.6-8.2,25.3c-0.4,1.8,2,3.6,3.3,1.9
			c6.4-7.9,12.8-15.7,19.2-23.6c-1.1-0.3-2.2-0.6-3.3-0.9c1.4,6.3,0.6,12.2-2.5,17.9c1.2,0.7,2.3,1.3,3.5,2
			c2.9-6.3,6.5-12.2,10.6-17.8c-1.2-0.5-2.4-1-3.7-1.5c-1.9,7.8-4.4,15.3-7.3,22.8c-0.7,1.9,2.1,3.4,3.3,1.9
			c5.8-6.5,10.6-13.7,14.1-21.8c1-2.3-2.4-4.4-3.5-2c-3.4,7.7-7.9,14.7-13.5,20.9c1.1,0.6,2.2,1.3,3.3,1.9c3-7.4,5.4-15,7.3-22.8
			c0.6-2.3-2.3-3.3-3.7-1.5c-4.2,5.6-7.7,11.5-10.6,17.8c-1.1,2.3,2.2,4.3,3.5,2c3.6-6.6,4.5-13.7,2.9-21c-0.3-1.4-2.4-2-3.3-0.9
			c-6.4,7.9-12.8,15.7-19.2,23.6c1.1,0.6,2.2,1.3,3.3,1.9c1.8-8.4,4.3-16.5,7.8-24.4c1-2.3-2.3-4.4-3.5-2
			c-5.2,10.5-11.7,20-19.6,28.6c1,0.8,2.1,1.6,3.1,2.4c2.9-5.8,5.8-11.5,8.7-17.3c1.9-3.8,4.6-7.5,3.8-11.9
			c-0.4-1.8-2.8-1.8-3.7-0.5c-5,7.9-10.5,15.4-16.6,22.4c1,0.8,2.1,1.6,3.1,2.4c4.8-8,7.5-16.7,8.2-26c0.2-2.1-2.7-2.6-3.7-1
			c-5.5,8.9-11.1,17.8-16.8,26.6c1.2,0.7,2.3,1.3,3.5,2c5-8.3,9-17,12-26.2c0.7-2.3-2.4-3.3-3.7-1.5c-7.2,10.6-14.5,21.2-23.4,30.4
			c1,0.8,2.1,1.6,3.1,2.4c5.8-10.9,11.2-21.9,16.2-33.2c1-2.3-2.4-4.4-3.5-2c-4.7,10.1-10.2,19.7-16.6,28.8
			c-1.3,1.9,1.7,4.2,3.1,2.4c6.3-7.8,9.8-16.9,10.1-26.9c0-1.7-2.2-2.7-3.4-1.4c-8.5,9.2-16.1,19.2-22.8,29.9c1.2,0.7,2.3,1.3,3.5,2
			c5.4-10.5,10.7-20.9,16.1-31.4c1-1.9-1.7-4.3-3.1-2.4c-6,7.6-12.1,15.2-18.1,22.8c1,0.8,2.1,1.6,3.1,2.4
			c3.8-7.4,7.6-14.7,11.5-22.1c1.2-2.3-2-4.1-3.5-2c-6.3,9-13.6,16.9-22.1,23.9c1,0.8,2.1,1.6,3.1,2.4c4.3-9.6,9.4-18.8,15.3-27.5
			c1.4-2.2-2-4.1-3.5-2c-7,9.8-14.3,19.3-21.9,28.6c1,0.8,2.1,1.6,3.1,2.4c6-9,11.6-18.3,16.8-27.8c1.1-2-1.5-4.1-3.1-2.4
			c-8.6,9-17.6,17.5-27,25.6c1,0.8,2.1,1.6,3.1,2.4c4.3-7.8,8.9-15.5,13.8-22.9c-1.2-0.7-2.3-1.3-3.5-2
			c-5.7,10.9-12.5,21.2-20.3,30.7c1,0.8,2.1,1.6,3.1,2.4c3-5.6,5.9-11.3,8.9-16.9c2.3-4.4,4.3-8.8,3.7-13.9c-0.2-1.8-2-2.6-3.4-1.4
			c-7.7,6.6-13.8,14.6-18,23.8c-1.1,2.3,2,4.2,3.5,2c5.7-8.8,11.4-17.7,17.1-26.5c-1.2-0.7-2.3-1.3-3.5-2
			c-5.5,9.8-12.8,18.1-22,24.5C203.4,276.8,205.4,280.2,207.5,278.7L207.5,278.7z"/>
	</g>
</g>
<g>
	<path fill="#EACF1A" d="M1.8,17.9l0-0.5c0.1-3.1,0.9-6.1,2.4-8.9C5.6,6,7.3,3.9,9.3,2.3c2-1.6,4-2.3,6-2.3c1.5,0,2.6,0.5,3.5,1.5
		c0.7,0.9,1.1,2,1.1,3.2c0,1.5-0.6,3-1.7,4.5c-0.7,0.9-1.3,1.5-2.1,1.9c-0.3,0.2-0.7,0.3-1,0.3c-0.3,0-0.6-0.1-0.8-0.2
		s-0.5-0.3-0.7-0.5C13.2,10.4,13,10,13,9.7c0-0.3,0.1-0.6,0.3-0.7c1.7-1.2,2.9-2.5,3.5-3.8c0.2-0.5,0.4-1,0.4-1.5
		c0-1-0.5-1.5-1.4-1.5c-1.5,0-3.1,0.8-4.7,2.5c-1.5,1.5-2.8,3.4-3.8,5.7c-1.1,2.4-1.6,4.5-1.7,6.5l0,0.6c0,2.4,0.5,3.9,1.5,4.6
		c0.4,0.3,0.8,0.4,1.3,0.4c0.5,0,1-0.1,1.4-0.2s0.9-0.3,1.3-0.5c0.7-0.4,1.6-1,2.7-1.9c0.3-0.3,0.6-0.2,0.8,0.1
		c0.2,0.3,0.3,0.6,0.3,0.9c0,0.6-0.1,1-0.2,1.2c-0.2,0.2-0.4,0.5-0.8,0.8s-0.9,0.6-1.4,0.8c-1.3,0.6-2.6,0.9-3.9,0.9
		c-1.3,0-2.3-0.2-3.1-0.5c-0.8-0.3-1.4-0.8-2-1.3C2.4,21.6,1.8,20,1.8,17.9z"/>
	<path fill="#EACF1A" d="M18.7,24.1c-0.2-0.2-0.4-0.3-0.5-0.5C18,23.4,18,23.2,18,23.1c0-0.1,0-0.3,0.1-0.5c0.1-0.2,0.2-0.5,0.3-0.7
		c2.1-5.3,3.2-8.8,3.2-10.6c0-0.5-0.2-0.9-0.5-1.1l-0.3-0.2c-0.1-0.1-0.1-0.2-0.1-0.4c0-0.2,0.1-0.4,0.2-0.5
		c0.1-0.2,0.3-0.3,0.5-0.4c0.5-0.2,0.9-0.4,1.4-0.4s0.9,0.1,1.1,0.2s0.5,0.2,0.7,0.4c0.4,0.4,0.6,0.8,0.6,1.2c0,0.4,0,0.8-0.1,1.3
		c-0.1,0.4-0.2,0.9-0.4,1.3s-0.3,0.8-0.4,1.2c-0.1,0.4-0.2,0.6-0.3,0.8c-0.1,0.4-0.1,0.6-0.1,0.7c0.3-0.2,0.4-0.4,0.5-0.6l0.6-1.2
		c1.4-2.5,2.7-4.1,4-4.9c0.4-0.2,0.8-0.3,1.4-0.3s1,0.2,1.3,0.6C31.9,9.1,32,9.5,32,10c0,0.5,0,0.8-0.1,1.1
		c-0.1,0.3-0.2,0.6-0.4,0.8c-0.3,0.6-0.8,0.9-1.3,0.9c-0.1,0-0.3,0-0.4-0.1l-0.3-0.3c-0.3-0.3-0.7-0.5-1-0.5s-0.7,0.2-1.2,0.6
		s-0.9,1-1.4,1.6c-1.7,2.2-3,4.6-4.1,7.4l-0.7,1.8c-0.2,0.5-0.3,0.8-0.5,1c-0.1,0.2-0.3,0.3-0.6,0.3s-0.5,0-0.8-0.1
		S18.9,24.3,18.7,24.1z"/>
	<path fill="#EACF1A" d="M33.2,23.4c-0.4-0.4-0.8-1-1-1.6c-0.3-0.6-0.4-1.4-0.4-2.3c0-0.9,0.1-1.8,0.3-2.7c0.2-0.9,0.5-1.8,1-2.6
		c0.4-0.8,0.9-1.6,1.5-2.4c0.6-0.7,1.2-1.4,1.9-1.9c1.5-1.2,3.1-1.8,4.8-1.8c2.2,0,3.6,1,4.4,2.8c0.5,1.4,0.6,3,0.1,5
		c-0.4,1.8-1.2,3.4-2.4,4.9c-1.2,1.5-2.5,2.6-4.1,3.2c-0.8,0.3-1.6,0.5-2.4,0.5c-0.8,0-1.5-0.1-2.1-0.3S33.7,23.8,33.2,23.4z
		 M36.2,15.8c-0.3,0.8-0.6,1.6-0.7,2.4s-0.3,1.6-0.3,2.3c0,0.7,0.1,1.3,0.3,1.7c0.2,0.4,0.6,0.6,1,0.6c0.5,0,1-0.2,1.4-0.5
		c0.5-0.3,0.9-0.8,1.4-1.3c0.4-0.5,0.9-1.2,1.2-1.9c0.4-0.7,0.7-1.5,1-2.2c0.6-1.7,0.9-3.2,0.9-4.5c0-1.2-0.2-1.9-0.7-2.2
		c-0.2-0.1-0.5-0.2-0.8-0.2c-0.3,0-0.7,0.2-1.2,0.5s-0.9,0.7-1.3,1.3s-0.9,1.1-1.3,1.8C36.9,14.3,36.5,15,36.2,15.8z"/>
	<path fill="#EACF1A" d="M51.2,23c0,0.2-0.2,1-0.7,2.5C50,27,49.7,28.2,49.4,29c-0.7,2-1.2,3.2-1.6,3.7c-0.3,0.4-0.8,0.6-1.3,0.6
		c-0.6,0-1.1-0.3-1.4-0.9C45,32.2,45,32.1,45,31.9s0.2-0.6,0.5-1.3c0.8-1.7,1.9-5.1,3.3-10.2c0.6-2,0.9-3.4,1.1-4.1l0.5-2
		c0.3-1.3,0.5-2.2,0.6-2.7c0.1-0.5,0-0.8-0.1-1c-0.1-0.2-0.2-0.3-0.4-0.4C50.3,10,50.2,9.9,50,9.9c-0.1-0.1-0.2-0.2-0.2-0.4
		s0.1-0.4,0.3-0.5c0.2-0.2,0.3-0.3,0.6-0.4c0.5-0.2,0.9-0.3,1.4-0.3s0.9,0.1,1.1,0.2c0.3,0.1,0.5,0.3,0.7,0.5
		c0.4,0.4,0.5,0.8,0.5,1.2c-0.1,0.8-0.2,1.5-0.3,2.1c1.8-2.6,3.7-3.9,5.7-3.9c1.8,0,3,0.9,3.6,2.8c0.2,0.7,0.3,1.4,0.3,2.4
		s-0.1,1.9-0.4,2.8c-0.3,0.9-0.7,1.8-1.1,2.7c-0.5,0.8-1,1.6-1.7,2.3c-0.6,0.7-1.3,1.3-2,1.9c-1.5,1.1-2.9,1.6-4.3,1.6
		S51.8,24.1,51.2,23z M53.6,16.3c-0.4,0.7-0.7,1.5-0.9,2.2c-0.2,0.7-0.4,1.4-0.4,2c0,0.6,0.1,1.1,0.4,1.5c0.3,0.4,0.7,0.6,1.2,0.6
		s1-0.1,1.5-0.4c0.5-0.3,1-0.7,1.5-1.1s0.9-1,1.3-1.7c0.4-0.6,0.8-1.3,1.1-2c0.7-1.6,1-3,1-4.4c0-0.8-0.1-1.3-0.3-1.8
		s-0.5-0.6-0.9-0.6s-0.8,0.2-1.3,0.5c-0.5,0.3-0.9,0.7-1.4,1.3s-1,1.1-1.5,1.8C54.4,14.8,54,15.5,53.6,16.3z"/>
	<path fill="#EACF1A" d="M68.9,23c0,0.2-0.2,1-0.7,2.5c-0.4,1.5-0.8,2.7-1.1,3.6c-0.7,2-1.2,3.2-1.6,3.7c-0.3,0.4-0.8,0.6-1.3,0.6
		c-0.6,0-1.1-0.3-1.4-0.9c-0.1-0.2-0.1-0.4-0.1-0.6s0.2-0.6,0.5-1.3c0.8-1.7,1.9-5.1,3.3-10.2c0.6-2,0.9-3.4,1.1-4.1l0.5-2
		c0.3-1.3,0.5-2.2,0.6-2.7c0.1-0.5,0-0.8-0.1-1c-0.1-0.2-0.2-0.3-0.4-0.4c-0.1-0.1-0.3-0.2-0.4-0.3c-0.1-0.1-0.2-0.2-0.2-0.4
		s0.1-0.4,0.3-0.5c0.2-0.2,0.3-0.3,0.6-0.4c0.5-0.2,0.9-0.3,1.4-0.3s0.9,0.1,1.1,0.2c0.3,0.1,0.5,0.3,0.7,0.5
		c0.4,0.4,0.5,0.8,0.5,1.2c-0.1,0.8-0.2,1.5-0.3,2.1c1.8-2.6,3.7-3.9,5.7-3.9c1.8,0,3,0.9,3.6,2.8c0.2,0.7,0.3,1.4,0.3,2.4
		s-0.1,1.9-0.4,2.8c-0.3,0.9-0.7,1.8-1.1,2.7c-0.5,0.8-1,1.6-1.7,2.3c-0.6,0.7-1.3,1.3-2,1.9c-1.5,1.1-2.9,1.6-4.3,1.6
		S69.6,24.1,68.9,23z M71.3,16.3c-0.4,0.7-0.7,1.5-0.9,2.2c-0.2,0.7-0.4,1.4-0.4,2c0,0.6,0.1,1.1,0.4,1.5c0.3,0.4,0.7,0.6,1.2,0.6
		s1-0.1,1.5-0.4c0.5-0.3,1-0.7,1.5-1.1s0.9-1,1.3-1.7c0.4-0.6,0.8-1.3,1.1-2c0.7-1.6,1-3,1-4.4c0-0.8-0.1-1.3-0.3-1.8
		s-0.5-0.6-0.9-0.6S76,10.7,75.5,11c-0.5,0.3-0.9,0.7-1.4,1.3s-1,1.1-1.5,1.8C72.2,14.8,71.7,15.5,71.3,16.3z"/>
	<path fill="#EACF1A" d="M84,19c0-0.9,0.2-1.8,0.5-2.6c0.3-0.8,0.6-1.6,1.1-2.4c0.4-0.8,1-1.5,1.6-2.2s1.2-1.3,1.9-1.8
		c1.5-1.1,3-1.7,4.5-1.7c1.8,0,3,0.7,3.6,2.2c0.2,0.5,0.3,1.1,0.3,1.8c0,0.7-0.1,1.3-0.4,1.9s-0.6,1.1-1,1.6c-0.4,0.5-1,0.9-1.6,1.3
		c-0.6,0.4-1.3,0.7-2,1c-1.5,0.5-3.1,0.8-4.8,0.8c0,0.1-0.1,0.4-0.1,0.7s0,0.6,0.1,1c0.1,0.4,0.2,0.7,0.4,1c0.4,0.6,0.9,0.9,1.6,0.9
		c1.2,0,2.4-0.4,3.6-1.1c0.4-0.2,0.7-0.5,1-0.7c0.3-0.3,0.5-0.4,0.7-0.4s0.4,0.1,0.5,0.3s0.2,0.5,0.2,0.8c0,0.6-0.2,1-0.5,1.4
		c-1.3,1.3-3.3,2-5.9,2c-1.5,0-2.8-0.5-3.7-1.4C84.4,22.2,83.9,20.8,84,19z M93.2,10.3c-1.1,0-2.2,0.8-3.2,2.3
		c-0.9,1.3-1.6,2.8-2.1,4.6c1.8-0.2,3.3-0.9,4.6-2.1c1.2-1.1,1.8-2.2,1.8-3.3S93.9,10.3,93.2,10.3z"/>
	<path fill="#EACF1A" d="M99.1,24.1c-0.2-0.2-0.4-0.3-0.5-0.5c-0.1-0.2-0.2-0.4-0.2-0.5c0-0.1,0-0.3,0.1-0.5
		c0.1-0.2,0.2-0.5,0.3-0.7c2.1-5.3,3.2-8.8,3.2-10.6c0-0.5-0.2-0.9-0.5-1.1l-0.3-0.2c-0.1-0.1-0.1-0.2-0.1-0.4
		c0-0.2,0.1-0.4,0.2-0.5c0.1-0.2,0.3-0.3,0.5-0.4c0.5-0.2,0.9-0.4,1.4-0.4s0.9,0.1,1.1,0.2s0.5,0.2,0.7,0.4c0.4,0.4,0.6,0.8,0.6,1.2
		c0,0.4,0,0.8-0.1,1.3c-0.1,0.4-0.2,0.9-0.4,1.3s-0.3,0.8-0.4,1.2c-0.1,0.4-0.2,0.6-0.3,0.8c-0.1,0.4-0.1,0.6-0.1,0.7
		c0.3-0.2,0.4-0.4,0.5-0.6l0.6-1.2c1.4-2.5,2.7-4.1,4-4.9c0.4-0.2,0.8-0.3,1.4-0.3s1,0.2,1.3,0.6c0.3,0.4,0.5,0.8,0.5,1.2
		c0,0.5,0,0.8-0.1,1.1c-0.1,0.3-0.2,0.6-0.4,0.8c-0.3,0.6-0.8,0.9-1.3,0.9c-0.1,0-0.3,0-0.4-0.1l-0.3-0.3c-0.3-0.3-0.7-0.5-1-0.5
		s-0.7,0.2-1.2,0.6s-0.9,1-1.4,1.6c-1.7,2.2-3,4.6-4.1,7.4l-0.7,1.8c-0.2,0.5-0.3,0.8-0.5,1c-0.1,0.2-0.3,0.3-0.6,0.3
		s-0.5,0-0.8-0.1S99.3,24.3,99.1,24.1z"/>
</g>
<g>
	<path fill="#684B2A" d="M22.3,63.4c0-0.8,0.2-2,0.7-3.5c-1.4,0-2.4,0.1-3.2,0.1c-0.2,0.4-0.4,0.8-0.6,1.2l-0.5,1.1
		c-0.7,1.4-1.3,2.3-1.9,2.7c-0.4,0.3-0.9,0.5-1.4,0.5c-0.4,0-0.6-0.1-0.8-0.4c-0.1-0.1-0.1-0.2-0.1-0.3c0-0.1,0-0.1,0.1-0.2
		c0.7-0.2,1.2-0.6,1.6-1.1c0.4-0.5,0.7-1,1.1-1.7l1-1.7l-0.5,0.1c-0.3,0.1-0.5,0-0.5-0.2s0.1-0.3,0.3-0.5c0.4-0.3,0.7-0.4,1.1-0.5
		l0.4-0.1c0.9-1.5,1.7-2.6,2.1-3.2c0.5-0.6,0.9-1.1,1.4-1.5c0.4-0.4,0.8-0.8,1.3-1.1c1-0.7,2-1,2.9-1c0.3,0,0.5,0.1,0.6,0.2
		c0.2,0.2,0.2,0.4,0.2,0.6s-0.2,0.5-0.3,0.9c-0.9,2.5-1.5,4-1.7,4.6c0.1,0,0.2,0,0.2,0h0.2c0.6,0,1,0.1,1,0.2c0,0,0,0.1,0,0.2
		c0,0.1,0,0.2-0.1,0.4c-0.1,0.1-0.2,0.3-0.3,0.4c-0.3,0.2-0.8,0.3-1.5,0.4c-0.4,1.3-0.6,2.3-0.7,2.8c-0.1,0.5,0,0.9,0.1,1
		c0.1,0.2,0.2,0.3,0.4,0.3c0.2,0,0.3,0,0.4,0c0.1,0,0.2-0.1,0.3-0.1l0.2-0.1c0.1,0,0.1-0.1,0.2-0.1s0.1,0,0.1,0.1s0.1,0.2,0.1,0.3
		c0,0.1-0.1,0.3-0.2,0.5s-0.2,0.3-0.4,0.5c-0.4,0.3-0.9,0.5-1.4,0.5c-0.8,0-1.3-0.3-1.5-1c-0.1-0.2-0.1-0.5-0.1-0.6V63.4z
		 M20.6,58.6c1-0.1,2-0.2,2.8-0.2c0.2-0.5,0.3-1,0.5-1.5l0.5-1.4c0.2-0.4,0.4-0.8,0.5-1.2l0.5-1.1c-1.2,0.3-2.4,1.3-3.5,3.1
		c-0.2,0.4-0.5,0.7-0.7,1.1L20.6,58.6z"/>
	<path fill="#684B2A" d="M27.4,65.2c-0.1-0.1-0.2-0.2-0.3-0.3C27,64.8,27,64.7,27,64.6s0-0.2,0-0.3c0-0.1,0.1-0.2,0.1-0.4
		c1.2-2.9,1.7-4.8,1.7-5.8c0-0.3-0.1-0.5-0.3-0.6l-0.2-0.1c-0.1,0-0.1-0.1-0.1-0.2s0-0.2,0.1-0.3s0.2-0.2,0.3-0.2
		c0.2-0.1,0.5-0.2,0.8-0.2c0.3,0,0.5,0,0.6,0.1c0.1,0.1,0.3,0.1,0.4,0.2c0.2,0.2,0.3,0.4,0.3,0.7s0,0.5-0.1,0.7s-0.1,0.5-0.2,0.7
		c-0.1,0.2-0.1,0.4-0.2,0.6c-0.1,0.2-0.1,0.4-0.1,0.5c0,0.2-0.1,0.3-0.1,0.4c0.1-0.1,0.2-0.2,0.2-0.4l0.3-0.6
		c0.7-1.3,1.5-2.2,2.2-2.7c0.2-0.1,0.5-0.2,0.7-0.2s0.5,0.1,0.7,0.3c0.2,0.2,0.3,0.4,0.3,0.7c0,0.2,0,0.4-0.1,0.6
		c0,0.2-0.1,0.3-0.2,0.5C34.2,58.9,34,59,33.7,59c-0.1,0-0.1,0-0.2-0.1l-0.2-0.2c-0.2-0.2-0.4-0.2-0.5-0.2s-0.4,0.1-0.6,0.3
		s-0.5,0.5-0.8,0.9c-0.9,1.2-1.6,2.5-2.2,4l-0.4,1c-0.1,0.2-0.2,0.4-0.3,0.5c-0.1,0.1-0.2,0.2-0.3,0.2c-0.1,0-0.3,0-0.4-0.1
		S27.5,65.2,27.4,65.2z"/>
	<path fill="#684B2A" d="M34.6,62.4c0-0.5,0.1-1,0.2-1.4c0.1-0.5,0.3-0.9,0.6-1.3c0.2-0.4,0.5-0.8,0.8-1.2s0.7-0.7,1.1-1
		c0.8-0.6,1.6-0.9,2.5-0.9c1,0,1.6,0.4,2,1.2c0.1,0.3,0.2,0.6,0.2,1c0,0.4-0.1,0.7-0.2,1c-0.1,0.3-0.3,0.6-0.6,0.9
		c-0.2,0.3-0.5,0.5-0.9,0.7c-0.3,0.2-0.7,0.4-1.1,0.5c-0.8,0.3-1.7,0.4-2.6,0.4c0,0.1,0,0.2,0,0.4c0,0.2,0,0.3,0.1,0.5
		c0,0.2,0.1,0.4,0.2,0.5c0.2,0.3,0.5,0.5,0.9,0.5c0.7,0,1.3-0.2,1.9-0.6c0.2-0.1,0.4-0.3,0.5-0.4c0.1-0.1,0.3-0.2,0.4-0.2
		c0.1,0,0.2,0.1,0.3,0.2c0.1,0.1,0.1,0.3,0.1,0.4c0,0.3-0.1,0.6-0.3,0.8c-0.7,0.7-1.8,1.1-3.2,1.1c-0.8,0-1.5-0.3-2-0.8
		C34.8,64.1,34.5,63.4,34.6,62.4z M39.6,57.6c-0.6,0-1.2,0.4-1.7,1.2c-0.5,0.7-0.8,1.5-1.1,2.5c1-0.1,1.8-0.5,2.5-1.1
		c0.6-0.6,1-1.2,1-1.8C40.2,57.9,40,57.6,39.6,57.6z"/>
	<path fill="#684B2A" d="M49.4,63.1c0,0.5,0.2,0.8,0.6,0.8c0.3,0,0.5,0,0.6-0.1c0.2-0.1,0.3-0.1,0.3-0.1c0.1,0,0.2,0.1,0.2,0.2
		c0,0.5-0.3,0.9-0.8,1.3c-0.5,0.4-1.1,0.5-1.7,0.3c-0.4-0.1-0.6-0.4-0.8-0.8c-0.1-0.2-0.1-0.4-0.1-0.6c0-0.3,0-0.6,0.1-0.9
		c-0.5,1.1-1.2,1.8-2,2.2c-0.3,0.2-0.6,0.2-1,0.2c-0.4,0-0.7-0.1-0.9-0.2c-0.3-0.1-0.5-0.3-0.7-0.6c-0.4-0.5-0.5-1.2-0.5-2
		c0-1,0.3-2,0.9-3c0.5-0.9,1.2-1.7,2-2.2c0.8-0.6,1.5-0.9,2.2-0.9c0.7,0,1.2,0.3,1.7,1c0.4-0.6,0.7-1,1-1c0.3,0,0.6,0.1,0.7,0.2
		c0.3,0.2,0.4,0.4,0.3,0.6c-1.4,2.9-2.2,4.8-2.2,5.5C49.4,62.9,49.4,63,49.4,63.1z M44.6,63.1c0,0.7,0.2,1,0.7,1
		c0.3,0,0.8-0.3,1.2-0.9c0.7-0.8,1.4-2,1.9-3.4c0.2-0.4,0.3-0.9,0.4-1.3c0-0.4-0.2-0.7-0.5-0.9c-0.1-0.1-0.3-0.1-0.5-0.1
		c-0.2,0-0.4,0.1-0.7,0.2s-0.5,0.4-0.8,0.6c-0.3,0.3-0.5,0.6-0.7,0.9c-0.2,0.4-0.4,0.7-0.6,1.1C44.8,61.4,44.6,62.3,44.6,63.1z"/>
</g>
<g>
	<path fill="#7479B2" d="M228.9,75.8c-0.1-0.3-0.2-0.7-0.2-1.2c0-0.5,0.1-1,0.2-1.6c0.1-0.6,0.3-1.3,0.5-2.1
		c0.6-1.7,1.3-3.2,2.3-4.5c0.2-0.2,0.3-0.3,0.5-0.3c0.2,0,0.4,0,0.5,0.1s0.3,0.2,0.5,0.3c0.3,0.3,0.4,0.5,0.3,0.7
		c-0.8,1.3-1.5,2.5-2,3.5c1.3-0.1,2.4-0.5,3.4-1.2c1.1-0.8,1.6-1.8,1.6-2.9c0-0.8-0.4-1.3-1.1-1.5c-0.2-0.1-0.5-0.1-0.8-0.1
		s-0.7,0-1,0.1c-0.3,0.1-0.7,0.2-1,0.3c-0.6,0.2-1.2,0.5-1.7,0.9c-0.1,0.1-0.3,0.2-0.4,0.2c-0.1,0-0.3,0-0.4-0.1
		c-0.1-0.1-0.3-0.1-0.4-0.2c-0.4-0.4-0.4-0.8,0.2-1.2c0.8-0.6,2.1-1,3.7-1.1c0.3,0,0.7,0,1.2,0s1,0.1,1.6,0.2c0.5,0.2,1,0.4,1.3,0.7
		c0.6,0.5,0.9,1.3,0.9,2.2c0,0.8-0.3,1.7-1,2.5c-0.6,0.8-1.4,1.4-2.4,1.9c0.5,0.2,0.8,0.5,1,0.9c0.2,0.4,0.3,0.8,0.3,1.2
		c0,0.4-0.1,0.8-0.3,1.2c-0.2,0.4-0.4,0.7-0.6,1c-0.3,0.3-0.6,0.5-0.9,0.8c-0.4,0.2-0.7,0.4-1.1,0.5c-0.8,0.3-1.6,0.4-2.4,0.4
		C229.9,77.1,229.2,76.7,228.9,75.8z M230.9,72.1c-0.4,1.1-0.7,2-0.7,2.8c0,0.4,0.1,0.7,0.3,0.9c0.2,0.2,0.5,0.3,0.8,0.3
		c0.4,0,0.7-0.1,1.1-0.2s0.7-0.4,1-0.6c0.7-0.6,1.1-1.3,1.1-2.1c0-0.7-0.3-1.2-0.9-1.4c-0.2-0.1-0.4-0.1-0.6-0.1
		c-0.3,0-0.6,0.1-1.1,0.2C231.4,71.9,231.1,72,230.9,72.1z"/>
	<path fill="#7479B2" d="M244.8,74.8c0,0.5,0.2,0.8,0.6,0.8c0.3,0,0.5,0,0.6-0.1c0.2-0.1,0.3-0.1,0.3-0.1c0.1,0,0.2,0.1,0.2,0.2
		c0,0.5-0.3,0.9-0.8,1.3c-0.5,0.4-1.1,0.5-1.7,0.3c-0.4-0.1-0.6-0.4-0.8-0.8c-0.1-0.2-0.1-0.4-0.1-0.6c0-0.3,0-0.6,0.1-0.9
		c-0.5,1.1-1.2,1.8-2,2.2c-0.3,0.2-0.6,0.2-1,0.2c-0.4,0-0.7-0.1-0.9-0.2c-0.3-0.1-0.5-0.3-0.7-0.6c-0.4-0.5-0.5-1.2-0.5-2
		c0-1,0.3-2,0.9-3c0.5-0.9,1.2-1.7,2-2.2c0.8-0.6,1.5-0.9,2.2-0.9c0.7,0,1.2,0.3,1.7,1c0.4-0.6,0.7-1,1-1c0.3,0,0.6,0.1,0.7,0.2
		c0.3,0.2,0.4,0.4,0.3,0.6c-1.4,2.9-2.2,4.8-2.2,5.5C244.8,74.6,244.8,74.7,244.8,74.8z M240,74.8c0,0.7,0.2,1,0.7,1
		c0.3,0,0.8-0.3,1.2-0.9c0.7-0.8,1.4-2,1.9-3.4c0.2-0.4,0.3-0.9,0.4-1.3c0-0.4-0.2-0.7-0.5-0.9c-0.1-0.1-0.3-0.1-0.5-0.1
		c-0.2,0-0.4,0.1-0.7,0.2s-0.5,0.4-0.8,0.6c-0.3,0.3-0.5,0.6-0.7,0.9c-0.2,0.4-0.4,0.7-0.6,1.1C240.2,73.1,240,73.9,240,74.8z"/>
	<path fill="#7479B2" d="M247.7,74.1c0-0.5,0.1-1,0.2-1.5c0.1-0.5,0.3-1,0.6-1.4c0.2-0.4,0.5-0.8,0.9-1.2c0.3-0.4,0.7-0.7,1.1-1
		c0.8-0.6,1.7-0.8,2.6-0.8c0.9,0,1.6,0.4,1.9,1.1c0.1,0.3,0.2,0.6,0.2,0.9s-0.1,0.7-0.2,0.9c-0.1,0.3-0.2,0.5-0.4,0.8
		c-0.3,0.5-0.7,0.8-1.1,0.8c-0.4,0-0.7-0.1-0.9-0.3c-0.2-0.2-0.2-0.4-0.2-0.7c0-0.1,0.1-0.1,0.2-0.2c0.1-0.1,0.2-0.2,0.3-0.3
		c0.4-0.4,0.6-0.8,0.6-1.4c0-0.4-0.2-0.5-0.7-0.5c-0.5,0-1,0.3-1.5,0.8c-0.8,0.8-1.3,1.8-1.6,3c-0.3,1.1-0.2,1.8,0.2,2.3
		c0.2,0.3,0.5,0.4,0.9,0.4c0.6,0,1.3-0.2,1.9-0.7c0.2-0.1,0.3-0.3,0.4-0.4c0.1-0.1,0.2-0.2,0.3-0.2s0.2,0,0.2,0.1
		c0.1,0.1,0.1,0.2,0.1,0.4c0,0.3-0.2,0.7-0.5,1c-0.8,0.7-1.7,1.1-2.8,1.1c-0.9,0-1.7-0.3-2.2-0.8C247.9,75.8,247.6,75.1,247.7,74.1z
		"/>
	<path fill="#7479B2" d="M261.5,77.1c-1.3,0-2.3-1.2-3.1-3.7c-0.3,0.6-0.6,1.1-0.8,1.5l-0.5,1.2c-0.1,0.3-0.3,0.6-0.4,0.7
		c-0.1,0.2-0.3,0.3-0.4,0.3c-0.2,0-0.3,0-0.4-0.1s-0.2-0.1-0.3-0.2c-0.2-0.2-0.3-0.4-0.3-0.6c0-0.1,0.1-0.3,0.2-0.5l0.3-0.7
		c1.1-2.2,2-5,2.9-8.4c0.3-1.2,0.6-2.4,0.7-3.4c0.1-0.5,0.3-0.7,0.7-0.7c0.2,0,0.4,0.1,0.6,0.2c0.3,0.2,0.5,0.5,0.4,0.8
		c0,0.3-0.1,0.6-0.1,1c-0.1,0.4-0.2,0.7-0.3,1.2s-0.2,0.9-0.4,1.3c-0.4,1.2-0.6,2-0.8,2.6l-0.8,2.2c-0.1,0.3-0.2,0.5-0.2,0.6
		c1.3-0.5,2.3-1.1,3-1.8c0.4-0.4,0.6-0.8,0.6-1.1c0-0.2-0.1-0.3-0.2-0.4s-0.2-0.1-0.2-0.2c0,0,0-0.1,0-0.2c0-0.1,0.1-0.2,0.3-0.3
		c0.2-0.1,0.4-0.2,0.6-0.2s0.5,0,0.6,0.1s0.3,0.1,0.4,0.2c0.3,0.2,0.4,0.5,0.4,0.8s-0.1,0.7-0.2,1c-0.2,0.3-0.4,0.6-0.7,0.9
		c-0.6,0.5-1.7,1.1-3.1,1.6c0.2,0.8,0.5,1.4,1,2c0.5,0.5,0.9,0.8,1.2,0.8c0.2,0,0.4,0,0.5-0.1l0.3-0.2c0.1,0,0.1-0.1,0.2-0.1
		c0.1,0,0.2,0.1,0.2,0.3c0,0.1,0,0.3-0.1,0.4c-0.1,0.1-0.1,0.2-0.2,0.4s-0.2,0.2-0.4,0.4C262.5,77,262,77.1,261.5,77.1z"/>
	<path fill="#7479B2" d="M269.6,75.2c-0.9,1.3-1.8,2-2.9,2c-1,0-1.6-0.5-1.9-1.5c-0.1-0.3-0.2-0.8-0.2-1.3c0-0.5,0.1-1,0.2-1.5
		c0.1-0.5,0.3-1,0.6-1.5c0.3-0.5,0.5-0.9,0.9-1.3c0.3-0.4,0.7-0.7,1.1-1c0.8-0.6,1.6-0.9,2.4-0.9c0.8,0,1.4,0.4,1.7,1.1
		c0.1-0.1,0.1-0.1,0.2-0.2s0.1-0.1,0.2-0.2c0.1-0.1,0.3-0.2,0.4-0.2s0.2,0,0.4,0.1c0.1,0,0.2,0.1,0.4,0.2c0.3,0.2,0.4,0.3,0.3,0.5
		c-0.3,0.7-0.6,1.3-0.8,2l-1.3,4c-1,3.1-2.3,5.1-3.8,5.9c-0.4,0.2-0.8,0.4-1.1,0.4c-0.3,0-0.5,0-0.6,0c-0.1,0-0.2-0.1-0.4-0.1
		c-0.2-0.1-0.3-0.3-0.3-0.4c0-0.2,0.1-0.3,0.4-0.4c0.3,0,0.5-0.2,0.8-0.3s0.6-0.4,0.8-0.6C268.3,78.9,269.1,77.3,269.6,75.2z
		 M267.1,72.2c-0.2,0.4-0.3,0.8-0.4,1.3s-0.1,0.8-0.1,1.1s0,0.5,0,0.6c0,0.1,0.1,0.3,0.1,0.4c0.1,0.2,0.3,0.4,0.5,0.4
		c0.2,0,0.4-0.1,0.7-0.2c0.2-0.2,0.4-0.4,0.7-0.6c0.2-0.3,0.5-0.6,0.7-1c0.2-0.4,0.5-0.8,0.7-1.2c0.5-0.9,0.8-1.9,1-2.7
		c0-0.2-0.1-0.3-0.3-0.5c-0.3-0.3-0.6-0.5-0.9-0.5c-0.3,0-0.5,0.1-0.8,0.2c-0.3,0.2-0.5,0.4-0.8,0.7c-0.2,0.3-0.5,0.6-0.7,1
		C267.4,71.4,267.2,71.8,267.1,72.2z"/>
	<path fill="#7479B2" d="M273.9,76.9c-0.1-0.1-0.2-0.2-0.3-0.3c-0.1-0.1-0.1-0.2-0.1-0.3s0-0.2,0-0.3c0-0.1,0.1-0.2,0.1-0.4
		c1.2-2.9,1.7-4.8,1.7-5.8c0-0.3-0.1-0.5-0.3-0.6l-0.2-0.1c-0.1,0-0.1-0.1-0.1-0.2s0-0.2,0.1-0.3s0.2-0.2,0.3-0.2
		c0.2-0.1,0.5-0.2,0.8-0.2c0.3,0,0.5,0,0.6,0.1c0.1,0.1,0.3,0.1,0.4,0.2c0.2,0.2,0.3,0.4,0.3,0.7s0,0.5-0.1,0.7s-0.1,0.5-0.2,0.7
		c-0.1,0.2-0.1,0.4-0.2,0.6c-0.1,0.2-0.1,0.4-0.1,0.5c0,0.2-0.1,0.3-0.1,0.4c0.1-0.1,0.2-0.2,0.2-0.4l0.3-0.6
		c0.7-1.3,1.5-2.2,2.2-2.7c0.2-0.1,0.5-0.2,0.7-0.2s0.5,0.1,0.7,0.3c0.2,0.2,0.3,0.4,0.3,0.7c0,0.2,0,0.4-0.1,0.6
		c0,0.2-0.1,0.3-0.2,0.5c-0.2,0.3-0.4,0.5-0.7,0.5c-0.1,0-0.1,0-0.2-0.1l-0.2-0.2c-0.2-0.2-0.4-0.2-0.5-0.2s-0.4,0.1-0.6,0.3
		s-0.5,0.5-0.8,0.9c-0.9,1.2-1.6,2.5-2.2,4l-0.4,1c-0.1,0.2-0.2,0.4-0.3,0.5c-0.1,0.1-0.2,0.2-0.3,0.2c-0.1,0-0.3,0-0.4-0.1
		S274,76.9,273.9,76.9z"/>
	<path fill="#7479B2" d="M281.8,76.5c-0.2-0.2-0.4-0.5-0.6-0.9c-0.1-0.4-0.2-0.8-0.2-1.2s0.1-1,0.2-1.5c0.1-0.5,0.3-1,0.5-1.4
		c0.2-0.5,0.5-0.9,0.8-1.3c0.3-0.4,0.7-0.7,1-1c0.8-0.6,1.7-1,2.6-1c1.2,0,2,0.5,2.4,1.6c0.3,0.7,0.3,1.7,0.1,2.7
		c-0.2,1-0.7,1.9-1.3,2.7c-0.6,0.8-1.4,1.4-2.2,1.7c-0.4,0.2-0.9,0.3-1.3,0.3s-0.8-0.1-1.1-0.2S282,76.7,281.8,76.5z M283.4,72.3
		c-0.2,0.4-0.3,0.9-0.4,1.3c-0.1,0.4-0.1,0.9-0.1,1.3c0,0.4,0.1,0.7,0.2,0.9c0.1,0.2,0.3,0.3,0.6,0.3s0.5-0.1,0.8-0.3
		c0.3-0.2,0.5-0.4,0.7-0.7c0.2-0.3,0.5-0.6,0.7-1s0.4-0.8,0.6-1.2c0.3-0.9,0.5-1.7,0.5-2.5c0-0.6-0.1-1-0.4-1.2
		c-0.1-0.1-0.2-0.1-0.4-0.1c-0.2,0-0.4,0.1-0.6,0.3c-0.2,0.2-0.5,0.4-0.7,0.7c-0.2,0.3-0.5,0.6-0.7,1S283.6,71.9,283.4,72.3z"/>
	<path fill="#7479B2" d="M298,75.4c0.1,0,0.2,0.1,0.2,0.2c0,0.5-0.2,0.9-0.7,1.3c-0.3,0.2-0.7,0.3-1.2,0.3c-0.4,0-0.6-0.1-0.8-0.3
		c-0.3-0.3-0.5-0.7-0.5-1.1c0-0.6,0.2-1.4,0.7-2.6c-0.9,1.2-1.5,2-1.9,2.4c-0.4,0.4-0.7,0.7-0.9,0.9c-0.6,0.5-1.1,0.7-1.6,0.7
		c-0.7,0-1.2-0.3-1.4-0.9c-0.1-0.2-0.1-0.4-0.1-0.6c0-0.2,0-0.5,0.1-0.8s0.2-0.6,0.3-0.9c0.1-0.3,0.3-0.7,0.4-1l0.5-1
		c0.6-1.3,0.8-2.1,0.7-2.3c-0.1-0.1-0.2-0.2-0.4-0.3c-0.1,0-0.1-0.1-0.1-0.2s0-0.2,0.1-0.3c0.1-0.1,0.2-0.2,0.3-0.2
		c0.3-0.1,0.6-0.2,0.8-0.2c0.3,0,0.5,0,0.6,0.1c0.1,0.1,0.3,0.1,0.4,0.2c0.2,0.2,0.3,0.4,0.3,0.6c0,0.2,0,0.5-0.1,0.8
		c-0.1,0.3-0.2,0.6-0.3,0.9s-0.3,0.7-0.4,1c-0.4,0.9-0.7,1.5-0.8,1.8l-0.3,0.7c-0.2,0.4-0.3,0.7-0.3,0.8s0,0.3,0.1,0.3
		c0.1,0.1,0.1,0.1,0.3,0.1s0.3-0.1,0.5-0.2c0.2-0.1,0.4-0.3,0.6-0.5s0.4-0.5,0.7-0.7c0.2-0.3,0.5-0.6,0.7-0.9
		c0.4-0.6,0.7-1.1,0.9-1.4c1.2-2.1,1.9-3.3,1.9-3.4c0.2-0.2,0.4-0.4,0.6-0.4s0.4,0,0.5,0.1c0.1,0,0.3,0.1,0.4,0.2
		c0.2,0.2,0.3,0.4,0.2,0.5c-1.4,2.9-2.1,4.7-2.3,5.5c0,0.3,0,0.4,0,0.5c0,0.4,0.1,0.7,0.4,0.7c0.2,0,0.4,0,0.6-0.1
		C297.9,75.4,298,75.4,298,75.4z"/>
	<path fill="#7479B2" d="M305.9,69.8c-0.2,0-0.4,0.2-0.8,0.5s-0.6,0.6-0.8,0.9l-0.7,0.9l-1.4,1.8c-0.3,0.6-0.6,1.2-0.8,1.6l-0.5,1
		c-0.1,0.2-0.2,0.4-0.3,0.5c-0.1,0.1-0.2,0.2-0.4,0.2c-0.2,0-0.3,0-0.4-0.1s-0.3-0.1-0.4-0.2c-0.2-0.2-0.3-0.4-0.3-0.6
		c0-0.1,0.1-0.3,0.2-0.5l0.3-0.7c0.1-0.2,0.2-0.5,0.4-0.8l0.5-1.2c0.7-1.7,1-2.8,1-3.3c0-0.3-0.1-0.5-0.3-0.6l-0.2-0.1
		c-0.1,0-0.1-0.1-0.1-0.2s0-0.2,0.1-0.3s0.2-0.2,0.3-0.2c0.3-0.1,0.5-0.2,0.8-0.2c0.3,0,0.5,0,0.6,0.1c0.1,0.1,0.3,0.1,0.4,0.2
		c0.2,0.2,0.3,0.4,0.3,0.6c0,0.2,0,0.4-0.1,0.7c-0.1,0.2-0.1,0.4-0.2,0.7c-0.1,0.2-0.2,0.4-0.3,0.7c-0.1,0.2-0.2,0.4-0.2,0.6
		l-0.2,0.4c0,0.1-0.1,0.1,0,0.1c0.6-0.9,1.1-1.4,1.3-1.7l0.6-0.7c0.4-0.5,0.8-0.9,1-1c0.5-0.3,0.9-0.5,1.2-0.5s0.5,0,0.7,0.1
		s0.4,0.2,0.5,0.3c0.3,0.3,0.5,0.7,0.5,1.1c0,0.5-0.1,0.9-0.3,1.4c-0.2,0.5-0.4,0.9-0.5,1.2s-0.3,0.6-0.4,0.9
		c-0.4,1-0.6,1.6-0.6,2.1c0,0.2,0.2,0.3,0.5,0.3c0.2,0,0.5-0.1,0.7-0.2c0.2-0.1,0.3-0.2,0.4-0.2c0.1,0,0.2,0.1,0.2,0.2
		c0,0.5-0.3,0.9-0.8,1.3c-0.3,0.2-0.7,0.4-1,0.4s-0.5,0-0.7-0.1c-0.2-0.1-0.4-0.2-0.5-0.3c-0.3-0.3-0.5-0.7-0.5-1.3
		c0-0.7,0.2-1.5,0.6-2.5c0.3-0.7,0.5-1.1,0.6-1.4l0.3-0.6c0.2-0.4,0.3-0.7,0.3-0.9S306.2,69.8,305.9,69.8z"/>
	<path fill="#7479B2" d="M318.2,75.3c0.1,0,0.2,0.1,0.2,0.2c0,0.5-0.3,0.9-0.8,1.3c-0.3,0.2-0.7,0.4-1,0.4c-0.3,0-0.5,0-0.7-0.1
		c-0.2-0.1-0.3-0.2-0.5-0.3c-0.3-0.3-0.5-0.8-0.5-1.4c0-0.1,0-0.3,0.1-0.6c-0.5,0.7-0.9,1.2-1.2,1.5c-0.7,0.6-1.3,0.9-2,0.9
		c-1,0-1.7-0.5-2-1.4c-0.1-0.3-0.2-0.8-0.2-1.3c0-0.5,0.1-1,0.2-1.5s0.4-1,0.6-1.5c0.3-0.5,0.6-0.9,0.9-1.3c0.4-0.4,0.7-0.8,1.1-1
		c0.8-0.6,1.6-0.9,2.3-0.9s1.2,0.3,1.6,0.8c1-3.4,1.7-5.4,2.2-6c0.2-0.3,0.4-0.4,0.7-0.4c0.4,0,0.7,0.1,0.9,0.3
		c0.1,0.1,0.1,0.1,0.1,0.2s0,0.2-0.1,0.4s-0.2,0.5-0.4,1c-0.5,1.3-0.9,2.3-1.1,2.9c-0.5,1.6-0.9,2.7-1.1,3.3l-0.5,1.6
		c-0.4,1.4-0.6,2.3-0.6,2.7s0.1,0.6,0.4,0.6c0.3,0,0.5,0,0.6-0.1l0.3-0.2C318,75.3,318.1,75.3,318.2,75.3z M312.3,75.9
		c0.6,0,1.3-0.6,2-1.7c0.8-1.2,1.3-2.5,1.7-3.9c0-0.4-0.2-0.7-0.5-0.9c-0.1-0.1-0.3-0.1-0.5-0.1c-0.2,0-0.5,0.1-0.7,0.2
		c-0.3,0.2-0.5,0.4-0.8,0.6s-0.5,0.6-0.7,0.9c-0.2,0.3-0.4,0.7-0.6,1.1c-0.4,0.8-0.5,1.7-0.5,2.5C311.6,75.4,311.8,75.9,312.3,75.9z
		"/>
</g>
<g>
	<path fill="#AF747C" d="M141.8,166.3c1-0.7,2-2.6,3-5.6c0.6-1.8,1-3.3,1.2-4.7c0.1-0.4,0.1-0.7,0.1-0.9c-0.2,0-0.5,0.1-0.7,0.2
		l-0.6,0.4c-0.2,0.1-0.4,0-0.7-0.2s-0.4-0.5-0.4-0.6s0.1-0.3,0.3-0.4s0.4-0.2,0.6-0.3c0.5-0.2,0.9-0.2,1.2-0.2c0.3,0,0.6,0,0.8,0.1
		c0.2,0,0.5,0.1,0.7,0.2c0.5,0.3,0.7,0.6,0.7,1.1c0,0.9-0.3,2.3-0.9,4.3c-0.9,3.2-2.1,5.5-3.3,6.8c-0.3,0.4-0.7,0.6-1.1,0.7
		c-0.1,0-0.2,0.1-0.3,0.1c-0.1,0-0.2,0-0.3-0.1c-0.1,0-0.2-0.1-0.2-0.1c-0.1-0.1-0.2-0.2-0.2-0.4S141.7,166.3,141.8,166.3z"/>
	<path fill="#AF747C" d="M154.7,159.8c-0.3,0-0.9,0.5-1.8,1.4c-0.7,0.7-1.1,1.3-1.4,1.7l-0.8,1c-0.3,0.6-0.6,1.2-0.8,1.6l-0.5,1
		c-0.1,0.2-0.2,0.4-0.3,0.5c-0.1,0.1-0.2,0.2-0.4,0.2c-0.2,0-0.3,0-0.4-0.1s-0.3-0.1-0.4-0.2c-0.2-0.2-0.3-0.4-0.3-0.6
		c0-0.1,0.1-0.3,0.2-0.5l0.3-0.7c0.1-0.2,0.2-0.5,0.4-0.8l0.5-1.2c0.7-1.7,1-2.8,1-3.3c0-0.3-0.1-0.5-0.3-0.6l-0.2-0.1
		c-0.1,0-0.1-0.1-0.1-0.2s0-0.2,0.1-0.3s0.2-0.2,0.3-0.2c0.3-0.1,0.5-0.2,0.8-0.2c0.3,0,0.5,0,0.6,0.1s0.3,0.1,0.4,0.2
		c0.2,0.2,0.3,0.4,0.3,0.6c0,0.2,0,0.4-0.1,0.7c-0.1,0.2-0.1,0.4-0.2,0.7c-0.1,0.2-0.2,0.4-0.3,0.7c-0.2,0.5-0.4,0.8-0.4,0.9
		s-0.1,0.2,0,0.1c1-1.4,1.7-2.2,1.9-2.4c0.4-0.5,0.8-0.9,1-1c0.5-0.3,0.9-0.5,1.3-0.5s0.7,0.1,1,0.4c0.2,0.3,0.4,0.6,0.4,1
		c0,0.4-0.1,0.8-0.3,1.3c-0.2,0.5-0.3,0.8-0.4,1l1.3-1.7l0.7-0.8c0.4-0.5,0.8-0.8,1.1-0.9c0.3-0.1,0.6-0.2,0.8-0.2
		c0.2,0,0.4,0,0.6,0.1s0.4,0.2,0.5,0.3c0.3,0.3,0.4,0.7,0.4,1.1c0,0.4-0.1,0.9-0.3,1.4c-0.2,0.5-0.4,0.9-0.5,1.2
		c-0.2,0.3-0.3,0.6-0.4,0.9c-0.4,0.9-0.6,1.6-0.6,2c0,0.3,0.1,0.5,0.4,0.5c0.2,0,0.5-0.1,0.7-0.2c0.2-0.1,0.3-0.2,0.4-0.2
		c0.1,0,0.2,0.1,0.2,0.2c0,0.5-0.3,0.9-0.8,1.3c-0.3,0.2-0.7,0.4-1,0.4s-0.5,0-0.7-0.1c-0.2-0.1-0.3-0.2-0.5-0.3
		c-0.3-0.3-0.5-0.7-0.5-1.2s0.1-1,0.2-1.4c0.1-0.4,0.3-0.8,0.4-1.2c0.2-0.4,0.3-0.8,0.5-1.1c0.2-0.3,0.3-0.6,0.4-0.8
		c0.2-0.4,0.3-0.7,0.3-0.9c0-0.2-0.1-0.3-0.4-0.3c-0.3,0-0.9,0.5-1.7,1.5c-0.6,0.8-1,1.4-1.3,1.7l-0.6,0.9c-0.3,0.6-0.6,1.2-0.8,1.6
		l-0.4,1c-0.1,0.2-0.2,0.4-0.3,0.5c-0.1,0.1-0.2,0.2-0.3,0.2c-0.1,0-0.3,0-0.4-0.1c-0.1,0-0.3-0.1-0.3-0.2c-0.2-0.2-0.3-0.3-0.3-0.5
		s0.1-0.4,0.2-0.8c0.1-0.3,0.3-0.7,0.5-1.1l1.2-2.5c0.4-0.9,0.6-1.5,0.6-1.8C155.1,159.9,155,159.8,154.7,159.8z M155.6,162.2
		C155.6,162.2,155.6,162.2,155.6,162.2L155.6,162.2C155.6,162.2,155.6,162.2,155.6,162.2z"/>
	<path fill="#AF747C" d="M169.2,164.8c0,0.5,0.2,0.8,0.6,0.8c0.3,0,0.5,0,0.6-0.1c0.2-0.1,0.3-0.1,0.3-0.1c0.1,0,0.2,0.1,0.2,0.2
		c0,0.5-0.3,0.9-0.8,1.3c-0.5,0.4-1.1,0.5-1.7,0.3c-0.4-0.1-0.6-0.4-0.8-0.8c-0.1-0.2-0.1-0.4-0.1-0.6c0-0.3,0-0.6,0.1-0.9
		c-0.5,1.1-1.2,1.8-2,2.2c-0.3,0.2-0.6,0.2-1,0.2c-0.4,0-0.7-0.1-0.9-0.2c-0.3-0.1-0.5-0.3-0.7-0.6c-0.4-0.5-0.5-1.2-0.5-2
		c0-1,0.3-2,0.9-3c0.5-0.9,1.2-1.7,2-2.2c0.8-0.6,1.5-0.9,2.2-0.9c0.7,0,1.2,0.3,1.7,1c0.4-0.6,0.7-1,1-1c0.3,0,0.6,0.1,0.7,0.2
		c0.3,0.2,0.4,0.4,0.3,0.6c-1.4,2.9-2.2,4.8-2.2,5.5C169.2,164.6,169.2,164.7,169.2,164.8z M164.4,164.8c0,0.7,0.2,1,0.7,1
		c0.3,0,0.8-0.3,1.2-0.9c0.7-0.8,1.4-2,1.9-3.4c0.2-0.4,0.3-0.9,0.4-1.3c0-0.4-0.2-0.7-0.5-0.9c-0.1-0.1-0.3-0.1-0.5-0.1
		c-0.2,0-0.4,0.1-0.7,0.2s-0.5,0.4-0.8,0.6c-0.3,0.3-0.5,0.6-0.7,0.9c-0.2,0.4-0.4,0.7-0.6,1.1C164.6,163.1,164.4,163.9,164.4,164.8
		z"/>
	<path fill="#AF747C" d="M177.1,165.2c-0.9,1.3-1.8,2-2.9,2c-1,0-1.6-0.5-1.9-1.5c-0.1-0.3-0.2-0.8-0.2-1.3c0-0.5,0.1-1,0.2-1.5
		c0.1-0.5,0.3-1,0.6-1.5c0.3-0.5,0.5-0.9,0.9-1.3c0.3-0.4,0.7-0.7,1.1-1c0.8-0.6,1.6-0.9,2.4-0.9c0.8,0,1.4,0.4,1.7,1.1
		c0.1-0.1,0.1-0.1,0.2-0.2s0.1-0.1,0.2-0.2c0.1-0.1,0.3-0.2,0.4-0.2s0.2,0,0.4,0.1c0.1,0,0.2,0.1,0.4,0.2c0.3,0.2,0.4,0.3,0.3,0.5
		c-0.3,0.7-0.6,1.3-0.8,2l-1.3,4c-1,3.1-2.3,5.1-3.8,5.9c-0.4,0.2-0.8,0.4-1.1,0.4c-0.3,0-0.5,0-0.6,0c-0.1,0-0.2-0.1-0.4-0.1
		c-0.2-0.1-0.3-0.3-0.3-0.4c0-0.2,0.1-0.3,0.4-0.4c0.3,0,0.5-0.2,0.8-0.3s0.6-0.4,0.8-0.6C175.7,168.9,176.5,167.3,177.1,165.2z
		 M174.5,162.2c-0.2,0.4-0.3,0.8-0.4,1.3s-0.1,0.8-0.1,1.1s0,0.5,0,0.6c0,0.1,0.1,0.3,0.1,0.4c0.1,0.2,0.3,0.4,0.5,0.4
		c0.2,0,0.4-0.1,0.7-0.2c0.2-0.2,0.4-0.4,0.7-0.6c0.2-0.3,0.5-0.6,0.7-1c0.2-0.4,0.5-0.8,0.7-1.2c0.5-0.9,0.8-1.9,1-2.7
		c0-0.2-0.1-0.3-0.3-0.5c-0.3-0.3-0.6-0.5-0.9-0.5c-0.3,0-0.5,0.1-0.8,0.2c-0.3,0.2-0.5,0.4-0.8,0.7c-0.2,0.3-0.5,0.6-0.7,1
		C174.9,161.4,174.7,161.8,174.5,162.2z"/>
	<path fill="#AF747C" d="M181.4,164.1c0-0.5,0.1-1,0.2-1.4c0.1-0.5,0.3-0.9,0.6-1.3c0.2-0.4,0.5-0.8,0.8-1.2s0.7-0.7,1.1-1
		c0.8-0.6,1.6-0.9,2.5-0.9c1,0,1.6,0.4,2,1.2c0.1,0.3,0.2,0.6,0.2,1c0,0.4-0.1,0.7-0.2,1c-0.1,0.3-0.3,0.6-0.6,0.9
		c-0.2,0.3-0.5,0.5-0.9,0.7c-0.3,0.2-0.7,0.4-1.1,0.5c-0.8,0.3-1.7,0.4-2.6,0.4c0,0.1,0,0.2,0,0.4c0,0.2,0,0.3,0.1,0.5
		c0,0.2,0.1,0.4,0.2,0.5c0.2,0.3,0.5,0.5,0.9,0.5c0.7,0,1.3-0.2,1.9-0.6c0.2-0.1,0.4-0.3,0.5-0.4c0.1-0.1,0.3-0.2,0.4-0.2
		c0.1,0,0.2,0.1,0.3,0.2c0.1,0.1,0.1,0.3,0.1,0.4c0,0.3-0.1,0.6-0.3,0.8c-0.7,0.7-1.8,1.1-3.2,1.1c-0.8,0-1.5-0.3-2-0.8
		C181.6,165.8,181.4,165,181.4,164.1z M186.4,159.3c-0.6,0-1.2,0.4-1.7,1.2c-0.5,0.7-0.8,1.5-1.1,2.5c1-0.1,1.8-0.5,2.5-1.1
		c0.6-0.6,1-1.2,1-1.8C187,159.6,186.8,159.3,186.4,159.3z"/>
</g>
<g>
	<g>
		<polyline fill="none" stroke="#EACF1A" stroke-width="2.5451" stroke-miterlimit="10" points="339.2,280.8 339.2,283.3 
			336.7,283.3 		"/>
		
			<line fill="none" stroke="#EACF1A" stroke-width="2.5451" stroke-miterlimit="10" stroke-dasharray="5.121,5.121" x1="331.6" y1="283.3" x2="6.4" y2="283.3"/>
		<polyline fill="none" stroke="#EACF1A" stroke-width="2.5451" stroke-miterlimit="10" points="3.8,283.3 1.3,283.3 1.3,280.8 		
			"/>
		
			<line fill="none" stroke="#EACF1A" stroke-width="2.5451" stroke-miterlimit="10" stroke-dasharray="5.0822,5.0822" x1="1.3" y1="275.7" x2="1.3" y2="44.5"/>
		<polyline fill="none" stroke="#EACF1A" stroke-width="2.5451" stroke-miterlimit="10" points="1.3,41.9 1.3,39.4 3.8,39.4 		"/>
		
			<line fill="none" stroke="#EACF1A" stroke-width="2.5451" stroke-miterlimit="10" stroke-dasharray="5.121,5.121" x1="8.9" y1="39.4" x2="334.1" y2="39.4"/>
		<polyline fill="none" stroke="#EACF1A" stroke-width="2.5451" stroke-miterlimit="10" points="336.7,39.4 339.2,39.4 339.2,41.9 
					"/>
		
			<line fill="none" stroke="#EACF1A" stroke-width="2.5451" stroke-miterlimit="10" stroke-dasharray="5.0822,5.0822" x1="339.2" y1="47" x2="339.2" y2="278.2"/>
	</g>
</g>
<g>
	<g>
		<line fill="none" stroke="#684B2A" stroke-width="2" stroke-miterlimit="10" x1="338.3" y1="247.7" x2="337.2" y2="247.7"/>
		
			<line fill="none" stroke="#684B2A" stroke-width="2" stroke-miterlimit="10" stroke-dasharray="2.2238,2.2238" x1="334.9" y1="247.7" x2="2.5" y2="247.7"/>
		<line fill="none" stroke="#684B2A" stroke-width="2" stroke-miterlimit="10" x1="1.4" y1="247.7" x2="0.3" y2="247.7"/>
	</g>
</g>
<g>
	<g>
		<line fill="none" stroke="#684B2A" stroke-width="2" stroke-miterlimit="10" x1="327.9" y1="76.1" x2="329" y2="76.1"/>
		
			<line fill="none" stroke="#684B2A" stroke-width="2" stroke-miterlimit="10" stroke-dasharray="2.7217,2.7217" x1="331.7" y1="76.1" x2="335.8" y2="76.1"/>
		<line fill="none" stroke="#684B2A" stroke-width="2" stroke-miterlimit="10" x1="337.2" y1="76.1" x2="338.3" y2="76.1"/>
	</g>
</g>
<g>
	<g>
		<line fill="none" stroke="#684B2A" stroke-width="2" stroke-miterlimit="10" x1="0.3" y1="76.1" x2="1.4" y2="76.1"/>
		
			<line fill="none" stroke="#684B2A" stroke-width="2" stroke-miterlimit="10" stroke-dasharray="2.2104,2.2104" x1="3.6" y1="76.1" x2="214.7" y2="76.1"/>
		<line fill="none" stroke="#684B2A" stroke-width="2" stroke-miterlimit="10" x1="215.8" y1="76.1" x2="216.9" y2="76.1"/>
	</g>
</g>
<g>
	<g>
		<polyline fill="none" stroke="#7479B2" stroke-miterlimit="10" points="331.2,239.3 331.2,240.4 330.1,240.4 		"/>
		
			<line fill="none" stroke="#7479B2" stroke-miterlimit="10" stroke-dasharray="2.2146,2.2146" x1="327.9" y1="240.4" x2="10.1" y2="240.4"/>
		<polyline fill="none" stroke="#7479B2" stroke-miterlimit="10" points="9,240.4 7.9,240.4 7.9,239.3 		"/>
		
			<line fill="none" stroke="#7479B2" stroke-miterlimit="10" stroke-dasharray="2.1942,2.1942" x1="7.9" y1="237.1" x2="7.9" y2="84.6"/>
		<polyline fill="none" stroke="#7479B2" stroke-miterlimit="10" points="7.9,83.5 7.9,82.4 9,82.4 		"/>
		
			<line fill="none" stroke="#7479B2" stroke-miterlimit="10" stroke-dasharray="2.2146,2.2146" x1="11.2" y1="82.4" x2="329" y2="82.4"/>
		<polyline fill="none" stroke="#7479B2" stroke-miterlimit="10" points="330.1,82.4 331.2,82.4 331.2,83.5 		"/>
		
			<line fill="none" stroke="#7479B2" stroke-miterlimit="10" stroke-dasharray="2.1942,2.1942" x1="331.2" y1="85.7" x2="331.2" y2="238.2"/>
	</g>
</g>
<g>
	<g>
		<polyline fill="none" stroke="#AF747C" stroke-width="0.936" stroke-miterlimit="10" points="323.2,233.1 323.2,234.2 
			322.2,234.2 		"/>
		
			<line fill="none" stroke="#AF747C" stroke-width="0.936" stroke-miterlimit="10" stroke-dasharray="2.0766,2.0766" x1="320.1" y1="234.2" x2="18" y2="234.2"/>
		<polyline fill="none" stroke="#AF747C" stroke-width="0.936" stroke-miterlimit="10" points="16.9,234.2 15.9,234.2 15.9,233.1 		
			"/>
		
			<line fill="none" stroke="#AF747C" stroke-width="0.936" stroke-miterlimit="10" stroke-dasharray="2.0805,2.0805" x1="15.9" y1="231.1" x2="15.9" y2="90.6"/>
		<polyline fill="none" stroke="#AF747C" stroke-width="0.936" stroke-miterlimit="10" points="15.9,89.6 15.9,88.6 16.9,88.6 		"/>
		
			<line fill="none" stroke="#AF747C" stroke-width="0.936" stroke-miterlimit="10" stroke-dasharray="2.0766,2.0766" x1="19" y1="88.6" x2="321.2" y2="88.6"/>
		<polyline fill="none" stroke="#AF747C" stroke-width="0.936" stroke-miterlimit="10" points="322.2,88.6 323.2,88.6 323.2,89.6 		
			"/>
		
			<line fill="none" stroke="#AF747C" stroke-width="0.936" stroke-miterlimit="10" stroke-dasharray="2.0805,2.0805" x1="323.2" y1="91.7" x2="323.2" y2="232.1"/>
	</g>
</g>
</svg>
