<?xml version="1.0" encoding="utf-8"?>
<!-- Generator: Adobe Illustrator 18.0.0, SVG Export Plug-In . SVG Version: 6.00 Build 0)  -->
<!DOCTYPE svg PUBLIC "-//W3C//DTD SVG 1.1//EN" "http://www.w3.org/Graphics/SVG/1.1/DTD/svg11.dtd">
<svg version="1.1" id="Layer_1" xmlns="http://www.w3.org/2000/svg" xmlns:xlink="http://www.w3.org/1999/xlink" x="0px" y="0px"
	 width="310.7px" height="284.6px" viewBox="0 0 310.7 284.6" enable-background="new 0 0 310.7 284.6" xml:space="preserve">
<line fill="none" stroke="#EFEFEF" stroke-miterlimit="10" stroke-dasharray="2" x1="47.9" y1="249.8" x2="5" y2="249.8"/>
<g>
	<g>
		<line fill="none" stroke="#EFEFEF" stroke-width="1.006" stroke-miterlimit="10" x1="261.4" y1="34.9" x2="261.4" y2="36.4"/>
		
			<line fill="none" stroke="#EFEFEF" stroke-width="1.006" stroke-miterlimit="10" stroke-dasharray="2.9845,2.9845" x1="261.4" y1="39.3" x2="261.4" y2="246.8"/>
		<polyline fill="none" stroke="#EFEFEF" stroke-width="1.006" stroke-miterlimit="10" points="261.4,248.3 261.4,249.8 
			259.9,249.8 		"/>
		
			<line fill="none" stroke="#EFEFEF" stroke-width="1.006" stroke-miterlimit="10" stroke-dasharray="3.0321,3.0321" x1="256.9" y1="249.8" x2="52.2" y2="249.8"/>
		<polyline fill="none" stroke="#EFEFEF" stroke-width="1.006" stroke-miterlimit="10" points="50.7,249.8 49.2,249.8 49.2,248.3 		
			"/>
		
			<line fill="none" stroke="#EFEFEF" stroke-width="1.006" stroke-miterlimit="10" stroke-dasharray="2.9845,2.9845" x1="49.2" y1="245.3" x2="49.2" y2="37.9"/>
		<polyline fill="none" stroke="#EFEFEF" stroke-width="1.006" stroke-miterlimit="10" points="49.2,36.4 49.2,34.9 50.7,34.9 		"/>
		
			<line fill="none" stroke="#EFEFEF" stroke-width="1.006" stroke-miterlimit="10" stroke-dasharray="3.0321,3.0321" x1="53.8" y1="34.9" x2="258.4" y2="34.9"/>
		<line fill="none" stroke="#EFEFEF" stroke-width="1.006" stroke-miterlimit="10" x1="259.9" y1="34.9" x2="261.4" y2="34.9"/>
	</g>
</g>
<path fill="none" stroke="#36CC89" stroke-width="3" stroke-miterlimit="10" stroke-dasharray="12,8" d="M231.1,66.2
	c41,41,40.3,108.2-1.6,150s-109,42.6-150,1.6s-40.3-108.2,1.6-150S190.1,25.2,231.1,66.2z"/>
<g>
	<g>
		<g>
			<g>
				<path fill="#DCF4DF" d="M79.2,81.9c2.8-2.2,5.4-4.5,7.9-7c-1.2-0.9-2.3-1.8-3.5-2.7c-4.7,7.8-10.7,14.5-17.9,20
					c0.9,1.2,1.8,2.3,2.7,3.5C84.2,82,99.3,67.3,113.6,51.9c-1.2-0.9-2.3-1.8-3.5-2.7c-16.3,22.1-33.6,43.4-51.7,64
					c-1.9,2.1,1.2,5.3,3.1,3.1c10.6-11.6,21.3-23.3,31.9-35c5.3-5.8,10.6-11.7,15.9-17.5c2.7-2.9,5.3-5.8,8-8.8
					c2.8-3.1,5.5-6.9,9.7-8.1c-0.7-1.2-1.4-2.5-2.2-3.7c-24,29.8-49.3,58.6-74.2,87.6c-1.7,2,0.4,4.6,2.7,3.5
					c8.4-4,14.7-10.9,21.2-17.3c8.2-8.1,16.2-16.3,24.3-24.6c15.6-16.1,30.8-32.5,45.7-49.2c-1.2-0.9-2.3-1.8-3.5-2.7
					c-12.2,19.7-26.5,37.9-41.8,55.2c-7.5,8.5-15.3,16.8-23.3,25c-7.8,8.1-16.5,15.8-22.3,25.6c-1.2,2,1.1,4,3,3
					c44.7-21.7,64.3-71.3,100.7-102.6c-1-1-2.1-2.1-3.1-3.1C135.7,62,120.6,83.4,104.8,104c-8.1,10.5-16.5,20.8-25.7,30.4
					c-4.6,4.8-9.5,9.3-14.5,13.7c-4.3,3.8-8,7.8-10.1,13.2c-0.8,2.1,1.7,3.2,3.3,2.5c52.8-22.7,60-90.8,106.8-120.4
					c-0.9-1.2-1.8-2.3-2.7-3.5c-17.2,22.2-35,44.1-51.4,66.8c-7.8,10.8-14.5,22.4-20.1,34.4c-2.8,6.1-5.8,11.5-10.7,16.1
					c-4.4,4.2-9.9,7.3-15.2,10.4c-2.5,1.5-0.3,5.1,2.2,3.8c11.3-5.4,19-15.2,26.1-25.2c8.9-12.4,18.1-24.5,28-36.1
					C141,86.6,163.2,64.8,185.2,43c1.7-1.6-0.1-4.2-2.2-3.7c-20,4.3-32,25.2-43.2,40.6C125,100.2,110.7,121,97,142.1
					c-1.6,2.4,2.3,4.6,3.8,2.2c12.7-19.5,25.8-38.6,39.4-57.5c6.5-9.1,13-18.3,20.2-26.9c6.4-7.6,14-14.2,23.8-16.4
					c-0.7-1.2-1.4-2.5-2.2-3.7c-21.2,21-42.4,42-62,64.5c-9.7,11.1-18.9,22.7-27.5,34.7c-7.9,11-15.5,22.7-28.1,28.7
					c0.7,1.3,1.5,2.6,2.2,3.8c9.7-5.8,18.7-11.8,24.4-21.9c3.2-5.7,5.6-11.8,8.7-17.6c3.4-6.4,7.2-12.6,11.3-18.6
					c8-11.9,17.2-23,26-34.3c9.3-12,18.6-24,27.9-36.1c1.4-1.9-0.4-5-2.7-3.5c-46.6,29.8-54.2,98-106.6,120.6
					c1.1,0.8,2.2,1.7,3.3,2.5c2.4-6.1,7.8-10.2,12.6-14.5c4.6-4.1,8.9-8.5,13.2-12.9c8.6-9.1,16.4-18.9,24-28.8
					C124.4,86,139.2,65,157.4,46.8c2.1-2.1-1-5-3.1-3.1c-36.1,31-55.5,80.3-99.8,101.8c1,1,2,2,3,3c5.9-9.9,14.9-17.7,22.8-26
					c7.9-8.2,15.7-16.6,23.2-25.1c15.2-17.2,29.2-35.3,41.3-54.8c1.3-2.1-1.8-4.6-3.5-2.7c-14.4,16.4-29.2,32.3-44.3,48
					c-7.5,7.8-15.2,15.6-22.9,23.3c-7,7.1-13.9,15-23.1,19.3c0.9,1.2,1.8,2.3,2.7,3.5c25-29,50.3-57.8,74.3-87.6
					c1.3-1.6,0.2-4.4-2.2-3.7c-6.2,1.7-10.2,7.6-14.3,12.1c-5.8,6.3-11.5,12.7-17.3,19c-11.9,13.1-23.9,26.3-35.8,39.4
					c1,1,2.1,2.1,3.1,3.1c18.4-20.9,35.9-42.6,52.4-64.9c1.5-2.1-1.8-4.5-3.5-2.7C96.1,64.2,81,78.8,65.2,92.6
					c-1.9,1.6,0.7,5,2.7,3.5c7.8-6,14.4-13.2,19.5-21.6c1.3-2.2-1.7-4.5-3.5-2.7c-2.5,2.5-5.1,4.8-7.9,7
					C73.8,80.5,76.9,83.7,79.2,81.9L79.2,81.9z"/>
			</g>
		</g>
		<g>
			<g>
				<path fill="#DCF4DF" d="M64.1,187.1c22.5-23.1,44.9-46.4,67.2-69.7c11.4-11.9,22.7-23.8,34-35.8c9.9-10.4,20.8-20.6,27.7-33.4
					c1.3-2.4-1.7-4.5-3.7-2.8C175.4,57,161.2,68.2,148,80.6c-6,5.6-11.6,11.7-16.5,18.2c-5.6,7.3-9.5,15.6-13.6,23.7
					c-7.7,15.4-18,29.1-30.6,40.8c-9.3,8.6-26,16.5-26.3,31c0,2.2,2.5,2.8,4,1.7c27.8-21.9,50.9-47.7,72.5-75.5
					C157.6,94.6,178,68,206,50.1c-0.9-1.2-1.9-2.4-2.8-3.7c-12.2,11.5-22.4,23-30.1,38c-8,15.5-19,28.7-30.5,41.8
					c-22.5,25.9-47.5,49.6-74.2,71.1c-1.9,1.5,0.1,4.5,2.3,3.9c14.1-4.1,25.2-14,35.7-24c12.6-12,24.9-24.4,37-37
					c23.6-24.8,45.8-50.8,66.8-77.8c-1.2-0.9-2.4-1.9-3.7-2.8c-6.7,13.2-13.6,26.5-22,38.7c-9.6,13.8-21.9,25.5-33.6,37.5
					c-23.3,24-46.7,48-70,72c-1.8,1.8,0.6,5.3,2.8,3.7c25.7-18.5,48.3-40.7,69.9-63.7c23-24.6,45.4-49.8,68-74.8
					c-1.3-0.8-2.6-1.5-3.9-2.3c-7.8,33.2-38.1,55-61.2,77.5c-24.3,23.7-46.8,49.2-67.6,76c-1.5,1.9,0.5,5.4,2.8,3.7
					c24.8-19,46.4-41.5,67.6-64.3c10.8-11.6,21.5-23.2,32.6-34.5c11.4-11.6,23.5-25.5,39-31.7c-0.8-1.3-1.5-2.6-2.3-3.9
					c-8.7,7-17.4,14-24.9,22.2c-7.6,8.3-14,17.7-21.2,26.5c-14.4,17.7-30.3,34.2-47.4,49.5c-2.2,2,1.1,5.3,3.3,3.3
					c17-15.3,32.9-31.8,47.4-49.5c7.2-8.7,13.7-18,21.2-26.5c7.4-8.4,16.2-15.3,24.9-22.2c1.8-1.4-0.1-4.7-2.3-3.9
					c-13.8,5.5-24.4,16.4-34.8,26.6C183.1,131,171.9,143,160.7,155c-22.5,24.2-45.1,48.5-71.5,68.7c0.9,1.2,1.9,2.4,2.8,3.7
					c21.5-27.8,45-54.1,70.3-78.6c23.1-22.4,52.1-44,59.8-77c0.5-2.2-2.3-4.1-3.9-2.3c-22.2,24.5-44.3,49.2-66.8,73.4
					c-21.6,23.3-44.3,45.7-70.2,64.3c0.9,1.2,1.9,2.4,2.8,3.7c23.8-24.5,47.6-48.9,71.4-73.4c11.1-11.4,22.5-22.7,31.9-35.6
					c9.1-12.5,16.1-26.4,23.1-40.2c1.1-2.2-2-5-3.7-2.8c-20.2,26-41.7,51.1-64.3,75.1c-11.1,11.8-22.5,23.3-34.1,34.5
					c-11.4,11.1-23.3,23.3-39,27.9c0.8,1.3,1.5,2.6,2.3,3.9c26.3-21.1,50.7-44.5,73-69.7c10.8-12.3,21.9-24.8,29.8-39.2
					c4.3-7.8,8-15.7,13.5-22.8c5.5-7,12-13.1,18.5-19.2c1.9-1.8-0.6-5.1-2.8-3.7c-27.5,17.5-47.8,43.1-67.5,68.5
					c-22.4,28.7-45.9,55.4-74.5,78c1.3,0.6,2.7,1.1,4,1.7c0.2-7.7,7-13.1,12.5-17.5c5.9-4.8,11.8-9.4,17.2-14.8
					c11.4-11.3,20.3-24.5,27.4-38.8c3.8-7.6,7.7-15.1,12.7-22.1c5-6.8,11-12.8,17.1-18.5c12.8-11.9,26.7-22.8,40.1-34
					c-1.2-0.9-2.4-1.9-3.7-2.8c-6.9,13-18.3,23.3-28.3,33.9c-10.9,11.5-21.7,22.9-32.7,34.4c-22.3,23.3-44.7,46.6-67.2,69.7
					C58.7,185.9,62,189.3,64.1,187.1L64.1,187.1z"/>
			</g>
		</g>
		<g>
			<g>
				<path fill="#DCF4DF" d="M112.1,222c11.4-7.9,20.7-18.6,30.3-28.5c10.9-11.2,22-22.2,33-33.2c22.6-22.5,45.6-44.6,68.8-66.5
					c-1.3-0.8-2.6-1.5-3.9-2.3c-0.6,3.8-3,6.3-5.5,9c-3,3.3-6,6.6-9,9.9c-5.6,6.1-11.2,12.2-16.9,18.2c-11.3,12.1-22.8,24-34.4,35.8
					s-23.4,23.4-35.3,34.9c-6,5.7-12,11.4-18,17.1c-4.9,4.6-9.8,8.9-12.3,15.3c-0.5,1.4,0.8,3,2.3,3c13.8,0,24.7-8.6,34.1-17.7
					c5.9-5.7,11.6-11.7,17.4-17.5c5.7-5.7,11.6-11.3,16.6-17.7c4.7-6.2,8-13,13.3-18.9c5.8-6.6,11.9-13,18-19.4
					c11.8-12.3,24.1-24.3,36.6-35.8c-1.1-1.1-2.2-2.2-3.3-3.3c-23.9,24.6-47.8,49.1-73.2,72c-21.5,19.4-44.3,38.8-56.6,65.6
					c-0.7,1.5,0.1,3.6,2,3.5c7-0.2,12-4.5,17.3-8.6c6.3-4.9,12.6-9.9,18.8-15c12.8-10.5,25.2-21.5,36.9-33.2
					c11.4-11.4,21.9-23.6,31.4-36.6c9.5-13,16.2-30,29.5-39.6c-0.9-1.2-1.9-2.4-2.8-3.7c-10.2,11.4-22.2,20.6-31.8,32.5
					c-9.2,11.3-17,23.7-25.7,35.3c-16.3,21.8-41.6,38-51.2,64.4c-0.6,1.7,1.3,3.4,2.9,2.9c11-3.4,19.8-10.6,28-18.5
					c10-9.6,19.9-19.4,29.4-29.6c17.9-19.2,33-41.1,52.8-58.5c2-1.8-0.6-5-2.8-3.7c-16.5,10.1-28.4,25.4-41,39.6
					c-6.8,7.7-14.2,14.5-22.1,21.2c-7,5.9-12.9,13.3-13.2,22.8c0,1.2,1.1,2.4,2.3,2.3c19.8-1.2,33.8-15.5,45.5-30
					c14-17.3,26.8-35.6,39.8-53.6c1.6-2.1-2-4.9-3.7-2.8c-21.7,27.1-45.1,52.8-69.9,77c-2.2,2.1,1.1,5.4,3.3,3.3
					c24.8-24.2,48.2-49.9,69.9-77c-1.2-0.9-2.4-1.9-3.7-2.8c-11.7,16.1-23.3,32.4-35.6,48.2c-11.6,14.9-25.3,31.9-45.7,33.1
					c0.8,0.8,1.6,1.6,2.3,2.3c0.3-10.2,8.5-16.8,15.7-22.8c7-5.8,13.2-12.3,19.2-19.1c12-13.6,23.4-28.1,39-37.7
					c-0.9-1.2-1.9-2.4-2.8-3.7c-18.9,16.5-33.5,37.1-50.2,55.7c-9.1,10-18.8,19.5-28.4,29c-8.6,8.5-17.6,17.1-29.5,20.7
					c1,1,1.9,1.9,2.9,2.9c4.7-12.9,13.7-23.1,23.2-32.7c9.2-9.4,18.5-18.6,26.5-29.1c9-11.7,16.8-24.2,26-35.8
					c9.5-12,21.7-21.1,31.8-32.5c1.7-1.9-0.6-5.3-2.8-3.7c-11.6,8.3-17.7,21.3-25.4,32.9c-8.9,13.6-19.4,26.1-30.6,37.9
					c-11,11.6-22.8,22.4-35,32.7c-6.1,5.2-12.3,10.2-18.6,15.2c-6.1,4.9-13.8,13.3-22,13.6c0.7,1.2,1.3,2.3,2,3.5
					c12.4-27,35.5-46.3,57.1-65.8c25-22.6,48.5-46.8,72-70.9c2.1-2.2-1.1-5.3-3.3-3.3c-11.7,10.7-23,21.7-34,33.1
					c-10.6,10.9-22.4,21.9-30.2,35.1c-8,13.5-20.5,24-31.5,35c-10.1,10.2-21.5,22.6-37,22.5c0.8,1,1.5,2,2.3,3
					c2.7-7,9.9-12.1,15.2-17.1c6-5.7,12-11.4,17.9-17.2c11.9-11.5,23.6-23.2,35.2-35c11.6-11.8,23-23.8,34.3-35.9
					c5.6-6,11.2-12.1,16.8-18.3c4.4-4.8,10.8-10,11.8-16.7c0.3-2.2-2.1-4-3.9-2.3c-22.3,20.9-44.3,42.2-66.1,63.7
					c-11.1,11-22.1,22.1-33.1,33.2c-10.2,10.4-20,22.2-32.1,30.6C107.3,219.7,109.6,223.7,112.1,222L112.1,222z"/>
			</g>
		</g>
		<g>
			<g>
				<path fill="#DCF4DF" d="M172.9,234.5c27.3-28.8,56.1-56.1,86.3-81.7c-1.2-0.9-2.4-1.9-3.7-2.8c-18.8,31.7-46.1,56.9-73,81.5
					c-2,1.8,0.6,5,2.8,3.7c12.2-7,22-15.8,29.8-27.5c8-12.1,14.9-26.6,29-32.5c-1-1-1.9-1.9-2.9-2.9c-4.8,18.7-15.5,35.1-30.6,47.2
					c-2.4,1.9,1,5.2,3.3,3.3c15.6-12.5,26.7-29.8,31.8-49.2c0.4-1.5-1.1-3.6-2.9-2.9c-12.6,5.3-20.3,16.2-27.3,27.5
					c-4.1,6.6-8.2,13.1-13.5,18.8c-5.5,5.8-12.2,10.4-19.2,14.3c0.9,1.2,1.9,2.4,2.8,3.7c27.3-24.9,54.8-50.4,73.8-82.5
					c1.4-2.4-1.7-4.5-3.7-2.8c-30.2,25.7-59,52.9-86.3,81.7C167.5,233.4,170.8,236.7,172.9,234.5L172.9,234.5z"/>
			</g>
		</g>
	</g>
	<g>
		<g>
			<path fill="#DCF4DF" d="M166.3,243c12.4-7.2,24.6-14.8,36.5-22.8c2.1-1.4,0.8-5.3-1.8-4.3c-3.3,1.4-6.7,2.7-10,4.1
				c0.8,1.3,1.5,2.6,2.3,3.9c2.3-2.5,4.3-5.1,6.1-8c2.1-3.5,3.3-7.6,6.7-10.2c2.4-1.8,0.1-5.8-2.4-4c-6.3,4.7-8.4,13.2-13.8,18.9
				c-1.5,1.6,0,4.8,2.3,3.9c3.3-1.4,6.7-2.7,10-4.1c-0.6-1.4-1.2-2.8-1.8-4.3c-11.9,8-24.1,15.6-36.5,22.8
				C161.3,240.5,163.7,244.5,166.3,243L166.3,243z"/>
		</g>
	</g>
</g>
<g enable-background="new    ">
	<path fill="#36CC89" d="M109.9,147.4c2-1.5,4-5.2,6-11.3c1.2-3.5,2-6.7,2.4-9.5c0.1-0.8,0.2-1.4,0.2-1.8c-0.5,0-0.9,0.1-1.3,0.4
		l-1.3,0.7c-0.4,0.2-0.8,0-1.4-0.5c-0.6-0.5-0.9-0.9-0.8-1.3s0.2-0.6,0.6-0.9c0.3-0.2,0.7-0.4,1.2-0.6c0.9-0.3,1.7-0.5,2.4-0.5
		s1.2,0,1.7,0.1c0.5,0.1,0.9,0.3,1.3,0.5c0.9,0.5,1.4,1.3,1.4,2.3c0,1.7-0.5,4.6-1.7,8.7c-1.9,6.5-4.1,11-6.7,13.7
		c-0.7,0.7-1.4,1.2-2.2,1.5c-0.2,0.1-0.4,0.1-0.6,0.1s-0.4,0-0.6-0.1c-0.2-0.1-0.3-0.2-0.4-0.3c-0.2-0.2-0.4-0.5-0.4-0.7
		C109.6,147.7,109.7,147.5,109.9,147.4z"/>
	<path fill="#36CC89" d="M135.8,134.4c-0.7,0-1.9,1-3.7,2.9c-1.3,1.5-2.3,2.6-2.9,3.4l-1.6,2c-0.7,1.3-1.2,2.3-1.6,3.2l-0.9,2
		c-0.2,0.5-0.5,0.8-0.6,1c-0.2,0.2-0.4,0.3-0.7,0.3s-0.6-0.1-0.9-0.2c-0.3-0.1-0.5-0.3-0.7-0.4c-0.4-0.4-0.7-0.8-0.7-1.2
		c0-0.2,0.1-0.5,0.4-1l0.7-1.4c0.2-0.4,0.4-0.9,0.7-1.6l1-2.4c1.4-3.4,2-5.6,2-6.6c0-0.5-0.2-0.9-0.5-1.2l-0.3-0.2
		c-0.1-0.1-0.2-0.2-0.2-0.4c0-0.2,0.1-0.4,0.2-0.6c0.2-0.2,0.4-0.3,0.6-0.5c0.5-0.3,1-0.4,1.6-0.4s0.9,0.1,1.2,0.2
		c0.3,0.1,0.6,0.3,0.8,0.5c0.4,0.4,0.7,0.8,0.7,1.3s-0.1,0.9-0.2,1.3c-0.1,0.4-0.3,0.9-0.4,1.3c-0.2,0.5-0.4,0.9-0.6,1.3
		c-0.5,1-0.7,1.6-0.9,1.8c-0.1,0.2-0.1,0.3-0.1,0.3c2.1-2.7,3.4-4.3,3.8-4.8c0.9-1,1.6-1.7,2.1-2.1c0.9-0.7,1.8-1,2.6-1
		c0.8,0,1.5,0.3,1.9,0.8c0.5,0.5,0.7,1.2,0.7,2c0,0.7-0.2,1.6-0.6,2.5c-0.4,1-0.6,1.7-0.7,2l2.5-3.3l1.4-1.7c0.8-1,1.6-1.6,2.2-1.9
		c0.6-0.3,1.2-0.4,1.6-0.4s0.8,0.1,1.2,0.2c0.4,0.1,0.7,0.4,1,0.6c0.6,0.6,0.9,1.3,0.9,2.2c0,0.9-0.2,1.8-0.6,2.8
		c-0.4,0.9-0.8,1.7-1.1,2.3s-0.6,1.2-0.9,1.8c-0.8,1.8-1.3,3.2-1.3,4.1c0,0.6,0.3,0.9,0.8,0.9c0.5,0,0.9-0.1,1.3-0.3
		c0.4-0.2,0.7-0.3,0.8-0.3c0.2,0,0.4,0.1,0.4,0.4c0,1-0.5,1.9-1.6,2.6c-0.7,0.5-1.3,0.7-1.9,0.7c-0.6,0-1-0.1-1.4-0.2
		c-0.4-0.1-0.7-0.4-1-0.7c-0.6-0.7-1-1.5-1-2.5s0.1-1.9,0.4-2.8c0.3-0.8,0.6-1.6,0.9-2.4c0.3-0.8,0.7-1.5,1-2.2s0.6-1.2,0.8-1.6
		c0.4-0.8,0.6-1.4,0.6-1.8c0-0.4-0.2-0.7-0.7-0.7c-0.6,0-1.7,1-3.3,3.1c-1.2,1.6-2.1,2.7-2.5,3.4l-1.2,1.7c-0.7,1.3-1.2,2.3-1.5,3.2
		l-0.9,2c-0.2,0.5-0.4,0.8-0.6,1c-0.2,0.2-0.4,0.3-0.7,0.3s-0.6,0-0.8-0.1c-0.3-0.1-0.5-0.2-0.7-0.4c-0.4-0.3-0.7-0.7-0.7-1.1
		s0.1-0.9,0.4-1.5c0.2-0.6,0.6-1.4,0.9-2.2l2.4-5.1c0.9-1.9,1.3-3.1,1.3-3.6C136.5,134.7,136.2,134.4,135.8,134.4z M137.5,139.3
		C137.5,139.3,137.5,139.3,137.5,139.3L137.5,139.3C137.5,139.3,137.5,139.3,137.5,139.3z"/>
	<path fill="#36CC89" d="M164.8,144.4c0,1.1,0.4,1.6,1.1,1.6c0.5,0,0.9-0.1,1.3-0.2c0.3-0.2,0.6-0.2,0.7-0.2c0.2,0,0.4,0.1,0.4,0.4
		c0,1-0.5,1.8-1.5,2.5c-1.1,0.7-2.2,0.9-3.3,0.6c-0.7-0.3-1.3-0.8-1.7-1.7c-0.2-0.4-0.3-0.9-0.3-1.2c0-0.6,0.1-1.2,0.2-1.9
		c-1.1,2.2-2.4,3.7-4,4.5c-0.6,0.3-1.3,0.5-2,0.5c-0.7,0-1.3-0.1-1.9-0.4c-0.5-0.3-1-0.7-1.3-1.2c-0.7-1.1-1.1-2.4-1-4.1
		c0.1-2,0.7-4,1.8-6c1-1.8,2.4-3.3,4-4.5c1.6-1.2,3.1-1.8,4.5-1.8s2.5,0.6,3.4,1.9c0.8-1.3,1.5-1.9,2.1-1.9c0.7,0,1.1,0.1,1.5,0.4
		c0.6,0.5,0.9,0.9,0.7,1.2c-2.9,5.9-4.4,9.6-4.4,11C164.8,144,164.8,144.2,164.8,144.4z M155.3,144.5c0,1.4,0.4,2.1,1.3,2.1
		c0.7,0,1.5-0.6,2.5-1.7c1.4-1.7,2.7-4,3.8-6.8c0.4-0.9,0.7-1.8,0.9-2.7c0-0.8-0.4-1.4-1-1.7c-0.2-0.1-0.5-0.2-0.9-0.2
		c-0.4,0-0.9,0.1-1.4,0.4c-0.5,0.3-1.1,0.7-1.6,1.2s-1,1.1-1.4,1.8c-0.4,0.7-0.8,1.5-1.2,2.3C155.6,141,155.3,142.7,155.3,144.5z"/>
	<path fill="#36CC89" d="M180.7,145.2c-1.7,2.6-3.7,3.9-5.8,3.9c-1.9,0-3.2-1-3.9-3.1c-0.2-0.7-0.3-1.6-0.3-2.6c0-1,0.1-2,0.4-3.1
		c0.3-1,0.7-2,1.2-2.9c0.5-0.9,1.1-1.8,1.8-2.5c0.7-0.8,1.4-1.4,2.2-2c1.6-1.2,3.2-1.8,4.9-1.8s2.8,0.8,3.4,2.3
		c0.1-0.1,0.3-0.3,0.4-0.5c0.1-0.2,0.2-0.3,0.4-0.4c0.3-0.3,0.6-0.4,0.8-0.4c0.2,0,0.5,0,0.7,0.1c0.2,0.1,0.5,0.2,0.7,0.3
		c0.6,0.3,0.8,0.6,0.6,0.9c-0.6,1.4-1.2,2.7-1.6,4l-2.5,8.1c-2,6.2-4.6,10.2-7.6,12c-0.8,0.5-1.5,0.8-2.1,0.8c-0.6,0.1-1,0.1-1.3,0
		c-0.3-0.1-0.5-0.2-0.7-0.3c-0.4-0.3-0.7-0.5-0.7-0.8c0-0.4,0.3-0.6,0.8-0.7s1.1-0.3,1.7-0.6c0.6-0.3,1.1-0.7,1.7-1.2
		C178,152.7,179.6,149.6,180.7,145.2z M175.6,139.3c-0.3,0.8-0.5,1.7-0.7,2.5c-0.2,0.9-0.3,1.6-0.3,2.1c0,0.6,0,1,0.1,1.3
		c0,0.3,0.1,0.5,0.2,0.8c0.2,0.5,0.6,0.7,1,0.7s0.9-0.2,1.3-0.5s0.9-0.7,1.4-1.3c0.5-0.6,1-1.2,1.4-1.9c0.5-0.7,0.9-1.5,1.4-2.4
		c1-1.9,1.6-3.7,2-5.5c-0.1-0.3-0.3-0.6-0.6-1c-0.7-0.6-1.2-0.9-1.8-0.9c-0.5,0-1.1,0.2-1.6,0.5s-1,0.8-1.5,1.3
		c-0.5,0.6-0.9,1.2-1.3,1.9C176.2,137.7,175.9,138.4,175.6,139.3z"/>
	<path fill="#36CC89" d="M189.4,143c0-1,0.2-2,0.5-2.9s0.7-1.8,1.2-2.7s1-1.7,1.7-2.4s1.4-1.4,2.1-2c1.6-1.2,3.3-1.8,5-1.8
		c2,0,3.3,0.8,3.9,2.4c0.2,0.6,0.3,1.2,0.3,2c0,0.8-0.2,1.4-0.4,2.1c-0.3,0.6-0.7,1.2-1.1,1.7c-0.5,0.5-1.1,1-1.7,1.4
		s-1.4,0.8-2.2,1.1c-1.6,0.6-3.4,0.9-5.2,0.9c0,0.2-0.1,0.4-0.1,0.7c0,0.3,0,0.7,0.1,1.1s0.2,0.7,0.4,1.1c0.4,0.7,1,1,1.8,1
		c1.3,0,2.6-0.4,3.9-1.2c0.4-0.3,0.8-0.5,1.1-0.8s0.5-0.4,0.7-0.4c0.2,0,0.4,0.1,0.5,0.4s0.2,0.5,0.2,0.8c0,0.6-0.2,1.1-0.5,1.6
		c-1.4,1.4-3.6,2.2-6.5,2.2c-1.7,0-3-0.5-4.1-1.5C189.9,146.5,189.3,144.9,189.4,143z M199.5,133.5c-1.2,0-2.4,0.8-3.5,2.5
		c-0.9,1.4-1.7,3.1-2.3,5.1c1.9-0.2,3.6-1,5-2.3c1.3-1.2,1.9-2.4,1.9-3.6S200.2,133.5,199.5,133.5z"/>
</g>
<g>
	<g>
		<line fill="none" stroke="#FCC515" stroke-width="5" stroke-miterlimit="10" x1="229.8" y1="68.8" x2="222.9" y2="74.5"/>
		<g>
			<polygon fill="#FCC515" points="220.3,68.6 216,80.3 228.3,78.2 			"/>
		</g>
	</g>
</g>
<g>
	<g>
		<line fill="none" stroke="#FCC515" stroke-width="5" stroke-miterlimit="10" x1="234.3" y1="65.1" x2="241.2" y2="59.3"/>
		<g>
			<polygon fill="#FCC515" points="243.8,65.3 248.1,53.6 235.8,55.7 			"/>
		</g>
	</g>
</g>
<line fill="none" stroke="#36CC89" stroke-miterlimit="10" stroke-dasharray="2" x1="302.9" y1="6.5" x2="302.9" y2="35.4"/>
<line fill="none" stroke="#EFEFEF" stroke-miterlimit="10" stroke-dasharray="2" x1="260.1" y1="6.5" x2="260.1" y2="35.4"/>
<line fill="none" stroke="#EFEFEF" stroke-miterlimit="10" stroke-dasharray="2" x1="261.4" y1="249.8" x2="261.4" y2="278.6"/>
<line fill="none" stroke="#36CC89" stroke-miterlimit="10" stroke-dasharray="2" x1="302.9" y1="6.5" x2="260.1" y2="6.5"/>
<line fill="none" stroke="#EFEFEF" stroke-miterlimit="10" stroke-dasharray="2" x1="302.9" y1="35.4" x2="260.1" y2="35.4"/>
<rect x="273.8" y="0.5" fill="#FFFFFF" width="20.5" height="11.6"/>
<rect x="297.1" y="12.1" fill="#FFFFFF" width="11.6" height="14.2"/>
<g enable-background="new    ">
	<path fill="#36CC89" d="M280.1,8.7h-0.8V3.6h0.8V8.7z"/>
	<path fill="#36CC89" d="M282.8,8.8c-0.6,0-1-0.2-1.3-0.5C281.1,8,281,7.5,281,7c0-0.6,0.1-1.1,0.4-1.4s0.7-0.5,1.2-0.5
		c0.5,0,0.9,0.1,1.1,0.4c0.3,0.3,0.4,0.7,0.4,1.2v0.4h-2.4c0,0.4,0.1,0.6,0.3,0.8s0.4,0.3,0.8,0.3c0.2,0,0.4,0,0.6-0.1
		c0.2,0,0.4-0.1,0.6-0.2v0.6c-0.2,0.1-0.4,0.2-0.6,0.2C283.3,8.8,283,8.8,282.8,8.8z M282.7,5.6c-0.2,0-0.4,0.1-0.6,0.2
		c-0.1,0.2-0.2,0.4-0.3,0.7h1.7c0-0.3-0.1-0.5-0.2-0.7S282.9,5.6,282.7,5.6z"/>
	<path fill="#36CC89" d="M286.9,5.7H286v3.1h-0.8V5.7h-0.6V5.3l0.6-0.2V4.9c0-0.4,0.1-0.7,0.3-1c0.2-0.2,0.5-0.3,0.9-0.3
		c0.3,0,0.5,0,0.8,0.1l-0.2,0.6c-0.2-0.1-0.4-0.1-0.5-0.1c-0.2,0-0.3,0.1-0.4,0.2S286,4.7,286,4.9v0.2h0.9V5.7z"/>
	<path fill="#36CC89" d="M288.9,8.2c0.2,0,0.4,0,0.6-0.1v0.6c-0.1,0-0.2,0.1-0.3,0.1c-0.1,0-0.3,0-0.4,0c-0.7,0-1.1-0.4-1.1-1.2v-2
		h-0.5V5.4l0.5-0.3l0.3-0.8h0.5v0.8h1v0.6h-1v1.9c0,0.2,0,0.3,0.1,0.4C288.6,8.1,288.7,8.2,288.9,8.2z"/>
</g>
<g enable-background="new    ">
	<path fill="#36CC89" d="M304.5,22.4c0-0.2,0-0.4-0.1-0.6h0.6c0,0.1,0.1,0.2,0.1,0.3c0,0.1,0,0.3,0,0.4c0,0.7-0.4,1.1-1.2,1.1h-2
		v0.5h-0.3l-0.3-0.5l-0.8-0.3v-0.5h0.8v-1h0.6v1h1.9c0.2,0,0.3,0,0.4-0.1C304.4,22.7,304.5,22.6,304.5,22.4z"/>
	<path fill="#36CC89" d="M303.2,17.9c0.6,0,1.1,0.2,1.4,0.5s0.5,0.7,0.5,1.3c0,0.3-0.1,0.6-0.2,0.9s-0.4,0.5-0.7,0.6
		c-0.3,0.1-0.6,0.2-1,0.2c-0.6,0-1-0.2-1.4-0.5c-0.3-0.3-0.5-0.7-0.5-1.3c0-0.5,0.2-0.9,0.5-1.2C302.2,18.1,302.7,17.9,303.2,17.9z
		 M303.2,20.6c0.8,0,1.3-0.3,1.3-0.9c0-0.6-0.4-0.9-1.3-0.9c-0.8,0-1.2,0.3-1.2,0.9c0,0.3,0.1,0.6,0.3,0.7
		C302.5,20.5,302.8,20.6,303.2,20.6z"/>
	<path fill="#36CC89" d="M305.1,15.2c0,0.5-0.2,0.8-0.5,1.1v0c0.3,0,0.5,0,0.6,0h1.5V17h-5.3v-0.6c0.1,0,0.2-0.1,0.5-0.1v0
		c-0.4-0.2-0.6-0.6-0.6-1.1c0-0.5,0.2-0.8,0.5-1.1c0.3-0.3,0.8-0.4,1.4-0.4c0.6,0,1.1,0.1,1.4,0.4C304.9,14.4,305.1,14.7,305.1,15.2
		z M302,15.4c0,0.3,0.1,0.5,0.3,0.7c0.2,0.1,0.5,0.2,0.9,0.2h0.1c0.4,0,0.8-0.1,1-0.2c0.2-0.1,0.3-0.4,0.3-0.7
		c0-0.3-0.1-0.5-0.3-0.6c-0.2-0.1-0.5-0.2-0.9-0.2c-0.4,0-0.7,0.1-0.9,0.2C302.1,14.9,302,15.1,302,15.4z"/>
</g>
<line fill="none" stroke="#36CC89" stroke-miterlimit="10" stroke-dasharray="2" x1="6.8" y1="6" x2="6.8" y2="34.9"/>
<line fill="none" stroke="#EFEFEF" stroke-miterlimit="10" stroke-dasharray="2" x1="48.9" y1="6" x2="48.9" y2="34.9"/>
<line fill="none" stroke="#36CC89" stroke-miterlimit="10" stroke-dasharray="2" x1="48.9" y1="6" x2="6.1" y2="6"/>
<line fill="none" stroke="#EFEFEF" stroke-miterlimit="10" stroke-dasharray="2" x1="48.9" y1="34.9" x2="6.1" y2="34.9"/>
<rect x="17.8" y="0" fill="#FFFFFF" width="20.5" height="11.6"/>
<rect x="1.1" y="12.1" fill="#FFFFFF" width="11.6" height="14.2"/>
<g enable-background="new    ">
	<path fill="#36CC89" d="M23.3,8.2h-0.8V3.1h0.8V8.2z"/>
	<path fill="#36CC89" d="M26,8.3c-0.6,0-1-0.2-1.3-0.5c-0.3-0.3-0.5-0.8-0.5-1.4c0-0.6,0.1-1.1,0.4-1.4s0.7-0.5,1.2-0.5
		c0.5,0,0.9,0.1,1.1,0.4c0.3,0.3,0.4,0.7,0.4,1.2v0.4H25c0,0.4,0.1,0.6,0.3,0.8s0.4,0.3,0.8,0.3c0.2,0,0.4,0,0.6-0.1
		c0.2,0,0.4-0.1,0.6-0.2v0.6c-0.2,0.1-0.4,0.2-0.6,0.2C26.5,8.3,26.2,8.3,26,8.3z M25.8,5.1c-0.2,0-0.4,0.1-0.6,0.2
		C25.1,5.5,25,5.7,25,6h1.7c0-0.3-0.1-0.5-0.2-0.7C26.3,5.2,26.1,5.1,25.8,5.1z"/>
	<path fill="#36CC89" d="M30.1,5.2h-0.9v3.1h-0.8V5.2h-0.6V4.8l0.6-0.2V4.4c0-0.4,0.1-0.7,0.3-1s0.5-0.3,0.9-0.3
		c0.3,0,0.5,0,0.8,0.1l-0.2,0.6c-0.2-0.1-0.4-0.1-0.5-0.1c-0.2,0-0.3,0.1-0.4,0.2s-0.1,0.3-0.1,0.5v0.2h0.9V5.2z"/>
	<path fill="#36CC89" d="M32.1,7.7c0.2,0,0.4,0,0.6-0.1v0.6c-0.1,0-0.2,0.1-0.3,0.1c-0.1,0-0.3,0-0.4,0c-0.7,0-1.1-0.4-1.1-1.2v-2
		h-0.5V4.9l0.5-0.3l0.3-0.8h0.5v0.8h1v0.6h-1v1.9c0,0.2,0,0.3,0.1,0.4C31.8,7.6,31.9,7.7,32.1,7.7z"/>
</g>
<g enable-background="new    ">
	<path fill="#36CC89" d="M152.5,16.6c0.3,0,0.5,0,0.8-0.1v0.8c-0.1,0-0.3,0.1-0.4,0.1s-0.4,0-0.6,0c-1,0-1.5-0.5-1.5-1.5v-2.6h-0.7
		v-0.5l0.7-0.4l0.3-1h0.6v1.1h1.4v0.8h-1.4v2.6c0,0.2,0.1,0.4,0.2,0.5C152.2,16.6,152.3,16.6,152.5,16.6z"/>
	<path fill="#36CC89" d="M158.5,15c0,0.8-0.2,1.4-0.6,1.8c-0.4,0.4-1,0.7-1.7,0.7c-0.5,0-0.9-0.1-1.2-0.3c-0.3-0.2-0.6-0.5-0.8-0.9
		c-0.2-0.4-0.3-0.8-0.3-1.3c0-0.8,0.2-1.4,0.6-1.8c0.4-0.4,1-0.7,1.7-0.7c0.7,0,1.3,0.2,1.7,0.7C158.3,13.6,158.5,14.2,158.5,15z
		 M155,15c0,1.1,0.4,1.7,1.2,1.7c0.8,0,1.2-0.6,1.2-1.7c0-1.1-0.4-1.7-1.2-1.7c-0.4,0-0.7,0.1-0.9,0.4C155.1,14,155,14.4,155,15z"/>
	<path fill="#36CC89" d="M162.2,17.5c-0.6,0-1.1-0.2-1.4-0.7h-0.1c0,0.4,0.1,0.7,0.1,0.7v2h-1v-7h0.8c0,0.1,0.1,0.3,0.1,0.6h0.1
		c0.3-0.5,0.8-0.7,1.4-0.7c0.6,0,1.1,0.2,1.4,0.7c0.3,0.4,0.5,1,0.5,1.8c0,0.8-0.2,1.4-0.5,1.8C163.2,17.2,162.8,17.5,162.2,17.5z
		 M161.9,13.3c-0.4,0-0.7,0.1-0.9,0.4s-0.3,0.6-0.3,1.1V15c0,0.6,0.1,1,0.3,1.3c0.2,0.3,0.5,0.4,0.9,0.4c0.4,0,0.6-0.1,0.8-0.4
		s0.3-0.7,0.3-1.2c0-0.5-0.1-1-0.3-1.2C162.6,13.4,162.3,13.3,161.9,13.3z"/>
</g>
<g enable-background="new    ">
	<path fill="#36CC89" d="M144.4,265.9c0.6,0,1.1,0.2,1.4,0.7c0.3,0.4,0.5,1,0.5,1.8c0,0.8-0.2,1.4-0.5,1.9s-0.8,0.7-1.4,0.7
		c-0.6,0-1.1-0.2-1.4-0.7h-0.1l-0.2,0.6h-0.8V264h1v1.6c0,0.1,0,0.3,0,0.5c0,0.2,0,0.4,0,0.5h0C143.3,266.1,143.8,265.9,144.4,265.9
		z M144.1,266.7c-0.4,0-0.7,0.1-0.9,0.4c-0.2,0.2-0.3,0.7-0.3,1.2v0.1c0,0.6,0.1,1,0.3,1.3c0.2,0.3,0.5,0.4,0.9,0.4
		c0.4,0,0.6-0.1,0.8-0.4c0.2-0.3,0.3-0.7,0.3-1.2C145.3,267.3,144.9,266.7,144.1,266.7z"/>
	<path fill="#36CC89" d="M151.8,268.4c0,0.8-0.2,1.4-0.6,1.8c-0.4,0.4-1,0.7-1.7,0.7c-0.5,0-0.9-0.1-1.2-0.3
		c-0.3-0.2-0.6-0.5-0.8-0.9c-0.2-0.4-0.3-0.8-0.3-1.3c0-0.8,0.2-1.4,0.6-1.8c0.4-0.4,1-0.7,1.7-0.7c0.7,0,1.3,0.2,1.7,0.7
		S151.8,267.6,151.8,268.4z M148.3,268.4c0,1.1,0.4,1.7,1.2,1.7c0.8,0,1.2-0.6,1.2-1.7c0-1.1-0.4-1.7-1.2-1.7
		c-0.4,0-0.7,0.1-0.9,0.4C148.4,267.4,148.3,267.8,148.3,268.4z"/>
	<path fill="#36CC89" d="M154.8,270c0.3,0,0.5,0,0.8-0.1v0.8c-0.1,0-0.3,0.1-0.4,0.1c-0.2,0-0.4,0-0.6,0c-1,0-1.5-0.5-1.5-1.5v-2.6
		h-0.7v-0.5l0.7-0.4l0.3-1h0.6v1.1h1.4v0.8h-1.4v2.6c0,0.2,0.1,0.4,0.2,0.5C154.4,270,154.6,270,154.8,270z"/>
	<path fill="#36CC89" d="M158.3,270c0.3,0,0.5,0,0.8-0.1v0.8c-0.1,0-0.3,0.1-0.4,0.1c-0.2,0-0.4,0-0.6,0c-1,0-1.5-0.5-1.5-1.5v-2.6
		h-0.7v-0.5l0.7-0.4l0.3-1h0.6v1.1h1.4v0.8h-1.4v2.6c0,0.2,0.1,0.4,0.2,0.5C157.9,270,158.1,270,158.3,270z"/>
	<path fill="#36CC89" d="M164.3,268.4c0,0.8-0.2,1.4-0.6,1.8c-0.4,0.4-1,0.7-1.7,0.7c-0.5,0-0.9-0.1-1.2-0.3
		c-0.3-0.2-0.6-0.5-0.8-0.9c-0.2-0.4-0.3-0.8-0.3-1.3c0-0.8,0.2-1.4,0.6-1.8c0.4-0.4,1-0.7,1.7-0.7c0.7,0,1.3,0.2,1.7,0.7
		C164.1,267,164.3,267.6,164.3,268.4z M160.8,268.4c0,1.1,0.4,1.7,1.2,1.7c0.8,0,1.2-0.6,1.2-1.7c0-1.1-0.4-1.7-1.2-1.7
		c-0.4,0-0.7,0.1-0.9,0.4C160.9,267.4,160.8,267.8,160.8,268.4z"/>
	<path fill="#36CC89" d="M169.6,270.8h-1v-3c0-0.4-0.1-0.6-0.2-0.8c-0.1-0.2-0.4-0.3-0.7-0.3c-0.4,0-0.7,0.1-0.9,0.4
		c-0.2,0.3-0.3,0.7-0.3,1.3v2.4h-1V266h0.8l0.1,0.6h0.1c0.1-0.2,0.3-0.4,0.6-0.5c0.3-0.1,0.5-0.2,0.8-0.2c0.7,0,1.2,0.3,1.5,0.8h0.1
		c0.1-0.2,0.3-0.4,0.6-0.6c0.3-0.1,0.6-0.2,0.9-0.2c0.6,0,1,0.1,1.3,0.4c0.3,0.3,0.4,0.7,0.4,1.3v3.2h-1v-3c0-0.4-0.1-0.6-0.2-0.8
		c-0.1-0.2-0.4-0.3-0.7-0.3c-0.4,0-0.7,0.1-0.9,0.4s-0.3,0.6-0.3,1.1V270.8z"/>
</g>
<g enable-background="new    ">
	<path fill="#36CC89" d="M284.7,131.6c0.2,0,0.4,0,0.5,0l-0.1,1c-0.1,0-0.3-0.1-0.5-0.1c-0.4,0-0.7,0.1-1,0.4
		c-0.3,0.3-0.4,0.6-0.4,1v2.5h-1v-4.8h0.8l0.1,0.9h0.1c0.2-0.3,0.4-0.5,0.6-0.7S284.4,131.6,284.7,131.6z"/>
	<path fill="#36CC89" d="M286,130.4c0-0.2,0-0.3,0.2-0.4c0.1-0.1,0.2-0.1,0.4-0.1c0.2,0,0.3,0,0.4,0.1c0.1,0.1,0.2,0.2,0.2,0.4
		c0,0.2,0,0.3-0.2,0.4s-0.2,0.2-0.4,0.2c-0.2,0-0.3-0.1-0.4-0.2S286,130.6,286,130.4z M287.1,136.5h-1v-4.8h1V136.5z"/>
	<path fill="#36CC89" d="M292.7,131.7v0.6l-0.8,0.2c0.1,0.1,0.1,0.2,0.2,0.4c0,0.1,0.1,0.3,0.1,0.5c0,0.5-0.2,0.9-0.5,1.2
		s-0.8,0.4-1.4,0.4c-0.2,0-0.3,0-0.4,0c-0.2,0.1-0.3,0.3-0.3,0.5c0,0.1,0.1,0.2,0.2,0.2c0.1,0.1,0.3,0.1,0.6,0.1h0.8
		c0.5,0,0.9,0.1,1.2,0.3c0.3,0.2,0.4,0.6,0.4,1c0,0.5-0.2,1-0.7,1.3c-0.5,0.3-1.1,0.4-2,0.4c-0.7,0-1.2-0.1-1.5-0.3
		c-0.3-0.2-0.5-0.6-0.5-1c0-0.3,0.1-0.5,0.3-0.7c0.2-0.2,0.5-0.3,0.8-0.4c-0.1-0.1-0.2-0.2-0.3-0.3c-0.1-0.1-0.1-0.3-0.1-0.4
		c0-0.2,0.1-0.3,0.2-0.5c0.1-0.1,0.3-0.2,0.5-0.4c-0.3-0.1-0.5-0.3-0.6-0.5c-0.2-0.2-0.2-0.5-0.2-0.9c0-0.5,0.2-0.9,0.5-1.2
		c0.3-0.3,0.8-0.4,1.4-0.4c0.1,0,0.3,0,0.4,0c0.1,0,0.3,0,0.3,0.1H292.7z M288.9,137.3c0,0.2,0.1,0.4,0.3,0.5
		c0.2,0.1,0.5,0.2,0.8,0.2c0.6,0,1-0.1,1.2-0.2c0.3-0.2,0.4-0.4,0.4-0.6c0-0.2-0.1-0.4-0.2-0.4c-0.1-0.1-0.4-0.1-0.8-0.1h-0.8
		c-0.3,0-0.5,0.1-0.7,0.2C289,136.9,288.9,137,288.9,137.3z M289.3,133.3c0,0.3,0.1,0.5,0.2,0.7s0.4,0.2,0.7,0.2
		c0.6,0,0.9-0.3,0.9-1c0-0.3-0.1-0.6-0.2-0.7c-0.1-0.2-0.4-0.3-0.7-0.3c-0.3,0-0.5,0.1-0.7,0.3C289.4,132.7,289.3,132.9,289.3,133.3
		z"/>
	<path fill="#36CC89" d="M297.8,136.5h-1v-3c0-0.4-0.1-0.7-0.2-0.8c-0.2-0.2-0.4-0.3-0.7-0.3c-0.4,0-0.7,0.1-1,0.4s-0.3,0.7-0.3,1.3
		v2.4h-1v-6.8h1v1.7c0,0.3,0,0.6-0.1,0.9h0.1c0.1-0.2,0.3-0.4,0.6-0.5s0.5-0.2,0.9-0.2c1.2,0,1.8,0.6,1.8,1.8V136.5z"/>
	<path fill="#36CC89" d="M301,135.8c0.3,0,0.5,0,0.8-0.1v0.8c-0.1,0-0.3,0.1-0.4,0.1c-0.2,0-0.4,0-0.6,0c-1,0-1.5-0.5-1.5-1.5v-2.6
		h-0.7V132l0.7-0.4l0.3-1h0.6v1.1h1.4v0.8h-1.4v2.6c0,0.2,0.1,0.4,0.2,0.5C300.7,135.7,300.8,135.8,301,135.8z"/>
</g>
<g enable-background="new    ">
	<path fill="#36CC89" d="M16.4,136.5h-1v-6.8h1V136.5z"/>
	<path fill="#36CC89" d="M20,136.6c-0.8,0-1.3-0.2-1.8-0.7s-0.6-1-0.6-1.8c0-0.8,0.2-1.4,0.6-1.9c0.4-0.5,0.9-0.7,1.6-0.7
		c0.6,0,1.1,0.2,1.5,0.6s0.6,0.9,0.6,1.6v0.6h-3.2c0,0.5,0.1,0.8,0.4,1.1s0.6,0.4,1,0.4c0.3,0,0.6,0,0.8-0.1
		c0.2-0.1,0.5-0.1,0.8-0.3v0.8c-0.3,0.1-0.5,0.2-0.8,0.3C20.6,136.6,20.3,136.6,20,136.6z M19.8,132.4c-0.3,0-0.6,0.1-0.8,0.3
		c-0.2,0.2-0.3,0.5-0.4,0.9h2.2c0-0.4-0.1-0.7-0.3-0.9C20.4,132.5,20.1,132.4,19.8,132.4z"/>
	<path fill="#36CC89" d="M25.4,132.5h-1.2v4.1h-1v-4.1h-0.8V132l0.8-0.3v-0.3c0-0.6,0.1-1,0.4-1.3c0.3-0.3,0.7-0.4,1.2-0.4
		c0.4,0,0.7,0.1,1.1,0.2l-0.3,0.8c-0.3-0.1-0.5-0.1-0.7-0.1c-0.2,0-0.4,0.1-0.5,0.2c-0.1,0.1-0.2,0.4-0.2,0.6v0.3h1.2V132.5z"/>
	<path fill="#36CC89" d="M28.1,135.8c0.3,0,0.5,0,0.8-0.1v0.8c-0.1,0-0.3,0.1-0.4,0.1s-0.4,0-0.6,0c-1,0-1.5-0.5-1.5-1.5v-2.6h-0.7
		V132l0.7-0.4l0.3-1h0.6v1.1h1.4v0.8h-1.4v2.6c0,0.2,0.1,0.4,0.2,0.5C27.7,135.7,27.9,135.8,28.1,135.8z"/>
</g>
<g enable-background="new    ">
	<path fill="#36CC89" d="M8.2,22.4c0-0.2,0-0.4-0.1-0.6h0.6c0,0.1,0.1,0.2,0.1,0.3c0,0.1,0,0.3,0,0.4c0,0.7-0.4,1.1-1.2,1.1h-2v0.5
		H5.4l-0.3-0.5l-0.8-0.3v-0.5h0.8v-1h0.6v1h1.9c0.2,0,0.3,0,0.4-0.1C8.1,22.7,8.2,22.6,8.2,22.4z"/>
	<path fill="#36CC89" d="M6.9,17.9c0.6,0,1.1,0.2,1.4,0.5s0.5,0.7,0.5,1.3c0,0.3-0.1,0.6-0.2,0.9S8.2,21,7.9,21.2
		c-0.3,0.1-0.6,0.2-1,0.2c-0.6,0-1-0.2-1.4-0.5C5.2,20.6,5,20.2,5,19.6c0-0.5,0.2-0.9,0.5-1.2C5.9,18.1,6.3,17.9,6.9,17.9z
		 M6.9,20.6c0.8,0,1.3-0.3,1.3-0.9c0-0.6-0.4-0.9-1.3-0.9c-0.8,0-1.2,0.3-1.2,0.9c0,0.3,0.1,0.6,0.3,0.7C6.2,20.5,6.5,20.6,6.9,20.6
		z"/>
	<path fill="#36CC89" d="M8.8,15.2c0,0.5-0.2,0.8-0.5,1.1v0c0.3,0,0.5,0,0.6,0h1.5V17H5.1v-0.6c0.1,0,0.2-0.1,0.5-0.1v0
		C5.2,16,5,15.7,5,15.2c0-0.5,0.2-0.8,0.5-1.1c0.3-0.3,0.8-0.4,1.4-0.4c0.6,0,1.1,0.1,1.4,0.4C8.6,14.4,8.8,14.7,8.8,15.2z
		 M5.7,15.4c0,0.3,0.1,0.5,0.3,0.7c0.2,0.1,0.5,0.2,0.9,0.2h0.1c0.4,0,0.8-0.1,1-0.2c0.2-0.1,0.3-0.4,0.3-0.7c0-0.3-0.1-0.5-0.3-0.6
		c-0.2-0.1-0.5-0.2-0.9-0.2c-0.4,0-0.7,0.1-0.9,0.2C5.8,14.9,5.7,15.1,5.7,15.4z"/>
</g>
<line fill="none" stroke="#36CC89" stroke-miterlimit="10" stroke-dasharray="2" x1="304.9" y1="278.6" x2="304.9" y2="249.8"/>
<line fill="none" stroke="#36CC89" stroke-miterlimit="10" stroke-dasharray="2" x1="262.8" y1="278.6" x2="305.7" y2="278.6"/>
<line fill="none" stroke="#EFEFEF" stroke-miterlimit="10" stroke-dasharray="2" x1="262.8" y1="249.8" x2="305.7" y2="249.8"/>
<rect x="273.4" y="273.1" fill="#FFFFFF" width="20.5" height="11.6"/>
<rect x="299.1" y="258.6" fill="#FFFFFF" width="11.6" height="13.4"/>
<g enable-background="new    ">
	<path fill="#36CC89" d="M280.1,280.9h-0.8v-5.1h0.8V280.9z"/>
	<path fill="#36CC89" d="M282.8,280.9c-0.6,0-1-0.2-1.3-0.5c-0.3-0.3-0.5-0.8-0.5-1.4c0-0.6,0.1-1.1,0.4-1.4s0.7-0.5,1.2-0.5
		c0.5,0,0.9,0.1,1.1,0.4c0.3,0.3,0.4,0.7,0.4,1.2v0.4h-2.4c0,0.4,0.1,0.6,0.3,0.8s0.4,0.3,0.8,0.3c0.2,0,0.4,0,0.6-0.1
		c0.2,0,0.4-0.1,0.6-0.2v0.6c-0.2,0.1-0.4,0.2-0.6,0.2C283.3,280.9,283,280.9,282.8,280.9z M282.7,277.8c-0.2,0-0.4,0.1-0.6,0.2
		c-0.1,0.2-0.2,0.4-0.3,0.7h1.7c0-0.3-0.1-0.5-0.2-0.7S282.9,277.8,282.7,277.8z"/>
	<path fill="#36CC89" d="M286.9,277.8H286v3.1h-0.8v-3.1h-0.6v-0.4l0.6-0.2V277c0-0.4,0.1-0.7,0.3-1c0.2-0.2,0.5-0.3,0.9-0.3
		c0.3,0,0.5,0,0.8,0.1l-0.2,0.6c-0.2-0.1-0.4-0.1-0.5-0.1c-0.2,0-0.3,0.1-0.4,0.2s-0.1,0.3-0.1,0.5v0.2h0.9V277.8z"/>
	<path fill="#36CC89" d="M288.9,280.3c0.2,0,0.4,0,0.6-0.1v0.6c-0.1,0-0.2,0.1-0.3,0.1c-0.1,0-0.3,0-0.4,0c-0.7,0-1.1-0.4-1.1-1.2
		v-2h-0.5v-0.3l0.5-0.3l0.3-0.8h0.5v0.8h1v0.6h-1v1.9c0,0.2,0,0.3,0.1,0.4C288.6,280.3,288.7,280.3,288.9,280.3z"/>
</g>
<g enable-background="new    ">
	<path fill="#36CC89" d="M306.3,268.9c0-0.2,0-0.4-0.1-0.6h0.6c0,0.1,0.1,0.2,0.1,0.3c0,0.1,0,0.3,0,0.4c0,0.7-0.4,1.1-1.2,1.1h-2
		v0.5h-0.3l-0.3-0.5l-0.8-0.3v-0.5h0.8v-1h0.6v1h1.9c0.2,0,0.3,0,0.4-0.1S306.3,269,306.3,268.9z"/>
	<path fill="#36CC89" d="M305.1,264.4c0.6,0,1.1,0.2,1.4,0.5s0.5,0.7,0.5,1.3c0,0.3-0.1,0.6-0.2,0.9s-0.4,0.5-0.7,0.6
		c-0.3,0.1-0.6,0.2-1,0.2c-0.6,0-1-0.2-1.4-0.5s-0.5-0.7-0.5-1.3c0-0.5,0.2-0.9,0.5-1.2C304,264.5,304.5,264.4,305.1,264.4z
		 M305.1,267c0.8,0,1.3-0.3,1.3-0.9c0-0.6-0.4-0.9-1.3-0.9c-0.8,0-1.2,0.3-1.2,0.9c0,0.3,0.1,0.6,0.3,0.7
		C304.4,267,304.7,267,305.1,267z"/>
	<path fill="#36CC89" d="M306.9,261.6c0,0.5-0.2,0.8-0.5,1.1v0c0.3,0,0.5,0,0.6,0h1.5v0.8h-5.3v-0.6c0.1,0,0.2-0.1,0.5-0.1v0
		c-0.4-0.2-0.6-0.6-0.6-1.1c0-0.5,0.2-0.8,0.5-1.1c0.3-0.3,0.8-0.4,1.4-0.4c0.6,0,1.1,0.1,1.4,0.4S306.9,261.2,306.9,261.6z
		 M303.8,261.8c0,0.3,0.1,0.5,0.3,0.7c0.2,0.1,0.5,0.2,0.9,0.2h0.1c0.4,0,0.8-0.1,1-0.2s0.3-0.4,0.3-0.7c0-0.3-0.1-0.5-0.3-0.6
		c-0.2-0.1-0.5-0.2-0.9-0.2c-0.4,0-0.7,0.1-0.9,0.2C303.9,261.3,303.8,261.6,303.8,261.8z"/>
</g>
<line fill="none" stroke="#EFEFEF" stroke-miterlimit="10" stroke-dasharray="2" x1="49.2" y1="249.8" x2="49.2" y2="278.6"/>
<line fill="none" stroke="#36CC89" stroke-miterlimit="10" stroke-dasharray="2" x1="5.8" y1="278.6" x2="5.8" y2="249.8"/>
<line fill="none" stroke="#36CC89" stroke-miterlimit="10" stroke-dasharray="2" x1="47.9" y1="278.6" x2="5" y2="278.6"/>
<rect x="16.8" y="273.1" fill="#FFFFFF" width="20.5" height="11.6"/>
<rect x="0" y="258.6" fill="#FFFFFF" width="11.6" height="13.4"/>
<g enable-background="new    ">
	<path fill="#36CC89" d="M23.6,280.9h-0.8v-5.1h0.8V280.9z"/>
	<path fill="#36CC89" d="M26.3,280.9c-0.6,0-1-0.2-1.3-0.5c-0.3-0.3-0.5-0.8-0.5-1.4c0-0.6,0.1-1.1,0.4-1.4s0.7-0.5,1.2-0.5
		c0.5,0,0.9,0.1,1.1,0.4c0.3,0.3,0.4,0.7,0.4,1.2v0.4h-2.4c0,0.4,0.1,0.6,0.3,0.8s0.4,0.3,0.8,0.3c0.2,0,0.4,0,0.6-0.1
		c0.2,0,0.4-0.1,0.6-0.2v0.6c-0.2,0.1-0.4,0.2-0.6,0.2C26.7,280.9,26.5,280.9,26.3,280.9z M26.1,277.8c-0.2,0-0.4,0.1-0.6,0.2
		c-0.1,0.2-0.2,0.4-0.3,0.7h1.7c0-0.3-0.1-0.5-0.2-0.7C26.6,277.8,26.4,277.8,26.1,277.8z"/>
	<path fill="#36CC89" d="M30.4,277.8h-0.9v3.1h-0.8v-3.1h-0.6v-0.4l0.6-0.2V277c0-0.4,0.1-0.7,0.3-1s0.5-0.3,0.9-0.3
		c0.3,0,0.5,0,0.8,0.1l-0.2,0.6c-0.2-0.1-0.4-0.1-0.5-0.1c-0.2,0-0.3,0.1-0.4,0.2s-0.1,0.3-0.1,0.5v0.2h0.9V277.8z"/>
	<path fill="#36CC89" d="M32.4,280.3c0.2,0,0.4,0,0.6-0.1v0.6c-0.1,0-0.2,0.1-0.3,0.1c-0.1,0-0.3,0-0.4,0c-0.7,0-1.1-0.4-1.1-1.2v-2
		h-0.5v-0.3l0.5-0.3l0.3-0.8h0.5v0.8h1v0.6h-1v1.9c0,0.2,0,0.3,0.1,0.4C32.1,280.3,32.2,280.3,32.4,280.3z"/>
</g>
<g enable-background="new    ">
	<path fill="#36CC89" d="M7.5,268.9c0-0.2,0-0.4-0.1-0.6H8c0,0.1,0.1,0.2,0.1,0.3c0,0.1,0,0.3,0,0.4c0,0.7-0.4,1.1-1.2,1.1H5v0.5
		H4.6l-0.3-0.5l-0.8-0.3v-0.5h0.8v-1H5v1h1.9c0.2,0,0.3,0,0.4-0.1S7.5,269,7.5,268.9z"/>
	<path fill="#36CC89" d="M6.2,264.4c0.6,0,1.1,0.2,1.4,0.5s0.5,0.7,0.5,1.3c0,0.3-0.1,0.6-0.2,0.9s-0.4,0.5-0.7,0.6
		c-0.3,0.1-0.6,0.2-1,0.2c-0.6,0-1-0.2-1.4-0.5s-0.5-0.7-0.5-1.3c0-0.5,0.2-0.9,0.5-1.2C5.2,264.5,5.6,264.4,6.2,264.4z M6.2,267
		c0.8,0,1.3-0.3,1.3-0.9c0-0.6-0.4-0.9-1.3-0.9c-0.8,0-1.2,0.3-1.2,0.9c0,0.3,0.1,0.6,0.3,0.7C5.5,267,5.8,267,6.2,267z"/>
	<path fill="#36CC89" d="M8.1,261.6c0,0.5-0.2,0.8-0.5,1.1v0c0.3,0,0.5,0,0.6,0h1.5v0.8H4.4v-0.6c0.1,0,0.2-0.1,0.5-0.1v0
		c-0.4-0.2-0.6-0.6-0.6-1.1c0-0.5,0.2-0.8,0.5-1.1c0.3-0.3,0.8-0.4,1.4-0.4c0.6,0,1.1,0.1,1.4,0.4S8.1,261.2,8.1,261.6z M4.9,261.8
		c0,0.3,0.1,0.5,0.3,0.7c0.2,0.1,0.5,0.2,0.9,0.2h0.1c0.4,0,0.8-0.1,1-0.2s0.3-0.4,0.3-0.7c0-0.3-0.1-0.5-0.3-0.6
		c-0.2-0.1-0.5-0.2-0.9-0.2c-0.4,0-0.7,0.1-0.9,0.2C5.1,261.3,4.9,261.6,4.9,261.8z"/>
</g>
</svg>
