<svg xmlns="http://www.w3.org/2000/svg" width="300.6" height="287.7"><g fill="none" stroke="#336BDD" stroke-width="1.006" stroke-miterlimit="10"><path d="M15.1 287.2v-1.5"/><path stroke-dasharray="2.9694,2.9694" d="M15.1 282.7V17"/><path d="M15.1 15.5V14"/></g><g fill="none" stroke="#336BDD" stroke-width="1.006" stroke-miterlimit="10"><path d="M285 14v1.5"/><path stroke-dasharray="2.9694,2.9694" d="M285 18.5v265.7"/><path d="M285 285.7v1.5"/></g><g fill="none" stroke="#EFEFEF" stroke-width="1.006" stroke-miterlimit="10"><path d="M256.2 43.2v1.5"/><path stroke-dasharray="2.9845,2.9845" d="M256.2 47.6v207.5"/><path d="M256.2 256.6v1.5h-1.5"/><path stroke-dasharray="3.0321,3.0321" d="M251.6 258.1H47"/><path d="M45.4 258.1h-1.5v-1.5"/><path stroke-dasharray="2.9845,2.9845" d="M43.9 253.6V46.2"/><path d="M43.9 44.7v-1.5h1.5"/><path stroke-dasharray="3.0321,3.0321" d="M48.5 43.2h204.6"/><path d="M254.7 43.2h1.5"/></g><path fill="none" stroke="#36CC89" stroke-width="3" stroke-miterlimit="10" stroke-dasharray="12,8" d="M225.9 74.8c41 41 40.3 108.2-1.6 150s-109 42.6-150 1.6-40.3-108.2 1.6-150 108.9-42.6 150-1.6z"/><path fill="#DCF4DF" d="M73.9 90.5c2.8-2.2 5.4-4.5 7.9-7-1.2-.9-2.3-1.8-3.5-2.7-4.7 7.8-10.7 14.5-17.9 20 .9 1.2 1.8 2.3 2.7 3.5C78.9 90.5 94 75.9 108.3 60.4c-1.2-.9-2.3-1.8-3.5-2.7-16.3 22.1-33.6 43.4-51.7 64-1.9 2.1 1.2 5.3 3.1 3.1 10.6-11.7 21.2-23.4 31.9-35.1C93.4 84 98.7 78.2 104 72.3c2.7-2.9 5.3-5.8 8-8.8 2.8-3.1 5.5-6.9 9.7-8.1-.7-1.2-1.4-2.5-2.2-3.7-24 29.8-49.3 58.6-74.2 87.6-1.7 2 .4 4.6 2.7 3.5 8.4-4 14.7-10.9 21.2-17.3 8.2-8.1 16.2-16.3 24.3-24.6 15.6-16.1 30.8-32.5 45.7-49.2-1.2-.9-2.3-1.8-3.5-2.7-12.2 19.7-26.5 37.9-41.8 55.2-7.5 8.5-15.3 16.8-23.3 25-7.8 8.1-16.5 15.8-22.3 25.6-1.2 2 1.1 4 3 3C96 136.1 115.6 86.5 152 55.2l-3.1-3.1c-18.5 18.4-33.6 39.8-49.4 60.4-8.1 10.5-16.5 20.8-25.7 30.4-4.6 4.8-9.5 9.3-14.5 13.7-4.3 3.8-8 7.8-10.1 13.2-.8 2.1 1.7 3.2 3.3 2.5 52.8-22.7 60-90.8 106.8-120.4-.9-1.2-1.8-2.3-2.7-3.5-17.2 22.2-35 44.1-51.4 66.8-7.8 10.8-14.5 22.4-20.1 34.4-2.8 6.1-5.8 11.5-10.7 16.1-4.4 4.2-9.9 7.3-15.2 10.4-2.5 1.5-.3 5.1 2.2 3.8 11.3-5.4 19-15.2 26.1-25.2 8.9-12.4 18.1-24.5 28-36.1 20.1-23.6 42.3-45.5 64.3-67.3 1.7-1.6-.1-4.2-2.2-3.7-20.1 4.4-32.1 25.3-43.3 40.6-14.8 20.3-29.1 41.1-42.8 62.2-1.6 2.4 2.3 4.6 3.8 2.2 12.7-19.5 25.8-38.6 39.4-57.5 6.5-9.1 13-18.3 20.2-26.9 6.4-7.6 14-14.2 23.8-16.4-.7-1.2-1.4-2.5-2.2-3.7-21.2 21-42.4 42-62 64.5-9.7 11.1-18.9 22.7-27.5 34.7-7.9 11-15.5 22.7-28.1 28.7.7 1.3 1.5 2.6 2.2 3.8 9.7-5.8 18.7-11.8 24.4-21.9 3.2-5.7 5.6-11.8 8.7-17.6 3.4-6.4 7.2-12.6 11.3-18.6 8-11.9 17.2-23 26-34.3 9.3-12 18.6-24 27.9-36.1 1.4-1.9-.4-5-2.7-3.5-46.7 29.7-54.3 97.9-106.8 120.4 1.1.8 2.2 1.7 3.3 2.5 2.4-6.1 7.8-10.2 12.6-14.5 4.6-4.1 8.9-8.5 13.2-12.9 8.6-9.1 16.4-18.9 24-28.8 15.7-20.3 30.5-41.4 48.7-59.5 2.1-2.1-1-5-3.1-3.1-36.1 31.1-55.5 80.4-99.8 101.9l3 3c5.9-9.9 14.9-17.7 22.8-26 7.9-8.2 15.7-16.6 23.2-25.1C113 88.5 127 70.4 139.1 50.9c1.3-2.1-1.8-4.6-3.5-2.7-14.5 16.2-29.3 32.2-44.4 47.8-7.5 7.8-15.2 15.6-22.9 23.3-7 7.1-13.9 15-23.1 19.3.9 1.2 1.8 2.3 2.7 3.5 24.9-29.1 50.2-57.8 74.2-87.6 1.3-1.6.2-4.4-2.2-3.7-6.2 1.7-10.2 7.6-14.3 12.1-5.8 6.3-11.5 12.7-17.3 19C77 95.5 65 108.6 53.1 121.8l3.1 3.1C74.6 104 92.1 82.4 108.6 60c1.5-2.1-1.8-4.5-3.5-2.7-14.3 15.4-29.4 30.1-45.2 43.9-1.9 1.6.7 5 2.7 3.5 7.8-6 14.4-13.2 19.5-21.6 1.3-2.2-1.7-4.5-3.5-2.7-2.5 2.5-5.1 4.8-7.9 7-2.2 1.7.9 4.8 3.2 3.1z"/><path fill="#DCF4DF" d="M58.9 195.7c22.5-23.1 44.9-46.4 67.2-69.7 11.4-11.9 22.7-23.8 34-35.8 9.9-10.4 20.8-20.6 27.7-33.4 1.3-2.4-1.7-4.5-3.7-2.8-13.9 11.6-28.1 22.8-41.3 35.2-6 5.6-11.6 11.7-16.5 18.2-5.6 7.3-9.5 15.6-13.6 23.7-7.7 15.4-18 29.1-30.6 40.8-9.3 8.6-26 16.5-26.3 31 0 2.2 2.5 2.8 4 1.7 27.8-21.9 50.9-47.7 72.5-75.5 20.2-25.8 40.6-52.5 68.6-70.3-.9-1.2-1.9-2.4-2.8-3.7-12.2 11.5-22.4 23-30.1 38-8 15.5-19 28.7-30.5 41.8C115 160.8 90 184.5 63.3 206c-1.9 1.5.1 4.5 2.3 3.9 14.1-4.1 25.2-14 35.7-24 12.6-12 24.9-24.4 37-37 23.6-24.8 45.8-50.8 66.8-77.8-1.2-.9-2.4-1.9-3.7-2.8-6.7 13.2-13.6 26.5-22 38.7-9.6 13.8-21.9 25.5-33.6 37.5-23.3 24-46.7 48-70 72-1.8 1.8.6 5.3 2.8 3.7 25.7-18.5 48.3-40.7 69.9-63.7 23-24.6 45.4-49.8 68-74.8-1.3-.8-2.6-1.5-3.9-2.3-7.8 33.2-38.1 55-61.2 77.5-24.3 23.7-46.8 49.2-67.6 76-1.5 1.9.5 5.4 2.8 3.7 24.8-19 46.4-41.5 67.6-64.3 10.8-11.6 21.5-23.2 32.6-34.5 11.4-11.6 23.5-25.5 39-31.7-.8-1.3-1.5-2.6-2.3-3.9-8.7 7-17.4 14-24.9 22.2-7.6 8.3-14 17.7-21.2 26.5-14.4 17.7-30.3 34.2-47.4 49.5-2.2 2 1.1 5.3 3.3 3.3 17-15.3 32.9-31.8 47.4-49.5 7.2-8.7 13.7-18 21.2-26.5 7.4-8.4 16.2-15.3 24.9-22.2 1.8-1.4-.1-4.7-2.3-3.9-13.8 5.5-24.4 16.4-34.8 26.6-11.7 11.5-22.9 23.5-34.1 35.5-22.5 24.2-45.1 48.5-71.5 68.7.9 1.2 1.9 2.4 2.8 3.7 21.5-27.8 45-54.1 70.3-78.6 23.1-22.4 52.1-44 59.8-77 .5-2.2-2.3-4.1-3.9-2.3-22.2 24.5-44.3 49.2-66.8 73.4-21.6 23.3-44.3 45.7-70.2 64.3.9 1.2 1.9 2.4 2.8 3.7 23.8-24.5 47.6-48.9 71.4-73.4 11.1-11.4 22.5-22.7 31.9-35.6 9.1-12.5 16.1-26.4 23.1-40.2 1.1-2.2-2-5-3.7-2.8-20.2 26-41.7 51.1-64.3 75.1-11.1 11.8-22.5 23.3-34.1 34.5-11.4 11.1-23.3 23.3-39 27.9.8 1.3 1.5 2.6 2.3 3.9 26.3-21.1 50.7-44.5 73-69.7 10.8-12.3 21.9-24.8 29.8-39.2 4.3-7.8 8-15.7 13.5-22.8 5.5-7 12-13.1 18.5-19.2 1.9-1.8-.6-5.1-2.8-3.7-27.5 17.5-47.8 43.1-67.5 68.5-22.4 28.7-45.9 55.4-74.5 78 1.3.6 2.7 1.1 4 1.7.2-7.7 7-13.1 12.5-17.5 5.9-4.8 11.8-9.4 17.2-14.8 11.4-11.3 20.3-24.5 27.4-38.8 3.8-7.6 7.7-15.1 12.7-22.1 5-6.8 11-12.8 17.1-18.5 12.8-11.9 26.7-22.8 40.1-34-1.2-.9-2.4-1.9-3.7-2.8-6.9 13-18.3 23.3-28.3 33.9-10.9 11.5-21.7 22.9-32.7 34.4-22.4 23.6-44.8 46.8-67.3 70-2.1 2.1 1.2 5.4 3.4 3.3z"/><path fill="#DCF4DF" d="M106.8 230.6c11.4-7.9 20.7-18.6 30.3-28.5 10.9-11.2 22-22.2 33-33.2 22.6-22.5 45.6-44.6 68.8-66.5-1.3-.8-2.6-1.5-3.9-2.3-.6 3.8-3 6.3-5.5 9l-9 9.9c-5.6 6.1-11.2 12.2-16.9 18.2-11.3 12.1-22.8 24-34.4 35.8s-23.4 23.4-35.3 34.9l-18 17.1c-4.9 4.6-9.8 8.9-12.3 15.3-.5 1.4.8 3 2.3 3 13.8 0 24.7-8.6 34.1-17.7 5.9-5.7 11.6-11.7 17.4-17.5 5.7-5.7 11.6-11.3 16.6-17.7 4.7-6.2 8-13 13.3-18.9 5.8-6.6 11.9-13 18-19.4 11.8-12.3 24.1-24.3 36.6-35.8l-3.3-3.3c-23.9 24.6-47.8 49.1-73.2 72-21.5 19.4-44.3 38.8-56.6 65.6-.7 1.5.1 3.6 2 3.5 7-.2 12-4.5 17.3-8.6 6.3-4.9 12.6-9.9 18.8-15 12.8-10.5 25.2-21.5 36.9-33.2 11.4-11.4 21.9-23.6 31.4-36.6s16.2-30 29.5-39.6c-.9-1.2-1.9-2.4-2.8-3.7-10.2 11.4-22.2 20.6-31.8 32.5-9.2 11.3-17 23.7-25.7 35.3-16.3 21.8-41.6 38-51.2 64.4-.6 1.7 1.3 3.4 2.9 2.9 11-3.4 19.8-10.6 28-18.5 10-9.6 19.9-19.4 29.4-29.6 17.9-19.2 33-41.1 52.8-58.5 2-1.8-.6-5-2.8-3.7-16.5 10.1-28.4 25.4-41 39.6-6.8 7.7-14.2 14.5-22.1 21.2-7 5.9-12.9 13.3-13.2 22.8 0 1.2 1.1 2.4 2.3 2.3 19.8-1.2 33.8-15.5 45.5-30 14-17.3 26.8-35.6 39.8-53.6 1.6-2.1-2-4.9-3.7-2.8-21.7 27.1-45.1 52.8-69.9 77-2.2 2.1 1.1 5.4 3.3 3.3 24.8-24.2 48.2-49.9 69.9-77-1.2-.9-2.4-1.9-3.7-2.8-11.7 16.1-23.3 32.4-35.6 48.2-11.6 14.9-25.3 31.9-45.7 33.1l2.3 2.3c.3-10.2 8.5-16.8 15.7-22.8 7-5.8 13.2-12.3 19.2-19.1 12-13.6 23.4-28.1 39-37.7-.9-1.2-1.9-2.4-2.8-3.7-18.9 16.5-33.5 37.1-50.2 55.7-9.1 10-18.8 19.5-28.4 29-8.6 8.5-17.6 17.1-29.5 20.7l2.9 2.9c4.7-12.9 13.7-23.1 23.2-32.7 9.2-9.4 18.5-18.6 26.5-29.1 9-11.7 16.8-24.2 26-35.8 9.5-12 21.7-21.1 31.8-32.5 1.7-1.9-.6-5.3-2.8-3.7-11.6 8.3-17.7 21.3-25.4 32.9-8.9 13.6-19.4 26.1-30.6 37.9-11 11.6-22.8 22.4-35 32.7-6.1 5.2-12.3 10.2-18.6 15.2-6.1 4.9-13.8 13.3-22 13.6.7 1.2 1.3 2.3 2 3.5 12.4-27 35.5-46.3 57.1-65.8 25-22.6 48.5-46.8 72-70.9 2.1-2.2-1.1-5.3-3.3-3.3-11.7 10.7-23 21.7-34 33.1-10.6 10.9-22.4 21.9-30.2 35.1-8 13.5-20.5 24-31.5 35-10.1 10.2-21.5 22.6-37 22.5.8 1 1.5 2 2.3 3 2.7-7 9.9-12.1 15.2-17.1 6-5.7 12-11.4 17.9-17.2 11.9-11.5 23.6-23.2 35.2-35 11.6-11.8 23-23.8 34.3-35.9 5.6-6 11.2-12.1 16.8-18.3 4.4-4.8 10.8-10 11.8-16.7.3-2.2-2.1-4-3.9-2.3-22.3 20.9-44.3 42.2-66.1 63.7-11.1 11-22.1 22.1-33.1 33.2-10.2 10.4-20 22.2-32.1 30.6-2.1 1.8.2 5.8 2.7 4.1z"/><path fill="#DCF4DF" d="M167.6 243.1c27.3-28.8 56.1-56.1 86.3-81.7-1.2-.9-2.4-1.9-3.7-2.8-18.8 31.7-46.1 56.9-73 81.5-2 1.8.6 5 2.8 3.7 12.2-7 22-15.8 29.8-27.5 8-12.1 14.9-26.6 29-32.5l-2.9-2.9c-4.8 18.7-15.5 35.1-30.6 47.2-2.4 1.9 1 5.2 3.3 3.3 15.6-12.5 26.7-29.8 31.8-49.2.4-1.5-1.1-3.6-2.9-2.9-12.6 5.3-20.3 16.2-27.3 27.5-4.1 6.6-8.2 13.1-13.5 18.8-5.5 5.8-12.2 10.4-19.2 14.3.9 1.2 1.9 2.4 2.8 3.7 27.3-24.9 54.8-50.4 73.8-82.5 1.4-2.4-1.7-4.5-3.7-2.8-30.2 25.7-59 52.9-86.3 81.7-1.9 1.9 1.4 5.2 3.5 3.1z"/><path fill="#DCF4DF" d="M161 251.6c12.4-7.2 24.6-14.8 36.5-22.8 2.1-1.4.8-5.3-1.8-4.3-3.3 1.4-6.7 2.7-10 4.1.8 1.3 1.5 2.6 2.3 3.9 2.3-2.5 4.3-5.1 6.1-8 2.1-3.5 3.3-7.6 6.7-10.2 2.4-1.8.1-5.8-2.4-4-6.3 4.7-8.4 13.2-13.8 18.9-1.5 1.6 0 4.8 2.3 3.9 3.3-1.4 6.7-2.7 10-4.1-.6-1.4-1.2-2.8-1.8-4.3-11.9 8-24.1 15.6-36.5 22.8-2.6 1.6-.2 5.6 2.4 4.1z"/><g fill="#36CC89"><path d="M104.6 156c2-1.5 4-5.2 6-11.3 1.2-3.5 2-6.7 2.4-9.5.1-.8.2-1.4.2-1.8-.5 0-.9.1-1.3.4l-1.3.7c-.4.2-.8 0-1.4-.5-.6-.5-.9-.9-.8-1.3s.2-.6.6-.9c.3-.2.7-.4 1.2-.6.9-.3 1.7-.5 2.4-.5.6 0 1.2 0 1.7.1s.9.3 1.3.5c.9.5 1.4 1.3 1.4 2.3 0 1.7-.5 4.6-1.7 8.7-1.9 6.5-4.1 11-6.7 13.7-.7.7-1.4 1.2-2.2 1.5-.2.1-.4.1-.6.1-.2 0-.4 0-.6-.1-.2-.1-.3-.2-.4-.3-.2-.2-.4-.5-.4-.7-.1-.2 0-.4.2-.5zM130.5 143c-.7 0-1.9 1-3.7 2.9-1.3 1.5-2.3 2.6-2.9 3.4l-1.5 2c-.7 1.3-1.2 2.3-1.6 3.2l-.9 2c-.2.5-.5.8-.6 1-.2.2-.4.3-.7.3-.3 0-.6-.1-.9-.2-.3-.1-.5-.3-.7-.4-.4-.4-.7-.8-.7-1.2 0-.2.1-.5.4-1l.7-1.4c.2-.4.4-.9.7-1.6l1-2.4c1.4-3.4 2-5.6 2-6.6 0-.5-.2-.9-.5-1.2l-.3-.2c-.1-.1-.2-.2-.2-.4s.1-.4.2-.6c.2-.2.4-.3.6-.5.5-.3 1-.4 1.6-.4s.9.1 1.2.2c.3.1.6.3.8.5.4.4.7.8.7 1.3s-.1.9-.2 1.3-.3.9-.4 1.3c-.2.5-.4.9-.6 1.3-.5 1-.7 1.6-.9 1.8-.1.2-.1.3-.1.3 2.1-2.7 3.4-4.3 3.8-4.8.9-1 1.6-1.7 2.1-2.1.9-.7 1.8-1 2.6-1s1.5.3 1.9.8c.5.5.7 1.2.7 2 0 .7-.2 1.6-.6 2.5-.4 1-.6 1.7-.7 2l2.5-3.3 1.4-1.7c.8-1 1.6-1.6 2.2-1.9.6-.3 1.2-.4 1.6-.4.4 0 .8.1 1.2.2.4.1.7.4 1 .6.6.6.9 1.3.9 2.2 0 .9-.2 1.8-.6 2.8-.4.9-.8 1.7-1.1 2.3l-.9 1.8c-.8 1.8-1.3 3.2-1.3 4.1 0 .6.3.9.8.9s.9-.1 1.3-.3c.4-.2.7-.3.8-.3.2 0 .4.1.4.4 0 1-.5 1.9-1.6 2.6-.7.5-1.3.7-1.9.7-.6 0-1-.1-1.4-.2-.4-.1-.7-.4-1-.7-.6-.7-1-1.5-1-2.5s.1-1.9.4-2.8c.3-.8.6-1.7.9-2.4.3-.8.7-1.5 1-2.2.3-.7.6-1.2.8-1.6.4-.8.6-1.4.6-1.8 0-.4-.2-.7-.7-.7-.6 0-1.7 1-3.3 3.1-1.2 1.6-2.1 2.7-2.5 3.4l-1.2 1.7c-.7 1.3-1.2 2.3-1.5 3.2l-.9 2c-.2.5-.4.8-.6 1-.2.2-.4.3-.7.3s-.6 0-.8-.1-.5-.2-.7-.4c-.4-.3-.7-.7-.7-1.1s.1-.9.4-1.5c.2-.6.6-1.4.9-2.2l2.4-5.1c.9-1.9 1.3-3.1 1.3-3.6 0-.3-.2-.6-.7-.6zm1.7 4.9c0-.1 0-.1 0 0zM159.5 153c0 1.1.4 1.6 1.1 1.6.5 0 .9-.1 1.3-.2.3-.2.6-.2.7-.2.2 0 .4.1.4.4 0 1-.5 1.8-1.5 2.5-1.1.7-2.2.9-3.3.6-.7-.3-1.3-.8-1.7-1.7-.2-.4-.3-.9-.3-1.2 0-.6.1-1.2.2-1.9-1.1 2.2-2.4 3.7-4 4.5-.6.3-1.3.5-2 .5s-1.3-.1-1.9-.4c-.5-.3-1-.7-1.3-1.2-.7-1.1-1.1-2.4-1-4.1.1-2 .7-4 1.8-6 1-1.8 2.4-3.3 4-4.5 1.6-1.2 3.1-1.8 4.5-1.8s2.5.6 3.4 1.9c.8-1.3 1.5-1.9 2.1-1.9.7 0 1.1.1 1.5.4.6.5.9.9.7 1.2-2.9 5.9-4.4 9.6-4.4 11-.2 0-.3.3-.3.5zm-9.5.1c0 1.4.4 2.1 1.3 2.1.7 0 1.5-.6 2.5-1.7 1.4-1.7 2.7-4 3.8-6.8.4-.9.7-1.8.9-2.7 0-.8-.4-1.4-1-1.7-.2-.1-.5-.2-.9-.2s-.9.1-1.4.4c-.5.3-1.1.7-1.6 1.2s-1 1.1-1.4 1.8c-.4.7-.8 1.5-1.2 2.3-.7 1.8-1 3.5-1 5.3zM175.4 153.8c-1.7 2.6-3.7 3.9-5.8 3.9-1.9 0-3.2-1-3.9-3.1-.2-.7-.3-1.6-.3-2.6s.1-2 .4-3.1c.3-1 .7-2 1.2-2.9.5-.9 1.1-1.8 1.8-2.5.7-.8 1.4-1.4 2.2-2 1.6-1.2 3.2-1.8 4.9-1.8s2.8.8 3.4 2.3c.1-.1.3-.3.4-.5.1-.2.2-.3.4-.4.3-.3.6-.4.8-.4.2 0 .5 0 .7.1.2.1.5.2.7.3.6.3.8.6.6.9-.6 1.4-1.2 2.7-1.6 4l-2.5 8.1c-2 6.2-4.6 10.2-7.6 12-.8.5-1.5.8-2.1.8-.6.1-1 .1-1.3 0-.3-.1-.5-.2-.7-.3-.4-.3-.7-.5-.7-.8 0-.4.3-.6.8-.7s1.1-.3 1.7-.6c.6-.3 1.1-.7 1.7-1.2 2.1-2 3.7-5.2 4.8-9.5zm-5.1-6c-.3.8-.5 1.7-.7 2.5-.2.9-.3 1.6-.3 2.1 0 .6 0 1 .1 1.3 0 .3.1.5.2.8.2.5.6.7 1 .7s.9-.2 1.3-.5.9-.7 1.4-1.3c.5-.6 1-1.2 1.4-1.9.5-.7.9-1.5 1.4-2.4 1-1.9 1.6-3.7 2-5.5-.1-.3-.3-.6-.6-1-.7-.6-1.2-.9-1.8-.9-.5 0-1.1.2-1.6.5s-1 .8-1.5 1.3c-.5.6-.9 1.2-1.3 1.9-.3.8-.7 1.6-1 2.4zM184.1 151.5c0-1 .2-2 .5-2.9s.7-1.8 1.2-2.7 1-1.7 1.7-2.4 1.4-1.4 2.1-2c1.6-1.2 3.3-1.8 5-1.8 2 0 3.3.8 3.9 2.4.2.6.3 1.2.3 2s-.2 1.4-.4 2.1c-.3.6-.7 1.2-1.1 1.7-.5.5-1.1 1-1.7 1.4s-1.4.8-2.2 1.1c-1.6.6-3.4.9-5.2.9 0 .2-.1.4-.1.7 0 .3 0 .7.1 1.1s.2.7.4 1.1c.4.7 1 1 1.8 1 1.3 0 2.6-.4 3.9-1.2.4-.3.8-.5 1.1-.8s.5-.4.7-.4c.2 0 .4.1.5.4s.2.5.2.8c0 .6-.2 1.1-.5 1.6-1.4 1.4-3.6 2.2-6.5 2.2-1.7 0-3-.5-4.1-1.5-1.1-1.2-1.7-2.8-1.6-4.8zm10.1-9.5c-1.2 0-2.4.8-3.5 2.5-.9 1.4-1.7 3.1-2.3 5.1 1.9-.2 3.6-1 5-2.3 1.3-1.2 1.9-2.4 1.9-3.6s-.3-1.7-1.1-1.7z"/></g><g fill="#36CC89"><path d="M257.8 2.5c0-.7-.5-1-1.4-1-.6 0-1.1.2-1.7.5-.2.1-.3.2-.4.3-.1.1-.2.1-.3.1s-.2 0-.2-.1-.1-.1-.2-.2c-.2-.3-.2-.5.1-.7.4-.4 1.1-.6 2.1-.7h.7c.3 0 .6.1.9.2s.6.3.8.4c.4.4.7.8.7 1.4 0 .7-.3 1.3-.9 1.9-.5.5-1.2.8-1.9 1 .2.2.4.4.6.7l.3.7c.4.7.7 1 1 1.1h.5s.1 0 .1.1v.2c0 .1-.1.2-.2.2-.2.2-.5.2-.7.2-.3 0-.5-.1-.6-.2s-.3-.2-.4-.3c-.1-.1-.2-.3-.3-.5-.1-.2-.2-.3-.3-.5l-.2-.5c-.1-.2-.1-.3-.2-.4-.1-.1-.1-.2-.2-.3 0-.1-.1-.2-.2-.3-.1-.2-.3-.3-.4-.3-.7 1.9-1.5 2.9-2.2 3.2h-.4c-.1 0-.1-.1-.1-.1-.1-.1-.1-.1-.1-.2s0-.1.1-.2c.5-.4 1.1-1.5 1.7-3.3l.3-.9c.4-1 .7-1.6.9-1.9.1-.1.2-.1.3-.1h.2c.1 0 .1.1.2.1.1.1.2.2.2.3s0 .2-.1.3c0 .1-.1.2-.2.4-.2.4-.3.8-.4 1.1l-.4.8c.7-.1 1.4-.4 1.9-.9.7-.4 1-1 1-1.6zM259.2 6.9c0-.3.1-.6.2-.9.1-.3.2-.5.3-.8s.3-.5.5-.7l.6-.6c.5-.4 1-.6 1.5-.6.6 0 1 .2 1.2.7.1.2.1.4.1.6 0 .2 0 .4-.1.6-.1.2-.2.4-.3.5-.1.2-.3.3-.5.4s-.4.2-.7.3c-.5.2-1 .3-1.6.3v.5c0 .1.1.2.1.3.1.2.3.3.5.3.4 0 .8-.1 1.2-.4.1-.1.2-.2.3-.2.1-.1.2-.1.2-.1.1 0 .1 0 .2.1 0 .1.1.2.1.3 0 .2-.1.3-.2.5-.4.4-1.1.7-1.9.7-.5 0-.9-.2-1.2-.5-.3-.2-.5-.7-.5-1.3zm3.1-2.8c-.4 0-.7.2-1 .7-.3.4-.5.9-.7 1.5.6-.1 1.1-.3 1.5-.7.4-.4.6-.7.6-1.1s-.2-.4-.4-.4zM263.9 7.8c0-.1 0-.2.1-.3 0-.1.1-.2.2-.2.1-.1.3-.2.5-.2.1 0 .2.1.2.2 0 .4.1.6.4.7.1.1.2.1.3.1h.2c.1 0 .1-.1.2-.1.1-.1.2-.2.2-.4s0-.3-.1-.4c-.1-.1-.1-.2-.2-.4l-.3-.4c-.4-.6-.6-1.1-.6-1.5 0-.4.2-.7.5-1 .4-.4.8-.5 1.4-.5.5 0 .9.1 1.2.4.2.2.4.4.4.7 0 .3-.1.5-.3.7-.2.1-.4.2-.6.2-.1 0-.1-.1-.2-.1s-.1-.1 0-.2v-.3c0-.1 0-.2-.1-.3s-.1-.1-.1-.2c-.1-.1-.2-.2-.4-.2h-.3c-.1 0-.2.1-.2.1-.1.1-.2.3-.2.5s0 .3.1.5c.1.1.1.3.2.4.1.1.2.3.3.4.1.1.2.3.3.4.2.3.3.7.3.9 0 .3-.1.5-.2.7-.1.2-.3.3-.4.5-.4.3-.8.4-1.3.4-.4 0-.8-.1-1.1-.3-.3-.3-.4-.6-.4-.8zM270.4 7.7c.1 0 .1.1.1.2 0 .2-.1.3-.2.5-.2.2-.5.4-.8.4-.4 0-.7-.2-.8-.5-.1-.1-.1-.3-.1-.4s0-.3.1-.5.1-.4.2-.6c.1-.2.2-.4.3-.7l.3-.7c.2-.5.3-.8.3-1v-.3l-.1-.1-.1-.1-.1-.1c0-.1 0-.1.1-.2 0-.1.1-.1.2-.1.2-.1.3-.1.5-.1.5 0 .8.1.8.4 0 .3-.1.7-.2 1.1-.2.4-.3.7-.4 1l-.5.6c-.2.5-.3.9-.3 1.1 0 .2.1.2.2.2s.3 0 .3-.1c.1.1.2 0 .2 0zm1.1-5.5c-.1.1-.2.1-.3.2s-.2.1-.3.1h-.3c-.1 0-.2-.1-.2-.2-.1-.2-.2-.3-.2-.5s0-.3.1-.4c.1-.1.1-.2.2-.2.2-.1.3-.2.5-.2h.3l.2.1c.2.1.3.3.3.4 0 .2 0 .3-.1.4-.1.1-.2.2-.2.3zM272.6 7.9c.6-.2 1.1-.3 1.6-.3.3 0 .6.1.8.3.2.2.2.4.2.7 0 .1 0 .1-.1.2 0 0-.1.1-.2.1s-.1 0-.2-.1c-.1 0-.2-.1-.3-.1-.7-.3-1.4-.3-2.1.1-.1 0-.2.1-.3.1h-.2c-.1 0-.2-.1-.3-.2-.2-.2-.3-.3-.2-.5l.3-.6c.1-.2.3-.4.5-.6l.6-.6c.5-.5.9-.8 1.1-1 .5-.5.9-.7 1-.9.1-.1.2-.2.2-.3-.3.1-.7.2-1.2.3h-.3c-.4 0-.6-.1-.8-.2-.2-.1-.2-.3-.2-.6 0-.1 0-.2.1-.2s.1-.1.2-.1.1 0 .2.1c.1 0 .2.1.4.1.4.1.7.2 1 .2h.6c.1 0 .2-.1.3-.1l.2-.1h.2c.1 0 .1 0 .2.1l.2.2c.1.1.2.3.2.4 0 .1-.1.3-.2.5s-.3.4-.6.6c-.2.2-.5.4-.8.7l-.8.7c-.7.3-1.1.7-1.3 1.1zm-.1.1zM276.3 6.9c0-.3.1-.6.1-.9s.2-.5.3-.8c.1-.3.3-.5.5-.7l.6-.6c.5-.4 1-.6 1.5-.6.6 0 1 .2 1.2.7.1.2.1.4.1.6 0 .2 0 .4-.1.6-.1.2-.2.4-.3.5-.1.2-.3.3-.5.4-.2.1-.4.2-.7.3-.5.2-1 .3-1.6.3v.5c0 .1.1.2.1.3.1.2.3.3.5.3.4 0 .8-.1 1.2-.4.1-.1.2-.2.3-.2.1-.1.2-.1.2-.1.1 0 .1 0 .2.1 0 .1.1.2.1.3 0 .2-.1.3-.2.5-.4.4-1.1.7-1.9.7-.5 0-.9-.2-1.2-.5-.3-.2-.4-.7-.4-1.3zm3-2.8c-.4 0-.7.2-1 .7-.3.4-.5.9-.7 1.5.6-.1 1.1-.3 1.5-.7.4-.4.6-.7.6-1.1s-.1-.4-.4-.4zM284.5 7.2v-.6c0-.2.1-.4.1-.6 0-.2.1-.4.2-.6l.6-1.8c.5-1.4.7-2.6.9-3.4 0-.3.2-.4.4-.4.1 0 .3 0 .4.1.2.1.3.3.3.5s0 .4-.1.6-.1.4-.2.7c-.1.2-.1.5-.2.8-.2.7-.4 1.2-.5 1.5l-.3.8c.3-.5.5-.8.7-1 .4-.3.8-.5 1.2-.5.6 0 1 .3 1.2.9.1.2.1.5.1.8 0 .3 0 .6-.1 1-.1.3-.2.6-.4.9-.2.3-.4.5-.6.7-.2.2-.4.4-.7.6-.5.3-1 .5-1.5.5s-.8-.1-1.1-.4c-.2-.3-.4-.6-.4-1.1zm1.5.9c.3 0 .7-.1 1-.4.5-.4.9-1.1 1-1.9.1-.3.1-.5.1-.8s0-.5-.1-.6-.2-.2-.3-.2c-.1 0-.3.1-.4.2-.1.1-.3.3-.5.4-.2.2-.3.4-.5.6s-.3.5-.4.7c-.3.6-.4 1-.4 1.4s.1.6.5.6zM290.5 8.4c-.1-.1-.3-.3-.3-.5s-.1-.5-.1-.8c0-.3 0-.6.1-.9l.3-.9c.1-.3.3-.5.5-.8.2-.2.4-.5.6-.6.5-.4 1-.6 1.6-.6.7 0 1.2.3 1.4.9.2.5.2 1 0 1.6-.1.6-.4 1.1-.8 1.6s-.8.8-1.4 1c-.3.1-.5.2-.8.2s-.5 0-.7-.1-.2 0-.4-.1zm1-2.5c-.1.3-.2.5-.2.8-.1.3-.1.5-.1.8 0 .2 0 .4.1.6.1.1.2.2.3.2s.3-.1.5-.2.3-.3.4-.4c.1-.2.3-.4.4-.6.1-.2.2-.5.3-.7.2-.6.3-1 .3-1.5 0-.4-.1-.6-.2-.7-.1 0-.1-.1-.3-.1-.1 0-.2.1-.4.2s-.3.2-.4.4c-.1.2-.3.4-.4.6s-.2.3-.3.6zM295.7 8.6c-.1.1-.3.2-.3.2h-.2c-.1 0-.1-.1-.1-.1l-.2-.2c0-.1 0-.1.1-.2l.3-.3c.6-.5 1-1 1.4-1.5-.3-.8-.4-1.5-.4-2.1 0-.3.1-.5.4-.7.2-.2.4-.3.7-.3.1 0 .1 0 .1.1V4.7c0 .4.1.6.1.8l.2-.3c.4-.6.9-1.1 1.4-1.5.3-.2.6-.3.8-.3.2 0 .3 0 .5.1s.3.2.2.3h-.1l-.1.1c-.5.2-1.2.8-2.1 1.7-.2.2-.3.4-.5.6l.2.6c.2.7.5 1.1.8 1.1.1 0 .2 0 .3-.1l.2-.1h.1c.1 0 .1 0 .1.1 0 .3-.2.6-.5.8-.2.1-.4.2-.7.2-.5 0-1-.5-1.4-1.6-.5.6-.9 1.1-1.3 1.4z"/></g><g fill="#336BDD"><path d="M226.5 279.8v-.2c0-1 .3-2 .8-2.9.4-.8 1-1.5 1.7-2s1.3-.8 2-.8c.5 0 .9.2 1.1.5.2.3.4.6.4 1.1 0 .5-.2 1-.6 1.5-.2.3-.4.5-.7.6-.1.1-.2.1-.3.1-.1 0-.2 0-.3-.1-.1 0-.2-.1-.2-.2-.1-.1-.2-.3-.2-.4 0-.1 0-.2.1-.2.6-.4.9-.8 1.2-1.3.1-.2.1-.3.1-.5 0-.3-.2-.5-.5-.5-.5 0-1 .3-1.5.8s-.9 1.1-1.2 1.9c-.3.8-.5 1.5-.6 2.1v.2c0 .8.2 1.3.5 1.5.1.1.3.1.4.1s.3 0 .5-.1c.1 0 .3-.1.4-.2.2-.1.5-.3.9-.6.1-.1.2-.1.3 0 .1.1.1.2.1.3 0 .2 0 .3-.1.4-.1.1-.1.2-.3.3-.1.1-.3.2-.5.3-.4.2-.9.3-1.3.3s-.8-.1-1-.2-.5-.2-.6-.4c-.4-.1-.6-.7-.6-1.4zM232.5 281.6c-.1-.1-.3-.3-.3-.5-.1-.2-.1-.5-.1-.8 0-.3 0-.6.1-.9l.3-.9c.1-.3.3-.5.5-.8s.4-.5.6-.6c.5-.4 1-.6 1.6-.6.7 0 1.2.3 1.4.9.2.5.2 1 0 1.6-.1.6-.4 1.1-.8 1.6s-.8.8-1.4 1c-.3.1-.5.2-.8.2-.3 0-.5 0-.7-.1s-.2.1-.4-.1zm1-2.5c-.1.3-.2.5-.2.8s-.1.5-.1.8c0 .2 0 .4.1.6.1.1.2.2.3.2.2 0 .3-.1.5-.2s.3-.3.4-.4.3-.4.4-.6c.1-.2.2-.5.3-.7.2-.6.3-1 .3-1.5 0-.4-.1-.6-.2-.7-.1 0-.1-.1-.3-.1-.1 0-.2.1-.4.2-.1.1-.3.2-.4.4-.1.2-.3.4-.4.6-.1.1-.2.4-.3.6zM237.5 281.9l-.2-.2c-.1-.1-.1-.1-.1-.2v-.2c0-.1.1-.1.1-.2.7-1.7 1.1-2.9 1.1-3.5 0-.2-.1-.3-.2-.4l-.1-.1v-.1c0-.1 0-.1.1-.2 0-.1.1-.1.2-.1.1-.1.3-.1.5-.1s.3 0 .4.1c.1 0 .2.1.2.1.1.1.2.3.2.4v.4c0 .1-.1.3-.1.4s-.1.3-.1.4-.1.2-.1.3v.2c.1-.1.1-.1.1-.2l.2-.4c.4-.8.9-1.3 1.3-1.6.1-.1.3-.1.4-.1s.3.1.4.2c.1.1.2.3.2.4v.4c0 .1-.1.2-.1.3-.1.2-.3.3-.4.3h-.1l-.1-.1c-.1-.1-.2-.1-.3-.1-.1 0-.2.1-.4.2l-.5.5c-.5.7-1 1.5-1.3 2.4l-.2.6c-.1.1-.1.3-.2.3s-.1.1-.2.1h-.3c-.2-.1-.3-.2-.4-.2zM241.8 281.9l-.2-.2c0-.1-.1-.1-.1-.2v-.2c0-.1.1-.1.1-.2.7-1.7 1.1-2.9 1.1-3.5 0-.2-.1-.3-.2-.4l-.1-.1v-.1c0-.1 0-.1.1-.2 0-.1.1-.1.2-.1.1-.1.3-.1.5-.1s.3 0 .4.1c.1 0 .2.1.2.1.1.1.2.3.2.4v.4c0 .1-.1.3-.1.4 0 .1-.1.3-.1.4s-.1.2-.1.3v.2l.2-.2.2-.4c.4-.8.9-1.3 1.3-1.6.1-.1.3-.1.4-.1.2 0 .3.1.4.2.1.1.2.3.2.4v.4c0 .1-.1.2-.1.3-.1.2-.3.3-.4.3h-.1l-.1-.1c-.1-.1-.2-.1-.3-.1-.1 0-.2.1-.4.2s-.3.3-.5.5c-.5.7-1 1.5-1.3 2.4l-.2.6c-.1.1-.1.3-.2.3s-.1.1-.2.1h-.3c-.3-.1-.4-.2-.5-.2zM246.2 280.2c0-.3.1-.6.1-.9s.2-.5.3-.8c.1-.3.3-.5.5-.7l.6-.6c.5-.4 1-.6 1.5-.6.6 0 1 .2 1.2.7.1.2.1.4.1.6 0 .2 0 .4-.1.6-.1.2-.2.4-.3.5-.1.2-.3.3-.5.4-.2.1-.4.2-.7.3-.5.2-1 .3-1.6.3v.5c0 .1.1.2.1.3.1.2.3.3.5.3.4 0 .8-.1 1.2-.4.1-.1.2-.2.3-.2.1-.1.2-.1.2-.1.1 0 .1 0 .2.1 0 .1.1.2.1.3 0 .2-.1.3-.2.5-.4.4-1.1.7-1.9.7-.5 0-.9-.2-1.2-.5-.3-.3-.4-.7-.4-1.3zm3-2.9c-.4 0-.7.2-1 .7-.3.4-.5.9-.7 1.5.6-.1 1.1-.3 1.5-.7.4-.4.6-.7.6-1.1s-.2-.4-.4-.4zM251.1 280.2c0-.3.1-.6.1-.9.1-.3.2-.6.4-.8.1-.3.3-.5.5-.7.2-.2.4-.4.7-.6.5-.3 1-.5 1.6-.5.6 0 .9.2 1.2.7.1.2.1.3.1.5s0 .4-.1.6c-.1.2-.1.3-.2.5-.2.3-.4.5-.6.5-.2 0-.4-.1-.5-.2-.1-.1-.1-.2-.1-.4 0 0 0-.1.1-.1s.1-.1.2-.2c.2-.2.3-.5.4-.8 0-.2-.1-.3-.4-.3-.3 0-.6.2-.9.5-.5.5-.8 1.1-1 1.8-.2.6-.1 1.1.1 1.4.1.2.3.3.5.3.4 0 .8-.1 1.1-.4l.3-.3c.1-.1.1-.1.2-.1s.1 0 .1.1.1.1.1.2c0 .2-.1.4-.3.6-.5.4-1 .7-1.7.7-.6 0-1-.2-1.3-.5-.5-.6-.6-1-.6-1.6zM259 280.6c.1 0 .2.1.2.2s0 .2-.1.3c-.1.2-.3.4-.6.6-.3.2-.6.3-1 .3-.6 0-.9-.2-1.1-.7-.2-.6.1-1.8.8-3.7-.4 0-.6-.1-.6-.2v-.1-.1l.1-.1c.1-.1.2-.1.4-.1h.4c.4-.9.6-1.4.8-1.5.1-.1.2-.1.3-.1h.2c.1 0 .1.1.2.1.1.1.2.2.2.3 0 .1 0 .1-.1.2l-.4.8H259.8c.1 0 .1 0 .1.1 0 .5-.5.7-1.6.7l-.4.9c-.4 1.1-.6 1.8-.6 2.3 0 .1 0 .2.1.3.1.1.2.1.3.1s.3 0 .4-.1c.1-.1.2-.1.3-.2.1-.1.2-.1.2-.2s.4-.1.4-.1zM263.1 280.5v-.6c0-.2.1-.4.1-.6 0-.2.1-.4.2-.6l.6-1.8c.5-1.4.7-2.6.9-3.4 0-.3.2-.4.4-.4.1 0 .3 0 .4.1.2.1.3.3.3.5s0 .4-.1.6-.1.4-.2.7c-.1.2-.1.5-.2.8-.2.7-.4 1.2-.5 1.5l-.3.8c.3-.5.5-.8.7-1 .4-.3.8-.5 1.2-.5.6 0 1 .3 1.2.9.1.2.1.5.1.8 0 .3 0 .6-.1 1-.1.3-.2.6-.4.9-.2.3-.4.5-.6.7-.2.2-.4.4-.7.6-.5.3-1 .5-1.5.5s-.8-.1-1.1-.4c-.2-.3-.4-.6-.4-1.1zm1.5.9c.3 0 .7-.1 1-.4.5-.4.9-1.1 1-1.9.1-.3.1-.5.1-.8s0-.5-.1-.6-.2-.2-.3-.2c-.1 0-.3.1-.4.2-.1.1-.3.3-.5.4-.2.2-.3.4-.5.6s-.3.5-.4.7c-.3.6-.4 1-.4 1.4s.1.6.5.6zM269.1 281.6c-.1-.1-.3-.3-.3-.5-.1-.2-.1-.5-.1-.8 0-.3 0-.6.1-.9l.3-.9c.1-.3.3-.5.5-.8s.4-.5.6-.6c.5-.4 1-.6 1.6-.6.7 0 1.2.3 1.4.9.2.5.2 1 0 1.6-.1.6-.4 1.1-.8 1.6s-.8.8-1.4 1c-.3.1-.5.2-.8.2-.3 0-.5 0-.7-.1s-.2.1-.4-.1zm1-2.5c-.1.3-.2.5-.2.8s-.1.5-.1.8c0 .2 0 .4.1.6.1.1.2.2.3.2.2 0 .3-.1.5-.2s.3-.3.4-.4.3-.4.4-.6c.1-.2.2-.5.3-.7.2-.6.3-1 .3-1.5 0-.4-.1-.6-.2-.7-.1 0-.1-.1-.3-.1-.1 0-.2.1-.4.2-.1.1-.3.2-.4.4-.1.2-.3.4-.4.6-.1.1-.2.4-.3.6zM274.3 281.9c-.1.1-.3.2-.3.2h-.2c-.1 0-.1-.1-.1-.1l-.2-.2c0-.1 0-.1.1-.2l.3-.3c.6-.5 1-1 1.4-1.5-.3-.8-.4-1.5-.4-2.1 0-.3.1-.5.4-.7.2-.2.4-.3.7-.3.1 0 .1 0 .1.1V278c0 .4.1.6.1.8l.2-.3c.4-.6.9-1.1 1.4-1.5.3-.2.6-.3.8-.3.2 0 .3 0 .5.1s.3.2.2.3h-.1l-.1.1c-.5.2-1.2.8-2.1 1.7-.2.2-.3.4-.5.6l.2.6c.2.7.5 1.1.8 1.1.1 0 .2 0 .3-.1l.2-.1h.1c.1 0 .1 0 .1.1 0 .3-.2.6-.5.8-.2.1-.4.2-.7.2-.5 0-1-.5-1.4-1.6-.5.6-.9 1.1-1.3 1.4z"/></g><path fill="none" stroke="#FCC515" stroke-width="5" stroke-miterlimit="10" d="M224.6 77.4l-7 5.7"/><path fill="#FCC515" d="M215 77.2l-4.3 11.6 12.3-2.1z"/><path fill="none" stroke="#FCC515" stroke-width="5" stroke-miterlimit="10" d="M229 73.7l6.9-5.8"/><path fill="#FCC515" d="M238.5 73.9l4.4-11.7-12.3 2.1z"/><g fill="none" stroke="#36CC89" stroke-width="1.006" stroke-miterlimit="10"><path d="M299.6 14.6v1.5"/><path stroke-dasharray="3.0298,3.0298" d="M299.6 19.1v265.1"/><path d="M299.6 285.7v1.5h-1.5"/><path stroke-dasharray="2.9909,2.9909" d="M295.1 287.2H3.5"/><path d="M2 287.2H.5v-1.5"/><path stroke-dasharray="3.0298,3.0298" d="M.5 282.7V17.6"/><path d="M.5 16.1v-1.5H2"/><path stroke-dasharray="2.9909,2.9909" d="M5 14.6h291.6"/><path d="M298.1 14.6h1.5"/></g><path fill="none" stroke="#36CC89" stroke-miterlimit="10" d="M150.1 17.1v24"/><path fill="#FFF" d="M140 24.2h19.8V34H140z"/><g fill="#36CC89"><path d="M145.2 30.2c.3 0 .5 0 .8-.1v.8c-.1 0-.3.1-.4.1h-.6c-1 0-1.5-.5-1.5-1.5v-2.6h-.7v-.5l.7-.4.3-1h.6v1.1h1.4v.8h-1.4v2.6c0 .2.1.4.2.5.3.2.4.2.6.2zM151.2 28.5c0 .8-.2 1.4-.6 1.8-.4.4-1 .7-1.7.7-.5 0-.9-.1-1.2-.3-.3-.2-.6-.5-.8-.9-.2-.4-.3-.8-.3-1.3 0-.8.2-1.4.6-1.8.4-.4 1-.7 1.7-.7s1.3.2 1.7.7c.4.5.6 1.1.6 1.8zm-3.5 0c0 1.1.4 1.7 1.2 1.7.8 0 1.2-.6 1.2-1.7s-.4-1.7-1.2-1.7c-.4 0-.7.1-.9.4-.2.4-.3.8-.3 1.3zM154.9 31c-.6 0-1.1-.2-1.4-.7h-.1c0 .4.1.7.1.7v2h-1v-7h.8c0 .1.1.3.1.6h.1c.3-.5.8-.7 1.4-.7.6 0 1.1.2 1.4.7.3.4.5 1 .5 1.8s-.2 1.4-.5 1.8c-.4.6-.8.8-1.4.8zm-.3-4.1c-.4 0-.7.1-.9.4s-.3.6-.3 1.1v.2c0 .6.1 1 .3 1.3.2.3.5.4.9.4s.6-.1.8-.4.3-.7.3-1.2-.1-1-.3-1.2c-.1-.5-.4-.6-.8-.6z"/></g><path fill="none" stroke="#36CC89" stroke-miterlimit="10" d="M150.1 261.4v24M297.7 142.4h-38.8"/><path fill="#FFF" d="M140 268.5h19.8v9.8H140zM265.6 137.5h27v9.8h-27z"/><g fill="#36CC89"><path d="M137.1 271.5c.6 0 1.1.2 1.4.7.3.4.5 1 .5 1.8s-.2 1.4-.5 1.9-.8.7-1.4.7c-.6 0-1.1-.2-1.4-.7h-.1l-.2.6h-.8v-6.8h1v2.6c.4-.6.9-.8 1.5-.8zm-.2.8c-.4 0-.7.1-.9.4-.2.2-.3.7-.3 1.2v.1c0 .6.1 1 .3 1.3.2.3.5.4.9.4s.6-.1.8-.4c.2-.3.3-.7.3-1.2 0-1.3-.4-1.8-1.1-1.8zM144.5 273.9c0 .8-.2 1.4-.6 1.8-.4.4-1 .7-1.7.7-.5 0-.9-.1-1.2-.3-.3-.2-.6-.5-.8-.9-.2-.4-.3-.8-.3-1.3 0-.8.2-1.4.6-1.8.4-.4 1-.7 1.7-.7s1.3.2 1.7.7.6 1.1.6 1.8zm-3.5 0c0 1.1.4 1.7 1.2 1.7.8 0 1.2-.6 1.2-1.7s-.4-1.7-1.2-1.7c-.4 0-.7.1-.9.4-.2.4-.3.8-.3 1.3zM147.5 275.6c.3 0 .5 0 .8-.1v.8c-.1 0-.3.1-.4.1h-.6c-1 0-1.5-.5-1.5-1.5v-2.6h-.7v-.5l.7-.4.3-1h.6v1.1h1.4v.8h-1.4v2.6c0 .2.1.4.2.5.2.2.4.2.6.2zM151 275.6c.3 0 .5 0 .8-.1v.8c-.1 0-.3.1-.4.1h-.6c-1 0-1.5-.5-1.5-1.5v-2.6h-.7v-.5l.7-.4.3-1h.6v1.1h1.4v.8h-1.4v2.6c0 .2.1.4.2.5s.4.2.6.2zM157 273.9c0 .8-.2 1.4-.6 1.8-.4.4-1 .7-1.7.7-.5 0-.9-.1-1.2-.3-.3-.2-.6-.5-.8-.9s-.3-.8-.3-1.3c0-.8.2-1.4.6-1.8.4-.4 1-.7 1.7-.7s1.3.2 1.7.7c.4.5.6 1.1.6 1.8zm-3.5 0c0 1.1.4 1.7 1.2 1.7.8 0 1.2-.6 1.2-1.7s-.4-1.7-1.2-1.7c-.4 0-.7.1-.9.4-.2.4-.3.8-.3 1.3zM162.3 276.4h-1v-3c0-.4-.1-.6-.2-.8-.1-.2-.4-.3-.7-.3-.4 0-.7.1-.9.4s-.3.7-.3 1.3v2.4h-1v-4.8h.8l.1.6h.1c.1-.2.3-.4.6-.5.3-.1.5-.2.8-.2.7 0 1.2.3 1.5.8h.1c.1-.2.3-.4.6-.6s.6-.2.9-.2c.6 0 1 .1 1.3.4.3.3.4.7.4 1.3v3.2h-1v-3c0-.4-.1-.6-.2-.8-.1-.2-.4-.3-.7-.3-.4 0-.7.1-.9.4-.2.2-.3.6-.3 1.1v2.6z"/></g><g fill="#36CC89"><path d="M272.4 140.2h.5l-.1 1c-.1 0-.3-.1-.5-.1-.4 0-.7.1-1 .4-.3.3-.4.6-.4 1v2.5h-1v-4.8h.8l.1.9h.1c.2-.3.4-.5.6-.7s.6-.2.9-.2zM273.7 139c0-.2.1-.3.2-.4.1-.1.2-.1.4-.1s.3 0 .4.1c.1.1.2.2.2.4s-.1.3-.2.4-.2.2-.4.2-.3-.1-.4-.2-.2-.2-.2-.4zm1.1 6.1h-1v-4.8h1v4.8zM280.4 140.3v.6l-.8.2c.1.1.1.2.2.4s.1.3.1.5c0 .5-.2.9-.5 1.2s-.8.4-1.4.4h-.4c-.2.1-.3.3-.3.5 0 .1.1.2.2.2.1.1.3.1.6.1h.8c.5 0 .9.1 1.2.3.3.2.4.6.4 1 0 .5-.2 1-.7 1.3-.5.3-1.1.4-2 .4-.7 0-1.2-.1-1.5-.3-.3-.2-.5-.6-.5-1 0-.3.1-.5.3-.7.2-.2.5-.3.8-.4-.1-.1-.3-.2-.3-.3-.1-.1-.1-.3-.1-.4 0-.2.1-.3.2-.5.1-.1.3-.2.5-.4-.3-.1-.5-.3-.6-.5-.2-.2-.2-.5-.2-.9 0-.5.2-.9.5-1.2.3-.3.8-.4 1.4-.4h.4c.1 0 .3 0 .3.1h1.4zm-3.8 5.6c0 .2.1.4.3.5.2.1.5.2.8.2.6 0 1-.1 1.3-.2.3-.2.4-.4.4-.6 0-.2-.1-.4-.2-.4-.2-.1-.4-.1-.8-.1h-.8c-.3 0-.5.1-.7.2-.2-.1-.3.1-.3.4zm.4-4.1c0 .3.1.5.2.7.2.2.4.2.7.2.6 0 .9-.3.9-1 0-.3-.1-.6-.2-.7-.1-.2-.4-.3-.7-.3-.3 0-.5.1-.7.3s-.2.5-.2.8zM285.5 145.1h-1v-3c0-.4-.1-.7-.2-.8s-.4-.3-.7-.3c-.4 0-.7.1-1 .4-.2.3-.3.7-.3 1.3v2.4h-1v-6.8h1v1.7c0 .3 0 .6-.1.9h.1c.1-.2.3-.4.6-.5s.5-.2.9-.2c1.2 0 1.8.6 1.8 1.8v3.1zM288.8 144.4c.3 0 .5 0 .8-.1v.8c-.1 0-.3.1-.4.1h-.6c-1 0-1.5-.5-1.5-1.5V141h-.7v-.5l.7-.4.3-1h.6v1.1h1.4v.8H288v2.6c0 .2.1.4.2.5s.4.3.6.3z"/></g><path fill="none" stroke="#36CC89" stroke-miterlimit="10" d="M39.3 142.4H.5"/><path fill="#FFF" d="M8.8 136.1h22v11.2h-22z"/><g fill="#36CC89"><path d="M14.1 145.1h-1v-6.8h1v6.8zM17.7 145.2c-.8 0-1.3-.2-1.8-.7s-.6-1-.6-1.8.2-1.4.6-1.9c.4-.5.9-.7 1.6-.7.6 0 1.1.2 1.5.6s.6.9.6 1.6v.6h-3.2c0 .5.1.8.4 1.1s.6.4 1 .4c.3 0 .6 0 .8-.1.2-.1.5-.1.8-.3v.8c-.3.1-.5.2-.8.3-.3.1-.6.1-.9.1zm-.2-4.2c-.3 0-.6.1-.8.3-.2.2-.3.5-.4.9h2.2c0-.4-.1-.7-.3-.9-.1-.2-.4-.3-.7-.3zM23.2 141H22v4.1h-1V141h-.8v-.5l.8-.3v-.3c0-.6.1-1 .4-1.3.3-.3.7-.4 1.2-.4.4 0 .7.1 1.1.2l-.3.8c-.3-.1-.5-.1-.7-.1-.2 0-.4.1-.5.2-.1.1-.2.4-.2.6v.3h1.2v.8zM25.8 144.4c.3 0 .5 0 .8-.1v.8c-.1 0-.3.1-.4.1h-.6c-1 0-1.5-.5-1.5-1.5V141h-.7v-.5l.7-.4.3-1h.6v1.1h1.4v.8H25v2.6c0 .2.1.4.2.5.2.2.4.3.6.3z"/></g></svg>