<?xml version="1.0" encoding="utf-8"?>
<!-- Generator: Adobe Illustrator 18.0.0, SVG Export Plug-In . SVG Version: 6.00 Build 0)  -->
<!DOCTYPE svg PUBLIC "-//W3C//DTD SVG 1.1//EN" "http://www.w3.org/Graphics/SVG/1.1/DTD/svg11.dtd">
<svg version="1.1" id="Layer_1" xmlns="http://www.w3.org/2000/svg" xmlns:xlink="http://www.w3.org/1999/xlink" x="0px" y="0px"
	 width="300.6px" height="287.7px" viewBox="0 0 300.6 287.7" enable-background="new 0 0 300.6 287.7" xml:space="preserve">
<g>
	<g>
		<line fill="none" stroke="#336BDD" stroke-width="1.006" stroke-miterlimit="10" x1="15.1" y1="287.2" x2="15.1" y2="285.7"/>
		
			<line fill="none" stroke="#336BDD" stroke-width="1.006" stroke-miterlimit="10" stroke-dasharray="2.9694,2.9694" x1="15.1" y1="282.7" x2="15.1" y2="17"/>
		<line fill="none" stroke="#336BDD" stroke-width="1.006" stroke-miterlimit="10" x1="15.1" y1="15.5" x2="15.1" y2="14"/>
	</g>
</g>
<g>
	<g>
		<line fill="none" stroke="#336BDD" stroke-width="1.006" stroke-miterlimit="10" x1="285" y1="14" x2="285" y2="15.5"/>
		
			<line fill="none" stroke="#336BDD" stroke-width="1.006" stroke-miterlimit="10" stroke-dasharray="2.9694,2.9694" x1="285" y1="18.5" x2="285" y2="284.2"/>
		<line fill="none" stroke="#336BDD" stroke-width="1.006" stroke-miterlimit="10" x1="285" y1="285.7" x2="285" y2="287.2"/>
	</g>
</g>
<g>
	<g>
		<line fill="none" stroke="#EFEFEF" stroke-width="1.006" stroke-miterlimit="10" x1="256.2" y1="43.2" x2="256.2" y2="44.7"/>
		
			<line fill="none" stroke="#EFEFEF" stroke-width="1.006" stroke-miterlimit="10" stroke-dasharray="2.9845,2.9845" x1="256.2" y1="47.6" x2="256.2" y2="255.1"/>
		<polyline fill="none" stroke="#EFEFEF" stroke-width="1.006" stroke-miterlimit="10" points="256.2,256.6 256.2,258.1 
			254.7,258.1 		"/>
		
			<line fill="none" stroke="#EFEFEF" stroke-width="1.006" stroke-miterlimit="10" stroke-dasharray="3.0321,3.0321" x1="251.6" y1="258.1" x2="47" y2="258.1"/>
		<polyline fill="none" stroke="#EFEFEF" stroke-width="1.006" stroke-miterlimit="10" points="45.4,258.1 43.9,258.1 43.9,256.6 		
			"/>
		
			<line fill="none" stroke="#EFEFEF" stroke-width="1.006" stroke-miterlimit="10" stroke-dasharray="2.9845,2.9845" x1="43.9" y1="253.6" x2="43.9" y2="46.2"/>
		<polyline fill="none" stroke="#EFEFEF" stroke-width="1.006" stroke-miterlimit="10" points="43.9,44.7 43.9,43.2 45.4,43.2 		"/>
		
			<line fill="none" stroke="#EFEFEF" stroke-width="1.006" stroke-miterlimit="10" stroke-dasharray="3.0321,3.0321" x1="48.5" y1="43.2" x2="253.1" y2="43.2"/>
		<line fill="none" stroke="#EFEFEF" stroke-width="1.006" stroke-miterlimit="10" x1="254.7" y1="43.2" x2="256.2" y2="43.2"/>
	</g>
</g>
<path fill="none" stroke="#36CC89" stroke-width="3" stroke-miterlimit="10" stroke-dasharray="12,8" d="M225.9,74.8
	c41,41,40.3,108.2-1.6,150s-109,42.6-150,1.6S34,118.2,75.9,76.4S184.8,33.8,225.9,74.8z"/>
<g>
	<g>
		<g>
			<g>
				<path fill="#DCF4DF" d="M73.9,90.5c2.8-2.2,5.4-4.5,7.9-7c-1.2-0.9-2.3-1.8-3.5-2.7c-4.7,7.8-10.7,14.5-17.9,20
					c0.9,1.2,1.8,2.3,2.7,3.5C78.9,90.5,94,75.9,108.3,60.4c-1.2-0.9-2.3-1.8-3.5-2.7c-16.3,22.1-33.6,43.4-51.7,64
					c-1.9,2.1,1.2,5.3,3.1,3.1c10.6-11.7,21.2-23.4,31.9-35.1C93.4,84,98.7,78.2,104,72.3c2.7-2.9,5.3-5.8,8-8.8
					c2.8-3.1,5.5-6.9,9.7-8.1c-0.7-1.2-1.4-2.5-2.2-3.7c-24,29.8-49.3,58.6-74.2,87.6c-1.7,2,0.4,4.6,2.7,3.5
					c8.4-4,14.7-10.9,21.2-17.3c8.2-8.1,16.2-16.3,24.3-24.6c15.6-16.1,30.8-32.5,45.7-49.2c-1.2-0.9-2.3-1.8-3.5-2.7
					c-12.2,19.7-26.5,37.9-41.8,55.2c-7.5,8.5-15.3,16.8-23.3,25c-7.8,8.1-16.5,15.8-22.3,25.6c-1.2,2,1.1,4,3,3
					C96,136.1,115.6,86.5,152,55.2c-1-1-2.1-2.1-3.1-3.1c-18.5,18.4-33.6,39.8-49.4,60.4C91.4,123,83,133.3,73.8,142.9
					c-4.6,4.8-9.5,9.3-14.5,13.7c-4.3,3.8-8,7.8-10.1,13.2c-0.8,2.1,1.7,3.2,3.3,2.5c52.8-22.7,60-90.8,106.8-120.4
					c-0.9-1.2-1.8-2.3-2.7-3.5c-17.2,22.2-35,44.1-51.4,66.8c-7.8,10.8-14.5,22.4-20.1,34.4c-2.8,6.1-5.8,11.5-10.7,16.1
					c-4.4,4.2-9.9,7.3-15.2,10.4c-2.5,1.5-0.3,5.1,2.2,3.8c11.3-5.4,19-15.2,26.1-25.2c8.9-12.4,18.1-24.5,28-36.1
					c20.1-23.6,42.3-45.5,64.3-67.3c1.7-1.6-0.1-4.2-2.2-3.7c-20.1,4.4-32.1,25.3-43.3,40.6c-14.8,20.3-29.1,41.1-42.8,62.2
					c-1.6,2.4,2.3,4.6,3.8,2.2c12.7-19.5,25.8-38.6,39.4-57.5c6.5-9.1,13-18.3,20.2-26.9c6.4-7.6,14-14.2,23.8-16.4
					c-0.7-1.2-1.4-2.5-2.2-3.7c-21.2,21-42.4,42-62,64.5c-9.7,11.1-18.9,22.7-27.5,34.7c-7.9,11-15.5,22.7-28.1,28.7
					c0.7,1.3,1.5,2.6,2.2,3.8c9.7-5.8,18.7-11.8,24.4-21.9c3.2-5.7,5.6-11.8,8.7-17.6c3.4-6.4,7.2-12.6,11.3-18.6
					c8-11.9,17.2-23,26-34.3c9.3-12,18.6-24,27.9-36.1c1.4-1.9-0.4-5-2.7-3.5C110,77.5,102.4,145.7,49.9,168.2
					c1.1,0.8,2.2,1.7,3.3,2.5c2.4-6.1,7.8-10.2,12.6-14.5c4.6-4.1,8.9-8.5,13.2-12.9c8.6-9.1,16.4-18.9,24-28.8
					c15.7-20.3,30.5-41.4,48.7-59.5c2.1-2.1-1-5-3.1-3.1C112.5,83,93.1,132.3,48.8,153.8c1,1,2,2,3,3c5.9-9.9,14.9-17.7,22.8-26
					c7.9-8.2,15.7-16.6,23.2-25.1C113,88.5,127,70.4,139.1,50.9c1.3-2.1-1.8-4.6-3.5-2.7C121.1,64.4,106.3,80.4,91.2,96
					c-7.5,7.8-15.2,15.6-22.9,23.3c-7,7.1-13.9,15-23.1,19.3c0.9,1.2,1.8,2.3,2.7,3.5c24.9-29.1,50.2-57.8,74.2-87.6
					c1.3-1.6,0.2-4.4-2.2-3.7c-6.2,1.7-10.2,7.6-14.3,12.1c-5.8,6.3-11.5,12.7-17.3,19C77,95.5,65,108.6,53.1,121.8
					c1,1,2.1,2.1,3.1,3.1C74.6,104,92.1,82.4,108.6,60c1.5-2.1-1.8-4.5-3.5-2.7c-14.3,15.4-29.4,30.1-45.2,43.9
					c-1.9,1.6,0.7,5,2.7,3.5c7.8-6,14.4-13.2,19.5-21.6c1.3-2.2-1.7-4.5-3.5-2.7c-2.5,2.5-5.1,4.8-7.9,7
					C68.5,89.1,71.6,92.2,73.9,90.5L73.9,90.5z"/>
			</g>
		</g>
		<g>
			<g>
				<path fill="#DCF4DF" d="M58.9,195.7c22.5-23.1,44.9-46.4,67.2-69.7c11.4-11.9,22.7-23.8,34-35.8c9.9-10.4,20.8-20.6,27.7-33.4
					c1.3-2.4-1.7-4.5-3.7-2.8c-13.9,11.6-28.1,22.8-41.3,35.2c-6,5.6-11.6,11.7-16.5,18.2c-5.6,7.3-9.5,15.6-13.6,23.7
					c-7.7,15.4-18,29.1-30.6,40.8c-9.3,8.6-26,16.5-26.3,31c0,2.2,2.5,2.8,4,1.7c27.8-21.9,50.9-47.7,72.5-75.5
					c20.2-25.8,40.6-52.5,68.6-70.3c-0.9-1.2-1.9-2.4-2.8-3.7c-12.2,11.5-22.4,23-30.1,38c-8,15.5-19,28.7-30.5,41.8
					C115,160.8,90,184.5,63.3,206c-1.9,1.5,0.1,4.5,2.3,3.9c14.1-4.1,25.2-14,35.7-24c12.6-12,24.9-24.4,37-37
					c23.6-24.8,45.8-50.8,66.8-77.8c-1.2-0.9-2.4-1.9-3.7-2.8c-6.7,13.2-13.6,26.5-22,38.7c-9.6,13.8-21.9,25.5-33.6,37.5
					c-23.3,24-46.7,48-70,72c-1.8,1.8,0.6,5.3,2.8,3.7c25.7-18.5,48.3-40.7,69.9-63.7c23-24.6,45.4-49.8,68-74.8
					c-1.3-0.8-2.6-1.5-3.9-2.3c-7.8,33.2-38.1,55-61.2,77.5c-24.3,23.7-46.8,49.2-67.6,76c-1.5,1.9,0.5,5.4,2.8,3.7
					c24.8-19,46.4-41.5,67.6-64.3c10.8-11.6,21.5-23.2,32.6-34.5c11.4-11.6,23.5-25.5,39-31.7c-0.8-1.3-1.5-2.6-2.3-3.9
					c-8.7,7-17.4,14-24.9,22.2c-7.6,8.3-14,17.7-21.2,26.5c-14.4,17.7-30.3,34.2-47.4,49.5c-2.2,2,1.1,5.3,3.3,3.3
					c17-15.3,32.9-31.8,47.4-49.5c7.2-8.7,13.7-18,21.2-26.5c7.4-8.4,16.2-15.3,24.9-22.2c1.8-1.4-0.1-4.7-2.3-3.9
					c-13.8,5.5-24.4,16.4-34.8,26.6c-11.7,11.5-22.9,23.5-34.1,35.5c-22.5,24.2-45.1,48.5-71.5,68.7c0.9,1.2,1.9,2.4,2.8,3.7
					c21.5-27.8,45-54.1,70.3-78.6c23.1-22.4,52.1-44,59.8-77c0.5-2.2-2.3-4.1-3.9-2.3c-22.2,24.5-44.3,49.2-66.8,73.4
					c-21.6,23.3-44.3,45.7-70.2,64.3c0.9,1.2,1.9,2.4,2.8,3.7c23.8-24.5,47.6-48.9,71.4-73.4c11.1-11.4,22.5-22.7,31.9-35.6
					c9.1-12.5,16.1-26.4,23.1-40.2c1.1-2.2-2-5-3.7-2.8c-20.2,26-41.7,51.1-64.3,75.1c-11.1,11.8-22.5,23.3-34.1,34.5
					c-11.4,11.1-23.3,23.3-39,27.9c0.8,1.3,1.5,2.6,2.3,3.9c26.3-21.1,50.7-44.5,73-69.7c10.8-12.3,21.9-24.8,29.8-39.2
					c4.3-7.8,8-15.7,13.5-22.8c5.5-7,12-13.1,18.5-19.2c1.9-1.8-0.6-5.1-2.8-3.7C171,71.9,150.7,97.5,131,122.9
					c-22.4,28.7-45.9,55.4-74.5,78c1.3,0.6,2.7,1.1,4,1.7c0.2-7.7,7-13.1,12.5-17.5c5.9-4.8,11.8-9.4,17.2-14.8
					c11.4-11.3,20.3-24.5,27.4-38.8c3.8-7.6,7.7-15.1,12.7-22.1c5-6.8,11-12.8,17.1-18.5c12.8-11.9,26.7-22.8,40.1-34
					c-1.2-0.9-2.4-1.9-3.7-2.8c-6.9,13-18.3,23.3-28.3,33.9c-10.9,11.5-21.7,22.9-32.7,34.4c-22.4,23.6-44.8,46.8-67.3,70
					C53.4,194.5,56.7,197.8,58.9,195.7L58.9,195.7z"/>
			</g>
		</g>
		<g>
			<g>
				<path fill="#DCF4DF" d="M106.8,230.6c11.4-7.9,20.7-18.6,30.3-28.5c10.9-11.2,22-22.2,33-33.2c22.6-22.5,45.6-44.6,68.8-66.5
					c-1.3-0.8-2.6-1.5-3.9-2.3c-0.6,3.8-3,6.3-5.5,9c-3,3.3-6,6.6-9,9.9c-5.6,6.1-11.2,12.2-16.9,18.2c-11.3,12.1-22.8,24-34.4,35.8
					s-23.4,23.4-35.3,34.9c-6,5.7-12,11.4-18,17.1c-4.9,4.6-9.8,8.9-12.3,15.3c-0.5,1.4,0.8,3,2.3,3c13.8,0,24.7-8.6,34.1-17.7
					c5.9-5.7,11.6-11.7,17.4-17.5c5.7-5.7,11.6-11.3,16.6-17.7c4.7-6.2,8-13,13.3-18.9c5.8-6.6,11.9-13,18-19.4
					c11.8-12.3,24.1-24.3,36.6-35.8c-1.1-1.1-2.2-2.2-3.3-3.3c-23.9,24.6-47.8,49.1-73.2,72c-21.5,19.4-44.3,38.8-56.6,65.6
					c-0.7,1.5,0.1,3.6,2,3.5c7-0.2,12-4.5,17.3-8.6c6.3-4.9,12.6-9.9,18.8-15c12.8-10.5,25.2-21.5,36.9-33.2
					c11.4-11.4,21.9-23.6,31.4-36.6c9.5-13,16.2-30,29.5-39.6c-0.9-1.2-1.9-2.4-2.8-3.7c-10.2,11.4-22.2,20.6-31.8,32.5
					c-9.2,11.3-17,23.7-25.7,35.3c-16.3,21.8-41.6,38-51.2,64.4c-0.6,1.7,1.3,3.4,2.9,2.9c11-3.4,19.8-10.6,28-18.5
					c10-9.6,19.9-19.4,29.4-29.6c17.9-19.2,33-41.1,52.8-58.5c2-1.8-0.6-5-2.8-3.7c-16.5,10.1-28.4,25.4-41,39.6
					c-6.8,7.7-14.2,14.5-22.1,21.2c-7,5.9-12.9,13.3-13.2,22.8c0,1.2,1.1,2.4,2.3,2.3c19.8-1.2,33.8-15.5,45.5-30
					c14-17.3,26.8-35.6,39.8-53.6c1.6-2.1-2-4.9-3.7-2.8c-21.7,27.1-45.1,52.8-69.9,77c-2.2,2.1,1.1,5.4,3.3,3.3
					c24.8-24.2,48.2-49.9,69.9-77c-1.2-0.9-2.4-1.9-3.7-2.8c-11.7,16.1-23.3,32.4-35.6,48.2c-11.6,14.9-25.3,31.9-45.7,33.1
					c0.8,0.8,1.6,1.6,2.3,2.3c0.3-10.2,8.5-16.8,15.7-22.8c7-5.8,13.2-12.3,19.2-19.1c12-13.6,23.4-28.1,39-37.7
					c-0.9-1.2-1.9-2.4-2.8-3.7c-18.9,16.5-33.5,37.1-50.2,55.7c-9.1,10-18.8,19.5-28.4,29c-8.6,8.5-17.6,17.1-29.5,20.7
					c1,1,1.9,1.9,2.9,2.9c4.7-12.9,13.7-23.1,23.2-32.7c9.2-9.4,18.5-18.6,26.5-29.1c9-11.7,16.8-24.2,26-35.8
					c9.5-12,21.7-21.1,31.8-32.5c1.7-1.9-0.6-5.3-2.8-3.7c-11.6,8.3-17.7,21.3-25.4,32.9c-8.9,13.6-19.4,26.1-30.6,37.9
					c-11,11.6-22.8,22.4-35,32.7c-6.1,5.2-12.3,10.2-18.6,15.2c-6.1,4.9-13.8,13.3-22,13.6c0.7,1.2,1.3,2.3,2,3.5
					c12.4-27,35.5-46.3,57.1-65.8c25-22.6,48.5-46.8,72-70.9c2.1-2.2-1.1-5.3-3.3-3.3c-11.7,10.7-23,21.7-34,33.1
					c-10.6,10.9-22.4,21.9-30.2,35.1c-8,13.5-20.5,24-31.5,35c-10.1,10.2-21.5,22.6-37,22.5c0.8,1,1.5,2,2.3,3
					c2.7-7,9.9-12.1,15.2-17.1c6-5.7,12-11.4,17.9-17.2c11.9-11.5,23.6-23.2,35.2-35c11.6-11.8,23-23.8,34.3-35.9
					c5.6-6,11.2-12.1,16.8-18.3c4.4-4.8,10.8-10,11.8-16.7c0.3-2.2-2.1-4-3.9-2.3c-22.3,20.9-44.3,42.2-66.1,63.7
					c-11.1,11-22.1,22.1-33.1,33.2c-10.2,10.4-20,22.2-32.1,30.6C102,228.3,104.3,232.3,106.8,230.6L106.8,230.6z"/>
			</g>
		</g>
		<g>
			<g>
				<path fill="#DCF4DF" d="M167.6,243.1c27.3-28.8,56.1-56.1,86.3-81.7c-1.2-0.9-2.4-1.9-3.7-2.8c-18.8,31.7-46.1,56.9-73,81.5
					c-2,1.8,0.6,5,2.8,3.7c12.2-7,22-15.8,29.8-27.5c8-12.1,14.9-26.6,29-32.5c-1-1-1.9-1.9-2.9-2.9c-4.8,18.7-15.5,35.1-30.6,47.2
					c-2.4,1.9,1,5.2,3.3,3.3c15.6-12.5,26.7-29.8,31.8-49.2c0.4-1.5-1.1-3.6-2.9-2.9c-12.6,5.3-20.3,16.2-27.3,27.5
					c-4.1,6.6-8.2,13.1-13.5,18.8c-5.5,5.8-12.2,10.4-19.2,14.3c0.9,1.2,1.9,2.4,2.8,3.7c27.3-24.9,54.8-50.4,73.8-82.5
					c1.4-2.4-1.7-4.5-3.7-2.8c-30.2,25.7-59,52.9-86.3,81.7C162.2,241.9,165.5,245.2,167.6,243.1L167.6,243.1z"/>
			</g>
		</g>
	</g>
	<g>
		<g>
			<path fill="#DCF4DF" d="M161,251.6c12.4-7.2,24.6-14.8,36.5-22.8c2.1-1.4,0.8-5.3-1.8-4.3c-3.3,1.4-6.7,2.7-10,4.1
				c0.8,1.3,1.5,2.6,2.3,3.9c2.3-2.5,4.3-5.1,6.1-8c2.1-3.5,3.3-7.6,6.7-10.2c2.4-1.8,0.1-5.8-2.4-4c-6.3,4.7-8.4,13.2-13.8,18.9
				c-1.5,1.6,0,4.8,2.3,3.9c3.3-1.4,6.7-2.7,10-4.1c-0.6-1.4-1.2-2.8-1.8-4.3c-11.9,8-24.1,15.6-36.5,22.8
				C156,249.1,158.4,253.1,161,251.6L161,251.6z"/>
		</g>
	</g>
</g>
<g enable-background="new    ">
	<path fill="#36CC89" d="M104.6,156c2-1.5,4-5.2,6-11.3c1.2-3.5,2-6.7,2.4-9.5c0.1-0.8,0.2-1.4,0.2-1.8c-0.5,0-0.9,0.1-1.3,0.4
		l-1.3,0.7c-0.4,0.2-0.8,0-1.4-0.5c-0.6-0.5-0.9-0.9-0.8-1.3s0.2-0.6,0.6-0.9c0.3-0.2,0.7-0.4,1.2-0.6c0.9-0.3,1.7-0.5,2.4-0.5
		c0.6,0,1.2,0,1.7,0.1c0.5,0.1,0.9,0.3,1.3,0.5c0.9,0.5,1.4,1.3,1.4,2.3c0,1.7-0.5,4.6-1.7,8.7c-1.9,6.5-4.1,11-6.7,13.7
		c-0.7,0.7-1.4,1.2-2.2,1.5c-0.2,0.1-0.4,0.1-0.6,0.1c-0.2,0-0.4,0-0.6-0.1c-0.2-0.1-0.3-0.2-0.4-0.3c-0.2-0.2-0.4-0.5-0.4-0.7
		C104.3,156.3,104.4,156.1,104.6,156z"/>
	<path fill="#36CC89" d="M130.5,143c-0.7,0-1.9,1-3.7,2.9c-1.3,1.5-2.3,2.6-2.9,3.4l-1.5,2c-0.7,1.3-1.2,2.3-1.6,3.2l-0.9,2
		c-0.2,0.5-0.5,0.8-0.6,1c-0.2,0.2-0.4,0.3-0.7,0.3c-0.3,0-0.6-0.1-0.9-0.2c-0.3-0.1-0.5-0.3-0.7-0.4c-0.4-0.4-0.7-0.8-0.7-1.2
		c0-0.2,0.1-0.5,0.4-1l0.7-1.4c0.2-0.4,0.4-0.9,0.7-1.6l1-2.4c1.4-3.4,2-5.6,2-6.6c0-0.5-0.2-0.9-0.5-1.2l-0.3-0.2
		c-0.1-0.1-0.2-0.2-0.2-0.4c0-0.2,0.1-0.4,0.2-0.6c0.2-0.2,0.4-0.3,0.6-0.5c0.5-0.3,1-0.4,1.6-0.4s0.9,0.1,1.2,0.2
		c0.3,0.1,0.6,0.3,0.8,0.5c0.4,0.4,0.7,0.8,0.7,1.3s-0.1,0.9-0.2,1.3c-0.1,0.4-0.3,0.9-0.4,1.3c-0.2,0.5-0.4,0.9-0.6,1.3
		c-0.5,1-0.7,1.6-0.9,1.8c-0.1,0.2-0.1,0.3-0.1,0.3c2.1-2.7,3.4-4.3,3.8-4.8c0.9-1,1.6-1.7,2.1-2.1c0.9-0.7,1.8-1,2.6-1
		c0.8,0,1.5,0.3,1.9,0.8c0.5,0.5,0.7,1.2,0.7,2c0,0.7-0.2,1.6-0.6,2.5c-0.4,1-0.6,1.7-0.7,2l2.5-3.3l1.4-1.7c0.8-1,1.6-1.6,2.2-1.9
		c0.6-0.3,1.2-0.4,1.6-0.4c0.4,0,0.8,0.1,1.2,0.2c0.4,0.1,0.7,0.4,1,0.6c0.6,0.6,0.9,1.3,0.9,2.2c0,0.9-0.2,1.8-0.6,2.8
		c-0.4,0.9-0.8,1.7-1.1,2.3c-0.3,0.6-0.6,1.2-0.9,1.8c-0.8,1.8-1.3,3.2-1.3,4.1c0,0.6,0.3,0.9,0.8,0.9c0.5,0,0.9-0.1,1.3-0.3
		c0.4-0.2,0.7-0.3,0.8-0.3c0.2,0,0.4,0.1,0.4,0.4c0,1-0.5,1.9-1.6,2.6c-0.7,0.5-1.3,0.7-1.9,0.7c-0.6,0-1-0.1-1.4-0.2
		c-0.4-0.1-0.7-0.4-1-0.7c-0.6-0.7-1-1.5-1-2.5s0.1-1.9,0.4-2.8c0.3-0.8,0.6-1.7,0.9-2.4c0.3-0.8,0.7-1.5,1-2.2
		c0.3-0.7,0.6-1.2,0.8-1.6c0.4-0.8,0.6-1.4,0.6-1.8c0-0.4-0.2-0.7-0.7-0.7c-0.6,0-1.7,1-3.3,3.1c-1.2,1.6-2.1,2.7-2.5,3.4l-1.2,1.7
		c-0.7,1.3-1.2,2.3-1.5,3.2l-0.9,2c-0.2,0.5-0.4,0.8-0.6,1c-0.2,0.2-0.4,0.3-0.7,0.3s-0.6,0-0.8-0.1s-0.5-0.2-0.7-0.4
		c-0.4-0.3-0.7-0.7-0.7-1.1s0.1-0.9,0.4-1.5c0.2-0.6,0.6-1.4,0.9-2.2l2.4-5.1c0.9-1.9,1.3-3.1,1.3-3.6
		C131.2,143.3,131,143,130.5,143z M132.2,147.9C132.2,147.9,132.2,147.9,132.2,147.9L132.2,147.9
		C132.2,147.8,132.2,147.8,132.2,147.9z"/>
	<path fill="#36CC89" d="M159.5,153c0,1.1,0.4,1.6,1.1,1.6c0.5,0,0.9-0.1,1.3-0.2c0.3-0.2,0.6-0.2,0.7-0.2c0.2,0,0.4,0.1,0.4,0.4
		c0,1-0.5,1.8-1.5,2.5c-1.1,0.7-2.2,0.9-3.3,0.6c-0.7-0.3-1.3-0.8-1.7-1.7c-0.2-0.4-0.3-0.9-0.3-1.2c0-0.6,0.1-1.2,0.2-1.9
		c-1.1,2.2-2.4,3.7-4,4.5c-0.6,0.3-1.3,0.5-2,0.5c-0.7,0-1.3-0.1-1.9-0.4c-0.5-0.3-1-0.7-1.3-1.2c-0.7-1.1-1.1-2.4-1-4.1
		c0.1-2,0.7-4,1.8-6c1-1.8,2.4-3.3,4-4.5c1.6-1.2,3.1-1.8,4.5-1.8s2.5,0.6,3.4,1.9c0.8-1.3,1.5-1.9,2.1-1.9c0.7,0,1.1,0.1,1.5,0.4
		c0.6,0.5,0.9,0.9,0.7,1.2c-2.9,5.9-4.4,9.6-4.4,11C159.6,152.5,159.5,152.8,159.5,153z M150,153.1c0,1.4,0.4,2.1,1.3,2.1
		c0.7,0,1.5-0.6,2.5-1.7c1.4-1.7,2.7-4,3.8-6.8c0.4-0.9,0.7-1.8,0.9-2.7c0-0.8-0.4-1.4-1-1.7c-0.2-0.1-0.5-0.2-0.9-0.2
		c-0.4,0-0.9,0.1-1.4,0.4c-0.5,0.3-1.1,0.7-1.6,1.2s-1,1.1-1.4,1.8c-0.4,0.7-0.8,1.5-1.2,2.3C150.3,149.6,150,151.3,150,153.1z"/>
	<path fill="#36CC89" d="M175.4,153.8c-1.7,2.6-3.7,3.9-5.8,3.9c-1.9,0-3.2-1-3.9-3.1c-0.2-0.7-0.3-1.6-0.3-2.6c0-1,0.1-2,0.4-3.1
		c0.3-1,0.7-2,1.2-2.9c0.5-0.9,1.1-1.8,1.8-2.5c0.7-0.8,1.4-1.4,2.2-2c1.6-1.2,3.2-1.8,4.9-1.8s2.8,0.8,3.4,2.3
		c0.1-0.1,0.3-0.3,0.4-0.5c0.1-0.2,0.2-0.3,0.4-0.4c0.3-0.3,0.6-0.4,0.8-0.4c0.2,0,0.5,0,0.7,0.1c0.2,0.1,0.5,0.2,0.7,0.3
		c0.6,0.3,0.8,0.6,0.6,0.9c-0.6,1.4-1.2,2.7-1.6,4l-2.5,8.1c-2,6.2-4.6,10.2-7.6,12c-0.8,0.5-1.5,0.8-2.1,0.8c-0.6,0.1-1,0.1-1.3,0
		c-0.3-0.1-0.5-0.2-0.7-0.3c-0.4-0.3-0.7-0.5-0.7-0.8c0-0.4,0.3-0.6,0.8-0.7s1.1-0.3,1.7-0.6c0.6-0.3,1.1-0.7,1.7-1.2
		C172.7,161.3,174.3,158.1,175.4,153.8z M170.3,147.8c-0.3,0.8-0.5,1.7-0.7,2.5c-0.2,0.9-0.3,1.6-0.3,2.1c0,0.6,0,1,0.1,1.3
		c0,0.3,0.1,0.5,0.2,0.8c0.2,0.5,0.6,0.7,1,0.7s0.9-0.2,1.3-0.5s0.9-0.7,1.4-1.3c0.5-0.6,1-1.2,1.4-1.9c0.5-0.7,0.9-1.5,1.4-2.4
		c1-1.9,1.6-3.7,2-5.5c-0.1-0.3-0.3-0.6-0.6-1c-0.7-0.6-1.2-0.9-1.8-0.9c-0.5,0-1.1,0.2-1.6,0.5s-1,0.8-1.5,1.3
		c-0.5,0.6-0.9,1.2-1.3,1.9C171,146.2,170.6,147,170.3,147.8z"/>
	<path fill="#36CC89" d="M184.1,151.5c0-1,0.2-2,0.5-2.9s0.7-1.8,1.2-2.7s1-1.7,1.7-2.4s1.4-1.4,2.1-2c1.6-1.2,3.3-1.8,5-1.8
		c2,0,3.3,0.8,3.9,2.4c0.2,0.6,0.3,1.2,0.3,2c0,0.8-0.2,1.4-0.4,2.1c-0.3,0.6-0.7,1.2-1.1,1.7c-0.5,0.5-1.1,1-1.7,1.4
		s-1.4,0.8-2.2,1.1c-1.6,0.6-3.4,0.9-5.2,0.9c0,0.2-0.1,0.4-0.1,0.7c0,0.3,0,0.7,0.1,1.1s0.2,0.7,0.4,1.1c0.4,0.7,1,1,1.8,1
		c1.3,0,2.6-0.4,3.9-1.2c0.4-0.3,0.8-0.5,1.1-0.8s0.5-0.4,0.7-0.4c0.2,0,0.4,0.1,0.5,0.4s0.2,0.5,0.2,0.8c0,0.6-0.2,1.1-0.5,1.6
		c-1.4,1.4-3.6,2.2-6.5,2.2c-1.7,0-3-0.5-4.1-1.5C184.6,155.1,184,153.5,184.1,151.5z M194.2,142c-1.2,0-2.4,0.8-3.5,2.5
		c-0.9,1.4-1.7,3.1-2.3,5.1c1.9-0.2,3.6-1,5-2.3c1.3-1.2,1.9-2.4,1.9-3.6S195,142,194.2,142z"/>
</g>
<g enable-background="new    ">
	<path fill="#36CC89" d="M257.8,2.5c0-0.7-0.5-1-1.4-1c-0.6,0-1.1,0.2-1.7,0.5c-0.2,0.1-0.3,0.2-0.4,0.3c-0.1,0.1-0.2,0.1-0.3,0.1
		s-0.2,0-0.2-0.1s-0.1-0.1-0.2-0.2c-0.2-0.3-0.2-0.5,0.1-0.7c0.4-0.4,1.1-0.6,2.1-0.7c0.2,0,0.4,0,0.7,0c0.3,0,0.6,0.1,0.9,0.2
		s0.6,0.3,0.8,0.4c0.4,0.4,0.7,0.8,0.7,1.4c0,0.7-0.3,1.3-0.9,1.9c-0.5,0.5-1.2,0.8-1.9,1c0.2,0.2,0.4,0.4,0.6,0.7L257,7
		c0.4,0.7,0.7,1,1,1.1c0.1,0,0.2,0,0.3,0c0.1,0,0.2,0,0.2,0c0,0,0.1,0,0.1,0.1c0,0.1,0,0.1,0,0.2c0,0.1-0.1,0.2-0.2,0.2
		c-0.2,0.2-0.5,0.2-0.7,0.2c-0.3,0-0.5-0.1-0.6-0.2s-0.3-0.2-0.4-0.3c-0.1-0.1-0.2-0.3-0.3-0.5c-0.1-0.2-0.2-0.3-0.3-0.5l-0.2-0.5
		c-0.1-0.2-0.1-0.3-0.2-0.4c-0.1-0.1-0.1-0.2-0.2-0.3c0-0.1-0.1-0.2-0.2-0.3c-0.1-0.2-0.3-0.3-0.4-0.3c-0.7,1.9-1.5,2.9-2.2,3.2
		c-0.1,0-0.1,0-0.2,0c-0.1,0-0.1,0-0.2,0s-0.1-0.1-0.1-0.1c-0.1-0.1-0.1-0.1-0.1-0.2s0-0.1,0.1-0.2c0.5-0.4,1.1-1.5,1.7-3.3l0.3-0.9
		c0.4-1,0.7-1.6,0.9-1.9c0.1-0.1,0.2-0.1,0.3-0.1c0.1,0,0.2,0,0.2,0c0.1,0,0.1,0.1,0.2,0.1c0.1,0.1,0.2,0.2,0.2,0.3s0,0.2-0.1,0.3
		c0,0.1-0.1,0.2-0.2,0.4c-0.2,0.4-0.3,0.8-0.4,1.1L254.9,5c0.7-0.1,1.4-0.4,1.9-0.9C257.5,3.7,257.8,3.1,257.8,2.5z"/>
	<path fill="#36CC89" d="M259.2,6.9c0-0.3,0.1-0.6,0.2-0.9c0.1-0.3,0.2-0.5,0.3-0.8s0.3-0.5,0.5-0.7c0.2-0.2,0.4-0.4,0.6-0.6
		c0.5-0.4,1-0.6,1.5-0.6c0.6,0,1,0.2,1.2,0.7c0.1,0.2,0.1,0.4,0.1,0.6c0,0.2,0,0.4-0.1,0.6c-0.1,0.2-0.2,0.4-0.3,0.5
		c-0.1,0.2-0.3,0.3-0.5,0.4s-0.4,0.2-0.7,0.3c-0.5,0.2-1,0.3-1.6,0.3c0,0,0,0.1,0,0.2c0,0.1,0,0.2,0,0.3s0.1,0.2,0.1,0.3
		c0.1,0.2,0.3,0.3,0.5,0.3c0.4,0,0.8-0.1,1.2-0.4c0.1-0.1,0.2-0.2,0.3-0.2c0.1-0.1,0.2-0.1,0.2-0.1c0.1,0,0.1,0,0.2,0.1
		c0,0.1,0.1,0.2,0.1,0.3c0,0.2-0.1,0.3-0.2,0.5c-0.4,0.4-1.1,0.7-1.9,0.7c-0.5,0-0.9-0.2-1.2-0.5C259.4,8,259.2,7.5,259.2,6.9z
		 M262.3,4.1c-0.4,0-0.7,0.2-1,0.7c-0.3,0.4-0.5,0.9-0.7,1.5c0.6-0.1,1.1-0.3,1.5-0.7c0.4-0.4,0.6-0.7,0.6-1.1S262.5,4.1,262.3,4.1z
		"/>
	<path fill="#36CC89" d="M263.9,7.8c0-0.1,0-0.2,0.1-0.3c0-0.1,0.1-0.2,0.2-0.2c0.1-0.1,0.3-0.2,0.5-0.2c0.1,0,0.2,0.1,0.2,0.2
		c0,0.4,0.1,0.6,0.4,0.7c0.1,0.1,0.2,0.1,0.3,0.1s0.2,0,0.2,0c0.1,0,0.1-0.1,0.2-0.1c0.1-0.1,0.2-0.2,0.2-0.4s0-0.3-0.1-0.4
		c-0.1-0.1-0.1-0.2-0.2-0.4l-0.3-0.4c-0.4-0.6-0.6-1.1-0.6-1.5c0-0.4,0.2-0.7,0.5-1c0.4-0.4,0.8-0.5,1.4-0.5c0.5,0,0.9,0.1,1.2,0.4
		c0.2,0.2,0.4,0.4,0.4,0.7c0,0.3-0.1,0.5-0.3,0.7c-0.2,0.1-0.4,0.2-0.6,0.2c-0.1,0-0.1-0.1-0.2-0.1s-0.1-0.1,0-0.2
		c0-0.1,0-0.2,0-0.3c0-0.1,0-0.2-0.1-0.3s-0.1-0.1-0.1-0.2c-0.1-0.1-0.2-0.2-0.4-0.2s-0.2,0-0.3,0s-0.2,0.1-0.2,0.1
		c-0.1,0.1-0.2,0.3-0.2,0.5s0,0.3,0.1,0.5c0.1,0.1,0.1,0.3,0.2,0.4c0.1,0.1,0.2,0.3,0.3,0.4c0.1,0.1,0.2,0.3,0.3,0.4
		c0.2,0.3,0.3,0.7,0.3,0.9c0,0.3-0.1,0.5-0.2,0.7c-0.1,0.2-0.3,0.3-0.4,0.5c-0.4,0.3-0.8,0.4-1.3,0.4c-0.4,0-0.8-0.1-1.1-0.3
		C264,8.3,263.9,8,263.9,7.8z"/>
	<path fill="#36CC89" d="M270.4,7.7c0.1,0,0.1,0.1,0.1,0.2c0,0.2-0.1,0.3-0.2,0.5c-0.2,0.2-0.5,0.4-0.8,0.4c-0.4,0-0.7-0.2-0.8-0.5
		c-0.1-0.1-0.1-0.3-0.1-0.4s0-0.3,0.1-0.5s0.1-0.4,0.2-0.6c0.1-0.2,0.2-0.4,0.3-0.7l0.3-0.7c0.2-0.5,0.3-0.8,0.3-1s0-0.3,0-0.3
		c0,0-0.1-0.1-0.1-0.1l-0.1-0.1c0,0-0.1-0.1-0.1-0.1c0-0.1,0-0.1,0.1-0.2c0-0.1,0.1-0.1,0.2-0.1c0.2-0.1,0.3-0.1,0.5-0.1
		c0.5,0,0.8,0.1,0.8,0.4c0,0.3-0.1,0.7-0.2,1.1c-0.2,0.4-0.3,0.7-0.4,1L270,6.5c-0.2,0.5-0.3,0.9-0.3,1.1c0,0.2,0.1,0.2,0.2,0.2
		c0.1,0,0.3,0,0.3-0.1C270.3,7.8,270.4,7.7,270.4,7.7z M271.5,2.2c-0.1,0.1-0.2,0.1-0.3,0.2s-0.2,0.1-0.3,0.1c-0.1,0-0.2,0-0.3,0
		s-0.2-0.1-0.2-0.2c-0.1-0.2-0.2-0.3-0.2-0.5c0-0.2,0-0.3,0.1-0.4c0.1-0.1,0.1-0.2,0.2-0.2c0.2-0.1,0.3-0.2,0.5-0.2s0.3,0,0.3,0
		s0.2,0.1,0.2,0.1c0.2,0.1,0.3,0.3,0.3,0.4c0,0.2,0,0.3-0.1,0.4C271.6,2,271.5,2.1,271.5,2.2z"/>
	<path fill="#36CC89" d="M272.6,7.9c0.6-0.2,1.1-0.3,1.6-0.3c0.3,0,0.6,0.1,0.8,0.3c0.2,0.2,0.2,0.4,0.2,0.7c0,0.1,0,0.1-0.1,0.2
		c0,0-0.1,0.1-0.2,0.1c-0.1,0-0.1,0-0.2-0.1c-0.1,0-0.2-0.1-0.3-0.1c-0.7-0.3-1.4-0.3-2.1,0.1c-0.1,0-0.2,0.1-0.3,0.1s-0.2,0-0.2,0
		c-0.1,0-0.2-0.1-0.3-0.2c-0.2-0.2-0.3-0.3-0.2-0.5c0.1-0.2,0.2-0.4,0.3-0.6c0.1-0.2,0.3-0.4,0.5-0.6c0.2-0.2,0.4-0.4,0.6-0.6
		c0.5-0.5,0.9-0.8,1.1-1c0.5-0.5,0.9-0.7,1-0.9c0.1-0.1,0.2-0.2,0.2-0.3c-0.3,0.1-0.7,0.2-1.2,0.3c-0.1,0-0.2,0-0.3,0
		c-0.4,0-0.6-0.1-0.8-0.2c-0.2-0.1-0.2-0.3-0.2-0.6c0-0.1,0-0.2,0.1-0.2s0.1-0.1,0.2-0.1c0.1,0,0.1,0,0.2,0.1c0.1,0,0.2,0.1,0.4,0.1
		c0.4,0.1,0.7,0.2,1,0.2c0.3,0,0.5,0,0.6,0c0.1,0,0.2-0.1,0.3-0.1l0.2-0.1c0.1,0,0.1,0,0.2,0s0.1,0,0.2,0.1s0.1,0.1,0.2,0.2
		c0.1,0.1,0.2,0.3,0.2,0.4c0,0.1-0.1,0.3-0.2,0.5s-0.3,0.4-0.6,0.6c-0.2,0.2-0.5,0.4-0.8,0.7l-0.8,0.7
		C273.2,7.1,272.8,7.5,272.6,7.9z M272.5,8C272.5,8,272.5,8,272.5,8C272.5,8,272.5,8,272.5,8z"/>
	<path fill="#36CC89" d="M276.3,6.9c0-0.3,0.1-0.6,0.1-0.9s0.2-0.5,0.3-0.8c0.1-0.3,0.3-0.5,0.5-0.7c0.2-0.2,0.4-0.4,0.6-0.6
		c0.5-0.4,1-0.6,1.5-0.6c0.6,0,1,0.2,1.2,0.7c0.1,0.2,0.1,0.4,0.1,0.6c0,0.2,0,0.4-0.1,0.6c-0.1,0.2-0.2,0.4-0.3,0.5
		c-0.1,0.2-0.3,0.3-0.5,0.4c-0.2,0.1-0.4,0.2-0.7,0.3c-0.5,0.2-1,0.3-1.6,0.3c0,0,0,0.1,0,0.2c0,0.1,0,0.2,0,0.3
		c0,0.1,0.1,0.2,0.1,0.3c0.1,0.2,0.3,0.3,0.5,0.3c0.4,0,0.8-0.1,1.2-0.4c0.1-0.1,0.2-0.2,0.3-0.2c0.1-0.1,0.2-0.1,0.2-0.1
		c0.1,0,0.1,0,0.2,0.1c0,0.1,0.1,0.2,0.1,0.3c0,0.2-0.1,0.3-0.2,0.5c-0.4,0.4-1.1,0.7-1.9,0.7c-0.5,0-0.9-0.2-1.2-0.5
		C276.4,8,276.3,7.5,276.3,6.9z M279.3,4.1c-0.4,0-0.7,0.2-1,0.7c-0.3,0.4-0.5,0.9-0.7,1.5c0.6-0.1,1.1-0.3,1.5-0.7
		c0.4-0.4,0.6-0.7,0.6-1.1S279.6,4.1,279.3,4.1z"/>
	<path fill="#36CC89" d="M284.5,7.2c0-0.2,0-0.4,0-0.6s0.1-0.4,0.1-0.6c0-0.2,0.1-0.4,0.2-0.6l0.6-1.8c0.5-1.4,0.7-2.6,0.9-3.4
		c0-0.3,0.2-0.4,0.4-0.4c0.1,0,0.3,0,0.4,0.1c0.2,0.1,0.3,0.3,0.3,0.5c0,0.2,0,0.4-0.1,0.6s-0.1,0.4-0.2,0.7
		c-0.1,0.2-0.1,0.5-0.2,0.8c-0.2,0.7-0.4,1.2-0.5,1.5l-0.3,0.8c0.3-0.5,0.5-0.8,0.7-1c0.4-0.3,0.8-0.5,1.2-0.5c0.6,0,1,0.3,1.2,0.9
		c0.1,0.2,0.1,0.5,0.1,0.8c0,0.3,0,0.6-0.1,1c-0.1,0.3-0.2,0.6-0.4,0.9c-0.2,0.3-0.4,0.5-0.6,0.7c-0.2,0.2-0.4,0.4-0.7,0.6
		c-0.5,0.3-1,0.5-1.5,0.5c-0.5,0-0.8-0.1-1.1-0.4C284.7,8,284.5,7.7,284.5,7.2z M286,8.1c0.3,0,0.7-0.1,1-0.4c0.5-0.4,0.9-1.1,1-1.9
		c0.1-0.3,0.1-0.5,0.1-0.8s0-0.5-0.1-0.6s-0.2-0.2-0.3-0.2c-0.1,0-0.3,0.1-0.4,0.2c-0.1,0.1-0.3,0.3-0.5,0.4
		c-0.2,0.2-0.3,0.4-0.5,0.6s-0.3,0.5-0.4,0.7c-0.3,0.6-0.4,1-0.4,1.4S285.6,8.1,286,8.1z"/>
	<path fill="#36CC89" d="M290.5,8.4c-0.1-0.1-0.3-0.3-0.3-0.5s-0.1-0.5-0.1-0.8c0-0.3,0-0.6,0.1-0.9c0.1-0.3,0.2-0.6,0.3-0.9
		c0.1-0.3,0.3-0.5,0.5-0.8c0.2-0.2,0.4-0.5,0.6-0.6c0.5-0.4,1-0.6,1.6-0.6c0.7,0,1.2,0.3,1.4,0.9c0.2,0.5,0.2,1,0,1.6
		c-0.1,0.6-0.4,1.1-0.8,1.6c-0.4,0.5-0.8,0.8-1.4,1c-0.3,0.1-0.5,0.2-0.8,0.2s-0.5,0-0.7-0.1S290.7,8.5,290.5,8.4z M291.5,5.9
		c-0.1,0.3-0.2,0.5-0.2,0.8c-0.1,0.3-0.1,0.5-0.1,0.8c0,0.2,0,0.4,0.1,0.6c0.1,0.1,0.2,0.2,0.3,0.2s0.3-0.1,0.5-0.2s0.3-0.3,0.4-0.4
		c0.1-0.2,0.3-0.4,0.4-0.6c0.1-0.2,0.2-0.5,0.3-0.7c0.2-0.6,0.3-1,0.3-1.5c0-0.4-0.1-0.6-0.2-0.7c-0.1,0-0.1-0.1-0.3-0.1
		c-0.1,0-0.2,0.1-0.4,0.2s-0.3,0.2-0.4,0.4c-0.1,0.2-0.3,0.4-0.4,0.6S291.6,5.6,291.5,5.9z"/>
	<path fill="#36CC89" d="M295.7,8.6c-0.1,0.1-0.3,0.2-0.3,0.2s-0.1,0-0.2,0s-0.1-0.1-0.1-0.1c-0.1-0.1-0.2-0.2-0.2-0.2
		c0-0.1,0-0.1,0.1-0.2l0.3-0.3c0.6-0.5,1-1,1.4-1.5c-0.3-0.8-0.4-1.5-0.4-2.1c0-0.3,0.1-0.5,0.4-0.7c0.2-0.2,0.4-0.3,0.7-0.3
		c0.1,0,0.1,0,0.1,0.1c0,0,0,0.1,0,0.2c0,0.1,0,0.2,0,0.3s0,0.2,0,0.3c0,0.1,0,0.2,0,0.4c0,0.4,0.1,0.6,0.1,0.8l0.2-0.3
		c0.4-0.6,0.9-1.1,1.4-1.5c0.3-0.2,0.6-0.3,0.8-0.3c0.2,0,0.3,0,0.5,0.1c0.2,0.1,0.3,0.2,0.2,0.3c0,0,0,0-0.1,0l-0.1,0.1
		c-0.5,0.2-1.2,0.8-2.1,1.7c-0.2,0.2-0.3,0.4-0.5,0.6l0.2,0.6c0.2,0.7,0.5,1.1,0.8,1.1c0.1,0,0.2,0,0.3-0.1l0.2-0.1c0,0,0.1,0,0.1,0
		c0.1,0,0.1,0,0.1,0.1c0,0.3-0.2,0.6-0.5,0.8c-0.2,0.1-0.4,0.2-0.7,0.2c-0.5,0-1-0.5-1.4-1.6C296.5,7.8,296.1,8.3,295.7,8.6z"/>
</g>
<g enable-background="new    ">
	<path fill="#336BDD" d="M226.5,279.8l0-0.2c0-1,0.3-2,0.8-2.9c0.4-0.8,1-1.5,1.7-2c0.7-0.5,1.3-0.8,2-0.8c0.5,0,0.9,0.2,1.1,0.5
		c0.2,0.3,0.4,0.6,0.4,1.1c0,0.5-0.2,1-0.6,1.5c-0.2,0.3-0.4,0.5-0.7,0.6c-0.1,0.1-0.2,0.1-0.3,0.1c-0.1,0-0.2,0-0.3-0.1
		c-0.1,0-0.2-0.1-0.2-0.2c-0.1-0.1-0.2-0.3-0.2-0.4c0-0.1,0-0.2,0.1-0.2c0.6-0.4,0.9-0.8,1.2-1.3c0.1-0.2,0.1-0.3,0.1-0.5
		c0-0.3-0.2-0.5-0.5-0.5c-0.5,0-1,0.3-1.5,0.8c-0.5,0.5-0.9,1.1-1.2,1.9c-0.3,0.8-0.5,1.5-0.6,2.1l0,0.2c0,0.8,0.2,1.3,0.5,1.5
		c0.1,0.1,0.3,0.1,0.4,0.1s0.3,0,0.5-0.1c0.1,0,0.3-0.1,0.4-0.2c0.2-0.1,0.5-0.3,0.9-0.6c0.1-0.1,0.2-0.1,0.3,0
		c0.1,0.1,0.1,0.2,0.1,0.3c0,0.2,0,0.3-0.1,0.4c-0.1,0.1-0.1,0.2-0.3,0.3c-0.1,0.1-0.3,0.2-0.5,0.3c-0.4,0.2-0.9,0.3-1.3,0.3
		s-0.8-0.1-1-0.2s-0.5-0.2-0.6-0.4C226.7,281.1,226.5,280.5,226.5,279.8z"/>
	<path fill="#336BDD" d="M232.5,281.6c-0.1-0.1-0.3-0.3-0.3-0.5c-0.1-0.2-0.1-0.5-0.1-0.8c0-0.3,0-0.6,0.1-0.9
		c0.1-0.3,0.2-0.6,0.3-0.9c0.1-0.3,0.3-0.5,0.5-0.8s0.4-0.5,0.6-0.6c0.5-0.4,1-0.6,1.6-0.6c0.7,0,1.2,0.3,1.4,0.9
		c0.2,0.5,0.2,1,0,1.6c-0.1,0.6-0.4,1.1-0.8,1.6c-0.4,0.5-0.8,0.8-1.4,1c-0.3,0.1-0.5,0.2-0.8,0.2c-0.3,0-0.5,0-0.7-0.1
		S232.7,281.8,232.5,281.6z M233.5,279.1c-0.1,0.3-0.2,0.5-0.2,0.8s-0.1,0.5-0.1,0.8c0,0.2,0,0.4,0.1,0.6c0.1,0.1,0.2,0.2,0.3,0.2
		c0.2,0,0.3-0.1,0.5-0.2s0.3-0.3,0.4-0.4s0.3-0.4,0.4-0.6c0.1-0.2,0.2-0.5,0.3-0.7c0.2-0.6,0.3-1,0.3-1.5c0-0.4-0.1-0.6-0.2-0.7
		c-0.1,0-0.1-0.1-0.3-0.1c-0.1,0-0.2,0.1-0.4,0.2c-0.1,0.1-0.3,0.2-0.4,0.4c-0.1,0.2-0.3,0.4-0.4,0.6
		C233.7,278.6,233.6,278.9,233.5,279.1z"/>
	<path fill="#336BDD" d="M237.5,281.9c-0.1-0.1-0.1-0.1-0.2-0.2s-0.1-0.1-0.1-0.2c0,0,0-0.1,0-0.2s0.1-0.1,0.1-0.2
		c0.7-1.7,1.1-2.9,1.1-3.5c0-0.2-0.1-0.3-0.2-0.4l-0.1-0.1c0,0,0-0.1,0-0.1c0-0.1,0-0.1,0.1-0.2c0-0.1,0.1-0.1,0.2-0.1
		c0.1-0.1,0.3-0.1,0.5-0.1c0.2,0,0.3,0,0.4,0.1c0.1,0,0.2,0.1,0.2,0.1c0.1,0.1,0.2,0.3,0.2,0.4c0,0.1,0,0.3,0,0.4
		c0,0.1-0.1,0.3-0.1,0.4s-0.1,0.3-0.1,0.4s-0.1,0.2-0.1,0.3c0,0.1,0,0.2,0,0.2c0.1-0.1,0.1-0.1,0.1-0.2l0.2-0.4
		c0.4-0.8,0.9-1.3,1.3-1.6c0.1-0.1,0.3-0.1,0.4-0.1s0.3,0.1,0.4,0.2c0.1,0.1,0.2,0.3,0.2,0.4c0,0.1,0,0.3,0,0.4
		c0,0.1-0.1,0.2-0.1,0.3c-0.1,0.2-0.3,0.3-0.4,0.3c0,0-0.1,0-0.1,0l-0.1-0.1c-0.1-0.1-0.2-0.1-0.3-0.1c-0.1,0-0.2,0.1-0.4,0.2
		c-0.1,0.1-0.3,0.3-0.5,0.5c-0.5,0.7-1,1.5-1.3,2.4l-0.2,0.6c-0.1,0.1-0.1,0.3-0.2,0.3s-0.1,0.1-0.2,0.1s-0.2,0-0.3,0
		C237.7,282,237.6,281.9,237.5,281.9z"/>
	<path fill="#336BDD" d="M241.8,281.9c-0.1-0.1-0.1-0.1-0.2-0.2c0-0.1-0.1-0.1-0.1-0.2c0,0,0-0.1,0-0.2s0.1-0.1,0.1-0.2
		c0.7-1.7,1.1-2.9,1.1-3.5c0-0.2-0.1-0.3-0.2-0.4l-0.1-0.1c0,0,0-0.1,0-0.1c0-0.1,0-0.1,0.1-0.2c0-0.1,0.1-0.1,0.2-0.1
		c0.1-0.1,0.3-0.1,0.5-0.1c0.2,0,0.3,0,0.4,0.1c0.1,0,0.2,0.1,0.2,0.1c0.1,0.1,0.2,0.3,0.2,0.4c0,0.1,0,0.3,0,0.4
		c0,0.1-0.1,0.3-0.1,0.4c0,0.1-0.1,0.3-0.1,0.4s-0.1,0.2-0.1,0.3c0,0.1,0,0.2,0,0.2c0.1-0.1,0.1-0.1,0.2-0.2l0.2-0.4
		c0.4-0.8,0.9-1.3,1.3-1.6c0.1-0.1,0.3-0.1,0.4-0.1c0.2,0,0.3,0.1,0.4,0.2c0.1,0.1,0.2,0.3,0.2,0.4c0,0.1,0,0.3,0,0.4
		c0,0.1-0.1,0.2-0.1,0.3c-0.1,0.2-0.3,0.3-0.4,0.3c0,0-0.1,0-0.1,0l-0.1-0.1c-0.1-0.1-0.2-0.1-0.3-0.1c-0.1,0-0.2,0.1-0.4,0.2
		c-0.2,0.1-0.3,0.3-0.5,0.5c-0.5,0.7-1,1.5-1.3,2.4l-0.2,0.6c-0.1,0.1-0.1,0.3-0.2,0.3s-0.1,0.1-0.2,0.1c-0.1,0-0.2,0-0.3,0
		C242,282,241.9,281.9,241.8,281.9z"/>
	<path fill="#336BDD" d="M246.2,280.2c0-0.3,0.1-0.6,0.1-0.9s0.2-0.5,0.3-0.8c0.1-0.3,0.3-0.5,0.5-0.7c0.2-0.2,0.4-0.4,0.6-0.6
		c0.5-0.4,1-0.6,1.5-0.6c0.6,0,1,0.2,1.2,0.7c0.1,0.2,0.1,0.4,0.1,0.6c0,0.2,0,0.4-0.1,0.6c-0.1,0.2-0.2,0.4-0.3,0.5
		c-0.1,0.2-0.3,0.3-0.5,0.4c-0.2,0.1-0.4,0.2-0.7,0.3c-0.5,0.2-1,0.3-1.6,0.3c0,0,0,0.1,0,0.2c0,0.1,0,0.2,0,0.3
		c0,0.1,0.1,0.2,0.1,0.3c0.1,0.2,0.3,0.3,0.5,0.3c0.4,0,0.8-0.1,1.2-0.4c0.1-0.1,0.2-0.2,0.3-0.2c0.1-0.1,0.2-0.1,0.2-0.1
		c0.1,0,0.1,0,0.2,0.1c0,0.1,0.1,0.2,0.1,0.3c0,0.2-0.1,0.3-0.2,0.5c-0.4,0.4-1.1,0.7-1.9,0.7c-0.5,0-0.9-0.2-1.2-0.5
		C246.3,281.2,246.2,280.8,246.2,280.2z M249.2,277.3c-0.4,0-0.7,0.2-1,0.7c-0.3,0.4-0.5,0.9-0.7,1.5c0.6-0.1,1.1-0.3,1.5-0.7
		c0.4-0.4,0.6-0.7,0.6-1.1S249.4,277.3,249.2,277.3z"/>
	<path fill="#336BDD" d="M251.1,280.2c0-0.3,0.1-0.6,0.1-0.9c0.1-0.3,0.2-0.6,0.4-0.8c0.1-0.3,0.3-0.5,0.5-0.7
		c0.2-0.2,0.4-0.4,0.7-0.6c0.5-0.3,1-0.5,1.6-0.5c0.6,0,0.9,0.2,1.2,0.7c0.1,0.2,0.1,0.3,0.1,0.5s0,0.4-0.1,0.6
		c-0.1,0.2-0.1,0.3-0.2,0.5c-0.2,0.3-0.4,0.5-0.6,0.5c-0.2,0-0.4-0.1-0.5-0.2c-0.1-0.1-0.1-0.2-0.1-0.4c0,0,0-0.1,0.1-0.1
		s0.1-0.1,0.2-0.2c0.2-0.2,0.3-0.5,0.4-0.8c0-0.2-0.1-0.3-0.4-0.3c-0.3,0-0.6,0.2-0.9,0.5c-0.5,0.5-0.8,1.1-1,1.8
		c-0.2,0.6-0.1,1.1,0.1,1.4c0.1,0.2,0.3,0.3,0.5,0.3c0.4,0,0.8-0.1,1.1-0.4c0.1-0.1,0.2-0.2,0.3-0.3c0.1-0.1,0.1-0.1,0.2-0.1
		s0.1,0,0.1,0.1c0,0.1,0.1,0.1,0.1,0.2c0,0.2-0.1,0.4-0.3,0.6c-0.5,0.4-1,0.7-1.7,0.7c-0.6,0-1-0.2-1.3-0.5
		C251.2,281.2,251.1,280.8,251.1,280.2z"/>
	<path fill="#336BDD" d="M259,280.6c0.1,0,0.2,0.1,0.2,0.2c0,0.1,0,0.2-0.1,0.3c-0.1,0.2-0.3,0.4-0.6,0.6c-0.3,0.2-0.6,0.3-1,0.3
		c-0.6,0-0.9-0.2-1.1-0.7c-0.2-0.6,0.1-1.8,0.8-3.7c-0.4,0-0.6-0.1-0.6-0.2c0,0,0-0.1,0-0.1s0-0.1,0-0.1c0,0,0.1-0.1,0.1-0.1
		c0.1-0.1,0.2-0.1,0.4-0.1h0.4c0.4-0.9,0.6-1.4,0.8-1.5c0.1-0.1,0.2-0.1,0.3-0.1s0.2,0,0.2,0c0.1,0,0.1,0.1,0.2,0.1
		c0.1,0.1,0.2,0.2,0.2,0.3c0,0.1,0,0.1-0.1,0.2l-0.4,0.8h0.1c0.2,0,0.4,0,0.5,0l0.3,0c0.1,0,0.1,0,0.2,0c0.1,0,0.1,0,0.1,0.1
		c0,0.5-0.5,0.7-1.6,0.7h0l-0.4,0.9c-0.4,1.1-0.6,1.8-0.6,2.3c0,0.1,0,0.2,0.1,0.3c0.1,0.1,0.2,0.1,0.3,0.1s0.3,0,0.4-0.1
		c0.1-0.1,0.2-0.1,0.3-0.2c0.1-0.1,0.2-0.1,0.2-0.2S259,280.6,259,280.6z"/>
	<path fill="#336BDD" d="M263.1,280.5c0-0.2,0-0.4,0-0.6s0.1-0.4,0.1-0.6c0-0.2,0.1-0.4,0.2-0.6l0.6-1.8c0.5-1.4,0.7-2.6,0.9-3.4
		c0-0.3,0.2-0.4,0.4-0.4c0.1,0,0.3,0,0.4,0.1c0.2,0.1,0.3,0.3,0.3,0.5c0,0.2,0,0.4-0.1,0.6s-0.1,0.4-0.2,0.7
		c-0.1,0.2-0.1,0.5-0.2,0.8c-0.2,0.7-0.4,1.2-0.5,1.5l-0.3,0.8c0.3-0.5,0.5-0.8,0.7-1c0.4-0.3,0.8-0.5,1.2-0.5c0.6,0,1,0.3,1.2,0.9
		c0.1,0.2,0.1,0.5,0.1,0.8c0,0.3,0,0.6-0.1,1c-0.1,0.3-0.2,0.6-0.4,0.9c-0.2,0.3-0.4,0.5-0.6,0.7c-0.2,0.2-0.4,0.4-0.7,0.6
		c-0.5,0.3-1,0.5-1.5,0.5c-0.5,0-0.8-0.1-1.1-0.4C263.3,281.3,263.1,281,263.1,280.5z M264.6,281.4c0.3,0,0.7-0.1,1-0.4
		c0.5-0.4,0.9-1.1,1-1.9c0.1-0.3,0.1-0.5,0.1-0.8s0-0.5-0.1-0.6s-0.2-0.2-0.3-0.2c-0.1,0-0.3,0.1-0.4,0.2c-0.1,0.1-0.3,0.3-0.5,0.4
		c-0.2,0.2-0.3,0.4-0.5,0.6s-0.3,0.5-0.4,0.7c-0.3,0.6-0.4,1-0.4,1.4S264.2,281.4,264.6,281.4z"/>
	<path fill="#336BDD" d="M269.1,281.6c-0.1-0.1-0.3-0.3-0.3-0.5c-0.1-0.2-0.1-0.5-0.1-0.8c0-0.3,0-0.6,0.1-0.9
		c0.1-0.3,0.2-0.6,0.3-0.9c0.1-0.3,0.3-0.5,0.5-0.8s0.4-0.5,0.6-0.6c0.5-0.4,1-0.6,1.6-0.6c0.7,0,1.2,0.3,1.4,0.9
		c0.2,0.5,0.2,1,0,1.6c-0.1,0.6-0.4,1.1-0.8,1.6c-0.4,0.5-0.8,0.8-1.4,1c-0.3,0.1-0.5,0.2-0.8,0.2c-0.3,0-0.5,0-0.7-0.1
		S269.3,281.8,269.1,281.6z M270.1,279.1c-0.1,0.3-0.2,0.5-0.2,0.8s-0.1,0.5-0.1,0.8c0,0.2,0,0.4,0.1,0.6c0.1,0.1,0.2,0.2,0.3,0.2
		c0.2,0,0.3-0.1,0.5-0.2s0.3-0.3,0.4-0.4s0.3-0.4,0.4-0.6c0.1-0.2,0.2-0.5,0.3-0.7c0.2-0.6,0.3-1,0.3-1.5c0-0.4-0.1-0.6-0.2-0.7
		c-0.1,0-0.1-0.1-0.3-0.1c-0.1,0-0.2,0.1-0.4,0.2c-0.1,0.1-0.3,0.2-0.4,0.4c-0.1,0.2-0.3,0.4-0.4,0.6
		C270.3,278.6,270.2,278.9,270.1,279.1z"/>
	<path fill="#336BDD" d="M274.3,281.9c-0.1,0.1-0.3,0.2-0.3,0.2s-0.1,0-0.2,0s-0.1-0.1-0.1-0.1c-0.1-0.1-0.2-0.2-0.2-0.2
		c0-0.1,0-0.1,0.1-0.2l0.3-0.3c0.6-0.5,1-1,1.4-1.5c-0.3-0.8-0.4-1.5-0.4-2.1c0-0.3,0.1-0.5,0.4-0.7c0.2-0.2,0.4-0.3,0.7-0.3
		c0.1,0,0.1,0,0.1,0.1c0,0,0,0.1,0,0.2c0,0.1,0,0.2,0,0.3s0,0.2,0,0.3c0,0.1,0,0.2,0,0.4c0,0.4,0.1,0.6,0.1,0.8l0.2-0.3
		c0.4-0.6,0.9-1.1,1.4-1.5c0.3-0.2,0.6-0.3,0.8-0.3c0.2,0,0.3,0,0.5,0.1c0.2,0.1,0.3,0.2,0.2,0.3c0,0,0,0-0.1,0l-0.1,0.1
		c-0.5,0.2-1.2,0.8-2.1,1.7c-0.2,0.2-0.3,0.4-0.5,0.6l0.2,0.6c0.2,0.7,0.5,1.1,0.8,1.1c0.1,0,0.2,0,0.3-0.1l0.2-0.1c0,0,0.1,0,0.1,0
		c0.1,0,0.1,0,0.1,0.1c0,0.3-0.2,0.6-0.5,0.8c-0.2,0.1-0.4,0.2-0.7,0.2c-0.5,0-1-0.5-1.4-1.6C275.1,281.1,274.7,281.6,274.3,281.9z"
		/>
</g>
<g>
	<g>
		<line fill="none" stroke="#FCC515" stroke-width="5" stroke-miterlimit="10" x1="224.6" y1="77.4" x2="217.6" y2="83.1"/>
		<g>
			<polygon fill="#FCC515" points="215,77.2 210.7,88.8 223,86.7 			"/>
		</g>
	</g>
</g>
<g>
	<g>
		<line fill="none" stroke="#FCC515" stroke-width="5" stroke-miterlimit="10" x1="229" y1="73.7" x2="235.9" y2="67.9"/>
		<g>
			<polygon fill="#FCC515" points="238.5,73.9 242.9,62.2 230.6,64.3 			"/>
		</g>
	</g>
</g>
<g>
	<g>
		<line fill="none" stroke="#36CC89" stroke-width="1.006" stroke-miterlimit="10" x1="299.6" y1="14.6" x2="299.6" y2="16.1"/>
		
			<line fill="none" stroke="#36CC89" stroke-width="1.006" stroke-miterlimit="10" stroke-dasharray="3.0298,3.0298" x1="299.6" y1="19.1" x2="299.6" y2="284.2"/>
		<polyline fill="none" stroke="#36CC89" stroke-width="1.006" stroke-miterlimit="10" points="299.6,285.7 299.6,287.2 
			298.1,287.2 		"/>
		
			<line fill="none" stroke="#36CC89" stroke-width="1.006" stroke-miterlimit="10" stroke-dasharray="2.9909,2.9909" x1="295.1" y1="287.2" x2="3.5" y2="287.2"/>
		<polyline fill="none" stroke="#36CC89" stroke-width="1.006" stroke-miterlimit="10" points="2,287.2 0.5,287.2 0.5,285.7 		"/>
		
			<line fill="none" stroke="#36CC89" stroke-width="1.006" stroke-miterlimit="10" stroke-dasharray="3.0298,3.0298" x1="0.5" y1="282.7" x2="0.5" y2="17.6"/>
		<polyline fill="none" stroke="#36CC89" stroke-width="1.006" stroke-miterlimit="10" points="0.5,16.1 0.5,14.6 2,14.6 		"/>
		
			<line fill="none" stroke="#36CC89" stroke-width="1.006" stroke-miterlimit="10" stroke-dasharray="2.9909,2.9909" x1="5" y1="14.6" x2="296.6" y2="14.6"/>
		<line fill="none" stroke="#36CC89" stroke-width="1.006" stroke-miterlimit="10" x1="298.1" y1="14.6" x2="299.6" y2="14.6"/>
	</g>
</g>
<line fill="none" stroke="#36CC89" stroke-miterlimit="10" x1="150.1" y1="17.1" x2="150.1" y2="41.1"/>
<rect x="140" y="24.2" fill="#FFFFFF" width="19.8" height="9.8"/>
<g enable-background="new    ">
	<path fill="#36CC89" d="M145.2,30.2c0.3,0,0.5,0,0.8-0.1v0.8c-0.1,0-0.3,0.1-0.4,0.1s-0.4,0-0.6,0c-1,0-1.5-0.5-1.5-1.5v-2.6h-0.7
		v-0.5l0.7-0.4l0.3-1h0.6v1.1h1.4v0.8h-1.4v2.6c0,0.2,0.1,0.4,0.2,0.5C144.9,30.2,145,30.2,145.2,30.2z"/>
	<path fill="#36CC89" d="M151.2,28.5c0,0.8-0.2,1.4-0.6,1.8c-0.4,0.4-1,0.7-1.7,0.7c-0.5,0-0.9-0.1-1.2-0.3
		c-0.3-0.2-0.6-0.5-0.8-0.9c-0.2-0.4-0.3-0.8-0.3-1.3c0-0.8,0.2-1.4,0.6-1.8c0.4-0.4,1-0.7,1.7-0.7c0.7,0,1.3,0.2,1.7,0.7
		C151,27.2,151.2,27.8,151.2,28.5z M147.7,28.5c0,1.1,0.4,1.7,1.2,1.7c0.8,0,1.2-0.6,1.2-1.7c0-1.1-0.4-1.7-1.2-1.7
		c-0.4,0-0.7,0.1-0.9,0.4C147.8,27.6,147.7,28,147.7,28.5z"/>
	<path fill="#36CC89" d="M154.9,31c-0.6,0-1.1-0.2-1.4-0.7h-0.1c0,0.4,0.1,0.7,0.1,0.7v2h-1v-7h0.8c0,0.1,0.1,0.3,0.1,0.6h0.1
		c0.3-0.5,0.8-0.7,1.4-0.7c0.6,0,1.1,0.2,1.4,0.7c0.3,0.4,0.5,1,0.5,1.8c0,0.8-0.2,1.4-0.5,1.8C155.9,30.8,155.5,31,154.9,31z
		 M154.6,26.9c-0.4,0-0.7,0.1-0.9,0.4s-0.3,0.6-0.3,1.1v0.2c0,0.6,0.1,1,0.3,1.3c0.2,0.3,0.5,0.4,0.9,0.4c0.4,0,0.6-0.1,0.8-0.4
		s0.3-0.7,0.3-1.2c0-0.5-0.1-1-0.3-1.2C155.3,27,155,26.9,154.6,26.9z"/>
</g>
<line fill="none" stroke="#36CC89" stroke-miterlimit="10" x1="150.1" y1="261.4" x2="150.1" y2="285.4"/>
<line fill="none" stroke="#36CC89" stroke-miterlimit="10" x1="297.7" y1="142.4" x2="258.9" y2="142.4"/>
<rect x="140" y="268.5" fill="#FFFFFF" width="19.8" height="9.8"/>
<rect x="265.6" y="137.5" fill="#FFFFFF" width="27" height="9.8"/>
<g enable-background="new    ">
	<path fill="#36CC89" d="M137.1,271.5c0.6,0,1.1,0.2,1.4,0.7c0.3,0.4,0.5,1,0.5,1.8c0,0.8-0.2,1.4-0.5,1.9s-0.8,0.7-1.4,0.7
		c-0.6,0-1.1-0.2-1.4-0.7h-0.1l-0.2,0.6h-0.8v-6.8h1v1.6c0,0.1,0,0.3,0,0.5c0,0.2,0,0.4,0,0.5h0C136,271.7,136.5,271.5,137.1,271.5z
		 M136.9,272.3c-0.4,0-0.7,0.1-0.9,0.4c-0.2,0.2-0.3,0.7-0.3,1.2v0.1c0,0.6,0.1,1,0.3,1.3c0.2,0.3,0.5,0.4,0.9,0.4
		c0.4,0,0.6-0.1,0.8-0.4c0.2-0.3,0.3-0.7,0.3-1.2C138,272.8,137.6,272.3,136.9,272.3z"/>
	<path fill="#36CC89" d="M144.5,273.9c0,0.8-0.2,1.4-0.6,1.8c-0.4,0.4-1,0.7-1.7,0.7c-0.5,0-0.9-0.1-1.2-0.3
		c-0.3-0.2-0.6-0.5-0.8-0.9c-0.2-0.4-0.3-0.8-0.3-1.3c0-0.8,0.2-1.4,0.6-1.8c0.4-0.4,1-0.7,1.7-0.7c0.7,0,1.3,0.2,1.7,0.7
		S144.5,273.2,144.5,273.9z M141,273.9c0,1.1,0.4,1.7,1.2,1.7c0.8,0,1.2-0.6,1.2-1.7c0-1.1-0.4-1.7-1.2-1.7c-0.4,0-0.7,0.1-0.9,0.4
		C141.1,273,141,273.4,141,273.9z"/>
	<path fill="#36CC89" d="M147.5,275.6c0.3,0,0.5,0,0.8-0.1v0.8c-0.1,0-0.3,0.1-0.4,0.1s-0.4,0-0.6,0c-1,0-1.5-0.5-1.5-1.5v-2.6h-0.7
		v-0.5l0.7-0.4l0.3-1h0.6v1.1h1.4v0.8h-1.4v2.6c0,0.2,0.1,0.4,0.2,0.5C147.1,275.6,147.3,275.6,147.5,275.6z"/>
	<path fill="#36CC89" d="M151,275.6c0.3,0,0.5,0,0.8-0.1v0.8c-0.1,0-0.3,0.1-0.4,0.1c-0.2,0-0.4,0-0.6,0c-1,0-1.5-0.5-1.5-1.5v-2.6
		h-0.7v-0.5l0.7-0.4l0.3-1h0.6v1.1h1.4v0.8h-1.4v2.6c0,0.2,0.1,0.4,0.2,0.5S150.8,275.6,151,275.6z"/>
	<path fill="#36CC89" d="M157,273.9c0,0.8-0.2,1.4-0.6,1.8c-0.4,0.4-1,0.7-1.7,0.7c-0.5,0-0.9-0.1-1.2-0.3c-0.3-0.2-0.6-0.5-0.8-0.9
		s-0.3-0.8-0.3-1.3c0-0.8,0.2-1.4,0.6-1.8c0.4-0.4,1-0.7,1.7-0.7c0.7,0,1.3,0.2,1.7,0.7C156.8,272.6,157,273.2,157,273.9z
		 M153.5,273.9c0,1.1,0.4,1.7,1.2,1.7c0.8,0,1.2-0.6,1.2-1.7c0-1.1-0.4-1.7-1.2-1.7c-0.4,0-0.7,0.1-0.9,0.4
		C153.6,273,153.5,273.4,153.5,273.9z"/>
	<path fill="#36CC89" d="M162.3,276.4h-1v-3c0-0.4-0.1-0.6-0.2-0.8c-0.1-0.2-0.4-0.3-0.7-0.3c-0.4,0-0.7,0.1-0.9,0.4
		s-0.3,0.7-0.3,1.3v2.4h-1v-4.8h0.8l0.1,0.6h0.1c0.1-0.2,0.3-0.4,0.6-0.5c0.3-0.1,0.5-0.2,0.8-0.2c0.7,0,1.2,0.3,1.5,0.8h0.1
		c0.1-0.2,0.3-0.4,0.6-0.6s0.6-0.2,0.9-0.2c0.6,0,1,0.1,1.3,0.4c0.3,0.3,0.4,0.7,0.4,1.3v3.2h-1v-3c0-0.4-0.1-0.6-0.2-0.8
		c-0.1-0.2-0.4-0.3-0.7-0.3c-0.4,0-0.7,0.1-0.9,0.4c-0.2,0.2-0.3,0.6-0.3,1.1V276.4z"/>
</g>
<g enable-background="new    ">
	<path fill="#36CC89" d="M272.4,140.2c0.2,0,0.4,0,0.5,0l-0.1,1c-0.1,0-0.3-0.1-0.5-0.1c-0.4,0-0.7,0.1-1,0.4
		c-0.3,0.3-0.4,0.6-0.4,1v2.5h-1v-4.8h0.8l0.1,0.9h0.1c0.2-0.3,0.4-0.5,0.6-0.7S272.1,140.2,272.4,140.2z"/>
	<path fill="#36CC89" d="M273.7,139c0-0.2,0.1-0.3,0.2-0.4c0.1-0.1,0.2-0.1,0.4-0.1c0.2,0,0.3,0,0.4,0.1c0.1,0.1,0.2,0.2,0.2,0.4
		c0,0.2-0.1,0.3-0.2,0.4s-0.2,0.2-0.4,0.2c-0.2,0-0.3-0.1-0.4-0.2S273.7,139.2,273.7,139z M274.8,145.1h-1v-4.8h1V145.1z"/>
	<path fill="#36CC89" d="M280.4,140.3v0.6l-0.8,0.2c0.1,0.1,0.1,0.2,0.2,0.4s0.1,0.3,0.1,0.5c0,0.5-0.2,0.9-0.5,1.2
		s-0.8,0.4-1.4,0.4c-0.2,0-0.3,0-0.4,0c-0.2,0.1-0.3,0.3-0.3,0.5c0,0.1,0.1,0.2,0.2,0.2c0.1,0.1,0.3,0.1,0.6,0.1h0.8
		c0.5,0,0.9,0.1,1.2,0.3c0.3,0.2,0.4,0.6,0.4,1c0,0.5-0.2,1-0.7,1.3c-0.5,0.3-1.1,0.4-2,0.4c-0.7,0-1.2-0.1-1.5-0.3
		c-0.3-0.2-0.5-0.6-0.5-1c0-0.3,0.1-0.5,0.3-0.7c0.2-0.2,0.5-0.3,0.8-0.4c-0.1-0.1-0.3-0.2-0.3-0.3c-0.1-0.1-0.1-0.3-0.1-0.4
		c0-0.2,0.1-0.3,0.2-0.5c0.1-0.1,0.3-0.2,0.5-0.4c-0.3-0.1-0.5-0.3-0.6-0.5c-0.2-0.2-0.2-0.5-0.2-0.9c0-0.5,0.2-0.9,0.5-1.2
		c0.3-0.3,0.8-0.4,1.4-0.4c0.1,0,0.3,0,0.4,0s0.3,0,0.3,0.1H280.4z M276.6,145.9c0,0.2,0.1,0.4,0.3,0.5c0.2,0.1,0.5,0.2,0.8,0.2
		c0.6,0,1-0.1,1.3-0.2c0.3-0.2,0.4-0.4,0.4-0.6c0-0.2-0.1-0.4-0.2-0.4c-0.2-0.1-0.4-0.1-0.8-0.1h-0.8c-0.3,0-0.5,0.1-0.7,0.2
		C276.7,145.4,276.6,145.6,276.6,145.9z M277,141.8c0,0.3,0.1,0.5,0.2,0.7c0.2,0.2,0.4,0.2,0.7,0.2c0.6,0,0.9-0.3,0.9-1
		c0-0.3-0.1-0.6-0.2-0.7c-0.1-0.2-0.4-0.3-0.7-0.3c-0.3,0-0.5,0.1-0.7,0.3S277,141.5,277,141.8z"/>
	<path fill="#36CC89" d="M285.5,145.1h-1v-3c0-0.4-0.1-0.7-0.2-0.8s-0.4-0.3-0.7-0.3c-0.4,0-0.7,0.1-1,0.4c-0.2,0.3-0.3,0.7-0.3,1.3
		v2.4h-1v-6.8h1v1.7c0,0.3,0,0.6-0.1,0.9h0.1c0.1-0.2,0.3-0.4,0.6-0.5s0.5-0.2,0.9-0.2c1.2,0,1.8,0.6,1.8,1.8V145.1z"/>
	<path fill="#36CC89" d="M288.8,144.4c0.3,0,0.5,0,0.8-0.1v0.8c-0.1,0-0.3,0.1-0.4,0.1c-0.2,0-0.4,0-0.6,0c-1,0-1.5-0.5-1.5-1.5V141
		h-0.7v-0.5l0.7-0.4l0.3-1h0.6v1.1h1.4v0.8h-1.4v2.6c0,0.2,0.1,0.4,0.2,0.5S288.6,144.4,288.8,144.4z"/>
</g>
<line fill="none" stroke="#36CC89" stroke-miterlimit="10" x1="39.3" y1="142.4" x2="0.5" y2="142.4"/>
<rect x="8.8" y="136.1" fill="#FFFFFF" width="22" height="11.2"/>
<g enable-background="new    ">
	<path fill="#36CC89" d="M14.1,145.1h-1v-6.8h1V145.1z"/>
	<path fill="#36CC89" d="M17.7,145.2c-0.8,0-1.3-0.2-1.8-0.7s-0.6-1-0.6-1.8c0-0.8,0.2-1.4,0.6-1.9c0.4-0.5,0.9-0.7,1.6-0.7
		c0.6,0,1.1,0.2,1.5,0.6s0.6,0.9,0.6,1.6v0.6h-3.2c0,0.5,0.1,0.8,0.4,1.1s0.6,0.4,1,0.4c0.3,0,0.6,0,0.8-0.1
		c0.2-0.1,0.5-0.1,0.8-0.3v0.8c-0.3,0.1-0.5,0.2-0.8,0.3C18.3,145.2,18,145.2,17.7,145.2z M17.5,141c-0.3,0-0.6,0.1-0.8,0.3
		c-0.2,0.2-0.3,0.5-0.4,0.9h2.2c0-0.4-0.1-0.7-0.3-0.9C18.1,141.1,17.8,141,17.5,141z"/>
	<path fill="#36CC89" d="M23.2,141H22v4.1h-1V141h-0.8v-0.5l0.8-0.3v-0.3c0-0.6,0.1-1,0.4-1.3c0.3-0.3,0.7-0.4,1.2-0.4
		c0.4,0,0.7,0.1,1.1,0.2l-0.3,0.8c-0.3-0.1-0.5-0.1-0.7-0.1c-0.2,0-0.4,0.1-0.5,0.2c-0.1,0.1-0.2,0.4-0.2,0.6v0.3h1.2V141z"/>
	<path fill="#36CC89" d="M25.8,144.4c0.3,0,0.5,0,0.8-0.1v0.8c-0.1,0-0.3,0.1-0.4,0.1s-0.4,0-0.6,0c-1,0-1.5-0.5-1.5-1.5V141h-0.7
		v-0.5l0.7-0.4l0.3-1h0.6v1.1h1.4v0.8h-1.4v2.6c0,0.2,0.1,0.4,0.2,0.5C25.4,144.3,25.6,144.4,25.8,144.4z"/>
</g>
<g>
	<path fill="none" d="M285,14"/>
</g>
</svg>
