<?xml version="1.0" encoding="utf-8"?>
<!-- Generator: Adobe Illustrator 18.0.0, SVG Export Plug-In . SVG Version: 6.00 Build 0)  -->
<!DOCTYPE svg PUBLIC "-//W3C//DTD SVG 1.1//EN" "http://www.w3.org/Graphics/SVG/1.1/DTD/svg11.dtd">
<svg version="1.1" id="Layer_1" xmlns="http://www.w3.org/2000/svg" xmlns:xlink="http://www.w3.org/1999/xlink" x="0px" y="0px"
	 width="237.1px" height="218.2px" viewBox="0 0 237.1 218.2" enable-background="new 0 0 237.1 218.2" xml:space="preserve">
<g>
	<g>
		<line fill="none" stroke="#EFEFEF" stroke-width="1.006" stroke-miterlimit="10" x1="213.7" y1="2.7" x2="213.7" y2="4.2"/>
		
			<line fill="none" stroke="#EFEFEF" stroke-width="1.006" stroke-miterlimit="10" stroke-dasharray="2.9845,2.9845" x1="213.7" y1="7.2" x2="213.7" y2="214.7"/>
		<polyline fill="none" stroke="#EFEFEF" stroke-width="1.006" stroke-miterlimit="10" points="213.7,216.1 213.7,217.6 
			212.2,217.6 		"/>
		
			<line fill="none" stroke="#EFEFEF" stroke-width="1.006" stroke-miterlimit="10" stroke-dasharray="3.0321,3.0321" x1="209.2" y1="217.6" x2="4.5" y2="217.6"/>
		<polyline fill="none" stroke="#EFEFEF" stroke-width="1.006" stroke-miterlimit="10" points="3,217.6 1.5,217.6 1.5,216.1 		"/>
		
			<line fill="none" stroke="#EFEFEF" stroke-width="1.006" stroke-miterlimit="10" stroke-dasharray="2.9845,2.9845" x1="1.5" y1="213.2" x2="1.5" y2="5.7"/>
		<polyline fill="none" stroke="#EFEFEF" stroke-width="1.006" stroke-miterlimit="10" points="1.5,4.2 1.5,2.7 3,2.7 		"/>
		
			<line fill="none" stroke="#EFEFEF" stroke-width="1.006" stroke-miterlimit="10" stroke-dasharray="3.0321,3.0321" x1="6" y1="2.7" x2="210.7" y2="2.7"/>
		<line fill="none" stroke="#EFEFEF" stroke-width="1.006" stroke-miterlimit="10" x1="212.2" y1="2.7" x2="213.7" y2="2.7"/>
	</g>
</g>
<path fill="none" stroke="#36CC89" stroke-width="3" stroke-miterlimit="10" stroke-dasharray="12,8" d="M183.4,34.1
	c41,41,40.3,108.2-1.6,150s-109,42.6-150,1.6s-40.3-108.2,1.6-150S142.4-6.9,183.4,34.1z"/>
<g>
	<g>
		<g>
			<g>
				<path fill="#DCF4DF" d="M31.4,49.8c2.8-2.2,5.4-4.5,7.9-7c-1.2-0.9-2.3-1.8-3.5-2.7c-4.7,7.8-10.7,14.5-17.9,20
					c0.9,1.2,1.8,2.3,2.7,3.5c15.9-13.8,30.9-28.5,45.2-43.9c-1.2-0.9-2.3-1.8-3.5-2.7C46,39.1,28.8,60.5,10.6,81.1
					c-1.9,2.1,1.2,5.3,3.1,3.1c10.7-11.6,21.3-23.3,31.9-35c5.3-5.8,10.6-11.7,15.9-17.5c2.7-2.9,5.3-5.8,8-8.8
					c2.8-3.1,5.5-6.9,9.7-8.1c-0.7-1.2-1.4-2.5-2.2-3.7C53,40.9,27.7,69.7,2.8,98.7c-1.7,2,0.4,4.6,2.7,3.5
					c8.4-4,14.7-10.9,21.2-17.3C35,76.8,43,68.6,51.1,60.3c15.6-16.1,30.8-32.5,45.7-49.2c-1.2-0.9-2.3-1.8-3.5-2.7
					C81.1,28.1,66.8,46.3,51.5,63.6c-7.5,8.5-15.3,16.8-23.3,25c-7.8,8.1-16.5,15.8-22.3,25.6c-1.2,2,1.1,4,3,3
					C53.7,95.6,73.3,46,109.7,14.7c-1-1-2.1-2.1-3.1-3.1C88,30,73,51.3,57.1,72C49,82.5,40.6,92.7,31.4,102.3
					c-4.6,4.8-9.5,9.3-14.5,13.7c-4.3,3.8-8,7.8-10.1,13.2c-0.8,2.1,1.7,3.2,3.3,2.5c52.8-22.7,60-90.8,106.8-120.4
					c-0.9-1.2-1.8-2.3-2.7-3.5C97,30,79.2,51.9,62.7,74.6c-7.8,10.8-14.4,22.4-20,34.5c-2.8,6.1-5.8,11.5-10.7,16.1
					c-4.4,4.2-9.9,7.3-15.2,10.4c-2.5,1.5-0.3,5.1,2.2,3.8c11.3-5.4,19-15.2,26.1-25.2c8.9-12.4,18.1-24.5,28-36.1
					c20.1-23.6,42.3-45.5,64.3-67.3c1.7-1.6-0.1-4.2-2.2-3.7c-20.1,4.4-32.1,25.3-43.3,40.6C77.2,68.1,63,88.9,49.3,110
					c-1.6,2.4,2.3,4.6,3.8,2.2c12.7-19.5,25.8-38.6,39.4-57.5c6.5-9.1,13-18.3,20.2-26.9c6.4-7.6,14-14.2,23.8-16.4
					c-0.7-1.2-1.4-2.5-2.2-3.7c-21.2,21-42.4,42-62,64.5C62.7,83.4,53.5,94.9,45,106.9c-7.9,11-15.5,22.7-28.1,28.7
					c0.7,1.3,1.5,2.6,2.2,3.8c9.7-5.8,18.7-11.8,24.4-21.9c3.2-5.7,5.6-11.8,8.7-17.6c3.4-6.4,7.2-12.6,11.3-18.6
					c8-11.9,17.2-23,26-34.3c9.2-12,18.5-24,27.8-36c1.4-1.9-0.4-5-2.7-3.5C67.9,37.1,60.3,105.4,7.9,127.9c1.1,0.8,2.2,1.7,3.3,2.5
					c2.4-6.1,7.8-10.2,12.6-14.5c4.6-4.1,8.9-8.5,13.2-12.9c8.6-9.1,16.4-18.9,24-28.8c15.7-20.3,30.5-41.4,48.7-59.5
					c2.1-2.1-1-5-3.1-3.1c-36.1,31-55.5,80.3-99.8,101.8c1,1,2,2,3,3c5.9-9.9,14.9-17.7,22.8-26c7.9-8.2,15.7-16.6,23.2-25.1
					C71,48.2,85.1,30.1,97.1,10.6c1.3-2.1-1.8-4.6-3.5-2.7C79.1,24.2,64.3,40.1,49.2,55.8C41.7,63.6,34,71.4,26.3,79.1
					c-7,7.1-13.9,15-23.1,19.3c0.9,1.2,1.8,2.3,2.7,3.5c24.9-29.1,50.2-57.8,74.2-87.6c1.3-1.6,0.2-4.4-2.2-3.7
					c-6.2,1.7-10.2,7.6-14.3,12.1C58,29,52.2,35.3,46.5,41.6c-12,13.2-23.9,26.3-35.9,39.5c1,1,2.1,2.1,3.1,3.1
					c18.4-20.9,35.9-42.6,52.4-64.9c1.5-2.1-1.8-4.5-3.5-2.7C48.4,32,33.3,46.7,17.5,60.5c-1.9,1.6,0.7,5,2.7,3.5
					c7.8-6,14.4-13.2,19.5-21.6c1.3-2.2-1.7-4.5-3.5-2.7c-2.5,2.5-5.1,4.8-7.9,7C26,48.4,29.2,51.6,31.4,49.8L31.4,49.8z"/>
			</g>
		</g>
		<g>
			<g>
				<path fill="#DCF4DF" d="M16.4,155c22.5-23.1,44.9-46.4,67.2-69.7c11.4-11.9,22.7-23.8,34-35.8c9.9-10.4,20.8-20.6,27.7-33.4
					c1.3-2.4-1.7-4.5-3.7-2.8c-13.9,11.6-28.1,22.8-41.3,35.2c-6,5.6-11.6,11.7-16.5,18.2c-5.6,7.3-9.5,15.6-13.6,23.7
					c-7.7,15.4-18,29.1-30.6,40.8c-9.3,8.6-26,16.5-26.3,31c0,2.2,2.5,2.8,4,1.7c27.8-21.9,50.9-47.7,72.5-75.5
					c20.2-25.8,40.6-52.5,68.6-70.3c-0.9-1.2-1.9-2.4-2.8-3.7c-12.2,11.5-22.4,23-30.1,38c-8,15.5-19,28.7-30.5,41.8
					c-22.5,25.9-47.5,49.6-74.2,71.1c-1.9,1.5,0.1,4.5,2.3,3.9c14.1-4.1,25.2-14,35.7-24c12.6-12,24.9-24.4,37-37
					c23.6-24.8,45.8-50.8,66.8-77.8c-1.2-0.9-2.4-1.9-3.7-2.8c-6.7,13.2-13.6,26.5-22,38.7c-9.6,13.8-21.9,25.5-33.6,37.5
					c-23.3,24-46.7,48-70,72c-1.8,1.8,0.6,5.3,2.8,3.7c25.7-18.5,48.3-40.7,69.9-63.7C129,91.2,151.4,66,174,41
					c-1.3-0.8-2.6-1.5-3.9-2.3c-7.8,33.2-38.1,55-61.2,77.5c-24.3,23.7-46.8,49.2-67.6,76c-1.5,1.9,0.5,5.4,2.8,3.7
					c24.8-19,46.4-41.5,67.6-64.3c10.8-11.6,21.5-23.2,32.6-34.5c11.4-11.6,23.5-25.5,39-31.7c-0.8-1.3-1.5-2.6-2.3-3.9
					c-8.7,7-17.4,14-24.9,22.2c-7.6,8.3-14,17.7-21.2,26.5c-14.4,17.7-30.3,34.2-47.4,49.5c-2.2,2,1.1,5.3,3.3,3.3
					c17-15.3,32.9-31.8,47.4-49.5c7.2-8.7,13.7-18,21.2-26.5c7.4-8.4,16.2-15.3,24.9-22.2c1.8-1.4-0.1-4.7-2.3-3.9
					c-13.8,5.5-24.4,16.4-34.8,26.6C135.5,99,124.3,111,113.1,123c-22.5,24.2-45.1,48.5-71.5,68.7c0.9,1.2,1.9,2.4,2.8,3.7
					c21.5-27.8,45-54.1,70.3-78.6c23.1-22.4,52.1-44,59.8-77c0.5-2.2-2.3-4.1-3.9-2.3c-22.2,24.5-44.3,49.2-66.8,73.4
					c-21.6,23.3-44.3,45.7-70.2,64.3c0.9,1.2,1.9,2.4,2.8,3.7c23.8-24.5,47.6-48.9,71.4-73.4c11.1-11.4,22.5-22.7,31.9-35.6
					c9.1-12.5,16.1-26.4,23.1-40.2c1.1-2.2-2-5-3.7-2.8c-20.2,26-41.7,51.1-64.3,75.1c-11.1,11.8-22.5,23.3-34.1,34.5
					c-11.4,11.1-23.3,23.3-39,27.9c0.8,1.3,1.5,2.6,2.3,3.9c26.3-21.1,50.7-44.5,73-69.7c10.8-12.3,21.9-24.8,29.8-39.2
					c4.3-7.8,8-15.7,13.5-22.8c5.5-7,12-13.1,18.5-19.2c1.9-1.8-0.6-5.1-2.8-3.7c-27.5,17.5-47.8,43.1-67.5,68.5
					c-22.4,28.7-45.9,55.4-74.5,78c1.3,0.6,2.7,1.1,4,1.7c0.2-7.7,7-13.1,12.5-17.5c5.9-4.8,11.8-9.4,17.2-14.8
					c11.2-11,20.2-24.3,27.3-38.6c3.8-7.6,7.7-15.1,12.7-22.1c5-6.8,11-12.8,17.1-18.5c12.8-11.9,26.7-22.8,40.1-34
					c-1.2-0.9-2.4-1.9-3.7-2.8c-6.9,13-18.3,23.3-28.3,33.9c-10.8,11.6-21.7,23-32.6,34.5c-22.3,23.3-44.7,46.6-67.2,69.7
					C11,153.8,14.3,157.1,16.4,155L16.4,155z"/>
			</g>
		</g>
		<g>
			<g>
				<path fill="#DCF4DF" d="M64.4,189.9c11.4-7.9,20.7-18.6,30.3-28.5c10.9-11.2,22-22.2,33-33.2c22.6-22.5,45.6-44.6,68.8-66.5
					c-1.3-0.8-2.6-1.5-3.9-2.3c-0.6,3.8-3,6.3-5.5,9c-3,3.3-6,6.6-9,9.9c-5.6,6.1-11.2,12.2-16.9,18.2c-11.3,12.1-22.8,24-34.4,35.8
					s-23.4,23.4-35.3,34.9c-6,5.7-12,11.4-18,17.1c-4.9,4.6-9.8,8.9-12.3,15.3c-0.5,1.4,0.8,3,2.3,3c13.8,0,24.7-8.6,34.1-17.7
					c5.9-5.7,11.6-11.7,17.4-17.5c5.7-5.7,11.6-11.3,16.6-17.7c4.7-6.2,8-13,13.3-18.9c5.8-6.6,11.9-13,18-19.4
					c11.8-12.3,24.1-24.3,36.6-35.8c-1.1-1.1-2.2-2.2-3.3-3.3c-23.9,24.6-47.8,49.1-73.2,72c-21.5,19.4-44.3,38.8-56.6,65.6
					c-0.7,1.5,0.1,3.6,2,3.5c7-0.2,12-4.5,17.3-8.6c6.3-4.9,12.6-9.9,18.8-15c12.8-10.5,25.2-21.5,36.9-33.2
					c11.4-11.4,21.9-23.6,31.4-36.6s16.2-30,29.5-39.6c-0.9-1.2-1.9-2.4-2.8-3.7c-10.2,11.4-22.2,20.6-31.8,32.5
					c-9.2,11.3-17,23.7-25.7,35.3c-16.3,21.8-41.6,38-51.2,64.4c-0.6,1.7,1.3,3.4,2.9,2.9c11-3.4,19.8-10.6,28-18.5
					c10-9.6,19.9-19.4,29.4-29.6c17.9-19.2,33-41.1,52.8-58.5c2-1.8-0.6-5-2.8-3.7c-16.5,10.1-28.4,25.4-41,39.6
					c-6.8,7.7-14.2,14.5-22.1,21.2c-7,5.9-12.9,13.3-13.2,22.8c0,1.2,1.1,2.4,2.3,2.3c19.8-1.2,33.8-15.5,45.5-30
					c14-17.3,26.8-35.6,39.8-53.6c1.6-2.1-2-4.9-3.7-2.8c-21.7,27.1-45.1,52.8-69.9,77c-2.2,2.1,1.1,5.4,3.3,3.3
					c24.8-24.2,48.2-49.9,69.9-77c-1.2-0.9-2.4-1.9-3.7-2.8c-11.7,16.1-23.3,32.4-35.6,48.2c-11.6,14.9-25.3,31.9-45.7,33.1
					c0.8,0.8,1.6,1.6,2.3,2.3c0.3-10.2,8.5-16.8,15.7-22.8c7-5.8,13.2-12.3,19.2-19.1c12-13.6,23.4-28.1,39-37.7
					c-0.9-1.2-1.9-2.4-2.8-3.7c-18.9,16.5-33.5,37.1-50.2,55.7c-9.1,10-18.8,19.5-28.4,29c-8.6,8.5-17.6,17.1-29.5,20.7
					c1,1,1.9,1.9,2.9,2.9c4.7-12.9,13.7-23.1,23.2-32.7c9.2-9.4,18.5-18.6,26.5-29.1c9-11.7,16.8-24.2,26-35.8
					c9.5-12,21.7-21.1,31.8-32.5c1.7-1.9-0.6-5.3-2.8-3.7c-11.6,8.3-17.7,21.3-25.4,32.9c-8.9,13.6-19.4,26.1-30.6,37.9
					c-11,11.6-22.8,22.4-35,32.7C102.8,185,96.6,190,90.3,195c-6.1,4.9-13.8,13.3-22,13.6c0.7,1.2,1.3,2.3,2,3.5
					c12.4-27,35.5-46.3,57.1-65.8c25-22.6,48.5-46.8,72-70.9c2.1-2.2-1.1-5.3-3.3-3.3c-11.7,10.7-23,21.7-34,33.1
					c-10.6,10.9-22.4,21.9-30.2,35.1c-8,13.5-20.5,24-31.5,35c-10.1,10.2-21.5,22.6-37,22.5c0.8,1,1.5,2,2.3,3
					c2.7-7,9.9-12.1,15.2-17.1c6-5.7,12-11.4,17.9-17.2c11.9-11.5,23.6-23.2,35.2-35s23-23.8,34.3-35.9c5.6-6,11.2-12.1,16.8-18.3
					c4.4-4.8,10.8-10,11.8-16.7c0.3-2.2-2.1-4-3.9-2.3c-22.3,20.9-44.3,42.2-66.1,63.7c-11.1,11-22.1,22.1-33.1,33.2
					c-10.2,10.4-20,22.2-32.1,30.6C59.6,187.6,61.9,191.6,64.4,189.9L64.4,189.9z"/>
			</g>
		</g>
		<g>
			<g>
				<path fill="#DCF4DF" d="M125.1,202.4c27.3-28.8,56.1-56.1,86.3-81.7c-1.2-0.9-2.4-1.9-3.7-2.8c-18.8,31.7-46.1,56.9-73,81.5
					c-2,1.8,0.6,5,2.8,3.7c12.2-7,22-15.8,29.8-27.5c8-12.1,14.9-26.6,29-32.5c-1-1-1.9-1.9-2.9-2.9c-4.8,18.7-15.5,35.1-30.6,47.2
					c-2.4,1.9,1,5.2,3.3,3.3c15.6-12.5,26.7-29.8,31.8-49.2c0.4-1.5-1.1-3.6-2.9-2.9c-12.6,5.3-20.3,16.2-27.3,27.5
					c-4.1,6.6-8.2,13.1-13.5,18.8c-5.5,5.8-12.2,10.4-19.2,14.3c0.9,1.2,1.9,2.4,2.8,3.7c27.3-24.9,54.8-50.4,73.8-82.5
					c1.4-2.4-1.7-4.5-3.7-2.8c-30.2,25.7-59,52.9-86.3,81.7C119.8,201.2,123.1,204.6,125.1,202.4L125.1,202.4z"/>
			</g>
		</g>
	</g>
	<g>
		<g>
			<path fill="#DCF4DF" d="M118.6,210.9c12.4-7.2,24.6-14.8,36.5-22.8c2.1-1.4,0.8-5.3-1.8-4.3c-3.3,1.4-6.7,2.7-10,4.1
				c0.8,1.3,1.5,2.6,2.3,3.9c2.3-2.5,4.3-5.1,6.1-8c2.1-3.5,3.3-7.6,6.7-10.2c2.4-1.8,0.1-5.8-2.4-4c-6.3,4.7-8.4,13.2-13.8,18.9
				c-1.5,1.6,0,4.8,2.3,3.9c3.3-1.4,6.7-2.7,10-4.1c-0.6-1.4-1.2-2.8-1.8-4.3c-11.9,8-24.1,15.6-36.5,22.8
				C113.6,208.4,115.9,212.4,118.6,210.9L118.6,210.9z"/>
		</g>
	</g>
</g>
<g enable-background="new    ">
	<path fill="#36CC89" d="M62.1,115.3c2-1.5,4-5.2,6-11.3c1.2-3.5,2-6.7,2.4-9.5c0.1-0.8,0.2-1.4,0.2-1.8c-0.5,0-0.9,0.1-1.3,0.4
		l-1.3,0.7c-0.4,0.2-0.8,0-1.4-0.5c-0.6-0.5-0.9-0.9-0.8-1.3s0.2-0.6,0.6-0.9c0.3-0.2,0.7-0.4,1.2-0.6c0.9-0.3,1.7-0.5,2.4-0.5
		s1.2,0,1.7,0.1c0.5,0.1,0.9,0.3,1.3,0.5c0.9,0.5,1.4,1.3,1.4,2.3c0,1.7-0.5,4.6-1.7,8.7c-1.9,6.5-4.1,11-6.7,13.7
		c-0.7,0.7-1.4,1.2-2.2,1.5c-0.2,0.1-0.4,0.1-0.6,0.1s-0.4,0-0.6-0.1c-0.2-0.1-0.3-0.2-0.4-0.3c-0.2-0.2-0.4-0.5-0.4-0.7
		C61.9,115.6,62,115.4,62.1,115.3z"/>
	<path fill="#36CC89" d="M88,102.3c-0.7,0-1.9,1-3.7,2.9c-1.3,1.5-2.3,2.6-2.9,3.4l-1.6,2c-0.7,1.3-1.2,2.3-1.6,3.2l-0.9,2
		c-0.2,0.5-0.5,0.8-0.6,1c-0.2,0.2-0.4,0.3-0.7,0.3s-0.6-0.1-0.9-0.2c-0.3-0.1-0.5-0.3-0.7-0.4c-0.4-0.4-0.7-0.8-0.7-1.2
		c0-0.2,0.1-0.5,0.4-1l0.7-1.4c0.2-0.4,0.4-0.9,0.7-1.6l1-2.4c1.4-3.4,2-5.6,2-6.6c0-0.5-0.2-0.9-0.5-1.2l-0.3-0.2
		c-0.1-0.1-0.2-0.2-0.2-0.4c0-0.2,0.1-0.4,0.2-0.6c0.2-0.2,0.4-0.3,0.6-0.5c0.5-0.3,1-0.4,1.6-0.4s0.9,0.1,1.2,0.2
		c0.3,0.1,0.6,0.3,0.8,0.5c0.4,0.4,0.7,0.8,0.7,1.3s-0.1,0.9-0.2,1.3c-0.1,0.4-0.3,0.9-0.4,1.3c-0.2,0.5-0.4,0.9-0.6,1.3
		c-0.5,1-0.7,1.6-0.9,1.8c-0.1,0.2-0.1,0.3-0.1,0.3c2.1-2.7,3.4-4.3,3.8-4.8c0.9-1,1.6-1.7,2.1-2.1c0.9-0.7,1.8-1,2.6-1
		c0.8,0,1.5,0.3,1.9,0.8c0.5,0.5,0.7,1.2,0.7,2c0,0.7-0.2,1.6-0.6,2.5c-0.4,1-0.6,1.7-0.7,2l2.5-3.3l1.4-1.7c0.8-1,1.6-1.6,2.2-1.9
		c0.6-0.3,1.2-0.4,1.6-0.4s0.8,0.1,1.2,0.2c0.4,0.1,0.7,0.4,1,0.6c0.6,0.6,0.9,1.3,0.9,2.2c0,0.9-0.2,1.8-0.6,2.8
		c-0.4,0.9-0.8,1.7-1.1,2.3s-0.6,1.2-0.9,1.8c-0.8,1.8-1.3,3.2-1.3,4.1c0,0.6,0.3,0.9,0.8,0.9c0.5,0,0.9-0.1,1.3-0.3
		c0.4-0.2,0.7-0.3,0.8-0.3c0.2,0,0.4,0.1,0.4,0.4c0,1-0.5,1.9-1.6,2.6c-0.7,0.5-1.3,0.7-1.9,0.7c-0.6,0-1-0.1-1.4-0.2
		c-0.4-0.1-0.7-0.4-1-0.7c-0.6-0.7-1-1.5-1-2.5s0.1-1.9,0.4-2.8c0.3-0.8,0.6-1.7,0.9-2.4c0.3-0.8,0.7-1.5,1-2.2s0.6-1.2,0.8-1.6
		c0.4-0.8,0.6-1.4,0.6-1.8c0-0.4-0.2-0.7-0.7-0.7c-0.6,0-1.7,1-3.3,3.1c-1.2,1.6-2.1,2.7-2.5,3.4l-1.2,1.7c-0.7,1.3-1.2,2.3-1.5,3.2
		l-0.9,2c-0.2,0.5-0.4,0.8-0.6,1c-0.2,0.2-0.4,0.3-0.7,0.3s-0.6,0-0.8-0.1c-0.3-0.1-0.5-0.2-0.7-0.4c-0.4-0.3-0.7-0.7-0.7-1.1
		s0.1-0.9,0.4-1.5c0.2-0.6,0.6-1.4,0.9-2.2l2.4-5.1c0.9-1.9,1.3-3.1,1.3-3.6C88.8,102.6,88.5,102.3,88,102.3z M89.8,107.2
		C89.8,107.2,89.8,107.2,89.8,107.2L89.8,107.2C89.8,107.1,89.8,107.2,89.8,107.2z"/>
	<path fill="#36CC89" d="M117.1,112.3c0,1.1,0.4,1.6,1.1,1.6c0.5,0,0.9-0.1,1.3-0.2c0.3-0.2,0.6-0.2,0.7-0.2c0.2,0,0.4,0.1,0.4,0.4
		c0,1-0.5,1.8-1.6,2.5c-1.1,0.7-2.2,0.9-3.3,0.6c-0.7-0.3-1.3-0.8-1.7-1.7c-0.2-0.4-0.3-0.9-0.3-1.2c0-0.6,0.1-1.2,0.2-1.9
		c-1.1,2.2-2.4,3.7-4,4.5c-0.6,0.3-1.3,0.5-2,0.5c-0.7,0-1.3-0.1-1.9-0.4c-0.5-0.3-1-0.7-1.3-1.2c-0.7-1.1-1.1-2.4-1-4.1
		c0.1-2,0.7-4,1.8-6c1-1.8,2.4-3.3,4-4.5c1.6-1.2,3.1-1.8,4.5-1.8c1.4,0,2.5,0.6,3.4,1.9c0.8-1.3,1.5-1.9,2.1-1.9
		c0.7,0,1.1,0.1,1.5,0.4c0.6,0.5,0.9,0.9,0.7,1.2c-2.9,5.9-4.4,9.6-4.4,11C117.1,111.9,117.1,112.1,117.1,112.3z M107.5,112.4
		c0,1.4,0.4,2.1,1.3,2.1c0.7,0,1.5-0.6,2.5-1.7c1.4-1.7,2.7-4,3.8-6.8c0.4-0.9,0.7-1.8,0.9-2.7c0-0.8-0.4-1.4-1-1.7
		c-0.2-0.1-0.5-0.2-0.9-0.2s-0.9,0.1-1.4,0.4c-0.5,0.3-1.1,0.7-1.6,1.2s-1,1.1-1.4,1.8s-0.8,1.5-1.2,2.3
		C107.9,108.9,107.5,110.6,107.5,112.4z"/>
	<path fill="#36CC89" d="M133,113.1c-1.7,2.6-3.7,3.9-5.8,3.9c-1.9,0-3.2-1-3.9-3.1c-0.2-0.7-0.3-1.6-0.3-2.6c0-1,0.1-2,0.4-3.1
		c0.3-1,0.7-2,1.2-2.9c0.5-0.9,1.1-1.8,1.8-2.5c0.7-0.8,1.4-1.4,2.2-2c1.6-1.2,3.2-1.8,4.9-1.8s2.8,0.8,3.4,2.3
		c0.1-0.1,0.3-0.3,0.4-0.5c0.1-0.2,0.2-0.3,0.4-0.4c0.3-0.3,0.6-0.4,0.8-0.4c0.2,0,0.5,0,0.7,0.1c0.2,0.1,0.5,0.2,0.7,0.3
		c0.6,0.3,0.8,0.6,0.6,0.9c-0.6,1.4-1.2,2.7-1.6,4l-2.5,8.1c-2,6.2-4.6,10.2-7.6,12c-0.8,0.5-1.5,0.8-2.1,0.8c-0.6,0.1-1,0.1-1.3,0
		c-0.3-0.1-0.5-0.2-0.7-0.3c-0.4-0.3-0.7-0.5-0.7-0.8c0-0.4,0.3-0.6,0.8-0.7s1.1-0.3,1.7-0.6c0.6-0.3,1.1-0.7,1.7-1.2
		C130.2,120.6,131.9,117.4,133,113.1z M127.8,107.1c-0.3,0.8-0.5,1.7-0.7,2.5c-0.2,0.9-0.3,1.6-0.3,2.1c0,0.6,0,1,0.1,1.3
		c0,0.3,0.1,0.5,0.2,0.8c0.2,0.5,0.6,0.7,1,0.7s0.9-0.2,1.3-0.5s0.9-0.7,1.4-1.3c0.5-0.6,1-1.2,1.4-1.9c0.5-0.7,0.9-1.5,1.4-2.4
		c1-1.9,1.6-3.7,2-5.5c-0.1-0.3-0.3-0.6-0.6-1c-0.7-0.6-1.2-0.9-1.8-0.9c-0.5,0-1.1,0.2-1.6,0.5s-1,0.8-1.5,1.3
		c-0.5,0.6-0.9,1.2-1.3,1.9C128.5,105.5,128.1,106.3,127.8,107.1z"/>
	<path fill="#36CC89" d="M141.7,110.9c0-1,0.2-2,0.5-2.9s0.7-1.8,1.2-2.7s1-1.7,1.7-2.4s1.4-1.4,2.1-2c1.6-1.2,3.3-1.8,5-1.8
		c2,0,3.3,0.8,3.9,2.4c0.2,0.6,0.3,1.2,0.3,2c0,0.8-0.2,1.4-0.4,2.1c-0.3,0.6-0.7,1.2-1.1,1.7c-0.5,0.5-1.1,1-1.7,1.4
		s-1.4,0.8-2.2,1.1c-1.6,0.6-3.4,0.9-5.2,0.9c0,0.2-0.1,0.4-0.1,0.7c0,0.3,0,0.7,0.1,1.1s0.2,0.7,0.4,1.1c0.4,0.7,1,1,1.8,1
		c1.3,0,2.6-0.4,3.9-1.2c0.4-0.3,0.8-0.5,1.1-0.8s0.5-0.4,0.7-0.4c0.2,0,0.4,0.1,0.5,0.4s0.2,0.5,0.2,0.8c0,0.6-0.2,1.1-0.5,1.6
		c-1.4,1.4-3.6,2.2-6.5,2.2c-1.7,0-3-0.5-4.1-1.5C142.1,114.4,141.6,112.8,141.7,110.9z M151.7,101.3c-1.2,0-2.4,0.8-3.5,2.5
		c-0.9,1.4-1.7,3.1-2.3,5.1c1.9-0.2,3.6-1,5-2.3c1.3-1.2,1.9-2.4,1.9-3.6S152.5,101.3,151.7,101.3z"/>
</g>
<g>
	<g>
		<line fill="none" stroke="#FCC515" stroke-width="5" stroke-miterlimit="10" x1="186.6" y1="33" x2="193.5" y2="27.2"/>
		<g>
			<polygon fill="#FCC515" points="196.1,33.2 200.4,21.5 188.1,23.6 			"/>
		</g>
	</g>
</g>
<g>
	<g>
		<line fill="none" stroke="#FCC515" stroke-width="5" stroke-miterlimit="10" x1="182.1" y1="36.7" x2="175.2" y2="42.4"/>
		<g>
			<polygon fill="#FCC515" points="172.6,36.5 168.3,48.1 180.5,46.1 			"/>
		</g>
	</g>
</g>
<line fill="none" stroke="#36CC89" stroke-miterlimit="10" stroke-dasharray="2" x1="227.5" y1="6" x2="227.5" y2="34.9"/>
<line fill="none" stroke="#EFEFEF" stroke-miterlimit="10" stroke-dasharray="2" x1="184.7" y1="6" x2="184.7" y2="34.9"/>
<line fill="none" stroke="#36CC89" stroke-miterlimit="10" stroke-dasharray="2" x1="227.5" y1="6" x2="184.7" y2="6"/>
<line fill="none" stroke="#EFEFEF" stroke-miterlimit="10" stroke-dasharray="2" x1="227.5" y1="34.9" x2="184.7" y2="34.9"/>
<path d="M237.1,14.8L227.5,6v13l2.9-2.8l1.7,3.9l2.7-1.2l-1.7-3.9L237.1,14.8z"/>
<rect x="198.4" y="0" fill="#FFFFFF" width="20.5" height="11.6"/>
<polygon fill="#FFFFFF" points="233.7,18.5 232.5,19 230.7,14.8 228.4,17 228.4,7.9 235.1,14.1 231.8,14.3 "/>
<g enable-background="new    ">
	<path fill="#36CC89" d="M205.3,8.2h-0.8V3.1h0.8V8.2z"/>
	<path fill="#36CC89" d="M208,8.3c-0.6,0-1-0.2-1.3-0.5c-0.3-0.3-0.5-0.8-0.5-1.4c0-0.6,0.1-1.1,0.4-1.4s0.7-0.5,1.2-0.5
		c0.5,0,0.9,0.1,1.1,0.4c0.3,0.3,0.4,0.7,0.4,1.2v0.4H207c0,0.4,0.1,0.6,0.3,0.8s0.4,0.3,0.8,0.3c0.2,0,0.4,0,0.6-0.1
		c0.2,0,0.4-0.1,0.6-0.2v0.6c-0.2,0.1-0.4,0.2-0.6,0.2C208.4,8.3,208.2,8.3,208,8.3z M207.8,5.1c-0.2,0-0.4,0.1-0.6,0.2
		C207.1,5.5,207,5.7,207,6h1.7c0-0.3-0.1-0.5-0.2-0.7S208.1,5.1,207.8,5.1z"/>
	<path fill="#36CC89" d="M212.1,5.2h-0.9v3.1h-0.8V5.2h-0.6V4.8l0.6-0.2V4.4c0-0.4,0.1-0.7,0.3-1c0.2-0.2,0.5-0.3,0.9-0.3
		c0.3,0,0.5,0,0.8,0.1l-0.2,0.6c-0.2-0.1-0.4-0.1-0.5-0.1c-0.2,0-0.3,0.1-0.4,0.2s-0.1,0.3-0.1,0.5v0.2h0.9V5.2z"/>
	<path fill="#36CC89" d="M214,7.7c0.2,0,0.4,0,0.6-0.1v0.6c-0.1,0-0.2,0.1-0.3,0.1c-0.1,0-0.3,0-0.4,0c-0.7,0-1.1-0.4-1.1-1.2v-2
		h-0.5V4.9l0.5-0.3l0.3-0.8h0.5v0.8h1v0.6h-1v1.9c0,0.2,0,0.3,0.1,0.4C213.8,7.6,213.9,7.7,214,7.7z"/>
</g>
<g enable-background="new    ">
	<path fill="#36CC89" d="M185.5,22.3c0-0.2,0-0.4-0.1-0.6h0.6c0,0.1,0.1,0.2,0.1,0.3c0,0.1,0,0.3,0,0.4c0,0.7-0.4,1.1-1.2,1.1h-2
		v0.5h-0.3l-0.3-0.5l-0.8-0.3v-0.5h0.8v-1h0.6v1h1.9c0.2,0,0.3,0,0.4-0.1C185.5,22.6,185.5,22.5,185.5,22.3z"/>
	<path fill="#36CC89" d="M184.3,17.8c0.6,0,1.1,0.2,1.4,0.5s0.5,0.7,0.5,1.3c0,0.3-0.1,0.6-0.2,0.9s-0.4,0.5-0.7,0.6
		c-0.3,0.1-0.6,0.2-1,0.2c-0.6,0-1-0.2-1.4-0.5c-0.3-0.3-0.5-0.7-0.5-1.3c0-0.5,0.2-0.9,0.5-1.2C183.2,18,183.7,17.8,184.3,17.8z
		 M184.3,20.5c0.8,0,1.3-0.3,1.3-0.9c0-0.6-0.4-0.9-1.3-0.9c-0.8,0-1.2,0.3-1.2,0.9c0,0.3,0.1,0.6,0.3,0.7
		C183.5,20.4,183.8,20.5,184.3,20.5z"/>
	<path fill="#36CC89" d="M186.1,15.1c0,0.5-0.2,0.8-0.5,1.1v0c0.3,0,0.5,0,0.6,0h1.5v0.8h-5.3v-0.6c0.1,0,0.2-0.1,0.5-0.1v0
		c-0.4-0.2-0.6-0.6-0.6-1.1c0-0.5,0.2-0.8,0.5-1.1c0.3-0.3,0.8-0.4,1.4-0.4c0.6,0,1.1,0.1,1.4,0.4C186,14.3,186.1,14.6,186.1,15.1z
		 M183,15.3c0,0.3,0.1,0.5,0.3,0.7c0.2,0.1,0.5,0.2,0.9,0.2h0.1c0.4,0,0.8-0.1,1-0.2c0.2-0.1,0.3-0.4,0.3-0.7c0-0.3-0.1-0.5-0.3-0.6
		c-0.2-0.1-0.5-0.2-0.9-0.2c-0.4,0-0.7,0.1-0.9,0.2C183.1,14.8,183,15,183,15.3z"/>
</g>
<path fill="#9E9E9E" d="M193.4,41.8l-9.5-8.8v13l2.9-2.8l1.7,3.9l2.7-1.2l-1.7-3.9L193.4,41.8z"/>
<polygon fill="#FFFFFF" points="190,45.5 188.9,46 187,41.8 184.7,44 184.7,34.9 191.4,41.1 188.2,41.3 "/>
</svg>
