<svg xmlns="http://www.w3.org/2000/svg" width="373.3" height="273.9"><path fill="none" stroke="#F2F2F2" stroke-width="2" stroke-miterlimit="10" stroke-dasharray="3" d="M85.2 52.6h212.3v214H85.2z"/><path fill="#FFF" stroke="#36CC89" stroke-width="3" stroke-miterlimit="10" d="M291.5 259.9H304v12.5h-12.5v-12.5zM79 259.9h12.5v12.5H79v-12.5zM79 46.4h12.5v12.5H79V46.4zM291.5 46.4H304v12.5h-12.5V46.4z"/><path d="M191 59.4c54.7 0 99 45.2 99 101s-44.3 101-99 101-99-45.2-99-101 44.3-101 99-101z"/><path fill="none" stroke="#5A5A5A" stroke-width="2" stroke-miterlimit="10" stroke-dasharray="3" d="M244.9 11S269 4.9 296 33.4M27 140.4c26.5 21 52 18 52 18M359 222.4s-9.1-23-48-28"/><path fill="#FFF" d="M274.8 111.7c1.8 3.1 3.3 6.4 4.8 9.7v-.1c.4-4-.8-7.6-4.8-9.6zM102.4 121.3c1.4-3.2 3-6.5 4.8-9.6-4.1 2-5.2 5.6-4.8 9.6z"/><path d="M191 254.4v4.8-4.8zM191 125.2v-7.3 7.3z"/><path fill="#FFF" d="M225.4 124.3c-4.2 1.4-10 8.4-10 8.4s1.7 3.5 10 3.9c4.7.2 11.3-3.4 14.8-5.7 6.2-4.1 8.2-9.7 8.2-9.7s-8.7 1.4-11.3 1.7c-2.7.2-7.5 0-11.7 1.4zM245.5 245.1l-.2-1.9c-4.9-28.9-11.3-57-34.1-82.4l-1.4-1.8-1.5 1.7-4.2 4.7-1.2 1.3 1.1 1.3s1.8 2.2 7.3 10.5c2.6 3.9 10.3 18.2 15.4 37.2 1.1 4.2 2.2 8 3.1 11.3 2.6 9.3 4.5 15.9 4.7 20.7l.1 3.8"/><path fill="#FFF" d="M274.1 111.3c-3.6-1.5-7.3-1.1-10 1.4-2.3 2.1-1.8 5.8-.6 7.4 2 2.7 4.6 2.7 4.6 2.7s-1.1-.6-1.2-3c-.1-1.9 1.4-3.5 3.1-3 1.7.4 2.6 2.1 2.5 3.7 0 1.8-.7 3.4-2 4.7-.9.8-5.6 4.4-13.4-1.9-1.2-.9-2.3-3.3-2.3-3.3s-6.4 15.1-21.1 20.6c-8.8 3.3-22.7-1.2-22.7-1.2s4.7 2.5 7.6 8.9c2.2 4.9.6 8.7.6 8.7l13 14s-.8-4.6 3.7-14.4c4.2-9.1 11.1-13.3 14.8-15.2 5.4-2.9 14.5-4.4 20.3-8.9 4.8-3.7 8-7.2 8.5-11.3-1.4-3.3-3-6.6-4.8-9.7-.1 0-.4-.1-.6-.2zM254.5 90.2c-4.6-1.8-12.4-5.2-29.9-7.3-5-.6-16.5-2.7-21.7 5.8-1.6 2.6-2.7 5.1-.4 10.2 2.3 5 6 7.1 8.6 7.9 2.6.8 4.7 1.1 8 .9 2.4-.2 4-.7 6.5-2.2 2.4-1.5 3.3-4.2 3.2-6.8-.2-3-1.7-5.7-3.8-6.4-3.1-1.1-5.4-.3-6.9.9s-2.1 4.7-1.2 5.8c.9 1.2.2 5.7-4.6 2.7-1.4-.9-1.9-5.3.1-7.7 5.7-6.8 14.7-5.2 19.1-4.7 2.7.3 12.6 2.9 15.6 3.8 7.4 2.2 12.7 5 14.8 6.2 2.3 1.2 4.5 2 6.4 2.4-2.3-3.1-4.8-6.1-7.5-9-1.8-.8-3.9-1.6-6.3-2.5zM195 189.8l5.3 48.2h20L205 189.8zM191 247.6h24.9v6.8H191zM205.6 145.4c-1.4-.4-2.7-.4-4.6.3-1.7.6-2.9 1.6-3.2 1.9.3-.3 1.8-1.8 2.7-3.2 1-1.5.1-4.7-1-7-1.1-2.2-.8-5-.8-5l-7.8-7.2-7.8 7.2s.3 2.8-.8 5-2 5.4-1 7c.9 1.4 2.4 2.9 2.7 3.2-.3-.3-1.5-1.3-3.2-1.9-1.9-.7-3.2-.7-4.6-.3-3 .8-4.9 2.4-4.5 6.1.3 3.5 4.7 4.5 6.5 2.1 1.1-1.4.4-2.1 1.5-1.4.3.2 1.5 8.7 4.9 10.8 2.5 1.6 9.9 1.6 12.5 0 3.3-2.1 4.6-10.6 4.9-10.8 1.2-.8.5 0 1.5 1.4 1.8 2.3 6.2 1.3 6.5-2.1.5-3.7-1.4-5.3-4.4-6.1zM191 164.3v-39.1 39.1zM156.6 124.3c-4.2-1.4-9-1.2-11.6-1.4s-11.3-1.7-11.3-1.7 2 5.6 8.2 9.7c3.5 2.3 10.1 5.9 14.8 5.7 8.3-.4 10-3.9 10-3.9s-6-6.9-10.1-8.4zM147.3 251.4l.1-3.8c.2-4.7 2.1-11.4 4.7-20.7.9-3.3 2-7.1 3.1-11.3 5.1-19 12.9-33.3 15.4-37.2 5.5-8.3 7.3-10.5 7.3-10.6l1.1-1.3-1.1-1.3-4.2-4.7-1.5-1.5-1.5 1.7c-22.8 25.4-29.1 53.5-34.1 82.4l-.2 1.9M200.6 172.9h-19.2l-7.1 9.7h33.4z"/><path fill="#FFF" d="M110.9 132.7c5.8 4.5 14.9 6 20.3 8.9 3.7 1.9 10.6 6.1 14.8 15.2 4.5 9.9 3.7 14.4 3.7 14.4l13-14s-1.7-3.8.6-8.7c2.9-6.3 7.6-8.9 7.6-8.9s-13.9 4.5-22.7 1.2c-14.8-5.6-21.1-20.6-21.1-20.6s-1.1 2.4-2.3 3.3c-7.8 6.3-12.5 2.7-13.4 1.9-1.3-1.4-2-2.9-2-4.7 0-1.6.8-3.3 2.5-3.7s3.2 1.1 3.1 3c-.1 2.4-1.2 3-1.2 3s2.6 0 4.6-2.7c1.2-1.6 1.7-5.3-.6-7.4-2.8-2.5-6.4-2.9-10-1.4-.2.1-.5.2-.7.3-1.8 3.1-3.3 6.4-4.8 9.7.6 4 3.8 7.5 8.6 11.2zM120.1 99.2c2.2-1.2 7.4-3.9 14.8-6.2 3-.9 12.9-3.5 15.6-3.8 4.3-.4 13.3-2 19.1 4.7 2 2.4 1.5 6.8.1 7.7-4.8 3-5.5-1.5-4.6-2.7s.3-4.7-1.2-5.8c-1.5-1.2-3.7-2-6.9-.9-2.1.8-3.7 3.4-3.8 6.4-.1 2.6.8 5.3 3.2 6.8s4.1 2 6.5 2.2c3.3.2 5.4 0 8-.9 2.6-.8 6.3-2.9 8.6-7.9s1.2-7.6-.4-10.2c-5.2-8.5-16.8-6.4-21.7-5.8-17.5 2.1-25.3 5.5-29.9 7.3-2.4.9-4.5 1.7-6.3 2.4-2.7 2.8-5.1 5.8-7.5 9 1.9-.3 4.1-1.1 6.4-2.3zM181.7 238l5.3-48.2h-10L161.7 238zM166.1 247.6H191v6.8h-24.9z"/><path fill="#FFF" d="M249.2 104.5c-1.8-1.9-4.9-2.2-7.5-1.4-2.2.6-4.2 2.3-4.3 4.8-.1 2.1 1.8 3.2 3.7 2.6 1.9-.6 2.8-1.3 2.8-1.3s.8 1.8-2.4 3.4c-2.5 1.2-6.6.8-8.6.4-7.7-1.5-11.4-.4-17.4.8-18.1 3.6-19.1-14.9-19.1-14.9s.3-10.4 1.6-13.5c1.7-3.9 4-5.9 5.4-6.8l1.4-.8s-11.7-.9-12.5-.9h-1.2-1.2c-.8 0-12.5.9-12.5.9l1 .5c1.4.8 4 2.8 5.8 7.1 1.4 3.1 1.6 13.5 1.6 13.5s-1 18.4-19.1 14.9c-6-1.2-9.7-2.3-17.4-.8-2.1.4-6.1.8-8.6-.4-3.3-1.5-2.4-3.4-2.4-3.4s.9.7 2.8 1.3c1.9.6 3.8-.5 3.7-2.6-.1-2.5-2.1-4.2-4.3-4.8-2.7-.8-5.8-.5-7.5 1.4-2.2 2.3-2.9 8.7 3.7 11.2 1.8.7 5.3 1.9 11.4 1.7 6.8-.3 16.6 1.3 21.3 6.4 1.6 1.8 4.5 2.7 5.6 2.6 1.1-.1 7.8-.1 7.8-.1l8.4-8.3h.1l8.4 8.3s6.7 0 7.8.1 4-.8 5.6-2.6c4.6-5.2 14.4-6.7 21.3-6.4 6.1.2 9.6-1 11.4-1.7 6.3-2.5 5.6-8.9 3.4-11.2z"/><path fill="none" stroke="#36CC89" stroke-width="3" stroke-miterlimit="10" stroke-dasharray="12,8" d="M191 53.2c58 0 105 48 105 107.2s-47 107.2-105 107.2-105-48-105-107.2S133 53.2 191 53.2z"/><path fill="#5A5A5A" d="M89.8 160.2l-12-8.2-.9 16.4zM306.8 193.7l13.3-5.9-2 16.3zM299 36.4l-3-14.3-12.1 11.2z"/><g fill="#5A5A5A"><path d="M186.4 8.2c-.7-.1-1.4-.1-2.1-.1-.7 0-1.4 0-2.1.1-.9 2.5-1.9 4.4-2.9 5.4-.4.4-.8.7-1.2.8-.1 0-.2.1-.3.1s-.2 0-.3-.1c-.1 0-.2-.1-.2-.1-.1-.1-.2-.2-.2-.4s0-.2.1-.3c.9-.7 1.9-2.3 2.9-5.1h-.1-.1c-.1 0-.1 0-.2-.1s-.2-.1-.2-.2c-.1-.2-.2-.4-.1-.5.2-.2.6-.3 1.1-.5.8-2.4 1.2-4.1 1.2-5-.2 0-.5.1-.7.2l-.5.6c-.2.1-.4 0-.7-.2-.3-.2-.4-.5-.4-.7 0-.3.5-.6 1.4-.8.3-.1.6-.1.7-.1h.5c.2 0 .3 0 .5.1.6.1.9.4 1.1.7.1.2.1.4.1.6 0 .2 0 .5-.1.8 0 .3-.1.7-.2 1-.2.8-.4 1.7-.7 2.7 1.2-.1 2.5-.2 3.9-.2h.4l.5-1.4c.5-1.6.8-2.8 1-3.6.1-.5.3-.7.7-.7.3 0 .5.1.7.2.3.2.5.5.5.8 0 .3-.1.6-.1.9-.1.3-.2.7-.3 1.1-.1.4-.3.9-.5 1.3l-.5 1.4H189.6c.1 0 .2.1.2.2s0 .2-.1.4l-.3.3c-.3.3-.6.4-1 .4-.7 1.8-1.1 3-1.2 3.4-.1.4-.2.7-.2.8 0 .3.1.5.4.5.2 0 .4 0 .6-.1l.3-.2h.2c.1 0 .2.1.2.2 0 .5-.3.9-.9 1.3-.4.2-.8.3-1.2.3-.6 0-1-.3-1.2-.8-.1-.2-.1-.3-.1-.5 0-.4.1-.7.2-1.1.1-.4.2-.8.4-1.2l.5-2.6zM196.8 12.2c0 .5.2.8.6.8.3 0 .5 0 .6-.1.2-.1.3-.1.3-.1.1 0 .2.1.2.2 0 .5-.3.9-.8 1.3s-1.1.5-1.7.3c-.4-.1-.6-.4-.8-.8-.1-.2-.1-.4-.1-.6 0-.3 0-.6.1-.9-.5 1.1-1.2 1.8-2 2.2-.3.2-.6.2-1 .2s-.7-.1-.9-.2c-.3-.1-.5-.3-.7-.6-.4-.5-.5-1.2-.5-2 0-1 .3-2 .9-3 .5-.9 1.2-1.7 2-2.2.8-.6 1.5-.9 2.2-.9.7 0 1.2.3 1.7 1 .4-.6.7-1 1-1 .3 0 .6.1.7.2.3.2.4.4.3.6-1.4 2.9-2.2 4.8-2.2 5.5.1-.2.1 0 .1.1zm-4.8 0c0 .7.2 1 .7 1 .3 0 .8-.3 1.2-.9.7-.8 1.4-2 1.9-3.4.2-.4.3-.9.4-1.3 0-.4-.2-.7-.5-.9-.1-.1-.3-.1-.5-.1s-.4.1-.7.2-.5.4-.8.6c-.3.3-.5.6-.7.9-.2.4-.4.7-.6 1.1-.2 1.1-.4 1.9-.4 2.8zM205.8 7.2c-.2 0-.4.2-.8.5-.3.3-.6.6-.8.9l-.7.9-1.4 1.8-.8 1.6-.5 1c-.1.2-.2.4-.3.5-.1.1-.2.2-.4.2s-.3 0-.4-.1c-.1-.1-.3-.1-.4-.2-.2-.2-.3-.4-.3-.6 0-.1.1-.3.2-.5l.3-.7c.1-.2.2-.5.4-.8l.5-1.2c.7-1.7 1-2.8 1-3.3 0-.3-.1-.5-.3-.6l-.1-.1c-.1 0-.1-.1-.1-.2s0-.2.1-.3.2-.2.3-.2c.3-.1.5-.2.8-.2.3 0 .5 0 .6.1.1.1.3.1.4.2.2.2.3.4.3.6 0 .2 0 .4-.1.7-.1.2-.1.4-.2.7s-.2.4-.3.7c-.1.2-.2.4-.2.6l-.2.4c0 .1-.1.1 0 .1.6-.9 1.1-1.4 1.3-1.7l.6-.7c.4-.5.8-.9 1-1 .5-.3.9-.5 1.2-.5.3 0 .5 0 .7.1s.4.2.5.3c.3.3.5.7.5 1.1 0 .5-.1.9-.3 1.4-.2.5-.4.9-.5 1.2s-.3.6-.4.9c-.4 1-.6 1.6-.6 2.1 0 .2.2.3.5.3.2 0 .5-.1.7-.2.2-.1.3-.2.4-.2.1 0 .2.1.2.2 0 .5-.3.9-.8 1.3-.3.2-.7.4-1 .4-.3 0-.5 0-.7-.1-.2-.1-.4-.2-.5-.3-.3-.3-.5-.7-.5-1.3 0-.7.2-1.5.6-2.5.3-.7.5-1.1.6-1.4l.3-.6c.2-.4.3-.7.3-.9s-.4-.4-.7-.4zM218.1 12.7c.1 0 .2.1.2.2 0 .5-.3.9-.8 1.3-.3.2-.7.4-1 .4-.3 0-.5 0-.7-.1-.2-.1-.3-.2-.5-.3-.3-.3-.5-.8-.5-1.4 0-.1 0-.3.1-.6-.5.7-.9 1.2-1.2 1.5-.7.6-1.3.9-2 .9-1 0-1.7-.5-2-1.4-.1-.3-.2-.8-.2-1.3s.1-1 .2-1.5.4-1 .6-1.5c.3-.5.6-.9.9-1.3.4-.4.7-.8 1.1-1 .8-.6 1.6-.9 2.3-.9.7 0 1.2.3 1.6.8 1-3.4 1.7-5.4 2.2-6 .2-.3.4-.4.7-.4.4 0 .7.1.9.3.1.1.1.1.1.2s0 .2-.1.4-.2.5-.4 1c-.5 1.3-.9 2.3-1.1 2.9-.5 1.6-.9 2.7-1.1 3.3l-.5 1.6c-.4 1.4-.6 2.3-.6 2.7s.1.6.4.6c.3 0 .5 0 .6-.1l.3-.2c.3-.1.4-.1.5-.1zm-5.9.6c.6 0 1.3-.6 2-1.7.8-1.2 1.3-2.5 1.7-3.9 0-.4-.2-.7-.5-.9-.1-.1-.3-.1-.5-.1s-.5.1-.7.2c-.3.2-.5.4-.8.6-.3.3-.5.6-.7.9s-.4.7-.6 1.1c-.4.8-.5 1.7-.5 2.5-.1.8.1 1.3.6 1.3zM219.7 14.1c-.1-.1-.3-.3-.3-.6-.1-.2-.1-.5-.1-.8s.1-.7.2-1.2.3-1.1.5-1.8l.7-2.1c1-3 1.6-5.3 1.8-6.9.1-.5.3-.7.7-.7.3 0 .5.1.7.2.3.3.5.5.5.8 0 .3-.1.7-.2 1.1-.1.4-.2.9-.4 1.4s-.3 1.1-.5 1.7L222 8.7c-.7 2-1 3.3-1 3.8 0 .3.1.5.4.5.2 0 .5-.1.7-.2.2-.1.3-.2.4-.2.1 0 .2.1.2.2 0 .5-.3.9-.8 1.3-.3.2-.7.4-1 .4-.3 0-.5 0-.7-.1-.2 0-.4-.1-.5-.3zM224.3 11.5c0-.5.1-1 .2-1.4.1-.5.3-.9.6-1.3.2-.4.5-.8.8-1.2.3-.4.7-.7 1.1-1 .8-.6 1.6-.9 2.5-.9 1 0 1.6.4 2 1.2.1.3.2.6.2 1s-.1.7-.2 1c-.1.3-.3.6-.6.9-.2.3-.5.5-.9.7-.3.2-.7.4-1.1.5-.8.3-1.7.4-2.6.4v.4c0 .2 0 .3.1.5 0 .2.1.4.2.5.2.3.5.5.9.5.7 0 1.3-.2 1.9-.6.2-.1.4-.3.5-.4.1-.1.3-.2.4-.2.1 0 .2.1.3.2.1.1.1.3.1.4 0 .3-.1.6-.3.8-.7.7-1.8 1.1-3.2 1.1-.8 0-1.5-.3-2-.8-.7-.6-1-1.4-.9-2.3zm5-4.8c-.6 0-1.2.4-1.7 1.2-.5.7-.8 1.5-1.1 2.5 1-.1 1.8-.5 2.5-1.1.6-.6 1-1.2 1-1.8-.1-.5-.3-.8-.7-.8zM232.5 14.2l-.3-.3c-.1-.1-.1-.2-.1-.3v-.3c0-.1.1-.2.1-.4 1.2-2.9 1.7-4.8 1.7-5.8 0-.3-.1-.5-.3-.6l-.2-.1c-.1 0-.1-.1-.1-.2s0-.2.1-.3.2-.2.3-.2c.2-.1.5-.2.8-.2s.5 0 .6.1c.1.1.3.1.4.2.2.2.3.4.3.7s0 .5-.1.7c-.1.2-.1.5-.2.7-.1.2-.1.4-.2.6-.1.2-.1.4-.1.5 0 .2-.1.3-.1.4.1-.1.2-.2.2-.4l.3-.6c.7-1.3 1.5-2.2 2.2-2.7.2-.1.5-.2.7-.2.3 0 .5.1.7.3.2.2.3.4.3.7s0 .4-.1.6c0 .2-.1.3-.2.5-.2.3-.4.5-.7.5-.1 0-.1 0-.2-.1l-.2-.2c-.2-.2-.4-.2-.5-.2-.2 0-.4.1-.6.3-.2.2-.5.5-.8.9-.9 1.2-1.6 2.5-2.2 4l-.4 1c-.1.2-.2.4-.3.5-.1.1-.2.2-.3.2-.1 0-.3 0-.4-.1s0-.1-.1-.2z"/></g><g fill="#5A5A5A"><path d="M3.1 127.8c-.4.6-.8 1.2-1.3 1.6-.4.4-.8.6-1.2.6-.2 0-.3 0-.4-.1-.2-.1-.2-.3-.2-.4s0-.2.1-.3c.9-.6 1.8-2.5 2.9-5.5l.5-1.4c.6-1.6 1.1-2.7 1.5-3.1.1-.1.3-.2.4-.2s.3 0 .4.1.2.1.3.2c.2.2.3.4.3.6 0 .1 0 .2-.1.4l-.3.6-1.1 3c1.4-.3 2.5-.8 3.4-1.7.8-.8 1.3-1.7 1.3-2.6 0-.8-.4-1.4-1.1-1.7-.3-.1-.6-.1-.9-.1-.3 0-.7 0-1 .1-.4.1-.7.2-1 .3-.7.3-1.3.6-1.7 1-.1.1-.2.2-.4.2s-.3 0-.4-.1c-.1-.1-.2-.1-.3-.2-.2-.2-.3-.4-.3-.6 0-.2.1-.4.2-.6.1-.2.3-.3.6-.5s.5-.3.8-.4c.3-.1.6-.2 1-.3.7-.1 1.4-.2 2-.2s1.3.1 1.9.3 1 .4 1.4.7c.7.6 1.1 1.3 1.1 2.2v.1c-.1 1.1-.5 2-1.2 2.9-.7.7-1.5 1.3-2.6 1.7-1 .4-1.9.6-2.7.6h-.5c-.5 1.2-.9 2.2-1.4 2.8zM11 129.7l-.3-.3c-.1-.1-.1-.2-.1-.3v-.3c0-.1.1-.2.1-.4 1.2-2.9 1.7-4.8 1.7-5.8 0-.3-.1-.5-.3-.6l-.2-.1c-.1 0-.1-.1-.1-.2s0-.2.1-.3.2-.2.3-.2c.2-.1.5-.2.8-.2.3 0 .5 0 .6.1.1.1.3.1.4.2.2.2.3.4.3.7s0 .5-.1.7-.1.5-.2.7c-.1.2-.1.4-.2.6-.1.2-.1.4-.1.5 0 .2-.1.3-.1.4.1-.1.2-.2.2-.4l.3-.6c.7-1.3 1.5-2.2 2.2-2.7.2-.1.5-.2.7-.2s.5.1.7.3c.2.2.3.4.3.7 0 .2 0 .4-.1.6 0 .2-.1.3-.2.5-.2.3-.4.5-.7.5-.1 0-.1 0-.2-.1l-.2-.2c-.2-.2-.4-.2-.5-.2s-.4.1-.6.3-.5.5-.8.9c-.9 1.2-1.6 2.5-2.2 4l-.4 1c-.1.2-.2.4-.3.5-.1.1-.2.2-.3.2-.1 0-.3 0-.4-.1s0-.1-.1-.2zM18.2 126.9c0-.5.1-1 .2-1.4.1-.5.3-.9.6-1.3.2-.4.5-.8.8-1.2s.7-.7 1.1-1c.8-.6 1.6-.9 2.5-.9 1 0 1.6.4 2 1.2.1.3.2.6.2 1s-.1.7-.2 1c-.1.3-.3.6-.6.9-.2.3-.5.5-.9.7-.3.2-.7.4-1.1.5-.8.3-1.7.4-2.6.4v.4c0 .2 0 .3.1.5 0 .2.1.4.2.5.2.3.5.5.9.5.7 0 1.3-.2 1.9-.6.2-.1.4-.3.5-.4.1-.1.3-.2.4-.2.1 0 .2.1.3.2.1.1.1.3.1.4 0 .3-.1.6-.3.8-.7.7-1.8 1.1-3.2 1.1-.8 0-1.5-.3-2-.8-.7-.5-.9-1.3-.9-2.3zm5-4.7c-.6 0-1.2.4-1.7 1.2-.5.7-.8 1.5-1.1 2.5 1-.1 1.8-.5 2.5-1.1.6-.6 1-1.2 1-1.8-.1-.5-.3-.8-.7-.8zM26.4 129.1c-.1-.2-.1-.4-.1-.7 0-.3 0-.5.1-.9.1-.3.2-.6.3-1 .1-.3.3-.7.4-1l.4-1c.6-1.3.8-2.1.6-2.3-.1-.1-.2-.2-.4-.3-.1 0-.1-.1-.1-.2s0-.2.1-.3c.1-.1.2-.2.3-.2.3-.1.6-.2.8-.2.3 0 .5 0 .6.1.1.1.3.1.4.2.2.2.3.4.3.7 0 .3-.1.6-.2.9-.1.3-.2.7-.4 1.1s-.3.8-.5 1.1l-.5 1.1c-.4.8-.5 1.4-.5 1.6 0 .5.2.8.6.8 1 0 1.8-.6 2.7-1.7.5-.7.8-1.4 1-2.1.1-.4.1-.7.1-1v-.8c0-.2-.1-.4-.1-.5-.1-.3-.2-.5-.4-.7-.1-.1-.1-.3.2-.5.3-.2.6-.3 1.1-.3.3 0 .5.1.8.4.3.3.4.8.4 1.4s-.1 1.2-.3 1.8-.4 1.1-.7 1.7c-.3.5-.7 1-1.1 1.5-.4.5-.9.9-1.4 1.2-1 .7-2.1 1.1-3.1 1.1-.6-.1-1.1-.4-1.4-1zM38.2 128.3c.1 0 .2.1.2.3 0 .3-.1.5-.4.8-.3.4-.8.6-1.4.6-.7 0-1.1-.3-1.4-.8-.1-.2-.1-.4-.1-.7s0-.6.1-.9c.1-.3.2-.7.4-1 .1-.4.3-.7.5-1.1l.5-1.1c.3-.8.5-1.3.5-1.6 0-.3 0-.4-.1-.5l-.2-.2-.2-.1c-.1 0-.1-.1-.1-.2s0-.2.1-.3.2-.2.3-.2c.3-.1.6-.2.9-.2.8 0 1.3.2 1.3.7 0 .5-.1 1.1-.4 1.8-.3.7-.5 1.2-.7 1.6l-.5 1.2c-.4.9-.6 1.5-.6 1.9 0 .3.1.4.4.4.2 0 .4 0 .6-.1.2-.3.3-.3.3-.3zM40 119c-.1.1-.3.2-.4.3s-.3.1-.5.2-.3 0-.5-.1-.3-.2-.4-.3c-.2-.3-.4-.6-.4-.9 0-.3 0-.5.1-.7.1-.1.2-.3.4-.4.3-.2.5-.3.8-.3.2 0 .4 0 .6.1s.3.1.4.2c.3.2.4.4.4.7 0 .3 0 .5-.1.7-.2.2-.3.4-.4.5zM40.5 126.9c0-.5.1-1 .2-1.4.1-.5.3-.9.6-1.3.2-.4.5-.8.8-1.2s.7-.7 1.1-1c.8-.6 1.6-.9 2.5-.9 1 0 1.6.4 2 1.2.1.3.2.6.2 1s-.1.7-.2 1c-.1.3-.3.6-.6.9-.2.3-.5.5-.9.7-.3.2-.7.4-1.1.5-.8.3-1.7.4-2.6.4v.4c0 .2 0 .3.1.5 0 .2.1.4.2.5.2.3.5.5.9.5.7 0 1.3-.2 1.9-.6.2-.1.4-.3.5-.4.1-.1.3-.2.4-.2.1 0 .2.1.3.2.1.1.1.3.1.4 0 .3-.1.6-.3.8-.7.7-1.8 1.1-3.2 1.1-.8 0-1.5-.3-2-.8-.7-.5-1-1.3-.9-2.3zm5-4.7c-.6 0-1.2.4-1.7 1.2-.5.7-.8 1.5-1.1 2.5 1-.1 1.8-.5 2.5-1.1.6-.6 1-1.2 1-1.8-.1-.5-.3-.8-.7-.8zM51.5 128.9c-.8.7-1.4 1-1.8 1s-.8-.2-.9-.7c-.1-.2-.1-.3-.1-.4 0-.4.1-.7.2-1.1s.2-.7.3-1l.8-1.9c.3-.8.5-1.3.5-1.7.1-.3.1-.5 0-.6l-.3-.3c-.1-.1-.2-.2-.3-.2s-.1-.1-.1-.2 0-.2.1-.3c.1-.1.2-.2.3-.2.3-.1.6-.2.9-.2.3 0 .5 0 .7.1s.3.1.4.2c.2.2.3.4.3.7 0 .3 0 .6-.1.9-.1.3-.2.7-.3 1.1-.1.4-.3.8-.5 1.2l-.5 1.2c-.4 1-.6 1.7-.7 2.1.5-.2 1.2-.8 2.1-2 1-1.2 1.8-2.7 2.6-4.2.1-.2.2-.3.3-.4.2-.1.5-.1.8-.1.5 0 .8.2.8.5 0 .2 0 .4-.1.6-.1.2-.2.4-.3.5l-.3.7c-.7 1.4-1 2.5-1 3.3 0 .6.2 1 .5 1.2.1.1.2.1.4.1s.4-.1.7-.2c.3-.1.5-.3.7-.6s.5-.5.7-.8c.2-.3.4-.6.5-1 .3-.7.5-1.4.5-2 0-1-.2-1.7-.6-2.2-.1-.1-.1-.3.1-.5s.5-.3 1-.3c.6 0 .9.3 1.1.9.1.2.1.6.1 1.1 0 .5-.1 1-.2 1.6s-.4 1.1-.7 1.7c-.3.5-.6 1-1 1.5s-.8.9-1.2 1.2c-.9.7-1.7 1.1-2.4 1.1-1.3 0-1.9-.8-1.9-2.5 0-.4 0-.7.1-1.1-.7.7-1.4 1.5-2.2 2.2z"/></g><g fill="#5A5A5A"><path d="M348.7 230.4c-.8 0-1.5.9-2.3 2.8l-1.4 3.6c-.9 2.3-1.8 3.8-2.6 4.5 1.2-.4 2.6-.7 4.2-.8h.7c.2 0 .5 0 .7.1.2.1.5.2.6.3.4.3.6.7.6 1.3 0 .3-.1.5-.3.5-.1 0-.2 0-.4-.1-.1-.1-.3-.1-.4-.2-.2-.1-.3-.1-.5-.2-.5-.1-.9-.2-1.4-.2-.5 0-.9 0-1.4.1-.4.1-.9.1-1.3.2l-1.1.2c-.3.1-.6.1-.8.1-.2 0-.3 0-.4-.1l-.3-.3c-.2-.3-.3-.5-.3-.6 0-.3.1-.4.2-.5.5-.3 1-1.3 1.7-3.1.6-1.6 1-2.7 1.2-3.3.2-.6.4-1.1.7-1.6.3-.5.5-1 .8-1.5.3-.5.6-.9 1-1.2.8-.8 1.6-1.1 2.5-1.1.6 0 1.2.3 1.6.8.4.5.6 1.1.6 1.8 0 .9-.3 1.8-1 2.8-.4.6-.8 1-1.3 1.2-.2.1-.4.2-.6.2-.2 0-.3 0-.5-.1-.1-.1-.3-.2-.4-.3-.2-.2-.3-.4-.3-.6 0-.2 0-.3.1-.4.7-.4 1.3-.9 1.8-1.5s.8-1.3.8-1.9c.1-.6-.2-.9-.8-.9zM353.6 241c.1 0 .2.1.2.3 0 .3-.1.5-.4.8-.3.4-.8.6-1.4.6-.7 0-1.1-.3-1.4-.8-.1-.2-.1-.4-.1-.7s0-.6.1-.9c.1-.3.2-.7.4-1 .1-.4.3-.7.5-1.1l.5-1.1c.3-.8.5-1.3.5-1.6 0-.3 0-.4-.1-.5l-.2-.2-.2-.1c-.1 0-.1-.1-.1-.2s0-.2.1-.3c.1-.1.2-.2.3-.2.3-.1.6-.2.9-.2.8 0 1.3.2 1.3.7 0 .5-.1 1.1-.4 1.8-.3.7-.5 1.2-.7 1.6l-.5 1.2c-.4.9-.6 1.5-.6 1.9 0 .3.1.4.4.4.2 0 .4 0 .6-.1.2-.3.3-.3.3-.3zm1.8-9.3c-.1.1-.3.2-.4.3s-.3.1-.5.2c-.2 0-.3 0-.5-.1s-.3-.2-.4-.3c-.2-.3-.4-.6-.4-.9 0-.3 0-.5.1-.7.1-.1.2-.3.4-.4.3-.2.5-.3.8-.3s.4 0 .6.1c.1 0 .3.1.4.2.3.2.4.4.4.7 0 .3 0 .5-.1.7s-.3.4-.4.5zM361.9 235.4c-.2 0-.4.2-.8.5-.3.3-.6.7-.8.9l-.7.9-1.4 1.8-.8 1.6-.5 1c-.1.2-.2.4-.3.5-.1.1-.2.2-.4.2s-.3 0-.4-.1c-.1-.1-.3-.1-.4-.2-.2-.2-.3-.4-.3-.6 0-.1.1-.3.2-.5l.3-.7c.1-.2.2-.5.4-.8l.5-1.2c.7-1.7 1-2.8 1-3.3 0-.3-.1-.5-.3-.6l-.2-.1c-.1 0-.1-.1-.1-.2s0-.2.1-.3c.1-.1.2-.2.3-.2.3-.1.5-.2.8-.2s.5 0 .6.1c.1.1.3.1.4.2.2.2.3.4.3.6 0 .2 0 .4-.1.7s-.1.4-.2.7c-.1.2-.2.4-.3.7-.1.2-.2.4-.2.6l-.2.4c0 .1-.1.1 0 .1.6-.9 1.1-1.4 1.3-1.7l.6-.7c.4-.5.8-.9 1-1 .5-.3.9-.5 1.2-.5.3 0 .5 0 .7.1s.4.2.5.3c.3.3.5.7.5 1.1s-.1.9-.3 1.4c-.2.5-.4.9-.5 1.2s-.3.6-.4.9c-.4 1-.6 1.6-.6 2.1 0 .2.2.3.5.3.2 0 .5-.1.7-.2.2-.1.3-.2.4-.2.1 0 .2.1.2.2 0 .5-.3.9-.8 1.3-.3.2-.7.4-1 .4-.3 0-.5 0-.7-.1s-.4-.2-.5-.3c-.3-.3-.5-.7-.5-1.3 0-.7.2-1.5.6-2.5.3-.7.5-1.1.6-1.4l.3-.6c.2-.4.3-.7.3-.9-.1-.3-.2-.4-.6-.4zM365.7 239.6c0-.5.1-1 .2-1.4s.3-.9.6-1.3c.2-.4.5-.8.8-1.2.3-.4.7-.7 1-1 .8-.6 1.6-.9 2.5-.9 1 0 1.6.4 2 1.2.1.3.2.6.2 1s-.1.7-.2 1c-.1.3-.3.6-.6.9-.2.3-.5.5-.9.7s-.7.4-1.1.5c-.8.3-1.7.4-2.6.4v.4c0 .2 0 .3.1.5s.1.4.2.5c.2.3.5.5.9.5.7 0 1.3-.2 1.9-.6.2-.1.4-.3.5-.4.1-.1.3-.2.4-.2s.2.1.3.2c.1.1.1.3.1.4 0 .3-.1.6-.3.8-.7.7-1.8 1.1-3.2 1.1-.8 0-1.5-.3-2-.8-.6-.5-.8-1.3-.8-2.3zm5-4.7c-.6 0-1.2.4-1.7 1.2-.5.7-.8 1.5-1.1 2.5 1-.1 1.8-.5 2.5-1.1.6-.6 1-1.2 1-1.8-.1-.5-.3-.8-.7-.8z"/></g></svg>