<svg xmlns="http://www.w3.org/2000/svg" width="60.6" height="60.6"><circle fill="none" stroke="#000" stroke-width="2.798" stroke-miterlimit="10" cx="30.3" cy="30.3" r="28.9"/><path fill="none" d="M6.5 24.2c0-.1 0-.2.1-.2h-.1v.2zM54.2 24s-.1 0 0 0v.2-.2z"/><path d="M54.2 24.2c0-.1 0-.2-.1-.2-.5 0-5.2-.2-8.4 2.9-1.9 1.8-1.7 5.2-1.8 8.8 0 3 2.1 9.8 3.1 12.6 4.8-4.6 7.8-11.1 7.8-18.3 0-1.4-.1-2.8-.3-4.2h-.3v-1.6zM14.9 26.8c-3.2-3-7.9-2.9-8.4-2.9 0 .1 0 .2-.1.2v1.6h-.3c-.2 1.4-.3 2.8-.3 4.2 0 7.2 3 13.7 7.8 18.3.9-2.8 3.1-9.6 3.1-12.6 0-3.6.1-6.9-1.8-8.8zM26.9 8.2h-.1s3-.2 3.2-.2h.6c.2 0 3.2.2 3.2.2h-.1c2.6-.1 6.3 0 10.4 1.1C40.2 6.6 35.4 5 30.3 5s-9.8 1.6-13.8 4.3c4.1-1.1 7.8-1.2 10.4-1.1z"/><path d="M54.2 25.8h.3c-.1-.5-.2-1.1-.3-1.6v1.6zM6.5 24.2c-.1.5-.2 1.1-.3 1.6h.3v-1.6zM25.5 29.7l1.1 1.2s-.5.5-1.9 2.7c-.8 1.3-2.8 5-4 9.7-1.2 4.4-2.1 6.9-2 8.7 1.7.9 3.4 1.6 5.3 2.1h12.7c1.9-.5 3.6-1.2 5.3-2.1 0-1.7-.8-4.3-2-8.7-1.2-4.7-3.2-8.4-4-9.7-1.4-2.2-1.9-2.7-1.9-2.7l1.1-1.2c5.8 6.4 7.4 13.6 8.6 21.1C45 50 46 49.2 47 48.2c-.9-2.8-3.1-9.6-3.1-12.6 0-3.6-.1-7 1.8-8.8 3.2-3 7.9-2.9 8.4-2.9-.3-1.4-.8-2.7-1.3-4-.3.8-1 1.5-2 2.2-1.5 1.1-3.8 1.5-5.2 2.3-.9.5-2.7 1.6-3.8 3.9-1.2 2.5-1 3.7-1 3.7l-3.3-3.6s.4-1-.1-2.2c-.7-1.6-2-2.3-2-2.3s3.6 1.1 5.8.3c3.8-1.4 5.4-5.3 5.4-5.3s.3.6.6.8c2 1.6 3.2.7 3.4.5.3-.4.5-.7.5-1.2 0-.4-.2-.8-.6-1-.4-.1-.8.3-.8.8 0 .6.3.8.3.8s-.7 0-1.2-.7c-.3-.4-.4-1.4.2-1.9.6-.5 1.3-.7 2-.5-.6-.9-1.2-1.8-1.9-2.6-.2-.1-.5-.2-.7-.3-.6-.3-1.9-1-3.8-1.6-.8-.2-3.3-.9-4-1-1.1-.1-3.4-.5-4.9 1.2-.5.6-.4 1.7 0 2 1.2.8 1.4-.4 1.2-.7-.2-.3-.1-1.2.3-1.5.4-.3 1-.5 1.8-.2.5.2.9.9 1 1.6 0 .7-.2 1.4-.8 1.7s-1 .5-1.7.6c-.8.1-1.4 0-2-.2-.7-.2-1.6-.7-2.2-2-.6-1.3-.3-1.9.1-2.6 1.3-2.2 4.3-1.6 5.6-1.5 4.5.5 6.5 1.4 7.7 1.9.1 0 .1.1.2.1-.8-.8-1.7-1.5-2.7-2.2-4-1.1-7.8-1.2-10.4-1.1-.3.1-1.1.6-1.6 1.9-.4.8-.4 3.5-.4 3.5s.3 4.7 4.9 3.8c1.5-.3 2.5-.6 4.5-.2.5.1 1.6.2 2.2-.1.8-.4.6-.9.6-.9s-.2.2-.7.3-1-.1-.9-.7c0-.6.5-1.1 1.1-1.2.7-.2 1.5-.1 1.9.4.6.6.7 2.2-.9 2.9-.5.2-1.4.5-2.9.4-1.7-.1-4.3.3-5.4 1.6-.4.5-1.2.7-1.4.7h-2l-2.2-2.1-2.2 2.1h-2c-.3 0-1-.2-1.4-.7-1.2-1.3-3.7-1.7-5.4-1.6-1.6.1-2.4-.2-2.9-.4-1.7-.6-1.5-2.3-.9-2.9.5-.5 1.2-.6 1.9-.4.6.2 1.1.6 1.1 1.2 0 .5-.5.8-.9.7-.5-.2-.7-.3-.7-.3s-.2.5.6.9c.6.3 1.7.2 2.2.1 2-.4 2.9-.1 4.5.2 4.6.9 4.9-3.8 4.9-3.8s-.1-2.6-.4-3.5c-.6-1.3-1.4-1.8-1.6-1.9-2.6-.1-6.3 0-10.4 1.1-.9.7-1.8 1.4-2.7 2.2.1 0 .1 0 .2-.1 1.2-.5 3.2-1.3 7.7-1.9.8-.1 3.8-.6 5.1 1.6.4.7.7 1.3.1 2.6s-1.5 1.8-2.2 2c-.7.2-1.2.3-2 .2-.6 0-1-.2-1.7-.6s-.8-1.1-.8-1.7c0-.8.4-1.4 1-1.6.8-.3 1.4-.1 1.8.2.4.3.5 1.2.3 1.5-.2.3-.1 1.5 1.2.7.4-.2.5-1.4 0-2-1.5-1.7-3.8-1.3-4.9-1.2-.7.1-3.2.7-4 1-1.9.6-3.2 1.3-3.8 1.6-.3.1-.5.2-.7.3-.7.8-1.3 1.7-1.9 2.6.7-.2 1.5 0 2 .5.6.5.5 1.5.2 1.9-.5.7-1.2.7-1.2.7s.3-.1.3-.8c0-.5-.4-.9-.8-.8-.4.1-.7.5-.6 1 0 .5.2.9.5 1.2.2.2 1.4 1.1 3.4-.5.2-.2.5-.8.5-.8s1.6 3.9 5.4 5.3c2.3.9 5.8-.3 5.8-.3s-1.2.7-2 2.3c-.6 1.2-.1 2.2-.1 2.2l-3.3 3.6s.2-1.2-1-3.7c-1-2.3-2.8-3.4-3.8-3.9-1.4-.7-3.7-1.1-5.2-2.3-1-.7-1.7-1.4-2-2.2-.5 1.3-1 2.6-1.3 4 .5 0 5.2-.2 8.4 2.9 1.9 1.8 1.7 5.2 1.8 8.8 0 3-2.1 9.8-3.1 12.6 1 1 2.1 1.8 3.2 2.6 1.4-7.6 2.9-14.7 8.7-21.2zm13.6-9.6c1.1-.4 2.3-.3 3-.4.7-.1 2.9-.4 2.9-.4s-.5 1.4-2.1 2.5c-.9.6-2.6 1.5-3.8 1.5-2.1-.1-2.6-1-2.6-1s1.5-1.8 2.6-2.2zm-17.6 3.1c-1.2.1-2.9-.9-3.8-1.5-1.6-1.1-2.1-2.5-2.1-2.5s2.2.4 2.9.4c.7.1 1.9 0 3 .4s2.6 2.2 2.6 2.2-.5.9-2.6 1zm6.4 25.9h-5.1l3.9-12.3h2.6l-1.4 12.3zm9.9 0h-5.1l-1.3-12.3H34l3.8 12.3zM34.6 35H26l1.8-2.5h5l1.8 2.5zm-8-9.5c.4-.1.7-.1 1.2.1.4.2.7.4.8.5-.1-.1-.5-.5-.7-.8-.2-.4 0-1.2.2-1.8.3-.6.2-1.3.2-1.3l2-1.9 2 1.9s-.1.7.2 1.3c.3.6.5 1.4.2 1.8-.2.4-.6.7-.7.8.1-.1.4-.3.8-.5.5-.2.8-.2 1.2-.1.8.2 1.2.6 1.2 1.6-.1.9-1.2 1.1-1.7.5-.3-.4-.1-.5-.4-.3-.1.1-.4 2.2-1.2 2.8-.7.4-1.6.3-1.6.3s-.9.1-1.6-.3c-.9-.5-1.2-2.7-1.2-2.8-.3-.2-.1 0-.4.3-.5.6-1.6.3-1.7-.5-.1-1 .4-1.4 1.2-1.6z"/><path fill="#FFF" d="M39.1 23.2c1.2.1 2.9-.9 3.8-1.5 1.6-1.1 2.1-2.5 2.1-2.5s-2.2.4-2.9.4c-.7.1-1.9 0-3 .4s-2.6 2.2-2.6 2.2.5.9 2.6 1zM40.1 55.7c-.3 0-.5 0-.7-.1-.9-.5-.9-1.1-.7-1.5.3-.7 1.3-.7 1.6-.7H40.9c.4 0 .7-.2.8-.7 0-.2.1-.4.1-.7v-.1l.1-.1c.6-.3 1.2-.7 1.8-1.1l.3-.2.2 1c.4 2.3-1.2 3.2-1.8 3.6-.6.3-1.5.6-2.3.6z"/><path fill="#FFF" d="M43.8 50.9c0 .2.1.5.1.7.4 2.3-1.3 3.1-1.8 3.4-.4.2-1.3.5-2 .5-.2 0-.4 0-.6-.1-.4-.2-.9-.6-.6-1.2.2-.5.9-.6 1.4-.6h.6c.3 0 .9-.1 1-.9 0-.2.1-.5.1-.7.6-.4 1.2-.7 1.8-1.1m.3-.7l-.6.4c-.6.4-1.2.8-1.8 1.1l-.2.1v.2c0 .2 0 .4-.1.6-.1.4-.3.6-.6.6H40.2c-1 0-1.6.3-1.8.9-.1.3-.3 1.2.8 1.7.2.1.5.2.8.2.8 0 1.8-.3 2.2-.6h.1c.6-.3 2.4-1.3 2-3.8l-.1-.5v-.3l-.1-.6z"/><path fill="#FFF" d="M41.7 52c0-1.3-.5-3-1.2-5.7-.2-.9-.5-1.8-.8-2.9-1.2-4.4-3-8.1-4-9.6-1.4-2.1-1.9-2.7-1.9-2.7l-.1-.1 1.4-1.5.2.2c5.8 6.5 7.4 13.7 8.7 21.3v.1l-.1.1c-.6.4-1.2.8-1.8 1.1l-.3.2-.1-.5z"/><path fill="#FFF" d="M35.1 29.7c5.8 6.4 7.4 13.6 8.6 21.1-.6.4-1.2.8-1.8 1.1 0-1.7-.8-4.3-2-8.7-1.2-4.7-3.2-8.4-4-9.7-1.4-2.2-1.9-2.7-1.9-2.7l1.1-1.1m0-.6l-.3.4-1.1 1.2-.2.3.2.3s.5.6 1.9 2.7c.7 1 2.7 4.7 4 9.5.3 1.1.6 2 .8 2.9.7 2.7 1.2 4.4 1.2 5.7v.7l.7-.4c.6-.3 1.2-.7 1.8-1.1l.2-.2v-.3c-1.3-7.5-2.9-14.9-8.7-21.4l-.5-.3zM51.6 16.8c-.2-.1-.4-.1-.5-.2.7 1.1 1.3 2.2 1.8 3.4.1-.2.2-.4.2-.7 0-1-.4-2-1.5-2.5z"/><path fill="#FFF" d="M49 17.1c-.6.5-.5 1.5-.2 1.9.5.7 1.2.7 1.2.7s-.3-.1-.3-.8c0-.5.4-.9.8-.8.4.1.7.5.6 1 0 .5-.2.9-.5 1.2-.2.2-1.4 1.1-3.4-.5-.3-.2-.6-.8-.6-.8s-1.6 3.9-5.4 5.3c-2.2.9-5.8-.3-5.8-.3s1.2.7 2 2.3c.6 1.2.1 2.2.1 2.2l3.3 3.6s-.2-1.2 1-3.7c1.1-2.3 2.8-3.4 3.8-3.9 1.4-.7 3.7-1.1 5.2-2.3 1-.7 1.7-1.4 2-2.2-.5-1.2-1.1-2.3-1.8-3.4-.7-.1-1.4 0-2 .5zM46.8 11.4c-.1 0-.1 0-.2-.1-1.2-.5-3.2-1.3-7.7-1.9-1.3-.2-4.2-.7-5.6 1.5-.4.7-.7 1.3-.1 2.6s1.5 1.8 2.2 2c.7.2 1.2.3 2 .2.6 0 1-.2 1.7-.6s.8-1.1.8-1.7c0-.8-.4-1.4-1-1.6-.8-.3-1.4-.1-1.8.2-.4.3-.5 1.2-.3 1.5.2.3.1 1.5-1.2.7-.4-.2-.5-1.4 0-2 1.5-1.7 3.8-1.3 4.9-1.2.7.1 3.2.7 4 1 1.9.6 3.2 1.3 3.8 1.6.3.1.5.2.7.3-.6-.8-1.4-1.7-2.2-2.5zM31.3 36.8l1.4 12.3h5.1l-3.9-12.3zM30.6 7.9h-.3-.3c-.2 0-3.2.2-3.2.2h.1c2 .1 3.3.3 3.4.3.1 0 1.4-.2 3.4-.3h.1s-3-.2-3.2-.2z"/><path fill="#FFF" d="M26.9 8.2c.3.1 1.1.6 1.6 1.9.4.8.4 3.5.4 3.5s-.3 4.7-4.9 3.8c-1.5-.3-2.5-.6-4.5-.2-.5.1-1.6.2-2.2-.1-.8-.4-.6-.9-.6-.9s.2.2.7.3c.5.2 1-.1.9-.7 0-.6-.5-1.1-1.1-1.2-.7-.2-1.5-.1-1.9.4-.6.6-.7 2.2.9 2.9.5.2 1.4.5 2.9.4 1.7-.1 4.3.3 5.4 1.6.4.5 1.2.7 1.4.7h2l2.2-2.1 2.2 2.1h2c.3 0 1-.2 1.4-.7 1.2-1.3 3.7-1.7 5.4-1.6 1.6.1 2.4-.2 2.9-.4 1.7-.6 1.5-2.3.9-2.9-.5-.5-1.2-.6-1.9-.4-.6.2-1.1.6-1.1 1.2 0 .5.5.8.9.7s.7-.3.7-.3.2.5-.6.9c-.6.3-1.7.2-2.2.1-2-.4-2.9-.1-4.5.2-4.6.9-4.9-3.8-4.9-3.8s.1-2.6.4-3.5c.6-1.3 1.4-1.8 1.6-1.9-2 .1-3.3.3-3.4.3.4.1-.9-.2-3-.3z"/><path fill="#FFF" d="M27.1 27.6c.3-.4.1-.5.4-.3.1.1.4 2.2 1.2 2.8.7.4 1.6.3 1.6.3s.9.1 1.6-.3c.9-.5 1.2-2.7 1.2-2.8.3-.2.1 0 .4.3.5.6 1.6.3 1.7-.5.1-1-.4-1.4-1.2-1.6-.4-.1-.7-.1-1.2.1-.4.2-.7.4-.8.5.1-.1.5-.5.7-.8.2-.4 0-1.2-.2-1.8-.3-.6-.2-1.3-.2-1.3l-2-1.9-2 1.9s.1.7-.2 1.3c-.3.6-.5 1.4-.2 1.8.2.4.6.7.7.8-.1-.1-.4-.3-.8-.5-.5-.2-.8-.2-1.2-.1-.8.2-1.2.6-1.2 1.6.1.8 1.2 1.1 1.7.5zM21.5 20.1c-1.1-.4-2.3-.3-3-.4-.7-.1-2.9-.4-2.9-.4s.5 1.4 2.1 2.5c.9.6 2.6 1.5 3.8 1.5 2.1-.1 2.6-1 2.6-1s-1.5-1.8-2.6-2.2zM20.5 55.7c-.8 0-1.7-.3-2.1-.5-.7-.4-2.3-1.3-1.9-3.6l.2-1 .3.2c.6.4 1.2.8 1.8 1.1l.1.1v.1c0 .3 0 .5.1.7.1.5.4.7.8.7H20.4c.3 0 1.3 0 1.6.7.1.3.2 1-.7 1.5-.3-.1-.5 0-.8 0z"/><path fill="#FFF" d="M16.9 50.9c.6.4 1.2.8 1.8 1.1 0 .3 0 .5.1.7.2.8.7.9 1 .9h.6c.5 0 1.2.1 1.4.6.2.6-.2 1-.6 1.2-.2.1-.4.1-.6.1-.7 0-1.6-.3-2-.5-.5-.3-2.2-1.1-1.8-3.4 0-.2 0-.5.1-.7m-.3-.7l-.1.7v.3l-.1.5c-.4 2.5 1.4 3.5 2 3.8h.1c.4.2 1.4.6 2.2.6.3 0 .6-.1.8-.2 1.1-.5 1-1.4.8-1.7-.2-.6-.8-.9-1.8-.9H19.9c-.3 0-.5-.2-.6-.6 0-.2-.1-.4-.1-.6v-.2l-.2-.1c-.6-.3-1.2-.7-1.8-1.1l-.6-.5z"/><path fill="#FFF" d="M18.6 52.2c-.6-.3-1.2-.7-1.8-1.1l-.2-.1v-.1c1.3-7.5 2.9-14.8 8.7-21.3l.2-.2 1.4 1.5-.1.1s-.5.6-1.9 2.7c-1 1.5-2.8 5.2-4 9.6-.3 1.1-.6 2-.8 2.9-.7 2.7-1.2 4.5-1.2 5.7v.4l-.3-.1z"/><path fill="#FFF" d="M25.5 29.7l1.1 1.2s-.5.5-1.9 2.7c-.8 1.3-2.8 5-4 9.7-1.2 4.4-2.1 6.9-2 8.7-.6-.3-1.2-.7-1.8-1.1 1.3-7.6 2.8-14.7 8.6-21.2m0-.6l-.3.4c-5.8 6.5-7.5 13.8-8.7 21.4v.3l.2.2c.6.4 1.2.8 1.8 1.1l.7.4v-.7c0-1.2.5-3 1.2-5.7.2-.9.5-1.8.8-2.9 1.3-4.9 3.3-8.5 4-9.5 1.4-2.1 1.9-2.7 1.9-2.7l.2-.3-.2-.3-1.1-1.2-.5-.5zM30.3 32.5h-2.4L26.1 35h8.5l-1.8-2.5zM9.8 22.2c1.5 1.1 3.8 1.5 5.2 2.3.9.5 2.7 1.6 3.8 3.9 1.2 2.5 1 3.7 1 3.7l3.3-3.6s-.4-1 .1-2.2c.7-1.6 2-2.3 2-2.3s-3.6 1.1-5.8.3C15.6 22.9 14 19 14 19s-.3.6-.6.8c-2 1.6-3.2.7-3.4.5-.3-.4-.5-.7-.5-1.2 0-.4.2-.8.6-1 .4-.1.8.3.8.8 0 .6-.3.8-.3.8s.7 0 1.2-.7c.3-.4.4-1.4-.2-1.9-.6-.5-1.3-.7-2-.5-.7 1.1-1.3 2.2-1.8 3.4.4.8 1.1 1.5 2 2.2zM11.5 14c.2-.1.5-.2.7-.3.6-.3 1.9-1 3.8-1.6.8-.2 3.3-.9 4-1 1.1-.1 3.4-.5 4.9 1.2.5.6.4 1.7 0 2-1.2.8-1.4-.4-1.2-.7.2-.3.1-1.2-.3-1.5-.4-.3-1-.5-1.8-.2-.5.2-.9.9-1 1.6 0 .7.2 1.4.8 1.7s1 .5 1.7.6c.8.1 1.4 0 2-.2.7-.2 1.6-.7 2.2-2 .6-1.3.3-1.9-.1-2.6C26 8.8 23 9.3 21.7 9.5c-4.5.5-6.5 1.4-7.7 1.9-.1 0-.1.1-.2.1-.8.7-1.6 1.6-2.3 2.5zM22.8 49.1h5.1l1.4-12.3h-2.6zM22.9 51.6l1 2.5c2 .6 4.2.9 6.4.9s4.3-.3 6.4-.9l1-2.5c-4.9.7-9.9.7-14.8 0z"/><circle fill="#FFF" stroke="#FFF" stroke-width="1.498" stroke-miterlimit="10" cx="6" cy="57.4" r="2.3"/></svg>