<?xml version="1.0" encoding="utf-8"?>
<!-- Generator: Adobe Illustrator 18.0.0, SVG Export Plug-In . SVG Version: 6.00 Build 0)  -->
<!DOCTYPE svg PUBLIC "-//W3C//DTD SVG 1.1//EN" "http://www.w3.org/Graphics/SVG/1.1/DTD/svg11.dtd">
<svg version="1.1" id="Layer_1" xmlns="http://www.w3.org/2000/svg" xmlns:xlink="http://www.w3.org/1999/xlink" x="0px" y="0px"
	 width="338px" height="338px" viewBox="0 0 338 338" enable-background="new 0 0 338 338" xml:space="preserve">
<g>
	<text transform="matrix(1 0 0 1 0 -17.5576)" fill="#EACF1A" font-family="'Courgette-Regular'" font-size="32.2393">Cropper</text>
</g>
<text transform="matrix(0.9965 -8.321116e-002 8.321116e-002 0.9965 76.2352 59.3533)" fill="#36CC89" font-family="'Courgette-Regular'" font-size="32.2393">Stencil</text>
<g>
	<text transform="matrix(1 0 0 1 220.4997 68.209)" fill="#969696" font-family="'Courgette-Regular'" font-size="17.5552">Box</text>
</g>
<text transform="matrix(4.489659e-011 1 -1 4.489659e-011 311.8929 105.0944)" fill="#C9E2A8" font-family="'Courgette-Regular'" font-size="17">Image (fitted)</text>
<g>
	<g>
		<polyline fill="none" stroke="#EACF1A" stroke-width="2" stroke-miterlimit="10" points="338,336 338,339 335,339 		"/>
		
			<line fill="none" stroke="#EACF1A" stroke-width="2" stroke-miterlimit="10" stroke-dasharray="6.0356,6.0356" x1="328.9" y1="339" x2="6" y2="339"/>
		<polyline fill="none" stroke="#EACF1A" stroke-width="2" stroke-miterlimit="10" points="3,339 0,339 0,336 		"/>
		
			<line fill="none" stroke="#EACF1A" stroke-width="2" stroke-miterlimit="10" stroke-dasharray="6.0537,6.0537" x1="0" y1="329.9" x2="0" y2="6"/>
		<polyline fill="none" stroke="#EACF1A" stroke-width="2" stroke-miterlimit="10" points="0,3 0,0 3,0 		"/>
		
			<line fill="none" stroke="#EACF1A" stroke-width="2" stroke-miterlimit="10" stroke-dasharray="6.0356,6.0356" x1="9" y1="0" x2="331.9" y2="0"/>
		<polyline fill="none" stroke="#EACF1A" stroke-width="2" stroke-miterlimit="10" points="335,0 338,0 338,3 		"/>
		
			<line fill="none" stroke="#EACF1A" stroke-width="2" stroke-miterlimit="10" stroke-dasharray="6.0537,6.0537" x1="338" y1="9.1" x2="338" y2="332.9"/>
	</g>
</g>
<g>
	<g>
		<line fill="none" stroke="#C9E2A8" stroke-width="2" stroke-miterlimit="10" x1="298.3" y1="0" x2="298.3" y2="1.5"/>
		
			<line fill="none" stroke="#C9E2A8" stroke-width="2" stroke-miterlimit="10" stroke-dasharray="3.018,3.018" x1="298.3" y1="4.5" x2="298.3" y2="335"/>
		<line fill="none" stroke="#C9E2A8" stroke-width="2" stroke-miterlimit="10" x1="298.3" y1="336.5" x2="298.3" y2="338"/>
	</g>
</g>
<g>
	<g>
		<line fill="none" stroke="#C9E2A8" stroke-width="2" stroke-miterlimit="10" x1="37.7" y1="338" x2="37.7" y2="336.5"/>
		
			<line fill="none" stroke="#C9E2A8" stroke-width="2" stroke-miterlimit="10" stroke-dasharray="3.018,3.018" x1="37.7" y1="333.5" x2="37.7" y2="3"/>
		<line fill="none" stroke="#C9E2A8" stroke-width="2" stroke-miterlimit="10" x1="37.7" y1="1.5" x2="37.7" y2="0"/>
	</g>
</g>
<g>
	<g>
		<polyline fill="none" stroke="#F2F2F2" stroke-width="2" stroke-miterlimit="10" points="249,238 249,239.5 247.5,239.5 		"/>
		
			<line fill="none" stroke="#F2F2F2" stroke-width="2" stroke-miterlimit="10" stroke-dasharray="2.9545,2.9545" x1="244.5" y1="239.5" x2="86.5" y2="239.5"/>
		<polyline fill="none" stroke="#F2F2F2" stroke-width="2" stroke-miterlimit="10" points="85,239.5 83.5,239.5 83.5,238 		"/>
		
			<line fill="none" stroke="#F2F2F2" stroke-width="2" stroke-miterlimit="10" stroke-dasharray="2.9545,2.9545" x1="83.5" y1="235" x2="83.5" y2="77"/>
		<polyline fill="none" stroke="#F2F2F2" stroke-width="2" stroke-miterlimit="10" points="83.5,75.5 83.5,74 85,74 		"/>
		
			<line fill="none" stroke="#F2F2F2" stroke-width="2" stroke-miterlimit="10" stroke-dasharray="2.9545,2.9545" x1="88" y1="74" x2="246" y2="74"/>
		<polyline fill="none" stroke="#F2F2F2" stroke-width="2" stroke-miterlimit="10" points="247.5,74 249,74 249,75.5 		"/>
		
			<line fill="none" stroke="#F2F2F2" stroke-width="2" stroke-miterlimit="10" stroke-dasharray="2.9545,2.9545" x1="249" y1="78.5" x2="249" y2="236.5"/>
	</g>
</g>
<g>
	
		<circle fill="none" stroke="#36CC89" stroke-width="4" stroke-miterlimit="10" stroke-dasharray="15.7562,7.8781" cx="166.3" cy="156.8" r="82.8"/>
</g>
</svg>
