<?xml version="1.0" encoding="utf-8"?>
<!-- Generator: Adobe Illustrator 18.0.0, SVG Export Plug-In . SVG Version: 6.00 Build 0)  -->
<!DOCTYPE svg PUBLIC "-//W3C//DTD SVG 1.1//EN" "http://www.w3.org/Graphics/SVG/1.1/DTD/svg11.dtd">
<svg version="1.1" id="Layer_1" xmlns="http://www.w3.org/2000/svg" xmlns:xlink="http://www.w3.org/1999/xlink" x="0px" y="0px"
	 width="280.1px" height="321.3px" viewBox="0 0 280.1 321.3" enable-background="new 0 0 280.1 321.3" xml:space="preserve">
<g>
	<g>
		<polyline fill="none" stroke="#F2F2F2" stroke-width="2" stroke-miterlimit="10" points="231.1,264.5 231.1,266 229.6,266 		"/>
		
			<line fill="none" stroke="#F2F2F2" stroke-width="2" stroke-miterlimit="10" stroke-dasharray="2.9545,2.9545" x1="226.6" y1="266" x2="68.6" y2="266"/>
		<polyline fill="none" stroke="#F2F2F2" stroke-width="2" stroke-miterlimit="10" points="67.1,266 65.6,266 65.6,264.5 		"/>
		
			<line fill="none" stroke="#F2F2F2" stroke-width="2" stroke-miterlimit="10" stroke-dasharray="2.9545,2.9545" x1="65.6" y1="261.6" x2="65.6" y2="103.5"/>
		<polyline fill="none" stroke="#F2F2F2" stroke-width="2" stroke-miterlimit="10" points="65.6,102 65.6,100.5 67.1,100.5 		"/>
		
			<line fill="none" stroke="#F2F2F2" stroke-width="2" stroke-miterlimit="10" stroke-dasharray="2.9545,2.9545" x1="70" y1="100.5" x2="228.1" y2="100.5"/>
		<polyline fill="none" stroke="#F2F2F2" stroke-width="2" stroke-miterlimit="10" points="229.6,100.5 231.1,100.5 231.1,102 		"/>
		
			<line fill="none" stroke="#F2F2F2" stroke-width="2" stroke-miterlimit="10" stroke-dasharray="2.9545,2.9545" x1="231.1" y1="105" x2="231.1" y2="263.1"/>
	</g>
</g>
<g>
	<g>
		<polyline fill="none" stroke="#F2F2F2" stroke-width="2" stroke-miterlimit="10" points="169.7,201.3 169.7,202.8 168.2,202.8 		
			"/>
		
			<line fill="none" stroke="#F2F2F2" stroke-width="2" stroke-miterlimit="10" stroke-dasharray="2.9545,2.9545" x1="165.3" y1="202.8" x2="7.2" y2="202.8"/>
		<polyline fill="none" stroke="#F2F2F2" stroke-width="2" stroke-miterlimit="10" points="5.7,202.8 4.2,202.8 4.2,201.3 		"/>
		
			<line fill="none" stroke="#F2F2F2" stroke-width="2" stroke-miterlimit="10" stroke-dasharray="2.9545,2.9545" x1="4.2" y1="198.3" x2="4.2" y2="40.3"/>
		<polyline fill="none" stroke="#F2F2F2" stroke-width="2" stroke-miterlimit="10" points="4.2,38.8 4.2,37.3 5.7,37.3 		"/>
		
			<line fill="none" stroke="#F2F2F2" stroke-width="2" stroke-miterlimit="10" stroke-dasharray="2.9545,2.9545" x1="8.7" y1="37.3" x2="166.8" y2="37.3"/>
		<polyline fill="none" stroke="#F2F2F2" stroke-width="2" stroke-miterlimit="10" points="168.2,37.3 169.7,37.3 169.7,38.8 		"/>
		
			<line fill="none" stroke="#F2F2F2" stroke-width="2" stroke-miterlimit="10" stroke-dasharray="2.9545,2.9545" x1="169.7" y1="41.8" x2="169.7" y2="199.8"/>
	</g>
</g>
<g>
	
		<circle fill="none" stroke="#36CC89" stroke-width="4" stroke-miterlimit="10" stroke-dasharray="15.7562,7.8781" cx="148.3" cy="183.3" r="82.8"/>
</g>
<g>
	<path fill="#B9B9B9" d="M198.3,89.3c0.2,0,0.2,0.1,0.2,0.3c0,0.2,0,0.4-0.1,0.5s-0.2,0.3-0.3,0.4c-0.1,0.1-0.2,0.2-0.4,0.3
		c-0.4,0.2-0.8,0.4-1.2,0.3s-0.7-0.1-1-0.2c-0.2-0.1-0.4-0.3-0.6-0.5c-0.4-0.4-0.5-1-0.5-1.7c0-0.8,0.2-1.7,0.5-2.9
		c0.3-1.1,0.6-2.1,0.9-2.9c0.3-0.8,0.6-1.6,0.9-2.3l0.8-2.1c-0.9,0.8-2.1,2.5-3.5,5l-2.2,4.1c-1.2,2.2-2,3.2-2.5,3.2
		c-0.5,0-0.8-0.2-1-0.6c-0.2-0.4-0.2-1.1-0.2-2.1c0-1,0.1-1.9,0.3-2.8c0.2-0.9,0.4-1.8,0.6-2.6c0.4-1.5,1-3,1.6-4.4
		c-0.6,0.3-1.4,1.1-2.1,2.4c-0.6,1-1,1.7-1.3,2.1l-2.4,4.3c-1,1.8-1.8,2.8-2.4,3.2c-0.4,0.3-0.9,0.4-1.4,0.4c-0.4,0-0.7-0.1-0.9-0.4
		c-0.1-0.1-0.1-0.2-0.1-0.3c0-0.1,0-0.1,0.1-0.2c0.4-0.1,0.6-0.2,0.8-0.3c0.2-0.1,0.3-0.2,0.5-0.3c0.2-0.1,0.4-0.4,0.7-0.7
		c0.3-0.4,0.6-0.8,1-1.4c0.3-0.5,0.7-1.1,1.1-1.8l1.2-2.1c1.1-2,2.2-3.7,3.4-4.9c0.4-0.4,0.8-0.8,1.2-1c0.4-0.3,0.9-0.5,1.4-0.6
		c0.1,0,0.3,0,0.4,0c0.1,0,0.3,0,0.4,0.1c0.2,0,0.3,0.1,0.4,0.2c0.3,0.2,0.3,0.4,0.2,0.7c-0.1,0.2-0.1,0.5-0.3,0.8L192,80
		c-1.2,3.1-1.8,6-2,8.6c0.3-0.5,0.7-1.1,1-1.8l1-2l1.1-2c1.7-3.1,3.3-4.8,4.7-5.2c0.3-0.1,0.5-0.1,0.7-0.1c0.2,0,0.4,0,0.5,0.1
		c0.1,0.1,0.2,0.1,0.3,0.2c0.2,0.2,0.3,0.4,0.2,0.6c-0.1,0.2-0.2,0.5-0.3,0.8l-1.4,3.8l-0.5,1.5c-0.5,1.7-0.9,3.1-1,4
		c0,0.4,0,0.7,0.1,0.9c0.1,0.2,0.3,0.3,0.5,0.3c0.2,0,0.4,0,0.5,0c0.1,0,0.2-0.1,0.3-0.1l0.2-0.1C198.2,89.3,198.3,89.3,198.3,89.3z
		"/>
	<path fill="#B9B9B9" d="M200.8,90.5c-0.3-0.2-0.4-0.6-0.6-0.9c-0.1-0.4-0.2-0.8-0.2-1.3c0-0.5,0.1-1,0.2-1.5c0.1-0.5,0.3-1,0.6-1.5
		c0.2-0.5,0.5-0.9,0.9-1.3c0.3-0.4,0.7-0.8,1.1-1.1c0.9-0.7,1.8-1,2.8-1c1.2,0,2.1,0.6,2.5,1.7c0.3,0.8,0.3,1.7,0,2.9
		c-0.3,1-0.7,2-1.4,2.8c-0.7,0.9-1.5,1.5-2.4,1.8c-0.5,0.2-0.9,0.3-1.4,0.3c-0.4,0-0.8-0.1-1.2-0.2C201.3,90.9,201,90.7,200.8,90.5z
		 M202.6,86.1c-0.2,0.4-0.3,0.9-0.4,1.4c-0.1,0.5-0.2,0.9-0.2,1.3c0,0.4,0.1,0.7,0.2,1c0.1,0.2,0.3,0.4,0.6,0.4
		c0.3,0,0.6-0.1,0.8-0.3c0.3-0.2,0.5-0.4,0.8-0.7c0.3-0.3,0.5-0.7,0.7-1.1c0.2-0.4,0.4-0.8,0.6-1.3c0.4-1,0.6-1.8,0.6-2.6
		c0-0.7-0.1-1.1-0.4-1.3c-0.1-0.1-0.3-0.1-0.5-0.1c-0.2,0-0.4,0.1-0.7,0.3c-0.3,0.2-0.5,0.4-0.8,0.7c-0.3,0.3-0.5,0.6-0.7,1
		C203,85.3,202.8,85.7,202.6,86.1z"/>
	<path fill="#B9B9B9" d="M209.5,90.3c-0.1-0.2-0.1-0.4-0.1-0.7c0-0.3,0-0.6,0.1-0.9c0.1-0.3,0.2-0.7,0.3-1c0.1-0.3,0.3-0.7,0.5-1
		l0.5-1c0.6-1.4,0.8-2.2,0.7-2.4c-0.1-0.1-0.2-0.2-0.4-0.3c-0.1,0-0.1-0.1-0.1-0.2c0-0.1,0-0.2,0.1-0.3c0.1-0.1,0.2-0.2,0.4-0.2
		c0.3-0.1,0.6-0.2,0.9-0.2c0.3,0,0.5,0,0.7,0.1c0.2,0.1,0.3,0.1,0.4,0.2c0.2,0.2,0.3,0.4,0.3,0.7c0,0.3-0.1,0.6-0.2,1
		c-0.1,0.4-0.3,0.7-0.4,1.1c-0.2,0.4-0.4,0.8-0.5,1.2l-0.5,1.2c-0.4,0.9-0.6,1.4-0.6,1.7c0,0.6,0.2,0.8,0.6,0.8c1,0,2-0.6,2.9-1.8
		c0.5-0.7,0.9-1.4,1.1-2.2c0.1-0.4,0.2-0.7,0.2-1.1c0-0.3,0-0.6,0-0.8c0-0.2-0.1-0.4-0.1-0.6c-0.1-0.3-0.2-0.5-0.4-0.8
		c-0.1-0.2-0.1-0.3,0.2-0.5c0.3-0.2,0.6-0.3,1.1-0.3c0.3,0,0.6,0.1,0.8,0.4c0.3,0.3,0.4,0.8,0.4,1.5c0,0.6-0.1,1.2-0.3,1.9
		c-0.2,0.6-0.5,1.2-0.8,1.7c-0.3,0.6-0.7,1.1-1.2,1.5c-0.4,0.5-0.9,0.9-1.4,1.2c-1.1,0.8-2.2,1.1-3.3,1.1
		C210.3,91.3,209.8,91,209.5,90.3z"/>
	<path fill="#B9B9B9" d="M219.1,88.2c0-0.5,0.1-1,0.3-1.5c0.2-0.5,0.4-0.9,0.6-1.4c0.3-0.4,0.6-0.9,0.9-1.3c0.3-0.4,0.7-0.7,1.1-1
		c0.9-0.6,1.7-0.9,2.6-0.9c1,0,1.7,0.4,2,1.3c0.1,0.3,0.2,0.6,0.2,1c0,0.4-0.1,0.8-0.2,1.1c-0.1,0.3-0.4,0.6-0.6,0.9
		c-0.3,0.3-0.6,0.5-0.9,0.7c-0.4,0.2-0.7,0.4-1.2,0.5c-0.9,0.3-1.8,0.4-2.8,0.4c0,0.1,0,0.2,0,0.4c0,0.2,0,0.4,0,0.6
		c0,0.2,0.1,0.4,0.2,0.6c0.2,0.4,0.5,0.5,0.9,0.6c0.7,0,1.4-0.2,2.1-0.6c0.2-0.1,0.4-0.3,0.6-0.4c0.1-0.1,0.3-0.2,0.4-0.2
		c0.1,0,0.2,0.1,0.3,0.2c0.1,0.1,0.1,0.3,0.1,0.4c0,0.3-0.1,0.6-0.3,0.8c-0.8,0.7-1.9,1.1-3.4,1.1c-0.9,0-1.6-0.3-2.1-0.8
		C219.3,90,219,89.2,219.1,88.2z M224.4,83.3c-0.6,0-1.2,0.4-1.8,1.3c-0.5,0.7-0.9,1.6-1.2,2.6c1-0.1,1.9-0.5,2.6-1.2
		c0.7-0.6,1-1.3,1-1.9C225,83.6,224.8,83.3,224.4,83.3z"/>
	<path fill="#B9B9B9" d="M233.5,88.4c0-0.5,0.1-1,0.3-1.5c0.2-0.5,0.4-0.9,0.6-1.4c0.3-0.4,0.6-0.9,0.9-1.3c0.3-0.4,0.7-0.7,1.1-1
		c0.9-0.6,1.7-0.9,2.6-0.9c1,0,1.7,0.4,2,1.3c0.1,0.3,0.2,0.6,0.2,1c0,0.4-0.1,0.8-0.2,1.1c-0.1,0.3-0.4,0.6-0.6,0.9
		c-0.3,0.3-0.6,0.5-0.9,0.7c-0.4,0.2-0.7,0.4-1.2,0.5c-0.9,0.3-1.8,0.4-2.8,0.4c0,0.1,0,0.2,0,0.4s0,0.4,0,0.6
		c0,0.2,0.1,0.4,0.2,0.6c0.2,0.4,0.5,0.5,0.9,0.6c0.7,0,1.4-0.2,2.1-0.6c0.2-0.1,0.4-0.3,0.6-0.4c0.1-0.1,0.3-0.2,0.4-0.2
		c0.1,0,0.2,0.1,0.3,0.2c0.1,0.1,0.1,0.3,0.1,0.4c0,0.3-0.1,0.6-0.3,0.8c-0.8,0.7-1.9,1.1-3.4,1.1c-0.9,0-1.6-0.3-2.1-0.8
		C233.7,90.2,233.4,89.4,233.5,88.4z M238.8,83.4c-0.6,0-1.2,0.4-1.8,1.3c-0.5,0.7-0.9,1.6-1.2,2.6c1-0.1,1.9-0.5,2.6-1.2
		c0.7-0.6,1-1.3,1-1.9C239.4,83.7,239.2,83.4,238.8,83.4z"/>
	<path fill="#B9B9B9" d="M242.1,90.8c-0.1-0.2-0.1-0.4-0.1-0.7c0-0.3,0-0.6,0.1-0.9c0.1-0.3,0.2-0.7,0.3-1c0.1-0.3,0.3-0.7,0.5-1
		l0.5-1c0.6-1.4,0.8-2.2,0.7-2.4c-0.1-0.1-0.2-0.2-0.4-0.3c-0.1,0-0.1-0.1-0.1-0.2c0-0.1,0-0.2,0.1-0.3c0.1-0.1,0.2-0.2,0.4-0.2
		c0.3-0.1,0.6-0.2,0.9-0.2c0.3,0,0.5,0,0.7,0.1c0.2,0.1,0.3,0.1,0.4,0.2c0.2,0.2,0.3,0.4,0.3,0.7s-0.1,0.6-0.2,1
		c-0.1,0.4-0.3,0.7-0.4,1.1c-0.2,0.4-0.4,0.8-0.5,1.2l-0.5,1.2c-0.4,0.9-0.6,1.4-0.6,1.7c0,0.6,0.2,0.8,0.6,0.8c1,0,2-0.6,2.9-1.8
		c0.5-0.7,0.9-1.4,1.1-2.2c0.1-0.4,0.2-0.7,0.2-1.1c0-0.3,0-0.6,0-0.8c0-0.2-0.1-0.4-0.1-0.6c-0.1-0.3-0.2-0.5-0.4-0.8
		c-0.1-0.2-0.1-0.3,0.2-0.5c0.3-0.2,0.6-0.3,1.1-0.3c0.3,0,0.6,0.1,0.8,0.4c0.3,0.3,0.4,0.8,0.4,1.5c0,0.6-0.1,1.2-0.3,1.9
		c-0.2,0.6-0.5,1.2-0.8,1.7s-0.7,1.1-1.2,1.5c-0.4,0.5-0.9,0.9-1.4,1.2c-1.1,0.8-2.2,1.1-3.3,1.1C242.9,91.7,242.4,91.4,242.1,90.8z
		"/>
	<path fill="#B9B9B9" d="M251.7,88.6c0-0.5,0.1-1,0.3-1.5c0.2-0.5,0.4-0.9,0.6-1.4c0.3-0.4,0.6-0.9,0.9-1.3c0.3-0.4,0.7-0.7,1.1-1
		c0.9-0.6,1.7-0.9,2.6-0.9c1,0,1.7,0.4,2,1.3c0.1,0.3,0.2,0.6,0.2,1c0,0.4-0.1,0.8-0.2,1.1c-0.1,0.3-0.4,0.6-0.6,0.9
		c-0.3,0.3-0.6,0.5-0.9,0.7c-0.4,0.2-0.7,0.4-1.2,0.5c-0.9,0.3-1.8,0.4-2.8,0.4c0,0.1,0,0.2,0,0.4c0,0.2,0,0.4,0,0.6
		c0,0.2,0.1,0.4,0.2,0.6c0.2,0.4,0.5,0.5,0.9,0.6c0.7,0,1.4-0.2,2.1-0.6c0.2-0.1,0.4-0.3,0.6-0.4c0.1-0.1,0.3-0.2,0.4-0.2
		c0.1,0,0.2,0.1,0.3,0.2c0.1,0.1,0.1,0.3,0.1,0.4c0,0.3-0.1,0.6-0.3,0.8c-0.8,0.8-1.9,1.1-3.4,1.1c-0.9,0-1.6-0.3-2.1-0.8
		C251.9,90.5,251.6,89.6,251.7,88.6z M257,83.7c-0.6,0-1.2,0.4-1.8,1.3c-0.5,0.7-0.9,1.6-1.2,2.6c1-0.1,1.9-0.5,2.6-1.2
		c0.7-0.6,1-1.3,1-1.9C257.6,84,257.4,83.7,257,83.7z"/>
	<path fill="#B9B9B9" d="M266.9,84.3c-0.2,0-0.5,0.2-0.8,0.5c-0.3,0.4-0.6,0.7-0.9,1l-0.8,0.9l-1.5,1.9c-0.4,0.7-0.6,1.2-0.8,1.6
		l-0.5,1c-0.1,0.3-0.2,0.4-0.3,0.5c-0.1,0.1-0.2,0.2-0.4,0.2s-0.3,0-0.5-0.1c-0.1-0.1-0.3-0.1-0.4-0.2c-0.2-0.2-0.3-0.4-0.3-0.6
		c0-0.1,0.1-0.3,0.2-0.5l0.4-0.7c0.1-0.2,0.2-0.5,0.4-0.8l0.5-1.2c0.7-1.8,1.1-2.9,1.1-3.4c0-0.3-0.1-0.5-0.3-0.6l-0.2-0.1
		c-0.1,0-0.1-0.1-0.1-0.2c0-0.1,0-0.2,0.1-0.3c0.1-0.1,0.2-0.2,0.3-0.2c0.3-0.1,0.5-0.2,0.8-0.2c0.3,0,0.5,0,0.6,0.1
		c0.2,0.1,0.3,0.1,0.4,0.2c0.2,0.2,0.3,0.4,0.3,0.7c0,0.2,0,0.5-0.1,0.7c-0.1,0.2-0.1,0.5-0.2,0.7c-0.1,0.2-0.2,0.5-0.3,0.7
		c-0.1,0.2-0.2,0.4-0.3,0.6l-0.2,0.4c0,0.1-0.1,0.1,0,0.1c0.7-0.9,1.1-1.5,1.3-1.8l0.6-0.8c0.5-0.5,0.8-0.9,1.1-1.1
		c0.5-0.4,1-0.5,1.3-0.5c0.3,0,0.6,0,0.8,0.1c0.2,0.1,0.4,0.2,0.5,0.3c0.3,0.3,0.5,0.7,0.5,1.2c0,0.5-0.1,1-0.3,1.5
		s-0.4,0.9-0.6,1.3c-0.2,0.3-0.3,0.6-0.5,1c-0.5,1-0.7,1.7-0.7,2.2c0,0.2,0.2,0.3,0.5,0.3c0.3,0,0.5,0,0.7-0.2
		c0.2-0.1,0.3-0.2,0.4-0.2c0.1,0,0.2,0.1,0.2,0.2c0,0.5-0.3,1-0.8,1.3c-0.4,0.2-0.7,0.4-1,0.4c-0.3,0-0.6,0-0.8-0.1
		c-0.2-0.1-0.4-0.2-0.5-0.3c-0.4-0.3-0.5-0.8-0.5-1.3c0-0.7,0.2-1.6,0.7-2.6c0.3-0.7,0.6-1.2,0.7-1.5l0.3-0.6
		c0.2-0.4,0.3-0.7,0.3-0.9C267.4,84.4,267.2,84.3,266.9,84.3z"/>
	<path fill="#B9B9B9" d="M276,89.7c0.2,0,0.3,0.1,0.3,0.4c0,0.2-0.1,0.4-0.2,0.6c-0.2,0.3-0.5,0.7-1,1c-0.6,0.3-1.1,0.5-1.7,0.5
		c-1,0-1.6-0.5-1.8-1.3c-0.3-1,0.2-3.2,1.5-6.5c-0.7-0.1-1.1-0.2-1.1-0.4c0-0.1,0-0.1,0-0.2c0-0.1,0-0.1,0.1-0.2
		c0.1-0.1,0.1-0.2,0.2-0.2c0.2-0.2,0.4-0.3,0.6-0.3l0.7,0c0.7-1.5,1.1-2.4,1.4-2.6c0.1-0.1,0.3-0.1,0.4-0.1c0.2,0,0.3,0,0.4,0.1
		c0.1,0,0.2,0.1,0.3,0.2c0.2,0.2,0.3,0.4,0.3,0.6c0,0.1,0,0.3-0.1,0.4l-0.7,1.4l0.2,0c0.4,0,0.7,0,0.9,0l0.5,0c0.1,0,0.3,0,0.4,0
		s0.3,0.1,0.3,0.2c0,0.8-1,1.2-2.8,1.2l-0.1,0l-0.6,1.6c-0.7,1.9-1.1,3.2-1.1,3.9c0,0.2,0,0.4,0.1,0.5c0.1,0.1,0.3,0.2,0.5,0.2
		c0.3,0,0.5,0,0.7-0.1c0.2-0.1,0.4-0.2,0.6-0.3c0.2-0.1,0.3-0.2,0.4-0.3C275.8,89.7,275.9,89.7,276,89.7z"/>
</g>
<g>
	<path fill="#8F8F8F" d="M58.1,68.7c0.2,0,0.4,0,0.6,0s0.4-0.1,0.5-0.1v0.9c-0.1,0.1-0.3,0.1-0.6,0.2c-0.3,0-0.5,0.1-0.7,0.1
		c-1.6,0-2.3-0.8-2.3-2.5v-4.8h-1.2v-0.6l1.2-0.5l0.5-1.7h0.7v1.9h2.3v0.9h-2.3v4.7c0,0.5,0.1,0.9,0.3,1.1S57.7,68.7,58.1,68.7z"/>
	<path fill="#8F8F8F" d="M67.8,65.6c0,1.3-0.3,2.3-1,3.1c-0.7,0.7-1.6,1.1-2.7,1.1c-0.7,0-1.4-0.2-1.9-0.5s-1-0.8-1.3-1.5
		s-0.5-1.4-0.5-2.2c0-1.3,0.3-2.3,1-3.1c0.7-0.7,1.6-1.1,2.7-1.1c1.1,0,2,0.4,2.7,1.1C67.4,63.3,67.8,64.3,67.8,65.6z M61.6,65.6
		c0,1,0.2,1.8,0.6,2.3s1,0.8,1.8,0.8c0.8,0,1.4-0.3,1.8-0.8c0.4-0.5,0.6-1.3,0.6-2.3c0-1-0.2-1.8-0.6-2.3c-0.4-0.5-1-0.8-1.8-0.8
		c-0.8,0-1.4,0.3-1.8,0.8S61.6,64.5,61.6,65.6z"/>
	<path fill="#8F8F8F" d="M73.6,69.8c-0.5,0-1-0.1-1.4-0.3c-0.4-0.2-0.8-0.5-1.1-0.9H71c0.1,0.5,0.1,0.9,0.1,1.3v3.3h-1.2V61.6h1
		l0.2,1.1h0.1c0.3-0.4,0.7-0.8,1.1-1s0.9-0.3,1.4-0.3c1.1,0,1.9,0.4,2.5,1.1c0.6,0.7,0.9,1.7,0.9,3.1c0,1.3-0.3,2.3-0.9,3.1
		C75.5,69.4,74.7,69.8,73.6,69.8z M73.5,62.5c-0.8,0-1.4,0.2-1.8,0.7s-0.6,1.2-0.6,2.2v0.3c0,1.1,0.2,1.9,0.6,2.4
		c0.4,0.5,1,0.7,1.8,0.7c0.7,0,1.2-0.3,1.6-0.8c0.4-0.6,0.6-1.3,0.6-2.3c0-1-0.2-1.8-0.6-2.3C74.7,62.7,74.2,62.5,73.5,62.5z"/>
</g>
<line fill="none" stroke="#36CC89" stroke-width="2" stroke-miterlimit="10" x1="65.6" y1="41" x2="65.6" y2="55.4"/>
<line fill="none" stroke="#36CC89" stroke-width="2" stroke-miterlimit="10" x1="65.6" y1="77.6" x2="65.6" y2="92.4"/>
<g>
	<path fill="#8F8F8F" d="M23.6,103.5h-1.2V92.1h1.2V103.5z"/>
	<path fill="#8F8F8F" d="M29.5,103.7c-1.2,0-2.1-0.4-2.8-1.1s-1-1.7-1-3c0-1.3,0.3-2.3,1-3.1c0.6-0.8,1.5-1.1,2.6-1.1
		c1,0,1.8,0.3,2.4,1c0.6,0.7,0.9,1.5,0.9,2.6v0.8H27c0,0.9,0.3,1.7,0.7,2.1c0.5,0.5,1.1,0.7,1.9,0.7c0.9,0,1.7-0.2,2.6-0.5v1.1
		c-0.4,0.2-0.8,0.3-1.2,0.4C30.5,103.6,30.1,103.7,29.5,103.7z M29.2,96.4c-0.6,0-1.2,0.2-1.5,0.6s-0.6,1-0.7,1.7h4.2
		c0-0.8-0.2-1.4-0.5-1.8S29.8,96.4,29.2,96.4z"/>
	<path fill="#8F8F8F" d="M38.2,96.4h-2v7.1h-1.2v-7.1h-1.4v-0.5l1.4-0.4V95c0-2,0.9-3,2.6-3c0.4,0,0.9,0.1,1.5,0.3l-0.3,1
		c-0.5-0.2-0.9-0.2-1.2-0.2c-0.5,0-0.8,0.2-1,0.5s-0.3,0.8-0.3,1.5v0.5h2V96.4z"/>
	<path fill="#8F8F8F" d="M42.2,102.7c0.2,0,0.4,0,0.6,0s0.4-0.1,0.5-0.1v0.9c-0.1,0.1-0.3,0.1-0.6,0.2c-0.3,0-0.5,0.1-0.7,0.1
		c-1.6,0-2.3-0.8-2.3-2.5v-4.8h-1.1v-0.6l1.1-0.5l0.5-1.7H41v1.9h2.3v0.9H41v4.7c0,0.5,0.1,0.9,0.3,1.1S41.8,102.7,42.2,102.7z"/>
</g>
<line fill="none" stroke="#36CC89" stroke-width="2" stroke-miterlimit="10" x1="17.6" y1="99.6" x2="8.3" y2="99.6"/>
<line fill="none" stroke="#36CC89" stroke-width="2" stroke-miterlimit="10" x1="57.5" y1="99.6" x2="48.1" y2="99.6"/>
<circle fill="#D2F0E2" cx="5.2" cy="38.5" r="5.2"/>
<circle fill="#36CC89" cx="65.6" cy="100.3" r="5.2"/>
</svg>
