<?xml version="1.0" encoding="utf-8"?>
<!-- Generator: Adobe Illustrator 18.0.0, SVG Export Plug-In . SVG Version: 6.00 Build 0)  -->
<!DOCTYPE svg PUBLIC "-//W3C//DTD SVG 1.1//EN" "http://www.w3.org/Graphics/SVG/1.1/DTD/svg11.dtd">
<svg version="1.1" id="Layer_1" xmlns="http://www.w3.org/2000/svg" xmlns:xlink="http://www.w3.org/1999/xlink" x="0px" y="0px"
	 width="297px" height="321.3px" viewBox="0 0 297 321.3" enable-background="new 0 0 297 321.3" xml:space="preserve">
<g>
	<g>
		<polyline fill="none" stroke="#F2F2F2" stroke-width="2" stroke-miterlimit="10" points="231.2,253.8 231.2,256.8 228.2,256.8 		
			"/>
		
			<line fill="none" stroke="#F2F2F2" stroke-width="2" stroke-miterlimit="10" stroke-dasharray="5.9074,5.9074" x1="222.3" y1="256.8" x2="71.7" y2="256.8"/>
		<polyline fill="none" stroke="#F2F2F2" stroke-width="2" stroke-miterlimit="10" points="68.7,256.8 65.7,256.8 65.7,253.8 		"/>
		
			<line fill="none" stroke="#F2F2F2" stroke-width="2" stroke-miterlimit="10" stroke-dasharray="5.9074,5.9074" x1="65.7" y1="247.9" x2="65.7" y2="97.3"/>
		<polyline fill="none" stroke="#F2F2F2" stroke-width="2" stroke-miterlimit="10" points="65.7,94.3 65.7,91.3 68.7,91.3 		"/>
		
			<line fill="none" stroke="#F2F2F2" stroke-width="2" stroke-miterlimit="10" stroke-dasharray="5.9074,5.9074" x1="74.6" y1="91.3" x2="225.3" y2="91.3"/>
		<polyline fill="none" stroke="#F2F2F2" stroke-width="2" stroke-miterlimit="10" points="228.2,91.3 231.2,91.3 231.2,94.3 		"/>
		
			<line fill="none" stroke="#F2F2F2" stroke-width="2" stroke-miterlimit="10" stroke-dasharray="5.9074,5.9074" x1="231.2" y1="100.2" x2="231.2" y2="250.9"/>
	</g>
</g>
<g>
	<path fill="#B9B9B9" d="M14,3.1c0-1.2-0.8-1.8-2.4-1.8c-1,0-2,0.3-3,0.9C8.3,2.4,8.1,2.6,7.9,2.7C7.8,2.9,7.6,2.9,7.5,2.9
		S7.2,2.9,7,2.8C6.9,2.7,6.8,2.6,6.6,2.5C6.3,2.1,6.3,1.7,6.8,1.3c0.7-0.6,1.9-1,3.6-1.2C10.7,0,11.1,0,11.7,0s1.1,0.1,1.6,0.3
		s1.1,0.4,1.5,0.8c0.8,0.6,1.2,1.5,1.2,2.5c0,1.2-0.5,2.3-1.6,3.2c-0.9,0.9-2.1,1.5-3.3,1.8c0.3,0.3,0.7,0.7,1,1.2l0.7,1.3
		c0.6,1.2,1.2,1.8,1.7,1.9c0.2,0,0.4,0,0.5,0c0.2,0,0.3-0.1,0.4-0.1c0.1,0,0.1,0.1,0.1,0.1c0,0.1,0,0.2-0.1,0.4
		c-0.1,0.1-0.2,0.3-0.4,0.4c-0.4,0.3-0.8,0.4-1.2,0.4s-0.8-0.1-1.1-0.3s-0.5-0.3-0.8-0.6c-0.2-0.2-0.4-0.5-0.6-0.8s-0.3-0.6-0.5-0.9
		l-0.4-0.9c-0.1-0.3-0.2-0.5-0.4-0.7S9.8,9.7,9.8,9.6C9.7,9.4,9.6,9.2,9.5,9.1C9.3,8.8,9,8.6,8.7,8.5c-1.3,3.3-2.6,5.1-3.9,5.6
		c-0.1,0-0.2,0.1-0.3,0.1c-0.1,0-0.2,0-0.3-0.1S4.1,14,4,13.9c-0.1-0.1-0.2-0.2-0.2-0.4s0-0.2,0.1-0.3c0.9-0.7,1.9-2.6,3-5.8L7.5,6
		c0.6-1.8,1.1-2.8,1.6-3.3c0.2-0.1,0.3-0.2,0.5-0.2c0.2,0,0.3,0,0.4,0.1s0.2,0.1,0.3,0.2c0.2,0.2,0.3,0.4,0.3,0.6
		c0,0.2,0,0.4-0.1,0.5c-0.1,0.1-0.2,0.4-0.3,0.6C9.9,5.2,9.7,5.9,9.5,6.3L9,7.6c1.3-0.2,2.4-0.7,3.4-1.5C13.5,5.2,14,4.2,14,3.1z"/>
	<path fill="#B9B9B9" d="M16.6,10.9c0-0.5,0.1-1,0.3-1.5C17,8.9,17.2,8.4,17.5,8s0.6-0.9,0.9-1.3c0.3-0.4,0.7-0.8,1.1-1.1
		c0.9-0.6,1.7-1,2.6-1c1,0,1.7,0.4,2.1,1.3c0.1,0.3,0.2,0.6,0.2,1s-0.1,0.8-0.2,1.1S23.8,8.7,23.5,9s-0.6,0.5-0.9,0.7
		c-0.4,0.2-0.7,0.4-1.2,0.6c-0.9,0.3-1.8,0.5-2.7,0.5c0,0.1,0,0.2,0,0.4c0,0.2,0,0.4,0.1,0.6c0,0.2,0.1,0.4,0.2,0.6
		c0.2,0.4,0.5,0.5,0.9,0.5c0.7,0,1.4-0.2,2-0.6c0.2-0.1,0.4-0.3,0.6-0.4c0.1-0.1,0.3-0.2,0.4-0.2s0.2,0.1,0.3,0.2
		c0.1,0.1,0.1,0.3,0.1,0.4c0,0.3-0.1,0.6-0.3,0.8c-0.8,0.8-1.9,1.1-3.4,1.1c-0.9,0-1.6-0.3-2.1-0.8C16.9,12.8,16.6,11.9,16.6,10.9z
		 M21.9,5.9c-0.6,0-1.2,0.4-1.8,1.3c-0.5,0.7-0.9,1.6-1.2,2.7c1-0.1,1.9-0.5,2.6-1.2c0.7-0.7,1-1.3,1-1.9
		C22.5,6.2,22.3,5.9,21.9,5.9z"/>
	<path fill="#B9B9B9" d="M24.8,12.5c0-0.2,0-0.4,0.1-0.5c0.1-0.2,0.2-0.3,0.3-0.4c0.3-0.2,0.5-0.4,0.8-0.4c0.2,0,0.4,0.1,0.4,0.4
		c0,0.6,0.2,1.1,0.6,1.3c0.2,0.1,0.3,0.1,0.5,0.1s0.3,0,0.4-0.1c0.1,0,0.2-0.1,0.3-0.2c0.2-0.2,0.3-0.4,0.3-0.6
		c0-0.2-0.1-0.5-0.2-0.7c-0.1-0.2-0.2-0.4-0.4-0.6l-0.5-0.7c-0.7-1-1.1-1.9-1.1-2.7c0-0.7,0.3-1.3,0.9-1.8c0.7-0.6,1.5-0.9,2.5-0.9
		c0.9,0,1.6,0.2,2.1,0.7c0.4,0.4,0.6,0.8,0.6,1.2c0,0.5-0.2,0.9-0.5,1.1c-0.3,0.3-0.7,0.3-1,0.3c-0.1,0-0.3-0.1-0.3-0.2
		c-0.1-0.1-0.1-0.3,0-0.4c0-0.2,0.1-0.3,0.1-0.5c0-0.2,0-0.3-0.1-0.5c-0.1-0.1-0.1-0.3-0.2-0.4c-0.2-0.2-0.4-0.3-0.7-0.3
		c-0.2,0-0.4,0-0.6,0.1c-0.2,0.1-0.3,0.1-0.4,0.2c-0.2,0.2-0.4,0.5-0.4,0.8s0.1,0.6,0.2,0.8c0.1,0.2,0.2,0.5,0.4,0.7
		s0.3,0.5,0.5,0.7s0.4,0.5,0.5,0.7c0.4,0.6,0.6,1.1,0.6,1.6c0,0.5-0.1,0.8-0.3,1.2s-0.4,0.6-0.8,0.8c-0.7,0.5-1.4,0.7-2.2,0.7
		c-0.8,0-1.4-0.2-1.8-0.6C25,13.3,24.8,12.9,24.8,12.5z"/>
	<path fill="#B9B9B9" d="M36.1,12.4c0.2,0,0.2,0.1,0.2,0.3c0,0.3-0.1,0.6-0.4,0.8c-0.4,0.4-0.8,0.6-1.5,0.6c-0.7,0-1.2-0.3-1.4-0.9
		C33,13.1,33,12.9,33,12.6c0-0.3,0-0.6,0.1-0.9s0.2-0.7,0.4-1.1c0.1-0.4,0.3-0.8,0.5-1.2l0.5-1.1C34.8,7.4,35,6.8,35,6.6
		c0-0.3,0-0.5-0.1-0.5s-0.1-0.2-0.2-0.2l-0.2-0.1c-0.1,0-0.1-0.1-0.1-0.2s0-0.2,0.1-0.3c0.1-0.1,0.2-0.2,0.3-0.3
		c0.3-0.1,0.6-0.2,0.9-0.2c0.9,0,1.3,0.2,1.3,0.7c0,0.5-0.1,1.2-0.4,1.9C36.4,8,36.2,8.5,36,8.9l-0.5,1.2c-0.4,0.9-0.6,1.6-0.6,2
		c0,0.3,0.1,0.4,0.4,0.4c0.3,0,0.5,0,0.6-0.1C36,12.4,36.1,12.4,36.1,12.4z M38,2.6c-0.1,0.1-0.3,0.3-0.5,0.3S37.2,3.1,37,3.1
		c-0.2,0-0.4,0-0.5-0.1c-0.2-0.1-0.3-0.2-0.4-0.3c-0.3-0.3-0.4-0.6-0.4-0.9c0-0.3,0-0.5,0.1-0.7c0.1-0.2,0.2-0.3,0.4-0.4
		c0.3-0.2,0.6-0.3,0.8-0.3s0.5,0,0.6,0.1c0.1,0,0.3,0.1,0.4,0.2c0.3,0.2,0.4,0.4,0.4,0.7c0,0.3,0,0.5-0.1,0.7S38.1,2.4,38,2.6z"/>
	<path fill="#B9B9B9" d="M40,12.6c1-0.3,1.9-0.5,2.8-0.5c0.6,0,1,0.2,1.3,0.5c0.3,0.3,0.4,0.7,0.4,1.2c0,0.1,0,0.2-0.1,0.3
		c-0.1,0.1-0.2,0.1-0.3,0.1s-0.2,0-0.4-0.1c-0.1-0.1-0.3-0.1-0.5-0.2c-1.1-0.5-2.4-0.5-3.8,0.1c-0.2,0.1-0.3,0.1-0.5,0.2
		c-0.1,0-0.3,0-0.4-0.1s-0.3-0.2-0.4-0.3c-0.3-0.3-0.5-0.6-0.4-0.9c0.1-0.3,0.3-0.6,0.5-1c0.2-0.4,0.5-0.7,0.8-1.1
		c0.3-0.3,0.6-0.7,1-1c0.9-0.9,1.6-1.5,2-1.8c0.9-0.8,1.5-1.3,1.7-1.5c0.2-0.2,0.3-0.3,0.4-0.5c-0.5,0.2-1.2,0.4-2.1,0.5
		c-0.2,0-0.4,0-0.6,0c-0.6,0-1.1-0.1-1.3-0.3s-0.4-0.6-0.4-1c0-0.2,0-0.3,0.1-0.4c0.1-0.1,0.2-0.1,0.3-0.1s0.2,0,0.4,0.1
		c0.2,0.1,0.4,0.1,0.6,0.2C42,5.2,42.6,5.3,43,5.3s0.8,0,1-0.1s0.4-0.1,0.5-0.2L45,4.9c0.1,0,0.3-0.1,0.4-0.1s0.2,0,0.3,0.1
		c0.1,0.1,0.2,0.2,0.3,0.3c0.2,0.3,0.3,0.5,0.3,0.7c0,0.2-0.1,0.5-0.4,0.9c-0.3,0.3-0.6,0.7-1,1.1s-0.8,0.8-1.3,1.1l-1.4,1.2
		C41,11.2,40.3,12,40,12.6z M39.9,12.9C39.9,12.8,39.9,12.8,39.9,12.9C39.9,12.8,39.9,12.8,39.9,12.9z"/>
	<path fill="#B9B9B9" d="M46.5,10.9c0-0.5,0.1-1,0.3-1.5c0.2-0.5,0.4-0.9,0.6-1.4s0.6-0.9,0.9-1.3c0.3-0.4,0.7-0.8,1.1-1.1
		c0.9-0.6,1.7-1,2.6-1c1,0,1.7,0.4,2.1,1.3c0.1,0.3,0.2,0.6,0.2,1s-0.1,0.8-0.2,1.1S53.6,8.7,53.3,9s-0.6,0.5-0.9,0.7
		c-0.4,0.2-0.7,0.4-1.2,0.6c-0.9,0.3-1.8,0.5-2.7,0.5c0,0.1,0,0.2,0,0.4c0,0.2,0,0.4,0.1,0.6c0,0.2,0.1,0.4,0.2,0.6
		c0.2,0.4,0.5,0.5,0.9,0.5c0.7,0,1.4-0.2,2-0.6c0.2-0.1,0.4-0.3,0.6-0.4c0.1-0.1,0.3-0.2,0.4-0.2s0.2,0.1,0.3,0.2
		c0.1,0.1,0.1,0.3,0.1,0.4c0,0.3-0.1,0.6-0.3,0.8c-0.8,0.8-1.9,1.1-3.4,1.1c-0.9,0-1.6-0.3-2.1-0.8C46.7,12.8,46.4,11.9,46.5,10.9z
		 M51.7,5.9c-0.6,0-1.2,0.4-1.8,1.3C49.4,8,49,8.8,48.7,9.9c1-0.1,1.9-0.5,2.6-1.2c0.7-0.7,1-1.3,1-1.9C52.4,6.2,52.2,5.9,51.7,5.9z
		"/>
	<path fill="#B9B9B9" d="M60.9,10.9c0-0.5,0.1-1,0.3-1.5c0.2-0.5,0.4-0.9,0.6-1.4s0.6-0.9,0.9-1.3C63,6.3,63.4,6,63.8,5.7
		c0.9-0.6,1.7-1,2.6-1c1,0,1.7,0.4,2.1,1.3c0.1,0.3,0.2,0.6,0.2,1s-0.1,0.8-0.2,1.1S68,8.7,67.8,9s-0.6,0.5-0.9,0.7
		c-0.4,0.2-0.7,0.4-1.2,0.6c-0.9,0.3-1.8,0.5-2.7,0.5c0,0.1,0,0.2,0,0.4c0,0.2,0,0.4,0.1,0.6c0,0.2,0.1,0.4,0.2,0.6
		c0.2,0.4,0.5,0.5,0.9,0.5c0.7,0,1.4-0.2,2-0.6c0.2-0.1,0.4-0.3,0.6-0.4c0.1-0.1,0.3-0.2,0.4-0.2s0.2,0.1,0.3,0.2
		c0.1,0.1,0.1,0.3,0.1,0.4c0,0.3-0.1,0.6-0.3,0.8c-0.8,0.8-1.9,1.1-3.4,1.1c-0.9,0-1.6-0.3-2.1-0.8C61.1,12.8,60.8,11.9,60.9,10.9z
		 M66.2,5.9c-0.6,0-1.2,0.4-1.8,1.3c-0.5,0.7-0.9,1.6-1.2,2.7c1-0.1,1.9-0.5,2.6-1.2c0.7-0.7,1-1.3,1-1.9
		C66.8,6.2,66.6,5.9,66.2,5.9z"/>
	<path fill="#B9B9B9" d="M69.6,13.2c-0.1-0.2-0.1-0.4-0.1-0.7c0-0.3,0-0.6,0.1-0.9s0.2-0.7,0.3-1c0.1-0.3,0.3-0.7,0.4-1l0.5-1
		c0.6-1.4,0.8-2.2,0.7-2.4c-0.1-0.1-0.2-0.2-0.4-0.3c-0.1,0-0.1-0.1-0.1-0.2s0-0.2,0.1-0.3c0.1-0.1,0.2-0.2,0.3-0.3
		c0.3-0.1,0.6-0.2,0.9-0.2s0.5,0,0.7,0.1c0.2,0.1,0.3,0.1,0.4,0.2c0.2,0.2,0.3,0.4,0.3,0.7s-0.1,0.6-0.2,1c-0.1,0.4-0.2,0.7-0.4,1.1
		c-0.2,0.4-0.3,0.8-0.5,1.2L72,10.2c-0.4,0.9-0.6,1.5-0.6,1.7c0,0.6,0.2,0.8,0.6,0.8c1,0,2-0.6,2.8-1.8c0.5-0.7,0.9-1.4,1.1-2.3
		c0.1-0.4,0.2-0.7,0.2-1.1c0-0.3,0-0.6,0-0.8S76,6.5,76,6.3c-0.1-0.3-0.2-0.5-0.4-0.8c-0.1-0.2-0.1-0.3,0.2-0.6
		c0.3-0.2,0.6-0.3,1.1-0.3c0.3,0,0.6,0.1,0.8,0.4c0.3,0.3,0.4,0.8,0.4,1.5c0,0.6-0.1,1.2-0.3,1.9s-0.4,1.2-0.8,1.7s-0.7,1.1-1.2,1.6
		c-0.4,0.5-0.9,0.9-1.4,1.3c-1.1,0.8-2.2,1.2-3.3,1.2C70.4,14.2,69.9,13.8,69.6,13.2z"/>
	<path fill="#B9B9B9" d="M79.1,10.9c0-0.5,0.1-1,0.3-1.5C79.5,8.9,79.7,8.4,80,8s0.6-0.9,0.9-1.3c0.3-0.4,0.7-0.8,1.1-1.1
		c0.9-0.6,1.7-1,2.6-1c1,0,1.7,0.4,2.1,1.3c0.1,0.3,0.2,0.6,0.2,1s-0.1,0.8-0.2,1.1S86.2,8.7,86,9s-0.6,0.5-0.9,0.7
		c-0.4,0.2-0.7,0.4-1.2,0.6c-0.9,0.3-1.8,0.5-2.7,0.5c0,0.1,0,0.2,0,0.4c0,0.2,0,0.4,0.1,0.6c0,0.2,0.1,0.4,0.2,0.6
		c0.2,0.4,0.5,0.5,0.9,0.5c0.7,0,1.4-0.2,2-0.6c0.2-0.1,0.4-0.3,0.6-0.4c0.1-0.1,0.3-0.2,0.4-0.2s0.2,0.1,0.3,0.2
		c0.1,0.1,0.1,0.3,0.1,0.4c0,0.3-0.1,0.6-0.3,0.8c-0.8,0.8-1.9,1.1-3.4,1.1c-0.9,0-1.6-0.3-2.1-0.8C79.3,12.8,79,11.9,79.1,10.9z
		 M84.4,5.9c-0.6,0-1.2,0.4-1.8,1.3C82,8,81.6,8.8,81.3,9.9c1-0.1,1.9-0.5,2.6-1.2c0.7-0.7,1-1.3,1-1.9C85,6.2,84.8,5.9,84.4,5.9z"
		/>
	<path fill="#B9B9B9" d="M94.2,6.4c-0.2,0-0.5,0.2-0.8,0.5c-0.3,0.4-0.6,0.7-0.9,1l-0.8,0.9l-1.5,1.9c-0.3,0.7-0.6,1.2-0.8,1.7
		l-0.5,1c-0.1,0.3-0.2,0.4-0.3,0.5c-0.1,0.1-0.2,0.2-0.4,0.2c-0.2,0-0.3,0-0.5-0.1c-0.1-0.1-0.3-0.1-0.4-0.2
		c-0.2-0.2-0.3-0.4-0.3-0.6c0-0.1,0.1-0.3,0.2-0.5l0.3-0.7c0.1-0.2,0.2-0.5,0.4-0.8l0.5-1.2c0.7-1.8,1.1-2.9,1.1-3.4
		c0-0.3-0.1-0.5-0.3-0.6l-0.2-0.1c-0.1,0-0.1-0.1-0.1-0.2s0-0.2,0.1-0.3c0.1-0.1,0.2-0.2,0.3-0.3c0.3-0.1,0.5-0.2,0.8-0.2
		c0.3,0,0.5,0,0.6,0.1c0.2,0.1,0.3,0.1,0.4,0.2c0.2,0.2,0.3,0.4,0.3,0.7c0,0.2,0,0.5-0.1,0.7c-0.1,0.2-0.1,0.5-0.2,0.7
		s-0.2,0.5-0.3,0.7C91,8,90.9,8.2,90.8,8.4l-0.2,0.4c0,0.1-0.1,0.1,0,0.1c0.7-0.9,1.1-1.5,1.3-1.8l0.6-0.8c0.5-0.5,0.8-0.9,1.1-1.1
		c0.5-0.4,1-0.5,1.3-0.5c0.3,0,0.6,0,0.8,0.1c0.2,0.1,0.4,0.2,0.6,0.3c0.3,0.3,0.5,0.7,0.5,1.2c0,0.5-0.1,1-0.3,1.5
		c-0.2,0.5-0.4,0.9-0.6,1.3c-0.2,0.3-0.3,0.6-0.5,1c-0.5,1-0.7,1.7-0.7,2.2c0,0.2,0.2,0.3,0.5,0.3c0.3,0,0.5-0.1,0.7-0.2
		c0.2-0.1,0.3-0.2,0.4-0.2c0.1,0,0.2,0.1,0.2,0.2c0,0.5-0.3,1-0.8,1.3c-0.4,0.2-0.7,0.4-1,0.4c-0.3,0-0.6,0-0.8-0.1
		c-0.2-0.1-0.4-0.2-0.5-0.3c-0.4-0.3-0.5-0.8-0.5-1.3c0-0.7,0.2-1.6,0.7-2.6c0.3-0.7,0.5-1.2,0.7-1.5l0.3-0.6
		c0.2-0.4,0.3-0.7,0.3-0.9S94.6,6.4,94.2,6.4z"/>
	<path fill="#B9B9B9" d="M103.4,11.7c0.2,0,0.3,0.1,0.3,0.4c0,0.2-0.1,0.4-0.2,0.6c-0.2,0.3-0.5,0.7-1,1c-0.6,0.4-1.1,0.5-1.7,0.5
		c-1,0-1.6-0.4-1.8-1.3c-0.3-1,0.2-3.2,1.4-6.6c-0.7-0.1-1.1-0.2-1.1-0.4c0-0.1,0-0.1,0-0.2c0-0.1,0-0.1,0.1-0.2
		c0.1-0.1,0.1-0.2,0.2-0.2c0.2-0.2,0.4-0.3,0.6-0.3h0.7c0.7-1.5,1.1-2.4,1.4-2.6c0.1-0.1,0.3-0.1,0.4-0.1c0.2,0,0.3,0,0.4,0.1
		c0.1,0,0.2,0.1,0.3,0.2c0.2,0.2,0.3,0.4,0.3,0.6c0,0.1,0,0.3-0.1,0.4L102.9,5h0.2c0.4,0,0.7,0,0.9,0l0.5,0c0.1,0,0.3,0,0.4,0
		s0.3,0.1,0.3,0.2c0,0.8-0.9,1.2-2.8,1.2h-0.1l-0.6,1.6c-0.7,1.9-1,3.2-1,4c0,0.2,0,0.4,0.1,0.5c0.1,0.1,0.3,0.2,0.5,0.2
		c0.3,0,0.5,0,0.7-0.1c0.2-0.1,0.4-0.2,0.6-0.3c0.2-0.1,0.3-0.2,0.4-0.3S103.3,11.7,103.4,11.7z"/>
</g>
<g>
	<path fill="#8F8F8F" d="M139.9,61.3c0.2,0,0.4,0,0.6,0s0.4-0.1,0.5-0.1v0.9c-0.1,0.1-0.3,0.1-0.6,0.2c-0.3,0-0.5,0.1-0.7,0.1
		c-1.6,0-2.3-0.8-2.3-2.5v-4.8h-1.1v-0.6l1.1-0.5l0.5-1.7h0.7v1.9h2.3v0.9h-2.3v4.7c0,0.5,0.1,0.9,0.3,1.1S139.5,61.3,139.9,61.3z"
		/>
	<path fill="#8F8F8F" d="M149.6,58.1c0,1.3-0.3,2.3-1,3.1c-0.7,0.7-1.6,1.1-2.7,1.1c-0.7,0-1.4-0.2-1.9-0.5s-1-0.8-1.3-1.5
		s-0.5-1.4-0.5-2.2c0-1.3,0.3-2.3,1-3.1c0.7-0.7,1.6-1.1,2.7-1.1c1.1,0,2,0.4,2.7,1.1C149.2,55.8,149.6,56.9,149.6,58.1z
		 M143.4,58.1c0,1,0.2,1.8,0.6,2.3s1,0.8,1.8,0.8s1.4-0.3,1.8-0.8c0.4-0.5,0.6-1.3,0.6-2.3c0-1-0.2-1.8-0.6-2.3
		c-0.4-0.5-1-0.8-1.8-0.8c-0.8,0-1.4,0.3-1.8,0.8S143.4,57.1,143.4,58.1z"/>
	<path fill="#8F8F8F" d="M155.4,62.3c-0.5,0-1-0.1-1.4-0.3c-0.4-0.2-0.8-0.5-1.1-0.9h-0.1c0.1,0.5,0.1,0.9,0.1,1.3v3.3h-1.2V54.1h1
		l0.2,1.1h0.1c0.3-0.4,0.7-0.8,1.1-1s0.9-0.3,1.4-0.3c1.1,0,1.9,0.4,2.5,1.1c0.6,0.7,0.9,1.7,0.9,3.1c0,1.3-0.3,2.3-0.9,3.1
		C157.3,61.9,156.5,62.3,155.4,62.3z M155.2,55c-0.8,0-1.4,0.2-1.8,0.7s-0.6,1.2-0.6,2.2v0.3c0,1.1,0.2,1.9,0.6,2.4
		c0.4,0.5,1,0.7,1.8,0.7c0.7,0,1.2-0.3,1.6-0.8c0.4-0.6,0.6-1.3,0.6-2.3c0-1-0.2-1.8-0.6-2.3C156.5,55.3,156,55,155.2,55z"/>
</g>
<g>
	<path fill="#8F8F8F" d="M252,176c0.4,0,0.7,0,1,0.1l-0.2,1.1c-0.3-0.1-0.6-0.1-0.9-0.1c-0.6,0-1.2,0.3-1.7,0.8
		c-0.5,0.5-0.7,1.2-0.7,2v4.3h-1.2v-8h1l0.1,1.5h0.1c0.3-0.5,0.7-0.9,1.1-1.2S251.5,176,252,176z"/>
	<path fill="#8F8F8F" d="M254.4,173.9c0-0.3,0.1-0.5,0.2-0.6c0.1-0.1,0.3-0.2,0.5-0.2c0.2,0,0.4,0.1,0.5,0.2s0.2,0.3,0.2,0.6
		s-0.1,0.5-0.2,0.6c-0.1,0.1-0.3,0.2-0.5,0.2c-0.2,0-0.4-0.1-0.5-0.2C254.4,174.4,254.4,174.2,254.4,173.9z M255.7,184.1h-1.2v-8
		h1.2V184.1z"/>
	<path fill="#8F8F8F" d="M264.8,176.1v0.8l-1.5,0.2c0.1,0.2,0.3,0.4,0.4,0.7c0.1,0.3,0.2,0.6,0.2,0.9c0,0.8-0.3,1.4-0.8,1.9
		s-1.3,0.7-2.2,0.7c-0.2,0-0.5,0-0.7-0.1c-0.5,0.3-0.8,0.6-0.8,1c0,0.2,0.1,0.4,0.3,0.5c0.2,0.1,0.5,0.2,0.9,0.2h1.4
		c0.9,0,1.5,0.2,2,0.5c0.5,0.4,0.7,0.9,0.7,1.6c0,0.9-0.4,1.6-1.1,2c-0.7,0.5-1.8,0.7-3.1,0.7c-1,0-1.9-0.2-2.4-0.6
		c-0.6-0.4-0.9-0.9-0.9-1.7c0-0.5,0.2-0.9,0.5-1.3s0.8-0.6,1.3-0.7c-0.2-0.1-0.4-0.2-0.5-0.4c-0.1-0.2-0.2-0.4-0.2-0.7
		c0-0.3,0.1-0.5,0.2-0.8s0.4-0.4,0.7-0.6c-0.4-0.2-0.8-0.5-1-0.9c-0.3-0.4-0.4-0.9-0.4-1.4c0-0.9,0.3-1.6,0.8-2
		c0.5-0.5,1.3-0.7,2.2-0.7c0.4,0,0.8,0,1.1,0.1H264.8z M258.4,185.5c0,0.4,0.2,0.8,0.5,1s0.9,0.3,1.6,0.3c1,0,1.8-0.2,2.3-0.5
		c0.5-0.3,0.7-0.7,0.7-1.2c0-0.4-0.1-0.7-0.4-0.9c-0.3-0.2-0.8-0.3-1.5-0.3h-1.5c-0.6,0-1,0.1-1.3,0.4S258.4,185,258.4,185.5z
		 M259.1,178.7c0,0.6,0.2,1,0.5,1.3s0.8,0.4,1.3,0.4c1.2,0,1.8-0.6,1.8-1.7c0-1.2-0.6-1.8-1.8-1.8c-0.6,0-1,0.2-1.3,0.5
		S259.1,178.1,259.1,178.7z"/>
	<path fill="#8F8F8F" d="M272,184.1V179c0-0.7-0.1-1.1-0.4-1.5s-0.8-0.5-1.4-0.5c-0.8,0-1.5,0.2-1.8,0.7c-0.4,0.5-0.6,1.2-0.6,2.3
		v4.2h-1.2v-11.4h1.2v3.4c0,0.4,0,0.8-0.1,1h0.1c0.2-0.4,0.6-0.7,1-0.9c0.4-0.2,0.9-0.3,1.5-0.3c1,0,1.7,0.2,2.2,0.7
		c0.5,0.5,0.7,1.2,0.7,2.2v5.2H272z"/>
	<path fill="#8F8F8F" d="M278.3,183.3c0.2,0,0.4,0,0.6,0c0.2,0,0.4-0.1,0.5-0.1v0.9c-0.1,0.1-0.3,0.1-0.6,0.2
		c-0.3,0-0.5,0.1-0.7,0.1c-1.6,0-2.3-0.8-2.3-2.5v-4.8h-1.1v-0.6l1.1-0.5l0.5-1.7h0.7v1.9h2.3v0.9H277v4.7c0,0.5,0.1,0.9,0.3,1.1
		S277.9,183.3,278.3,183.3z"/>
</g>
<g>
	<path fill="#8F8F8F" d="M26.1,184.1h-1.2v-11.4h1.2V184.1z"/>
	<path fill="#8F8F8F" d="M32,184.3c-1.2,0-2.1-0.4-2.8-1.1s-1-1.7-1-3c0-1.3,0.3-2.3,1-3.1c0.6-0.8,1.5-1.1,2.6-1.1
		c1,0,1.8,0.3,2.4,1c0.6,0.7,0.9,1.5,0.9,2.6v0.8h-5.5c0,0.9,0.3,1.7,0.7,2.1c0.5,0.5,1.1,0.7,1.9,0.7c0.9,0,1.7-0.2,2.6-0.5v1.1
		c-0.4,0.2-0.8,0.3-1.2,0.4C33,184.3,32.6,184.3,32,184.3z M31.7,177c-0.6,0-1.2,0.2-1.5,0.6s-0.6,1-0.7,1.7h4.2
		c0-0.8-0.2-1.4-0.5-1.8C32.8,177.2,32.3,177,31.7,177z"/>
	<path fill="#8F8F8F" d="M40.7,177.1h-2v7.1h-1.2v-7.1H36v-0.5l1.4-0.4v-0.4c0-2,0.9-3,2.6-3c0.4,0,0.9,0.1,1.5,0.3l-0.3,1
		c-0.5-0.2-0.9-0.2-1.2-0.2c-0.5,0-0.8,0.2-1,0.5c-0.2,0.3-0.3,0.8-0.3,1.5v0.5h2V177.1z"/>
	<path fill="#8F8F8F" d="M44.7,183.3c0.2,0,0.4,0,0.6,0c0.2,0,0.4-0.1,0.5-0.1v0.9c-0.1,0.1-0.3,0.1-0.6,0.2c-0.3,0-0.5,0.1-0.7,0.1
		c-1.6,0-2.3-0.8-2.3-2.5v-4.8h-1.1v-0.6l1.1-0.5l0.5-1.7h0.7v1.9h2.3v0.9h-2.3v4.7c0,0.5,0.1,0.9,0.3,1.1S44.3,183.3,44.7,183.3z"
		/>
</g>
<g>
	<path fill="#8F8F8F" d="M127.1,285c1.1,0,1.9,0.4,2.5,1.1c0.6,0.7,0.9,1.7,0.9,3.1s-0.3,2.3-0.9,3.1c-0.6,0.7-1.4,1.1-2.5,1.1
		c-0.5,0-1-0.1-1.4-0.3c-0.4-0.2-0.8-0.5-1.1-0.9h-0.1l-0.3,1h-0.9v-11.4h1.2v2.8c0,0.6,0,1.2-0.1,1.7h0.1
		C125.1,285.4,126,285,127.1,285z M126.9,286c-0.8,0-1.4,0.2-1.8,0.7c-0.4,0.5-0.5,1.3-0.5,2.4s0.2,1.9,0.6,2.4
		c0.4,0.5,1,0.7,1.8,0.7c0.7,0,1.3-0.3,1.7-0.8c0.4-0.5,0.5-1.3,0.5-2.3c0-1-0.2-1.8-0.5-2.3S127.7,286,126.9,286z"/>
	<path fill="#8F8F8F" d="M139.5,289.1c0,1.3-0.3,2.3-1,3.1c-0.7,0.7-1.6,1.1-2.7,1.1c-0.7,0-1.4-0.2-1.9-0.5s-1-0.8-1.3-1.5
		s-0.5-1.4-0.5-2.2c0-1.3,0.3-2.3,1-3.1c0.7-0.7,1.6-1.1,2.7-1.1c1.1,0,2,0.4,2.7,1.1C139.1,286.8,139.5,287.8,139.5,289.1z
		 M133.3,289.1c0,1,0.2,1.8,0.6,2.3s1,0.8,1.8,0.8s1.4-0.3,1.8-0.8c0.4-0.5,0.6-1.3,0.6-2.3c0-1-0.2-1.8-0.6-2.3
		c-0.4-0.5-1-0.8-1.8-0.8c-0.8,0-1.4,0.3-1.8,0.8S133.3,288.1,133.3,289.1z"/>
	<path fill="#8F8F8F" d="M144.2,292.3c0.2,0,0.4,0,0.6,0c0.2,0,0.4-0.1,0.5-0.1v0.9c-0.1,0.1-0.3,0.1-0.6,0.2
		c-0.3,0-0.5,0.1-0.7,0.1c-1.6,0-2.3-0.8-2.3-2.5v-4.8h-1.2v-0.6l1.2-0.5l0.5-1.7h0.7v1.9h2.3v0.9h-2.3v4.7c0,0.5,0.1,0.9,0.3,1.1
		S143.8,292.3,144.2,292.3z"/>
	<path fill="#8F8F8F" d="M149.5,292.3c0.2,0,0.4,0,0.6,0c0.2,0,0.4-0.1,0.5-0.1v0.9c-0.1,0.1-0.3,0.1-0.6,0.2
		c-0.3,0-0.5,0.1-0.7,0.1c-1.6,0-2.3-0.8-2.3-2.5v-4.8h-1.1v-0.6l1.1-0.5l0.5-1.7h0.7v1.9h2.3v0.9h-2.3v4.7c0,0.5,0.1,0.9,0.3,1.1
		S149.1,292.3,149.5,292.3z"/>
	<path fill="#8F8F8F" d="M159.1,289.1c0,1.3-0.3,2.3-1,3.1c-0.7,0.7-1.6,1.1-2.7,1.1c-0.7,0-1.4-0.2-1.9-0.5s-1-0.8-1.3-1.5
		s-0.5-1.4-0.5-2.2c0-1.3,0.3-2.3,1-3.1c0.7-0.7,1.6-1.1,2.7-1.1c1.1,0,2,0.4,2.7,1.1C158.8,286.8,159.1,287.8,159.1,289.1z
		 M153,289.1c0,1,0.2,1.8,0.6,2.3s1,0.8,1.8,0.8s1.4-0.3,1.8-0.8c0.4-0.5,0.6-1.3,0.6-2.3c0-1-0.2-1.8-0.6-2.3
		c-0.4-0.5-1-0.8-1.8-0.8c-0.8,0-1.4,0.3-1.8,0.8S153,288.1,153,289.1z"/>
	<path fill="#8F8F8F" d="M171.5,293.1v-5.2c0-0.6-0.1-1.1-0.4-1.4c-0.3-0.3-0.7-0.5-1.3-0.5c-0.8,0-1.3,0.2-1.7,0.7s-0.5,1.1-0.5,2
		v4.5h-1.2v-5.2c0-0.6-0.1-1.1-0.4-1.4c-0.3-0.3-0.7-0.5-1.3-0.5c-0.8,0-1.3,0.2-1.7,0.7c-0.4,0.5-0.5,1.2-0.5,2.2v4.2h-1.2v-8h1
		l0.2,1.1h0.1c0.2-0.4,0.6-0.7,1-0.9c0.4-0.2,0.9-0.3,1.4-0.3c1.3,0,2.1,0.5,2.5,1.4h0.1c0.2-0.4,0.6-0.8,1-1s1-0.4,1.6-0.4
		c0.9,0,1.6,0.2,2,0.7c0.5,0.5,0.7,1.2,0.7,2.2v5.2H171.5z"/>
</g>
<g>
	<g>
		<path fill="#F2F2F2" d="M297,25h-12v2h10v11.5h2V25L297,25z M280,25h-12v2h12V25L280,25z M263,25h-12v2h12V25L263,25z M246,25h-12
			v2h12V25L246,25z M229,25h-12v2h12V25L229,25z M212,25h-12v2h12V25L212,25z M195,25h-12v2h12V25L195,25z M178,25h-12v2h12V25
			L178,25z M161,25h-12v2h12V25L161,25z M144,25h-12v2h12V25L144,25z M127,25h-12v2h12V25L127,25z M110,25H98v2h12V25L110,25z
			 M93,25H81v2h12V25L93,25z M76,25H64v2h12V25L76,25z M59,25H47v2h12V25L59,25z M42,25H30v2h12V25L42,25z M25,25H13v2h12V25L25,25z
			 M8,25H0v2l0,0c0,1,0,2,0,2h2v-2h6V25L8,25z M2,34.1H0v12h2V34.1L2,34.1z M2,51.1H0v12h2V51.1L2,51.1z M2,68.1H0v12h2V68.1L2,68.1
			z M2,85.1H0v12h2V85.1L2,85.1z M2,102.1H0v12h2V102.1L2,102.1z M2,119.1H0v12h2V119.1L2,119.1z M2,136.1H0v12h2V136.1L2,136.1z
			 M2,153.1H0v12h2V153.1L2,153.1z M2,170.1H0v12h2V170.1L2,170.1z M2,187.1H0v12h2V187.1L2,187.1z M2,204.1H0v12h2V204.1L2,204.1z
			 M2,221.1H0v12h2V221.1L2,221.1z M2,238.1H0v12h2V238.1L2,238.1z M2,255.1H0v12h2V255.1L2,255.1z M2,272.1H0v12h2V272.1L2,272.1z
			 M2,289.1H0v12h2V289.1L2,289.1z M2,306.1H0v12h2V306.1L2,306.1z M13.7,319.3h-12v2h12V319.3L13.7,319.3z M30.7,319.3h-12v2h12
			V319.3L30.7,319.3z M47.7,319.3h-12v2h12V319.3L47.7,319.3z M64.7,319.3h-12v2h12V319.3L64.7,319.3z M81.7,319.3h-12v2h12V319.3
			L81.7,319.3z M98.7,319.3h-12v2h12V319.3L98.7,319.3z M115.7,319.3h-12v2h12V319.3L115.7,319.3z M132.7,319.3h-12v2h12V319.3
			L132.7,319.3z M149.7,319.3h-12v2h12V319.3L149.7,319.3z M166.7,319.3h-12v2h12V319.3L166.7,319.3z M183.7,319.3h-12v2h12V319.3
			L183.7,319.3z M200.7,319.3h-12v2h12V319.3L200.7,319.3z M217.7,319.3h-12v2h12V319.3L217.7,319.3z M234.7,319.3h-12v2h12V319.3
			L234.7,319.3z M251.7,319.3h-12v2h12V319.3L251.7,319.3z M268.7,319.3h-12v2h12V319.3L268.7,319.3z M285.7,319.3h-12v2h12V319.3
			L285.7,319.3z M297,315.5h-2v3.8h-4.2v2h6.2V315.5L297,315.5z M297,298.5h-2v12h2V298.5L297,298.5z M297,281.5h-2v12h2V281.5
			L297,281.5z M297,264.5h-2v12h2V264.5L297,264.5z M297,247.5h-2v12h2V247.5L297,247.5z M297,230.5h-2v12h2V230.5L297,230.5z
			 M297,213.5h-2v12h2V213.5L297,213.5z M297,196.5h-2v12h2V196.5L297,196.5z M297,179.5h-2v12h2V179.5L297,179.5z M297,162.5h-2v12
			h2V162.5L297,162.5z M297,145.5h-2v12h2V145.5L297,145.5z M297,128.5h-2v12h2V128.5L297,128.5z M297,111.5h-2v12h2V111.5
			L297,111.5z M297,94.5h-2v12h2V94.5L297,94.5z M297,77.5h-2v12h2V77.5L297,77.5z M297,60.5h-2v12h2V60.5L297,60.5z M297,43.5h-2
			v12h2V43.5L297,43.5z"/>
	</g>
</g>
<line fill="none" stroke="#36CC89" stroke-width="2" stroke-miterlimit="10" x1="147.4" y1="32.1" x2="147.4" y2="47.9"/>
<line fill="none" stroke="#36CC89" stroke-width="2" stroke-miterlimit="10" x1="147.4" y1="70.1" x2="147.4" y2="85.9"/>
<line fill="none" stroke="#36CC89" stroke-width="2" stroke-miterlimit="10" x1="147.5" y1="262.1" x2="147.5" y2="277.9"/>
<line fill="none" stroke="#36CC89" stroke-width="2" stroke-miterlimit="10" x1="147.5" y1="299.1" x2="147.5" y2="314.9"/>
<line fill="none" stroke="#36CC89" stroke-width="2" stroke-miterlimit="10" x1="242.4" y1="180.2" x2="235.8" y2="180.2"/>
<line fill="none" stroke="#36CC89" stroke-width="2" stroke-miterlimit="10" x1="291" y1="180.2" x2="284.7" y2="180.2"/>
<line fill="none" stroke="#36CC89" stroke-width="2" stroke-miterlimit="10" x1="17.1" y1="180.2" x2="7.8" y2="180.2"/>
<line fill="none" stroke="#36CC89" stroke-width="2" stroke-miterlimit="10" x1="60" y1="180.2" x2="50.6" y2="180.2"/>
<g>
	
		<circle fill="none" stroke="#36CC89" stroke-width="4" stroke-miterlimit="10" stroke-dasharray="15.7562,7.8781" cx="148.5" cy="174.1" r="82.8"/>
</g>
</svg>
