<?xml version="1.0" encoding="utf-8"?>
<!-- Generator: Adobe Illustrator 18.0.0, SVG Export Plug-In . SVG Version: 6.00 Build 0)  -->
<!DOCTYPE svg PUBLIC "-//W3C//DTD SVG 1.1//EN" "http://www.w3.org/Graphics/SVG/1.1/DTD/svg11.dtd">
<svg version="1.1" id="Layer_1" xmlns="http://www.w3.org/2000/svg" xmlns:xlink="http://www.w3.org/1999/xlink" x="0px" y="0px"
	 width="16px" height="16px" viewBox="0 0 16 16" enable-background="new 0 0 16 16" xml:space="preserve">
<g>
	<path fill="#FFFFFF" d="M7.3,12.2l-0.4-0.4c-0.1-0.1-0.2-0.3-0.2-0.5s0.1-0.4,0.2-0.5l1.6-1.6H4.6c-0.4,0-0.6-0.3-0.6-0.7V7.8
		c0-0.4,0.2-0.7,0.6-0.7h3.9L6.9,5.4C6.7,5.3,6.6,5.1,6.6,4.9s0.1-0.4,0.2-0.5L7.3,4c0.1-0.1,0.3-0.2,0.5-0.2S8.1,3.9,8.3,4l3.6,3.6
		c0.1,0.1,0.2,0.3,0.2,0.5c0,0.2-0.1,0.4-0.2,0.5l-3.6,3.6c-0.1,0.1-0.3,0.2-0.5,0.2S7.4,12.4,7.3,12.2z"/>
</g>
</svg>
