<?xml version="1.0" encoding="utf-8"?>
<!-- Generator: Adobe Illustrator 18.0.0, SVG Export Plug-In . SVG Version: 6.00 Build 0)  -->
<!DOCTYPE svg PUBLIC "-//W3C//DTD SVG 1.1//EN" "http://www.w3.org/Graphics/SVG/1.1/DTD/svg11.dtd">
<svg version="1.1" id="Layer_1" xmlns="http://www.w3.org/2000/svg" xmlns:xlink="http://www.w3.org/1999/xlink" x="0px" y="0px"
	 width="16px" height="16px" viewBox="0 0 16 16" enable-background="new 0 0 16 16" xml:space="preserve">
<g>
	<path fill="#FFFFFF" d="M12.1,8.9l-0.4,0.4c-0.1,0.1-0.3,0.2-0.5,0.2s-0.4-0.1-0.5-0.2L9.1,7.7v3.9c0,0.4-0.3,0.6-0.7,0.6H7.6
		c-0.4,0-0.7-0.2-0.7-0.6V7.7L5.3,9.3C5.2,9.4,5,9.5,4.8,9.5S4.4,9.4,4.3,9.3L3.9,8.9C3.8,8.7,3.7,8.6,3.7,8.4
		c0-0.2,0.1-0.4,0.2-0.5l3.6-3.6C7.6,4.1,7.8,4.1,8,4.1c0.2,0,0.4,0.1,0.5,0.2l3.6,3.6c0.1,0.1,0.2,0.3,0.2,0.5
		C12.3,8.6,12.2,8.7,12.1,8.9z"/>
</g>
</svg>
