<svg xmlns="http://www.w3.org/2000/svg" width="340.5" height="284.6"><path fill="#F4F1E6" d="M3.2 57.6c.3 2.1 1 3.4 2.4 5 1.1 1.3 2.8.4 3.3-.9 1-2.4 1.9-4.7 2.9-7.1-1.3-.2-2.6-.4-3.9-.5 0 2 .1 4.1.1 6.1 0 2.1 2.6 2.5 3.7 1 2.3-3.1 4.5-6.3 6.5-9.6-1.2-.3-2.5-.7-3.7-1-.4 4.4-1.4 8.5-3.3 12.6-1.1 2.3 2.1 4.3 3.5 2l12-19.5c1.4-2.2-2.1-4.2-3.5-2-5.6 9-9.6 18.7-12.1 29-.5 2.2 2.6 3.6 3.7 1.5C20.9 62.6 27.1 51 33.2 39.4c-1.2-.2-2.4-.3-3.7-.5.9 5.8-1.8 11.1-4.1 16.2l-7.2 15.6c-1.1 2.4 1.9 4.1 3.5 2 7.2-10 14.4-20 21.6-30.1-1.2-.3-2.5-.7-3.7-1-.1 6.2-4.1 12.1-6.8 17.6-2.5 5-4.9 10.1-7.4 15.1-1.1 2.3 2 4.2 3.5 2l17.7-27c-1.2-.7-2.3-1.3-3.5-2-2.7 6-5.3 12-8 18-.9 2 1.4 4.1 3.1 2.4C44.4 62 48 54.6 51.4 47c-1.2-.5-2.4-1-3.7-1.5-3 8.8-6 17.6-9.1 26.4-.7 2.1 2.7 3.6 3.7 1.5 4.9-10.1 9.8-20.1 14.7-30.2h-3.5c2.3 3.6-1.5 10.1-2.8 13.6-1.5 4.2-3 8.4-4.6 12.6-.8 2.3 2.4 3.3 3.7 1.5 5.7-8.2 11.1-16.5 16.4-25-1.2-.5-2.4-1-3.7-1.5-2.7 9.3-6.1 18.3-10.1 27.1-1.1 2.3 2 4.1 3.5 2C63 63.4 69.7 53 76.1 42.4c-1.2-.5-2.4-1-3.7-1.5-2.2 6.1-4.4 12.3-6.6 18.4-1.3 3.5-4.1 7.9-.4 10.6.9.7 2.2.1 2.7-.7 5.3-8.6 10.6-17.2 16-25.7-1.2-.7-2.3-1.3-3.5-2-4.3 9.8-8.6 19.7-13 29.5-.8 1.9 1.6 4.4 3.1 2.4C79 63.2 87 53 95.1 42.8h-2.8c1.6 1.8-3.1 11-3.9 13-1.7 4.7-3.4 9.4-5.1 14-.8 2.1 2.6 3.5 3.7 1.5l14.7-27.6c-1.2-.5-2.4-1-3.7-1.5-3.2 8.5-6.5 17-9.7 25.6-.9 2.3 2.4 3.2 3.7 1.5 6.3-8.4 12.5-16.8 18.8-25.2-1.2-.5-2.4-1-3.7-1.5-2.6 9.7-6.4 19-11.4 27.7-1.3 2.3 2 4.2 3.5 2 6.2-9.4 12.4-18.7 18.6-28.1-1.2-.5-2.4-1-3.7-1.5-2.1 8.7-4.9 17.2-8.5 25.4-1 2.3 2.1 4.3 3.5 2 5.3-9.1 10.5-18.3 15.8-27.4-1.2-.3-2.5-.7-3.7-1 .4 10.4-7.2 18.9-9.4 28.7-.5 2.3 2.3 3.3 3.7 1.5 6.6-9 13.3-18.1 19.9-27.1-1.2-.7-2.3-1.3-3.5-2L119 69.5c-1.1 2.4 1.9 4 3.5 2 6.7-8.8 13.4-17.6 20.1-26.3-1.2-.5-2.4-1-3.7-1.5-1.2 7.1-3.6 13.7-7.3 19.9-1.3 2.2 2 4.1 3.5 2 5.3-7.8 10.5-15.6 15.8-23.4-1.2-.5-2.4-1-3.7-1.5-3.6 12.2-8.8 23.8-15.4 34.7-1.2 1.9 1.7 4.2 3.1 2.4 8.8-10.5 15.2-22.6 21.4-34.7-1.2-.3-2.5-.7-3.7-1-.9 7.4-3.2 14.3-6.9 20.8-1.1 1.9 1.7 4.2 3.1 2.4 5.9-7.3 11.1-15.2 15.5-23.5-1.2-.3-2.5-.7-3.7-1 .8 9.4-7 16.7-8.8 25.6-.4 1.8 1.9 3.5 3.3 1.9 7.5-8.3 14.2-17.2 20-26.7-1.2-.2-2.4-.3-3.7-.5 1.7 5.7-2.9 12.1-5.3 17-2.2 4.5-4.5 8.9-6.8 13.4-1.2 2.3 2 4.1 3.5 2 5.5-8.1 11.1-16.3 16.6-24.4-1.2-.7-2.3-1.3-3.5-2-4.4 8.3-7.8 17-10.2 26-.6 2.3 2.4 3.3 3.7 1.5 7-9.4 13.3-19.3 19.5-29.3-1.2-.2-2.4-.3-3.7-.5 2.2 8.8-6 16.8-7.3 25.3-.3 2.2 2.3 3.5 3.7 1.5 5.9-8.6 11.7-17.1 17.6-25.7-1.2-.2-2.4-.3-3.7-.5 2.6 8.1-4.2 15.2-6.7 22.6-.8 2.2 2.5 3.4 3.7 1.5 5-7.7 10.1-15.4 15.1-23-1.2-.5-2.4-1-3.7-1.5-1.9 10.2-5.6 19.7-11.1 28.5-1.4 2.2 1.9 4 3.5 2 6.8-8.9 12.7-18.4 18.5-28-1.2-.5-2.4-1-3.7-1.5-2.2 8.4-5.8 16-10.8 23-1.3 1.8 1.7 4.2 3.1 2.4 6.1-7.7 10.5-16.3 13.3-25.7.6-2.1-2.7-3.6-3.7-1.5-.6 1.3-1.2 2.6-1.7 3.9-1 2.3 2.4 4.4 3.5 2 .6-1.3 1.2-2.6 1.7-3.9-1.2-.5-2.4-1-3.7-1.5-2.6 8.7-6.7 16.8-12.3 23.9 1 .8 2.1 1.6 3.1 2.4 5.2-7.3 9-15.3 11.2-23.9.6-2.2-2.5-3.5-3.7-1.5-5.9 9.5-11.8 19-18.5 28 1.2.7 2.3 1.3 3.5 2 5.7-9 9.6-18.9 11.6-29.4.4-2.2-2.4-3.5-3.7-1.5-5 7.7-10.1 15.4-15.1 23 1.2.5 2.4 1 3.7 1.5 2.8-8.3 9.7-15.4 6.7-24.7-.6-1.7-2.7-1.9-3.7-.5-5.9 8.6-11.7 17.1-17.6 25.7 1.2.5 2.4 1 3.7 1.5 1.5-9.5 9.9-17.3 7.3-27.4-.4-1.7-2.8-1.9-3.7-.5-6.2 9.9-12.5 19.9-19.5 29.3 1.2.5 2.4 1 3.7 1.5 2.3-8.8 5.5-17.1 9.8-25.1 1.2-2.3-2-4.1-3.5-2-5.5 8.1-11.1 16.3-16.6 24.4 1.2.7 2.3 1.3 3.5 2 3.2-6.1 6.3-12.2 9.3-18.4 2.3-4.8 4.9-9.6 3.3-15-.5-1.7-2.8-2-3.7-.5-5.6 9.3-12.1 17.9-19.4 25.9 1.1.6 2.2 1.3 3.3 1.9 1.9-9.4 9.8-16.7 8.9-26.7-.2-1.8-2.7-2.9-3.7-1-4.2 8.1-9.2 15.6-14.9 22.7 1 .8 2.1 1.6 3.1 2.4 4-7.1 6.5-14.7 7.4-22.8.2-2-2.9-2.7-3.7-1-6 11.8-12.2 23.7-20.8 33.9 1 .8 2.1 1.6 3.1 2.4 6.8-11.2 12.1-23.1 15.8-35.6.7-2.3-2.4-3.4-3.7-1.5-5.3 7.8-10.5 15.6-15.8 23.4 1.2.7 2.3 1.3 3.5 2 3.9-6.5 6.5-13.4 7.7-20.9.4-2.3-2.3-3.4-3.7-1.5-6.7 8.8-13.4 17.6-20.1 26.3 1.2.7 2.3 1.3 3.5 2L135 44.7c1.1-2.4-1.9-4.1-3.5-2-6.6 9-13.3 18.1-19.9 27.1 1.2.5 2.4 1 3.7 1.5 2.3-10.3 10-18.8 9.5-29.8-.1-1.9-2.7-2.8-3.7-1-5.3 9.1-10.5 18.3-15.8 27.4 1.2.7 2.3 1.3 3.5 2 3.8-8.5 6.8-17.3 8.9-26.3.5-2.3-2.4-3.4-3.7-1.5-5.8 9.5-12 18.9-18.2 28.2 1.2.7 2.3 1.3 3.5 2 5.2-9 9.1-18.6 11.8-28.7.6-2.3-2.4-3.3-3.7-1.5-6.3 8.4-12.5 16.8-18.8 25.2 1.2.5 2.4 1 3.7 1.5 3.2-8.5 6.5-17 9.7-25.6.8-2.1-2.6-3.5-3.7-1.5L83.6 69.3c1.2.5 2.4 1 3.7 1.5 2.3-6.4 4.7-12.9 7-19.3 1.4-3.8 4-8.2.9-11.6-.7-.7-2.2-.8-2.8 0-8.1 10.2-16.1 20.4-24.2 30.6 1 .8 2.1 1.6 3.1 2.4 4.3-9.8 8.6-19.7 13-29.5 1-2.3-2.1-4.3-3.5-2-5.3 8.6-10.6 17.2-16 25.7.9-.2 1.8-.5 2.7-.7-.9-.6 8.1-22.2 8.9-24.5.8-2.2-2.5-3.4-3.7-1.5-6.3 10.6-13.1 21-20.2 31.1 1.2.7 2.3 1.3 3.5 2 4.2-9.1 7.7-18.4 10.5-28 .6-2.2-2.5-3.4-3.7-1.5-5.2 8.5-10.7 16.8-16.4 25 1.2.5 2.4 1 3.7 1.5 2.2-6 4.4-12 6.5-18 1.4-3.8 2.8-7.5.4-11.2-.7-1.2-2.8-1.4-3.5 0-4.9 10.1-9.8 20.1-14.7 30.2 1.2.5 2.4 1 3.7 1.5 3-8.8 6-17.6 9.1-26.4.7-2.1-2.7-3.6-3.7-1.5-3.3 7.2-6.6 14.4-12.5 19.9 1 .8 2.1 1.6 3.1 2.4 2.7-6 5.3-12 8-18 1-2.3-2-4.2-3.5-2l-17.7 27c1.2.7 2.3 1.3 3.5 2 3-6.2 6-12.3 9-18.5 2.6-5.2 5.6-10.3 5.7-16.3 0-2.1-2.6-2.5-3.7-1-7.2 10-14.4 20-21.6 30.1 1.2.7 2.3 1.3 3.5 2l8.7-18.9c2.4-5.2 3.9-10.3 3-16-.3-1.7-2.9-1.9-3.7-.5C23.6 49 17.5 60.6 11.3 72.1c1.2.5 2.4 1 3.7 1.5 2.4-10 6.3-19.3 11.7-28-1.2-.7-2.3-1.3-3.5-2l-12 19.5c1.2.7 2.3 1.3 3.5 2 2.2-4.7 3.4-9.4 3.8-14.6.2-2.1-2.8-2.6-3.7-1-2 3.3-4.1 6.5-6.5 9.6 1.2.3 2.5.7 3.7 1 0-2-.1-4.1-.1-6.1-.1-2.4-3.1-2.5-3.9-.5-1 2.4-1.9 4.7-2.9 7.1l3.3-.9c-.4-1-.9-2.1-1.4-3.2-.3-2.5-4.2-1.4-3.8 1.1z"/><path fill="#F4F1E6" d="M207.5 70.9c9.7-6.9 17.7-15.6 23.5-26 1.3-2.3-2.1-4.2-3.5-2-5.7 8.8-11.4 17.7-17.1 26.5 1.2.7 2.3 1.3 3.5 2 4.1-8.9 9.9-16.6 17.4-23-1.1-.5-2.3-.9-3.4-1.4.7 5.7-2.3 10.4-4.9 15.3-2.4 4.5-4.7 9-7.1 13.5-1 1.9 1.6 4.3 3.1 2.4 8-9.8 15-20.3 20.9-31.5 1.2-2.3-2-4.2-3.5-2-4.9 7.5-9.5 15.1-13.8 22.9-1.1 2.1 1.4 3.9 3.1 2.4 9.4-8.1 18.4-16.6 27-25.6-1-.8-2.1-1.6-3.1-2.4-5.2 9.5-10.8 18.7-16.8 27.8-1.2 1.9 1.7 4.2 3.1 2.4 7.8-9.6 15.3-19.4 22.5-29.4-1.2-.7-2.3-1.3-3.5-2-5.9 8.8-11 17.9-15.3 27.5-.9 2.1 1.4 3.9 3.1 2.4 8.7-7.2 16.2-15.5 22.7-24.7-1.2-.7-2.3-1.3-3.5-2-3.8 7.4-7.6 14.7-11.5 22.1-1 1.9 1.7 4.3 3.1 2.4 6-7.6 12.1-15.2 18.1-22.8-1-.8-2.1-1.6-3.1-2.4-5.4 10.5-10.7 20.9-16.1 31.4-1.2 2.3 2.1 4.2 3.5 2 6.5-10.4 13.9-20.1 22.2-29.1-1.1-.5-2.3-.9-3.4-1.4-.3 8.9-3.3 17.2-8.9 24.1 1 .8 2.1 1.6 3.1 2.4 6.4-9.1 11.9-18.7 16.6-28.8-1.2-.7-2.3-1.3-3.5-2-5 11.3-10.4 22.3-16.2 33.2-1.1 2 1.5 4.1 3.1 2.4 9.2-9.5 16.7-20.3 24-31.2-1.2-.5-2.4-1-3.7-1.5-2.5 8.8-6.4 17.2-11.2 25.2-1.3 2.2 2.1 4.2 3.5 2 5.7-8.8 11.3-17.7 16.8-26.6-1.2-.3-2.5-.7-3.7-1-.7 8.6-3.2 16.6-7.7 24-1.1 1.9 1.6 4.2 3.1 2.4 6.3-7.3 12.1-15.1 17.2-23.2-1.2-.2-2.4-.3-3.7-.5.8 3.9-4.3 10.7-6 14-2 4-4.1 8.1-6.1 12.1-1 2 1.5 4.2 3.1 2.4 8.1-8.9 14.9-18.7 20.2-29.5-1.2-.7-2.3-1.3-3.5-2-3.6 8.2-6.3 16.6-8.2 25.3-.4 1.8 2 3.6 3.3 1.9 6.4-7.9 12.8-15.7 19.2-23.6l-3.3-.9c1.4 6.3.6 12.2-2.5 17.9 1.2.7 2.3 1.3 3.5 2 2.9-6.3 6.5-12.2 10.6-17.8-1.2-.5-2.4-1-3.7-1.5-1.9 7.8-4.4 15.3-7.3 22.8-.7 1.9 2.1 3.4 3.3 1.9 5.8-6.5 10.6-13.7 14.1-21.8 1-2.3-2.4-4.4-3.5-2-3.4 7.7-7.9 14.7-13.5 20.9 1.1.6 2.2 1.3 3.3 1.9 3-7.4 5.4-15 7.3-22.8.6-2.3-2.3-3.3-3.7-1.5-4.2 5.6-7.7 11.5-10.6 17.8-1.1 2.3 2.2 4.3 3.5 2 3.6-6.6 4.5-13.7 2.9-21-.3-1.4-2.4-2-3.3-.9-6.4 7.9-12.8 15.7-19.2 23.6 1.1.6 2.2 1.3 3.3 1.9 1.8-8.4 4.3-16.5 7.8-24.4 1-2.3-2.3-4.4-3.5-2-5.2 10.5-11.7 20-19.6 28.6 1 .8 2.1 1.6 3.1 2.4 2.9-5.8 5.8-11.5 8.7-17.3 1.9-3.8 4.6-7.5 3.8-11.9-.4-1.8-2.8-1.8-3.7-.5-5 7.9-10.5 15.4-16.6 22.4 1 .8 2.1 1.6 3.1 2.4 4.8-8 7.5-16.7 8.2-26 .2-2.1-2.7-2.6-3.7-1-5.5 8.9-11.1 17.8-16.8 26.6 1.2.7 2.3 1.3 3.5 2 5-8.3 9-17 12-26.2.7-2.3-2.4-3.3-3.7-1.5-7.2 10.6-14.5 21.2-23.4 30.4 1 .8 2.1 1.6 3.1 2.4 5.8-10.9 11.2-21.9 16.2-33.2 1-2.3-2.4-4.4-3.5-2-4.7 10.1-10.2 19.7-16.6 28.8-1.3 1.9 1.7 4.2 3.1 2.4 6.3-7.8 9.8-16.9 10.1-26.9 0-1.7-2.2-2.7-3.4-1.4-8.5 9.2-16.1 19.2-22.8 29.9 1.2.7 2.3 1.3 3.5 2 5.4-10.5 10.7-20.9 16.1-31.4 1-1.9-1.7-4.3-3.1-2.4-6 7.6-12.1 15.2-18.1 22.8 1 .8 2.1 1.6 3.1 2.4 3.8-7.4 7.6-14.7 11.5-22.1 1.2-2.3-2-4.1-3.5-2-6.3 9-13.6 16.9-22.1 23.9 1 .8 2.1 1.6 3.1 2.4 4.3-9.6 9.4-18.8 15.3-27.5 1.4-2.2-2-4.1-3.5-2-7 9.8-14.3 19.3-21.9 28.6 1 .8 2.1 1.6 3.1 2.4 6-9 11.6-18.3 16.8-27.8 1.1-2-1.5-4.1-3.1-2.4-8.6 9-17.6 17.5-27 25.6 1 .8 2.1 1.6 3.1 2.4 4.3-7.8 8.9-15.5 13.8-22.9-1.2-.7-2.3-1.3-3.5-2-4.9 11.5-11.7 21.8-19.5 31.3 1 .8 2.1 1.6 3.1 2.4 3-5.6 5.9-11.3 8.9-16.9 2.3-4.4 4.3-8.8 3.7-13.9-.2-1.8-2-2.6-3.4-1.4-7.7 6.6-13.8 14.6-18 23.8-1.1 2.3 2 4.2 3.5 2 5.7-8.8 11.4-17.7 17.1-26.5-1.2-.7-2.3-1.3-3.5-2-5.5 9.8-12.8 18.1-22 24.5-2.2 1.5-.2 4.9 1.9 3.4zM3.2 265.4c.3 2.1 1 3.4 2.4 5 1.1 1.3 2.8.4 3.3-.9 1-2.4 1.9-4.7 2.9-7.1-1.3-.2-2.6-.4-3.9-.5 0 2 .1 4.1.1 6.1 0 2.1 2.6 2.5 3.7 1 2.3-3.1 4.5-6.3 6.5-9.6-1.2-.3-2.5-.7-3.7-1-.4 4.4-1.4 8.5-3.3 12.6-1.1 2.3 2.1 4.3 3.5 2l12-19.5c1.4-2.2-2.1-4.2-3.5-2-5.6 9-9.6 18.7-12.1 29-.5 2.2 2.6 3.6 3.7 1.5 6.1-11.6 12.3-23.1 18.4-34.7-1.2-.2-2.4-.3-3.7-.5.9 5.8-1.8 11.1-4.1 16.2l-7.2 15.6c-1.1 2.4 1.9 4.1 3.5 2 7.2-10 14.4-20 21.6-30.1-1.2-.3-2.5-.7-3.7-1-.1 6.2-4.1 12.1-6.8 17.6-2.5 5-4.9 10.1-7.4 15.1-1.1 2.3 2 4.2 3.5 2l17.7-27c-1.2-.7-2.3-1.3-3.5-2-2.7 6-5.3 12-8 18-.9 2 1.4 4.1 3.1 2.4 6.2-5.7 9.8-13.1 13.2-20.7-1.2-.5-2.4-1-3.7-1.5-3 8.8-6 17.6-9.1 26.4-.7 2.1 2.7 3.6 3.7 1.5 4.9-10.1 9.8-20.1 14.7-30.2h-3.5c2.3 3.6-1.5 10.1-2.8 13.6-1.5 4.2-3 8.4-4.6 12.6-.8 2.3 2.4 3.3 3.7 1.5 5.7-8.2 11.1-16.5 16.4-25-1.2-.5-2.4-1-3.7-1.5-2.7 9.3-6.1 18.3-10.1 27.1-1.1 2.3 2 4.1 3.5 2 7.1-10.1 13.8-20.5 20.2-31.1-1.2-.5-2.4-1-3.7-1.5-2.2 6.1-4.4 12.3-6.6 18.4-1.3 3.5-4.1 7.9-.4 10.6.9.7 2.2.1 2.7-.7 5.3-8.6 10.6-17.2 16-25.7-1.2-.7-2.3-1.3-3.5-2-4.3 9.8-8.6 19.7-13 29.5-.8 1.9 1.6 4.4 3.1 2.4C79 271 87 260.8 95.1 250.6h-2.8c1.6 1.8-3.1 11-3.9 13-1.7 4.7-3.4 9.4-5.1 14-.8 2.1 2.6 3.5 3.7 1.5l14.7-27.6c-1.2-.5-2.4-1-3.7-1.5-3.2 8.5-6.5 17-9.7 25.6-.9 2.3 2.4 3.2 3.7 1.5 6.3-8.4 12.5-16.8 18.8-25.2-1.2-.5-2.4-1-3.7-1.5-2.6 9.7-6.4 19-11.4 27.7-1.3 2.3 2 4.2 3.5 2 6.2-9.4 12.4-18.7 18.6-28.1-1.2-.5-2.4-1-3.7-1.5-2.1 8.7-4.9 17.2-8.5 25.4-1 2.3 2.1 4.3 3.5 2 5.3-9.1 10.5-18.3 15.8-27.4-1.2-.3-2.5-.7-3.7-1 .4 10.4-7.2 18.9-9.4 28.7-.5 2.3 2.3 3.3 3.7 1.5 6.6-9 13.3-18.1 19.9-27.1-1.2-.7-2.3-1.3-3.5-2L119 277.3c-1.1 2.4 1.9 4 3.5 2 6.7-8.8 13.4-17.6 20.1-26.3-1.2-.5-2.4-1-3.7-1.5-1.2 7.1-3.6 13.7-7.3 19.9-1.3 2.2 2 4.1 3.5 2 5.3-7.8 10.5-15.6 15.8-23.4-1.2-.5-2.4-1-3.7-1.5-3.6 12.2-8.8 23.8-15.4 34.7-1.2 1.9 1.7 4.2 3.1 2.4 8.8-10.5 15.2-22.6 21.4-34.7-1.2-.3-2.5-.7-3.7-1-.9 7.4-3.2 14.3-6.9 20.8-1.1 1.9 1.7 4.2 3.1 2.4 5.9-7.3 11.1-15.2 15.5-23.5-1.2-.3-2.5-.7-3.7-1 .8 9.4-7 16.7-8.8 25.6-.4 1.8 1.9 3.5 3.3 1.9 7.5-8.3 14.2-17.2 20-26.7-1.2-.2-2.4-.3-3.7-.5 1.7 5.7-2.9 12.1-5.3 17-2.2 4.5-4.5 8.9-6.8 13.4-1.2 2.3 2 4.1 3.5 2 5.5-8.1 11.1-16.3 16.6-24.4-1.2-.7-2.3-1.3-3.5-2-4.4 8.3-7.8 17-10.2 26-.6 2.3 2.4 3.3 3.7 1.5 7-9.4 13.3-19.3 19.5-29.3-1.2-.2-2.4-.3-3.7-.5 2.2 8.8-6 16.8-7.3 25.3-.3 2.2 2.3 3.5 3.7 1.5 5.9-8.6 11.7-17.1 17.6-25.7-1.2-.2-2.4-.3-3.7-.5 2.6 8.1-4.2 15.2-6.7 22.6-.8 2.2 2.5 3.4 3.7 1.5 5-7.7 10.1-15.4 15.1-23-1.2-.5-2.4-1-3.7-1.5-1.9 10.2-5.6 19.7-11.1 28.5-1.4 2.2 1.9 4 3.5 2 6.8-8.9 12.7-18.4 18.5-28-1.2-.5-2.4-1-3.7-1.5-2.2 8.4-5.8 16-10.8 23-1.3 1.8 1.7 4.2 3.1 2.4 6.1-7.7 10.5-16.3 13.3-25.7.6-2.1-2.7-3.6-3.7-1.5-.6 1.3-1.2 2.6-1.7 3.9-1 2.3 2.4 4.4 3.5 2 .6-1.3 1.2-2.6 1.7-3.9-1.2-.5-2.4-1-3.7-1.5-2.6 8.7-6.7 16.8-12.3 23.9 1 .8 2.1 1.6 3.1 2.4 5.2-7.3 9-15.3 11.2-23.9.6-2.2-2.5-3.5-3.7-1.5-5.9 9.5-11.8 19-18.5 28 1.2.7 2.3 1.3 3.5 2 5.7-9 9.6-18.9 11.6-29.4.4-2.2-2.4-3.5-3.7-1.5-5 7.7-10.1 15.4-15.1 23 1.2.5 2.4 1 3.7 1.5 2.8-8.3 9.7-15.4 6.7-24.7-.6-1.7-2.7-1.9-3.7-.5-5.9 8.6-11.7 17.1-17.6 25.7 1.2.5 2.4 1 3.7 1.5 1.5-9.5 9.9-17.3 7.3-27.4-.4-1.7-2.8-1.9-3.7-.5-6.2 9.9-12.5 19.9-19.5 29.3 1.2.5 2.4 1 3.7 1.5 2.3-8.8 5.5-17.1 9.8-25.1 1.2-2.3-2-4.1-3.5-2-5.5 8.1-11.1 16.3-16.6 24.4 1.2.7 2.3 1.3 3.5 2 3.2-6.1 6.3-12.2 9.3-18.4 2.3-4.8 4.9-9.6 3.3-15-.5-1.7-2.8-2-3.7-.5-5.6 9.3-12.1 17.9-19.4 25.9 1.1.6 2.2 1.3 3.3 1.9 1.9-9.4 9.8-16.7 8.9-26.7-.2-1.8-2.7-2.9-3.7-1-4.2 8.1-9.2 15.6-14.9 22.7 1 .8 2.1 1.6 3.1 2.4 4-7.1 6.5-14.7 7.4-22.8.2-2-2.9-2.7-3.7-1-6 11.8-12.2 23.7-20.8 33.9 1 .8 2.1 1.6 3.1 2.4 6.8-11.2 12.1-23.1 15.8-35.6.7-2.3-2.4-3.4-3.7-1.5-5.3 7.8-10.5 15.6-15.8 23.4 1.2.7 2.3 1.3 3.5 2 3.9-6.5 6.5-13.4 7.7-20.9.4-2.3-2.3-3.4-3.7-1.5-6.7 8.8-13.4 17.6-20.1 26.3 1.2.7 2.3 1.3 3.5 2l12.9-26.7c1.1-2.4-1.9-4.1-3.5-2-6.6 9-13.3 18.1-19.9 27.1 1.2.5 2.4 1 3.7 1.5 2.3-10.3 10-18.8 9.5-29.8-.1-1.9-2.7-2.8-3.7-1-5.3 9.1-10.5 18.3-15.8 27.4 1.2.7 2.3 1.3 3.5 2 3.8-8.5 6.8-17.3 8.9-26.3.5-2.3-2.4-3.4-3.7-1.5-6.2 9.4-12.4 18.7-18.6 28.1 1.2.7 2.3 1.3 3.5 2 5.2-9 9.1-18.6 11.8-28.7.6-2.3-2.4-3.3-3.7-1.5-6.3 8.4-12.5 16.8-18.8 25.2 1.2.5 2.4 1 3.7 1.5 3.2-8.5 6.5-17 9.7-25.6.8-2.1-2.6-3.5-3.7-1.5L83.2 277c1.2.5 2.4 1 3.7 1.5 2.3-6.4 4.7-12.9 7-19.3 1.4-3.8 4-8.2.9-11.6-.7-.7-2.2-.8-2.8 0-8.1 10.2-16.1 20.4-24.2 30.6 1 .8 2.1 1.6 3.1 2.4 4.3-9.8 8.6-19.7 13-29.5 1-2.3-2.1-4.3-3.5-2-5.3 8.6-10.6 17.2-16 25.7.9-.2 1.8-.5 2.7-.7-.9-.6 8.1-22.2 8.9-24.5.8-2.2-2.5-3.4-3.7-1.5-6.3 10.6-13.1 21-20.2 31.1 1.2.7 2.3 1.3 3.5 2 4.2-9.1 7.7-18.4 10.5-28 .6-2.2-2.5-3.4-3.7-1.5-5.2 8.5-10.7 16.8-16.4 25 1.2.5 2.4 1 3.7 1.5 2.2-6 4.4-12 6.5-18 1.4-3.8 2.7-7.6.4-11.2-.7-1.2-2.8-1.4-3.5 0-4.9 10.1-9.8 20.1-14.7 30.2 1.2.5 2.4 1 3.7 1.5 3-8.8 6-17.6 9.1-26.4.7-2.1-2.7-3.6-3.7-1.5-3.3 7.2-6.6 14.4-12.5 19.9 1 .8 2.1 1.6 3.1 2.4 2.7-6 5.3-12 8-18 1-2.3-2-4.2-3.5-2l-17.7 27c1.2.7 2.3 1.3 3.5 2 3-6.2 6-12.3 9-18.5 2.6-5.2 5.6-10.3 5.7-16.3 0-2.1-2.6-2.5-3.7-1-7.2 10-14.4 20-21.6 30.1 1.2.7 2.3 1.3 3.5 2l8.7-18.9c2.4-5.2 3.9-10.3 3-16-.3-1.7-2.9-1.9-3.7-.5-6.1 11.6-12.3 23.1-18.4 34.7 1.2.5 2.4 1 3.7 1.5 2.4-10 6.3-19.3 11.7-28-1.2-.7-2.3-1.3-3.5-2l-12 19.5c1.2.7 2.3 1.3 3.5 2 2.2-4.7 3.4-9.4 3.8-14.6.2-2.1-2.8-2.6-3.7-1-2 3.3-4.1 6.5-6.5 9.6 1.2.3 2.5.7 3.7 1 0-2-.1-4.1-.1-6.1-.1-2.4-3.1-2.5-3.9-.5-1 2.4-1.9 4.7-2.9 7.1l3.3-.9c-.5-1.1-.9-2.1-1.4-3.2.1-2.3-3.8-1.2-3.4 1.3z"/><path fill="#F4F1E6" d="M207.5 278.7c9.7-6.9 17.7-15.6 23.5-26 1.3-2.3-2.1-4.2-3.5-2-5.7 8.8-11.4 17.7-17.1 26.5 1.2.7 2.3 1.3 3.5 2 4.1-8.9 9.9-16.6 17.4-23-1.1-.5-2.3-.9-3.4-1.4.7 5.7-2.3 10.4-4.9 15.3-2.4 4.5-4.7 9-7.1 13.5-1 1.9 1.6 4.3 3.1 2.4 8-9.8 15-20.3 20.9-31.5 1.2-2.3-2-4.2-3.5-2-4.9 7.5-9.5 15.1-13.8 22.9-1.1 2.1 1.4 3.9 3.1 2.4 9.4-8.1 18.4-16.6 27-25.6-1-.8-2.1-1.6-3.1-2.4-5.2 9.5-10.8 18.7-16.8 27.8-1.2 1.9 1.7 4.2 3.1 2.4 7.8-9.6 15.3-19.4 22.5-29.4-1.2-.7-2.3-1.3-3.5-2-5.9 8.8-11 17.9-15.3 27.5-.9 2.1 1.4 3.9 3.1 2.4 8.7-7.2 16.2-15.5 22.7-24.7-1.2-.7-2.3-1.3-3.5-2-3.8 7.4-7.6 14.7-11.5 22.1-1 1.9 1.7 4.3 3.1 2.4 6-7.6 12.1-15.2 18.1-22.8-1-.8-2.1-1.6-3.1-2.4-5.4 10.5-10.7 20.9-16.1 31.4-1.2 2.3 2.1 4.2 3.5 2 6.5-10.4 13.9-20.1 22.2-29.1-1.1-.5-2.3-.9-3.4-1.4-.3 8.9-3.3 17.2-8.9 24.1 1 .8 2.1 1.6 3.1 2.4 6.4-9.1 11.9-18.7 16.6-28.8-1.2-.7-2.3-1.3-3.5-2-5 11.3-10.4 22.3-16.2 33.2-1.1 2 1.5 4.1 3.1 2.4 9.2-9.5 16.7-20.3 24-31.2-1.2-.5-2.4-1-3.7-1.5-2.9 8.9-6.7 17.3-11.6 25.3-1.3 2.2 2.1 4.2 3.5 2 5.7-8.8 11.3-17.7 16.8-26.6-1.2-.3-2.5-.7-3.7-1-.7 8.6-3.2 16.6-7.7 24-1.1 1.9 1.6 4.2 3.1 2.4 6.3-7.3 12.1-15.1 17.2-23.2-1.2-.2-2.4-.3-3.7-.5.8 3.9-4.3 10.7-6 14-2 4-4.1 8.1-6.1 12.1-1 2 1.5 4.2 3.1 2.4 8.1-8.9 14.9-18.7 20.2-29.5-1.2-.7-2.3-1.3-3.5-2-3.6 8.2-6.3 16.6-8.2 25.3-.4 1.8 2 3.6 3.3 1.9 6.4-7.9 12.8-15.7 19.2-23.6l-3.3-.9c1.4 6.3.6 12.2-2.5 17.9 1.2.7 2.3 1.3 3.5 2 2.9-6.3 6.5-12.2 10.6-17.8-1.2-.5-2.4-1-3.7-1.5-1.9 7.8-4.4 15.3-7.3 22.8-.7 1.9 2.1 3.4 3.3 1.9 5.8-6.5 10.6-13.7 14.1-21.8 1-2.3-2.4-4.4-3.5-2-3.4 7.7-7.9 14.7-13.5 20.9 1.1.6 2.2 1.3 3.3 1.9 3-7.4 5.4-15 7.3-22.8.6-2.3-2.3-3.3-3.7-1.5-4.2 5.6-7.7 11.5-10.6 17.8-1.1 2.3 2.2 4.3 3.5 2 3.6-6.6 4.5-13.7 2.9-21-.3-1.4-2.4-2-3.3-.9-6.4 7.9-12.8 15.7-19.2 23.6 1.1.6 2.2 1.3 3.3 1.9 1.8-8.4 4.3-16.5 7.8-24.4 1-2.3-2.3-4.4-3.5-2-5.2 10.5-11.7 20-19.6 28.6 1 .8 2.1 1.6 3.1 2.4 2.9-5.8 5.8-11.5 8.7-17.3 1.9-3.8 4.6-7.5 3.8-11.9-.4-1.8-2.8-1.8-3.7-.5-5 7.9-10.5 15.4-16.6 22.4 1 .8 2.1 1.6 3.1 2.4 4.8-8 7.5-16.7 8.2-26 .2-2.1-2.7-2.6-3.7-1-5.5 8.9-11.1 17.8-16.8 26.6 1.2.7 2.3 1.3 3.5 2 5-8.3 9-17 12-26.2.7-2.3-2.4-3.3-3.7-1.5-7.2 10.6-14.5 21.2-23.4 30.4 1 .8 2.1 1.6 3.1 2.4 5.8-10.9 11.2-21.9 16.2-33.2 1-2.3-2.4-4.4-3.5-2-4.7 10.1-10.2 19.7-16.6 28.8-1.3 1.9 1.7 4.2 3.1 2.4 6.3-7.8 9.8-16.9 10.1-26.9 0-1.7-2.2-2.7-3.4-1.4-8.5 9.2-16.1 19.2-22.8 29.9 1.2.7 2.3 1.3 3.5 2 5.4-10.5 10.7-20.9 16.1-31.4 1-1.9-1.7-4.3-3.1-2.4-6 7.6-12.1 15.2-18.1 22.8 1 .8 2.1 1.6 3.1 2.4 3.8-7.4 7.6-14.7 11.5-22.1 1.2-2.3-2-4.1-3.5-2-6.3 9-13.6 16.9-22.1 23.9 1 .8 2.1 1.6 3.1 2.4 4.3-9.6 9.4-18.8 15.3-27.5 1.4-2.2-2-4.1-3.5-2-7 9.8-14.3 19.3-21.9 28.6 1 .8 2.1 1.6 3.1 2.4 6-9 11.6-18.3 16.8-27.8 1.1-2-1.5-4.1-3.1-2.4-8.6 9-17.6 17.5-27 25.6 1 .8 2.1 1.6 3.1 2.4 4.3-7.8 8.9-15.5 13.8-22.9-1.2-.7-2.3-1.3-3.5-2-5.7 10.9-12.5 21.2-20.3 30.7 1 .8 2.1 1.6 3.1 2.4 3-5.6 5.9-11.3 8.9-16.9 2.3-4.4 4.3-8.8 3.7-13.9-.2-1.8-2-2.6-3.4-1.4-7.7 6.6-13.8 14.6-18 23.8-1.1 2.3 2 4.2 3.5 2 5.7-8.8 11.4-17.7 17.1-26.5-1.2-.7-2.3-1.3-3.5-2-5.5 9.8-12.8 18.1-22 24.5-1 2 1 5.4 3.1 3.9z"/><g fill="#EACF1A"><path d="M1.8 17.9v-.5c.1-3.1.9-6.1 2.4-8.9C5.6 6 7.3 3.9 9.3 2.3c2-1.6 4-2.3 6-2.3 1.5 0 2.6.5 3.5 1.5.7.9 1.1 2 1.1 3.2 0 1.5-.6 3-1.7 4.5-.7.9-1.3 1.5-2.1 1.9-.3.2-.7.3-1 .3-.3 0-.6-.1-.8-.2s-.5-.3-.7-.5c-.4-.3-.6-.7-.6-1 0-.3.1-.6.3-.7 1.7-1.2 2.9-2.5 3.5-3.8.2-.5.4-1 .4-1.5 0-1-.5-1.5-1.4-1.5-1.5 0-3.1.8-4.7 2.5-1.5 1.5-2.8 3.4-3.8 5.7-1.1 2.4-1.6 4.5-1.7 6.5v.6c0 2.4.5 3.9 1.5 4.6.4.3.8.4 1.3.4s1-.1 1.4-.2.9-.3 1.3-.5c.7-.4 1.6-1 2.7-1.9.3-.3.6-.2.8.1.2.3.3.6.3.9 0 .6-.1 1-.2 1.2-.2.2-.4.5-.8.8s-.9.6-1.4.8c-1.3.6-2.6.9-3.9.9-1.3 0-2.3-.2-3.1-.5-.8-.3-1.4-.8-2-1.3-1.1-1.2-1.7-2.8-1.7-4.9zM18.7 24.1c-.2-.2-.4-.3-.5-.5-.2-.2-.2-.4-.2-.5 0-.1 0-.3.1-.5s.2-.5.3-.7c2.1-5.3 3.2-8.8 3.2-10.6 0-.5-.2-.9-.5-1.1l-.3-.2c-.1-.1-.1-.2-.1-.4s.1-.4.2-.5c.1-.2.3-.3.5-.4.5-.2.9-.4 1.4-.4s.9.1 1.1.2.5.2.7.4c.4.4.6.8.6 1.2 0 .4 0 .8-.1 1.3-.1.4-.2.9-.4 1.3s-.3.8-.4 1.2c-.1.4-.2.6-.3.8-.1.4-.1.6-.1.7.3-.2.4-.4.5-.6l.6-1.2c1.4-2.5 2.7-4.1 4-4.9.4-.2.8-.3 1.4-.3s1 .2 1.3.6c.2.1.3.5.3 1s0 .8-.1 1.1c-.1.3-.2.6-.4.8-.3.6-.8.9-1.3.9-.1 0-.3 0-.4-.1l-.3-.3c-.3-.3-.7-.5-1-.5s-.7.2-1.2.6-.9 1-1.4 1.6c-1.7 2.2-3 4.6-4.1 7.4l-.7 1.8c-.2.5-.3.8-.5 1-.1.2-.3.3-.6.3s-.5 0-.8-.1-.3-.2-.5-.4zM33.2 23.4c-.4-.4-.8-1-1-1.6-.3-.6-.4-1.4-.4-2.3 0-.9.1-1.8.3-2.7.2-.9.5-1.8 1-2.6.4-.8.9-1.6 1.5-2.4.6-.7 1.2-1.4 1.9-1.9 1.5-1.2 3.1-1.8 4.8-1.8 2.2 0 3.6 1 4.4 2.8.5 1.4.6 3 .1 5-.4 1.8-1.2 3.4-2.4 4.9-1.2 1.5-2.5 2.6-4.1 3.2-.8.3-1.6.5-2.4.5-.8 0-1.5-.1-2.1-.3s-1.1-.4-1.6-.8zm3-7.6c-.3.8-.6 1.6-.7 2.4s-.3 1.6-.3 2.3c0 .7.1 1.3.3 1.7.2.4.6.6 1 .6.5 0 1-.2 1.4-.5.5-.3.9-.8 1.4-1.3.4-.5.9-1.2 1.2-1.9.4-.7.7-1.5 1-2.2.6-1.7.9-3.2.9-4.5 0-1.2-.2-1.9-.7-2.2-.2-.1-.5-.2-.8-.2-.3 0-.7.2-1.2.5s-.9.7-1.3 1.3-.9 1.1-1.3 1.8c-.2.7-.6 1.4-.9 2.2zM51.2 23c0 .2-.2 1-.7 2.5-.5 1.5-.8 2.7-1.1 3.5-.7 2-1.2 3.2-1.6 3.7-.3.4-.8.6-1.3.6-.6 0-1.1-.3-1.4-.9-.1-.2-.1-.3-.1-.5s.2-.6.5-1.3c.8-1.7 1.9-5.1 3.3-10.2.6-2 .9-3.4 1.1-4.1l.5-2c.3-1.3.5-2.2.6-2.7.1-.5 0-.8-.1-1-.1-.2-.2-.3-.4-.4-.2-.2-.3-.3-.5-.3-.1-.1-.2-.2-.2-.4s.1-.4.3-.5c.2-.2.3-.3.6-.4.5-.2.9-.3 1.4-.3s.9.1 1.1.2c.3.1.5.3.7.5.4.4.5.8.5 1.2-.1.8-.2 1.5-.3 2.1 1.8-2.6 3.7-3.9 5.7-3.9 1.8 0 3 .9 3.6 2.8.2.7.3 1.4.3 2.4s-.1 1.9-.4 2.8c-.3.9-.7 1.8-1.1 2.7-.5.8-1 1.6-1.7 2.3-.6.7-1.3 1.3-2 1.9-1.5 1.1-2.9 1.6-4.3 1.6s-2.4-.8-3-1.9zm2.4-6.7c-.4.7-.7 1.5-.9 2.2-.2.7-.4 1.4-.4 2 0 .6.1 1.1.4 1.5.3.4.7.6 1.2.6s1-.1 1.5-.4c.5-.3 1-.7 1.5-1.1s.9-1 1.3-1.7c.4-.6.8-1.3 1.1-2 .7-1.6 1-3 1-4.4 0-.8-.1-1.3-.3-1.8s-.5-.6-.9-.6-.8.2-1.3.5-.9.7-1.4 1.3-1 1.1-1.5 1.8c-.5.6-.9 1.3-1.3 2.1zM68.9 23c0 .2-.2 1-.7 2.5-.4 1.5-.8 2.7-1.1 3.6-.7 2-1.2 3.2-1.6 3.7-.3.4-.8.6-1.3.6-.6 0-1.1-.3-1.4-.9-.1-.2-.1-.4-.1-.6s.2-.6.5-1.3c.8-1.7 1.9-5.1 3.3-10.2.6-2 .9-3.4 1.1-4.1l.5-2c.3-1.3.5-2.2.6-2.7.1-.5 0-.8-.1-1-.1-.2-.2-.3-.4-.4-.1-.1-.3-.2-.4-.3-.1-.1-.2-.2-.2-.4s.1-.4.3-.5c.2-.2.3-.3.6-.4.5-.2.9-.3 1.4-.3s.9.1 1.1.2c.3.1.5.3.7.5.4.4.5.8.5 1.2-.1.8-.2 1.5-.3 2.1 1.8-2.6 3.7-3.9 5.7-3.9 1.8 0 3 .9 3.6 2.8.2.7.3 1.4.3 2.4s-.1 1.9-.4 2.8c-.3.9-.7 1.8-1.1 2.7-.5.8-1 1.6-1.7 2.3-.6.7-1.3 1.3-2 1.9-1.5 1.1-2.9 1.6-4.3 1.6s-2.4-.8-3.1-1.9zm2.4-6.7c-.4.7-.7 1.5-.9 2.2-.2.7-.4 1.4-.4 2 0 .6.1 1.1.4 1.5.3.4.7.6 1.2.6s1-.1 1.5-.4c.5-.3 1-.7 1.5-1.1s.9-1 1.3-1.7c.4-.6.8-1.3 1.1-2 .7-1.6 1-3 1-4.4 0-.8-.1-1.3-.3-1.8s-.5-.6-.9-.6-.8.1-1.3.4c-.5.3-.9.7-1.4 1.3s-1 1.1-1.5 1.8c-.4.7-.9 1.4-1.3 2.2zM84 19c0-.9.2-1.8.5-2.6s.6-1.6 1.1-2.4c.4-.8 1-1.5 1.6-2.2s1.2-1.3 1.9-1.8c1.5-1.1 3-1.7 4.5-1.7 1.8 0 3 .7 3.6 2.2.2.5.3 1.1.3 1.8s-.1 1.3-.4 1.9-.6 1.1-1 1.6-1 .9-1.6 1.3c-.6.4-1.3.7-2 1-1.5.5-3.1.8-4.8.8 0 .1-.1.4-.1.7s0 .6.1 1 .2.7.4 1c.4.6.9.9 1.6.9 1.2 0 2.4-.4 3.6-1.1.4-.2.7-.5 1-.7.3-.3.5-.4.7-.4s.4.1.5.3.2.5.2.8c0 .6-.2 1-.5 1.4-1.3 1.3-3.3 2-5.9 2-1.5 0-2.8-.5-3.7-1.4-1.2-1.2-1.7-2.6-1.6-4.4zm9.2-8.7c-1.1 0-2.2.8-3.2 2.3-.9 1.3-1.6 2.8-2.1 4.6 1.8-.2 3.3-.9 4.6-2.1 1.2-1.1 1.8-2.2 1.8-3.3s-.4-1.5-1.1-1.5zM99.1 24.1c-.2-.2-.4-.3-.5-.5-.1-.2-.2-.4-.2-.5 0-.1 0-.3.1-.5s.2-.5.3-.7c2.1-5.3 3.2-8.8 3.2-10.6 0-.5-.2-.9-.5-1.1l-.3-.2c-.1-.1-.1-.2-.1-.4s.1-.4.2-.5c.1-.2.3-.3.5-.4.5-.2.9-.4 1.4-.4s.9.1 1.1.2.5.2.7.4c.4.4.6.8.6 1.2 0 .4 0 .8-.1 1.3-.1.4-.2.9-.4 1.3s-.3.8-.4 1.2c-.1.4-.2.6-.3.8-.1.4-.1.6-.1.7.3-.2.4-.4.5-.6l.6-1.2c1.4-2.5 2.7-4.1 4-4.9.4-.2.8-.3 1.4-.3s1 .2 1.3.6c.3.4.5.8.5 1.2 0 .5 0 .8-.1 1.1-.1.3-.2.6-.4.8-.3.6-.8.9-1.3.9-.1 0-.3 0-.4-.1l-.3-.3c-.3-.3-.7-.5-1-.5s-.7.2-1.2.6-.9 1-1.4 1.6c-1.7 2.2-3 4.6-4.1 7.4l-.7 1.8c-.2.5-.3.8-.5 1-.1.2-.3.3-.6.3s-.5 0-.8-.1-.5-.4-.7-.6z"/></g><g fill="#684B2A"><path d="M22.3 63.4c0-.8.2-2 .7-3.5-1.4 0-2.4.1-3.2.1l-.6 1.2-.5 1.1c-.7 1.4-1.3 2.3-1.9 2.7-.4.3-.9.5-1.4.5-.4 0-.6-.1-.8-.4-.1-.1-.1-.2-.1-.3 0-.1 0-.1.1-.2.7-.2 1.2-.6 1.6-1.1.4-.5.7-1 1.1-1.7l1-1.7-.5.1c-.3.1-.5 0-.5-.2s.1-.3.3-.5c.4-.3.7-.4 1.1-.5l.4-.1c.9-1.5 1.7-2.6 2.1-3.2.5-.6.9-1.1 1.4-1.5.4-.4.8-.8 1.3-1.1 1-.7 2-1 2.9-1 .3 0 .5.1.6.2.2.2.2.4.2.6s-.2.5-.3.9c-.9 2.5-1.5 4-1.7 4.6h.4c.6 0 1 .1 1 .2v.2c0 .1 0 .2-.1.4-.1.1-.2.3-.3.4-.3.2-.8.3-1.5.4-.4 1.3-.6 2.3-.7 2.8-.1.5 0 .9.1 1 .1.2.2.3.4.3h.4c.1 0 .2-.1.3-.1l.2-.1c.1 0 .1-.1.2-.1s.1 0 .1.1.1.2.1.3c0 .1-.1.3-.2.5s-.2.3-.4.5c-.4.3-.9.5-1.4.5-.8 0-1.3-.3-1.5-1-.1-.2-.1-.5-.1-.6v-.7zm-1.7-4.8c1-.1 2-.2 2.8-.2.2-.5.3-1 .5-1.5l.5-1.4c.2-.4.4-.8.5-1.2l.5-1.1c-1.2.3-2.4 1.3-3.5 3.1-.2.4-.5.7-.7 1.1l-.6 1.2zM27.4 65.2l-.3-.3c-.1-.1-.1-.2-.1-.3v-.3c0-.1.1-.2.1-.4 1.2-2.9 1.7-4.8 1.7-5.8 0-.3-.1-.5-.3-.6l-.2-.1c-.1 0-.1-.1-.1-.2s0-.2.1-.3.2-.2.3-.2c.2-.1.5-.2.8-.2.3 0 .5 0 .6.1.1.1.3.1.4.2.2.2.3.4.3.7s0 .5-.1.7-.1.5-.2.7c-.1.2-.1.4-.2.6-.1.2-.1.4-.1.5 0 .2-.1.3-.1.4.1-.1.2-.2.2-.4l.3-.6c.7-1.3 1.5-2.2 2.2-2.7.2-.1.5-.2.7-.2s.5.1.7.3c.2.2.3.4.3.7 0 .2 0 .4-.1.6 0 .2-.1.3-.2.5.1.3-.1.4-.4.4-.1 0-.1 0-.2-.1l-.2-.2c-.2-.2-.4-.2-.5-.2s-.4.1-.6.3-.5.5-.8.9c-.9 1.2-1.6 2.5-2.2 4l-.4 1c-.1.2-.2.4-.3.5-.1.1-.2.2-.3.2-.1 0-.3 0-.4-.1s-.3-.1-.4-.1zM34.6 62.4c0-.5.1-1 .2-1.4.1-.5.3-.9.6-1.3.2-.4.5-.8.8-1.2s.7-.7 1.1-1c.8-.6 1.6-.9 2.5-.9 1 0 1.6.4 2 1.2.1.3.2.6.2 1s-.1.7-.2 1c-.1.3-.3.6-.6.9-.2.3-.5.5-.9.7-.3.2-.7.4-1.1.5-.8.3-1.7.4-2.6.4v.4c0 .2 0 .3.1.5 0 .2.1.4.2.5.2.3.5.5.9.5.7 0 1.3-.2 1.9-.6.2-.1.4-.3.5-.4.1-.1.3-.2.4-.2.1 0 .2.1.3.2.1.1.1.3.1.4 0 .3-.1.6-.3.8-.7.7-1.8 1.1-3.2 1.1-.8 0-1.5-.3-2-.8-.7-.6-1-1.3-.9-2.3zm5-4.8c-.6 0-1.2.4-1.7 1.2-.5.7-.8 1.5-1.1 2.5 1-.1 1.8-.5 2.5-1.1.6-.6 1-1.2 1-1.8-.1-.5-.3-.8-.7-.8zM49.4 63.1c0 .5.2.8.6.8.3 0 .5 0 .6-.1.2-.1.3-.1.3-.1.1 0 .2.1.2.2 0 .5-.3.9-.8 1.3s-1.1.5-1.7.3c-.4-.1-.6-.4-.8-.8-.1-.2-.1-.4-.1-.6 0-.3 0-.6.1-.9-.5 1.1-1.2 1.8-2 2.2-.3.2-.6.2-1 .2s-.7-.1-.9-.2c-.3-.1-.5-.3-.7-.6-.4-.5-.5-1.2-.5-2 0-1 .3-2 .9-3 .5-.9 1.2-1.7 2-2.2.8-.6 1.5-.9 2.2-.9.7 0 1.2.3 1.7 1 .4-.6.7-1 1-1 .3 0 .6.1.7.2.3.2.4.4.3.6-1.4 2.9-2.2 4.8-2.2 5.5.1-.1.1 0 .1.1zm-4.8 0c0 .7.2 1 .7 1 .3 0 .8-.3 1.2-.9.7-.8 1.4-2 1.9-3.4.2-.4.3-.9.4-1.3 0-.4-.2-.7-.5-.9-.1-.1-.3-.1-.5-.1s-.4.1-.7.2-.5.4-.8.6c-.3.3-.5.6-.7.9-.2.4-.4.7-.6 1.1-.2 1.1-.4 2-.4 2.8z"/></g><g fill="#7479B2"><path d="M228.9 75.8c-.1-.3-.2-.7-.2-1.2s.1-1 .2-1.6c.1-.6.3-1.3.5-2.1.6-1.7 1.3-3.2 2.3-4.5.2-.2.3-.3.5-.3s.4 0 .5.1.3.2.5.3c.3.3.4.5.3.7-.8 1.3-1.5 2.5-2 3.5 1.3-.1 2.4-.5 3.4-1.2 1.1-.8 1.6-1.8 1.6-2.9 0-.8-.4-1.3-1.1-1.5-.2-.1-.5-.1-.8-.1s-.7 0-1 .1c-.3.1-.7.2-1 .3-.6.2-1.2.5-1.7.9-.1.1-.3.2-.4.2-.1 0-.3 0-.4-.1-.1-.1-.3-.1-.4-.2-.4-.4-.4-.8.2-1.2.8-.6 2.1-1 3.7-1.1h1.2c.5 0 1 .1 1.6.2.5.2 1 .4 1.3.7.6.5.9 1.3.9 2.2 0 .8-.3 1.7-1 2.5-.6.8-1.4 1.4-2.4 1.9.5.2.8.5 1 .9.2.4.3.8.3 1.2 0 .4-.1.8-.3 1.2-.2.4-.4.7-.6 1-.3.3-.6.5-.9.8-.4.2-.7.4-1.1.5-.8.3-1.6.4-2.4.4-1.3-.3-2-.7-2.3-1.6zm2-3.7c-.4 1.1-.7 2-.7 2.8 0 .4.1.7.3.9.2.2.5.3.8.3.4 0 .7-.1 1.1-.2s.7-.4 1-.6c.7-.6 1.1-1.3 1.1-2.1 0-.7-.3-1.2-.9-1.4-.2-.1-.4-.1-.6-.1-.3 0-.6.1-1.1.2-.5 0-.8.1-1 .2zM244.8 74.8c0 .5.2.8.6.8.3 0 .5 0 .6-.1.2-.1.3-.1.3-.1.1 0 .2.1.2.2 0 .5-.3.9-.8 1.3s-1.1.5-1.7.3c-.4-.1-.6-.4-.8-.8-.1-.2-.1-.4-.1-.6 0-.3 0-.6.1-.9-.5 1.1-1.2 1.8-2 2.2-.3.2-.6.2-1 .2s-.7-.1-.9-.2c-.3-.1-.5-.3-.7-.6-.4-.5-.5-1.2-.5-2 0-1 .3-2 .9-3 .5-.9 1.2-1.7 2-2.2.8-.6 1.5-.9 2.2-.9.7 0 1.2.3 1.7 1 .4-.6.7-1 1-1 .3 0 .6.1.7.2.3.2.4.4.3.6-1.4 2.9-2.2 4.8-2.2 5.5.1-.1.1 0 .1.1zm-4.8 0c0 .7.2 1 .7 1 .3 0 .8-.3 1.2-.9.7-.8 1.4-2 1.9-3.4.2-.4.3-.9.4-1.3 0-.4-.2-.7-.5-.9-.1-.1-.3-.1-.5-.1s-.4.1-.7.2-.5.4-.8.6c-.3.3-.5.6-.7.9-.2.4-.4.7-.6 1.1-.2 1.1-.4 1.9-.4 2.8zM247.7 74.1c0-.5.1-1 .2-1.5s.3-1 .6-1.4c.2-.4.5-.8.9-1.2.3-.4.7-.7 1.1-1 .8-.6 1.7-.8 2.6-.8.9 0 1.6.4 1.9 1.1.1.3.2.6.2.9s-.1.7-.2.9c-.1.3-.2.5-.4.8-.3.5-.7.8-1.1.8-.4 0-.7-.1-.9-.3-.2-.2-.2-.4-.2-.7 0-.1.1-.1.2-.2l.3-.3c.4-.4.6-.8.6-1.4 0-.4-.2-.5-.7-.5-.5 0-1 .3-1.5.8-.8.8-1.3 1.8-1.6 3-.3 1.1-.2 1.8.2 2.3.2.3.5.4.9.4.6 0 1.3-.2 1.9-.7.2-.1.3-.3.4-.4.1-.1.2-.2.3-.2s.2 0 .2.1c.1.1.1.2.1.4 0 .3-.2.7-.5 1-.8.7-1.7 1.1-2.8 1.1-.9 0-1.7-.3-2.2-.8-.3-.5-.6-1.2-.5-2.2zM261.5 77.1c-1.3 0-2.3-1.2-3.1-3.7-.3.6-.6 1.1-.8 1.5l-.5 1.2c-.1.3-.3.6-.4.7-.1.2-.3.3-.4.3-.2 0-.3 0-.4-.1s-.2-.1-.3-.2c-.2-.2-.3-.4-.3-.6 0-.1.1-.3.2-.5l.3-.7c1.1-2.2 2-5 2.9-8.4.3-1.2.6-2.4.7-3.4.1-.5.3-.7.7-.7.2 0 .4.1.6.2.3.2.5.5.4.8 0 .3-.1.6-.1 1-.1.4-.2.7-.3 1.2s-.2.9-.4 1.3c-.4 1.2-.6 2-.8 2.6l-.8 2.2c-.1.3-.2.5-.2.6 1.3-.5 2.3-1.1 3-1.8.4-.4.6-.8.6-1.1 0-.2-.1-.3-.2-.4s-.2-.1-.2-.2v-.2c0-.1.1-.2.3-.3.2-.1.4-.2.6-.2s.5 0 .6.1.3.1.4.2c.3.2.4.5.4.8s-.1.7-.2 1c-.2.3-.4.6-.7.9-.6.5-1.7 1.1-3.1 1.6.2.8.5 1.4 1 2 .5.5.9.8 1.2.8.2 0 .4 0 .5-.1l.3-.2c.1 0 .1-.1.2-.1s.2.1.2.3c0 .1 0 .3-.1.4-.1.1-.1.2-.2.4s-.2.2-.4.4c-.2.3-.7.4-1.2.4zM269.6 75.2c-.9 1.3-1.8 2-2.9 2-1 0-1.6-.5-1.9-1.5-.1-.3-.2-.8-.2-1.3s.1-1 .2-1.5.3-1 .6-1.5.5-.9.9-1.3c.3-.4.7-.7 1.1-1 .8-.6 1.6-.9 2.4-.9.8 0 1.4.4 1.7 1.1l.2-.2.2-.2c.1-.1.3-.2.4-.2s.2 0 .4.1c.1 0 .2.1.4.2.3.2.4.3.3.5-.3.7-.6 1.3-.8 2l-1.3 4c-1 3.1-2.3 5.1-3.8 5.9-.4.2-.8.4-1.1.4h-.6c-.1 0-.2-.1-.4-.1-.2-.1-.3-.3-.3-.4 0-.2.1-.3.4-.4.3 0 .5-.2.8-.3s.6-.4.8-.6c1.2-1.1 2-2.7 2.5-4.8zm-2.5-3c-.2.4-.3.8-.4 1.3s-.1.8-.1 1.1v.6c0 .1.1.3.1.4.1.2.3.4.5.4s.4-.1.7-.2c.2-.2.4-.4.7-.6.2-.3.5-.6.7-1 .2-.4.5-.8.7-1.2.5-.9.8-1.9 1-2.7 0-.2-.1-.3-.3-.5-.3-.3-.6-.5-.9-.5-.3 0-.5.1-.8.2-.3.2-.5.4-.8.7-.2.3-.5.6-.7 1-.1.2-.3.6-.4 1zM273.9 76.9l-.3-.3c-.1-.1-.1-.2-.1-.3V76c0-.1.1-.2.1-.4 1.2-2.9 1.7-4.8 1.7-5.8 0-.3-.1-.5-.3-.6l-.2-.1c-.1 0-.1-.1-.1-.2s0-.2.1-.3.2-.2.3-.2c.2-.1.5-.2.8-.2.3 0 .5 0 .6.1.1.1.3.1.4.2.2.2.3.4.3.7s0 .5-.1.7-.1.5-.2.7c-.1.2-.1.4-.2.6-.1.2-.1.4-.1.5 0 .2-.1.3-.1.4.1-.1.2-.2.2-.4l.3-.6c.7-1.3 1.5-2.2 2.2-2.7.2-.1.5-.2.7-.2s.5.1.7.3c.2.2.3.4.3.7 0 .2 0 .4-.1.6 0 .2-.1.3-.2.5-.2.3-.4.5-.7.5-.1 0-.1 0-.2-.1l-.2-.2c-.2-.2-.4-.2-.5-.2s-.4.1-.6.3-.5.5-.8.9c-.9 1.2-1.6 2.5-2.2 4l-.4 1c-.1.2-.2.4-.3.5-.1.1-.2.2-.3.2-.1 0-.3 0-.4-.1s0-.2-.1-.2zM281.8 76.5c-.2-.2-.4-.5-.6-.9-.1-.4-.2-.8-.2-1.2s.1-1 .2-1.5.3-1 .5-1.4c.2-.5.5-.9.8-1.3.3-.4.7-.7 1-1 .8-.6 1.7-1 2.6-1 1.2 0 2 .5 2.4 1.6.3.7.3 1.7.1 2.7-.2 1-.7 1.9-1.3 2.7-.6.8-1.4 1.4-2.2 1.7-.4.2-.9.3-1.3.3s-.8-.1-1.1-.2-.7-.3-.9-.5zm1.6-4.2c-.2.4-.3.9-.4 1.3-.1.4-.1.9-.1 1.3s.1.7.2.9c.1.2.3.3.6.3s.5-.1.8-.3c.3-.2.5-.4.7-.7.2-.3.5-.6.7-1l.6-1.2c.3-.9.5-1.7.5-2.5 0-.6-.1-1-.4-1.2-.1-.1-.2-.1-.4-.1s-.4.1-.6.3c-.2.2-.5.4-.7.7-.2.3-.5.6-.7 1s-.6.8-.8 1.2zM298 75.4c.1 0 .2.1.2.2 0 .5-.2.9-.7 1.3-.3.2-.7.3-1.2.3-.4 0-.6-.1-.8-.3-.3-.3-.5-.7-.5-1.1 0-.6.2-1.4.7-2.6-.9 1.2-1.5 2-1.9 2.4l-.9.9c-.6.5-1.1.7-1.6.7-.7 0-1.2-.3-1.4-.9-.1-.2-.1-.4-.1-.6 0-.2 0-.5.1-.8l.3-.9c.1-.3.3-.7.4-1l.5-1c.6-1.3.8-2.1.7-2.3-.1-.1-.2-.2-.4-.3-.1 0-.1-.1-.1-.2s0-.2.1-.3c.1-.1.2-.2.3-.2.3-.1.6-.2.8-.2.3 0 .5 0 .6.1.1.1.3.1.4.2.2.2.3.4.3.6 0 .2 0 .5-.1.8l-.3.9c-.1.3-.3.7-.4 1-.4.9-.7 1.5-.8 1.8l-.3.7c-.2.4-.3.7-.3.8s0 .3.1.3c.1.1.1.1.3.1s.3-.1.5-.2.4-.3.6-.5.4-.5.7-.7c.2-.3.5-.6.7-.9.4-.6.7-1.1.9-1.4 1.2-2.1 1.9-3.3 1.9-3.4.2-.2.4-.4.6-.4s.4 0 .5.1c.1 0 .3.1.4.2.2.2.3.4.2.5-1.4 2.9-2.1 4.7-2.3 5.5v.5c0 .4.1.7.4.7.2 0 .4 0 .6-.1.2-.3.3-.3.3-.3zM305.9 69.8c-.2 0-.4.2-.8.5s-.6.6-.8.9l-.7.9-1.4 1.8-.8 1.6-.5 1c-.1.2-.2.4-.3.5-.1.1-.2.2-.4.2s-.3 0-.4-.1-.3-.1-.4-.2c-.2-.2-.3-.4-.3-.6 0-.1.1-.3.2-.5l.3-.7c.1-.2.2-.5.4-.8l.5-1.2c.7-1.7 1-2.8 1-3.3 0-.3-.1-.5-.3-.6l-.2-.1c-.1 0-.1-.1-.1-.2s0-.2.1-.3.2-.2.3-.2c.3-.1.5-.2.8-.2.3 0 .5 0 .6.1.1.1.3.1.4.2.2.2.3.4.3.6 0 .2 0 .4-.1.7-.1.2-.1.4-.2.7-.1.2-.2.4-.3.7-.1.2-.2.4-.2.6l-.2.4c0 .1-.1.1 0 .1.6-.9 1.1-1.4 1.3-1.7l.6-.7c.4-.5.8-.9 1-1 .5-.3.9-.5 1.2-.5s.5 0 .7.1.4.2.5.3c.3.3.5.7.5 1.1 0 .5-.1.9-.3 1.4-.2.5-.4.9-.5 1.2s-.3.6-.4.9c-.4 1-.6 1.6-.6 2.1 0 .2.2.3.5.3.2 0 .5-.1.7-.2.2-.1.3-.2.4-.2.1 0 .2.1.2.2 0 .5-.3.9-.8 1.3-.3.2-.7.4-1 .4s-.5 0-.7-.1c-.2-.1-.4-.2-.5-.3-.3-.3-.5-.7-.5-1.3 0-.7.2-1.5.6-2.5.3-.7.5-1.1.6-1.4l.3-.6c.2-.4.3-.7.3-.9s-.3-.4-.6-.4zM318.2 75.3c.1 0 .2.1.2.2 0 .5-.3.9-.8 1.3-.3.2-.7.4-1 .4-.3 0-.5 0-.7-.1-.2-.1-.3-.2-.5-.3-.3-.3-.5-.8-.5-1.4 0-.1 0-.3.1-.6-.5.7-.9 1.2-1.2 1.5-.7.6-1.3.9-2 .9-1 0-1.7-.5-2-1.4-.1-.3-.2-.8-.2-1.3s.1-1 .2-1.5.4-1 .6-1.5c.3-.5.6-.9.9-1.3.4-.4.7-.8 1.1-1 .8-.6 1.6-.9 2.3-.9s1.2.3 1.6.8c1-3.4 1.7-5.4 2.2-6 .2-.3.4-.4.7-.4.4 0 .7.1.9.3.1.1.1.1.1.2s0 .2-.1.4-.2.5-.4 1c-.5 1.3-.9 2.3-1.1 2.9-.5 1.6-.9 2.7-1.1 3.3l-.5 1.6c-.4 1.4-.6 2.3-.6 2.7s.1.6.4.6c.3 0 .5 0 .6-.1l.3-.2c.3-.1.4-.1.5-.1zm-5.9.6c.6 0 1.3-.6 2-1.7.8-1.2 1.3-2.5 1.7-3.9 0-.4-.2-.7-.5-.9-.1-.1-.3-.1-.5-.1s-.5.1-.7.2c-.3.2-.5.4-.8.6s-.5.6-.7.9c-.2.3-.4.7-.6 1.1-.4.8-.5 1.7-.5 2.5-.1.8.1 1.3.6 1.3z"/></g><g fill="#AF747C"><path d="M141.8 166.3c1-.7 2-2.6 3-5.6.6-1.8 1-3.3 1.2-4.7.1-.4.1-.7.1-.9-.2 0-.5.1-.7.2l-.6.4c-.2.1-.4 0-.7-.2s-.4-.5-.4-.6.1-.3.3-.4l.6-.3c.5-.2.9-.2 1.2-.2.3 0 .6 0 .8.1.2 0 .5.1.7.2.5.3.7.6.7 1.1 0 .9-.3 2.3-.9 4.3-.9 3.2-2.1 5.5-3.3 6.8-.3.4-.7.6-1.1.7-.1 0-.2.1-.3.1-.1 0-.2 0-.3-.1-.1 0-.2-.1-.2-.1-.1-.1-.2-.2-.2-.4s0-.4.1-.4zM154.7 159.8c-.3 0-.9.5-1.8 1.4-.7.7-1.1 1.3-1.4 1.7l-.8 1-.8 1.6-.5 1c-.1.2-.2.4-.3.5-.1.1-.2.2-.4.2s-.3 0-.4-.1-.3-.1-.4-.2c-.2-.2-.3-.4-.3-.6 0-.1.1-.3.2-.5l.3-.7c.1-.2.2-.5.4-.8l.5-1.2c.7-1.7 1-2.8 1-3.3 0-.3-.1-.5-.3-.6l-.2-.1c-.1 0-.1-.1-.1-.2s0-.2.1-.3.2-.2.3-.2c.3-.1.5-.2.8-.2.3 0 .5 0 .6.1s.3.1.4.2c.2.2.3.4.3.6 0 .2 0 .4-.1.7-.1.2-.1.4-.2.7-.1.2-.2.4-.3.7-.2.5-.4.8-.4.9s-.1.2 0 .1c1-1.4 1.7-2.2 1.9-2.4.4-.5.8-.9 1-1 .5-.3.9-.5 1.3-.5s.7.1 1 .4c.2.3.4.6.4 1s-.1.8-.3 1.3c-.2.5-.3.8-.4 1l1.3-1.7.7-.8c.4-.5.8-.8 1.1-.9.3-.1.6-.2.8-.2.2 0 .4 0 .6.1s.4.2.5.3c.3.3.4.7.4 1.1 0 .4-.1.9-.3 1.4-.2.5-.4.9-.5 1.2-.2.3-.3.6-.4.9-.4.9-.6 1.6-.6 2 0 .3.1.5.4.5.2 0 .5-.1.7-.2.2-.1.3-.2.4-.2.1 0 .2.1.2.2 0 .5-.3.9-.8 1.3-.3.2-.7.4-1 .4s-.5 0-.7-.1c-.2-.1-.3-.2-.5-.3-.3-.3-.5-.7-.5-1.2s.1-1 .2-1.4c.1-.4.3-.8.4-1.2.2-.4.3-.8.5-1.1.2-.3.3-.6.4-.8.2-.4.3-.7.3-.9 0-.2-.1-.3-.4-.3-.3 0-.9.5-1.7 1.5-.6.8-1 1.4-1.3 1.7l-.6.9-.8 1.6-.4 1c-.1.2-.2.4-.3.5-.1.1-.2.2-.3.2-.1 0-.3 0-.4-.1-.1 0-.3-.1-.3-.2-.2-.2-.3-.3-.3-.5s.1-.4.2-.8c.1-.3.3-.7.5-1.1l1.2-2.5c.4-.9.6-1.5.6-1.8 0-.6-.1-.7-.4-.7zm.9 2.4zM169.2 164.8c0 .5.2.8.6.8.3 0 .5 0 .6-.1.2-.1.3-.1.3-.1.1 0 .2.1.2.2 0 .5-.3.9-.8 1.3s-1.1.5-1.7.3c-.4-.1-.6-.4-.8-.8-.1-.2-.1-.4-.1-.6 0-.3 0-.6.1-.9-.5 1.1-1.2 1.8-2 2.2-.3.2-.6.2-1 .2s-.7-.1-.9-.2c-.3-.1-.5-.3-.7-.6-.4-.5-.5-1.2-.5-2 0-1 .3-2 .9-3 .5-.9 1.2-1.7 2-2.2.8-.6 1.5-.9 2.2-.9.7 0 1.2.3 1.7 1 .4-.6.7-1 1-1 .3 0 .6.1.7.2.3.2.4.4.3.6-1.4 2.9-2.2 4.8-2.2 5.5.1-.1.1 0 .1.1zm-4.8 0c0 .7.2 1 .7 1 .3 0 .8-.3 1.2-.9.7-.8 1.4-2 1.9-3.4.2-.4.3-.9.4-1.3 0-.4-.2-.7-.5-.9-.1-.1-.3-.1-.5-.1s-.4.1-.7.2-.5.4-.8.6c-.3.3-.5.6-.7.9-.2.4-.4.7-.6 1.1-.2 1.1-.4 1.9-.4 2.8zM177.1 165.2c-.9 1.3-1.8 2-2.9 2-1 0-1.6-.5-1.9-1.5-.1-.3-.2-.8-.2-1.3s.1-1 .2-1.5.3-1 .6-1.5.5-.9.9-1.3c.3-.4.7-.7 1.1-1 .8-.6 1.6-.9 2.4-.9.8 0 1.4.4 1.7 1.1l.2-.2.2-.2c.1-.1.3-.2.4-.2s.2 0 .4.1c.1 0 .2.1.4.2.3.2.4.3.3.5-.3.7-.6 1.3-.8 2l-1.3 4c-1 3.1-2.3 5.1-3.8 5.9-.4.2-.8.4-1.1.4h-.6c-.1 0-.2-.1-.4-.1-.2-.1-.3-.3-.3-.4 0-.2.1-.3.4-.4.3 0 .5-.2.8-.3s.6-.4.8-.6c1.1-1.1 1.9-2.7 2.5-4.8zm-2.6-3c-.2.4-.3.8-.4 1.3s-.1.8-.1 1.1v.6c0 .1.1.3.1.4.1.2.3.4.5.4s.4-.1.7-.2c.2-.2.4-.4.7-.6.2-.3.5-.6.7-1 .2-.4.5-.8.7-1.2.5-.9.8-1.9 1-2.7 0-.2-.1-.3-.3-.5-.3-.3-.6-.5-.9-.5-.3 0-.5.1-.8.2-.3.2-.5.4-.8.7-.2.3-.5.6-.7 1 0 .2-.2.6-.4 1zM181.4 164.1c0-.5.1-1 .2-1.4.1-.5.3-.9.6-1.3.2-.4.5-.8.8-1.2s.7-.7 1.1-1c.8-.6 1.6-.9 2.5-.9 1 0 1.6.4 2 1.2.1.3.2.6.2 1s-.1.7-.2 1c-.1.3-.3.6-.6.9-.2.3-.5.5-.9.7-.3.2-.7.4-1.1.5-.8.3-1.7.4-2.6.4v.4c0 .2 0 .3.1.5 0 .2.1.4.2.5.2.3.5.5.9.5.7 0 1.3-.2 1.9-.6.2-.1.4-.3.5-.4.1-.1.3-.2.4-.2.1 0 .2.1.3.2.1.1.1.3.1.4 0 .3-.1.6-.3.8-.7.7-1.8 1.1-3.2 1.1-.8 0-1.5-.3-2-.8-.7-.6-.9-1.4-.9-2.3zm5-4.8c-.6 0-1.2.4-1.7 1.2-.5.7-.8 1.5-1.1 2.5 1-.1 1.8-.5 2.5-1.1.6-.6 1-1.2 1-1.8-.1-.5-.3-.8-.7-.8z"/></g><g fill="none" stroke="#EACF1A" stroke-width="2.545" stroke-miterlimit="10"><path d="M339.2 280.8v2.5h-2.5"/><path stroke-dasharray="5.121,5.121" d="M331.6 283.3H6.4"/><path d="M3.8 283.3H1.3v-2.5"/><path stroke-dasharray="5.0822,5.0822" d="M1.3 275.7V44.5"/><path d="M1.3 41.9v-2.5h2.5"/><path stroke-dasharray="5.121,5.121" d="M8.9 39.4h325.2"/><path d="M336.7 39.4h2.5v2.5"/><path stroke-dasharray="5.0822,5.0822" d="M339.2 47v231.2"/></g><g fill="none" stroke="#684B2A" stroke-width="2" stroke-miterlimit="10"><path d="M338.3 247.7h-1.1"/><path stroke-dasharray="2.2238,2.2238" d="M334.9 247.7H2.5"/><path d="M1.4 247.7H.3"/></g><g fill="none" stroke="#684B2A" stroke-width="2" stroke-miterlimit="10"><path d="M327.9 76.1h1.1"/><path stroke-dasharray="2.7217,2.7217" d="M331.7 76.1h4.1"/><path d="M337.2 76.1h1.1"/></g><g fill="none" stroke="#684B2A" stroke-width="2" stroke-miterlimit="10"><path d="M.3 76.1h1.1"/><path stroke-dasharray="2.2104,2.2104" d="M3.6 76.1h211.1"/><path d="M215.8 76.1h1.1"/></g><g fill="none" stroke="#7479B2" stroke-miterlimit="10"><path d="M331.2 239.3v1.1h-1.1"/><path stroke-dasharray="2.2146,2.2146" d="M327.9 240.4H10.1"/><path d="M9 240.4H7.9v-1.1"/><path stroke-dasharray="2.1942,2.1942" d="M7.9 237.1V84.6"/><path d="M7.9 83.5v-1.1H9"/><path stroke-dasharray="2.2146,2.2146" d="M11.2 82.4H329"/><path d="M330.1 82.4h1.1v1.1"/><path stroke-dasharray="2.1942,2.1942" d="M331.2 85.7v152.5"/></g><g fill="none" stroke="#AF747C" stroke-width=".936" stroke-miterlimit="10"><path d="M323.2 233.1v1.1h-1"/><path stroke-dasharray="2.0766,2.0766" d="M320.1 234.2H18"/><path d="M16.9 234.2h-1v-1.1"/><path stroke-dasharray="2.0805,2.0805" d="M15.9 231.1V90.6"/><path d="M15.9 89.6v-1h1"/><path stroke-dasharray="2.0766,2.0766" d="M19 88.6h302.2"/><path d="M322.2 88.6h1v1"/><path stroke-dasharray="2.0805,2.0805" d="M323.2 91.7v140.4"/></g></svg>