<svg xmlns="http://www.w3.org/2000/svg" width="313.1" height="317"><g fill="none" stroke="#D6D6D6" stroke-width="1.006" stroke-miterlimit="10"><path d="M262.6 51.1v1.5"/><path stroke-dasharray="2.9845,2.9845" d="M262.6 55.5V263"/><path d="M262.6 264.5v1.5h-1.5"/><path stroke-dasharray="3.0321,3.0321" d="M258.1 266H53.4"/><path d="M51.9 266h-1.5v-1.5"/><path stroke-dasharray="2.9845,2.9845" d="M50.4 261.5V54"/><path d="M50.4 52.6v-1.5h1.5"/><path stroke-dasharray="3.0321,3.0321" d="M55 51.1h204.6"/><path d="M261.1 51.1h1.5"/></g><path fill="none" stroke="#36CC89" stroke-width="3" stroke-miterlimit="10" stroke-dasharray="12,8" d="M232.3 82.4c41 41 40.3 108.2-1.6 150s-109 42.6-150 1.6-40.3-108.2 1.6-150 109-42.6 150-1.6z"/><path fill="#DCF4DF" d="M80.4 98.1c2.8-2.2 5.4-4.5 7.9-7-1.2-.9-2.3-1.8-3.5-2.7-4.7 7.8-10.7 14.5-17.9 20 .9 1.2 1.8 2.3 2.7 3.5 15.9-13.8 30.9-28.5 45.2-43.9-1.2-.9-2.3-1.8-3.5-2.7-16.3 22.1-33.6 43.4-51.7 64-1.9 2.1 1.2 5.3 3.1 3.1 10.6-11.7 21.2-23.4 31.9-35.1 5.3-5.8 10.6-11.7 15.9-17.5 2.7-2.9 5.3-5.8 8-8.8 2.8-3.1 5.5-6.9 9.7-8.1-.7-1.2-1.4-2.5-2.2-3.7-24 29.8-49.3 58.6-74.2 87.6-1.7 2 .4 4.6 2.7 3.5 8.4-4 14.7-10.9 21.2-17.3 8.2-8.1 16.2-16.3 24.3-24.6 15.6-16.1 30.8-32.5 45.7-49.2-1.2-.9-2.3-1.8-3.5-2.7-12.2 19.7-26.5 37.9-41.8 55.2-7.5 8.5-15.3 16.8-23.3 25-7.8 8.1-16.5 15.8-22.3 25.6-1.2 2 1.1 4 3 3 44.7-21.7 64.3-71.3 100.7-102.6l-3.1-3.1c-18.4 18.7-33.5 40-49.4 60.7-8 10.5-16.5 20.7-25.6 30.3-4.6 4.8-9.5 9.3-14.5 13.7-4.3 3.8-8 7.8-10.1 13.2-.8 2.1 1.7 3.2 3.3 2.5 52.8-22.7 60-90.8 106.8-120.4-.9-1.2-1.8-2.3-2.7-3.5-17.2 22.2-35 44.1-51.4 66.8-7.8 10.8-14.5 22.4-20.1 34.4-2.8 6.1-5.8 11.5-10.7 16.1-4.4 4.2-9.9 7.3-15.2 10.4-2.5 1.5-.3 5.1 2.2 3.8 11.3-5.4 19-15.2 26.1-25.2 8.9-12.4 18.1-24.5 28-36.1 20.1-23.6 42.3-45.5 64.3-67.3 1.7-1.6-.1-4.2-2.2-3.7-20.1 4.4-32.1 25.3-43.3 40.6-14.8 20.3-29.1 41.1-42.8 62.2-1.6 2.4 2.3 4.6 3.8 2.2 12.7-19.5 25.8-38.6 39.4-57.5 6.5-9.1 13-18.3 20.2-26.9 6.4-7.6 14-14.2 23.8-16.4-.7-1.2-1.4-2.5-2.2-3.7-21.2 21-42.4 42-62 64.5-9.7 11.1-18.9 22.7-27.5 34.7-7.9 11-15.5 22.7-28.1 28.7.7 1.3 1.5 2.6 2.2 3.8 9.7-5.8 18.7-11.8 24.4-21.9 3.2-5.7 5.6-11.8 8.7-17.6 3.4-6.4 7.2-12.6 11.3-18.6 8-11.9 17.2-23 26-34.3 9.3-12 18.6-24 27.9-36.1 1.4-1.9-.4-5-2.7-3.5-46.7 29.7-54.3 97.9-106.8 120.4 1.1.8 2.2 1.7 3.3 2.5 2.4-6.1 7.8-10.2 12.6-14.5 4.6-4.1 8.9-8.5 13.2-12.9 8.6-9.1 16.4-18.9 24-28.8 15.7-20.3 30.5-41.4 48.7-59.5 2.1-2.1-1-5-3.1-3.1-36.1 31.1-55.5 80.4-99.8 101.9l3 3c5.9-9.9 14.9-17.7 22.8-26 7.9-8.2 15.7-16.6 23.2-25.1 15.2-17.2 29.2-35.3 41.3-54.8 1.3-2.1-1.8-4.6-3.5-2.7-14.5 16.2-29.3 32.2-44.4 47.8-7.5 7.8-15.2 15.6-22.9 23.3-7 7.1-13.9 15-23.1 19.3.9 1.2 1.8 2.3 2.7 3.5 24.9-29.1 50.2-57.8 74.2-87.6 1.3-1.6.2-4.4-2.2-3.7-6.2 1.7-10.2 7.6-14.3 12.1-5.8 6.3-11.5 12.7-17.3 19C83 102.7 71 115.9 59.1 129l3.1 3.1c18.4-20.9 35.9-42.6 52.4-64.9 1.5-2.1-1.8-4.5-3.5-2.7C97.3 80.3 82.2 95 66.4 108.8c-1.9 1.6.7 5 2.7 3.5 7.8-6 14.4-13.2 19.5-21.6 1.3-2.2-1.7-4.5-3.5-2.7-2.5 2.5-5.1 4.8-7.9 7-2.2 1.7.9 4.9 3.2 3.1z"/><path fill="#DCF4DF" d="M65.3 203.3c22.5-23.1 44.9-46.4 67.2-69.7 11.4-11.9 22.7-23.8 34-35.8 9.9-10.4 20.8-20.6 27.7-33.4 1.3-2.4-1.7-4.5-3.7-2.8-13.9 11.6-28.1 22.8-41.3 35.2-6 5.6-11.6 11.7-16.5 18.2-5.6 7.3-9.5 15.6-13.6 23.7-7.7 15.4-18 29.1-30.6 40.8-9.3 8.6-26 16.5-26.3 31 0 2.2 2.5 2.8 4 1.7 27.8-21.9 50.9-47.7 72.5-75.5 20.2-25.8 40.6-52.5 68.6-70.3-.9-1.2-1.9-2.4-2.8-3.7-12.2 11.5-22.4 23-30.1 38-8 15.5-19 28.7-30.5 41.8-22.5 25.9-47.5 49.6-74.2 71.1-1.9 1.5.1 4.5 2.3 3.9 14.1-4.1 25.2-14 35.7-24 12.6-12 24.9-24.4 37-37 23.6-24.8 45.8-50.8 66.8-77.8-1.2-.9-2.4-1.9-3.7-2.8-6.7 13.2-13.6 26.5-22 38.7-9.6 13.8-21.9 25.5-33.6 37.5-23.3 24-46.7 48-70 72-1.8 1.8.6 5.3 2.8 3.7 25.7-18.5 48.3-40.7 69.9-63.7 23-24.6 45.4-49.8 68-74.8-1.3-.8-2.6-1.5-3.9-2.3-7.8 33.2-38.1 55-61.2 77.5-24.3 23.7-46.8 49.2-67.6 76-1.5 1.9.5 5.4 2.8 3.7 24.8-19 46.4-41.5 67.6-64.3 10.8-11.6 21.5-23.2 32.6-34.5 11.4-11.6 23.5-25.5 39-31.7-.8-1.3-1.5-2.6-2.3-3.9-8.7 7-17.4 14-24.9 22.2-7.6 8.3-14 17.7-21.2 26.5-14.4 17.7-30.3 34.2-47.4 49.5-2.2 2 1.1 5.3 3.3 3.3 17-15.3 32.9-31.8 47.4-49.5 7.2-8.7 13.7-18 21.2-26.5 7.4-8.4 16.2-15.3 24.9-22.2 1.8-1.4-.1-4.7-2.3-3.9-13.8 5.5-24.4 16.4-34.8 26.6-11.7 11.5-22.9 23.5-34.1 35.5-22.5 24.2-45.1 48.5-71.5 68.7.9 1.2 1.9 2.4 2.8 3.7 21.5-27.8 45-54.1 70.3-78.6 23.1-22.4 52.1-44 59.8-77 .5-2.2-2.3-4.1-3.9-2.3-22.2 24.5-44.3 49.2-66.8 73.4-21.6 23.3-44.3 45.7-70.2 64.3.9 1.2 1.9 2.4 2.8 3.7 23.8-24.5 47.6-48.9 71.4-73.4 11.1-11.4 22.5-22.7 31.9-35.6 9.1-12.5 16.1-26.4 23.1-40.2 1.1-2.2-2-5-3.7-2.8-20.2 26-41.7 51.1-64.3 75.1-11.1 11.8-22.5 23.3-34.1 34.5-11.4 11.1-23.3 23.3-39 27.9.8 1.3 1.5 2.6 2.3 3.9 26.3-21.1 50.7-44.5 73-69.7 10.8-12.3 21.9-24.8 29.8-39.2 4.3-7.8 8-15.7 13.5-22.8 5.5-7 12-13.1 18.5-19.2 1.9-1.8-.6-5.1-2.8-3.7-27.5 17.5-47.8 43.1-67.5 68.5-22.4 28.7-45.9 55.4-74.5 78 1.3.6 2.7 1.1 4 1.7.2-7.7 7-13.1 12.5-17.5 5.9-4.8 11.8-9.4 17.2-14.8 11.4-11.3 20.3-24.5 27.4-38.8 3.8-7.6 7.7-15.1 12.7-22.1 5-6.8 11-12.8 17.1-18.5 12.8-11.9 26.7-22.8 40.1-34-1.2-.9-2.4-1.9-3.7-2.8-6.9 13-18.3 23.3-28.3 33.9-10.9 11.5-21.7 22.9-32.7 34.4-22.3 23.6-44.7 46.8-67.2 70-2.1 2.1 1.2 5.4 3.3 3.3z"/><path fill="#DCF4DF" d="M113.3 238.2c11.4-7.9 20.7-18.6 30.3-28.5 10.9-11.2 22-22.2 33-33.2 22.6-22.5 45.6-44.6 68.8-66.5-1.3-.8-2.6-1.5-3.9-2.3-.6 3.8-3 6.3-5.5 9l-9 9.9c-5.6 6.1-11.2 12.2-16.9 18.2-11.3 12.1-22.8 24-34.4 35.8s-23.4 23.4-35.3 34.9l-18 17.1c-4.9 4.6-9.8 8.9-12.3 15.3-.5 1.4.8 3 2.3 3 13.8 0 24.7-8.6 34.1-17.7 5.9-5.7 11.6-11.7 17.4-17.5 5.7-5.7 11.6-11.3 16.6-17.7 4.7-6.2 8-13 13.3-18.9 5.8-6.6 11.9-13 18-19.4 11.8-12.3 24.1-24.3 36.6-35.8l-3.3-3.3c-23.9 24.6-47.8 49.1-73.2 72-21.5 19.4-44.3 38.8-56.6 65.6-.7 1.5.1 3.6 2 3.5 7-.2 12-4.5 17.3-8.6 6.3-4.9 12.6-9.9 18.8-15 12.8-10.5 25.2-21.5 36.9-33.2 11.4-11.4 21.9-23.6 31.4-36.6s16.2-30 29.5-39.6c-.9-1.2-1.9-2.4-2.8-3.7-10.2 11.4-22.2 20.6-31.8 32.5-9.2 11.3-17 23.7-25.7 35.3-16.3 21.8-41.6 38-51.2 64.4-.6 1.7 1.3 3.4 2.9 2.9 11-3.4 19.8-10.6 28-18.5 10-9.6 19.9-19.4 29.4-29.6 17.9-19.2 33-41.1 52.8-58.5 2-1.8-.6-5-2.8-3.7-16.5 10.1-28.4 25.4-41 39.6-6.8 7.7-14.2 14.5-22.1 21.2-7 5.9-12.9 13.3-13.2 22.8 0 1.2 1.1 2.4 2.3 2.3 19.8-1.2 33.8-15.5 45.5-30 14-17.3 26.8-35.6 39.8-53.6 1.6-2.1-2-4.9-3.7-2.8-21.7 27.1-45.1 52.8-69.9 77-2.2 2.1 1.1 5.4 3.3 3.3 24.8-24.2 48.2-49.9 69.9-77-1.2-.9-2.4-1.9-3.7-2.8-11.7 16.1-23.3 32.4-35.6 48.2-11.6 14.9-25.3 31.9-45.7 33.1l2.3 2.3c.3-10.2 8.5-16.8 15.7-22.8 7-5.8 13.2-12.3 19.2-19.1 12-13.6 23.4-28.1 39-37.7-.9-1.2-1.9-2.4-2.8-3.7-18.9 16.5-33.5 37.1-50.2 55.7-9.1 10-18.8 19.5-28.4 29-8.6 8.5-17.6 17.1-29.5 20.7l2.9 2.9c4.7-12.9 13.7-23.1 23.2-32.7 9.2-9.4 18.5-18.6 26.5-29.1 9-11.7 16.8-24.2 26-35.8 9.5-12 21.7-21.1 31.8-32.5 1.7-1.9-.6-5.3-2.8-3.7-11.6 8.3-17.7 21.3-25.4 32.9-8.9 13.6-19.4 26.1-30.6 37.9-11 11.6-22.8 22.4-35 32.7-6.1 5.2-12.3 10.2-18.6 15.2-6.1 4.9-13.8 13.3-22 13.6.7 1.2 1.3 2.3 2 3.5 12.4-27 35.5-46.3 57.1-65.8 25-22.6 48.5-46.8 72-70.9 2.1-2.2-1.1-5.3-3.3-3.3-11.7 10.7-23 21.7-34 33.1-10.6 10.9-22.4 21.9-30.2 35.1-8 13.5-20.5 24-31.5 35-10.1 10.2-21.5 22.6-37 22.5.8 1 1.5 2 2.3 3 2.7-7 9.9-12.1 15.2-17.1 6-5.7 12-11.4 17.9-17.2 11.9-11.5 23.6-23.2 35.2-35 11.6-11.8 23-23.8 34.3-35.9 5.6-6 11.2-12.1 16.8-18.3 4.4-4.8 10.8-10 11.8-16.7.3-2.2-2.1-4-3.9-2.3-22.3 20.9-44.3 42.2-66.1 63.7-11.1 11-22.1 22.1-33.1 33.2-10.2 10.4-20 22.2-32.1 30.6-2.1 1.8.2 5.8 2.7 4.1z"/><path fill="#DCF4DF" d="M174.1 250.7c27.3-28.8 56.1-56.1 86.3-81.7-1.2-.9-2.4-1.9-3.7-2.8-18.8 31.7-46.1 56.9-73 81.5-2 1.8.6 5 2.8 3.7 12.2-7 22-15.8 29.8-27.5 8-12.1 14.9-26.6 29-32.5l-2.9-2.9c-4.8 18.7-15.5 35.1-30.6 47.2-2.4 1.9 1 5.2 3.3 3.3 15.6-12.5 26.7-29.8 31.8-49.2.4-1.5-1.1-3.6-2.9-2.9-12.6 5.3-20.3 16.2-27.3 27.5-4.1 6.6-8.2 13.1-13.5 18.8-5.5 5.8-12.2 10.4-19.2 14.3.9 1.2 1.9 2.4 2.8 3.7 27.3-24.9 54.8-50.4 73.8-82.5 1.4-2.4-1.7-4.5-3.7-2.8-30.2 25.7-59 52.9-86.3 81.7-1.9 2 1.4 5.3 3.5 3.1z"/><path fill="#DCF4DF" d="M167.5 259.2c12.4-7.2 24.6-14.8 36.5-22.8 2.1-1.4.8-5.3-1.8-4.3-3.3 1.4-6.7 2.7-10 4.1.8 1.3 1.5 2.6 2.3 3.9 2.3-2.5 4.3-5.1 6.1-8 2.1-3.5 3.3-7.6 6.7-10.2 2.4-1.8.1-5.8-2.4-4-6.3 4.7-8.4 13.2-13.8 18.9-1.5 1.6 0 4.8 2.3 3.9 3.3-1.4 6.7-2.7 10-4.1-.6-1.4-1.2-2.8-1.8-4.3-11.9 8-24.1 15.6-36.5 22.8-2.6 1.6-.2 5.6 2.4 4.1z"/><g fill="#36CC89"><path d="M111 163.6c2-1.5 4-5.2 6-11.3 1.2-3.5 2-6.7 2.4-9.5.1-.8.2-1.4.2-1.8-.5 0-.9.1-1.3.4l-1.3.7c-.4.2-.8 0-1.4-.5-.6-.5-.9-.9-.8-1.3s.2-.6.6-.9c.3-.2.7-.4 1.2-.6.9-.3 1.7-.5 2.4-.5s1.2 0 1.7.1.9.3 1.3.5c.9.5 1.4 1.3 1.4 2.3 0 1.7-.5 4.6-1.7 8.7-1.9 6.5-4.1 11-6.7 13.7-.7.7-1.4 1.2-2.2 1.5-.2.1-.4.1-.6.1s-.4 0-.6-.1c-.2-.1-.3-.2-.4-.3-.2-.2-.4-.5-.4-.7 0-.2.1-.4.2-.5zM137 150.6c-.7 0-1.9 1-3.7 2.9-1.3 1.5-2.3 2.6-2.9 3.4l-1.6 2c-.7 1.3-1.2 2.3-1.6 3.2l-.9 2c-.2.5-.5.8-.6 1-.2.2-.4.3-.7.3s-.6-.1-.9-.2c-.3-.1-.5-.3-.7-.4-.4-.4-.7-.8-.7-1.2 0-.2.1-.5.4-1l.7-1.4c.2-.4.4-.9.7-1.6l1-2.4c1.4-3.4 2-5.6 2-6.6 0-.5-.2-.9-.5-1.2l-.3-.2c-.1-.1-.2-.2-.2-.4s.1-.4.2-.6c.2-.2.4-.3.6-.5.5-.3 1-.4 1.6-.4s.9.1 1.2.2c.3.1.6.3.8.5.4.4.7.8.7 1.3s-.1.9-.2 1.3-.3.9-.4 1.3c-.2.5-.4.9-.6 1.3-.5 1-.7 1.6-.9 1.8-.1.2-.1.3-.1.3 2.1-2.7 3.4-4.3 3.8-4.8.9-1 1.6-1.7 2.1-2.1.9-.7 1.8-1 2.6-1s1.5.3 1.9.8c.5.5.7 1.2.7 2 0 .7-.2 1.6-.6 2.5-.4 1-.6 1.7-.7 2l2.5-3.3 1.4-1.7c.8-1 1.6-1.6 2.2-1.9.6-.3 1.2-.4 1.6-.4s.8.1 1.2.2c.4.1.7.4 1 .6.6.6.9 1.3.9 2.2 0 .9-.2 1.8-.6 2.8-.4.9-.8 1.7-1.1 2.3l-.9 1.8c-.8 1.8-1.3 3.2-1.3 4.1 0 .6.3.9.8.9s.9-.1 1.3-.3c.4-.2.7-.3.8-.3.2 0 .4.1.4.4 0 1-.5 1.9-1.6 2.6-.7.5-1.3.7-1.9.7-.6 0-1-.1-1.4-.2-.4-.1-.7-.4-1-.7-.6-.7-1-1.5-1-2.5s.1-1.9.4-2.8c.3-.8.6-1.7.9-2.4.3-.8.7-1.5 1-2.2s.6-1.2.8-1.6c.4-.8.6-1.4.6-1.8 0-.4-.2-.7-.7-.7-.6 0-1.7 1-3.3 3.1-1.2 1.6-2.1 2.7-2.5 3.4l-1.2 1.7c-.7 1.3-1.2 2.3-1.5 3.2l-.9 2c-.2.5-.4.8-.6 1-.2.2-.4.3-.7.3s-.6 0-.8-.1c-.3-.1-.5-.2-.7-.4-.4-.3-.7-.7-.7-1.1s.1-.9.4-1.5c.2-.6.6-1.4.9-2.2l2.4-5.1c.9-1.9 1.3-3.1 1.3-3.6.1-.3-.2-.6-.6-.6zm1.7 4.9c0-.1 0 0 0 0zM166 160.6c0 1.1.4 1.6 1.1 1.6.5 0 .9-.1 1.3-.2.3-.2.6-.2.7-.2.2 0 .4.1.4.4 0 1-.5 1.8-1.5 2.5-1.1.7-2.2.9-3.3.6-.7-.3-1.3-.8-1.7-1.7-.2-.4-.3-.9-.3-1.2 0-.6.1-1.2.2-1.9-1.1 2.2-2.4 3.7-4 4.5-.6.3-1.3.5-2 .5s-1.3-.1-1.9-.4c-.5-.3-1-.7-1.3-1.2-.7-1.1-1.1-2.4-1-4.1.1-2 .7-4 1.8-6 1-1.8 2.4-3.3 4-4.5 1.6-1.2 3.1-1.8 4.5-1.8s2.5.6 3.4 1.9c.8-1.3 1.5-1.9 2.1-1.9.7 0 1.1.1 1.5.4.6.5.9.9.7 1.2-2.9 5.9-4.4 9.6-4.4 11-.3.1-.3.3-.3.5zm-9.5.1c0 1.4.4 2.1 1.3 2.1.7 0 1.5-.6 2.5-1.7 1.4-1.7 2.7-4 3.8-6.8.4-.9.7-1.8.9-2.7 0-.8-.4-1.4-1-1.7-.2-.1-.5-.2-.9-.2s-.9.1-1.4.4c-.5.3-1.1.7-1.6 1.2s-1 1.1-1.4 1.8c-.4.7-.8 1.5-1.2 2.3-.7 1.8-1 3.5-1 5.3zM181.9 161.4c-1.7 2.6-3.7 3.9-5.8 3.9-1.9 0-3.2-1-3.9-3.1-.2-.7-.3-1.6-.3-2.6s.1-2 .4-3.1.7-2 1.2-2.9c.5-.9 1.1-1.8 1.8-2.5.7-.8 1.4-1.4 2.2-2 1.6-1.2 3.3-1.8 4.9-1.8s2.8.8 3.4 2.3c.1-.1.3-.3.4-.5.1-.2.2-.3.4-.4.3-.3.6-.4.8-.4s.5 0 .7.1c.2.1.5.2.7.3.6.3.8.6.6.9-.6 1.4-1.2 2.7-1.6 4l-2.5 8.1c-2 6.2-4.6 10.2-7.6 12-.8.5-1.5.8-2.1.8-.6.1-1 .1-1.3 0-.3-.1-.5-.2-.7-.3-.4-.3-.7-.5-.7-.8 0-.4.3-.6.8-.7.5-.1 1.1-.3 1.7-.6s1.1-.7 1.7-1.2c2.1-2 3.7-5.2 4.8-9.5zm-5.1-5.9c-.3.8-.5 1.7-.7 2.5-.2.9-.3 1.6-.3 2.1 0 .6 0 1 .1 1.3s.1.5.2.8c.2.5.6.7 1 .7s.9-.2 1.3-.5.9-.7 1.4-1.3c.5-.6 1-1.2 1.4-1.9.5-.7.9-1.5 1.4-2.4 1-1.9 1.6-3.7 2-5.5-.1-.3-.3-.6-.6-1-.7-.6-1.2-.9-1.8-.9s-1.1.2-1.6.5-1 .8-1.5 1.3c-.5.6-.9 1.2-1.3 1.9s-.7 1.5-1 2.4zM190.6 159.2c0-1 .2-2 .5-2.9.3-.9.7-1.8 1.2-2.7s1-1.7 1.7-2.4c.6-.8 1.4-1.4 2.1-2 1.6-1.2 3.3-1.8 5-1.8 2 0 3.3.8 3.9 2.4.2.6.3 1.2.3 2s-.2 1.4-.4 2.1-.7 1.2-1.1 1.7c-.5.5-1.1 1-1.7 1.4s-1.4.8-2.2 1.1c-1.6.6-3.4.9-5.2.9 0 .2-.1.4-.1.7 0 .3 0 .7.1 1.1.1.4.2.7.4 1.1.4.7 1 1 1.8 1 1.3 0 2.6-.4 3.9-1.2.4-.3.8-.5 1.1-.8s.5-.4.7-.4.4.1.5.4c.2.2.2.5.2.8 0 .6-.2 1.1-.5 1.6-1.4 1.4-3.6 2.2-6.5 2.2-1.7 0-3-.5-4.1-1.5-1.1-1.3-1.7-2.9-1.6-4.8zm10-9.6c-1.2 0-2.4.8-3.5 2.5-.9 1.4-1.7 3.1-2.3 5.1 1.9-.2 3.6-1 5-2.3 1.3-1.2 1.9-2.4 1.9-3.6s-.3-1.7-1.1-1.7z"/></g><path fill="none" stroke="#FCC515" stroke-width="5" stroke-miterlimit="10" d="M235.5 81.3l6.9-5.8"/><path fill="#FCC515" d="M245 81.5l4.3-11.7-12.3 2.1z"/><path fill="none" stroke="#FCC515" stroke-width="5" stroke-miterlimit="10" d="M231 85l-6.9 5.7"/><path fill="#FCC515" d="M221.5 84.8l-4.3 11.6 12.3-2z"/><g><path fill="none" stroke="#FCC515" stroke-width="5" stroke-miterlimit="10" d="M235.5 81.3l6.9-5.8"/><path fill="#FCC515" d="M245 81.5l4.3-11.7-12.3 2.1z"/></g><g><path fill="none" stroke="#FCC515" stroke-width="5" stroke-miterlimit="10" d="M231 85l-6.9 5.7"/><path fill="#FCC515" d="M221.5 84.8l-4.3 11.6 12.3-2z"/></g><g><path fill="none" stroke="#F4ECD7" stroke-width="5" stroke-miterlimit="10" d="M269.1 45.8l7-5.7"/><path fill="#F4ECD7" d="M278.6 46l4.4-11.7-12.3 2.1z"/></g><g><path fill="none" stroke="#F4ECD7" stroke-width="5" stroke-miterlimit="10" d="M264.7 49.5l-7 5.8"/><path fill="#F4ECD7" d="M255.1 49.3L250.8 61l12.3-2.1z"/></g><g><g fill="none" stroke="#F2F1F0" stroke-width="1.477" stroke-miterlimit="10"><path d="M312.3.7v2.2"/><path stroke-dasharray="4.382,4.382" d="M312.3 7.3v304.6"/><path d="M312.3 314.1v2.2h-2.2"/><path stroke-dasharray="4.4519,4.4519" d="M305.7 316.3H5.2"/><path d="M2.9 316.3H.7v-2.2"/><path stroke-dasharray="4.382,4.382" d="M.7 309.7V5.1"/><path d="M.7 2.9V.7h2.2"/><path stroke-dasharray="4.4519,4.4519" d="M7.4.7h300.5"/><path d="M310.1.7h2.2"/></g></g><path fill="none" stroke="#D7F2E6" stroke-width="2.5" stroke-miterlimit="10" stroke-dasharray="12,8" d="M267.4 47.3c60 60 59 158.3-2.3 219.5s-159.5 62.3-219.5 2.3-59-158.3 2.3-219.5 159.5-62.3 219.5-2.3z"/></svg>