<?xml version="1.0" encoding="utf-8"?>
<!-- Generator: Adobe Illustrator 18.0.0, SVG Export Plug-In . SVG Version: 6.00 Build 0)  -->
<!DOCTYPE svg PUBLIC "-//W3C//DTD SVG 1.1//EN" "http://www.w3.org/Graphics/SVG/1.1/DTD/svg11.dtd">
<svg version="1.1" id="Layer_1" xmlns="http://www.w3.org/2000/svg" xmlns:xlink="http://www.w3.org/1999/xlink" x="0px" y="0px"
	 width="16px" height="16px" viewBox="0 0 16 16" enable-background="new 0 0 16 16" xml:space="preserve">
<g>
	<path fill="#FFFFFF" d="M0.8,5.6c0-0.5,0.3-1.2,0.6-1.6l2.7-2.7c0.3-0.3,1.1-0.6,1.6-0.6h8.7c0.5,0,0.9,0.5,0.9,0.9v12.6
		c0,0.5-0.5,0.9-0.9,0.9H1.6c-0.5,0-0.9-0.5-0.9-0.9V5.6H0.8z M3.2,14.1v-3.9c0-0.5,0.5-0.9,0.9-0.9h7.8c0.5,0,0.9,0.5,0.9,0.9v3.9
		h1.2V1.9h-1.2v3.9c0,0.5-0.5,0.9-0.9,0.9H6.4C6,6.7,5.7,6.4,5.7,5.8V1.9C5.3,1.9,5,2,4.9,2.2L2.2,4.9C2.1,5,1.9,5.3,1.9,5.6v8.4
		H3.2z M11.6,14.1v-3.7H4.4v3.6h7.2V14.1z M6.8,5.3c0,0.2,0.2,0.3,0.3,0.3h1.9c0.2,0,0.3-0.2,0.3-0.3V2.2c0-0.2-0.2-0.3-0.3-0.3H7.1
		C6.9,1.9,6.8,2,6.8,2.2C6.8,2.2,6.8,5.3,6.8,5.3z"/>
</g>
</svg>
