<?xml version="1.0" encoding="utf-8"?>
<!-- Generator: Adobe Illustrator 18.0.0, SVG Export Plug-In . SVG Version: 6.00 Build 0)  -->
<!DOCTYPE svg PUBLIC "-//W3C//DTD SVG 1.1//EN" "http://www.w3.org/Graphics/SVG/1.1/DTD/svg11.dtd">
<svg version="1.1" id="Layer_1" xmlns="http://www.w3.org/2000/svg" xmlns:xlink="http://www.w3.org/1999/xlink" x="0px" y="0px"
	 width="506.5px" height="385.7px" viewBox="0 193 506.5 385.7" enable-background="new 0 193 506.5 385.7" xml:space="preserve">
<g>
	<g>
		<g>
			<g>
				<g>
					<path fill="#F9F7F2" d="M342.3,262.1c2.4-1.9,4.7-3.9,6.9-6.1c-1-0.8-2-1.6-3.1-2.4c-4.1,6.8-9.3,12.7-15.6,17.5
						c0.8,1,1.6,2,2.4,3.1c13.9-12.1,27.1-24.8,39.5-38.3c-1-0.8-2-1.6-3.1-2.4c-14.2,19.3-29.3,38-45.2,56c-1.7,1.8,1,4.6,2.7,2.7
						c9.3-10.2,18.6-20.3,27.9-30.6c4.6-5.1,9.3-10.2,13.9-15.3c2.4-2.5,4.6-5.1,7-7.7c2.4-2.7,4.8-6,8.5-7.1
						c-0.6-1-1.2-2.2-1.9-3.2c-21,26-43.1,51.2-64.8,76.5c-1.5,1.7,0.3,4,2.4,3.1c7.3-3.5,12.8-9.5,18.5-15.1
						c7.2-7.1,14.2-14.2,21.3-21.5c13.5-14.1,26.9-28.4,39.9-43c-1-0.8-2-1.6-3.1-2.4c-10.7,17.2-23.1,33.1-36.5,48.2
						c-6.6,7.4-13.4,14.7-20.3,21.8c-6.8,7.2-14.3,13.9-19.4,22.4c-1,1.7,1,3.5,2.6,2.6c39-19,56.2-62.3,88-89.6
						c-0.9-0.9-1.8-1.8-2.7-2.7c-16.2,16.2-29.3,34.8-43.2,52.8c-7.1,9.2-14.4,18.1-22.4,26.5c-4,4.2-8.3,8.1-12.7,12
						c-3.8,3.3-7,6.8-8.8,11.5c-0.7,1.8,1.5,2.8,2.9,2.2c46.1-19.8,52.4-79.3,93.3-105.2c-0.8-1-1.6-2-2.4-3.1
						c-15,19.4-30.6,38.5-45,58.3c-6.8,9.4-12.7,19.6-17.6,30c-2.4,5.3-5.1,10-9.3,14.1c-3.8,3.7-8.6,6.4-13.3,9.1
						c-2.2,1.3-0.3,4.5,1.9,3.3c9.9-4.7,16.6-13.3,22.8-22c7.8-10.8,15.8-21.4,24.5-31.5c17.4-20.4,36.8-39.6,56-58.6
						c1.5-1.4-0.1-3.7-1.9-3.2c-17.6,3.8-28,22.1-37.8,35.5c-12.8,17.9-25.2,36.1-37.1,54.5c-1.4,2.1,2,4,3.3,1.9
						c11.1-17,22.5-33.7,34.4-50.2c5.7-7.9,11.4-16,17.6-23.5c5.6-6.6,12.2-12.4,20.8-14.3c-0.6-1-1.2-2.2-1.9-3.2
						c-18.5,18.3-37,36.7-54.2,56.3c-8.5,9.7-16.5,19.8-24,30.3c-6.9,9.6-13.5,19.8-24.5,25.1c0.6,1.1,1.3,2.3,1.9,3.3
						c8.5-5.1,16.3-10.3,21.3-19.1c2.8-5,4.9-10.3,7.6-15.4c3-5.6,6.3-11,9.9-16.2c7-10.4,15-20.1,22.7-30
						c8.1-10.5,16.2-21,24.4-31.5c1.2-1.7-0.3-4.4-2.4-3.1c-40.7,25.9-47.3,85.6-93.1,105.2c1,0.7,1.9,1.5,2.9,2.2
						c2.1-5.3,6.8-8.9,11-12.7c4-3.6,7.8-7.4,11.5-11.3c7.5-7.9,14.3-16.5,21-25.2c13.7-17.7,26.6-36.2,42.5-52
						c1.8-1.8-0.9-4.4-2.7-2.7c-31.5,27.1-48.5,70.1-87.2,88.9c0.9,0.9,1.7,1.7,2.6,2.6c5.2-8.6,13-15.5,19.9-22.7
						s13.7-14.5,20.3-21.9c13.3-14.9,25.6-30.7,36.1-47.8c1.1-1.8-1.6-4-3.1-2.4c-12.7,14.1-25.6,28.1-38.8,41.8
						c-6.6,6.8-13.3,13.6-20,20.3c-6.1,6.2-12.1,13.1-20.2,16.9c0.8,1,1.6,2,2.4,3.1c21.8-25.4,43.9-50.5,64.9-76.6
						c1.1-1.4,0.2-3.8-1.9-3.2c-5.4,1.5-8.9,6.6-12.5,10.6c-5.1,5.5-10,11.1-15.1,16.6c-10.4,11.5-20.8,23-31.3,34.5
						c0.9,0.9,1.8,1.8,2.7,2.7c16.1-18.3,31.4-37.2,45.8-56.7c1.3-1.8-1.6-3.9-3.1-2.4c-12.4,13.5-25.6,26.3-39.4,38.3
						c-1.7,1.4,0.6,4.4,2.4,3.1c6.8-5.2,12.6-11.5,17-18.9c1.1-1.9-1.5-3.9-3.1-2.4c-2.2,2.2-4.5,4.2-6.9,6.1
						C337.6,260.9,340.4,263.6,342.3,262.1L342.3,262.1z"/>
				</g>
			</g>
			<g>
				<g>
					<path fill="#F9F7F2" d="M329.2,354c19.7-20.2,39.2-40.5,58.7-60.9c10-10.4,19.8-20.8,29.7-31.3c8.6-9.1,18.2-18,24.2-29.2
						c1.1-2.1-1.5-3.9-3.2-2.4c-12.2,10.2-24.6,20-36.1,30.8c-5.2,4.9-10.1,10.2-14.4,15.9c-4.9,6.4-8.3,13.6-11.9,20.7
						c-6.7,13.5-15.7,25.4-26.7,35.6c-8.1,7.5-22.7,14.4-23,27.1c0,1.9,2.2,2.4,3.5,1.5c24.3-19.1,44.5-41.7,63.3-65.9
						c17.6-22.5,35.5-45.9,59.9-61.4c-0.8-1-1.7-2.1-2.4-3.2c-10.7,10-19.6,20.1-26.3,33.2c-7,13.5-16.6,25.1-26.6,36.5
						c-19.7,22.6-41.5,43.3-64.8,62.1c-1.7,1.3,0.1,3.9,2,3.4c12.3-3.6,22-12.2,31.2-21c11-10.5,21.7-21.3,32.3-32.3
						c20.6-21.7,40-44.4,58.3-67.9c-1-0.8-2.1-1.7-3.2-2.4c-5.9,11.5-11.9,23.1-19.2,33.8c-8.4,12.1-19.1,22.3-29.3,32.8
						c-20.3,21-40.8,41.9-61.1,62.9c-1.6,1.6,0.5,4.6,2.4,3.2c22.4-16.2,42.2-35.5,61-55.6c20.1-21.5,39.7-43.5,59.4-65.3
						c-1.1-0.7-2.3-1.3-3.4-2c-6.8,29-33.3,48-53.5,67.7c-21.2,20.7-40.9,43-59,66.4c-1.3,1.7,0.4,4.7,2.4,3.2
						c21.7-16.6,40.5-36.2,59-56.2c9.4-10.1,18.8-20.3,28.5-30.1c10-10.1,20.5-22.3,34.1-27.7c-0.7-1.1-1.3-2.3-2-3.4
						c-7.6,6.1-15.2,12.2-21.7,19.4c-6.6,7.2-12.2,15.5-18.5,23.1c-12.6,15.5-26.5,29.9-41.4,43.2c-1.9,1.7,1,4.6,2.9,2.9
						c14.8-13.4,28.7-27.8,41.4-43.2c6.3-7.6,12-15.7,18.5-23.1c6.5-7.3,14.1-13.4,21.7-19.4c1.6-1.2-0.1-4.1-2-3.4
						c-12.1,4.8-21.3,14.3-30.4,23.2c-10.2,10.2-20,20.7-29.8,31.2c-19.7,21.1-39.4,42.4-62.4,60c0.8,1,1.7,2.1,2.4,3.2
						c18.8-24.3,39.3-47.3,61.4-68.6c20.2-19.6,45.5-38.4,52.2-67.3c0.4-1.9-2-3.6-3.4-2c-19.4,21.4-38.7,43-58.3,64.2
						c-18.9,20.3-38.7,39.9-61.3,56.2c0.8,1,1.7,2.1,2.4,3.2c20.8-21.4,41.6-42.7,62.4-64.1c9.7-10,19.7-19.8,27.9-31.1
						c7.9-10.9,14.1-23.1,20.2-35.1c1-1.9-1.7-4.4-3.2-2.4c-17.8,22.4-36.6,44.3-56.4,65.3c-9.7,10.3-19.7,20.3-29.8,30.1
						c-10,9.7-20.3,20.3-34.1,24.4c0.7,1.1,1.3,2.3,2,3.4c23-18.4,44.3-38.9,63.8-60.9c9.4-10.7,19.1-21.7,26-34.2
						c3.8-6.8,7-13.7,11.8-19.9c4.8-6.1,10.5-11.4,16.2-16.8c1.7-1.6-0.5-4.5-2.4-3.2c-24,15.3-41.7,37.6-59,59.8
						c-19.6,25.1-40.1,48.4-65.1,68.1c1.1,0.5,2.4,1,3.5,1.5c0.2-6.7,6.1-11.4,10.9-15.3c5.2-4.2,10.3-8.2,15-12.9
						c10-9.9,17.7-21.4,23.9-33.9c3.3-6.6,6.7-13.2,11.1-19.3c4.4-5.9,9.6-11.2,14.9-16.2c11.2-10.4,23.3-19.9,35-29.7
						c-1-0.8-2.1-1.7-3.2-2.4c-6,11.4-16,20.3-24.7,29.6c-9.5,10-19,20-28.6,30c-19.5,20.3-39,40.7-58.7,60.9
						C324.5,353,327.3,355.9,329.2,354L329.2,354z"/>
				</g>
			</g>
			<g>
				<g>
					<path fill="#F9F7F2" d="M371.1,384.5c10-6.9,18.1-16.2,26.5-24.9c9.5-9.8,19.2-19.4,28.8-29c19.7-19.7,39.8-39,60.1-58.1
						c-1.1-0.7-2.3-1.3-3.4-2c-0.5,3.3-2.6,5.5-4.8,7.9c-2.6,2.9-5.2,5.8-7.9,8.6c-4.9,5.3-9.8,10.7-14.8,15.9
						c-9.9,10.6-19.9,21-30,31.3s-20.4,20.4-30.8,30.5c-5.2,5-10.5,10-15.7,14.9c-4.3,4-8.6,7.8-10.7,13.4c-0.4,1.2,0.7,2.6,2,2.6
						c12.1,0,21.6-7.5,29.8-15.5c5.2-5,10.1-10.2,15.2-15.3c5-5,10.1-9.9,14.5-15.5c4.1-5.4,7-11.4,11.6-16.5
						c5.1-5.8,10.4-11.4,15.7-16.9c10.3-10.7,21-21.2,32-31.3c-1-1-1.9-1.9-2.9-2.9c-20.9,21.5-41.7,42.9-63.9,62.9
						c-18.8,16.9-38.7,33.9-49.4,57.3c-0.6,1.3,0.1,3.1,1.7,3.1c6.1-0.2,10.5-3.9,15.1-7.5c5.5-4.3,11-8.6,16.4-13.1
						c11.2-9.2,22-18.8,32.2-29c10-10,19.1-20.6,27.4-32c8.3-11.4,14.1-26.2,25.8-34.6c-0.8-1-1.7-2.1-2.4-3.2
						c-8.9,10-19.4,18-27.8,28.4c-8,9.9-14.8,20.7-22.4,30.8c-14.2,19-36.3,33.2-44.7,56.2c-0.5,1.5,1.1,3,2.5,2.5
						c9.6-3,17.3-9.3,24.5-16.2c8.7-8.4,17.4-16.9,25.7-25.9c15.6-16.8,28.8-35.9,46.1-51.1c1.7-1.6-0.5-4.4-2.4-3.2
						c-14.4,8.8-24.8,22.2-35.8,34.6c-5.9,6.7-12.4,12.7-19.3,18.5c-6.1,5.2-11.3,11.6-11.5,19.9c0,1,1,2.1,2,2
						c17.3-1,29.5-13.5,39.7-26.2c12.2-15.1,23.4-31.1,34.8-46.8c1.4-1.8-1.7-4.3-3.2-2.4c-19,23.7-39.4,46.1-61,67.3
						c-1.9,1.8,1,4.7,2.9,2.9c21.7-21.1,42.1-43.6,61-67.3c-1-0.8-2.1-1.7-3.2-2.4c-10.2,14.1-20.3,28.3-31.1,42.1
						c-10.1,13-22.1,27.9-39.9,28.9c0.7,0.7,1.4,1.4,2,2c0.3-8.9,7.4-14.7,13.7-19.9c6.1-5.1,11.5-10.7,16.8-16.7
						c10.5-11.9,20.4-24.5,34.1-32.9c-0.8-1-1.7-2.1-2.4-3.2C473.4,322,460.6,340,446,356.2c-7.9,8.7-16.4,17-24.8,25.3
						c-7.5,7.4-15.4,14.9-25.8,18.1c0.9,0.9,1.7,1.7,2.5,2.5c4.1-11.3,12-20.2,20.3-28.6c8-8.2,16.2-16.2,23.1-25.4
						c7.9-10.2,14.7-21.1,22.7-31.3c8.3-10.5,19-18.4,27.8-28.4c1.5-1.7-0.5-4.6-2.4-3.2c-10.1,7.2-15.5,18.6-22.2,28.7
						c-7.8,11.9-16.9,22.8-26.7,33.1c-9.6,10.1-19.9,19.6-30.6,28.6c-5.3,4.5-10.7,8.9-16.2,13.3c-5.3,4.3-12.1,11.6-19.2,11.9
						c0.6,1,1.1,2,1.7,3.1c10.8-23.6,31-40.4,49.9-57.5c21.8-19.7,42.4-40.9,62.9-61.9c1.8-1.9-1-4.6-2.9-2.9
						c-10.2,9.3-20.1,19-29.7,28.9c-9.3,9.5-19.6,19.1-26.4,30.7c-7,11.8-17.9,21-27.5,30.6c-8.8,8.9-18.8,19.7-32.3,19.7
						c0.7,0.9,1.3,1.7,2,2.6c2.4-6.1,8.6-10.6,13.3-14.9c5.2-5,10.5-10,15.6-15c10.4-10,20.6-20.3,30.7-30.6
						c10.1-10.3,20.1-20.8,30-31.4c4.9-5.2,9.8-10.6,14.7-16c3.8-4.2,9.4-8.7,10.3-14.6c0.3-1.9-1.8-3.5-3.4-2
						c-19.5,18.3-38.7,36.9-57.7,55.6c-9.7,9.6-19.3,19.3-28.9,29c-8.9,9.1-17.5,19.4-28,26.7C366.9,382.5,368.9,386,371.1,384.5
						L371.1,384.5z"/>
				</g>
			</g>
			<g>
				<g>
					<path fill="#F9F7F2" d="M424.1,395.4c23.8-25.2,49-49,75.4-71.4c-1-0.8-2.1-1.7-3.2-2.4c-16.4,27.7-40.3,49.7-63.8,71.2
						c-1.7,1.6,0.5,4.4,2.4,3.2c10.7-6.1,19.2-13.8,26-24c7-10.6,13-23.2,25.3-28.4c-0.9-0.9-1.7-1.7-2.5-2.5
						c-4.2,16.3-13.5,30.7-26.7,41.2c-2.1,1.7,0.9,4.5,2.9,2.9c13.6-10.9,23.3-26,27.8-43c0.3-1.3-1-3.1-2.5-2.5
						c-11,4.6-17.7,14.1-23.8,24c-3.6,5.8-7.2,11.4-11.8,16.4c-4.8,5.1-10.7,9.1-16.8,12.5c0.8,1,1.7,2.1,2.4,3.2
						c23.8-21.7,47.9-44,64.5-72.1c1.2-2.1-1.5-3.9-3.2-2.4c-26.4,22.4-51.5,46.2-75.4,71.4C419.5,394.4,422.4,397.3,424.1,395.4
						L424.1,395.4z"/>
				</g>
			</g>
		</g>
		<g>
			<g>
				<path fill="#F9F7F2" d="M418.4,402.8c10.8-6.3,21.5-12.9,31.9-19.9c1.8-1.2,0.7-4.6-1.6-3.8c-2.9,1.2-5.9,2.4-8.7,3.6
					c0.7,1.1,1.3,2.3,2,3.4c2-2.2,3.8-4.5,5.3-7c1.8-3.1,2.9-6.6,5.9-8.9c2.1-1.6,0.1-5.1-2.1-3.5c-5.5,4.1-7.3,11.5-12.1,16.5
					c-1.3,1.4,0,4.2,2,3.4c2.9-1.2,5.9-2.4,8.7-3.6c-0.5-1.2-1-2.4-1.6-3.8c-10.4,7-21,13.6-31.9,19.9
					C414.1,400.7,416.1,404.2,418.4,402.8L418.4,402.8z"/>
			</g>
		</g>
	</g>
</g>
<g>
	<g>
		<g>
			<g>
				<g>
					<path fill="#FCFBFA" d="M31.4,411.8c2.4-1.9,4.7-3.9,6.9-6.1c-1-0.8-2-1.6-3.1-2.4c-4.1,6.8-9.3,12.7-15.6,17.5
						c0.8,1,1.6,2,2.4,3.1c13.9-12.1,27.1-24.8,39.5-38.3c-1-0.8-2-1.6-3.1-2.4c-14.2,19.3-29.3,38-45.2,56c-1.7,1.8,1,4.6,2.7,2.7
						c9.3-10.2,18.6-20.3,27.9-30.6c4.6-5.1,9.3-10.2,13.9-15.3c2.4-2.5,4.6-5.1,7-7.7c2.4-2.7,4.8-6,8.5-7.1
						c-0.6-1-1.2-2.2-1.9-3.2c-21,26-43.1,51.2-64.8,76.5c-1.5,1.7,0.3,4,2.4,3.1c7.3-3.5,12.8-9.5,18.5-15.1
						c7.2-7.1,14.2-14.2,21.3-21.5c13.5-14.1,26.9-28.4,39.9-43c-1-0.8-2-1.6-3.1-2.4c-10.7,17.2-23.1,33.1-36.5,48.2
						c-6.6,7.4-13.4,14.7-20.3,21.8c-6.8,7.2-14.3,13.9-19.4,22.4c-1,1.7,1,3.5,2.6,2.6c39-19,56.2-62.3,88-89.6
						c-0.9-0.9-1.8-1.8-2.7-2.7C81,394.5,67.9,413.1,54,431.1c-7.1,9.2-14.4,18.1-22.4,26.5c-4,4.2-8.3,8.1-12.7,12
						c-3.8,3.3-7,6.8-8.8,11.5c-0.7,1.8,1.5,2.8,2.9,2.2c46.1-19.8,52.4-79.3,93.3-105.2c-0.8-1-1.6-2-2.4-3.1
						c-15,19.4-30.6,38.5-45,58.3c-6.8,9.4-12.7,19.6-17.6,30c-2.4,5.3-5.1,10-9.3,14.1c-3.8,3.7-8.6,6.4-13.3,9.1
						c-2.2,1.3-0.3,4.5,1.9,3.3c9.9-4.7,16.6-13.3,22.8-22c7.8-10.8,15.8-21.4,24.5-31.5c17.6-20.6,36.9-39.7,56.2-58.8
						c1.5-1.4-0.1-3.7-1.9-3.2c-17.6,3.8-28,22.1-37.8,35.5c-13,18-25.4,36.2-37.4,54.6c-1.4,2.1,2,4,3.3,1.9
						c11.1-17,22.5-33.7,34.4-50.2c5.7-7.9,11.4-16,17.6-23.5c5.6-6.6,12.2-12.4,20.8-14.3c-0.6-1-1.2-2.2-1.9-3.2
						c-18.5,18.3-37,36.7-54.2,56.3c-8.5,9.7-16.5,19.8-24,30.3c-6.9,9.6-13.5,19.8-24.5,25.1c0.6,1.1,1.3,2.3,1.9,3.3
						c8.5-5.1,16.3-10.3,21.3-19.1c2.8-5,4.9-10.3,7.6-15.4c3-5.6,6.3-11,9.9-16.2c7-10.4,15-20.1,22.7-30
						c8.1-10.5,16.2-21,24.4-31.5c1.2-1.7-0.3-4.4-2.4-3.1C63.2,400.7,56.6,460.4,10.8,480c1,0.7,1.9,1.5,2.9,2.2
						c2.1-5.3,6.8-8.9,11-12.7c4-3.6,7.8-7.4,11.5-11.3c7.5-7.9,14.3-16.5,21-25.2c13.7-17.7,26.6-36.2,42.5-52
						c1.8-1.8-0.9-4.4-2.7-2.7c-31.5,27.1-48.5,70.1-87.2,88.9c0.9,0.9,1.7,1.7,2.6,2.6c5.2-8.6,13-15.5,19.9-22.7
						s13.7-14.5,20.3-21.9c13.3-14.9,25.6-30.7,36.1-47.8c1.1-1.8-1.6-4-3.1-2.4c-12.7,14.1-25.6,28.1-38.8,41.8
						c-6.6,6.8-13.3,13.6-20,20.3c-6.1,6.2-12.1,13.1-20.2,16.9c0.8,1,1.6,2,2.4,3.1c21.9-25.2,44-50.2,65-76.3
						c1.1-1.4,0.2-3.8-1.9-3.2c-5.4,1.5-8.9,6.6-12.5,10.6c-5.1,5.5-10,11.1-15.1,16.6c-10.4,11.5-20.8,23-31.3,34.5
						c0.9,0.9,1.8,1.8,2.7,2.7c16.1-18.3,31.4-37.2,45.8-56.7c1.3-1.8-1.6-3.9-3.1-2.4c-12.4,13.5-25.6,26.3-39.4,38.3
						c-1.7,1.4,0.6,4.4,2.4,3.1c6.8-5.2,12.6-11.5,17-18.9c1.1-1.9-1.5-3.9-3.1-2.4c-2.2,2.2-4.5,4.2-6.9,6.1
						C26.6,410.6,29.4,413.3,31.4,411.8L31.4,411.8z"/>
				</g>
			</g>
			<g>
				<g>
					<path fill="#FCFBFA" d="M18.3,503.7C38,483.5,57.5,463.2,77,442.8c10-10.4,19.8-20.8,29.7-31.3c8.6-9.1,18.2-18,24.2-29.2
						c1.1-2.1-1.5-3.9-3.2-2.4c-12.1,10.1-24.5,19.9-36.1,30.7c-5.2,4.9-10.1,10.2-14.4,15.9c-4.9,6.4-8.3,13.6-11.9,20.7
						c-6.7,13.5-15.7,25.4-26.7,35.6c-8.1,7.5-22.7,14.4-23,27.1c0,1.9,2.2,2.4,3.5,1.5c24.3-19.1,44.5-41.7,63.3-65.9
						c17.6-22.5,35.5-45.9,59.9-61.4c-0.8-1-1.7-2.1-2.4-3.2c-10.7,10-19.6,20.1-26.3,33.2c-7,13.5-16.6,25.1-26.6,36.5
						c-19.7,22.6-41.5,43.3-64.8,62.1c-1.7,1.3,0.1,3.9,2,3.4c12.3-3.6,22-12.2,31.2-21c11-10.5,21.7-21.3,32.3-32.3
						c20.6-21.7,40-44.4,58.3-67.9c-1-0.8-2.1-1.7-3.2-2.4c-5.9,11.5-11.9,23.1-19.2,33.8c-8.4,12.1-19.1,22.3-29.3,32.8
						C74,480.1,53.5,501,33.2,522c-1.6,1.6,0.5,4.6,2.4,3.2c22.4-16.2,42.2-35.5,61-55.6c20.1-21.5,39.7-43.5,59.4-65.3
						c-1.1-0.7-2.3-1.3-3.4-2c-6.8,29-33.3,48-53.5,67.7c-21.2,20.7-40.9,43-59,66.4c-1.3,1.7,0.4,4.7,2.4,3.2
						c21.7-16.6,40.5-36.2,59-56.2c9.4-10.1,18.8-20.3,28.5-30.1c10-10.1,20.5-22.3,34.1-27.7c-0.7-1.1-1.3-2.3-2-3.4
						c-7.6,6.1-15.2,12.2-21.7,19.4c-6.6,7.2-12.2,15.5-18.5,23.1c-12.6,15.5-26.5,29.9-41.4,43.2c-1.9,1.7,1,4.6,2.9,2.9
						c14.8-13.4,28.7-27.8,41.4-43.2c6.3-7.6,12-15.7,18.5-23.1c6.5-7.3,14.1-13.4,21.7-19.4c1.6-1.2-0.1-4.1-2-3.4
						c-12.1,4.8-21.3,14.3-30.4,23.2c-10.2,10.2-20,20.7-29.8,31.2c-19.7,21.1-39.4,42.4-62.4,60c0.8,1,1.7,2.1,2.4,3.2
						c18.8-24.3,39.3-47.3,61.4-68.6c20.2-19.6,45.5-38.4,52.2-67.3c0.4-1.9-2-3.6-3.4-2c-19.4,21.4-38.7,43-58.3,64.2
						c-18.9,20.3-38.7,39.9-61.3,56.2c0.8,1,1.7,2.1,2.4,3.2c20.8-21.4,41.6-42.7,62.4-64.1c9.7-10,19.7-19.8,27.9-31.1
						c7.9-10.9,14.1-23.1,20.2-35.1c1-1.9-1.7-4.4-3.2-2.4c-17.6,22.7-36.4,44.6-56.2,65.6C77,468,67.1,478,57,487.8
						c-10,9.7-20.3,20.3-34.1,24.4c0.7,1.1,1.3,2.3,2,3.4c23-18.4,44.3-38.9,63.8-60.9c9.4-10.7,19.1-21.7,26-34.2
						c3.8-6.8,7-13.7,11.8-19.9c4.8-6.1,10.5-11.4,16.2-16.8c1.7-1.6-0.5-4.5-2.4-3.2c-24,15.3-41.7,37.6-59,59.8
						c-19.6,25.1-40.1,48.4-65.1,68.1c1.1,0.5,2.4,1,3.5,1.5c0.2-6.7,6.1-11.4,10.9-15.3c5.2-4.2,10.3-8.2,15-12.9
						c10-9.9,17.7-21.4,23.9-33.9c3.3-6.6,6.7-13.2,11.1-19.3c4.4-5.9,9.6-11.2,14.9-16.2c11.2-10.4,23.3-19.9,35-29.7
						c-1-0.8-2.1-1.7-3.2-2.4c-6,11.4-16,20.3-24.7,29.6c-9.5,10-19,20-28.6,30c-19.5,20.3-39,40.7-58.7,60.9
						C13.5,502.7,16.4,505.6,18.3,503.7L18.3,503.7z"/>
				</g>
			</g>
			<g>
				<g>
					<path fill="#FCFBFA" d="M60.2,534.2c10-6.9,18.1-16.2,26.5-24.9c9.5-9.8,19.2-19.4,28.8-29c19.7-19.7,39.8-39,60.1-58.1
						c-1.1-0.7-2.3-1.3-3.4-2c-0.5,3.3-2.6,5.5-4.8,7.9c-2.6,2.9-5.2,5.8-7.9,8.6c-4.9,5.3-9.8,10.7-14.8,15.9
						c-9.9,10.6-19.9,21-30,31.3s-20.4,20.4-30.8,30.5c-5.2,5-10.5,10-15.7,14.9c-4.3,4-8.6,7.8-10.7,13.4c-0.4,1.2,0.7,2.6,2,2.6
						c12.1,0,21.6-7.5,29.8-15.5c5.2-5,10.1-10.2,15.2-15.3c5-5,10.1-9.9,14.5-15.5c4.1-5.4,7-11.4,11.6-16.5
						c5.1-5.8,10.4-11.4,15.7-16.9c10.3-10.7,21-21.2,32-31.3c-1-1-1.9-1.9-2.9-2.9c-20.9,21.5-41.7,42.9-63.9,62.9
						c-18.8,16.9-38.7,33.9-49.4,57.3c-0.6,1.3,0.1,3.1,1.7,3.1c6.1-0.2,10.5-3.9,15.1-7.5c5.5-4.3,11-8.6,16.4-13.1
						c11.2-9.2,22-18.8,32.2-29c10-10,19.1-20.6,27.4-32c8.3-11.4,14.1-26.2,25.8-34.6c-0.8-1-1.7-2.1-2.4-3.2
						c-8.9,10-19.4,18-27.8,28.4c-8,9.9-14.8,20.7-22.4,30.8c-14.2,19-36.3,33.2-44.7,56.2c-0.5,1.5,1.1,3,2.5,2.5
						c9.6-3,17.3-9.3,24.5-16.2c8.7-8.4,17.4-16.9,25.7-25.9c15.6-16.8,28.8-35.9,46.1-51.1c1.7-1.6-0.5-4.4-2.4-3.2
						c-14.4,8.8-24.8,22.2-35.8,34.6c-5.9,6.7-12.4,12.7-19.3,18.5c-6.1,5.2-11.3,11.6-11.5,19.9c0,1,1,2.1,2,2
						c17.3-1,29.5-13.5,39.7-26.2c12.2-15.1,23.4-31.1,34.8-46.8c1.4-1.8-1.7-4.3-3.2-2.4c-19,23.7-39.4,46.1-61,67.3
						c-1.9,1.8,1,4.7,2.9,2.9c21.7-21.1,42.1-43.6,61-67.3c-1-0.8-2.1-1.7-3.2-2.4C176,471,165.9,485.2,155.1,499
						c-10.1,13-22.1,27.9-39.9,28.9c0.7,0.7,1.4,1.4,2,2c0.3-8.9,7.4-14.7,13.7-19.9c6.1-5.1,11.5-10.7,16.8-16.7
						c10.5-11.9,20.4-24.5,34.1-32.9c-0.8-1-1.7-2.1-2.4-3.2c-16.5,14.4-29.3,32.4-43.8,48.6c-7.9,8.7-16.4,17-24.8,25.3
						c-7.5,7.4-15.4,14.9-25.8,18.1c0.9,0.9,1.7,1.7,2.5,2.5c4.1-11.3,12-20.2,20.3-28.6c8-8.2,16.2-16.2,23.1-25.4
						c7.9-10.2,14.7-21.1,22.7-31.3c8.3-10.5,19-18.4,27.8-28.4c1.5-1.7-0.5-4.6-2.4-3.2c-10.1,7.2-15.5,18.6-22.2,28.7
						c-7.8,11.9-16.9,22.8-26.7,33.1c-9.6,10.1-19.9,19.6-30.6,28.6c-5.3,4.5-10.7,8.9-16.2,13.3c-5.3,4.3-12.1,11.6-19.2,11.9
						c0.6,1,1.1,2,1.7,3.1c10.8-23.6,31-40.4,49.9-57.5c21.8-19.7,42.4-40.9,62.9-61.9c1.8-1.9-1-4.6-2.9-2.9
						c-10.2,9.3-20.1,19-29.7,28.9c-9.3,9.5-19.6,19.1-26.4,30.7c-7,11.8-17.9,21-27.5,30.6c-8.8,8.9-18.8,19.7-32.3,19.7
						c0.7,0.9,1.3,1.7,2,2.6c2.4-6.1,8.6-10.6,13.3-14.9c5.2-5,10.5-10,15.6-15c10.4-10,20.6-20.3,30.7-30.6s20.1-20.8,30-31.4
						c4.9-5.2,9.8-10.6,14.7-16c3.8-4.2,9.4-8.7,10.3-14.6c0.3-1.9-1.8-3.5-3.4-2c-19.5,18.3-38.7,36.9-57.7,55.6
						c-9.7,9.6-19.3,19.3-28.9,29c-8.9,9.1-17.5,19.4-28,26.7C56,532.2,58,535.7,60.2,534.2L60.2,534.2z"/>
				</g>
			</g>
			<g>
				<g>
					<path fill="#FCFBFA" d="M113.2,545.1c23.8-25.2,49-49,75.4-71.4c-1-0.8-2.1-1.7-3.2-2.4C169,499,145.1,521,121.6,542.5
						c-1.7,1.6,0.5,4.4,2.4,3.2c10.7-6.1,19.2-13.8,26-24c7-10.6,13-23.2,25.3-28.4c-0.9-0.9-1.7-1.7-2.5-2.5
						c-4.2,16.3-13.5,30.7-26.7,41.2c-2.1,1.7,0.9,4.5,2.9,2.9c13.6-10.9,23.3-26,27.8-43c0.3-1.3-1-3.1-2.5-2.5
						c-11,4.6-17.7,14.1-23.8,24c-3.6,5.8-7.2,11.4-11.8,16.4c-4.8,5.1-10.7,9.1-16.8,12.5c0.8,1,1.7,2.1,2.4,3.2
						c23.8-21.7,47.9-44,64.5-72.1c1.2-2.1-1.5-3.9-3.2-2.4c-26.4,22.4-51.5,46.2-75.4,71.4C108.6,544.1,111.5,547,113.2,545.1
						L113.2,545.1z"/>
				</g>
			</g>
		</g>
		<g>
			<g>
				<path fill="#FCFBFA" d="M107.5,552.5c10.8-6.3,21.5-12.9,31.9-19.9c1.8-1.2,0.7-4.6-1.6-3.8c-2.9,1.2-5.9,2.4-8.7,3.6
					c0.7,1.1,1.3,2.3,2,3.4c2-2.2,3.8-4.5,5.3-7c1.8-3.1,2.9-6.6,5.9-8.9c2.1-1.6,0.1-5.1-2.1-3.5c-5.5,4.1-7.3,11.5-12.1,16.5
					c-1.3,1.4,0,4.2,2,3.4c2.9-1.2,5.9-2.4,8.7-3.6c-0.5-1.2-1-2.4-1.6-3.8c-10.4,7-21,13.6-31.9,19.9
					C103.2,550.4,105.2,553.9,107.5,552.5L107.5,552.5z"/>
			</g>
		</g>
	</g>
</g>
<rect x="1.8" y="368.6" fill="none" stroke="#EAEAEA" stroke-width="1.8188" stroke-miterlimit="10" stroke-dasharray="3.6376" width="192" height="192"/>
<circle fill="none" stroke="#F7E7BF" stroke-width="3.6376" stroke-miterlimit="10" stroke-dasharray="9.0939" cx="97.8" cy="464.6" r="96"/>
<rect x="304.8" y="218.9" fill="none" stroke="#EAEAEA" stroke-width="1.8188" stroke-miterlimit="10" stroke-dasharray="3.6376" width="192" height="192"/>
<circle fill="none" stroke="#FCC515" stroke-width="3.6376" stroke-miterlimit="10" stroke-dasharray="9.0939" cx="408.7" cy="314.9" r="96"/>
<g>
	<path fill="#F7E7BF" d="M68.7,455.9c0-0.6-0.4-1-1.1-1c-1.4,0-2.8,0.7-3.9,2c-0.7,0.8-1.2,1.6-1.5,2.5c-0.1,0.4-0.2,0.8-0.2,1.2
		s0,0.6,0.1,0.8c0.1,0.2,0.2,0.4,0.3,0.5c0.3,0.3,0.6,0.4,0.9,0.3c0.4-0.2,0.7-0.2,1-0.2c0.3,0,0.5,0,0.7,0.1s0.3,0.2,0.4,0.3
		c0.2,0.2,0.3,0.4,0.3,0.6c0,0.4-0.1,0.6-0.4,0.6c-0.4,0-0.8,0.1-1.2,0.3c-0.4,0.2-0.9,0.4-1.3,0.7c-0.4,0.3-0.8,0.6-1.2,1
		c-0.8,0.8-1.2,1.7-1.2,2.5c0,0.4,0.1,0.7,0.3,0.9c0.3,0.4,0.7,0.5,1.1,0.5s0.9-0.1,1.3-0.3s0.8-0.4,1.1-0.6c0.5-0.4,1-0.8,1.5-1.4
		c0.2-0.3,0.5-0.4,0.6-0.4c0.2,0,0.3,0.1,0.4,0.3c0.1,0.2,0.1,0.4,0.1,0.7c0,0.5-0.1,0.9-0.3,1.1c-0.2,0.2-0.4,0.5-0.7,0.7
		s-0.6,0.5-1,0.7c-0.9,0.5-2,0.7-3,0.7c-1.8,0-3.1-0.6-3.7-1.8c-0.2-0.4-0.4-0.9-0.4-1.4s0.1-0.9,0.2-1.3c0.1-0.4,0.3-0.8,0.5-1.1
		c0.2-0.3,0.5-0.7,0.7-0.9c0.3-0.3,0.5-0.5,0.8-0.7c0.5-0.4,1-0.6,1.3-0.7c-0.9-0.3-1.4-1-1.7-2c-0.1-0.3-0.1-0.7-0.1-1.2
		s0.1-1,0.3-1.5s0.4-1.1,0.7-1.6s0.7-1,1.1-1.4c0.4-0.4,0.9-0.8,1.4-1.1c1.1-0.7,2.3-1,3.6-1c1.3,0,2.3,0.3,3,1
		c0.5,0.5,0.8,1.2,0.8,2c0,0.9-0.4,1.9-1.2,2.8c-0.5,0.6-0.9,1-1.3,1.2s-0.7,0.3-0.9,0.3s-0.4,0-0.6-0.1s-0.3-0.2-0.5-0.3
		c-0.3-0.3-0.5-0.5-0.5-0.8s0.1-0.5,0.3-0.6l1-0.7C68.1,457.3,68.7,456.5,68.7,455.9z"/>
	<path fill="#F7E7BF" d="M70.1,470.5c-0.2-0.2-0.3-0.4-0.5-0.8c-0.1-0.3-0.2-0.7-0.2-1.1s0.1-0.9,0.3-1.6s0.4-1.5,0.7-2.3l1-2.8
		c1.4-3.9,2.1-7,2.3-9.1c0.1-0.6,0.4-1,0.9-1c0.3,0,0.6,0.1,0.9,0.2c0.4,0.3,0.6,0.7,0.6,1.1s-0.1,0.9-0.2,1.5s-0.3,1.2-0.5,1.9
		s-0.4,1.4-0.7,2.2l-1.6,4.6c-0.9,2.6-1.3,4.3-1.3,5.1c0,0.4,0.2,0.6,0.5,0.6s0.6-0.1,0.9-0.2s0.4-0.2,0.5-0.2
		c0.2,0,0.2,0.1,0.2,0.2c0,0.7-0.3,1.2-1,1.7c-0.5,0.3-0.9,0.5-1.3,0.5s-0.7,0-0.9-0.1C70.5,470.8,70.3,470.7,70.1,470.5z"/>
	<path fill="#F7E7BF" d="M76.1,467c0-0.7,0.1-1.3,0.3-1.9c0.2-0.6,0.4-1.2,0.8-1.7c0.3-0.6,0.7-1.1,1.1-1.6s0.9-0.9,1.4-1.3
		c1.1-0.8,2.2-1.2,3.3-1.2c1.3,0,2.2,0.5,2.6,1.6c0.2,0.4,0.2,0.8,0.2,1.3s-0.1,1-0.3,1.4c-0.2,0.4-0.4,0.8-0.8,1.1
		c-0.3,0.3-0.7,0.7-1.1,0.9c-0.4,0.3-0.9,0.5-1.4,0.7c-1.1,0.4-2.2,0.6-3.4,0.6c0,0.1,0,0.3-0.1,0.5c0,0.2,0,0.4,0.1,0.7
		c0.1,0.3,0.1,0.5,0.3,0.7c0.3,0.5,0.7,0.7,1.2,0.7c0.9,0,1.7-0.3,2.6-0.8c0.3-0.2,0.5-0.4,0.7-0.5c0.2-0.2,0.3-0.3,0.5-0.3
		c0.1,0,0.3,0.1,0.4,0.2c0.1,0.2,0.2,0.3,0.2,0.5c0,0.4-0.1,0.7-0.3,1c-1,1-2.4,1.4-4.2,1.4c-1.1,0-2-0.3-2.7-1
		C76.4,469.3,76.1,468.3,76.1,467z M82.8,460.7c-0.8,0-1.6,0.5-2.3,1.6c-0.6,0.9-1.1,2-1.5,3.3c1.3-0.1,2.4-0.6,3.3-1.5
		c0.9-0.8,1.3-1.6,1.3-2.3S83.3,460.7,82.8,460.7z"/>
	<path fill="#F7E7BF" d="M95.5,461.4c-0.4,0-1.2,0.6-2.4,1.9c-0.9,1-1.5,1.7-1.9,2.2l-1,1.3c-0.4,0.8-0.8,1.5-1,2.1l-0.6,1.3
		c-0.2,0.3-0.3,0.6-0.4,0.7s-0.3,0.2-0.5,0.2s-0.4,0-0.6-0.1s-0.3-0.2-0.5-0.3c-0.3-0.2-0.4-0.5-0.4-0.8c0-0.1,0.1-0.3,0.2-0.7
		l0.4-0.9c0.1-0.3,0.3-0.6,0.5-1l0.6-1.6c0.9-2.2,1.3-3.7,1.3-4.3c0-0.3-0.1-0.6-0.3-0.8l-0.2-0.2c-0.1-0.1-0.1-0.1-0.1-0.3
		s0.1-0.3,0.2-0.4s0.2-0.2,0.4-0.3c0.3-0.2,0.7-0.3,1-0.3s0.6,0,0.8,0.1s0.4,0.2,0.5,0.3c0.3,0.3,0.4,0.5,0.4,0.8s0,0.6-0.1,0.9
		s-0.2,0.6-0.3,0.9c-0.1,0.3-0.2,0.6-0.4,0.9c-0.3,0.7-0.5,1-0.6,1.2s-0.1,0.2-0.1,0.2c1.4-1.8,2.2-2.8,2.5-3.2
		c0.6-0.7,1-1.1,1.4-1.4c0.6-0.4,1.2-0.7,1.7-0.7s1,0.2,1.3,0.5s0.5,0.8,0.5,1.3s-0.1,1-0.4,1.7c-0.2,0.6-0.4,1.1-0.5,1.3l1.7-2.2
		l0.9-1.1c0.6-0.6,1-1,1.5-1.2c0.4-0.2,0.8-0.3,1-0.3s0.5,0,0.8,0.1s0.5,0.2,0.7,0.4c0.4,0.4,0.6,0.9,0.6,1.5s-0.1,1.2-0.4,1.8
		s-0.5,1.1-0.7,1.5s-0.4,0.8-0.6,1.2c-0.6,1.2-0.8,2.1-0.8,2.7c0,0.4,0.2,0.6,0.5,0.6s0.6-0.1,0.9-0.2s0.4-0.2,0.5-0.2
		c0.2,0,0.2,0.1,0.2,0.2c0,0.7-0.3,1.2-1,1.7c-0.5,0.3-0.9,0.5-1.3,0.5s-0.7,0-0.9-0.1c-0.2-0.1-0.4-0.2-0.6-0.4
		c-0.4-0.4-0.6-1-0.6-1.6s0.1-1.3,0.2-1.8c0.2-0.6,0.4-1.1,0.6-1.6s0.5-1,0.7-1.4s0.4-0.8,0.5-1c0.2-0.5,0.4-0.9,0.4-1.2
		c0-0.3-0.2-0.4-0.5-0.4c-0.4,0-1.1,0.7-2.2,2c-0.8,1-1.4,1.8-1.7,2.3l-0.8,1.1c-0.4,0.8-0.8,1.5-1,2.1l-0.6,1.3
		c-0.1,0.3-0.3,0.6-0.4,0.7s-0.3,0.2-0.4,0.2s-0.4,0-0.5-0.1c-0.2-0.1-0.3-0.1-0.5-0.2c-0.3-0.2-0.4-0.5-0.4-0.7s0.1-0.6,0.2-1
		c0.2-0.4,0.4-0.9,0.6-1.4l1.6-3.4c0.6-1.2,0.8-2,0.8-2.4C96,461.5,95.8,461.4,95.5,461.4z M96.6,464.6L96.6,464.6L96.6,464.6
		C96.6,464.5,96.6,464.6,96.6,464.6z"/>
	<path fill="#F7E7BF" d="M106,467c0-0.7,0.1-1.3,0.3-1.9c0.2-0.6,0.4-1.2,0.8-1.7c0.3-0.6,0.7-1.1,1.1-1.6s0.9-0.9,1.4-1.3
		c1.1-0.8,2.2-1.2,3.3-1.2c1.3,0,2.2,0.5,2.6,1.6c0.2,0.4,0.2,0.8,0.2,1.3s-0.1,1-0.3,1.4c-0.2,0.4-0.4,0.8-0.8,1.1
		c-0.3,0.3-0.7,0.7-1.1,0.9c-0.4,0.3-0.9,0.5-1.4,0.7c-1.1,0.4-2.2,0.6-3.4,0.6c0,0.1,0,0.3-0.1,0.5c0,0.2,0,0.4,0.1,0.7
		c0.1,0.3,0.1,0.5,0.3,0.7c0.3,0.5,0.7,0.7,1.2,0.7c0.9,0,1.7-0.3,2.6-0.8c0.3-0.2,0.5-0.4,0.7-0.5c0.2-0.2,0.3-0.3,0.5-0.3
		c0.1,0,0.3,0.1,0.4,0.2c0.1,0.2,0.2,0.3,0.2,0.5c0,0.4-0.1,0.7-0.3,1c-1,1-2.4,1.4-4.2,1.4c-1.1,0-2-0.3-2.7-1
		C106.3,469.3,105.9,468.3,106,467z M112.6,460.7c-0.8,0-1.6,0.5-2.3,1.6c-0.6,0.9-1.1,2-1.5,3.3c1.3-0.1,2.4-0.6,3.3-1.5
		c0.9-0.8,1.3-1.6,1.3-2.3S113.1,460.7,112.6,460.7z"/>
	<path fill="#F7E7BF" d="M125,461.4c-0.2,0-0.6,0.2-1,0.7s-0.8,0.9-1.1,1.2l-1,1.2l-1.9,2.4c-0.4,0.8-0.8,1.5-1,2.1l-0.6,1.3
		c-0.2,0.3-0.3,0.6-0.4,0.7s-0.3,0.2-0.5,0.2s-0.4,0-0.6-0.1s-0.3-0.2-0.5-0.3c-0.3-0.2-0.4-0.5-0.4-0.8c0-0.1,0.1-0.3,0.2-0.7
		l0.4-0.9c0.1-0.3,0.3-0.6,0.5-1l0.6-1.6c0.9-2.2,1.3-3.7,1.3-4.3c0-0.3-0.1-0.6-0.3-0.8l-0.2-0.2c-0.1-0.1-0.1-0.1-0.1-0.3
		s0.1-0.3,0.2-0.4s0.2-0.2,0.4-0.3c0.3-0.2,0.7-0.3,1-0.3s0.6,0,0.8,0.1c0.2,0.1,0.3,0.2,0.5,0.3c0.3,0.3,0.4,0.5,0.4,0.8
		s0,0.6-0.1,0.9s-0.2,0.6-0.3,0.9c-0.1,0.3-0.2,0.6-0.3,0.9c-0.1,0.3-0.2,0.5-0.3,0.7l-0.2,0.5c-0.1,0.1-0.1,0.2,0,0.1
		c0.8-1.2,1.4-1.9,1.7-2.2l0.8-1c0.6-0.7,1-1.1,1.4-1.3c0.7-0.5,1.2-0.7,1.6-0.7s0.7,0,1,0.1s0.5,0.2,0.7,0.4
		c0.4,0.4,0.6,0.9,0.6,1.5s-0.1,1.2-0.4,1.9s-0.5,1.2-0.7,1.6s-0.4,0.8-0.6,1.2c-0.6,1.3-0.8,2.2-0.8,2.8c0,0.3,0.2,0.4,0.6,0.4
		c0.3,0,0.6-0.1,0.9-0.2s0.4-0.2,0.5-0.2c0.2,0,0.2,0.1,0.2,0.2c0,0.7-0.3,1.2-1,1.7c-0.5,0.3-0.9,0.5-1.3,0.5s-0.7,0-1-0.1
		s-0.5-0.2-0.7-0.4c-0.4-0.4-0.7-1-0.7-1.7c0-0.9,0.3-2,0.8-3.3c0.4-0.9,0.7-1.5,0.8-1.8l0.4-0.8c0.2-0.5,0.4-0.9,0.4-1.1
		C125.6,461.5,125.4,461.4,125,461.4z"/>
	<path fill="#F7E7BF" d="M136.4,468c0.2,0,0.3,0.1,0.3,0.4c0,0.2-0.1,0.5-0.2,0.7c-0.2,0.4-0.6,0.9-1.2,1.2
		c-0.7,0.4-1.4,0.7-2.1,0.7c-1.2,0-2-0.5-2.3-1.6c-0.4-1.3,0.2-4,1.7-8.2c-0.9-0.1-1.3-0.2-1.4-0.5c0-0.1,0-0.1,0-0.2s0-0.2,0.1-0.3
		c0.1-0.1,0.2-0.2,0.3-0.3c0.3-0.2,0.5-0.3,0.8-0.3h0.9c0.8-1.9,1.4-3,1.7-3.3c0.2-0.1,0.4-0.2,0.6-0.2c0.2,0,0.4,0,0.5,0.1
		s0.3,0.1,0.4,0.2c0.2,0.2,0.4,0.5,0.4,0.8c0,0.2,0,0.3-0.1,0.5l-0.8,1.8h0.3c0.5,0,0.8,0,1.1,0h0.6c0.1,0,0.3,0,0.5,0
		s0.3,0.1,0.3,0.2c0,1-1.2,1.5-3.5,1.5h-0.1l-0.8,2c-0.9,2.4-1.3,4-1.3,5c0,0.3,0.1,0.5,0.2,0.6c0.1,0.1,0.3,0.2,0.7,0.2
		c0.3,0,0.6-0.1,0.9-0.2c0.3-0.1,0.5-0.2,0.7-0.4c0.2-0.1,0.4-0.3,0.5-0.4C136.2,468,136.3,468,136.4,468z"/>
</g>
<ellipse fill="#19A8F7" cx="304.8" cy="218.9" rx="9.3" ry="9.6"/>
<path d="M349.5,259.9l-44.7-41v60.6l13.5-13l7.9,18.2l12.6-5.6l-7.9-18.2L349.5,259.9z"/>
<polygon fill="#FFFFFF" points="333.7,277.1 328.1,279.5 319.7,259.9 309,270.1 309,227.7 340.2,256.6 324.8,257.6 "/>
</svg>
