<?xml version="1.0" encoding="utf-8"?>
<!-- Generator: Adobe Illustrator 18.0.0, SVG Export Plug-In . SVG Version: 6.00 Build 0)  -->
<!DOCTYPE svg PUBLIC "-//W3C//DTD SVG 1.1//EN" "http://www.w3.org/Graphics/SVG/1.1/DTD/svg11.dtd">
<svg version="1.1" id="Layer_1" xmlns="http://www.w3.org/2000/svg" xmlns:xlink="http://www.w3.org/1999/xlink" x="0px" y="0px"
	 width="456.7px" height="394.1px" viewBox="0 0 456.7 394.1" enable-background="new 0 0 456.7 394.1" xml:space="preserve">
<line fill="none" stroke="#19A8F7" stroke-width="1.8188" stroke-miterlimit="10" stroke-dasharray="7.2751" x1="377.1" y1="119.4" x2="0.9" y2="119.4"/>
<line fill="none" stroke="#19A8F7" stroke-width="1.8188" stroke-miterlimit="10" stroke-dasharray="7.2751" x1="377.1" y1="28.7" x2="377.1" y2="78.5"/>
<rect x="0.9" y="28.7" fill="none" stroke="#C6C6C6" stroke-width="1.8188" stroke-miterlimit="10" width="454.9" height="364.4"/>
<rect x="51.2" y="160" fill="none" stroke="#EAEAEA" stroke-width="1.8188" stroke-miterlimit="10" stroke-dasharray="3.6376" width="192" height="192"/>
<circle fill="#F96816" cx="166.8" cy="279.5" r="7.2"/>
<circle fill="#19A8F7" cx="374.7" cy="117" r="7.2"/>
<circle fill="none" stroke="#FCC515" stroke-width="3.6376" stroke-miterlimit="10" stroke-dasharray="9.0939" cx="147.2" cy="256.1" r="96"/>
<line fill="none" stroke="#F96816" stroke-width="1.8188" stroke-miterlimit="10" stroke-dasharray="3.6376" x1="149.1" y1="278.5" x2="51.2" y2="278.5"/>
<line fill="none" stroke="#F96816" stroke-width="1.8188" stroke-miterlimit="10" stroke-dasharray="3.6376" x1="243.2" y1="278.5" x2="188.9" y2="278.5"/>
<line fill="none" stroke="#F96816" stroke-width="1.8188" stroke-miterlimit="10" stroke-dasharray="3.6376" x1="166.8" y1="244.6" x2="166.8" y2="160"/>
<line fill="none" stroke="#F96816" stroke-width="1.9417" stroke-miterlimit="10" stroke-dasharray="3.8835" x1="166.8" y1="350.1" x2="166.8" y2="291.9"/>
<rect x="84" y="263.4" fill="#FFFFFF" width="37.5" height="28.4"/>
<g>
	<path fill="#C6C6C6" d="M9.4,17.8c-1,0.9-1.8,1.4-2.4,1.4c-0.6,0-1-0.3-1.2-0.9c-0.1-0.2-0.1-0.4-0.1-0.6c0-0.5,0.1-1,0.2-1.4
		C6,15.8,6.1,15.4,6.3,15l1-2.6c0.4-1,0.6-1.8,0.7-2.2c0.1-0.4,0.1-0.7,0-0.8C7.8,9.2,7.7,9.1,7.6,9S7.3,8.7,7.2,8.7S7,8.5,7,8.3
		C7,8.2,7.1,8.1,7.2,8c0.1-0.1,0.3-0.2,0.4-0.3C8,7.5,8.3,7.4,8.7,7.4s0.7,0,0.9,0.1c0.2,0.1,0.4,0.2,0.5,0.3
		c0.3,0.2,0.4,0.5,0.4,0.9c0,0.4-0.1,0.7-0.2,1.2s-0.3,0.9-0.4,1.4c-0.2,0.5-0.4,1-0.6,1.5l-0.6,1.6c-0.5,1.3-0.8,2.2-0.9,2.8
		c0.7-0.2,1.6-1.1,2.8-2.6C12,13,13.1,11.1,14.1,9c0.1-0.3,0.3-0.4,0.4-0.5c0.3-0.1,0.6-0.2,1-0.2c0.7,0,1,0.2,1,0.6
		c0,0.2,0,0.5-0.2,0.8s-0.3,0.5-0.3,0.7l-0.4,0.9c-0.9,1.8-1.3,3.2-1.3,4.4c0,0.8,0.2,1.3,0.6,1.6c0.1,0.1,0.3,0.1,0.6,0.1
		c0.2,0,0.5-0.1,0.9-0.3c0.3-0.2,0.7-0.4,1-0.7c0.3-0.3,0.6-0.7,0.9-1.1s0.5-0.9,0.7-1.3c0.4-1,0.6-1.9,0.6-2.6
		c0-1.3-0.2-2.3-0.7-2.9c-0.2-0.2-0.1-0.4,0.1-0.7c0.3-0.3,0.7-0.4,1.3-0.4c0.7,0,1.2,0.4,1.5,1.2c0.1,0.3,0.2,0.8,0.2,1.4
		s-0.1,1.3-0.3,2.1c-0.2,0.8-0.5,1.5-0.9,2.2c-0.4,0.7-0.8,1.4-1.3,2c-0.5,0.6-1,1.1-1.5,1.6c-1.1,1-2.2,1.4-3.2,1.4
		c-1.7,0-2.5-1.1-2.5-3.3c0-0.5,0-1,0.1-1.5C11.4,15.8,10.4,16.9,9.4,17.8z"/>
	<path fill="#C6C6C6" d="M26.8,17c0.2,0,0.3,0.1,0.3,0.4c0,0.3-0.2,0.7-0.5,1.1c-0.5,0.5-1.1,0.8-1.8,0.8c-0.9,0-1.5-0.4-1.8-1.1
		c-0.1-0.2-0.2-0.6-0.2-0.9s0.1-0.7,0.2-1.2c0.1-0.4,0.3-0.9,0.5-1.4c0.2-0.5,0.4-1,0.6-1.5l0.6-1.4c0.4-1.1,0.7-1.8,0.7-2.1
		s0-0.6-0.1-0.7c-0.1-0.1-0.1-0.2-0.2-0.3l-0.2-0.2c-0.1-0.1-0.1-0.1-0.1-0.3c0-0.1,0.1-0.3,0.2-0.4s0.2-0.2,0.4-0.3
		c0.3-0.2,0.7-0.3,1.2-0.3c1.1,0,1.7,0.3,1.7,0.9c0,0.7-0.2,1.5-0.5,2.3c-0.4,0.9-0.7,1.6-0.9,2.1L26,14.3c-0.5,1.1-0.7,2-0.7,2.5
		c0,0.3,0.2,0.5,0.5,0.5c0.3,0,0.6,0,0.7-0.1S26.8,17,26.8,17z M29.2,4.7C29,4.9,28.8,5,28.6,5.1c-0.2,0.1-0.4,0.2-0.7,0.2
		c-0.2,0-0.5,0-0.7-0.1C27,5.1,26.9,5,26.7,4.8c-0.3-0.4-0.5-0.8-0.5-1.1s0.1-0.7,0.2-0.9c0.1-0.2,0.3-0.3,0.5-0.5
		c0.4-0.2,0.7-0.4,1-0.4s0.6,0,0.7,0.1c0.2,0,0.3,0.1,0.5,0.2c0.4,0.2,0.6,0.6,0.6,0.9c0,0.4-0.1,0.7-0.2,0.9S29.3,4.5,29.2,4.7z"/>
	<path fill="#C6C6C6" d="M37.8,9.5c-0.2,0-0.6,0.2-1,0.7c-0.4,0.4-0.8,0.9-1.1,1.2l-1,1.2l-1.9,2.4c-0.4,0.8-0.8,1.5-1,2.1l-0.6,1.3
		c-0.2,0.3-0.3,0.6-0.4,0.7c-0.1,0.1-0.3,0.2-0.5,0.2s-0.4,0-0.6-0.1c-0.2-0.1-0.3-0.2-0.5-0.3c-0.3-0.2-0.4-0.5-0.4-0.8
		c0-0.1,0.1-0.3,0.2-0.7l0.4-0.9c0.1-0.3,0.3-0.6,0.5-1l0.6-1.6c0.9-2.2,1.3-3.7,1.3-4.3c0-0.3-0.1-0.6-0.3-0.8l-0.2-0.2
		c-0.1-0.1-0.1-0.1-0.1-0.3c0-0.1,0.1-0.3,0.2-0.4s0.2-0.2,0.4-0.3c0.3-0.2,0.7-0.3,1-0.3s0.6,0,0.8,0.1c0.2,0.1,0.3,0.2,0.5,0.3
		c0.3,0.3,0.4,0.5,0.4,0.8s0,0.6-0.1,0.9c-0.1,0.3-0.2,0.6-0.3,0.9S34,11,33.9,11.2c-0.1,0.3-0.2,0.5-0.3,0.7l-0.2,0.5
		c-0.1,0.1-0.1,0.2,0,0.1c0.8-1.2,1.4-1.9,1.7-2.2l0.8-1c0.6-0.7,1-1.1,1.4-1.3c0.7-0.5,1.2-0.7,1.6-0.7s0.7,0,1,0.1
		c0.3,0.1,0.5,0.2,0.7,0.4C40.8,8.3,41,8.8,41,9.4s-0.1,1.2-0.4,1.9s-0.5,1.2-0.7,1.6c-0.2,0.4-0.4,0.8-0.6,1.2
		c-0.6,1.3-0.8,2.2-0.8,2.8c0,0.3,0.2,0.4,0.6,0.4c0.3,0,0.6-0.1,0.9-0.2c0.3-0.1,0.4-0.2,0.5-0.2c0.2,0,0.2,0.1,0.2,0.2
		c0,0.7-0.3,1.2-1,1.7c-0.5,0.3-0.9,0.5-1.3,0.5s-0.7,0-1-0.1c-0.3-0.1-0.5-0.2-0.7-0.4c-0.4-0.4-0.7-1-0.7-1.7c0-0.9,0.3-2,0.8-3.3
		c0.4-0.9,0.7-1.5,0.8-1.8l0.4-0.8c0.2-0.5,0.4-0.9,0.4-1.1S38.3,9.5,37.8,9.5z"/>
	<path fill="#C6C6C6" d="M54,16.8c0.2,0,0.2,0.1,0.2,0.2c0,0.6-0.3,1.2-1,1.7c-0.4,0.3-0.9,0.5-1.3,0.5s-0.7,0-0.9-0.1
		c-0.2-0.1-0.4-0.2-0.6-0.4c-0.4-0.5-0.6-1.1-0.6-1.9c0-0.2,0-0.4,0.1-0.8c-0.6,0.9-1.1,1.6-1.6,2c-0.9,0.8-1.7,1.2-2.6,1.2
		c-1.3,0-2.2-0.6-2.6-1.8c-0.2-0.4-0.2-1-0.2-1.7c0-0.7,0.1-1.4,0.3-2c0.2-0.7,0.5-1.3,0.8-2c0.4-0.6,0.8-1.2,1.2-1.7
		c0.5-0.5,1-1,1.5-1.4c1.1-0.8,2.1-1.2,3-1.2s1.6,0.4,2.1,1.1c1.3-4.5,2.3-7.2,3-8C55,0.2,55.3,0,55.6,0c0.5,0,0.9,0.1,1.2,0.4
		c0.1,0.1,0.1,0.2,0.1,0.3S56.9,1,56.7,1.3S56.4,2,56.2,2.6c-0.7,1.8-1.1,3.1-1.4,3.9c-0.7,2.1-1.2,3.6-1.4,4.4l-0.6,2.1
		C52.2,14.8,52,16,52,16.5c0,0.5,0.2,0.8,0.6,0.8c0.3,0,0.6,0,0.8-0.1l0.4-0.2C53.9,16.8,53.9,16.8,54,16.8z M46.2,17.5
		c0.8,0,1.7-0.8,2.7-2.3c1-1.6,1.8-3.3,2.2-5.1c0-0.5-0.2-0.9-0.6-1.1c-0.1-0.1-0.3-0.1-0.6-0.1s-0.6,0.1-1,0.3
		c-0.4,0.2-0.7,0.5-1.1,0.8s-0.7,0.7-1,1.2s-0.6,0.9-0.8,1.5c-0.5,1.1-0.7,2.2-0.7,3.3S45.6,17.5,46.2,17.5z"/>
	<path fill="#C6C6C6" d="M56.7,18.3c-0.3-0.3-0.6-0.7-0.7-1.1c-0.2-0.5-0.3-1-0.3-1.6c0-0.6,0.1-1.3,0.2-1.9
		c0.2-0.6,0.4-1.3,0.7-1.9c0.3-0.6,0.7-1.2,1.1-1.7c0.4-0.5,0.9-1,1.4-1.4c1.1-0.8,2.2-1.3,3.4-1.3c1.6,0,2.6,0.7,3.2,2.1
		c0.4,1,0.4,2.2,0.1,3.6c-0.3,1.3-0.9,2.5-1.7,3.6c-0.8,1.1-1.8,1.8-3,2.3c-0.6,0.2-1.1,0.3-1.7,0.3s-1-0.1-1.5-0.2
		C57.4,18.9,57,18.6,56.7,18.3z M58.8,12.8c-0.2,0.6-0.4,1.1-0.5,1.7c-0.1,0.6-0.2,1.1-0.2,1.7c0,0.5,0.1,0.9,0.2,1.2
		s0.4,0.4,0.8,0.4s0.7-0.1,1-0.4c0.3-0.2,0.7-0.6,1-0.9c0.3-0.4,0.6-0.8,0.9-1.4s0.5-1,0.7-1.6c0.5-1.2,0.7-2.3,0.7-3.2
		c0-0.8-0.2-1.4-0.5-1.6c-0.1-0.1-0.3-0.1-0.6-0.1c-0.2,0-0.5,0.1-0.8,0.3c-0.3,0.2-0.6,0.5-1,0.9c-0.3,0.4-0.6,0.8-0.9,1.3
		S59.1,12.3,58.8,12.8z"/>
	<path fill="#C6C6C6" d="M71.3,17.8c-1,0.9-1.8,1.4-2.4,1.4c-0.6,0-1-0.3-1.2-0.9c-0.1-0.2-0.1-0.4-0.1-0.6c0-0.5,0.1-1,0.2-1.4
		c0.2-0.5,0.3-0.9,0.5-1.3l1-2.6c0.4-1,0.6-1.8,0.7-2.2c0.1-0.4,0.1-0.7,0-0.8c-0.1-0.1-0.2-0.3-0.4-0.4s-0.3-0.2-0.4-0.3
		s-0.2-0.2-0.2-0.3c0-0.1,0.1-0.3,0.2-0.4c0.1-0.1,0.3-0.2,0.4-0.3c0.4-0.2,0.7-0.3,1.1-0.3s0.7,0,0.9,0.1c0.2,0.1,0.4,0.2,0.5,0.3
		c0.3,0.2,0.4,0.5,0.4,0.9c0,0.4-0.1,0.7-0.2,1.2s-0.3,0.9-0.4,1.4c-0.2,0.5-0.4,1-0.6,1.5l-0.6,1.6c-0.5,1.3-0.8,2.2-0.9,2.8
		c0.7-0.2,1.6-1.1,2.8-2.6C73.9,13,75,11.1,76,9c0.1-0.3,0.3-0.4,0.4-0.5c0.3-0.1,0.6-0.2,1-0.2c0.7,0,1,0.2,1,0.6
		c0,0.2,0,0.5-0.2,0.8s-0.3,0.5-0.3,0.7l-0.4,0.9c-0.9,1.8-1.3,3.2-1.3,4.4c0,0.8,0.2,1.3,0.6,1.6c0.1,0.1,0.3,0.1,0.6,0.1
		c0.2,0,0.5-0.1,0.9-0.3s0.7-0.4,1-0.7c0.3-0.3,0.6-0.7,0.9-1.1s0.5-0.9,0.7-1.3c0.4-1,0.6-1.9,0.6-2.6c0-1.3-0.2-2.3-0.7-2.9
		c-0.2-0.2-0.1-0.4,0.1-0.7c0.3-0.3,0.7-0.4,1.3-0.4c0.7,0,1.2,0.4,1.5,1.2c0.1,0.3,0.2,0.8,0.2,1.4s-0.1,1.3-0.3,2.1
		c-0.2,0.8-0.5,1.5-0.9,2.2c-0.4,0.7-0.8,1.4-1.3,2c-0.5,0.6-1,1.1-1.5,1.6c-1.1,1-2.2,1.4-3.2,1.4c-1.7,0-2.5-1.1-2.5-3.3
		c0-0.5,0-1,0.1-1.5C73.3,15.8,72.3,16.9,71.3,17.8z"/>
</g>
<rect x="184.8" y="263.4" fill="#FFFFFF" width="38.2" height="28.4"/>
<g>
	<path fill="#F96816" d="M190.7,275.1c0.4,0,0.7,0,1,0.1l-0.2,1.2c-0.4-0.1-0.7-0.1-1-0.1c-0.7,0-1.3,0.3-1.8,0.9
		c-0.5,0.6-0.8,1.3-0.8,2.2v4.7h-1.3v-8.8h1.1l0.2,1.6h0.1c0.3-0.6,0.7-1,1.2-1.3C189.6,275.2,190.2,275.1,190.7,275.1z"/>
	<path fill="#F96816" d="M193.3,272.9c0-0.3,0.1-0.5,0.2-0.7c0.1-0.1,0.3-0.2,0.6-0.2c0.2,0,0.4,0.1,0.6,0.2
		c0.2,0.1,0.2,0.4,0.2,0.7c0,0.3-0.1,0.5-0.2,0.7c-0.2,0.1-0.3,0.2-0.6,0.2c-0.2,0-0.4-0.1-0.6-0.2S193.3,273.2,193.3,272.9z
		 M194.7,284h-1.3v-8.8h1.3V284z"/>
	<path fill="#F96816" d="M204.7,275.2v0.8l-1.6,0.2c0.1,0.2,0.3,0.4,0.4,0.7s0.2,0.6,0.2,1c0,0.9-0.3,1.5-0.9,2.1
		c-0.6,0.5-1.4,0.8-2.4,0.8c-0.3,0-0.5,0-0.7-0.1c-0.6,0.3-0.8,0.7-0.8,1.1c0,0.2,0.1,0.4,0.3,0.5c0.2,0.1,0.5,0.2,1,0.2h1.5
		c0.9,0,1.7,0.2,2.2,0.6s0.8,1,0.8,1.7c0,1-0.4,1.7-1.2,2.2c-0.8,0.5-1.9,0.8-3.4,0.8c-1.1,0-2-0.2-2.6-0.6c-0.6-0.4-0.9-1-0.9-1.8
		c0-0.5,0.2-1,0.5-1.4c0.3-0.4,0.8-0.7,1.4-0.8c-0.2-0.1-0.4-0.3-0.6-0.5c-0.2-0.2-0.2-0.5-0.2-0.7c0-0.3,0.1-0.6,0.3-0.8
		c0.2-0.2,0.4-0.5,0.8-0.7c-0.5-0.2-0.8-0.5-1.1-1s-0.4-1-0.4-1.5c0-1,0.3-1.7,0.9-2.2s1.4-0.8,2.4-0.8c0.5,0,0.9,0.1,1.2,0.2H204.7
		z M197.7,285.5c0,0.5,0.2,0.8,0.6,1.1c0.4,0.2,1,0.4,1.7,0.4c1.1,0,1.9-0.2,2.5-0.5c0.5-0.3,0.8-0.8,0.8-1.4c0-0.5-0.1-0.8-0.4-1
		s-0.8-0.3-1.7-0.3h-1.6c-0.6,0-1.1,0.1-1.4,0.4C197.9,284.5,197.7,284.9,197.7,285.5z M198.4,278c0,0.6,0.2,1.1,0.5,1.4
		c0.3,0.3,0.8,0.5,1.4,0.5c1.3,0,1.9-0.6,1.9-1.9c0-1.3-0.7-2-2-2c-0.6,0-1.1,0.2-1.4,0.5C198.6,276.9,198.4,277.4,198.4,278z"/>
	<path fill="#F96816" d="M212.5,284v-5.7c0-0.7-0.2-1.2-0.5-1.6c-0.3-0.4-0.8-0.5-1.5-0.5c-0.9,0-1.6,0.3-2,0.8s-0.6,1.3-0.6,2.5
		v4.6h-1.3v-12.4h1.3v3.8c0,0.5,0,0.8-0.1,1.1h0.1c0.3-0.4,0.6-0.8,1.1-1s1-0.4,1.7-0.4c1.1,0,1.9,0.3,2.4,0.8s0.8,1.3,0.8,2.4v5.7
		H212.5z"/>
	<path fill="#F96816" d="M219.4,283.1c0.2,0,0.5,0,0.7-0.1c0.2,0,0.4-0.1,0.5-0.1v1c-0.1,0.1-0.4,0.1-0.6,0.2
		c-0.3,0-0.5,0.1-0.8,0.1c-1.7,0-2.5-0.9-2.5-2.7v-5.2h-1.3v-0.6l1.3-0.6l0.6-1.9h0.8v2h2.5v1H218v5.2c0,0.5,0.1,0.9,0.4,1.2
		C218.6,282.9,218.9,283.1,219.4,283.1z"/>
</g>
<g>
	<path fill="#F96816" d="M95.9,284h-1.3v-12.4h1.3V284z"/>
	<path fill="#F96816" d="M102.4,284.1c-1.3,0-2.3-0.4-3.1-1.2c-0.7-0.8-1.1-1.9-1.1-3.3c0-1.4,0.3-2.5,1-3.4
		c0.7-0.8,1.6-1.2,2.8-1.2c1.1,0,2,0.4,2.6,1.1c0.6,0.7,1,1.7,1,2.9v0.8h-6c0,1,0.3,1.8,0.8,2.3c0.5,0.5,1.2,0.8,2.1,0.8
		c0.9,0,1.9-0.2,2.8-0.6v1.2c-0.5,0.2-0.9,0.3-1.3,0.4C103.5,284.1,103,284.1,102.4,284.1z M102,276.2c-0.7,0-1.3,0.2-1.7,0.7
		c-0.4,0.5-0.7,1.1-0.7,1.9h4.6c0-0.8-0.2-1.5-0.6-1.9C103.2,276.4,102.7,276.2,102,276.2z"/>
	<path fill="#F96816" d="M111.8,276.3h-2.2v7.7h-1.3v-7.7h-1.6v-0.6l1.6-0.5v-0.5c0-2.2,0.9-3.2,2.8-3.2c0.5,0,1,0.1,1.6,0.3
		l-0.3,1.1c-0.5-0.2-0.9-0.2-1.3-0.2c-0.5,0-0.9,0.2-1.1,0.5s-0.4,0.9-0.4,1.6v0.6h2.2V276.3z"/>
	<path fill="#F96816" d="M116.2,283.1c0.2,0,0.5,0,0.7-0.1c0.2,0,0.4-0.1,0.5-0.1v1c-0.1,0.1-0.4,0.1-0.6,0.2
		c-0.3,0-0.5,0.1-0.8,0.1c-1.7,0-2.5-0.9-2.5-2.7v-5.2h-1.3v-0.6l1.3-0.6l0.6-1.9h0.8v2h2.5v1h-2.5v5.2c0,0.5,0.1,0.9,0.4,1.2
		C115.4,282.9,115.8,283.1,116.2,283.1z"/>
</g>
<rect x="172.4" y="103.1" fill="#FFFFFF" width="51.1" height="28.4"/>
<g>
	<path fill="#19A8F7" d="M188.2,123.6h-1.3v-12.4h1.3V123.6z"/>
	<path fill="#19A8F7" d="M194.7,123.8c-1.3,0-2.3-0.4-3.1-1.2s-1.1-1.9-1.1-3.3c0-1.4,0.3-2.5,1-3.4c0.7-0.8,1.6-1.2,2.8-1.2
		c1.1,0,2,0.4,2.6,1.1c0.6,0.7,1,1.7,1,2.9v0.8h-6c0,1,0.3,1.8,0.8,2.3s1.2,0.8,2.1,0.8c0.9,0,1.9-0.2,2.8-0.6v1.2
		c-0.5,0.2-0.9,0.3-1.3,0.4C195.8,123.7,195.3,123.8,194.7,123.8z M194.3,115.8c-0.7,0-1.3,0.2-1.7,0.7c-0.4,0.5-0.7,1.1-0.7,1.9
		h4.6c0-0.8-0.2-1.5-0.6-1.9C195.6,116,195,115.8,194.3,115.8z"/>
	<path fill="#19A8F7" d="M204.1,115.9h-2.2v7.7h-1.3v-7.7H199v-0.6l1.6-0.5v-0.5c0-2.2,0.9-3.2,2.8-3.2c0.5,0,1,0.1,1.6,0.3
		l-0.3,1.1c-0.5-0.2-0.9-0.2-1.3-0.2c-0.5,0-0.9,0.2-1.1,0.5c-0.2,0.3-0.4,0.9-0.4,1.6v0.6h2.2V115.9z"/>
	<path fill="#19A8F7" d="M208.6,122.7c0.2,0,0.5,0,0.7-0.1c0.2,0,0.4-0.1,0.5-0.1v1c-0.1,0.1-0.4,0.1-0.6,0.2
		c-0.3,0-0.5,0.1-0.8,0.1c-1.7,0-2.5-0.9-2.5-2.7v-5.2h-1.3v-0.6l1.3-0.6l0.6-1.9h0.8v2h2.5v1h-2.5v5.2c0,0.5,0.1,0.9,0.4,1.2
		C207.8,122.5,208.1,122.7,208.6,122.7z"/>
</g>
<rect x="365.3" y="36.5" fill="#FFFFFF" width="24.5" height="37.1"/>
<g>
	<path fill="#19A8F7" d="M374.1,46.6c0,0.2,0,0.5,0.1,0.7c0,0.2,0.1,0.4,0.1,0.5h-1c-0.1-0.1-0.1-0.4-0.2-0.6s-0.1-0.5-0.1-0.8
		c0-1.7,0.9-2.5,2.7-2.5h5.2v-1.3h0.6l0.6,1.3l1.9,0.6v0.8h-2v2.5h-1v-2.5h-5.2c-0.5,0-0.9,0.1-1.2,0.4
		C374.2,45.8,374.1,46.1,374.1,46.6z"/>
	<path fill="#19A8F7" d="M377.5,57.1c-1.4,0-2.5-0.4-3.3-1.1s-1.2-1.7-1.2-3c0-0.8,0.2-1.5,0.6-2.1c0.4-0.6,0.9-1.1,1.6-1.4
		c0.7-0.3,1.5-0.5,2.4-0.5c1.4,0,2.5,0.4,3.3,1.1c0.8,0.7,1.2,1.7,1.2,3c0,1.2-0.4,2.2-1.2,2.9S378.9,57.1,377.5,57.1z M377.5,50.4
		c-1.1,0-2,0.2-2.6,0.7s-0.9,1.1-0.9,2s0.3,1.5,0.9,2c0.6,0.5,1.4,0.7,2.6,0.7c1.1,0,2-0.2,2.5-0.7s0.9-1.1,0.9-2
		c0-0.9-0.3-1.5-0.9-2C379.5,50.6,378.6,50.4,377.5,50.4z"/>
	<path fill="#19A8F7" d="M373,63.5c0-0.6,0.1-1.1,0.3-1.6c0.2-0.5,0.5-0.9,1-1.2v-0.1c-0.5,0.1-1,0.1-1.5,0.1h-3.6v-1.3h12.7v1.1
		l-1.2,0.2v0.1c0.5,0.3,0.8,0.7,1,1.2c0.2,0.5,0.3,1,0.3,1.6c0,1.2-0.4,2.1-1.2,2.7s-1.9,0.9-3.3,0.9c-1.4,0-2.6-0.3-3.4-1
		C373.4,65.5,373,64.6,373,63.5z M380.9,63.3c0-0.9-0.2-1.5-0.7-1.9c-0.5-0.4-1.3-0.6-2.4-0.6h-0.3c-1.2,0-2.1,0.2-2.6,0.6
		c-0.5,0.4-0.8,1.1-0.8,2c0,0.8,0.3,1.3,0.9,1.8c0.6,0.4,1.5,0.6,2.5,0.6c1.1,0,1.9-0.2,2.5-0.6C380.6,64.7,380.9,64.1,380.9,63.3z"
		/>
</g>
<rect x="152.6" y="203" fill="#FFFFFF" width="28.4" height="35.6"/>
<g>
	<path fill="#F96816" d="M170.4,228.2c0-0.2,0-0.5-0.1-0.7c0-0.2-0.1-0.4-0.1-0.5h1c0.1,0.1,0.1,0.4,0.2,0.6c0,0.3,0.1,0.5,0.1,0.8
		c0,1.7-0.9,2.5-2.7,2.5h-5.2v1.3h-0.6l-0.6-1.3l-1.9-0.6v-0.8h2v-2.5h1v2.5h5.2c0.5,0,0.9-0.1,1.2-0.4
		C170.2,229,170.4,228.6,170.4,228.2z"/>
	<path fill="#F96816" d="M166.9,217.7c1.4,0,2.5,0.4,3.3,1.1c0.8,0.7,1.2,1.7,1.2,3c0,0.8-0.2,1.5-0.6,2.1c-0.4,0.6-0.9,1.1-1.6,1.4
		c-0.7,0.3-1.5,0.5-2.4,0.5c-1.4,0-2.5-0.4-3.3-1.1c-0.8-0.7-1.2-1.7-1.2-3c0-1.2,0.4-2.2,1.2-2.9
		C164.4,218.1,165.5,217.7,166.9,217.7z M166.9,224.4c1.1,0,2-0.2,2.6-0.7c0.6-0.4,0.9-1.1,0.9-2c0-0.9-0.3-1.5-0.9-2
		c-0.6-0.5-1.4-0.7-2.6-0.7c-1.1,0-2,0.2-2.5,0.7s-0.9,1.1-0.9,2c0,0.9,0.3,1.5,0.9,2C164.9,224.1,165.8,224.4,166.9,224.4z"/>
	<path fill="#F96816" d="M171.5,211.3c0,0.6-0.1,1.1-0.3,1.6c-0.2,0.5-0.5,0.9-1,1.2v0.1c0.5-0.1,1-0.1,1.5-0.1h3.6v1.3h-12.7v-1.1
		l1.2-0.2V214c-0.5-0.3-0.8-0.7-1-1.2c-0.2-0.5-0.3-1-0.3-1.6c0-1.2,0.4-2.1,1.2-2.7c0.8-0.6,1.9-0.9,3.3-0.9c1.4,0,2.6,0.3,3.4,1
		C171.1,209.3,171.5,210.2,171.5,211.3z M163.5,211.5c0,0.9,0.2,1.5,0.7,1.9c0.5,0.4,1.3,0.6,2.4,0.6h0.3c1.2,0,2.1-0.2,2.6-0.6
		c0.5-0.4,0.8-1.1,0.8-2c0-0.8-0.3-1.3-0.9-1.8c-0.6-0.4-1.5-0.6-2.5-0.6c-1.1,0-1.9,0.2-2.5,0.6
		C163.8,210.1,163.5,210.7,163.5,211.5z"/>
</g>
<g>
	<path fill="#FCC515" d="M63,135.2c0-0.6-0.4-1-1.1-1c-1.4,0-2.8,0.7-3.9,2c-0.7,0.8-1.2,1.6-1.5,2.5c-0.1,0.4-0.2,0.8-0.2,1.2
		s0,0.6,0.1,0.8c0.1,0.2,0.2,0.4,0.3,0.5c0.3,0.3,0.6,0.4,0.9,0.3c0.4-0.2,0.7-0.2,1-0.2s0.5,0,0.7,0.1c0.2,0.1,0.3,0.2,0.4,0.3
		c0.2,0.2,0.3,0.4,0.3,0.6c0,0.4-0.1,0.6-0.4,0.6c-0.4,0-0.8,0.1-1.2,0.3c-0.4,0.2-0.9,0.4-1.3,0.7s-0.8,0.6-1.2,1
		c-0.8,0.8-1.2,1.7-1.2,2.5c0,0.4,0.1,0.7,0.3,0.9c0.3,0.4,0.7,0.5,1.1,0.5s0.9-0.1,1.3-0.3s0.8-0.4,1.1-0.6c0.5-0.4,1-0.8,1.5-1.4
		c0.2-0.3,0.5-0.4,0.6-0.4c0.2,0,0.3,0.1,0.4,0.3c0.1,0.2,0.1,0.4,0.1,0.7c0,0.5-0.1,0.9-0.3,1.1c-0.2,0.2-0.4,0.5-0.7,0.7
		c-0.3,0.2-0.6,0.5-1,0.7c-0.9,0.5-2,0.7-3,0.7c-1.8,0-3.1-0.6-3.7-1.8c-0.2-0.4-0.4-0.9-0.4-1.4c0-0.5,0.1-0.9,0.2-1.3
		c0.1-0.4,0.3-0.8,0.5-1.1c0.2-0.3,0.5-0.7,0.7-0.9c0.3-0.3,0.5-0.5,0.8-0.7c0.5-0.4,1-0.6,1.3-0.7c-0.9-0.3-1.4-1-1.7-2
		c-0.1-0.3-0.1-0.7-0.1-1.2s0.1-1,0.3-1.5c0.2-0.5,0.4-1.1,0.7-1.6c0.3-0.5,0.7-1,1.1-1.4c0.4-0.4,0.9-0.8,1.4-1.1
		c1.1-0.7,2.3-1,3.6-1c1.3,0,2.3,0.3,3,1c0.5,0.5,0.8,1.2,0.8,2c0,0.9-0.4,1.9-1.2,2.8c-0.5,0.6-0.9,1-1.3,1.2s-0.7,0.3-0.9,0.3
		c-0.2,0-0.4,0-0.6-0.1c-0.2-0.1-0.3-0.2-0.5-0.3c-0.3-0.3-0.5-0.5-0.5-0.8c0-0.3,0.1-0.5,0.3-0.6l1-0.7
		C62.4,136.7,63,135.9,63,135.2z"/>
	<path fill="#FCC515" d="M64.4,149.9c-0.2-0.2-0.3-0.4-0.5-0.8c-0.1-0.3-0.2-0.7-0.2-1.1c0-0.4,0.1-0.9,0.3-1.6
		c0.2-0.7,0.4-1.5,0.7-2.3l1-2.8c1.4-3.9,2.1-7,2.3-9.1c0.1-0.6,0.4-1,0.9-1c0.3,0,0.6,0.1,0.9,0.3c0.4,0.3,0.6,0.7,0.6,1.1
		c0,0.4-0.1,0.9-0.2,1.5s-0.3,1.2-0.5,1.9c-0.2,0.7-0.4,1.4-0.7,2.2l-1.6,4.6c-0.9,2.6-1.3,4.3-1.3,5.1c0,0.4,0.2,0.6,0.5,0.6
		c0.3,0,0.6-0.1,0.9-0.2c0.3-0.1,0.4-0.2,0.5-0.2c0.2,0,0.2,0.1,0.2,0.2c0,0.7-0.3,1.2-1,1.7c-0.5,0.3-0.9,0.5-1.3,0.5
		s-0.7,0-0.9-0.1C64.8,150.2,64.6,150.1,64.4,149.9z"/>
	<path fill="#FCC515" d="M70.4,146.3c0-0.7,0.1-1.3,0.3-1.9s0.4-1.2,0.8-1.7c0.3-0.6,0.7-1.1,1.1-1.6c0.4-0.5,0.9-0.9,1.4-1.3
		c1.1-0.8,2.2-1.2,3.3-1.2c1.3,0,2.2,0.5,2.6,1.6c0.2,0.4,0.2,0.8,0.2,1.3c0,0.5-0.1,1-0.3,1.4c-0.2,0.4-0.4,0.8-0.8,1.1
		c-0.3,0.3-0.7,0.7-1.1,0.9s-0.9,0.5-1.4,0.7c-1.1,0.4-2.2,0.6-3.4,0.6c0,0.1,0,0.3-0.1,0.5c0,0.2,0,0.4,0.1,0.7
		c0.1,0.3,0.1,0.5,0.3,0.7c0.3,0.5,0.7,0.7,1.2,0.7c0.9,0,1.7-0.3,2.6-0.8c0.3-0.2,0.5-0.4,0.7-0.5c0.2-0.2,0.3-0.3,0.5-0.3
		c0.1,0,0.3,0.1,0.4,0.2c0.1,0.2,0.2,0.3,0.2,0.5c0,0.4-0.1,0.7-0.3,1c-1,1-2.4,1.4-4.2,1.4c-1.1,0-2-0.3-2.7-1
		C70.8,148.7,70.4,147.6,70.4,146.3z M77.1,140.1c-0.8,0-1.6,0.5-2.3,1.6c-0.6,0.9-1.1,2-1.5,3.3c1.3-0.1,2.4-0.6,3.3-1.5
		c0.9-0.8,1.3-1.6,1.3-2.3C77.8,140.5,77.6,140.1,77.1,140.1z"/>
	<path fill="#FCC515" d="M89.8,140.7c-0.4,0-1.2,0.6-2.4,1.9c-0.9,1-1.5,1.7-1.9,2.2l-1,1.3c-0.4,0.8-0.8,1.5-1,2.1l-0.6,1.3
		c-0.2,0.3-0.3,0.6-0.4,0.7c-0.1,0.1-0.3,0.2-0.5,0.2s-0.4,0-0.6-0.1s-0.3-0.2-0.5-0.3c-0.3-0.2-0.4-0.5-0.4-0.8
		c0-0.1,0.1-0.3,0.2-0.7l0.4-0.9c0.1-0.3,0.3-0.6,0.5-1l0.6-1.6c0.9-2.2,1.3-3.7,1.3-4.3c0-0.3-0.1-0.6-0.3-0.8l-0.2-0.2
		c-0.1-0.1-0.1-0.1-0.1-0.3c0-0.1,0.1-0.3,0.2-0.4c0.1-0.1,0.2-0.2,0.4-0.3c0.3-0.2,0.7-0.3,1-0.3s0.6,0,0.8,0.1s0.4,0.2,0.5,0.3
		c0.3,0.3,0.4,0.5,0.4,0.8s0,0.6-0.1,0.9c-0.1,0.3-0.2,0.6-0.3,0.9c-0.1,0.3-0.2,0.6-0.4,0.9c-0.3,0.6-0.5,1-0.6,1.2
		c-0.1,0.1-0.1,0.2-0.1,0.2c1.4-1.8,2.2-2.8,2.5-3.2c0.6-0.7,1-1.1,1.4-1.4c0.6-0.4,1.2-0.7,1.7-0.7c0.5,0,1,0.2,1.3,0.5
		c0.3,0.3,0.5,0.8,0.5,1.3c0,0.5-0.1,1-0.4,1.7s-0.4,1.1-0.5,1.3l1.7-2.2l0.9-1.1c0.6-0.6,1-1,1.5-1.2s0.8-0.3,1-0.3s0.5,0,0.8,0.1
		c0.3,0.1,0.5,0.2,0.7,0.4c0.4,0.4,0.6,0.9,0.6,1.5c0,0.6-0.1,1.2-0.4,1.8s-0.5,1.1-0.7,1.5c-0.2,0.4-0.4,0.8-0.6,1.2
		c-0.6,1.2-0.8,2.1-0.8,2.7c0,0.4,0.2,0.6,0.5,0.6c0.3,0,0.6-0.1,0.9-0.2c0.3-0.1,0.4-0.2,0.5-0.2c0.2,0,0.2,0.1,0.2,0.2
		c0,0.7-0.3,1.2-1,1.7c-0.5,0.3-0.9,0.5-1.3,0.5s-0.7,0-0.9-0.1c-0.2-0.1-0.4-0.2-0.6-0.4c-0.4-0.4-0.6-1-0.6-1.6s0.1-1.3,0.2-1.8
		c0.2-0.6,0.4-1.1,0.6-1.6s0.5-1,0.7-1.4c0.2-0.4,0.4-0.8,0.5-1c0.2-0.5,0.4-0.9,0.4-1.2c0-0.3-0.2-0.4-0.5-0.4
		c-0.4,0-1.1,0.7-2.2,2c-0.8,1-1.4,1.8-1.7,2.3l-0.8,1.1c-0.4,0.8-0.8,1.5-1,2.1l-0.6,1.3c-0.1,0.3-0.3,0.6-0.4,0.7
		s-0.3,0.2-0.4,0.2s-0.4,0-0.5-0.1c-0.2-0.1-0.3-0.1-0.5-0.2c-0.3-0.2-0.4-0.5-0.4-0.7c0-0.2,0.1-0.6,0.2-1c0.2-0.4,0.4-0.9,0.6-1.4
		l1.6-3.4c0.6-1.2,0.8-2,0.8-2.4S90.1,140.7,89.8,140.7z M90.9,143.9C90.9,143.9,91,143.9,90.9,143.9L90.9,143.9
		C90.9,143.9,90.9,143.9,90.9,143.9z"/>
	<path fill="#FCC515" d="M100.3,146.3c0-0.7,0.1-1.3,0.3-1.9s0.4-1.2,0.8-1.7c0.3-0.6,0.7-1.1,1.1-1.6c0.4-0.5,0.9-0.9,1.4-1.3
		c1.1-0.8,2.2-1.2,3.3-1.2c1.3,0,2.2,0.5,2.6,1.6c0.2,0.4,0.2,0.8,0.2,1.3c0,0.5-0.1,1-0.3,1.4c-0.2,0.4-0.4,0.8-0.8,1.1
		c-0.3,0.3-0.7,0.7-1.1,0.9s-0.9,0.5-1.4,0.7c-1.1,0.4-2.2,0.6-3.4,0.6c0,0.1,0,0.3-0.1,0.5c0,0.2,0,0.4,0.1,0.7
		c0.1,0.3,0.1,0.5,0.3,0.7c0.3,0.5,0.7,0.7,1.2,0.7c0.9,0,1.7-0.3,2.6-0.8c0.3-0.2,0.5-0.4,0.7-0.5c0.2-0.2,0.3-0.3,0.5-0.3
		c0.1,0,0.3,0.1,0.4,0.2c0.1,0.2,0.2,0.3,0.2,0.5c0,0.4-0.1,0.7-0.3,1c-1,1-2.4,1.4-4.2,1.4c-1.1,0-2-0.3-2.7-1
		C100.6,148.7,100.3,147.6,100.3,146.3z M106.9,140.1c-0.8,0-1.6,0.5-2.3,1.6c-0.6,0.9-1.1,2-1.5,3.3c1.3-0.1,2.4-0.6,3.3-1.5
		c0.9-0.8,1.3-1.6,1.3-2.3C107.7,140.5,107.4,140.1,106.9,140.1z"/>
	<path fill="#FCC515" d="M119.3,140.7c-0.2,0-0.6,0.2-1,0.7c-0.4,0.4-0.8,0.9-1.1,1.2l-1,1.2l-1.9,2.4c-0.4,0.8-0.8,1.5-1,2.1
		l-0.6,1.3c-0.2,0.3-0.3,0.6-0.4,0.7c-0.1,0.1-0.3,0.2-0.5,0.2s-0.4,0-0.6-0.1s-0.3-0.2-0.5-0.3c-0.3-0.2-0.4-0.5-0.4-0.8
		c0-0.1,0.1-0.3,0.2-0.7l0.4-0.9c0.1-0.3,0.3-0.6,0.5-1l0.6-1.6c0.9-2.2,1.3-3.7,1.3-4.3c0-0.3-0.1-0.6-0.3-0.8l-0.2-0.2
		c-0.1-0.1-0.1-0.1-0.1-0.3c0-0.1,0.1-0.3,0.2-0.4c0.1-0.1,0.2-0.2,0.4-0.3c0.3-0.2,0.7-0.3,1-0.3c0.3,0,0.6,0,0.8,0.1
		c0.2,0.1,0.3,0.2,0.5,0.3c0.3,0.3,0.4,0.5,0.4,0.8s0,0.6-0.1,0.9c-0.1,0.3-0.2,0.6-0.3,0.9c-0.1,0.3-0.2,0.6-0.3,0.9
		c-0.1,0.3-0.2,0.5-0.3,0.7l-0.2,0.5c-0.1,0.1-0.1,0.2,0,0.1c0.8-1.2,1.4-1.9,1.7-2.2l0.8-1c0.6-0.7,1-1.1,1.4-1.3
		c0.7-0.5,1.2-0.7,1.6-0.7c0.4,0,0.7,0,1,0.1c0.3,0.1,0.5,0.2,0.7,0.4c0.4,0.4,0.6,0.9,0.6,1.5s-0.1,1.2-0.4,1.9s-0.5,1.2-0.7,1.6
		c-0.2,0.4-0.4,0.8-0.6,1.2c-0.6,1.3-0.8,2.2-0.8,2.8c0,0.3,0.2,0.4,0.6,0.4c0.3,0,0.6-0.1,0.9-0.2c0.3-0.1,0.4-0.2,0.5-0.2
		c0.2,0,0.2,0.1,0.2,0.2c0,0.7-0.3,1.2-1,1.7c-0.5,0.3-0.9,0.5-1.3,0.5s-0.7,0-1-0.1c-0.3-0.1-0.5-0.2-0.7-0.4
		c-0.4-0.4-0.7-1-0.7-1.7c0-0.9,0.3-2,0.8-3.3c0.4-0.9,0.7-1.5,0.8-1.8l0.4-0.8c0.2-0.5,0.4-0.9,0.4-1.1S119.7,140.7,119.3,140.7z"
		/>
	<path fill="#FCC515" d="M130.7,147.3c0.2,0,0.3,0.1,0.3,0.4c0,0.3-0.1,0.5-0.2,0.7c-0.2,0.4-0.6,0.9-1.2,1.2
		c-0.7,0.4-1.4,0.7-2.1,0.7c-1.2,0-2-0.5-2.3-1.6c-0.4-1.3,0.2-4,1.7-8.2c-0.9-0.1-1.3-0.2-1.4-0.5c0-0.1,0-0.1,0-0.2
		c0-0.1,0-0.2,0.1-0.3c0.1-0.1,0.2-0.2,0.3-0.3c0.3-0.2,0.5-0.3,0.8-0.3h0.9c0.8-1.9,1.4-3,1.7-3.3c0.2-0.1,0.4-0.2,0.6-0.2
		s0.4,0,0.5,0.1c0.1,0.1,0.3,0.1,0.4,0.2c0.2,0.2,0.4,0.5,0.4,0.8c0,0.2,0,0.3-0.1,0.5l-0.8,1.8h0.3c0.5,0,0.8,0,1.1,0l0.6,0
		c0.1,0,0.3,0,0.5,0c0.2,0,0.3,0.1,0.3,0.2c0,1-1.2,1.5-3.5,1.5h-0.1l-0.8,2c-0.9,2.4-1.3,4-1.3,5c0,0.3,0.1,0.5,0.2,0.6
		c0.1,0.1,0.3,0.2,0.7,0.2c0.3,0,0.6-0.1,0.9-0.2c0.3-0.1,0.5-0.2,0.7-0.4c0.2-0.1,0.4-0.3,0.5-0.4S130.6,147.3,130.7,147.3z"/>
</g>
<g>
	<path fill="#F96816" d="M139.7,260.9c0-1,0.3-2.6,0.9-4.7c-1.8,0-3.2,0.1-4.2,0.2c-0.3,0.5-0.6,1-0.8,1.5l-0.7,1.4
		c-0.9,1.8-1.8,3-2.5,3.6c-0.6,0.5-1.2,0.7-1.8,0.7c-0.5,0-0.8-0.2-1.1-0.5c-0.1-0.1-0.1-0.3-0.2-0.4c0-0.1,0-0.2,0.1-0.2
		c0.9-0.3,1.6-0.8,2.1-1.5c0.5-0.6,1-1.3,1.4-2.2l1.3-2.3l-0.7,0.1c-0.5,0.1-0.7,0-0.7-0.2s0.1-0.4,0.4-0.6c0.5-0.4,0.9-0.6,1.4-0.7
		l0.5-0.1c1.2-2,2.2-3.5,2.8-4.3c0.7-0.8,1.3-1.5,1.8-2c0.5-0.5,1.1-1,1.7-1.4c1.3-0.9,2.6-1.3,3.9-1.3c0.4,0,0.6,0.1,0.8,0.2
		c0.2,0.2,0.3,0.5,0.2,0.8s-0.2,0.7-0.4,1.2c-1.2,3.3-1.9,5.3-2.2,6.1c0.1,0,0.2,0,0.3,0h0.2c0.8,0,1.3,0.1,1.4,0.2
		c0,0.1,0,0.1,0,0.3s0,0.3-0.1,0.5s-0.2,0.3-0.4,0.5c-0.4,0.3-1.1,0.4-2,0.5c-0.5,1.8-0.8,3-0.9,3.7c-0.1,0.7,0,1.1,0.1,1.4
		c0.1,0.2,0.3,0.4,0.5,0.4c0.2,0,0.4,0,0.5-0.1c0.1,0,0.3-0.1,0.4-0.1l0.3-0.1c0.1,0,0.2-0.1,0.2-0.1s0.1,0.1,0.2,0.2
		c0.1,0.1,0.1,0.2,0.1,0.4c0,0.2-0.1,0.4-0.2,0.6c-0.1,0.2-0.3,0.4-0.5,0.6c-0.5,0.4-1.1,0.6-1.8,0.6c-1,0-1.7-0.5-2-1.4
		c-0.1-0.3-0.2-0.6-0.2-0.8V260.9z M137.4,254.6c1.3-0.2,2.6-0.3,3.7-0.3c0.2-0.6,0.4-1.3,0.7-1.9l0.7-1.8c0.2-0.6,0.5-1.1,0.7-1.6
		l0.7-1.4c-1.6,0.4-3.1,1.8-4.7,4.1c-0.3,0.5-0.6,1-1,1.5L137.4,254.6z"/>
	<path fill="#F96816" d="M154.5,253.9c-0.2,0-0.6,0.2-1,0.7s-0.8,0.9-1.1,1.2l-1,1.2l-1.9,2.4c-0.4,0.8-0.8,1.5-1,2.1l-0.6,1.3
		c-0.2,0.3-0.3,0.6-0.4,0.7s-0.3,0.2-0.5,0.2c-0.2,0-0.4,0-0.6-0.1c-0.2-0.1-0.3-0.2-0.5-0.3c-0.3-0.2-0.4-0.5-0.4-0.8
		c0-0.1,0.1-0.3,0.2-0.7l0.4-0.9c0.1-0.3,0.3-0.6,0.5-1l0.6-1.6c0.9-2.2,1.3-3.7,1.3-4.3c0-0.3-0.1-0.6-0.3-0.8l-0.2-0.2
		c-0.1-0.1-0.1-0.1-0.1-0.3c0-0.1,0.1-0.3,0.2-0.4c0.1-0.1,0.2-0.2,0.4-0.3c0.3-0.2,0.7-0.3,1-0.3s0.6,0,0.8,0.1
		c0.2,0.1,0.3,0.2,0.5,0.3c0.3,0.3,0.4,0.5,0.4,0.8s0,0.6-0.1,0.9c-0.1,0.3-0.2,0.6-0.3,0.9c-0.1,0.3-0.2,0.6-0.3,0.9
		c-0.1,0.3-0.2,0.5-0.3,0.7l-0.2,0.5c-0.1,0.1-0.1,0.2,0,0.1c0.8-1.2,1.4-1.9,1.7-2.2l0.8-1c0.6-0.7,1-1.1,1.4-1.3
		c0.7-0.5,1.2-0.7,1.6-0.7c0.4,0,0.7,0,1,0.1c0.3,0.1,0.5,0.2,0.7,0.4c0.4,0.4,0.6,0.9,0.6,1.5s-0.1,1.2-0.4,1.9s-0.5,1.2-0.7,1.6
		c-0.2,0.4-0.4,0.8-0.6,1.2c-0.6,1.3-0.8,2.2-0.8,2.8c0,0.3,0.2,0.4,0.6,0.4c0.3,0,0.6-0.1,0.9-0.2c0.3-0.1,0.4-0.2,0.5-0.2
		c0.2,0,0.2,0.1,0.2,0.2c0,0.7-0.3,1.2-1,1.7c-0.5,0.3-0.9,0.5-1.3,0.5s-0.7,0-1-0.1s-0.5-0.2-0.7-0.4c-0.4-0.4-0.7-1-0.7-1.7
		c0-0.9,0.3-2,0.8-3.3c0.4-0.9,0.7-1.5,0.8-1.8l0.4-0.8c0.2-0.5,0.4-0.9,0.4-1.1S154.9,253.9,154.5,253.9z"/>
	<path fill="#F96816" d="M159.3,259.5c0-0.7,0.1-1.3,0.3-2s0.4-1.3,0.8-1.9c0.3-0.6,0.7-1.1,1.1-1.6c0.4-0.5,0.9-0.9,1.4-1.3
		c1.1-0.7,2.2-1.1,3.4-1.1c1.2,0,2.1,0.5,2.5,1.5c0.2,0.4,0.2,0.8,0.2,1.2c0,0.4-0.1,0.9-0.2,1.2c-0.1,0.4-0.3,0.7-0.5,1
		c-0.5,0.7-0.9,1-1.4,1c-0.5,0-0.9-0.1-1.2-0.4c-0.2-0.2-0.3-0.5-0.2-0.9c0-0.1,0.1-0.2,0.2-0.3c0.1-0.1,0.3-0.2,0.4-0.4
		c0.5-0.5,0.7-1.1,0.8-1.8c0-0.5-0.3-0.7-0.9-0.7c-0.6,0-1.3,0.4-2,1.1c-1,1-1.7,2.4-2.1,4c-0.4,1.4-0.3,2.4,0.2,3.1
		c0.3,0.4,0.7,0.6,1.2,0.6c0.9,0,1.7-0.3,2.5-0.9c0.2-0.2,0.4-0.4,0.6-0.6c0.2-0.2,0.3-0.3,0.4-0.3c0.1,0,0.2,0.1,0.3,0.2
		c0.1,0.1,0.1,0.3,0.1,0.5c0,0.4-0.2,0.9-0.6,1.3c-1,1-2.3,1.5-3.7,1.5c-1.2,0-2.2-0.4-2.9-1.1C159.6,261.8,159.3,260.8,159.3,259.5
		z"/>
	<path fill="#F96816" d="M178.3,253.9c-0.4,0-1.2,0.6-2.2,1.9l-0.9,1.2l-1.8,2.4c-0.4,0.8-0.8,1.5-1,2.1l-0.6,1.3
		c-0.2,0.3-0.3,0.6-0.4,0.7s-0.3,0.2-0.5,0.2s-0.4,0-0.6-0.1c-0.2-0.1-0.3-0.2-0.5-0.3c-0.3-0.2-0.4-0.5-0.4-0.8
		c0-0.1,0.1-0.3,0.2-0.7l0.5-0.9c1.4-2.9,2.7-6.6,3.8-11.1c0.4-1.6,0.7-3.1,0.9-4.4c0.1-0.6,0.4-1,0.9-1c0.3,0,0.6,0.1,0.9,0.3
		c0.4,0.3,0.6,0.7,0.6,1c0,0.4-0.1,0.8-0.2,1.2s-0.2,1-0.4,1.5c-0.1,0.5-0.3,1.1-0.5,1.7c-0.5,1.5-0.9,2.6-1.1,3.3
		c-0.7,2-1.2,3.2-1.4,3.6c0.1-0.1,0.3-0.3,0.4-0.6c1.4-1.8,2.2-2.9,2.5-3.2c0.3-0.4,0.6-0.6,0.8-0.8c0.5-0.4,1.1-0.6,1.8-0.6
		c0.6,0,1.1,0.2,1.4,0.6c0.3,0.4,0.5,0.8,0.5,1.3s-0.1,0.9-0.2,1.2c-0.1,0.4-0.2,0.7-0.4,1.1c-0.2,0.4-0.3,0.8-0.5,1.2l-0.6,1.2
		c-0.5,1.2-0.8,2.1-0.8,2.7c0,0.4,0.2,0.6,0.5,0.6c0.3,0,0.6-0.1,0.9-0.2c0.3-0.1,0.4-0.2,0.5-0.2c0.2,0,0.2,0.1,0.2,0.2
		c0,0.7-0.3,1.2-1,1.7c-0.5,0.3-0.9,0.5-1.3,0.5c-0.4,0-0.7,0-1-0.1c-0.3-0.1-0.5-0.2-0.7-0.4c-0.4-0.4-0.7-1-0.7-1.8
		c0-0.9,0.3-1.9,0.8-3.2l1.2-2.6c0.2-0.5,0.4-0.9,0.4-1.1S178.6,253.9,178.3,253.9z"/>
	<path fill="#F96816" d="M184.1,262.7c-0.3-0.3-0.6-0.7-0.7-1.1c-0.2-0.5-0.3-1-0.3-1.6c0-0.6,0.1-1.3,0.2-1.9s0.4-1.3,0.7-1.9
		c0.3-0.6,0.7-1.2,1.1-1.7c0.4-0.5,0.9-1,1.4-1.4c1.1-0.8,2.2-1.3,3.4-1.3c1.6,0,2.6,0.7,3.2,2.1c0.4,1,0.4,2.2,0.1,3.6
		c-0.3,1.3-0.9,2.5-1.7,3.6c-0.8,1.1-1.8,1.8-3,2.3c-0.6,0.2-1.1,0.3-1.7,0.3c-0.6,0-1-0.1-1.5-0.2S184.4,263,184.1,262.7z
		 M186.2,257.2c-0.2,0.6-0.4,1.1-0.5,1.7c-0.1,0.6-0.2,1.1-0.2,1.7c0,0.5,0.1,0.9,0.2,1.2c0.2,0.3,0.4,0.4,0.8,0.4s0.7-0.1,1-0.4
		c0.3-0.2,0.7-0.6,1-0.9c0.3-0.4,0.6-0.8,0.9-1.4s0.5-1,0.7-1.6c0.5-1.2,0.7-2.3,0.7-3.2c0-0.8-0.2-1.4-0.5-1.6
		c-0.1-0.1-0.3-0.1-0.6-0.1c-0.2,0-0.5,0.1-0.8,0.3s-0.6,0.5-1,0.9c-0.3,0.4-0.6,0.8-0.9,1.3S186.5,256.6,186.2,257.2z"/>
	<path fill="#F96816" d="M195,263.2c-0.2-0.1-0.3-0.2-0.4-0.4c-0.1-0.1-0.1-0.3-0.1-0.4c0-0.1,0-0.2,0.1-0.4c0-0.1,0.1-0.3,0.2-0.5
		c1.5-3.8,2.3-6.3,2.3-7.6c0-0.4-0.1-0.6-0.4-0.8l-0.2-0.2c-0.1-0.1-0.1-0.1-0.1-0.3c0-0.1,0-0.3,0.1-0.4c0.1-0.1,0.2-0.2,0.4-0.3
		c0.3-0.2,0.7-0.3,1-0.3s0.6,0,0.8,0.1c0.2,0.1,0.4,0.2,0.5,0.3c0.3,0.3,0.4,0.6,0.4,0.9s0,0.6-0.1,0.9c-0.1,0.3-0.2,0.6-0.3,0.9
		c-0.1,0.3-0.2,0.6-0.3,0.8c-0.1,0.3-0.2,0.5-0.2,0.6c-0.1,0.3-0.1,0.4-0.1,0.5c0.2-0.2,0.3-0.3,0.3-0.5l0.4-0.8
		c1-1.8,1.9-2.9,2.9-3.5c0.3-0.2,0.6-0.2,1-0.2c0.4,0,0.7,0.1,0.9,0.4c0.2,0.3,0.4,0.6,0.4,0.9c0,0.3,0,0.6-0.1,0.8
		c-0.1,0.2-0.1,0.4-0.3,0.6c-0.2,0.4-0.6,0.6-0.9,0.6c-0.1,0-0.2,0-0.3-0.1l-0.2-0.2c-0.2-0.2-0.5-0.3-0.7-0.3s-0.5,0.2-0.8,0.5
		c-0.3,0.3-0.7,0.7-1,1.2c-1.2,1.6-2.2,3.3-2.9,5.3l-0.5,1.3c-0.1,0.3-0.2,0.6-0.3,0.7c-0.1,0.1-0.2,0.2-0.4,0.2s-0.4,0-0.6-0.1
		C195.3,263.4,195.2,263.3,195,263.2z"/>
</g>
<g>
	<path fill="#19A8F7" d="M338.2,100c-0.6,0.8-1.1,1.5-1.7,2.1s-1.1,0.8-1.6,0.8c-0.3,0-0.4-0.1-0.6-0.2c-0.2-0.2-0.3-0.4-0.3-0.6
		c0-0.2,0.1-0.3,0.2-0.4c1.1-0.8,2.4-3.2,3.8-7.3l0.7-1.9c0.8-2.2,1.4-3.5,2-4c0.2-0.1,0.4-0.2,0.6-0.2c0.2,0,0.4,0,0.5,0.1
		c0.2,0.1,0.3,0.1,0.4,0.2c0.3,0.2,0.4,0.5,0.4,0.8c0,0.1-0.1,0.3-0.2,0.5c-0.1,0.2-0.2,0.5-0.4,0.8l-1.4,4c1.8-0.3,3.3-1.1,4.5-2.3
		c1.1-1.1,1.7-2.3,1.7-3.4c0-1.1-0.5-1.8-1.5-2.2c-0.3-0.1-0.7-0.2-1.2-0.2s-0.9,0.1-1.4,0.2c-0.5,0.1-0.9,0.3-1.4,0.4
		c-0.9,0.4-1.7,0.8-2.2,1.3c-0.2,0.1-0.3,0.2-0.5,0.2c-0.2,0-0.4,0-0.5-0.1c-0.2-0.1-0.3-0.2-0.4-0.3c-0.3-0.3-0.4-0.5-0.4-0.8
		c0-0.3,0.1-0.5,0.3-0.7c0.2-0.2,0.5-0.4,0.8-0.6c0.3-0.2,0.7-0.3,1.1-0.5c0.4-0.1,0.9-0.3,1.3-0.4c0.9-0.2,1.8-0.3,2.7-0.3
		s1.7,0.1,2.5,0.3s1.4,0.5,1.8,0.9c1,0.8,1.5,1.7,1.5,2.9v0.2c-0.1,1.4-0.6,2.7-1.6,3.8c-0.9,0.9-2,1.7-3.4,2.2
		c-1.3,0.5-2.5,0.7-3.6,0.7h-0.3c-0.1,0-0.2,0-0.3,0C339.4,97.9,338.8,99.2,338.2,100z"/>
	<path fill="#19A8F7" d="M349.6,102c-0.3-0.3-0.6-0.7-0.7-1.1c-0.2-0.5-0.3-1-0.3-1.6c0-0.6,0.1-1.3,0.2-1.9s0.4-1.3,0.7-1.9
		c0.3-0.6,0.7-1.2,1.1-1.7c0.4-0.5,0.9-1,1.4-1.4c1.1-0.8,2.2-1.3,3.4-1.3c1.6,0,2.6,0.7,3.2,2.1c0.4,1,0.4,2.2,0.1,3.6
		c-0.3,1.3-0.9,2.5-1.7,3.6c-0.8,1.1-1.8,1.8-3,2.3c-0.6,0.2-1.1,0.3-1.7,0.3c-0.6,0-1-0.1-1.5-0.2C350.3,102.5,350,102.3,349.6,102
		z M351.8,96.5c-0.2,0.6-0.4,1.1-0.5,1.7c-0.1,0.6-0.2,1.1-0.2,1.7s0.1,0.9,0.2,1.2c0.2,0.3,0.4,0.4,0.8,0.4s0.7-0.1,1-0.4
		s0.7-0.6,1-0.9c0.3-0.4,0.6-0.8,0.9-1.4s0.5-1,0.7-1.6c0.5-1.2,0.7-2.3,0.7-3.2c0-0.8-0.2-1.4-0.5-1.6c-0.1-0.1-0.3-0.1-0.6-0.1
		c-0.2,0-0.5,0.1-0.8,0.3s-0.6,0.5-1,0.9c-0.3,0.4-0.6,0.8-0.9,1.3S352,96,351.8,96.5z"/>
	<path fill="#19A8F7" d="M360,100.8c0-0.2,0.1-0.5,0.2-0.7s0.2-0.4,0.4-0.5c0.3-0.3,0.6-0.4,1-0.4c0.3,0,0.5,0.2,0.5,0.5
		c0,0.8,0.3,1.3,0.8,1.6c0.2,0.1,0.4,0.2,0.6,0.2s0.4,0,0.5-0.1c0.1,0,0.3-0.1,0.4-0.2c0.3-0.2,0.4-0.5,0.4-0.8s-0.1-0.6-0.2-0.8
		c-0.1-0.3-0.3-0.5-0.5-0.8l-0.6-0.9c-0.9-1.2-1.4-2.3-1.4-3.3c0-0.8,0.4-1.6,1.1-2.3c0.8-0.8,1.9-1.2,3.1-1.2c1.1,0,2,0.3,2.6,0.8
		c0.5,0.4,0.8,1,0.8,1.5c0,0.6-0.2,1.1-0.7,1.4c-0.4,0.3-0.8,0.4-1.2,0.4c-0.2,0-0.3-0.1-0.4-0.3c-0.1-0.1-0.1-0.3-0.1-0.5
		s0.1-0.4,0.1-0.6c0-0.2,0-0.4-0.1-0.6c-0.1-0.2-0.2-0.3-0.3-0.4c-0.3-0.2-0.5-0.4-0.8-0.4s-0.5,0-0.7,0.1c-0.2,0.1-0.4,0.2-0.5,0.3
		c-0.3,0.3-0.4,0.6-0.4,1s0.1,0.7,0.2,1s0.3,0.6,0.5,0.9s0.4,0.6,0.7,0.9c0.2,0.3,0.4,0.6,0.6,0.9c0.5,0.8,0.7,1.4,0.7,2
		c0,0.6-0.1,1.1-0.4,1.4c-0.2,0.4-0.6,0.7-0.9,1c-0.8,0.6-1.7,0.9-2.8,0.9c-1,0-1.7-0.2-2.3-0.7C360.2,101.8,360,101.3,360,100.8z"
		/>
	<path fill="#19A8F7" d="M374.1,100.7c0.2,0,0.3,0.1,0.3,0.4c0,0.3-0.2,0.7-0.5,1.1c-0.5,0.5-1.1,0.8-1.8,0.8
		c-0.9,0-1.5-0.4-1.8-1.1c-0.1-0.2-0.2-0.6-0.2-0.9s0.1-0.7,0.2-1.2c0.1-0.4,0.3-0.9,0.5-1.4c0.2-0.5,0.4-1,0.6-1.5l0.6-1.4
		c0.4-1.1,0.7-1.8,0.7-2.1s0-0.6-0.1-0.7c-0.1-0.1-0.1-0.2-0.2-0.3l-0.2-0.2c-0.1-0.1-0.1-0.1-0.1-0.3c0-0.1,0.1-0.3,0.2-0.4
		c0.1-0.1,0.2-0.2,0.4-0.3c0.3-0.2,0.7-0.3,1.2-0.3c1.1,0,1.7,0.3,1.7,0.9c0,0.7-0.2,1.5-0.5,2.3c-0.4,0.9-0.7,1.6-0.9,2.1l-0.7,1.6
		c-0.5,1.1-0.7,2-0.7,2.5c0,0.3,0.2,0.5,0.5,0.5c0.3,0,0.6,0,0.7-0.1S374.1,100.7,374.1,100.7z M376.5,88.4
		c-0.2,0.2-0.4,0.3-0.6,0.4c-0.2,0.1-0.4,0.2-0.7,0.2c-0.2,0-0.5,0-0.7-0.1s-0.4-0.2-0.5-0.4c-0.3-0.4-0.5-0.8-0.5-1.1
		s0.1-0.7,0.2-0.9c0.1-0.2,0.3-0.3,0.5-0.5c0.4-0.2,0.7-0.4,1-0.4s0.6,0,0.7,0.1c0.2,0,0.3,0.1,0.5,0.2c0.4,0.2,0.6,0.6,0.6,0.9
		c0,0.4-0.1,0.7-0.2,0.9C376.8,88,376.6,88.2,376.5,88.4z"/>
	<path fill="#19A8F7" d="M383.6,99.8c0.2,0,0.3,0.1,0.3,0.4c0,0.2-0.1,0.5-0.2,0.7c-0.2,0.4-0.6,0.9-1.2,1.2
		c-0.7,0.4-1.4,0.7-2.1,0.7c-1.2,0-2-0.5-2.3-1.6c-0.4-1.3,0.2-4,1.7-8.2c-0.9-0.1-1.3-0.2-1.4-0.5c0-0.1,0-0.1,0-0.2
		c0-0.1,0-0.2,0.1-0.3c0.1-0.1,0.2-0.2,0.3-0.3c0.3-0.2,0.5-0.3,0.8-0.3h0.9c0.8-1.9,1.4-3,1.7-3.3c0.2-0.1,0.4-0.2,0.6-0.2
		s0.4,0,0.5,0.1c0.1,0.1,0.3,0.1,0.4,0.2c0.2,0.2,0.4,0.5,0.4,0.8c0,0.2,0,0.3-0.1,0.5l-0.8,1.8h0.3c0.5,0,0.8,0,1.1,0l0.6,0
		c0.1,0,0.3,0,0.5,0c0.2,0,0.3,0.1,0.3,0.2c0,1-1.2,1.5-3.5,1.5h-0.1l-0.8,2c-0.9,2.4-1.3,4-1.3,5c0,0.3,0.1,0.5,0.2,0.6
		c0.1,0.1,0.3,0.2,0.7,0.2c0.3,0,0.6-0.1,0.9-0.2c0.3-0.1,0.5-0.2,0.7-0.4c0.2-0.1,0.4-0.3,0.5-0.4
		C383.3,99.9,383.5,99.8,383.6,99.8z"/>
	<path fill="#19A8F7" d="M389.1,100.7c0.2,0,0.3,0.1,0.3,0.4c0,0.3-0.2,0.7-0.5,1.1c-0.5,0.5-1.1,0.8-1.8,0.8
		c-0.9,0-1.5-0.4-1.8-1.1c-0.1-0.2-0.2-0.6-0.2-0.9s0.1-0.7,0.2-1.2c0.1-0.4,0.3-0.9,0.5-1.4c0.2-0.5,0.4-1,0.6-1.5l0.6-1.4
		c0.4-1.1,0.7-1.8,0.7-2.1s0-0.6-0.1-0.7c-0.1-0.1-0.1-0.2-0.2-0.3l-0.2-0.2c-0.1-0.1-0.1-0.1-0.1-0.3c0-0.1,0.1-0.3,0.2-0.4
		c0.1-0.1,0.2-0.2,0.4-0.3c0.3-0.2,0.7-0.3,1.2-0.3c1.1,0,1.7,0.3,1.7,0.9c0,0.7-0.2,1.5-0.5,2.3c-0.4,0.9-0.7,1.6-0.9,2.1l-0.7,1.6
		c-0.5,1.1-0.7,2-0.7,2.5c0,0.3,0.2,0.5,0.5,0.5c0.3,0,0.6,0,0.7-0.1S389,100.7,389.1,100.7z M391.4,88.4c-0.2,0.2-0.4,0.3-0.6,0.4
		c-0.2,0.1-0.4,0.2-0.7,0.2c-0.2,0-0.5,0-0.7-0.1s-0.4-0.2-0.5-0.4c-0.3-0.4-0.5-0.8-0.5-1.1s0.1-0.7,0.2-0.9
		c0.1-0.2,0.3-0.3,0.5-0.5c0.4-0.2,0.7-0.4,1-0.4s0.6,0,0.7,0.1c0.2,0,0.3,0.1,0.5,0.2c0.4,0.2,0.6,0.6,0.6,0.9
		c0,0.4-0.1,0.7-0.2,0.9C391.7,88,391.6,88.2,391.4,88.4z"/>
	<path fill="#19A8F7" d="M393,102c-0.3-0.3-0.6-0.7-0.7-1.1c-0.2-0.5-0.3-1-0.3-1.6c0-0.6,0.1-1.3,0.2-1.9s0.4-1.3,0.7-1.9
		c0.3-0.6,0.7-1.2,1.1-1.7c0.4-0.5,0.9-1,1.4-1.4c1.1-0.8,2.2-1.3,3.4-1.3c1.6,0,2.6,0.7,3.2,2.1c0.4,1,0.4,2.2,0.1,3.6
		c-0.3,1.3-0.9,2.5-1.7,3.6c-0.8,1.1-1.8,1.8-3,2.3c-0.6,0.2-1.1,0.3-1.7,0.3c-0.6,0-1-0.1-1.5-0.2C393.7,102.5,393.3,102.3,393,102
		z M395.2,96.5c-0.2,0.6-0.4,1.1-0.5,1.7c-0.1,0.6-0.2,1.1-0.2,1.7s0.1,0.9,0.2,1.2c0.2,0.3,0.4,0.4,0.8,0.4s0.7-0.1,1-0.4
		s0.7-0.6,1-0.9c0.3-0.4,0.6-0.8,0.9-1.4s0.5-1,0.7-1.6c0.5-1.2,0.7-2.3,0.7-3.2c0-0.8-0.2-1.4-0.5-1.6c-0.1-0.1-0.3-0.1-0.6-0.1
		c-0.2,0-0.5,0.1-0.8,0.3s-0.6,0.5-1,0.9c-0.3,0.4-0.6,0.8-0.9,1.3S395.4,96,395.2,96.5z"/>
	<path fill="#19A8F7" d="M412,93.2c-0.2,0-0.6,0.2-1,0.7s-0.8,0.9-1.1,1.2l-1,1.2l-1.9,2.4c-0.4,0.8-0.8,1.5-1,2.1l-0.6,1.3
		c-0.2,0.3-0.3,0.6-0.4,0.7s-0.3,0.2-0.5,0.2c-0.2,0-0.4,0-0.6-0.1c-0.2-0.1-0.3-0.2-0.5-0.3c-0.3-0.2-0.4-0.5-0.4-0.8
		c0-0.1,0.1-0.3,0.2-0.7l0.4-0.9c0.1-0.3,0.3-0.6,0.5-1l0.6-1.6c0.9-2.2,1.3-3.7,1.3-4.3c0-0.3-0.1-0.6-0.3-0.8l-0.2-0.2
		c-0.1-0.1-0.1-0.1-0.1-0.3c0-0.1,0.1-0.3,0.2-0.4c0.1-0.1,0.2-0.2,0.4-0.3c0.3-0.2,0.7-0.3,1-0.3s0.6,0,0.8,0.1
		c0.2,0.1,0.3,0.2,0.5,0.3c0.3,0.3,0.4,0.5,0.4,0.8s0,0.6-0.1,0.9c-0.1,0.3-0.2,0.6-0.3,0.9c-0.1,0.3-0.2,0.6-0.3,0.9
		c-0.1,0.3-0.2,0.5-0.3,0.7l-0.2,0.5c-0.1,0.1-0.1,0.2,0,0.1c0.8-1.2,1.4-1.9,1.7-2.2l0.8-1c0.6-0.7,1-1.1,1.4-1.3
		c0.7-0.5,1.2-0.7,1.6-0.7c0.4,0,0.7,0,1,0.1s0.5,0.2,0.7,0.4c0.4,0.4,0.6,0.9,0.6,1.5s-0.1,1.2-0.4,1.9s-0.5,1.2-0.7,1.6
		c-0.2,0.4-0.4,0.8-0.6,1.2c-0.6,1.3-0.8,2.2-0.8,2.8c0,0.3,0.2,0.4,0.6,0.4c0.3,0,0.6-0.1,0.9-0.2c0.3-0.1,0.4-0.2,0.5-0.2
		c0.2,0,0.2,0.1,0.2,0.2c0,0.7-0.3,1.2-1,1.7c-0.5,0.3-0.9,0.5-1.3,0.5s-0.7,0-1-0.1s-0.5-0.2-0.7-0.4c-0.4-0.4-0.7-1-0.7-1.7
		c0-0.9,0.3-2,0.8-3.3c0.4-0.9,0.7-1.5,0.8-1.8l0.4-0.8c0.2-0.5,0.4-0.9,0.4-1.1S412.5,93.2,412,93.2z"/>
</g>
<g>
	<polygon fill="#FFFFFF" points="174.2,300.3 167.8,306.4 167.8,279.2 187.8,297.7 179,298.3 183.3,308.3 178.7,310.3 	"/>
	<path fill="#C6C6C6" d="M168.8,281.5l16.6,15.4l-7.9,0.5l4.5,10.4l-2.7,1.2l-4.7-10.4l-5.7,5.5V281.5 M166.8,276.9v4.6V304v4.7
		l3.4-3.2l3.7-3.5l3.5,7.8l0.8,1.8l1.8-0.8l2.7-1.2l1.8-0.8l-0.8-1.8l-3.3-7.8l5.1-0.3l4.7-0.3l-3.4-3.2L170.2,280L166.8,276.9
		L166.8,276.9z"/>
</g>
<g>
	<polygon fill="#FFFFFF" points="383,138.2 376.6,144.3 376.6,117.1 396.6,135.6 387.7,136.2 392,146.2 387.5,148.2 	"/>
	<g>
		<path fill="#212121" d="M377.6,119.4l16.6,15.4l-7.9,0.5l4.5,10.4l-2.7,1.2l-4.7-10.4l-5.7,5.5V119.4 M375.6,114.8v4.6v22.5v4.7
			l3.4-3.2l3.7-3.5l3.5,7.8l0.8,1.8l1.8-0.8l2.7-1.2l1.8-0.8l-0.8-1.8l-3.3-7.8l5.1-0.3l4.7-0.3l-3.4-3.2l-16.6-15.4L375.6,114.8
			L375.6,114.8z"/>
	</g>
</g>
</svg>
