<?xml version="1.0" encoding="utf-8"?>
<!-- Generator: Adobe Illustrator 18.0.0, SVG Export Plug-In . SVG Version: 6.00 Build 0)  -->
<!DOCTYPE svg PUBLIC "-//W3C//DTD SVG 1.1//EN" "http://www.w3.org/Graphics/SVG/1.1/DTD/svg11.dtd">
<svg version="1.1" id="Layer_1" xmlns="http://www.w3.org/2000/svg" xmlns:xlink="http://www.w3.org/1999/xlink" x="0px" y="0px"
	 width="650.3px" height="321.3px" viewBox="-370.2 0 650.3 321.3" enable-background="new -370.2 0 650.3 321.3"
	 xml:space="preserve">
<g>
	<g>
		<polyline fill="none" stroke="#F2F2F2" stroke-width="2" stroke-miterlimit="10" points="231.1,264.5 231.1,266 229.6,266 		"/>
		
			<line fill="none" stroke="#F2F2F2" stroke-width="2" stroke-miterlimit="10" stroke-dasharray="2.9545,2.9545" x1="226.6" y1="266" x2="68.6" y2="266"/>
		<polyline fill="none" stroke="#F2F2F2" stroke-width="2" stroke-miterlimit="10" points="67.1,266 65.6,266 65.6,264.5 		"/>
		
			<line fill="none" stroke="#F2F2F2" stroke-width="2" stroke-miterlimit="10" stroke-dasharray="2.9545,2.9545" x1="65.6" y1="261.6" x2="65.6" y2="103.5"/>
		<polyline fill="none" stroke="#F2F2F2" stroke-width="2" stroke-miterlimit="10" points="65.6,102 65.6,100.5 67.1,100.5 		"/>
		
			<line fill="none" stroke="#F2F2F2" stroke-width="2" stroke-miterlimit="10" stroke-dasharray="2.9545,2.9545" x1="70" y1="100.5" x2="228.1" y2="100.5"/>
		<polyline fill="none" stroke="#F2F2F2" stroke-width="2" stroke-miterlimit="10" points="229.6,100.5 231.1,100.5 231.1,102 		"/>
		
			<line fill="none" stroke="#F2F2F2" stroke-width="2" stroke-miterlimit="10" stroke-dasharray="2.9545,2.9545" x1="231.1" y1="105" x2="231.1" y2="263.1"/>
	</g>
</g>
<g>
	<g>
		<polyline fill="none" stroke="#F2F2F2" stroke-width="2" stroke-miterlimit="10" points="169.7,201.3 169.7,202.8 168.2,202.8 		
			"/>
		
			<line fill="none" stroke="#F2F2F2" stroke-width="2" stroke-miterlimit="10" stroke-dasharray="2.9545,2.9545" x1="165.3" y1="202.8" x2="7.2" y2="202.8"/>
		<polyline fill="none" stroke="#F2F2F2" stroke-width="2" stroke-miterlimit="10" points="5.7,202.8 4.2,202.8 4.2,201.3 		"/>
		
			<line fill="none" stroke="#F2F2F2" stroke-width="2" stroke-miterlimit="10" stroke-dasharray="2.9545,2.9545" x1="4.2" y1="198.3" x2="4.2" y2="40.3"/>
		<polyline fill="none" stroke="#F2F2F2" stroke-width="2" stroke-miterlimit="10" points="4.2,38.8 4.2,37.3 5.7,37.3 		"/>
		
			<line fill="none" stroke="#F2F2F2" stroke-width="2" stroke-miterlimit="10" stroke-dasharray="2.9545,2.9545" x1="8.7" y1="37.3" x2="166.8" y2="37.3"/>
		<polyline fill="none" stroke="#F2F2F2" stroke-width="2" stroke-miterlimit="10" points="168.2,37.3 169.7,37.3 169.7,38.8 		"/>
		
			<line fill="none" stroke="#F2F2F2" stroke-width="2" stroke-miterlimit="10" stroke-dasharray="2.9545,2.9545" x1="169.7" y1="41.8" x2="169.7" y2="199.8"/>
	</g>
</g>
<g>
	
		<circle fill="none" stroke="#36CC89" stroke-width="4" stroke-miterlimit="10" stroke-dasharray="15.7562,7.8781" cx="148.3" cy="183.3" r="82.8"/>
</g>
<g>
	<path fill="#B9B9B9" d="M198.3,89.3c0.2,0,0.2,0.1,0.2,0.3c0,0.2,0,0.4-0.1,0.5s-0.2,0.3-0.3,0.4s-0.2,0.2-0.4,0.3
		c-0.4,0.2-0.8,0.4-1.2,0.3s-0.7-0.1-1-0.2c-0.2-0.1-0.4-0.3-0.6-0.5c-0.4-0.4-0.5-1-0.5-1.7c0-0.8,0.2-1.7,0.5-2.9
		c0.3-1.1,0.6-2.1,0.9-2.9c0.3-0.8,0.6-1.6,0.9-2.3l0.8-2.1c-0.9,0.8-2.1,2.5-3.5,5l-2.2,4.1c-1.2,2.2-2,3.2-2.5,3.2s-0.8-0.2-1-0.6
		s-0.2-1.1-0.2-2.1s0.1-1.9,0.3-2.8s0.4-1.8,0.6-2.6c0.4-1.5,1-3,1.6-4.4c-0.6,0.3-1.4,1.1-2.1,2.4c-0.6,1-1,1.7-1.3,2.1l-2.4,4.3
		c-1,1.8-1.8,2.8-2.4,3.2c-0.4,0.3-0.9,0.4-1.4,0.4c-0.4,0-0.7-0.1-0.9-0.4c-0.1-0.1-0.1-0.2-0.1-0.3c0-0.1,0-0.1,0.1-0.2
		c0.4-0.1,0.6-0.2,0.8-0.3c0.2-0.1,0.3-0.2,0.5-0.3c0.2-0.1,0.4-0.4,0.7-0.7c0.3-0.4,0.6-0.8,1-1.4c0.3-0.5,0.7-1.1,1.1-1.8l1.2-2.1
		c1.1-2,2.2-3.7,3.4-4.9c0.4-0.4,0.8-0.8,1.2-1c0.4-0.3,0.9-0.5,1.4-0.6c0.1,0,0.3,0,0.4,0c0.1,0,0.3,0,0.4,0.1
		c0.2,0,0.3,0.1,0.4,0.2c0.3,0.2,0.3,0.4,0.2,0.7c-0.1,0.2-0.1,0.5-0.3,0.8L192,80c-1.2,3.1-1.8,6-2,8.6c0.3-0.5,0.7-1.1,1-1.8l1-2
		l1.1-2c1.7-3.1,3.3-4.8,4.7-5.2c0.3-0.1,0.5-0.1,0.7-0.1s0.4,0,0.5,0.1s0.2,0.1,0.3,0.2c0.2,0.2,0.3,0.4,0.2,0.6s-0.2,0.5-0.3,0.8
		l-1.4,3.8l-0.5,1.5c-0.5,1.7-0.9,3.1-1,4c0,0.4,0,0.7,0.1,0.9c0.1,0.2,0.3,0.3,0.5,0.3s0.4,0,0.5,0s0.2-0.1,0.3-0.1l0.2-0.1
		C198.2,89.3,198.3,89.3,198.3,89.3z"/>
	<path fill="#B9B9B9" d="M200.8,90.5c-0.3-0.2-0.4-0.6-0.6-0.9c-0.1-0.4-0.2-0.8-0.2-1.3s0.1-1,0.2-1.5c0.1-0.5,0.3-1,0.6-1.5
		c0.2-0.5,0.5-0.9,0.9-1.3c0.3-0.4,0.7-0.8,1.1-1.1c0.9-0.7,1.8-1,2.8-1c1.2,0,2.1,0.6,2.5,1.7c0.3,0.8,0.3,1.7,0,2.9
		c-0.3,1-0.7,2-1.4,2.8c-0.7,0.9-1.5,1.5-2.4,1.8c-0.5,0.2-0.9,0.3-1.4,0.3c-0.4,0-0.8-0.1-1.2-0.2C201.3,90.9,201,90.7,200.8,90.5z
		 M202.6,86.1c-0.2,0.4-0.3,0.9-0.4,1.4c-0.1,0.5-0.2,0.9-0.2,1.3s0.1,0.7,0.2,1c0.1,0.2,0.3,0.4,0.6,0.4s0.6-0.1,0.8-0.3
		c0.3-0.2,0.5-0.4,0.8-0.7c0.3-0.3,0.5-0.7,0.7-1.1s0.4-0.8,0.6-1.3c0.4-1,0.6-1.8,0.6-2.6c0-0.7-0.1-1.1-0.4-1.3
		c-0.1-0.1-0.3-0.1-0.5-0.1s-0.4,0.1-0.7,0.3c-0.3,0.2-0.5,0.4-0.8,0.7c-0.3,0.3-0.5,0.6-0.7,1C203,85.3,202.8,85.7,202.6,86.1z"/>
	<path fill="#B9B9B9" d="M209.5,90.3c-0.1-0.2-0.1-0.4-0.1-0.7c0-0.3,0-0.6,0.1-0.9s0.2-0.7,0.3-1s0.3-0.7,0.5-1l0.5-1
		c0.6-1.4,0.8-2.2,0.7-2.4c-0.1-0.1-0.2-0.2-0.4-0.3c-0.1,0-0.1-0.1-0.1-0.2s0-0.2,0.1-0.3c0.1-0.1,0.2-0.2,0.4-0.2
		c0.3-0.1,0.6-0.2,0.9-0.2c0.3,0,0.5,0,0.7,0.1s0.3,0.1,0.4,0.2c0.2,0.2,0.3,0.4,0.3,0.7c0,0.3-0.1,0.6-0.2,1
		c-0.1,0.4-0.3,0.7-0.4,1.1c-0.2,0.4-0.4,0.8-0.5,1.2l-0.5,1.2c-0.4,0.9-0.6,1.4-0.6,1.7c0,0.6,0.2,0.8,0.6,0.8c1,0,2-0.6,2.9-1.8
		c0.5-0.7,0.9-1.4,1.1-2.2c0.1-0.4,0.2-0.7,0.2-1.1c0-0.3,0-0.6,0-0.8c0-0.2-0.1-0.4-0.1-0.6c-0.1-0.3-0.2-0.5-0.4-0.8
		c-0.1-0.2-0.1-0.3,0.2-0.5s0.6-0.3,1.1-0.3c0.3,0,0.6,0.1,0.8,0.4c0.3,0.3,0.4,0.8,0.4,1.5c0,0.6-0.1,1.2-0.3,1.9
		c-0.2,0.6-0.5,1.2-0.8,1.7c-0.3,0.6-0.7,1.1-1.2,1.5c-0.4,0.5-0.9,0.9-1.4,1.2c-1.1,0.8-2.2,1.1-3.3,1.1
		C210.3,91.3,209.8,91,209.5,90.3z"/>
	<path fill="#B9B9B9" d="M219.1,88.2c0-0.5,0.1-1,0.3-1.5s0.4-0.9,0.6-1.4c0.3-0.4,0.6-0.9,0.9-1.3c0.3-0.4,0.7-0.7,1.1-1
		c0.9-0.6,1.7-0.9,2.6-0.9c1,0,1.7,0.4,2,1.3c0.1,0.3,0.2,0.6,0.2,1s-0.1,0.8-0.2,1.1c-0.1,0.3-0.4,0.6-0.6,0.9
		c-0.3,0.3-0.6,0.5-0.9,0.7c-0.4,0.2-0.7,0.4-1.2,0.5c-0.9,0.3-1.8,0.4-2.8,0.4c0,0.1,0,0.2,0,0.4c0,0.2,0,0.4,0,0.6
		s0.1,0.4,0.2,0.6c0.2,0.4,0.5,0.5,0.9,0.6c0.7,0,1.4-0.2,2.1-0.6c0.2-0.1,0.4-0.3,0.6-0.4c0.1-0.1,0.3-0.2,0.4-0.2
		c0.1,0,0.2,0.1,0.3,0.2s0.1,0.3,0.1,0.4c0,0.3-0.1,0.6-0.3,0.8c-0.8,0.7-1.9,1.1-3.4,1.1c-0.9,0-1.6-0.3-2.1-0.8
		C219.3,90,219,89.2,219.1,88.2z M224.4,83.3c-0.6,0-1.2,0.4-1.8,1.3c-0.5,0.7-0.9,1.6-1.2,2.6c1-0.1,1.9-0.5,2.6-1.2
		c0.7-0.6,1-1.3,1-1.9C225,83.6,224.8,83.3,224.4,83.3z"/>
	<path fill="#B9B9B9" d="M233.5,88.4c0-0.5,0.1-1,0.3-1.5s0.4-0.9,0.6-1.4c0.3-0.4,0.6-0.9,0.9-1.3c0.3-0.4,0.7-0.7,1.1-1
		c0.9-0.6,1.7-0.9,2.6-0.9c1,0,1.7,0.4,2,1.3c0.1,0.3,0.2,0.6,0.2,1s-0.1,0.8-0.2,1.1c-0.1,0.3-0.4,0.6-0.6,0.9
		c-0.3,0.3-0.6,0.5-0.9,0.7c-0.4,0.2-0.7,0.4-1.2,0.5c-0.9,0.3-1.8,0.4-2.8,0.4c0,0.1,0,0.2,0,0.4s0,0.4,0,0.6s0.1,0.4,0.2,0.6
		c0.2,0.4,0.5,0.5,0.9,0.6c0.7,0,1.4-0.2,2.1-0.6c0.2-0.1,0.4-0.3,0.6-0.4c0.1-0.1,0.3-0.2,0.4-0.2c0.1,0,0.2,0.1,0.3,0.2
		s0.1,0.3,0.1,0.4c0,0.3-0.1,0.6-0.3,0.8c-0.8,0.7-1.9,1.1-3.4,1.1c-0.9,0-1.6-0.3-2.1-0.8C233.7,90.2,233.4,89.4,233.5,88.4z
		 M238.8,83.4c-0.6,0-1.2,0.4-1.8,1.3c-0.5,0.7-0.9,1.6-1.2,2.6c1-0.1,1.9-0.5,2.6-1.2c0.7-0.6,1-1.3,1-1.9
		C239.4,83.7,239.2,83.4,238.8,83.4z"/>
	<path fill="#B9B9B9" d="M242.1,90.8c-0.1-0.2-0.1-0.4-0.1-0.7c0-0.3,0-0.6,0.1-0.9s0.2-0.7,0.3-1s0.3-0.7,0.5-1l0.5-1
		c0.6-1.4,0.8-2.2,0.7-2.4c-0.1-0.1-0.2-0.2-0.4-0.3c-0.1,0-0.1-0.1-0.1-0.2s0-0.2,0.1-0.3c0.1-0.1,0.2-0.2,0.4-0.2
		c0.3-0.1,0.6-0.2,0.9-0.2c0.3,0,0.5,0,0.7,0.1s0.3,0.1,0.4,0.2c0.2,0.2,0.3,0.4,0.3,0.7s-0.1,0.6-0.2,1c-0.1,0.4-0.3,0.7-0.4,1.1
		c-0.2,0.4-0.4,0.8-0.5,1.2l-0.5,1.2c-0.4,0.9-0.6,1.4-0.6,1.7c0,0.6,0.2,0.8,0.6,0.8c1,0,2-0.6,2.9-1.8c0.5-0.7,0.9-1.4,1.1-2.2
		c0.1-0.4,0.2-0.7,0.2-1.1c0-0.3,0-0.6,0-0.8c0-0.2-0.1-0.4-0.1-0.6c-0.1-0.3-0.2-0.5-0.4-0.8c-0.1-0.2-0.1-0.3,0.2-0.5
		s0.6-0.3,1.1-0.3c0.3,0,0.6,0.1,0.8,0.4c0.3,0.3,0.4,0.8,0.4,1.5c0,0.6-0.1,1.2-0.3,1.9c-0.2,0.6-0.5,1.2-0.8,1.7s-0.7,1.1-1.2,1.5
		c-0.4,0.5-0.9,0.9-1.4,1.2c-1.1,0.8-2.2,1.1-3.3,1.1C242.9,91.7,242.4,91.4,242.1,90.8z"/>
	<path fill="#B9B9B9" d="M251.7,88.6c0-0.5,0.1-1,0.3-1.5s0.4-0.9,0.6-1.4c0.3-0.4,0.6-0.9,0.9-1.3c0.3-0.4,0.7-0.7,1.1-1
		c0.9-0.6,1.7-0.9,2.6-0.9c1,0,1.7,0.4,2,1.3c0.1,0.3,0.2,0.6,0.2,1s-0.1,0.8-0.2,1.1c-0.1,0.3-0.4,0.6-0.6,0.9
		c-0.3,0.3-0.6,0.5-0.9,0.7c-0.4,0.2-0.7,0.4-1.2,0.5c-0.9,0.3-1.8,0.4-2.8,0.4c0,0.1,0,0.2,0,0.4c0,0.2,0,0.4,0,0.6
		s0.1,0.4,0.2,0.6c0.2,0.4,0.5,0.5,0.9,0.6c0.7,0,1.4-0.2,2.1-0.6c0.2-0.1,0.4-0.3,0.6-0.4c0.1-0.1,0.3-0.2,0.4-0.2s0.2,0.1,0.3,0.2
		c0.1,0.1,0.1,0.3,0.1,0.4c0,0.3-0.1,0.6-0.3,0.8c-0.8,0.8-1.9,1.1-3.4,1.1c-0.9,0-1.6-0.3-2.1-0.8
		C251.9,90.5,251.6,89.6,251.7,88.6z M257,83.7c-0.6,0-1.2,0.4-1.8,1.3c-0.5,0.7-0.9,1.6-1.2,2.6c1-0.1,1.9-0.5,2.6-1.2
		c0.7-0.6,1-1.3,1-1.9C257.6,84,257.4,83.7,257,83.7z"/>
	<path fill="#B9B9B9" d="M266.9,84.3c-0.2,0-0.5,0.2-0.8,0.5c-0.3,0.4-0.6,0.7-0.9,1l-0.8,0.9l-1.5,1.9c-0.4,0.7-0.6,1.2-0.8,1.6
		l-0.5,1c-0.1,0.3-0.2,0.4-0.3,0.5c-0.1,0.1-0.2,0.2-0.4,0.2s-0.3,0-0.5-0.1c-0.1-0.1-0.3-0.1-0.4-0.2c-0.2-0.2-0.3-0.4-0.3-0.6
		c0-0.1,0.1-0.3,0.2-0.5l0.4-0.7c0.1-0.2,0.2-0.5,0.4-0.8l0.5-1.2c0.7-1.8,1.1-2.9,1.1-3.4c0-0.3-0.1-0.5-0.3-0.6l-0.2-0.1
		c-0.1,0-0.1-0.1-0.1-0.2s0-0.2,0.1-0.3c0.1-0.1,0.2-0.2,0.3-0.2c0.3-0.1,0.5-0.2,0.8-0.2s0.5,0,0.6,0.1c0.2,0.1,0.3,0.1,0.4,0.2
		c0.2,0.2,0.3,0.4,0.3,0.7c0,0.2,0,0.5-0.1,0.7s-0.1,0.5-0.2,0.7s-0.2,0.5-0.3,0.7c-0.1,0.2-0.2,0.4-0.3,0.6l-0.2,0.4
		c0,0.1-0.1,0.1,0,0.1c0.7-0.9,1.1-1.5,1.3-1.8l0.6-0.8c0.5-0.5,0.8-0.9,1.1-1.1c0.5-0.4,1-0.5,1.3-0.5s0.6,0,0.8,0.1
		c0.2,0.1,0.4,0.2,0.5,0.3c0.3,0.3,0.5,0.7,0.5,1.2s-0.1,1-0.3,1.5s-0.4,0.9-0.6,1.3c-0.2,0.3-0.3,0.6-0.5,1c-0.5,1-0.7,1.7-0.7,2.2
		c0,0.2,0.2,0.3,0.5,0.3s0.5,0,0.7-0.2c0.2-0.1,0.3-0.2,0.4-0.2s0.2,0.1,0.2,0.2c0,0.5-0.3,1-0.8,1.3c-0.4,0.2-0.7,0.4-1,0.4
		s-0.6,0-0.8-0.1c-0.2-0.1-0.4-0.2-0.5-0.3c-0.4-0.3-0.5-0.8-0.5-1.3c0-0.7,0.2-1.6,0.7-2.6c0.3-0.7,0.6-1.2,0.7-1.5l0.3-0.6
		c0.2-0.4,0.3-0.7,0.3-0.9C267.4,84.4,267.2,84.3,266.9,84.3z"/>
	<path fill="#B9B9B9" d="M276,89.7c0.2,0,0.3,0.1,0.3,0.4c0,0.2-0.1,0.4-0.2,0.6c-0.2,0.3-0.5,0.7-1,1c-0.6,0.3-1.1,0.5-1.7,0.5
		c-1,0-1.6-0.5-1.8-1.3c-0.3-1,0.2-3.2,1.5-6.5c-0.7-0.1-1.1-0.2-1.1-0.4c0-0.1,0-0.1,0-0.2s0-0.1,0.1-0.2s0.1-0.2,0.2-0.2
		c0.2-0.2,0.4-0.3,0.6-0.3h0.7c0.7-1.5,1.1-2.4,1.4-2.6c0.1-0.1,0.3-0.1,0.4-0.1c0.2,0,0.3,0,0.4,0.1c0.1,0,0.2,0.1,0.3,0.2
		c0.2,0.2,0.3,0.4,0.3,0.6c0,0.1,0,0.3-0.1,0.4l-0.7,1.4h0.2c0.4,0,0.7,0,0.9,0h0.5c0.1,0,0.3,0,0.4,0s0.3,0.1,0.3,0.2
		c0,0.8-1,1.2-2.8,1.2H275l-0.6,1.6c-0.7,1.9-1.1,3.2-1.1,3.9c0,0.2,0,0.4,0.1,0.5s0.3,0.2,0.5,0.2c0.3,0,0.5,0,0.7-0.1
		s0.4-0.2,0.6-0.3c0.2-0.1,0.3-0.2,0.4-0.3C275.8,89.7,275.9,89.7,276,89.7z"/>
</g>
<g>
	<path fill="#8F8F8F" d="M58.1,68.7c0.2,0,0.4,0,0.6,0s0.4-0.1,0.5-0.1v0.9c-0.1,0.1-0.3,0.1-0.6,0.2c-0.3,0-0.5,0.1-0.7,0.1
		c-1.6,0-2.3-0.8-2.3-2.5v-4.8h-1.2v-0.6l1.2-0.5l0.5-1.7h0.7v1.9h2.3v0.9h-2.3v4.7c0,0.5,0.1,0.9,0.3,1.1S57.7,68.7,58.1,68.7z"/>
	<path fill="#8F8F8F" d="M67.8,65.6c0,1.3-0.3,2.3-1,3.1c-0.7,0.7-1.6,1.1-2.7,1.1c-0.7,0-1.4-0.2-1.9-0.5s-1-0.8-1.3-1.5
		s-0.5-1.4-0.5-2.2c0-1.3,0.3-2.3,1-3.1c0.7-0.7,1.6-1.1,2.7-1.1c1.1,0,2,0.4,2.7,1.1C67.4,63.3,67.8,64.3,67.8,65.6z M61.6,65.6
		c0,1,0.2,1.8,0.6,2.3s1,0.8,1.8,0.8c0.8,0,1.4-0.3,1.8-0.8s0.6-1.3,0.6-2.3s-0.2-1.8-0.6-2.3s-1-0.8-1.8-0.8
		c-0.8,0-1.4,0.3-1.8,0.8S61.6,64.5,61.6,65.6z"/>
	<path fill="#8F8F8F" d="M73.6,69.8c-0.5,0-1-0.1-1.4-0.3c-0.4-0.2-0.8-0.5-1.1-0.9H71c0.1,0.5,0.1,0.9,0.1,1.3v3.3h-1.2V61.6h1
		l0.2,1.1h0.1c0.3-0.4,0.7-0.8,1.1-1s0.9-0.3,1.4-0.3c1.1,0,1.9,0.4,2.5,1.1c0.6,0.7,0.9,1.7,0.9,3.1c0,1.3-0.3,2.3-0.9,3.1
		C75.5,69.4,74.7,69.8,73.6,69.8z M73.5,62.5c-0.8,0-1.4,0.2-1.8,0.7s-0.6,1.2-0.6,2.2v0.3c0,1.1,0.2,1.9,0.6,2.4s1,0.7,1.8,0.7
		c0.7,0,1.2-0.3,1.6-0.8c0.4-0.6,0.6-1.3,0.6-2.3s-0.2-1.8-0.6-2.3C74.7,62.7,74.2,62.5,73.5,62.5z"/>
</g>
<line fill="none" stroke="#36CC89" stroke-width="2" stroke-miterlimit="10" x1="65.6" y1="41" x2="65.6" y2="55.4"/>
<line fill="none" stroke="#36CC89" stroke-width="2" stroke-miterlimit="10" x1="65.6" y1="77.6" x2="65.6" y2="92.4"/>
<g>
	<path fill="#8F8F8F" d="M23.6,103.5h-1.2V92.1h1.2V103.5z"/>
	<path fill="#8F8F8F" d="M29.5,103.7c-1.2,0-2.1-0.4-2.8-1.1s-1-1.7-1-3s0.3-2.3,1-3.1c0.6-0.8,1.5-1.1,2.6-1.1c1,0,1.8,0.3,2.4,1
		c0.6,0.7,0.9,1.5,0.9,2.6v0.8H27c0,0.9,0.3,1.7,0.7,2.1c0.5,0.5,1.1,0.7,1.9,0.7c0.9,0,1.7-0.2,2.6-0.5v1.1
		c-0.4,0.2-0.8,0.3-1.2,0.4C30.5,103.6,30.1,103.7,29.5,103.7z M29.2,96.4c-0.6,0-1.2,0.2-1.5,0.6s-0.6,1-0.7,1.7h4.2
		c0-0.8-0.2-1.4-0.5-1.8S29.8,96.4,29.2,96.4z"/>
	<path fill="#8F8F8F" d="M38.2,96.4h-2v7.1H35v-7.1h-1.4v-0.5l1.4-0.4V95c0-2,0.9-3,2.6-3c0.4,0,0.9,0.1,1.5,0.3l-0.3,1
		c-0.5-0.2-0.9-0.2-1.2-0.2c-0.5,0-0.8,0.2-1,0.5s-0.3,0.8-0.3,1.5v0.5h2L38.2,96.4L38.2,96.4z"/>
	<path fill="#8F8F8F" d="M42.2,102.7c0.2,0,0.4,0,0.6,0s0.4-0.1,0.5-0.1v0.9c-0.1,0.1-0.3,0.1-0.6,0.2c-0.3,0-0.5,0.1-0.7,0.1
		c-1.6,0-2.3-0.8-2.3-2.5v-4.8h-1.1v-0.6l1.1-0.5l0.5-1.7H41v1.9h2.3v0.9H41v4.7c0,0.5,0.1,0.9,0.3,1.1S41.8,102.7,42.2,102.7z"/>
</g>
<line fill="none" stroke="#36CC89" stroke-width="2" stroke-miterlimit="10" x1="17.6" y1="99.6" x2="8.3" y2="99.6"/>
<line fill="none" stroke="#36CC89" stroke-width="2" stroke-miterlimit="10" x1="57.5" y1="99.6" x2="48.1" y2="99.6"/>
<circle fill="#D2F0E2" cx="5.2" cy="38.5" r="5.2"/>
<circle fill="#36CC89" cx="65.6" cy="100.3" r="5.2"/>
<g>
	<g>
		<polyline fill="none" stroke="#F2F2F2" stroke-width="2" stroke-miterlimit="10" points="-139,253.8 -139,256.8 -142,256.8 		"/>
		
			<line fill="none" stroke="#F2F2F2" stroke-width="2" stroke-miterlimit="10" stroke-dasharray="5.9074,5.9074" x1="-147.9" y1="256.8" x2="-298.5" y2="256.8"/>
		<polyline fill="none" stroke="#F2F2F2" stroke-width="2" stroke-miterlimit="10" points="-301.5,256.8 -304.5,256.8 -304.5,253.8 
					"/>
		
			<line fill="none" stroke="#F2F2F2" stroke-width="2" stroke-miterlimit="10" stroke-dasharray="5.9074,5.9074" x1="-304.5" y1="247.9" x2="-304.5" y2="97.3"/>
		<polyline fill="none" stroke="#F2F2F2" stroke-width="2" stroke-miterlimit="10" points="-304.5,94.3 -304.5,91.3 -301.5,91.3 		
			"/>
		
			<line fill="none" stroke="#F2F2F2" stroke-width="2" stroke-miterlimit="10" stroke-dasharray="5.9074,5.9074" x1="-295.6" y1="91.3" x2="-144.9" y2="91.3"/>
		<polyline fill="none" stroke="#F2F2F2" stroke-width="2" stroke-miterlimit="10" points="-142,91.3 -139,91.3 -139,94.3 		"/>
		
			<line fill="none" stroke="#F2F2F2" stroke-width="2" stroke-miterlimit="10" stroke-dasharray="5.9074,5.9074" x1="-139" y1="100.2" x2="-139" y2="250.9"/>
	</g>
</g>
<g>
	<path fill="#B9B9B9" d="M-356.2,3.1c0-1.2-0.8-1.8-2.4-1.8c-1,0-2,0.3-3,0.9c-0.3,0.2-0.5,0.4-0.7,0.5c-0.1,0.2-0.3,0.2-0.4,0.2
		s-0.3,0-0.5-0.1c-0.1-0.1-0.2-0.2-0.4-0.3c-0.3-0.4-0.3-0.8,0.2-1.2c0.7-0.6,1.9-1,3.6-1.2c0.3-0.1,0.7-0.1,1.3-0.1
		s1.1,0.1,1.6,0.3s1.1,0.4,1.5,0.8c0.8,0.6,1.2,1.5,1.2,2.5c0,1.2-0.5,2.3-1.6,3.2c-0.9,0.9-2.1,1.5-3.3,1.8c0.3,0.3,0.7,0.7,1,1.2
		l0.7,1.3c0.6,1.2,1.2,1.8,1.7,1.9c0.2,0,0.4,0,0.5,0c0.2,0,0.3-0.1,0.4-0.1c0.1,0,0.1,0.1,0.1,0.1c0,0.1,0,0.2-0.1,0.4
		c-0.1,0.1-0.2,0.3-0.4,0.4c-0.4,0.3-0.8,0.4-1.2,0.4c-0.4,0-0.8-0.1-1.1-0.3c-0.3-0.2-0.5-0.3-0.8-0.6c-0.2-0.2-0.4-0.5-0.6-0.8
		c-0.2-0.3-0.3-0.6-0.5-0.9l-0.4-0.9c-0.1-0.3-0.2-0.5-0.4-0.7c-0.2-0.2-0.2-0.3-0.2-0.4c-0.1-0.2-0.2-0.4-0.3-0.5
		c-0.2-0.3-0.5-0.5-0.8-0.6c-1.3,3.3-2.6,5.1-3.9,5.6c-0.1,0-0.2,0.1-0.3,0.1s-0.2,0-0.3-0.1s-0.1-0.1-0.2-0.2s-0.2-0.2-0.2-0.4
		s0-0.2,0.1-0.3c0.9-0.7,1.9-2.6,3-5.8l0.6-1.4c0.6-1.8,1.1-2.8,1.6-3.3c0.2-0.1,0.3-0.2,0.5-0.2s0.3,0,0.4,0.1s0.2,0.1,0.3,0.2
		c0.2,0.2,0.3,0.4,0.3,0.6s0,0.4-0.1,0.5s-0.2,0.4-0.3,0.6c-0.3,0.7-0.5,1.4-0.7,1.8l-0.5,1.3c1.3-0.2,2.4-0.7,3.4-1.5
		C-356.7,5.2-356.2,4.2-356.2,3.1z"/>
	<path fill="#B9B9B9" d="M-353.6,10.9c0-0.5,0.1-1,0.3-1.5c0.1-0.5,0.3-1,0.6-1.4c0.3-0.4,0.6-0.9,0.9-1.3c0.3-0.4,0.7-0.8,1.1-1.1
		c0.9-0.6,1.7-1,2.6-1c1,0,1.7,0.4,2.1,1.3c0.1,0.3,0.2,0.6,0.2,1s-0.1,0.8-0.2,1.1s-0.4,0.7-0.7,1c-0.3,0.3-0.6,0.5-0.9,0.7
		c-0.4,0.2-0.7,0.4-1.2,0.6c-0.9,0.3-1.8,0.5-2.7,0.5c0,0.1,0,0.2,0,0.4s0,0.4,0.1,0.6c0,0.2,0.1,0.4,0.2,0.6
		c0.2,0.4,0.5,0.5,0.9,0.5c0.7,0,1.4-0.2,2-0.6c0.2-0.1,0.4-0.3,0.6-0.4c0.1-0.1,0.3-0.2,0.4-0.2c0.1,0,0.2,0.1,0.3,0.2
		c0.1,0.1,0.1,0.3,0.1,0.4c0,0.3-0.1,0.6-0.3,0.8c-0.8,0.8-1.9,1.1-3.4,1.1c-0.9,0-1.6-0.3-2.1-0.8
		C-353.3,12.8-353.6,11.9-353.6,10.9z M-348.3,5.9c-0.6,0-1.2,0.4-1.8,1.3c-0.5,0.7-0.9,1.6-1.2,2.7c1-0.1,1.9-0.5,2.6-1.2
		c0.7-0.7,1-1.3,1-1.9S-347.9,5.9-348.3,5.9z"/>
	<path fill="#B9B9B9" d="M-345.4,12.5c0-0.2,0-0.4,0.1-0.5c0.1-0.2,0.2-0.3,0.3-0.4c0.3-0.2,0.5-0.4,0.8-0.4c0.2,0,0.4,0.1,0.4,0.4
		c0,0.6,0.2,1.1,0.6,1.3c0.2,0.1,0.3,0.1,0.5,0.1c0.2,0,0.3,0,0.4-0.1c0.1,0,0.2-0.1,0.3-0.2c0.2-0.2,0.3-0.4,0.3-0.6
		c0-0.2-0.1-0.5-0.2-0.7c-0.1-0.2-0.2-0.4-0.4-0.6l-0.5-0.7c-0.7-1-1.1-1.9-1.1-2.7c0-0.7,0.3-1.3,0.9-1.8c0.7-0.6,1.5-0.9,2.5-0.9
		c0.9,0,1.6,0.2,2.1,0.7c0.4,0.4,0.6,0.8,0.6,1.2c0,0.5-0.2,0.9-0.5,1.1c-0.3,0.3-0.7,0.3-1,0.3c-0.1,0-0.3-0.1-0.3-0.2
		c-0.1-0.1-0.1-0.3,0-0.4c0-0.2,0.1-0.3,0.1-0.5s0-0.3-0.1-0.5c-0.1-0.1-0.1-0.3-0.2-0.4c-0.2-0.2-0.4-0.3-0.7-0.3
		c-0.2,0-0.4,0-0.6,0.1c-0.2,0.1-0.3,0.1-0.4,0.2c-0.2,0.2-0.4,0.5-0.4,0.8s0.1,0.6,0.2,0.8c0.1,0.2,0.2,0.5,0.4,0.7
		c0.2,0.2,0.3,0.5,0.5,0.7c0.2,0.2,0.4,0.5,0.5,0.7c0.4,0.6,0.6,1.1,0.6,1.6s-0.1,0.8-0.3,1.2c-0.2,0.4-0.4,0.6-0.8,0.8
		c-0.7,0.5-1.4,0.7-2.2,0.7c-0.8,0-1.4-0.2-1.8-0.6C-345.2,13.3-345.4,12.9-345.4,12.5z"/>
	<path fill="#B9B9B9" d="M-334.1,12.4c0.2,0,0.2,0.1,0.2,0.3c0,0.3-0.1,0.6-0.4,0.8c-0.4,0.4-0.8,0.6-1.5,0.6
		c-0.7,0-1.2-0.3-1.4-0.9c0-0.1,0-0.3,0-0.6c0-0.3,0-0.6,0.1-0.9s0.2-0.7,0.4-1.1c0.1-0.4,0.3-0.8,0.5-1.2l0.5-1.1
		c0.3-0.9,0.5-1.5,0.5-1.7c0-0.3,0-0.5-0.1-0.5c-0.1,0-0.1-0.2-0.2-0.2l-0.2-0.1c-0.1,0-0.1-0.1-0.1-0.2s0-0.2,0.1-0.3
		c0.1-0.1,0.2-0.2,0.3-0.3c0.3-0.1,0.6-0.2,0.9-0.2c0.9,0,1.3,0.2,1.3,0.7s-0.1,1.2-0.4,1.9c-0.2,0.6-0.4,1.1-0.6,1.5l-0.5,1.2
		c-0.4,0.9-0.6,1.6-0.6,2c0,0.3,0.1,0.4,0.4,0.4c0.3,0,0.5,0,0.6-0.1C-334.2,12.4-334.1,12.4-334.1,12.4z M-332.2,2.6
		c-0.1,0.1-0.3,0.3-0.5,0.3c-0.2,0-0.3,0.2-0.5,0.2c-0.2,0-0.4,0-0.5-0.1c-0.2-0.1-0.3-0.2-0.4-0.3c-0.3-0.3-0.4-0.6-0.4-0.9
		s0-0.5,0.1-0.7c0.1-0.2,0.2-0.3,0.4-0.4c0.3-0.2,0.6-0.3,0.8-0.3s0.5,0,0.6,0.1c0.1,0,0.3,0.1,0.4,0.2c0.3,0.2,0.4,0.4,0.4,0.7
		s0,0.5-0.1,0.7C-332,2.3-332.1,2.4-332.2,2.6z"/>
	<path fill="#B9B9B9" d="M-330.2,12.6c1-0.3,1.9-0.5,2.8-0.5c0.6,0,1,0.2,1.3,0.5s0.4,0.7,0.4,1.2c0,0.1,0,0.2-0.1,0.3
		c-0.1,0.1-0.2,0.1-0.3,0.1s-0.2,0-0.4-0.1c-0.1-0.1-0.3-0.1-0.5-0.2c-1.1-0.5-2.4-0.5-3.8,0.1c-0.2,0.1-0.3,0.1-0.5,0.2
		c-0.1,0-0.3,0-0.4-0.1s-0.3-0.2-0.4-0.3c-0.3-0.3-0.5-0.6-0.4-0.9c0.1-0.3,0.3-0.6,0.5-1c0.2-0.4,0.5-0.7,0.8-1.1
		c0.3-0.3,0.6-0.7,1-1c0.9-0.9,1.6-1.5,2-1.8c0.9-0.8,1.5-1.3,1.7-1.5c0.2-0.2,0.3-0.3,0.4-0.5c-0.5,0.2-1.2,0.4-2.1,0.5
		c-0.2,0-0.4,0-0.6,0c-0.6,0-1.1-0.1-1.3-0.3s-0.4-0.6-0.4-1c0-0.2,0-0.3,0.1-0.4c0.1-0.1,0.2-0.1,0.3-0.1s0.2,0,0.4,0.1
		c0.2,0.1,0.4,0.1,0.6,0.2c0.9,0.2,1.5,0.3,1.9,0.3s0.8,0,1-0.1c0.2-0.1,0.4-0.1,0.5-0.2l0.5-0.1c0.1,0,0.3-0.1,0.4-0.1
		c0.1,0,0.2,0,0.3,0.1s0.2,0.2,0.3,0.3c0.2,0.3,0.3,0.5,0.3,0.7s-0.1,0.5-0.4,0.9c-0.3,0.3-0.6,0.7-1,1.1c-0.4,0.4-0.8,0.8-1.3,1.1
		l-1.4,1.2C-329.2,11.2-329.9,12-330.2,12.6z M-330.3,12.9C-330.3,12.8-330.3,12.8-330.3,12.9C-330.3,12.8-330.3,12.8-330.3,12.9z"
		/>
	<path fill="#B9B9B9" d="M-323.7,10.9c0-0.5,0.1-1,0.3-1.5c0.2-0.5,0.4-0.9,0.6-1.4c0.2-0.5,0.6-0.9,0.9-1.3
		c0.3-0.4,0.7-0.8,1.1-1.1c0.9-0.6,1.7-1,2.6-1c1,0,1.7,0.4,2.1,1.3c0.1,0.3,0.2,0.6,0.2,1s-0.1,0.8-0.2,1.1s-0.5,0.7-0.8,1
		c-0.3,0.3-0.6,0.5-0.9,0.7c-0.4,0.2-0.7,0.4-1.2,0.6c-0.9,0.3-1.8,0.5-2.7,0.5c0,0.1,0,0.2,0,0.4s0,0.4,0.1,0.6
		c0,0.2,0.1,0.4,0.2,0.6c0.2,0.4,0.5,0.5,0.9,0.5c0.7,0,1.4-0.2,2-0.6c0.2-0.1,0.4-0.3,0.6-0.4c0.1-0.1,0.3-0.2,0.4-0.2
		s0.2,0.1,0.3,0.2c0.1,0.1,0.1,0.3,0.1,0.4c0,0.3-0.1,0.6-0.3,0.8c-0.8,0.8-1.9,1.1-3.4,1.1c-0.9,0-1.6-0.3-2.1-0.8
		C-323.5,12.8-323.8,11.9-323.7,10.9z M-318.5,5.9c-0.6,0-1.2,0.4-1.8,1.3c-0.5,0.8-0.9,1.6-1.2,2.7c1-0.1,1.9-0.5,2.6-1.2
		c0.7-0.7,1-1.3,1-1.9C-317.8,6.2-318,5.9-318.5,5.9z"/>
	<path fill="#B9B9B9" d="M-309.3,10.9c0-0.5,0.1-1,0.3-1.5c0.2-0.5,0.4-0.9,0.6-1.4c0.2-0.5,0.6-0.9,0.9-1.3c0.3-0.4,0.7-0.7,1.1-1
		c0.9-0.6,1.7-1,2.6-1c1,0,1.7,0.4,2.1,1.3c0.1,0.3,0.2,0.6,0.2,1s-0.1,0.8-0.2,1.1s-0.5,0.6-0.7,0.9c-0.2,0.3-0.6,0.5-0.9,0.7
		c-0.4,0.2-0.7,0.4-1.2,0.6c-0.9,0.3-1.8,0.5-2.7,0.5c0,0.1,0,0.2,0,0.4s0,0.4,0.1,0.6c0,0.2,0.1,0.4,0.2,0.6
		c0.2,0.4,0.5,0.5,0.9,0.5c0.7,0,1.4-0.2,2-0.6c0.2-0.1,0.4-0.3,0.6-0.4c0.1-0.1,0.3-0.2,0.4-0.2s0.2,0.1,0.3,0.2
		c0.1,0.1,0.1,0.3,0.1,0.4c0,0.3-0.1,0.6-0.3,0.8c-0.8,0.8-1.9,1.1-3.4,1.1c-0.9,0-1.6-0.3-2.1-0.8
		C-309.1,12.8-309.4,11.9-309.3,10.9z M-304,5.9c-0.6,0-1.2,0.4-1.8,1.3c-0.5,0.7-0.9,1.6-1.2,2.7c1-0.1,1.9-0.5,2.6-1.2
		c0.7-0.7,1-1.3,1-1.9C-303.4,6.2-303.6,5.9-304,5.9z"/>
	<path fill="#B9B9B9" d="M-300.6,13.2c-0.1-0.2-0.1-0.4-0.1-0.7s0-0.6,0.1-0.9s0.2-0.7,0.3-1s0.3-0.7,0.4-1l0.5-1
		c0.6-1.4,0.8-2.2,0.7-2.4c-0.1-0.1-0.2-0.2-0.4-0.3c-0.1,0-0.1-0.1-0.1-0.2s0-0.2,0.1-0.3c0.1-0.1,0.2-0.2,0.3-0.3
		c0.3-0.1,0.6-0.2,0.9-0.2c0.3,0,0.5,0,0.7,0.1c0.2,0.1,0.3,0.1,0.4,0.2c0.2,0.2,0.3,0.4,0.3,0.7s-0.1,0.6-0.2,1
		c-0.1,0.4-0.2,0.7-0.4,1.1c-0.2,0.4-0.3,0.8-0.5,1.2l-0.6,1c-0.4,0.9-0.6,1.5-0.6,1.7c0,0.6,0.2,0.8,0.6,0.8c1,0,2-0.6,2.8-1.8
		c0.5-0.7,0.9-1.4,1.1-2.3c0.1-0.4,0.2-0.7,0.2-1.1c0-0.3,0-0.6,0-0.8s-0.1-0.2-0.1-0.4c-0.1-0.3-0.2-0.5-0.4-0.8
		c-0.1-0.2-0.1-0.3,0.2-0.6c0.3-0.2,0.6-0.3,1.1-0.3c0.3,0,0.6,0.1,0.8,0.4c0.3,0.3,0.4,0.8,0.4,1.5c0,0.6-0.1,1.2-0.3,1.9
		c-0.2,0.7-0.4,1.2-0.8,1.7s-0.7,1.1-1.2,1.6c-0.4,0.5-0.9,0.9-1.4,1.3c-1.1,0.8-2.2,1.2-3.3,1.2C-299.8,14.2-300.3,13.8-300.6,13.2
		z"/>
	<path fill="#B9B9B9" d="M-291.1,10.9c0-0.5,0.1-1,0.3-1.5c0.1-0.5,0.3-1,0.6-1.4c0.3-0.4,0.6-0.9,0.9-1.3c0.3-0.4,0.7-0.8,1.1-1.1
		c0.9-0.6,1.7-1,2.6-1c1,0,1.7,0.4,2.1,1.3c0.1,0.3,0.2,0.6,0.2,1s-0.1,0.8-0.2,1.1c-0.1,0.3-0.5,0.7-0.7,1
		c-0.2,0.3-0.6,0.5-0.9,0.7c-0.4,0.2-0.7,0.4-1.2,0.6c-0.9,0.3-1.8,0.5-2.7,0.5c0,0.1,0,0.2,0,0.4s0,0.4,0.1,0.6
		c0,0.2,0.1,0.4,0.2,0.6c0.2,0.4,0.5,0.5,0.9,0.5c0.7,0,1.4-0.2,2-0.6c0.2-0.1,0.4-0.3,0.6-0.4c0.1-0.1,0.3-0.2,0.4-0.2
		c0.1,0,0.2,0.1,0.3,0.2c0.1,0.1,0.1,0.3,0.1,0.4c0,0.3-0.1,0.6-0.3,0.8c-0.8,0.8-1.9,1.1-3.4,1.1c-0.9,0-1.6-0.3-2.1-0.8
		C-290.9,12.8-291.2,11.9-291.1,10.9z M-285.8,5.9c-0.6,0-1.2,0.4-1.8,1.3c-0.6,0.8-1,1.6-1.3,2.7c1-0.1,1.9-0.5,2.6-1.2
		c0.7-0.7,1-1.3,1-1.9C-285.2,6.2-285.4,5.9-285.8,5.9z"/>
	<path fill="#B9B9B9" d="M-276,6.4c-0.2,0-0.5,0.2-0.8,0.5c-0.3,0.4-0.6,0.7-0.9,1l-0.8,0.9l-1.5,1.9c-0.3,0.7-0.6,1.2-0.8,1.7
		l-0.5,1c-0.1,0.3-0.2,0.4-0.3,0.5c-0.1,0.1-0.2,0.2-0.4,0.2c-0.2,0-0.3,0-0.5-0.1c-0.1-0.1-0.3-0.1-0.4-0.2
		c-0.2-0.2-0.3-0.4-0.3-0.6c0-0.1,0.1-0.3,0.2-0.5l0.3-0.7c0.1-0.2,0.2-0.5,0.4-0.8l0.5-1.2c0.7-1.8,1.1-2.9,1.1-3.4
		c0-0.3-0.1-0.5-0.3-0.6l-0.2-0.1c-0.1,0-0.1-0.1-0.1-0.2s0-0.2,0.1-0.3c0.1-0.1,0.2-0.2,0.3-0.3c0.3-0.1,0.5-0.2,0.8-0.2
		c0.3,0,0.5,0,0.6,0.1c0.2,0.1,0.3,0.1,0.4,0.2c0.2,0.2,0.3,0.4,0.3,0.7c0,0.2,0,0.5-0.1,0.7s-0.1,0.5-0.2,0.7
		c-0.1,0.2-0.2,0.5-0.3,0.7c0.2,0,0.1,0.2,0,0.4l-0.2,0.4c0,0.1-0.1,0.1,0,0.1c0.7-0.9,1.1-1.5,1.3-1.8l0.6-0.8
		c0.5-0.5,0.8-0.9,1.1-1.1c0.5-0.4,1-0.5,1.3-0.5c0.3,0,0.6,0,0.8,0.1s0.4,0.2,0.6,0.3c0.3,0.3,0.5,0.7,0.5,1.2s-0.1,1-0.3,1.5
		c-0.2,0.5-0.4,0.9-0.6,1.3c-0.2,0.3-0.3,0.6-0.5,1c-0.5,1-0.7,1.7-0.7,2.2c0,0.2,0.2,0.3,0.5,0.3c0.3,0,0.5-0.1,0.7-0.2
		c0.2-0.1,0.3-0.2,0.4-0.2s0.2,0.1,0.2,0.2c0,0.5-0.3,1-0.8,1.3c-0.4,0.2-0.7,0.4-1,0.4c-0.3,0-0.6,0-0.8-0.1
		c-0.2-0.1-0.4-0.2-0.5-0.3c-0.4-0.3-0.5-0.8-0.5-1.3c0-0.7,0.2-1.6,0.7-2.6c0.3-0.7,0.5-1.2,0.7-1.5l0.3-0.6
		c0.2-0.4,0.3-0.7,0.3-0.9S-275.6,6.4-276,6.4z"/>
	<path fill="#B9B9B9" d="M-266.8,11.7c0.2,0,0.3,0.1,0.3,0.4c0,0.2-0.1,0.4-0.2,0.6c-0.2,0.3-0.5,0.7-1,1c-0.6,0.4-1.1,0.5-1.7,0.5
		c-1,0-1.6-0.4-1.8-1.3c-0.3-1,0.2-3.2,1.4-6.6c-0.7-0.1-1.1-0.2-1.1-0.4c0-0.1,0-0.1,0-0.2s0-0.1,0.1-0.2c0.1-0.1,0.1-0.2,0.2-0.2
		c0.2-0.2,0.4-0.3,0.6-0.3h0.7c0.7-1.5,1.1-2.4,1.4-2.6c0.1-0.1,0.3-0.1,0.4-0.1c0.2,0,0.3,0,0.4,0.1c0.1,0,0.2,0.1,0.3,0.2
		c0.2,0.2,0.3,0.4,0.3,0.6c0,0.1,0,0.3-0.1,0.4l-0.7,1.4h0.2c0.4,0,0.7,0,0.9,0h0.5c0.1,0,0.3,0,0.4,0c0.1,0,0.3,0.1,0.3,0.2
		c0,0.8-0.9,1.2-2.8,1.2h-0.1l-0.6,1.6c-0.7,1.9-1,3.2-1,4c0,0.2,0,0.4,0.1,0.5c0.1,0.1,0.3,0.2,0.5,0.2c0.3,0,0.5,0,0.7-0.1
		c0.2-0.1,0.4-0.2,0.6-0.3c0.2-0.1,0.3-0.2,0.4-0.3S-266.9,11.7-266.8,11.7z"/>
</g>
<g>
	<path fill="#8F8F8F" d="M-230.3,61.3c0.2,0,0.4,0,0.6,0s0.4-0.1,0.5-0.1v0.9c-0.1,0.1-0.3,0.1-0.6,0.2c-0.3,0-0.5,0.1-0.7,0.1
		c-1.6,0-2.3-0.8-2.3-2.5v-4.8h-1.1v-0.6l1.1-0.5l0.5-1.7h0.7v1.9h2.3v0.9h-2.3v4.7c0,0.5,0.1,0.9,0.3,1.1S-230.7,61.3-230.3,61.3z"
		/>
	<path fill="#8F8F8F" d="M-220.6,58.1c0,1.3-0.3,2.3-1,3.1c-0.7,0.7-1.6,1.1-2.7,1.1c-0.7,0-1.4-0.2-1.9-0.5s-1-0.8-1.3-1.5
		s-0.5-1.4-0.5-2.2c0-1.3,0.3-2.3,1-3.1c0.7-0.7,1.6-1.1,2.7-1.1c1.1,0,2,0.4,2.7,1.1C-221,55.8-220.6,56.9-220.6,58.1z
		 M-226.8,58.1c0,1,0.2,1.8,0.6,2.3s1,0.8,1.8,0.8s1.4-0.3,1.8-0.8c0.4-0.5,0.6-1.3,0.6-2.3s-0.2-1.8-0.6-2.3
		c-0.4-0.5-1-0.8-1.8-0.8s-1.4,0.3-1.8,0.8S-226.8,57.1-226.8,58.1z"/>
	<path fill="#8F8F8F" d="M-214.8,62.3c-0.5,0-1-0.1-1.4-0.3s-0.8-0.5-1.1-0.9h-0.1c0.1,0.5,0.1,0.9,0.1,1.3v3.3h-1.2V54.1h1l0.2,1.1
		h0.1c0.3-0.4,0.7-0.8,1.1-1s0.9-0.3,1.4-0.3c1.1,0,1.9,0.4,2.5,1.1c0.6,0.7,0.9,1.7,0.9,3.1c0,1.3-0.3,2.3-0.9,3.1
		C-212.9,61.9-213.7,62.3-214.8,62.3z M-215,55c-0.8,0-1.4,0.2-1.8,0.7s-0.6,1.2-0.6,2.2v0.3c0,1.1,0.2,1.9,0.6,2.4
		c0.4,0.5,1,0.7,1.8,0.7c0.7,0,1.2-0.3,1.6-0.8c0.4-0.6,0.6-1.3,0.6-2.3s-0.2-1.8-0.6-2.3C-213.7,55.3-214.2,55-215,55z"/>
</g>
<g>
	<path fill="#8F8F8F" d="M-118.2,176c0.4,0,0.7,0,1,0.1l-0.2,1.1c-0.3-0.1-0.6-0.1-0.9-0.1c-0.6,0-1.2,0.3-1.7,0.8s-0.7,1.2-0.7,2
		v4.3h-1.2v-8h1l0.1,1.5h0.1c0.3-0.5,0.7-0.9,1.1-1.2S-118.7,176-118.2,176z"/>
	<path fill="#8F8F8F" d="M-115.8,173.9c0-0.3,0.1-0.5,0.2-0.6c0.1-0.1,0.3-0.2,0.5-0.2s0.4,0.1,0.5,0.2s0.2,0.3,0.2,0.6
		s-0.1,0.5-0.2,0.6c-0.1,0.1-0.3,0.2-0.5,0.2s-0.4-0.1-0.5-0.2C-115.8,174.4-115.8,174.2-115.8,173.9z M-114.5,184.1h-1.2v-8h1.2
		V184.1z"/>
	<path fill="#8F8F8F" d="M-105.4,176.1v0.8l-1.5,0.2c0.1,0.2,0.3,0.4,0.4,0.7s0.2,0.6,0.2,0.9c0,0.8-0.3,1.4-0.8,1.9
		s-1.3,0.7-2.2,0.7c-0.2,0-0.5,0-0.7-0.1c-0.5,0.3-0.8,0.6-0.8,1c0,0.2,0.1,0.4,0.3,0.5c0.2,0.1,0.5,0.2,0.9,0.2h1.4
		c0.9,0,1.5,0.2,2,0.5c0.5,0.4,0.7,0.9,0.7,1.6c0,0.9-0.4,1.6-1.1,2c-0.7,0.5-1.8,0.7-3.1,0.7c-1,0-1.9-0.2-2.4-0.6
		c-0.6-0.4-0.9-0.9-0.9-1.7c0-0.5,0.2-0.9,0.5-1.3s0.8-0.6,1.3-0.7c-0.2-0.1-0.4-0.2-0.5-0.4s-0.2-0.4-0.2-0.7s0.1-0.5,0.2-0.8
		s0.4-0.4,0.7-0.6c-0.4-0.2-0.8-0.5-1-0.9c-0.3-0.4-0.4-0.9-0.4-1.4c0-0.9,0.3-1.6,0.8-2c0.5-0.5,1.3-0.7,2.2-0.7
		c0.4,0,0.8,0,1.1,0.1h2.9V176.1z M-111.8,185.5c0,0.4,0.2,0.8,0.5,1s0.9,0.3,1.6,0.3c1,0,1.8-0.2,2.3-0.5s0.7-0.7,0.7-1.2
		c0-0.4-0.1-0.7-0.4-0.9s-0.8-0.3-1.5-0.3h-1.5c-0.6,0-1,0.1-1.3,0.4S-111.8,185-111.8,185.5z M-111.1,178.7c0,0.6,0.2,1,0.5,1.3
		s0.8,0.4,1.3,0.4c1.2,0,1.8-0.6,1.8-1.7c0-1.2-0.6-1.8-1.8-1.8c-0.6,0-1,0.2-1.3,0.5S-111.1,178.1-111.1,178.7z"/>
	<path fill="#8F8F8F" d="M-98.2,184.1V179c0-0.7-0.1-1.1-0.4-1.5s-0.8-0.5-1.4-0.5c-0.8,0-1.5,0.2-1.8,0.7c-0.4,0.5-0.6,1.2-0.6,2.3
		v4.2h-1.2v-11.4h1.2v3.4c0,0.4,0,0.8-0.1,1h0.1c0.2-0.4,0.6-0.7,1-0.9s0.9-0.3,1.5-0.3c1,0,1.7,0.2,2.2,0.7s0.7,1.2,0.7,2.2v5.2
		L-98.2,184.1L-98.2,184.1z"/>
	<path fill="#8F8F8F" d="M-91.9,183.3c0.2,0,0.4,0,0.6,0s0.4-0.1,0.5-0.1v0.9c-0.1,0.1-0.3,0.1-0.6,0.2c-0.3,0-0.5,0.1-0.7,0.1
		c-1.6,0-2.3-0.8-2.3-2.5v-4.8h-1.1v-0.6l1.1-0.5l0.5-1.7h0.7v1.9h2.3v0.9h-2.3v4.7c0,0.5,0.1,0.9,0.3,1.1S-92.3,183.3-91.9,183.3z"
		/>
</g>
<g>
	<path fill="#8F8F8F" d="M-344.1,184.1h-1.2v-11.4h1.2V184.1z"/>
	<path fill="#8F8F8F" d="M-338.2,184.3c-1.2,0-2.1-0.4-2.8-1.1c-0.7-0.7-1-1.7-1-3s0.3-2.3,1-3.1c0.6-0.8,1.5-1.1,2.6-1.1
		c1,0,1.8,0.3,2.4,1s0.9,1.5,0.9,2.6v0.8h-5.5c0,0.9,0.3,1.7,0.7,2.1c0.5,0.5,1.1,0.7,1.9,0.7c0.9,0,1.7-0.2,2.6-0.5v1.1
		c-0.4,0.2-0.8,0.3-1.2,0.4C-337.2,184.3-337.6,184.3-338.2,184.3z M-338.5,177c-0.6,0-1.2,0.2-1.5,0.6c-0.3,0.4-0.6,1-0.7,1.7h4.2
		c0-0.8-0.2-1.4-0.5-1.8C-337.4,177.2-337.9,177-338.5,177z"/>
	<path fill="#8F8F8F" d="M-329.5,177.1h-2v7.1h-1.2v-7.1h-1.5v-0.5l1.4-0.4v-0.4c0-2,0.9-3,2.6-3c0.4,0,0.9,0.1,1.5,0.3l-0.3,1
		c-0.5-0.2-0.9-0.2-1.2-0.2c-0.5,0-0.8,0.2-1,0.5c-0.2,0.3-0.3,0.8-0.3,1.5v0.5h2V177.1z"/>
	<path fill="#8F8F8F" d="M-325.5,183.3c0.2,0,0.4,0,0.6,0c0.2,0,0.4-0.1,0.5-0.1v0.9c-0.1,0.1-0.3,0.1-0.6,0.2
		c-0.3,0-0.5,0.1-0.7,0.1c-1.6,0-2.3-0.8-2.3-2.5v-4.8h-1.1v-0.6l1.1-0.5l0.5-1.7h0.7v1.9h2.3v0.9h-2.3v4.7c0,0.5,0.1,0.9,0.3,1.1
		C-326.3,183.1-325.9,183.3-325.5,183.3z"/>
</g>
<g>
	<path fill="#8F8F8F" d="M-243.1,285c1.1,0,1.9,0.4,2.5,1.1s0.9,1.7,0.9,3.1s-0.3,2.3-0.9,3.1c-0.6,0.7-1.4,1.1-2.5,1.1
		c-0.5,0-1-0.1-1.4-0.3c-0.4-0.2-0.8-0.5-1.1-0.9h-0.1l-0.3,1h-0.9v-11.4h1.2v2.8c0,0.6,0,1.2-0.1,1.7h0.1
		C-245.1,285.4-244.2,285-243.1,285z M-243.3,286c-0.8,0-1.4,0.2-1.8,0.7c-0.4,0.5-0.5,1.3-0.5,2.4s0.2,1.9,0.6,2.4
		c0.4,0.5,1,0.7,1.8,0.7c0.7,0,1.3-0.3,1.7-0.8s0.5-1.3,0.5-2.3s-0.2-1.8-0.5-2.3S-242.5,286-243.3,286z"/>
	<path fill="#8F8F8F" d="M-230.7,289.1c0,1.3-0.3,2.3-1,3.1c-0.7,0.7-1.6,1.1-2.7,1.1c-0.7,0-1.4-0.2-1.9-0.5s-1-0.8-1.3-1.5
		s-0.5-1.4-0.5-2.2c0-1.3,0.3-2.3,1-3.1c0.7-0.7,1.6-1.1,2.7-1.1c1.1,0,2,0.4,2.7,1.1C-231.1,286.8-230.7,287.8-230.7,289.1z
		 M-236.9,289.1c0,1,0.2,1.8,0.6,2.3s1,0.8,1.8,0.8s1.4-0.3,1.8-0.8c0.4-0.5,0.6-1.3,0.6-2.3s-0.2-1.8-0.6-2.3
		c-0.4-0.5-1-0.8-1.8-0.8s-1.4,0.3-1.8,0.8S-236.9,288.1-236.9,289.1z"/>
	<path fill="#8F8F8F" d="M-226,292.3c0.2,0,0.4,0,0.6,0c0.2,0,0.4-0.1,0.5-0.1v0.9c-0.1,0.1-0.3,0.1-0.6,0.2c-0.3,0-0.5,0.1-0.7,0.1
		c-1.6,0-2.3-0.8-2.3-2.5v-4.8h-1.2v-0.6l1.2-0.5l0.5-1.7h0.7v1.9h2.3v0.9h-2.3v4.7c0,0.5,0.1,0.9,0.3,1.1S-226.4,292.3-226,292.3z"
		/>
	<path fill="#8F8F8F" d="M-220.7,292.3c0.2,0,0.4,0,0.6,0c0.2,0,0.4-0.1,0.5-0.1v0.9c-0.1,0.1-0.3,0.1-0.6,0.2
		c-0.3,0-0.5,0.1-0.7,0.1c-1.6,0-2.3-0.8-2.3-2.5v-4.8h-1.1v-0.6l1.1-0.5l0.5-1.7h0.7v1.9h2.3v0.9h-2.3v4.7c0,0.5,0.1,0.9,0.3,1.1
		S-221.1,292.3-220.7,292.3z"/>
	<path fill="#8F8F8F" d="M-211.1,289.1c0,1.3-0.3,2.3-1,3.1c-0.7,0.7-1.6,1.1-2.7,1.1c-0.7,0-1.4-0.2-1.9-0.5s-1-0.8-1.3-1.5
		s-0.5-1.4-0.5-2.2c0-1.3,0.3-2.3,1-3.1c0.7-0.7,1.6-1.1,2.7-1.1c1.1,0,2,0.4,2.7,1.1C-211.4,286.8-211.1,287.8-211.1,289.1z
		 M-217.2,289.1c0,1,0.2,1.8,0.6,2.3s1,0.8,1.8,0.8s1.4-0.3,1.8-0.8c0.4-0.5,0.6-1.3,0.6-2.3s-0.2-1.8-0.6-2.3
		c-0.4-0.5-1-0.8-1.8-0.8s-1.4,0.3-1.8,0.8S-217.2,288.1-217.2,289.1z"/>
	<path fill="#8F8F8F" d="M-198.7,293.1v-5.2c0-0.6-0.1-1.1-0.4-1.4c-0.3-0.3-0.7-0.5-1.3-0.5c-0.8,0-1.3,0.2-1.7,0.7s-0.5,1.1-0.5,2
		v4.5h-1.2V288c0-0.6-0.1-1.1-0.4-1.4c-0.3-0.3-0.7-0.5-1.3-0.5c-0.8,0-1.3,0.2-1.7,0.7s-0.5,1.2-0.5,2.2v4.2h-1.2v-8h1l0.2,1.1h0.1
		c0.2-0.4,0.6-0.7,1-0.9c0.4-0.2,0.9-0.3,1.4-0.3c1.3,0,2.1,0.5,2.5,1.4h0.1c0.2-0.4,0.6-0.8,1-1s1-0.4,1.6-0.4c0.9,0,1.6,0.2,2,0.7
		c0.5,0.5,0.7,1.2,0.7,2.2v5.2h-1.4V293.1z"/>
</g>
<g>
	<g>
		<path fill="#F2F2F2" d="M-73.2,25h-12v2h10v11.5h2V25L-73.2,25z M-90.2,25h-12v2h12V25L-90.2,25z M-107.2,25h-12v2h12V25
			L-107.2,25z M-124.2,25h-12v2h12V25L-124.2,25z M-141.2,25h-12v2h12V25L-141.2,25z M-158.2,25h-12v2h12V25L-158.2,25z M-175.2,25
			h-12v2h12V25L-175.2,25z M-192.2,25h-12v2h12V25L-192.2,25z M-209.2,25h-12v2h12V25L-209.2,25z M-226.2,25h-12v2h12V25L-226.2,25z
			 M-243.2,25h-12v2h12V25L-243.2,25z M-260.2,25h-12v2h12V25L-260.2,25z M-277.2,25h-12v2h12V25L-277.2,25z M-294.2,25h-12v2h12V25
			L-294.2,25z M-311.2,25h-12v2h12V25L-311.2,25z M-328.2,25h-12v2h12V25L-328.2,25z M-345.2,25h-12v2h12V25L-345.2,25z M-362.2,25
			h-8v2l0,0c0,1,0,2,0,2h2v-2h6V25L-362.2,25z M-368.2,34.1h-2v12h2V34.1L-368.2,34.1z M-368.2,51.1h-2v12h2V51.1L-368.2,51.1z
			 M-368.2,68.1h-2v12h2V68.1L-368.2,68.1z M-368.2,85.1h-2v12h2V85.1L-368.2,85.1z M-368.2,102.1h-2v12h2V102.1L-368.2,102.1z
			 M-368.2,119.1h-2v12h2V119.1L-368.2,119.1z M-368.2,136.1h-2v12h2V136.1L-368.2,136.1z M-368.2,153.1h-2v12h2V153.1L-368.2,153.1
			z M-368.2,170.1h-2v12h2V170.1L-368.2,170.1z M-368.2,187.1h-2v12h2V187.1L-368.2,187.1z M-368.2,204.1h-2v12h2V204.1
			L-368.2,204.1z M-368.2,221.1h-2v12h2V221.1L-368.2,221.1z M-368.2,238.1h-2v12h2V238.1L-368.2,238.1z M-368.2,255.1h-2v12h2
			V255.1L-368.2,255.1z M-368.2,272.1h-2v12h2V272.1L-368.2,272.1z M-368.2,289.1h-2v12h2V289.1L-368.2,289.1z M-368.2,306.1h-2v12
			h2V306.1L-368.2,306.1z M-356.5,319.3h-12v2h12V319.3L-356.5,319.3z M-339.5,319.3h-12v2h12V319.3L-339.5,319.3z M-322.5,319.3
			h-12v2h12V319.3L-322.5,319.3z M-305.5,319.3h-12v2h12V319.3L-305.5,319.3z M-288.5,319.3h-12v2h12V319.3L-288.5,319.3z
			 M-271.5,319.3h-12v2h12V319.3L-271.5,319.3z M-254.5,319.3h-12v2h12V319.3L-254.5,319.3z M-237.5,319.3h-12v2h12V319.3
			L-237.5,319.3z M-220.5,319.3h-12v2h12V319.3L-220.5,319.3z M-203.5,319.3h-12v2h12V319.3L-203.5,319.3z M-186.5,319.3h-12v2h12
			V319.3L-186.5,319.3z M-169.5,319.3h-12v2h12V319.3L-169.5,319.3z M-152.5,319.3h-12v2h12V319.3L-152.5,319.3z M-135.5,319.3h-12
			v2h12V319.3L-135.5,319.3z M-118.5,319.3h-12v2h12V319.3L-118.5,319.3z M-101.5,319.3h-12v2h12V319.3L-101.5,319.3z M-84.5,319.3
			h-12v2h12V319.3L-84.5,319.3z M-73.2,315.5h-2v3.8h-4.2v2h6.2V315.5L-73.2,315.5z M-73.2,298.5h-2v12h2V298.5L-73.2,298.5z
			 M-73.2,281.5h-2v12h2V281.5L-73.2,281.5z M-73.2,264.5h-2v12h2V264.5L-73.2,264.5z M-73.2,247.5h-2v12h2V247.5L-73.2,247.5z
			 M-73.2,230.5h-2v12h2V230.5L-73.2,230.5z M-73.2,213.5h-2v12h2V213.5L-73.2,213.5z M-73.2,196.5h-2v12h2V196.5L-73.2,196.5z
			 M-73.2,179.5h-2v12h2V179.5L-73.2,179.5z M-73.2,162.5h-2v12h2V162.5L-73.2,162.5z M-73.2,145.5h-2v12h2V145.5L-73.2,145.5z
			 M-73.2,128.5h-2v12h2V128.5L-73.2,128.5z M-73.2,111.5h-2v12h2V111.5L-73.2,111.5z M-73.2,94.5h-2v12h2V94.5L-73.2,94.5z
			 M-73.2,77.5h-2v12h2V77.5L-73.2,77.5z M-73.2,60.5h-2v12h2V60.5L-73.2,60.5z M-73.2,43.5h-2v12h2V43.5L-73.2,43.5z"/>
	</g>
</g>
<line fill="none" stroke="#36CC89" stroke-width="2" stroke-miterlimit="10" x1="-222.8" y1="32.1" x2="-222.8" y2="47.9"/>
<line fill="none" stroke="#36CC89" stroke-width="2" stroke-miterlimit="10" x1="-222.8" y1="70.1" x2="-222.8" y2="85.9"/>
<line fill="none" stroke="#36CC89" stroke-width="2" stroke-miterlimit="10" x1="-222.7" y1="262.1" x2="-222.7" y2="277.9"/>
<line fill="none" stroke="#36CC89" stroke-width="2" stroke-miterlimit="10" x1="-222.7" y1="299.1" x2="-222.7" y2="314.9"/>
<line fill="none" stroke="#36CC89" stroke-width="2" stroke-miterlimit="10" x1="-127.8" y1="180.2" x2="-134.4" y2="180.2"/>
<line fill="none" stroke="#36CC89" stroke-width="2" stroke-miterlimit="10" x1="-79.2" y1="180.2" x2="-85.5" y2="180.2"/>
<line fill="none" stroke="#36CC89" stroke-width="2" stroke-miterlimit="10" x1="-353.1" y1="180.2" x2="-362.4" y2="180.2"/>
<line fill="none" stroke="#36CC89" stroke-width="2" stroke-miterlimit="10" x1="-310.2" y1="180.2" x2="-319.6" y2="180.2"/>
<g>
	
		<circle fill="none" stroke="#36CC89" stroke-width="4" stroke-miterlimit="10" stroke-dasharray="15.7562,7.8781" cx="-221.7" cy="174.1" r="82.8"/>
</g>
</svg>
