<?xml version="1.0" encoding="utf-8"?>
<!-- Generator: Adobe Illustrator 18.0.0, SVG Export Plug-In . SVG Version: 6.00 Build 0)  -->
<!DOCTYPE svg PUBLIC "-//W3C//DTD SVG 1.1//EN" "http://www.w3.org/Graphics/SVG/1.1/DTD/svg11.dtd">
<svg version="1.1" id="Layer_1" xmlns="http://www.w3.org/2000/svg" xmlns:xlink="http://www.w3.org/1999/xlink" x="0px" y="0px"
	 width="453px" height="354px" viewBox="0 0 453 354" enable-background="new 0 0 453 354" xml:space="preserve">
<rect x="124.6" y="86.7" fill-rule="evenodd" clip-rule="evenodd" fill="none" stroke="#F2F2F2" stroke-width="2" stroke-miterlimit="10" stroke-dasharray="3" width="212.3" height="214"/>
<path fill-rule="evenodd" clip-rule="evenodd" fill="#FFFFFF" stroke="#36CC89" stroke-width="3" stroke-miterlimit="10" d="
	M330.9,294h12.5v12.5h-12.5V294z"/>
<path fill-rule="evenodd" clip-rule="evenodd" fill="#FFFFFF" stroke="#36CC89" stroke-width="3" stroke-miterlimit="10" d="
	M118.4,294h12.5v12.5h-12.5V294z"/>
<path fill-rule="evenodd" clip-rule="evenodd" fill="#FFFFFF" stroke="#36CC89" stroke-width="3" stroke-miterlimit="10" d="
	M118.4,80.5h12.5V93h-12.5V80.5z"/>
<path fill-rule="evenodd" clip-rule="evenodd" fill="#FFFFFF" stroke="#36CC89" stroke-width="3" stroke-miterlimit="10" d="
	M330.9,80.5h12.5V93h-12.5V80.5z"/>
<path fill-rule="evenodd" clip-rule="evenodd" d="M230.4,93.5c54.7,0,99,45.2,99,101c0,55.8-44.3,101-99,101c-54.7,0-99-45.2-99-101
	C131.4,138.7,175.7,93.5,230.4,93.5z"/>
<g>
	<path fill="#EACF1A" d="M909.9-534.2l0-0.5c0.1-3.1,0.9-6.1,2.4-8.9c1.4-2.5,3.1-4.6,5.1-6.2c2-1.6,4-2.3,6-2.3
		c1.5,0,2.6,0.5,3.5,1.5c0.7,0.9,1.1,2,1.1,3.2c0,1.5-0.6,3-1.7,4.5c-0.7,0.9-1.3,1.5-2.1,1.9c-0.3,0.2-0.7,0.3-1,0.3
		c-0.3,0-0.6-0.1-0.8-0.2s-0.5-0.3-0.7-0.5c-0.4-0.4-0.6-0.8-0.6-1.1c0-0.3,0.1-0.6,0.3-0.7c1.7-1.2,2.9-2.5,3.5-3.8
		c0.2-0.5,0.4-1,0.4-1.5c0-1-0.5-1.5-1.4-1.5c-1.5,0-3.1,0.8-4.7,2.5c-1.5,1.5-2.8,3.4-3.8,5.7c-1.1,2.4-1.6,4.5-1.7,6.5l0,0.6
		c0,2.4,0.5,3.9,1.5,4.6c0.4,0.3,0.8,0.4,1.3,0.4c0.5,0,1-0.1,1.4-0.2s0.9-0.3,1.3-0.5c0.7-0.4,1.6-1,2.7-1.9
		c0.3-0.3,0.6-0.2,0.8,0.1c0.2,0.3,0.3,0.6,0.3,0.9c0,0.6-0.1,1-0.2,1.2c-0.2,0.2-0.4,0.5-0.8,0.8s-0.9,0.6-1.4,0.8
		c-1.3,0.6-2.6,0.9-3.9,0.9c-1.3,0-2.3-0.2-3.1-0.5c-0.8-0.3-1.4-0.8-2-1.3C910.5-530.4,909.9-532.1,909.9-534.2z"/>
	<path fill="#EACF1A" d="M926.8-527.9c-0.2-0.2-0.4-0.3-0.5-0.5c-0.1-0.2-0.2-0.4-0.2-0.5c0-0.1,0-0.3,0.1-0.5
		c0.1-0.2,0.2-0.5,0.3-0.7c2.1-5.3,3.2-8.8,3.2-10.6c0-0.5-0.2-0.9-0.5-1.1l-0.3-0.2c-0.1-0.1-0.1-0.2-0.1-0.4
		c0-0.2,0.1-0.4,0.2-0.5c0.1-0.2,0.3-0.3,0.5-0.4c0.5-0.2,0.9-0.4,1.4-0.4s0.9,0.1,1.1,0.2s0.5,0.2,0.7,0.4c0.4,0.4,0.6,0.8,0.6,1.2
		c0,0.4,0,0.8-0.1,1.3c-0.1,0.4-0.2,0.9-0.4,1.3s-0.3,0.8-0.4,1.2c-0.1,0.4-0.2,0.6-0.3,0.8c-0.1,0.4-0.1,0.6-0.1,0.7
		c0.3-0.2,0.4-0.4,0.5-0.6l0.6-1.2c1.4-2.5,2.7-4.1,4-4.9c0.4-0.2,0.8-0.3,1.4-0.3s1,0.2,1.3,0.6c0.3,0.4,0.5,0.8,0.5,1.2
		c0,0.5,0,0.8-0.1,1.1c-0.1,0.3-0.2,0.6-0.4,0.8c-0.3,0.6-0.8,0.9-1.3,0.9c-0.1,0-0.3,0-0.4-0.1l-0.3-0.3c-0.3-0.3-0.7-0.5-1-0.5
		s-0.7,0.2-1.2,0.6s-0.9,1-1.4,1.6c-1.7,2.2-3,4.6-4.1,7.4l-0.7,1.8c-0.2,0.5-0.3,0.8-0.5,1c-0.1,0.2-0.3,0.3-0.6,0.3
		s-0.5,0-0.8-0.1S927-527.8,926.8-527.9z"/>
	<path fill="#EACF1A" d="M941.3-528.6c-0.4-0.4-0.8-1-1-1.6c-0.3-0.6-0.4-1.4-0.4-2.3c0-0.9,0.1-1.8,0.3-2.7c0.2-0.9,0.5-1.8,1-2.6
		c0.4-0.8,0.9-1.6,1.5-2.4c0.6-0.7,1.2-1.4,1.9-1.9c1.5-1.2,3.1-1.8,4.8-1.8c2.2,0,3.6,1,4.4,2.8c0.5,1.4,0.6,3,0.1,5
		c-0.4,1.8-1.2,3.4-2.4,4.9c-1.2,1.5-2.5,2.6-4.1,3.2c-0.8,0.3-1.6,0.5-2.4,0.5c-0.8,0-1.5-0.1-2.1-0.3S941.8-528.2,941.3-528.6z
		 M944.3-536.3c-0.3,0.8-0.6,1.6-0.7,2.4s-0.3,1.6-0.3,2.3c0,0.7,0.1,1.3,0.3,1.7c0.2,0.4,0.6,0.6,1,0.6c0.5,0,1-0.2,1.4-0.5
		c0.5-0.3,0.9-0.8,1.4-1.3c0.4-0.5,0.9-1.2,1.2-1.9c0.4-0.7,0.7-1.5,1-2.2c0.6-1.7,0.9-3.2,0.9-4.5c0-1.2-0.2-1.9-0.7-2.2
		c-0.2-0.1-0.5-0.2-0.8-0.2c-0.3,0-0.7,0.2-1.2,0.5s-0.9,0.7-1.3,1.3s-0.9,1.1-1.3,1.8C945-537.8,944.6-537,944.3-536.3z"/>
	<path fill="#EACF1A" d="M959.3-529.1c0,0.2-0.2,1-0.7,2.5c-0.4,1.5-0.8,2.7-1.1,3.6c-0.7,2-1.2,3.2-1.6,3.7
		c-0.3,0.4-0.8,0.6-1.3,0.6c-0.6,0-1.1-0.3-1.4-0.9c-0.1-0.2-0.1-0.4-0.1-0.6s0.2-0.6,0.5-1.3c0.8-1.7,1.9-5.1,3.3-10.2
		c0.6-2,0.9-3.4,1.1-4.1l0.5-2c0.3-1.3,0.5-2.2,0.6-2.7c0.1-0.5,0-0.8-0.1-1c-0.1-0.2-0.2-0.3-0.4-0.4c-0.1-0.1-0.3-0.2-0.4-0.3
		c-0.1-0.1-0.2-0.2-0.2-0.4s0.1-0.4,0.3-0.5c0.2-0.2,0.3-0.3,0.6-0.4c0.5-0.2,0.9-0.3,1.4-0.3s0.9,0.1,1.1,0.2
		c0.3,0.1,0.5,0.3,0.7,0.5c0.4,0.4,0.5,0.8,0.5,1.2c-0.1,0.8-0.2,1.5-0.3,2.1c1.8-2.6,3.7-3.9,5.7-3.9c1.8,0,3,0.9,3.6,2.8
		c0.2,0.7,0.3,1.4,0.3,2.4s-0.1,1.9-0.4,2.8c-0.3,0.9-0.7,1.8-1.1,2.7c-0.5,0.8-1,1.6-1.7,2.3c-0.6,0.7-1.3,1.3-2,1.9
		c-1.5,1.1-2.9,1.6-4.3,1.6S959.9-528,959.3-529.1z M961.7-535.8c-0.4,0.7-0.7,1.5-0.9,2.2c-0.2,0.7-0.4,1.4-0.4,2
		c0,0.6,0.1,1.1,0.4,1.5c0.3,0.4,0.7,0.6,1.2,0.6s1-0.1,1.5-0.4c0.5-0.3,1-0.7,1.5-1.1s0.9-1,1.3-1.7c0.4-0.6,0.8-1.3,1.1-2
		c0.7-1.6,1-3,1-4.4c0-0.8-0.1-1.3-0.3-1.8s-0.5-0.6-0.9-0.6s-0.8,0.2-1.3,0.5c-0.5,0.3-0.9,0.7-1.4,1.3s-1,1.1-1.5,1.8
		C962.5-537.2,962.1-536.5,961.7-535.8z"/>
	<path fill="#EACF1A" d="M977-529.1c0,0.2-0.2,1-0.7,2.5c-0.4,1.5-0.8,2.7-1.1,3.6c-0.7,2-1.2,3.2-1.6,3.7c-0.3,0.4-0.8,0.6-1.3,0.6
		c-0.6,0-1.1-0.3-1.4-0.9c-0.1-0.2-0.1-0.4-0.1-0.6s0.2-0.6,0.5-1.3c0.8-1.7,1.9-5.1,3.3-10.2c0.6-2,0.9-3.4,1.1-4.1l0.5-2
		c0.3-1.3,0.5-2.2,0.6-2.7c0.1-0.5,0-0.8-0.1-1c-0.1-0.2-0.2-0.3-0.4-0.4c-0.1-0.1-0.3-0.2-0.4-0.3c-0.1-0.1-0.2-0.2-0.2-0.4
		s0.1-0.4,0.3-0.5c0.2-0.2,0.3-0.3,0.6-0.4c0.5-0.2,0.9-0.3,1.4-0.3s0.9,0.1,1.1,0.2c0.3,0.1,0.5,0.3,0.7,0.5
		c0.4,0.4,0.5,0.8,0.5,1.2c-0.1,0.8-0.2,1.5-0.3,2.1c1.8-2.6,3.7-3.9,5.7-3.9c1.8,0,3,0.9,3.6,2.8c0.2,0.7,0.3,1.4,0.3,2.4
		s-0.1,1.9-0.4,2.8c-0.3,0.9-0.7,1.8-1.1,2.7c-0.5,0.8-1,1.6-1.7,2.3c-0.6,0.7-1.3,1.3-2,1.9c-1.5,1.1-2.9,1.6-4.3,1.6
		S977.7-528,977-529.1z M979.4-535.8c-0.4,0.7-0.7,1.5-0.9,2.2c-0.2,0.7-0.4,1.4-0.4,2c0,0.6,0.1,1.1,0.4,1.5
		c0.3,0.4,0.7,0.6,1.2,0.6s1-0.1,1.5-0.4c0.5-0.3,1-0.7,1.5-1.1s0.9-1,1.3-1.7c0.4-0.6,0.8-1.3,1.1-2c0.7-1.6,1-3,1-4.4
		c0-0.8-0.1-1.3-0.3-1.8s-0.5-0.6-0.9-0.6s-0.8,0.2-1.3,0.5c-0.5,0.3-0.9,0.7-1.4,1.3s-1,1.1-1.5,1.8
		C980.3-537.2,979.8-536.5,979.4-535.8z"/>
	<path fill="#EACF1A" d="M992.1-533.1c0-0.9,0.2-1.8,0.5-2.6c0.3-0.8,0.6-1.6,1.1-2.4c0.4-0.8,1-1.5,1.6-2.2s1.2-1.3,1.9-1.8
		c1.5-1.1,3-1.7,4.5-1.7c1.8,0,3,0.7,3.6,2.2c0.2,0.5,0.3,1.1,0.3,1.8c0,0.7-0.1,1.3-0.4,1.9s-0.6,1.1-1,1.6c-0.4,0.5-1,0.9-1.6,1.3
		c-0.6,0.4-1.3,0.7-2,1c-1.5,0.5-3.1,0.8-4.8,0.8c0,0.1-0.1,0.4-0.1,0.7s0,0.6,0.1,1c0.1,0.4,0.2,0.7,0.4,1c0.4,0.6,0.9,0.9,1.6,0.9
		c1.2,0,2.4-0.4,3.6-1.1c0.4-0.2,0.7-0.5,1-0.7c0.3-0.3,0.5-0.4,0.7-0.4s0.4,0.1,0.5,0.3s0.2,0.5,0.2,0.8c0,0.6-0.2,1-0.5,1.4
		c-1.3,1.3-3.3,2-5.9,2c-1.5,0-2.8-0.5-3.7-1.4C992.5-529.8,992-531.3,992.1-533.1z M1001.3-541.8c-1.1,0-2.2,0.8-3.2,2.3
		c-0.9,1.3-1.6,2.8-2.1,4.6c1.8-0.2,3.3-0.9,4.6-2.1c1.2-1.1,1.8-2.2,1.8-3.3S1002-541.8,1001.3-541.8z"/>
	<path fill="#EACF1A" d="M1007.2-527.9c-0.2-0.2-0.4-0.3-0.5-0.5c-0.1-0.2-0.2-0.4-0.2-0.5c0-0.1,0-0.3,0.1-0.5
		c0.1-0.2,0.2-0.5,0.3-0.7c2.1-5.3,3.2-8.8,3.2-10.6c0-0.5-0.2-0.9-0.5-1.1l-0.3-0.2c-0.1-0.1-0.1-0.2-0.1-0.4
		c0-0.2,0.1-0.4,0.2-0.5c0.1-0.2,0.3-0.3,0.5-0.4c0.5-0.2,0.9-0.4,1.4-0.4s0.9,0.1,1.1,0.2s0.5,0.2,0.7,0.4c0.4,0.4,0.6,0.8,0.6,1.2
		c0,0.4,0,0.8-0.1,1.3c-0.1,0.4-0.2,0.9-0.4,1.3s-0.3,0.8-0.4,1.2c-0.1,0.4-0.2,0.6-0.3,0.8c-0.1,0.4-0.1,0.6-0.1,0.7
		c0.3-0.2,0.4-0.4,0.5-0.6l0.6-1.2c1.4-2.5,2.7-4.1,4-4.9c0.4-0.2,0.8-0.3,1.4-0.3s1,0.2,1.3,0.6c0.3,0.4,0.5,0.8,0.5,1.2
		c0,0.5,0,0.8-0.1,1.1c-0.1,0.3-0.2,0.6-0.4,0.8c-0.3,0.6-0.8,0.9-1.3,0.9c-0.1,0-0.3,0-0.4-0.1l-0.3-0.3c-0.3-0.3-0.7-0.5-1-0.5
		s-0.7,0.2-1.2,0.6s-0.9,1-1.4,1.6c-1.7,2.2-3,4.6-4.1,7.4l-0.7,1.8c-0.2,0.5-0.3,0.8-0.5,1c-0.1,0.2-0.3,0.3-0.6,0.3
		s-0.5,0-0.8-0.1S1007.4-527.8,1007.2-527.9z"/>
</g>
<g>
	<path fill="#36CC89" d="M988.1-457.1l0,1.2c0.1,1.3,0.6,2.1,1.5,2.5c0.3,0.1,0.7,0.2,1.1,0.1c0.4,0,0.8-0.1,1.1-0.3
		c0.3-0.2,0.6-0.4,0.8-0.6c0.4-0.5,0.6-1.1,0.5-1.7c-0.1-0.6-0.2-1.2-0.5-1.6s-0.6-1-1.1-1.4l-1.4-1.4c-1.1-1.1-1.9-2.2-2.3-3.1
		c-0.4-1-0.7-1.9-0.7-2.7c-0.1-0.8,0-1.6,0.1-2.4c0.1-0.8,0.4-1.5,0.7-2.2c0.3-0.7,0.7-1.4,1.2-2c0.5-0.6,1-1.1,1.6-1.6
		c1.2-1,2.5-1.5,3.8-1.6c1.3-0.1,2.3,0,3.1,0.3c0.8,0.3,1.4,0.7,1.9,1.2c0.9,1,1.4,2.2,1.5,3.6c0.1,1.3-0.2,2.7-0.8,3.9
		c-0.6,1.1-1.3,1.9-2.2,2.3c-0.2,0.1-0.4,0.2-0.8,0.2c-0.3,0-0.6,0-0.8-0.1c-0.2-0.1-0.4-0.2-0.6-0.4c-0.4-0.3-0.6-0.7-0.6-1.1
		c0-0.3,0-0.5,0.2-0.6c0.8-0.5,1.4-1.2,1.9-2c0.6-0.9,0.8-1.9,0.8-2.7c0-0.9-0.3-1.5-0.8-1.9c-0.5-0.4-1.1-0.5-1.9-0.5
		c-0.8,0.1-1.4,0.3-2,0.7c-0.6,0.4-1.1,0.9-1.5,1.5c-0.8,1.3-1.2,2.8-1,4.5c0.1,1.1,0.6,2.3,1.5,3.4c0.4,0.5,0.8,1,1.2,1.5
		c0.4,0.5,0.8,1,1.2,1.5c0.9,1.2,1.3,2.3,1.4,3.3c0.1,1,0,1.9-0.3,2.6c-0.3,0.7-0.7,1.4-1.3,1.9c-1.2,1.2-2.6,1.9-4.3,2
		c-1.5,0.1-2.8-0.2-3.7-1.1c-0.7-0.7-1.1-1.5-1.2-2.3c-0.1-0.9,0.1-1.8,0.6-2.5c0.4-0.5,0.7-0.9,1.1-1
		C987.6-458.1,988-457.8,988.1-457.1z"/>
	<path fill="#36CC89" d="M1009.8-456.9c0.3,0,0.5,0.2,0.5,0.6c0,0.3,0,0.7-0.2,1c-0.2,0.6-0.7,1.3-1.6,1.9c-0.9,0.7-1.9,1.1-2.8,1.2
		c-1.7,0.1-2.8-0.5-3.4-2c-0.7-1.7-0.2-5.6,1.5-11.6c-1.2,0-1.9-0.2-2-0.5c0-0.1-0.1-0.2-0.1-0.3c0-0.1,0-0.2,0.1-0.4
		c0.1-0.2,0.2-0.3,0.3-0.5c0.3-0.3,0.7-0.5,1.1-0.5l1.2-0.1c0.9-2.7,1.6-4.3,2-4.7c0.2-0.2,0.5-0.3,0.7-0.3c0.3,0,0.5,0,0.7,0.1
		c0.2,0.1,0.4,0.1,0.5,0.3c0.4,0.3,0.6,0.6,0.6,1c0,0.2,0,0.5-0.1,0.7l-1,2.6l0.4,0c0.6-0.1,1.2-0.1,1.6-0.1l0.9-0.1
		c0.2,0,0.4-0.1,0.7-0.1s0.5,0.1,0.5,0.3c0.1,1.4-1.5,2.2-4.7,2.5l-0.1,0l-0.8,2.9c-0.9,3.4-1.3,5.7-1.2,7c0,0.4,0.1,0.6,0.3,0.8
		c0.2,0.2,0.5,0.3,1,0.2c0.5,0,0.9-0.2,1.2-0.3s0.7-0.4,0.9-0.6c0.3-0.2,0.5-0.4,0.7-0.6C1009.4-456.8,1009.6-456.9,1009.8-456.9z"
		/>
	<path fill="#36CC89" d="M1012.2-458.5c0-0.9,0-1.8,0.2-2.6c0.2-0.9,0.5-1.7,0.8-2.5c0.4-0.8,0.8-1.6,1.4-2.3c0.5-0.7,1.1-1.4,1.8-2
		c1.4-1.2,2.9-1.9,4.4-2.1c1.8-0.1,3,0.5,3.8,1.9c0.3,0.5,0.4,1.1,0.4,1.8c0,0.7,0,1.3-0.2,1.9c-0.2,0.6-0.5,1.2-0.9,1.7
		c-0.4,0.5-0.9,1-1.5,1.4c-0.6,0.4-1.2,0.8-1.9,1.1c-1.4,0.6-3,1.1-4.7,1.2c0,0.1,0,0.4,0,0.7c0,0.3,0.1,0.6,0.2,1s0.3,0.7,0.5,0.9
		c0.4,0.6,1,0.9,1.7,0.8c1.2-0.1,2.4-0.6,3.5-1.4c0.4-0.3,0.7-0.6,0.9-0.8c0.2-0.3,0.4-0.4,0.6-0.4s0.4,0.1,0.5,0.3
		c0.2,0.2,0.3,0.5,0.3,0.7c0,0.6-0.1,1-0.4,1.5c-1.2,1.4-3.1,2.3-5.7,2.5c-1.5,0.1-2.8-0.2-3.8-1.1
		C1012.9-455.3,1012.3-456.7,1012.2-458.5z M1020.6-467.9c-1.1,0.1-2.1,0.9-3,2.5c-0.7,1.4-1.3,3-1.7,4.8c1.7-0.3,3.2-1.1,4.4-2.5
		c1.1-1.2,1.6-2.4,1.5-3.4C1021.8-467.5,1021.4-468,1020.6-467.9z"/>
	<path fill="#36CC89" d="M1037.9-468.5c-0.3,0-0.8,0.4-1.3,1c-0.5,0.7-1,1.3-1.4,1.8l-1.2,1.7l-2.3,3.5c-0.5,1.2-0.9,2.2-1.2,3
		l-0.7,1.9c-0.2,0.5-0.3,0.8-0.5,1c-0.1,0.2-0.4,0.3-0.6,0.3c-0.3,0-0.5,0-0.8-0.1s-0.5-0.2-0.7-0.3c-0.4-0.3-0.7-0.7-0.7-1
		c0-0.2,0.1-0.5,0.3-1l0.5-1.3c0.2-0.4,0.3-0.9,0.5-1.5l0.7-2.2c1-3.2,1.4-5.2,1.4-6.1c0-0.5-0.2-0.8-0.6-1l-0.3-0.2
		c-0.1-0.1-0.2-0.2-0.2-0.4c0-0.2,0-0.4,0.2-0.5c0.1-0.2,0.3-0.3,0.5-0.5c0.5-0.3,0.9-0.4,1.4-0.5c0.5,0,0.8,0,1.1,0.1
		c0.3,0.1,0.5,0.2,0.7,0.4c0.4,0.3,0.6,0.7,0.7,1.1c0,0.4,0,0.8,0,1.2c-0.1,0.4-0.2,0.8-0.3,1.3s-0.2,0.8-0.4,1.3
		c-0.1,0.4-0.3,0.8-0.4,1.1l-0.3,0.7c-0.1,0.2-0.1,0.2,0,0.2c1-1.7,1.7-2.8,2-3.3l1-1.4c0.7-1,1.3-1.7,1.7-2
		c0.9-0.7,1.6-1.1,2.1-1.1s1,0,1.4,0.1c0.4,0.1,0.7,0.3,1,0.5c0.6,0.5,1,1.1,1,2c0.1,0.8,0,1.7-0.3,2.6c-0.3,0.9-0.6,1.7-0.8,2.3
		c-0.2,0.6-0.4,1.2-0.7,1.8c-0.6,1.8-0.9,3.1-0.9,3.9c0,0.4,0.3,0.5,0.9,0.5c0.4,0,0.8-0.2,1.2-0.4c0.3-0.2,0.6-0.3,0.7-0.3
		c0.2,0,0.3,0.1,0.4,0.3c0.1,0.9-0.3,1.7-1.2,2.5c-0.6,0.5-1.2,0.7-1.7,0.8c-0.5,0-1,0-1.3-0.1c-0.4-0.1-0.7-0.2-1-0.5
		c-0.7-0.5-1-1.3-1.1-2.2c-0.1-1.2,0.2-2.8,0.8-4.6c0.5-1.3,0.8-2.2,1-2.7l0.4-1.2c0.3-0.7,0.4-1.2,0.4-1.6
		C1038.7-468.3,1038.4-468.5,1037.9-468.5z"/>
	<path fill="#36CC89" d="M1045.2-461.2c-0.1-0.9,0-1.8,0.2-2.8c0.2-0.9,0.5-1.8,0.9-2.7s0.8-1.6,1.4-2.4c0.6-0.7,1.2-1.4,1.9-1.9
		c1.4-1.2,3-1.8,4.6-2c1.7-0.1,2.9,0.4,3.7,1.8c0.3,0.5,0.4,1,0.4,1.6c0,0.6,0,1.2-0.2,1.7c-0.1,0.5-0.3,1-0.6,1.4
		c-0.6,1-1.2,1.5-1.8,1.5c-0.7,0.1-1.3-0.1-1.6-0.5c-0.3-0.3-0.5-0.7-0.4-1.2c0-0.1,0.1-0.3,0.3-0.4s0.3-0.3,0.6-0.6
		c0.6-0.8,0.9-1.6,0.9-2.6c0-0.6-0.5-0.9-1.3-0.9c-0.9,0.1-1.8,0.6-2.6,1.7c-1.3,1.5-2.1,3.5-2.5,5.8c-0.3,2-0.1,3.4,0.6,4.2
		c0.5,0.5,1,0.7,1.7,0.6c1.2-0.1,2.3-0.6,3.3-1.5c0.3-0.3,0.6-0.6,0.7-0.9c0.2-0.3,0.4-0.4,0.5-0.5c0.2,0,0.3,0.1,0.5,0.2
		s0.2,0.4,0.2,0.7c0.1,0.6-0.2,1.2-0.7,1.9c-1.3,1.5-3,2.3-5,2.5c-1.7,0.1-3.1-0.2-4.1-1.1C1045.8-458,1045.3-459.4,1045.2-461.2z"
		/>
	<path fill="#36CC89" d="M1065.6-460.4c0.3,0,0.4,0.1,0.5,0.5c0,0.5-0.1,1-0.5,1.5c-0.6,0.8-1.4,1.2-2.4,1.3
		c-1.2,0.1-2.1-0.3-2.6-1.3c-0.2-0.3-0.3-0.7-0.4-1.2c0-0.5,0-1,0.1-1.7c0.1-0.6,0.3-1.3,0.5-2c0.2-0.7,0.4-1.4,0.7-2.1l0.7-2
		c0.5-1.5,0.7-2.5,0.7-3s-0.1-0.8-0.2-0.9c-0.1-0.1-0.2-0.3-0.4-0.3l-0.3-0.2c-0.1-0.1-0.2-0.2-0.2-0.4c0-0.2,0-0.4,0.2-0.5
		c0.1-0.2,0.3-0.3,0.5-0.5c0.5-0.3,1-0.4,1.6-0.5c1.5-0.1,2.3,0.2,2.4,1c0.1,0.9-0.1,2-0.5,3.3s-0.7,2.3-1,3l-0.8,2.2
		c-0.6,1.6-0.8,2.8-0.7,3.5c0,0.5,0.3,0.7,0.7,0.6c0.5,0,0.8-0.1,1-0.3C1065.4-460.3,1065.5-460.4,1065.6-460.4z M1067.4-477.6
		c-0.2,0.3-0.5,0.5-0.7,0.7c-0.3,0.2-0.6,0.3-0.9,0.4c-0.3,0.1-0.6,0-0.9-0.1c-0.3-0.1-0.6-0.3-0.8-0.5c-0.5-0.5-0.8-1-0.8-1.5
		c0-0.5,0-0.9,0.2-1.2c0.1-0.3,0.3-0.5,0.6-0.7c0.5-0.4,0.9-0.6,1.4-0.6c0.4,0,0.8,0,1,0c0.3,0,0.5,0.1,0.7,0.3
		c0.5,0.3,0.8,0.7,0.9,1.2c0,0.5,0,0.9-0.1,1.3C1067.8-478.2,1067.6-477.9,1067.4-477.6z"/>
	<path fill="#36CC89" d="M1070.5-458.5c-0.3-0.2-0.5-0.6-0.7-1c-0.2-0.4-0.3-0.9-0.4-1.5s0-1.3,0.2-2.3c0.2-1,0.4-2.1,0.7-3.3l1-4
		c1.4-5.6,2.1-9.9,2.2-12.9c0-0.9,0.4-1.4,1.2-1.4c0.5,0,0.9,0,1.2,0.2c0.6,0.4,1,0.9,1,1.5c0,0.6,0,1.3-0.1,2.1
		c-0.1,0.8-0.3,1.7-0.5,2.7c-0.2,1-0.4,2-0.7,3.1l-1.6,6.5c-0.9,3.7-1.4,6.1-1.3,7.2c0,0.6,0.3,0.8,0.8,0.8c0.4,0,0.8-0.2,1.2-0.4
		c0.3-0.2,0.6-0.3,0.7-0.3c0.2,0,0.3,0.1,0.4,0.3c0.1,0.9-0.3,1.7-1.2,2.5c-0.6,0.5-1.2,0.7-1.7,0.8c-0.5,0-1,0-1.3-0.1
		C1071.1-458,1070.8-458.2,1070.5-458.5z"/>
</g>
<g>
	<path fill="#969696" d="M1129.9-443.1c-0.1-0.3-0.2-0.7-0.2-1.2c0-0.5,0.1-1,0.2-1.6c0.1-0.6,0.3-1.3,0.5-2.1
		c0.6-1.7,1.3-3.2,2.3-4.5c0.2-0.2,0.3-0.3,0.5-0.3c0.2,0,0.4,0,0.5,0.1s0.3,0.2,0.5,0.3c0.3,0.3,0.4,0.5,0.3,0.7
		c-0.8,1.3-1.5,2.5-2,3.5c1.3-0.1,2.4-0.5,3.4-1.2c1.1-0.8,1.6-1.8,1.6-2.9c0-0.8-0.4-1.3-1.1-1.5c-0.2-0.1-0.5-0.1-0.8-0.1
		s-0.7,0-1,0.1c-0.3,0.1-0.7,0.2-1,0.3c-0.6,0.2-1.2,0.5-1.7,0.9c-0.1,0.1-0.3,0.2-0.4,0.2c-0.1,0-0.3,0-0.4-0.1
		c-0.1-0.1-0.3-0.1-0.4-0.2c-0.4-0.4-0.4-0.8,0.2-1.2c0.8-0.6,2.1-1,3.7-1.1c0.3,0,0.7,0,1.2,0s1,0.1,1.6,0.2c0.5,0.2,1,0.4,1.3,0.7
		c0.6,0.5,0.9,1.3,0.9,2.2c0,0.8-0.3,1.7-1,2.5c-0.6,0.8-1.4,1.4-2.4,1.9c0.5,0.2,0.8,0.5,1,0.9c0.2,0.4,0.3,0.8,0.3,1.2
		c0,0.4-0.1,0.8-0.3,1.2c-0.2,0.4-0.4,0.7-0.6,1c-0.3,0.3-0.6,0.5-0.9,0.8c-0.4,0.2-0.7,0.4-1.1,0.5c-0.8,0.3-1.6,0.4-2.4,0.4
		C1130.9-441.7,1130.2-442.2,1129.9-443.1z M1131.9-446.8c-0.4,1.1-0.7,2-0.7,2.8c0,0.4,0.1,0.7,0.3,0.9c0.2,0.2,0.5,0.3,0.8,0.3
		c0.4,0,0.7-0.1,1.1-0.2s0.7-0.4,1-0.6c0.7-0.6,1.1-1.3,1.1-2.1c0-0.7-0.3-1.2-0.9-1.4c-0.2-0.1-0.4-0.1-0.6-0.1
		c-0.3,0-0.6,0.1-1.1,0.2C1132.4-446.9,1132.1-446.8,1131.9-446.8z"/>
	<path fill="#969696" d="M1140-442.4c-0.2-0.2-0.4-0.5-0.6-0.9c-0.1-0.4-0.2-0.8-0.2-1.2s0.1-1,0.2-1.5c0.1-0.5,0.3-1,0.5-1.4
		c0.2-0.5,0.5-0.9,0.8-1.3c0.3-0.4,0.7-0.7,1-1c0.8-0.6,1.7-1,2.6-1c1.2,0,2,0.5,2.4,1.6c0.3,0.7,0.3,1.7,0.1,2.7
		c-0.2,1-0.7,1.9-1.3,2.7c-0.6,0.8-1.4,1.4-2.2,1.7c-0.4,0.2-0.9,0.3-1.3,0.3s-0.8-0.1-1.1-0.2S1140.2-442.1,1140-442.4z
		 M1141.6-446.5c-0.2,0.4-0.3,0.9-0.4,1.3c-0.1,0.4-0.1,0.9-0.1,1.3c0,0.4,0.1,0.7,0.2,0.9c0.1,0.2,0.3,0.3,0.6,0.3s0.5-0.1,0.8-0.3
		c0.3-0.2,0.5-0.4,0.7-0.7c0.2-0.3,0.5-0.6,0.7-1s0.4-0.8,0.6-1.2c0.3-0.9,0.5-1.7,0.5-2.5c0-0.6-0.1-1-0.4-1.2
		c-0.1-0.1-0.2-0.1-0.4-0.1c-0.2,0-0.4,0.1-0.6,0.3c-0.2,0.2-0.5,0.4-0.7,0.7c-0.2,0.3-0.5,0.6-0.7,1S1141.8-447,1141.6-446.5z"/>
	<path fill="#969696" d="M1148.6-442c-0.2,0.2-0.4,0.3-0.6,0.3s-0.2,0-0.3-0.1c-0.1,0-0.2-0.1-0.2-0.1c-0.2-0.1-0.3-0.3-0.3-0.4
		c0-0.1,0.1-0.2,0.2-0.3l0.5-0.4c0.9-0.8,1.7-1.6,2.3-2.5c-0.5-1.4-0.7-2.6-0.7-3.5c0-0.5,0.2-0.9,0.6-1.2c0.3-0.3,0.7-0.4,1.1-0.4
		c0.1,0,0.2,0,0.2,0.1c0,0.1,0.1,0.2,0.1,0.3s0,0.3,0,0.5c0,0.2,0,0.3,0,0.5c0,0.2,0,0.4,0,0.6c0.1,0.6,0.1,1,0.2,1.4l0.3-0.5
		c0.7-1,1.4-1.9,2.3-2.5c0.5-0.3,0.9-0.5,1.3-0.5c0.3,0,0.6,0,0.7,0.1c0.3,0.2,0.4,0.3,0.3,0.5c0,0-0.1,0.1-0.1,0.1l-0.2,0.1
		c-0.9,0.4-2.1,1.4-3.5,2.9c-0.3,0.3-0.5,0.6-0.8,0.9l0.3,1c0.4,1.2,0.8,1.8,1.3,1.8c0.2,0,0.4,0,0.5-0.1l0.3-0.1c0.1,0,0.1,0,0.2,0
		c0.1,0,0.2,0.1,0.2,0.2c0,0.5-0.3,0.9-0.8,1.3c-0.3,0.2-0.7,0.3-1.2,0.3c-0.8,0-1.6-0.9-2.3-2.6
		C1149.9-443.2,1149.2-442.5,1148.6-442z"/>
</g>
<g>
	<path fill="#C9E2A8" d="M1221-405c0.7,1,2.5,1.9,5.4,2.9c1.7,0.6,3.2,1,4.6,1.2c0.4,0.1,0.7,0.1,0.9,0.1c0-0.2-0.1-0.4-0.2-0.6
		l-0.4-0.6c-0.1-0.2,0-0.4,0.2-0.7c0.2-0.3,0.4-0.4,0.6-0.4c0.2,0,0.3,0.1,0.4,0.3c0.1,0.2,0.2,0.4,0.3,0.6c0.2,0.5,0.2,0.8,0.2,1.1
		c0,0.3,0,0.6-0.1,0.8c0,0.2-0.1,0.4-0.2,0.6c-0.3,0.4-0.6,0.7-1.1,0.7c-0.8,0-2.2-0.3-4.2-0.8c-3.1-0.9-5.3-2-6.6-3.2
		c-0.3-0.3-0.6-0.7-0.7-1.1c0-0.1-0.1-0.2-0.1-0.3c0-0.1,0-0.2,0.1-0.3c0-0.1,0.1-0.2,0.1-0.2c0.1-0.1,0.2-0.2,0.3-0.2
		S1221-405.1,1221-405z"/>
	<path fill="#C9E2A8" d="M1227.3-392.5c0-0.3-0.5-0.9-1.4-1.8c-0.7-0.6-1.3-1.1-1.6-1.4l-0.9-0.7c-0.6-0.3-1.1-0.6-1.5-0.8l-1-0.4
		c-0.2-0.1-0.4-0.2-0.5-0.3c-0.1-0.1-0.1-0.2-0.1-0.3c0-0.1,0-0.3,0.1-0.4c0.1-0.1,0.1-0.3,0.2-0.4c0.2-0.2,0.4-0.3,0.6-0.3
		c0.1,0,0.2,0.1,0.5,0.2l0.7,0.3c0.2,0.1,0.5,0.2,0.8,0.3l1.1,0.5c1.6,0.7,2.7,1,3.2,1c0.3,0,0.4-0.1,0.6-0.2l0.1-0.2
		c0-0.1,0.1-0.1,0.2-0.1c0.1,0,0.2,0,0.3,0.1c0.1,0.1,0.2,0.2,0.2,0.3c0.1,0.2,0.2,0.5,0.2,0.8c0,0.3,0,0.4-0.1,0.6
		s-0.1,0.3-0.2,0.4c-0.2,0.2-0.4,0.3-0.6,0.3s-0.4,0-0.6-0.1c-0.2-0.1-0.4-0.1-0.6-0.2c-0.2-0.1-0.4-0.2-0.6-0.3
		c-0.5-0.2-0.8-0.4-0.9-0.4c-0.1-0.1-0.1-0.1-0.1,0c1.3,1,2.1,1.6,2.3,1.8c0.5,0.4,0.8,0.8,1,1c0.3,0.4,0.5,0.9,0.5,1.2
		c0,0.4-0.1,0.7-0.4,0.9s-0.6,0.3-1,0.3c-0.3,0-0.8-0.1-1.2-0.3s-0.8-0.3-1-0.4l1.6,1.2l0.8,0.7c0.5,0.4,0.8,0.8,0.9,1.1
		s0.2,0.6,0.2,0.8c0,0.2,0,0.4-0.1,0.6c-0.1,0.2-0.2,0.4-0.3,0.5c-0.3,0.3-0.6,0.4-1.1,0.4c-0.4,0-0.9-0.1-1.3-0.3s-0.8-0.4-1.1-0.5
		c-0.3-0.1-0.6-0.3-0.9-0.4c-0.9-0.4-1.5-0.6-2-0.6c-0.3,0-0.4,0.1-0.4,0.4c0,0.2,0,0.4,0.1,0.6c0.1,0.2,0.1,0.3,0.1,0.4
		c0,0.1-0.1,0.2-0.2,0.2c-0.5,0-0.9-0.3-1.2-0.8c-0.2-0.3-0.3-0.6-0.3-0.9c0-0.3,0-0.5,0.1-0.7s0.2-0.3,0.3-0.5
		c0.3-0.3,0.7-0.5,1.2-0.5s0.9,0.1,1.3,0.2s0.8,0.3,1.2,0.4c0.4,0.2,0.7,0.3,1,0.5c0.3,0.2,0.6,0.3,0.8,0.4c0.4,0.2,0.7,0.3,0.9,0.3
		c0.2,0,0.3-0.1,0.3-0.3c0-0.3-0.5-0.8-1.5-1.6c-0.8-0.6-1.3-1-1.7-1.2l-0.8-0.6c-0.6-0.3-1.1-0.6-1.5-0.7l-1-0.4
		c-0.2-0.1-0.4-0.2-0.5-0.3c-0.1-0.1-0.1-0.2-0.1-0.3s0-0.3,0.1-0.4c0-0.1,0.1-0.2,0.2-0.3c0.2-0.2,0.3-0.3,0.5-0.3
		c0.2,0,0.4,0.1,0.7,0.2c0.3,0.1,0.7,0.3,1,0.4l2.5,1.2c0.9,0.4,1.5,0.6,1.7,0.6C1227.2-392.1,1227.3-392.3,1227.3-392.5z
		 M1225-391.7C1225-391.7,1225-391.6,1225-391.7L1225-391.7C1225-391.7,1225-391.7,1225-391.7z"/>
	<path fill="#C9E2A8" d="M1222.5-378.5c-0.5,0-0.8,0.2-0.8,0.5c0,0.2,0,0.5,0.1,0.6c0.1,0.2,0.1,0.3,0.1,0.3c0,0.1-0.1,0.2-0.2,0.2
		c-0.5,0-0.9-0.2-1.2-0.7c-0.4-0.5-0.4-1.1-0.3-1.6c0.1-0.4,0.4-0.6,0.8-0.8c0.2-0.1,0.4-0.1,0.6-0.1c0.3,0,0.6,0,0.9,0.1
		c-1.1-0.5-1.8-1.2-2.2-1.9c-0.2-0.3-0.2-0.6-0.2-1s0.1-0.6,0.2-0.9c0.1-0.3,0.3-0.5,0.6-0.6c0.5-0.4,1.2-0.5,2-0.5
		c1,0,2,0.3,2.9,0.9c0.9,0.5,1.6,1.1,2.2,1.9c0.6,0.8,0.9,1.5,0.9,2.2s-0.3,1.2-0.9,1.6c0.6,0.4,0.9,0.7,0.9,1
		c0,0.3-0.1,0.6-0.2,0.7c-0.2,0.3-0.4,0.4-0.6,0.3c-2.8-1.4-4.6-2.1-5.3-2.1C1222.7-378.5,1222.6-378.5,1222.5-378.5z M1222.4-383.1
		c-0.7,0-1,0.2-1,0.6c0,0.3,0.3,0.7,0.8,1.2c0.8,0.7,1.9,1.3,3.3,1.9c0.4,0.2,0.9,0.3,1.3,0.4c0.4,0,0.7-0.2,0.8-0.5
		c0.1-0.1,0.1-0.2,0.1-0.4c0-0.2-0.1-0.4-0.2-0.7c-0.1-0.3-0.3-0.5-0.6-0.8c-0.2-0.2-0.5-0.5-0.9-0.7c-0.3-0.2-0.7-0.4-1.1-0.6
		C1224.1-382.9,1223.3-383.1,1222.4-383.1z"/>
	<path fill="#C9E2A8" d="M1222.1-370.8c-1.3-0.8-1.9-1.8-1.9-2.8c0-0.9,0.5-1.5,1.5-1.9c0.3-0.1,0.8-0.2,1.2-0.2s1,0.1,1.5,0.2
		c0.5,0.1,1,0.3,1.4,0.6s0.9,0.5,1.2,0.9c0.4,0.3,0.7,0.7,1,1.1c0.6,0.8,0.9,1.6,0.9,2.3s-0.4,1.3-1.1,1.7c0.1,0.1,0.1,0.1,0.2,0.2
		c0.1,0.1,0.1,0.1,0.2,0.2c0.1,0.1,0.2,0.3,0.2,0.4c0,0.1,0,0.2-0.1,0.3c0,0.1-0.1,0.2-0.2,0.3c-0.2,0.3-0.3,0.4-0.4,0.3
		c-0.7-0.3-1.3-0.6-1.9-0.8l-3.9-1.2c-3-1-4.9-2.2-5.8-3.7c-0.2-0.4-0.4-0.7-0.4-1c0-0.3,0-0.5,0-0.6s0.1-0.2,0.1-0.3
		c0.1-0.2,0.3-0.3,0.4-0.3c0.2,0,0.3,0.1,0.4,0.4c0,0.3,0.1,0.5,0.3,0.8c0.2,0.3,0.4,0.6,0.6,0.8
		C1218.5-372.1,1220-371.4,1222.1-370.8z M1225-373.3c-0.4-0.1-0.8-0.3-1.2-0.3c-0.4-0.1-0.8-0.1-1-0.1s-0.5,0-0.6,0s-0.3,0-0.4,0.1
		c-0.2,0.1-0.3,0.3-0.3,0.5s0.1,0.4,0.2,0.6c0.2,0.2,0.4,0.4,0.6,0.7s0.6,0.5,0.9,0.7s0.7,0.5,1.2,0.7c0.9,0.5,1.8,0.8,2.6,1
		c0.2,0,0.3-0.1,0.5-0.3c0.3-0.3,0.5-0.6,0.5-0.9s-0.1-0.5-0.2-0.8c-0.2-0.3-0.4-0.5-0.6-0.7c-0.3-0.2-0.6-0.4-0.9-0.6
		C1225.7-373,1225.4-373.2,1225-373.3z"/>
	<path fill="#C9E2A8" d="M1223.2-366.6c0.5,0,0.9,0.1,1.4,0.2c0.4,0.1,0.9,0.3,1.3,0.6c0.4,0.2,0.8,0.5,1.2,0.8c0.4,0.3,0.7,0.7,1,1
		c0.6,0.8,0.9,1.6,0.9,2.4c0,0.9-0.4,1.6-1.2,1.9c-0.3,0.1-0.6,0.2-0.9,0.2c-0.4,0-0.7-0.1-1-0.2c-0.3-0.1-0.6-0.3-0.8-0.6
		c-0.3-0.2-0.5-0.5-0.7-0.8c-0.2-0.3-0.4-0.7-0.5-1.1c-0.3-0.8-0.4-1.6-0.4-2.5c-0.1,0-0.2,0-0.3,0s-0.3,0-0.5,0
		c-0.2,0-0.4,0.1-0.5,0.2c-0.3,0.2-0.5,0.5-0.5,0.9c0,0.6,0.2,1.3,0.6,1.9c0.1,0.2,0.3,0.4,0.4,0.5c0.1,0.1,0.2,0.3,0.2,0.4
		s-0.1,0.2-0.2,0.3c-0.1,0.1-0.3,0.1-0.4,0.1c-0.3,0-0.5-0.1-0.8-0.2c-0.7-0.7-1-1.7-1-3.1c0-0.8,0.2-1.5,0.7-2
		C1221.5-366.4,1222.2-366.7,1223.2-366.6z M1227.8-361.8c0-0.6-0.4-1.1-1.2-1.7c-0.7-0.5-1.5-0.8-2.4-1.1c0.1,0.9,0.5,1.7,1.1,2.4
		c0.6,0.6,1.2,0.9,1.7,0.9S1227.8-361.4,1227.8-361.8z"/>
	<path fill="#C9E2A8" d="M1235.4-344.2c0,0.2-0.1,0.3-0.3,0.3c-0.1,0-0.3-0.1-0.5-0.4l-0.5-0.7c-0.2-0.2-0.3-0.4-0.5-0.6
		c-0.8-0.8-1.5-1.4-2.2-1.9s-1.4-0.9-2-1.2c-0.6-0.3-1.3-0.6-2.1-0.9c-1.6-0.6-3.3-0.8-5-0.8c-1.3,0-2.5,0.2-3.5,0.6
		c-0.9,0.4-1.6,0.8-1.9,1.3c-0.1,0.1-0.1,0.2-0.2,0.2c-0.1,0-0.2,0-0.2,0c-0.1,0-0.1-0.1-0.2-0.1c-0.1-0.1-0.2-0.3-0.2-0.5
		s0.1-0.4,0.2-0.7c0.2-0.3,0.4-0.5,0.7-0.7c0.3-0.2,0.6-0.5,1-0.7c0.4-0.2,0.8-0.4,1.3-0.6c1-0.3,2-0.5,3-0.5s1.9,0.1,2.8,0.3
		c0.9,0.2,1.7,0.4,2.4,0.7c0.8,0.3,1.5,0.6,2.2,1s1.3,0.8,1.9,1.2c1,0.8,1.9,1.6,2.6,2.5C1235-345.5,1235.4-344.7,1235.4-344.2z"/>
	<path fill="#C9E2A8" d="M1218.4-346.3c0.1,0,0.3,0.1,0.7,0.3c0.3,0.2,0.8,0.4,1.3,0.6c0.5,0.2,1.1,0.4,1.7,0.6s1.2,0.4,1.9,0.6
		l2.2,0.6l-0.2-0.9c0-0.2,0.1-0.4,0.3-0.5c0.1,0,0.1,0,0.2,0s0.2,0.1,0.3,0.2c0.1,0.1,0.2,0.3,0.3,0.5c0.2,0.4,0.4,0.8,0.5,1.2
		l0.2,0.1c0.5,0.1,0.9,0.3,1.4,0.4c0.5,0.1,1,0.3,1.5,0.4c0.5,0.2,0.9,0.3,1.4,0.5c0.4,0.2,0.8,0.4,1.1,0.7c0.7,0.6,1,1.3,1,2.2
		c0,0.6-0.2,1.2-0.5,1.5s-0.8,0.6-1.4,0.6c-0.6,0-1.1-0.2-1.6-0.5c-0.4-0.3-0.6-0.6-0.6-1c0-0.4,0.2-0.8,0.6-0.9
		c0.1,0,0.2-0.1,0.3-0.1c0.1,0,0.2,0.1,0.3,0.2c0.2,0.3,0.5,0.5,0.9,0.6c0.1,0,0.2,0.1,0.4,0.1c0.5,0,0.7-0.2,0.7-0.5
		c0-0.5-0.6-0.9-1.7-1.3c-0.3-0.1-0.7-0.2-1.1-0.4l-2.6-0.8c0.1,0.5,0.1,0.9,0.1,1.1c0,0.2,0,0.4-0.1,0.6c-0.1,0.2-0.1,0.3-0.2,0.5
		c-0.2,0.3-0.5,0.5-0.8,0.5s-0.5-0.2-0.5-0.5l0-1.1c0-0.6,0-1.1-0.1-1.6l-2.4-0.7c-1.6-0.4-2.8-0.8-3.6-1.1
		c-0.7-0.3-1.4-0.6-1.9-0.8c-0.5-0.2-0.7-0.6-0.7-1.1S1218.1-346.3,1218.4-346.3z"/>
	<path fill="#C9E2A8" d="M1221.8-335.9c0,0.1-0.1,0.2-0.3,0.2c-0.2,0-0.5-0.1-0.8-0.3c-0.4-0.3-0.6-0.8-0.6-1.3
		c0-0.6,0.3-1.1,0.8-1.3c0.2-0.1,0.4-0.1,0.7-0.1s0.5,0,0.9,0.1c0.3,0.1,0.7,0.2,1,0.3c0.4,0.1,0.7,0.3,1.1,0.4l1,0.4
		c0.8,0.3,1.3,0.5,1.5,0.5s0.4,0,0.5-0.1c0.1-0.1,0.1-0.1,0.2-0.2l0.1-0.2c0-0.1,0.1-0.1,0.2-0.1c0.1,0,0.2,0,0.3,0.1
		c0.1,0.1,0.2,0.2,0.2,0.3c0.1,0.2,0.2,0.5,0.2,0.9c0,0.8-0.2,1.2-0.6,1.2c-0.5,0-1.1-0.1-1.7-0.4c-0.6-0.3-1.2-0.5-1.5-0.7
		l-1.1-0.5c-0.8-0.4-1.4-0.5-1.8-0.5c-0.2,0-0.4,0.1-0.4,0.4c0,0.2,0,0.4,0.1,0.5S1221.8-335.9,1221.8-335.9z M1230.8-334.2
		c-0.1-0.1-0.2-0.3-0.3-0.4c-0.1-0.2-0.1-0.3-0.1-0.5c0-0.2,0-0.3,0.1-0.5c0.1-0.2,0.2-0.3,0.3-0.4c0.3-0.2,0.6-0.4,0.8-0.4
		s0.5,0,0.6,0.1c0.1,0.1,0.3,0.2,0.3,0.3c0.2,0.3,0.3,0.5,0.3,0.8c0,0.2,0,0.4,0,0.5c0,0.1-0.1,0.3-0.2,0.4
		c-0.2,0.3-0.4,0.4-0.7,0.4c-0.3,0-0.5,0-0.7-0.1C1231.1-334,1230.9-334.1,1230.8-334.2z"/>
	<path fill="#C9E2A8" d="M1222.4-329c0,0.2-0.1,0.2-0.3,0.2c-0.2,0-0.4-0.1-0.5-0.2c-0.3-0.1-0.6-0.4-0.9-0.9
		c-0.3-0.5-0.5-1-0.5-1.5c0-0.9,0.4-1.5,1.2-1.7c0.9-0.3,3,0.1,6,1.3c0.1-0.6,0.2-1,0.3-1c0,0,0.1,0,0.2,0c0.1,0,0.1,0,0.2,0.1
		c0.1,0.1,0.2,0.1,0.2,0.2c0.2,0.2,0.2,0.4,0.2,0.6v0.7c1.4,0.6,2.2,1,2.4,1.3c0.1,0.1,0.1,0.3,0.1,0.4s0,0.3-0.1,0.4
		s-0.1,0.2-0.2,0.3c-0.2,0.2-0.4,0.3-0.6,0.3c-0.1,0-0.2,0-0.4-0.1l-1.3-0.6v0.2c0,0.3,0,0.6,0,0.8l0,0.5c0,0.1,0,0.2,0,0.4
		c0,0.2-0.1,0.2-0.2,0.2c-0.7,0-1.1-0.9-1.1-2.6v-0.1l-1.5-0.6c-1.7-0.6-2.9-1-3.6-1c-0.2,0-0.3,0-0.5,0.1c-0.1,0.1-0.2,0.3-0.2,0.5
		s0,0.5,0.1,0.7s0.2,0.4,0.3,0.5c0.1,0.1,0.2,0.3,0.3,0.4C1222.4-329.1,1222.4-329,1222.4-329z"/>
	<path fill="#C9E2A8" d="M1222.4-322.9c0,0.2-0.1,0.2-0.3,0.2c-0.2,0-0.4-0.1-0.5-0.2c-0.3-0.1-0.6-0.4-0.9-0.9
		c-0.3-0.5-0.5-1-0.5-1.5c0-0.9,0.4-1.5,1.2-1.7c0.9-0.3,3,0.1,6,1.3c0.1-0.6,0.2-1,0.3-1c0,0,0.1,0,0.2,0c0.1,0,0.1,0,0.2,0.1
		c0.1,0.1,0.2,0.1,0.2,0.2c0.2,0.2,0.2,0.4,0.2,0.6v0.7c1.4,0.6,2.2,1,2.4,1.3c0.1,0.1,0.1,0.3,0.1,0.4s0,0.3-0.1,0.4
		s-0.1,0.2-0.2,0.3c-0.2,0.2-0.4,0.3-0.6,0.3c-0.1,0-0.2,0-0.4-0.1l-1.3-0.6v0.2c0,0.3,0,0.6,0,0.8l0,0.5c0,0.1,0,0.2,0,0.4
		c0,0.2-0.1,0.2-0.2,0.2c-0.7,0-1.1-0.9-1.1-2.6v-0.1l-1.5-0.6c-1.7-0.6-2.9-1-3.6-1c-0.2,0-0.3,0-0.5,0.1c-0.1,0.1-0.2,0.3-0.2,0.5
		s0,0.5,0.1,0.7s0.2,0.4,0.3,0.5c0.1,0.1,0.2,0.3,0.3,0.4C1222.4-323,1222.4-322.9,1222.4-322.9z"/>
	<path fill="#C9E2A8" d="M1223.2-321.5c0.5,0,0.9,0.1,1.4,0.2c0.4,0.1,0.9,0.3,1.3,0.6c0.4,0.2,0.8,0.5,1.2,0.8c0.4,0.3,0.7,0.7,1,1
		c0.6,0.8,0.9,1.6,0.9,2.4c0,0.9-0.4,1.6-1.2,1.9c-0.3,0.1-0.6,0.2-0.9,0.2c-0.4,0-0.7-0.1-1-0.2c-0.3-0.1-0.6-0.3-0.8-0.6
		c-0.3-0.2-0.5-0.5-0.7-0.8c-0.2-0.3-0.4-0.7-0.5-1.1c-0.3-0.8-0.4-1.6-0.4-2.5c-0.1,0-0.2,0-0.3,0s-0.3,0-0.5,0
		c-0.2,0-0.4,0.1-0.5,0.2c-0.3,0.2-0.5,0.5-0.5,0.9c0,0.6,0.2,1.3,0.6,1.9c0.1,0.2,0.3,0.4,0.4,0.5c0.1,0.1,0.2,0.3,0.2,0.4
		s-0.1,0.2-0.2,0.3c-0.1,0.1-0.3,0.1-0.4,0.1c-0.3,0-0.5-0.1-0.8-0.2c-0.7-0.7-1-1.7-1-3.1c0-0.8,0.2-1.5,0.7-2
		C1221.5-321.3,1222.2-321.5,1223.2-321.5z M1227.8-316.7c0-0.6-0.4-1.1-1.2-1.7c-0.7-0.5-1.5-0.8-2.4-1.1c0.1,0.9,0.5,1.7,1.1,2.4
		c0.6,0.6,1.2,0.9,1.7,0.9S1227.8-316.3,1227.8-316.7z"/>
	<path fill="#C9E2A8" d="M1221.9-305.3c0,0.1-0.1,0.2-0.2,0.2c-0.5,0-0.9-0.2-1.2-0.7c-0.2-0.3-0.3-0.6-0.3-0.9c0-0.3,0-0.5,0.1-0.7
		s0.2-0.3,0.3-0.5c0.3-0.3,0.8-0.5,1.4-0.5c0.1,0,0.3,0,0.6,0.1c-0.7-0.4-1.2-0.8-1.5-1.2c-0.6-0.6-0.9-1.3-0.9-1.9
		c0-1,0.4-1.6,1.3-1.9c0.3-0.1,0.7-0.2,1.2-0.2s1,0.1,1.5,0.2s1,0.4,1.4,0.6c0.5,0.3,0.9,0.6,1.3,0.9c0.4,0.3,0.7,0.7,1,1.1
		c0.6,0.8,0.9,1.5,0.9,2.2s-0.3,1.2-0.8,1.6c3.3,1,5.2,1.7,5.8,2.2c0.2,0.2,0.4,0.4,0.4,0.6c0,0.4-0.1,0.7-0.3,0.9
		c-0.1,0.1-0.1,0.1-0.2,0.1s-0.2,0-0.4-0.1s-0.5-0.2-0.9-0.4c-1.3-0.5-2.3-0.8-2.9-1c-1.5-0.5-2.6-0.9-3.2-1l-1.5-0.5
		c-1.4-0.4-2.2-0.6-2.6-0.6s-0.6,0.1-0.6,0.4c0,0.2,0,0.4,0.1,0.6l0.1,0.3C1221.9-305.4,1221.9-305.3,1221.9-305.3z M1221.4-311
		c0,0.6,0.6,1.2,1.7,2c1.2,0.8,2.4,1.3,3.8,1.6c0.4,0,0.7-0.2,0.8-0.5c0.1-0.1,0.1-0.3,0.1-0.5c0-0.2-0.1-0.4-0.2-0.7
		c-0.1-0.3-0.3-0.5-0.6-0.8c-0.2-0.3-0.5-0.5-0.9-0.7c-0.3-0.2-0.7-0.4-1.1-0.6c-0.8-0.3-1.6-0.5-2.4-0.5
		C1221.8-311.6,1221.4-311.4,1221.4-311z"/>
	<path fill="#C9E2A8" d="M1216.1-306c0-0.2,0.1-0.3,0.3-0.3c0.1,0,0.3,0.1,0.5,0.4l0.5,0.7c0.2,0.2,0.3,0.4,0.5,0.6
		c1.2,1.2,2.6,2.3,4.2,3.2c2.2,1.1,4.5,1.7,7.1,1.7c1.3,0,2.5-0.2,3.5-0.6c0.9-0.3,1.6-0.8,1.9-1.3c0.1-0.1,0.1-0.2,0.2-0.2
		c0.1,0,0.2,0,0.2,0c0.1,0,0.1,0.1,0.2,0.1c0.1,0.1,0.2,0.3,0.2,0.5s-0.1,0.4-0.2,0.7c-0.2,0.3-0.4,0.5-0.7,0.7
		c-0.3,0.2-0.6,0.5-1,0.7c-0.4,0.2-0.8,0.4-1.3,0.6c-1,0.3-2.1,0.5-3,0.5s-1.9-0.1-2.8-0.3c-0.9-0.2-1.7-0.4-2.4-0.7
		c-0.8-0.3-1.5-0.6-2.2-1s-1.3-0.8-1.9-1.2c-1-0.8-1.9-1.6-2.6-2.5C1216.5-304.7,1216.1-305.5,1216.1-306z"/>
</g>
<g>
	<g>
		<polyline fill="none" stroke="#EACF1A" stroke-width="3" stroke-miterlimit="10" points="1246.3,-174 1246.3,-171 1243.3,-171 		
			"/>
		
			<line fill="none" stroke="#EACF1A" stroke-width="3" stroke-miterlimit="10" stroke-dasharray="6.0356,6.0356" x1="1237.3" y1="-171" x2="914.4" y2="-171"/>
		<polyline fill="none" stroke="#EACF1A" stroke-width="3" stroke-miterlimit="10" points="911.4,-171 908.4,-171 908.4,-174 		"/>
		
			<line fill="none" stroke="#EACF1A" stroke-width="3" stroke-miterlimit="10" stroke-dasharray="6.0537,6.0537" x1="908.4" y1="-180.1" x2="908.4" y2="-504"/>
		<polyline fill="none" stroke="#EACF1A" stroke-width="3" stroke-miterlimit="10" points="908.4,-507 908.4,-510 911.4,-510 		"/>
		
			<line fill="none" stroke="#EACF1A" stroke-width="3" stroke-miterlimit="10" stroke-dasharray="6.0356,6.0356" x1="917.4" y1="-510" x2="1240.3" y2="-510"/>
		<polyline fill="none" stroke="#EACF1A" stroke-width="3" stroke-miterlimit="10" points="1243.3,-510 1246.3,-510 1246.3,-507 		
			"/>
		
			<line fill="none" stroke="#EACF1A" stroke-width="3" stroke-miterlimit="10" stroke-dasharray="6.0537,6.0537" x1="1246.3" y1="-500.9" x2="1246.3" y2="-177.1"/>
	</g>
</g>
<g>
	<g>
		<line fill="none" stroke="#C9E2A8" stroke-width="2" stroke-miterlimit="10" x1="1206.7" y1="-510" x2="1206.7" y2="-508.5"/>
		
			<line fill="none" stroke="#C9E2A8" stroke-width="2" stroke-miterlimit="10" stroke-dasharray="3.018,3.018" x1="1206.7" y1="-505.5" x2="1206.7" y2="-175"/>
		<line fill="none" stroke="#C9E2A8" stroke-width="2" stroke-miterlimit="10" x1="1206.7" y1="-173.5" x2="1206.7" y2="-172"/>
	</g>
</g>
<g>
	<g>
		<line fill="none" stroke="#C9E2A8" stroke-width="2" stroke-miterlimit="10" x1="946" y1="-172" x2="946" y2="-173.5"/>
		
			<line fill="none" stroke="#C9E2A8" stroke-width="2" stroke-miterlimit="10" stroke-dasharray="3.018,3.018" x1="946" y1="-176.5" x2="946" y2="-507"/>
		<line fill="none" stroke="#C9E2A8" stroke-width="2" stroke-miterlimit="10" x1="946" y1="-508.5" x2="946" y2="-510"/>
	</g>
</g>
<g>
	<g>
		<polyline fill="none" stroke="#F2F2F2" stroke-width="2" stroke-miterlimit="10" points="1157.4,-272 1157.4,-270.5 
			1155.9,-270.5 		"/>
		
			<line fill="none" stroke="#F2F2F2" stroke-width="2" stroke-miterlimit="10" stroke-dasharray="2.9545,2.9545" x1="1152.9" y1="-270.5" x2="994.9" y2="-270.5"/>
		<polyline fill="none" stroke="#F2F2F2" stroke-width="2" stroke-miterlimit="10" points="993.4,-270.5 991.9,-270.5 991.9,-272 		
			"/>
		
			<line fill="none" stroke="#F2F2F2" stroke-width="2" stroke-miterlimit="10" stroke-dasharray="2.9545,2.9545" x1="991.9" y1="-275" x2="991.9" y2="-433"/>
		<polyline fill="none" stroke="#F2F2F2" stroke-width="2" stroke-miterlimit="10" points="991.9,-434.5 991.9,-436 993.4,-436 		
			"/>
		
			<line fill="none" stroke="#F2F2F2" stroke-width="2" stroke-miterlimit="10" stroke-dasharray="2.9545,2.9545" x1="996.3" y1="-436" x2="1154.4" y2="-436"/>
		<polyline fill="none" stroke="#F2F2F2" stroke-width="2" stroke-miterlimit="10" points="1155.9,-436 1157.4,-436 1157.4,-434.5 
					"/>
		
			<line fill="none" stroke="#F2F2F2" stroke-width="2" stroke-miterlimit="10" stroke-dasharray="2.9545,2.9545" x1="1157.4" y1="-431.5" x2="1157.4" y2="-273.5"/>
	</g>
</g>
<g>
	<g>
		<polyline fill="none" stroke="#F2F2F2" stroke-width="2" stroke-miterlimit="10" points="782.6,-242.8 782.6,-241.3 781.1,-241.3 
					"/>
		
			<line fill="none" stroke="#F2F2F2" stroke-width="2" stroke-miterlimit="10" stroke-dasharray="2.9545,2.9545" x1="778.2" y1="-241.3" x2="620.1" y2="-241.3"/>
		<polyline fill="none" stroke="#F2F2F2" stroke-width="2" stroke-miterlimit="10" points="618.6,-241.3 617.1,-241.3 617.1,-242.8 
					"/>
		
			<line fill="none" stroke="#F2F2F2" stroke-width="2" stroke-miterlimit="10" stroke-dasharray="2.9545,2.9545" x1="617.1" y1="-245.8" x2="617.1" y2="-403.9"/>
		<polyline fill="none" stroke="#F2F2F2" stroke-width="2" stroke-miterlimit="10" points="617.1,-405.3 617.1,-406.8 618.6,-406.8 
					"/>
		
			<line fill="none" stroke="#F2F2F2" stroke-width="2" stroke-miterlimit="10" stroke-dasharray="2.9545,2.9545" x1="621.6" y1="-406.8" x2="779.6" y2="-406.8"/>
		<polyline fill="none" stroke="#F2F2F2" stroke-width="2" stroke-miterlimit="10" points="781.1,-406.8 782.6,-406.8 782.6,-405.3 
					"/>
		
			<line fill="none" stroke="#F2F2F2" stroke-width="2" stroke-miterlimit="10" stroke-dasharray="2.9545,2.9545" x1="782.6" y1="-402.4" x2="782.6" y2="-244.3"/>
	</g>
</g>
<g>
	
		<circle fill="none" stroke="#36CC89" stroke-width="4" stroke-miterlimit="10" stroke-dasharray="15.7562,7.8781" cx="1074.6" cy="-353.3" r="82.7"/>
</g>
<image overflow="visible" width="297" height="320" xlink:href="C1F1131A.jpg"  transform="matrix(0.9999 0 0 0.9999 551.3757 -498.7701)">
</image>
<text transform="matrix(1 0 0 1 555.7095 -484.0835)" fill="#B9B9B9" font-family="'Courgette-Regular'" font-size="18.5219">Resize event</text>
<g>
	<path fill="#595959" d="M220,41.8c-0.6-0.1-1.3-0.1-1.9-0.1c-0.6,0-1.2,0-1.9,0.1c-0.8,2.3-1.7,4-2.7,5c-0.3,0.4-0.7,0.6-1.1,0.8
		c-0.1,0-0.2,0.1-0.3,0.1s-0.2,0-0.3-0.1c-0.1,0-0.1-0.1-0.2-0.1c-0.1-0.1-0.2-0.2-0.2-0.3s0-0.2,0.1-0.3c0.8-0.6,1.7-2.1,2.6-4.6
		c0,0-0.1,0-0.1,0c0,0-0.1,0-0.1,0c-0.1,0-0.1,0-0.2,0c-0.1,0-0.1-0.1-0.2-0.2c-0.1-0.2-0.2-0.3-0.1-0.4c0.2-0.2,0.5-0.3,1-0.5
		c0.7-2.2,1.1-3.7,1.1-4.6c-0.2,0-0.4,0.1-0.6,0.2l-0.6,0.3c-0.2,0.1-0.4,0-0.6-0.2c-0.3-0.2-0.4-0.4-0.3-0.6c0-0.3,0.5-0.5,1.3-0.7
		c0.3-0.1,0.5-0.1,0.7-0.1c0.2,0,0.3,0,0.5,0c0.2,0,0.3,0,0.4,0.1c0.5,0.1,0.8,0.3,1,0.7c0.1,0.1,0.1,0.3,0.1,0.5
		c0,0.2,0,0.4-0.1,0.7c0,0.3-0.1,0.6-0.2,0.9c-0.2,0.8-0.4,1.6-0.7,2.5c1.1-0.1,2.3-0.2,3.5-0.2h0.3l0.4-1.3
		c0.5-1.4,0.8-2.5,0.9-3.3c0.1-0.4,0.3-0.7,0.7-0.7c0.2,0,0.4,0.1,0.6,0.2c0.3,0.2,0.4,0.4,0.4,0.7c0,0.2-0.1,0.5-0.1,0.8
		c-0.1,0.3-0.2,0.7-0.3,1c-0.1,0.4-0.3,0.8-0.4,1.2l-0.5,1.3l0.2,0c0.1,0,0.2,0,0.2,0s0.1,0,0.2,0c0.1,0,0.2,0.1,0.2,0.2
		s0,0.2-0.1,0.3c-0.1,0.1-0.1,0.2-0.3,0.3c-0.3,0.2-0.6,0.4-0.9,0.4c-0.6,1.7-1,2.7-1.1,3.1c-0.1,0.4-0.2,0.6-0.2,0.8
		c0,0.3,0.1,0.4,0.3,0.4c0.2,0,0.4,0,0.5-0.1l0.3-0.1c0.1,0,0.1,0,0.2,0c0.1,0,0.2,0.1,0.2,0.2c0,0.5-0.3,0.9-0.8,1.2
		c-0.4,0.2-0.7,0.3-1.1,0.3c-0.5,0-0.9-0.2-1.1-0.7c-0.1-0.2-0.1-0.3-0.1-0.5c0-0.3,0.1-0.7,0.2-1c0.1-0.3,0.2-0.7,0.3-1.1L220,41.8
		z"/>
	<path fill="#595959" d="M229.4,45.4c0,0.5,0.2,0.7,0.5,0.7c0.2,0,0.4,0,0.6-0.1c0.2-0.1,0.3-0.1,0.3-0.1c0.1,0,0.2,0.1,0.2,0.2
		c0,0.4-0.2,0.8-0.7,1.2c-0.5,0.3-1,0.4-1.5,0.3c-0.3-0.1-0.6-0.4-0.8-0.8c-0.1-0.2-0.1-0.4-0.1-0.6c0-0.3,0-0.6,0.1-0.9
		c-0.5,1-1.1,1.7-1.8,2c-0.3,0.1-0.6,0.2-0.9,0.2c-0.3,0-0.6-0.1-0.8-0.2c-0.2-0.1-0.4-0.3-0.6-0.6c-0.3-0.5-0.5-1.1-0.5-1.8
		c0-0.9,0.3-1.8,0.8-2.7c0.5-0.8,1.1-1.5,1.8-2c0.7-0.5,1.4-0.8,2-0.8c0.6,0,1.1,0.3,1.5,0.9c0.4-0.6,0.7-0.9,1-0.9
		c0.3,0,0.5,0.1,0.7,0.2c0.3,0.2,0.4,0.4,0.3,0.5c-1.3,2.7-2,4.3-2,5C229.4,45.2,229.4,45.3,229.4,45.4z M225.1,45.5
		c0,0.6,0.2,0.9,0.6,0.9c0.3,0,0.7-0.3,1.1-0.8c0.7-0.8,1.2-1.8,1.7-3.1c0.2-0.4,0.3-0.8,0.4-1.2c0-0.4-0.2-0.6-0.4-0.8
		c-0.1-0.1-0.2-0.1-0.4-0.1c-0.2,0-0.4,0.1-0.6,0.2c-0.2,0.1-0.5,0.3-0.7,0.6c-0.2,0.2-0.4,0.5-0.6,0.8c-0.2,0.3-0.4,0.7-0.5,1
		C225.2,43.9,225.1,44.7,225.1,45.5z"/>
	<path fill="#595959" d="M237.7,40.9c-0.2,0-0.4,0.2-0.7,0.5c-0.3,0.3-0.6,0.6-0.8,0.8l-0.7,0.8l-1.3,1.6c-0.3,0.6-0.5,1-0.7,1.4
		l-0.4,0.9c-0.1,0.2-0.2,0.4-0.3,0.5c-0.1,0.1-0.2,0.1-0.3,0.1c-0.1,0-0.3,0-0.4-0.1c-0.1,0-0.2-0.1-0.3-0.2
		c-0.2-0.2-0.3-0.3-0.3-0.5c0-0.1,0.1-0.2,0.2-0.5l0.3-0.6c0.1-0.2,0.2-0.4,0.3-0.7l0.4-1.1c0.6-1.5,0.9-2.5,0.9-3
		c0-0.2-0.1-0.4-0.2-0.5l-0.2-0.1c-0.1,0-0.1-0.1-0.1-0.2c0-0.1,0-0.2,0.1-0.3c0.1-0.1,0.2-0.2,0.3-0.2c0.2-0.1,0.5-0.2,0.7-0.2
		c0.2,0,0.4,0,0.6,0.1c0.1,0.1,0.2,0.1,0.3,0.2c0.2,0.2,0.3,0.4,0.3,0.6c0,0.2,0,0.4-0.1,0.6c0,0.2-0.1,0.4-0.2,0.6
		c-0.1,0.2-0.2,0.4-0.2,0.6c-0.1,0.2-0.2,0.4-0.2,0.5l-0.2,0.3c0,0.1-0.1,0.1,0,0.1c0.6-0.8,1-1.3,1.1-1.5l0.5-0.7
		c0.4-0.5,0.7-0.8,0.9-0.9c0.5-0.3,0.8-0.5,1.1-0.5s0.5,0,0.7,0.1c0.2,0.1,0.3,0.2,0.5,0.3c0.3,0.3,0.4,0.6,0.4,1
		c0,0.4-0.1,0.8-0.3,1.3c-0.2,0.4-0.4,0.8-0.5,1.1c-0.1,0.3-0.3,0.6-0.4,0.8c-0.4,0.9-0.6,1.5-0.6,1.9c0,0.2,0.1,0.3,0.4,0.3
		c0.2,0,0.4,0,0.6-0.1s0.3-0.1,0.3-0.1c0.1,0,0.2,0.1,0.2,0.2c0,0.5-0.2,0.9-0.7,1.2c-0.3,0.2-0.6,0.3-0.9,0.3s-0.5,0-0.7-0.1
		c-0.2-0.1-0.3-0.1-0.5-0.3c-0.3-0.3-0.5-0.7-0.5-1.2c0-0.6,0.2-1.4,0.6-2.3c0.3-0.6,0.5-1,0.6-1.3l0.3-0.6c0.2-0.3,0.2-0.6,0.2-0.8
		C238.1,41,238,40.9,237.7,40.9z"/>
	<path fill="#595959" d="M248.8,45.9c0.1,0,0.2,0.1,0.2,0.2c0,0.4-0.2,0.8-0.7,1.2c-0.3,0.2-0.6,0.3-0.9,0.3s-0.5,0-0.7-0.1
		c-0.2-0.1-0.3-0.2-0.4-0.3c-0.3-0.3-0.4-0.7-0.4-1.3c0-0.1,0-0.3,0.1-0.5c-0.4,0.7-0.8,1.1-1.1,1.4c-0.6,0.6-1.2,0.8-1.8,0.8
		c-0.9,0-1.5-0.4-1.8-1.3c-0.1-0.3-0.2-0.7-0.2-1.2c0-0.5,0.1-0.9,0.2-1.4c0.1-0.5,0.3-0.9,0.6-1.4c0.2-0.4,0.5-0.8,0.8-1.2
		s0.7-0.7,1-1c0.8-0.6,1.4-0.9,2.1-0.9c0.6,0,1.1,0.3,1.5,0.8c0.9-3.1,1.6-4.9,2-5.5c0.2-0.2,0.4-0.3,0.6-0.3c0.4,0,0.6,0.1,0.8,0.3
		c0.1,0.1,0.1,0.1,0.1,0.2c0,0.1,0,0.2-0.1,0.4c-0.1,0.2-0.2,0.5-0.4,0.9c-0.5,1.2-0.8,2.1-1,2.7c-0.5,1.5-0.8,2.5-1,3l-0.4,1.4
		c-0.4,1.3-0.6,2.1-0.6,2.5c0,0.3,0.1,0.5,0.4,0.5c0.2,0,0.4,0,0.6-0.1l0.3-0.1C248.7,46,248.8,45.9,248.8,45.9z M243.5,46.4
		c0.5,0,1.2-0.5,1.8-1.6c0.7-1.1,1.2-2.3,1.5-3.5c0-0.4-0.2-0.6-0.4-0.8c-0.1-0.1-0.2-0.1-0.4-0.1c-0.2,0-0.4,0.1-0.7,0.2
		c-0.3,0.1-0.5,0.3-0.7,0.6c-0.2,0.2-0.5,0.5-0.7,0.8c-0.2,0.3-0.4,0.7-0.5,1c-0.3,0.8-0.5,1.5-0.5,2.3S243.1,46.4,243.5,46.4z"/>
	<path fill="#595959" d="M250.3,47.2c-0.1-0.1-0.2-0.3-0.3-0.5c-0.1-0.2-0.1-0.5-0.1-0.7c0-0.3,0.1-0.7,0.2-1.1
		c0.1-0.5,0.3-1,0.5-1.6l0.7-1.9c0.9-2.7,1.5-4.8,1.6-6.3c0-0.4,0.3-0.7,0.6-0.7c0.2,0,0.4,0.1,0.6,0.2c0.3,0.2,0.4,0.5,0.4,0.8
		c0,0.3-0.1,0.6-0.1,1c-0.1,0.4-0.2,0.8-0.3,1.3s-0.3,1-0.5,1.5l-1.1,3.2c-0.6,1.8-0.9,3-0.9,3.5c0,0.3,0.1,0.4,0.3,0.4
		c0.2,0,0.4,0,0.6-0.1s0.3-0.1,0.3-0.1c0.1,0,0.2,0.1,0.2,0.2c0,0.5-0.2,0.9-0.7,1.2c-0.3,0.2-0.6,0.3-0.9,0.3c-0.3,0-0.5,0-0.6-0.1
		C250.6,47.4,250.5,47.3,250.3,47.2z"/>
	<path fill="#595959" d="M254.5,44.8c0-0.5,0.1-0.9,0.2-1.3c0.1-0.4,0.3-0.8,0.5-1.2c0.2-0.4,0.5-0.8,0.8-1.1c0.3-0.3,0.6-0.6,1-0.9
		c0.7-0.6,1.5-0.8,2.3-0.8c0.9,0,1.5,0.4,1.8,1.1c0.1,0.3,0.2,0.5,0.1,0.9c0,0.3-0.1,0.7-0.2,0.9s-0.3,0.6-0.5,0.8
		c-0.2,0.2-0.5,0.4-0.8,0.6s-0.6,0.3-1,0.5c-0.7,0.3-1.5,0.4-2.4,0.4c0,0.1,0,0.2,0,0.3c0,0.1,0,0.3,0,0.5c0,0.2,0.1,0.3,0.2,0.5
		c0.2,0.3,0.5,0.5,0.8,0.5c0.6,0,1.2-0.2,1.8-0.5c0.2-0.1,0.4-0.2,0.5-0.4c0.1-0.1,0.2-0.2,0.3-0.2s0.2,0.1,0.2,0.2
		c0.1,0.1,0.1,0.2,0.1,0.4c0,0.3-0.1,0.5-0.2,0.7c-0.7,0.7-1.6,1-2.9,1c-0.8,0-1.4-0.2-1.8-0.7C254.7,46.4,254.5,45.7,254.5,44.8z
		 M259.1,40.5c-0.5,0-1.1,0.4-1.6,1.1c-0.4,0.6-0.8,1.4-1,2.3c0.9-0.1,1.6-0.4,2.3-1c0.6-0.6,0.9-1.1,0.9-1.6S259.4,40.5,259.1,40.5
		z"/>
	<path fill="#595959" d="M262,47.3c-0.1-0.1-0.2-0.2-0.3-0.3c-0.1-0.1-0.1-0.2-0.1-0.3c0-0.1,0-0.2,0-0.3c0-0.1,0.1-0.2,0.1-0.4
		c1.1-2.6,1.6-4.4,1.6-5.3c0-0.3-0.1-0.4-0.3-0.5l-0.2-0.1c0,0-0.1-0.1-0.1-0.2c0-0.1,0-0.2,0.1-0.3c0.1-0.1,0.2-0.2,0.3-0.2
		c0.2-0.1,0.5-0.2,0.7-0.2c0.2,0,0.4,0,0.6,0.1c0.1,0.1,0.2,0.1,0.3,0.2c0.2,0.2,0.3,0.4,0.3,0.6c0,0.2,0,0.4-0.1,0.6
		c0,0.2-0.1,0.4-0.2,0.6c-0.1,0.2-0.1,0.4-0.2,0.6c-0.1,0.2-0.1,0.3-0.1,0.4c0,0.2-0.1,0.3,0,0.3c0.1-0.1,0.2-0.2,0.2-0.3l0.3-0.6
		c0.7-1.2,1.3-2,2-2.4c0.2-0.1,0.4-0.2,0.7-0.2c0.3,0,0.5,0.1,0.6,0.3c0.2,0.2,0.2,0.4,0.3,0.6c0,0.2,0,0.4,0,0.6s-0.1,0.3-0.2,0.4
		c-0.2,0.3-0.4,0.4-0.6,0.4c-0.1,0-0.1,0-0.2-0.1l-0.2-0.1c-0.2-0.2-0.3-0.2-0.5-0.2c-0.2,0-0.4,0.1-0.6,0.3
		c-0.2,0.2-0.5,0.5-0.7,0.8c-0.8,1.1-1.5,2.3-2,3.7l-0.3,0.9c-0.1,0.2-0.2,0.4-0.2,0.5c-0.1,0.1-0.2,0.1-0.3,0.1s-0.3,0-0.4-0.1
		C262.2,47.5,262.1,47.4,262,47.3z"/>
	<path fill="#595959" d="M268.1,46.1c0-0.2,0-0.3,0.1-0.4c0.1-0.1,0.2-0.3,0.3-0.3c0.2-0.2,0.4-0.3,0.7-0.3c0.2,0,0.3,0.1,0.3,0.3
		c0,0.5,0.2,0.9,0.5,1.1c0.1,0.1,0.3,0.1,0.4,0.1s0.3,0,0.4,0c0.1,0,0.2-0.1,0.3-0.1c0.2-0.2,0.3-0.3,0.3-0.5c0-0.2,0-0.4-0.1-0.6
		c-0.1-0.2-0.2-0.4-0.4-0.6l-0.4-0.6c-0.6-0.8-0.9-1.6-0.9-2.3c0-0.6,0.2-1.1,0.7-1.6c0.6-0.5,1.3-0.8,2.2-0.8
		c0.8,0,1.4,0.2,1.8,0.6c0.4,0.3,0.5,0.7,0.5,1.1c0,0.4-0.2,0.7-0.5,1c-0.3,0.2-0.6,0.3-0.8,0.2c-0.1,0-0.2-0.1-0.3-0.2
		c-0.1-0.1-0.1-0.2,0-0.3c0-0.1,0.1-0.3,0.1-0.4s0-0.3-0.1-0.4c-0.1-0.1-0.1-0.2-0.2-0.3c-0.2-0.2-0.4-0.3-0.6-0.3
		c-0.2,0-0.4,0-0.5,0.1c-0.1,0-0.2,0.1-0.3,0.2c-0.2,0.2-0.3,0.4-0.3,0.7s0,0.5,0.1,0.7c0.1,0.2,0.2,0.4,0.3,0.6
		c0.1,0.2,0.3,0.4,0.4,0.6c0.2,0.2,0.3,0.4,0.4,0.6c0.3,0.5,0.5,1,0.5,1.4s-0.1,0.7-0.3,1c-0.2,0.3-0.4,0.5-0.6,0.7
		c-0.6,0.4-1.2,0.6-1.9,0.6c-0.7,0-1.2-0.2-1.6-0.5C268.3,46.8,268.1,46.5,268.1,46.1z"/>
</g>
<g>
	<path fill="#595959" d="M4,140.9l0-0.2c0.1-1.6,0.5-3,1.2-4.4c0.7-1.3,1.5-2.3,2.5-3.1c1-0.8,2-1.2,3-1.2c0.7,0,1.3,0.3,1.7,0.8
		c0.4,0.4,0.5,1,0.5,1.6c0,0.8-0.3,1.5-0.8,2.3c-0.3,0.4-0.7,0.7-1,0.9c-0.2,0.1-0.3,0.1-0.5,0.1s-0.3,0-0.4-0.1s-0.2-0.1-0.3-0.2
		c-0.2-0.2-0.3-0.4-0.3-0.5s0-0.3,0.1-0.3c0.9-0.6,1.4-1.2,1.7-1.9c0.1-0.3,0.2-0.5,0.2-0.7c0-0.5-0.2-0.8-0.7-0.8
		c-0.8,0-1.5,0.4-2.3,1.2c-0.7,0.8-1.4,1.7-1.9,2.8c-0.5,1.2-0.8,2.2-0.8,3.2l0,0.3c0,1.2,0.2,1.9,0.7,2.3c0.2,0.1,0.4,0.2,0.6,0.2
		c0.2,0,0.5,0,0.7-0.1s0.4-0.1,0.7-0.3c0.4-0.2,0.8-0.5,1.4-0.9c0.2-0.1,0.3-0.1,0.4,0.1c0.1,0.1,0.1,0.3,0.1,0.5
		c0,0.3,0,0.5-0.1,0.6c-0.1,0.1-0.2,0.2-0.4,0.4s-0.4,0.3-0.7,0.4c-0.7,0.3-1.3,0.4-1.9,0.4c-0.6,0-1.1-0.1-1.5-0.2
		c-0.4-0.2-0.7-0.4-1-0.7C4.3,142.7,4,141.9,4,140.9z"/>
	<path fill="#595959" d="M12.4,143.9c-0.1-0.1-0.2-0.2-0.3-0.3s-0.1-0.2-0.1-0.3c0-0.1,0-0.2,0-0.3c0-0.1,0.1-0.2,0.1-0.4
		c1.1-2.6,1.6-4.4,1.6-5.3c0-0.3-0.1-0.4-0.3-0.5l-0.2-0.1c0,0-0.1-0.1-0.1-0.2c0-0.1,0-0.2,0.1-0.3c0.1-0.1,0.2-0.2,0.3-0.2
		c0.2-0.1,0.5-0.2,0.7-0.2c0.2,0,0.4,0,0.6,0.1s0.2,0.1,0.3,0.2c0.2,0.2,0.3,0.4,0.3,0.6c0,0.2,0,0.4-0.1,0.6c0,0.2-0.1,0.4-0.2,0.6
		c-0.1,0.2-0.1,0.4-0.2,0.6c-0.1,0.2-0.1,0.3-0.1,0.4c0,0.2-0.1,0.3,0,0.3c0.1-0.1,0.2-0.2,0.2-0.3l0.3-0.6c0.7-1.2,1.3-2,2-2.4
		c0.2-0.1,0.4-0.2,0.7-0.2c0.3,0,0.5,0.1,0.6,0.3c0.2,0.2,0.2,0.4,0.3,0.6s0,0.4,0,0.6s-0.1,0.3-0.2,0.4c-0.2,0.3-0.4,0.4-0.6,0.4
		c-0.1,0-0.1,0-0.2-0.1l-0.2-0.1c-0.2-0.2-0.3-0.2-0.5-0.2c-0.2,0-0.4,0.1-0.6,0.3s-0.5,0.5-0.7,0.8c-0.8,1.1-1.5,2.3-2,3.7
		l-0.3,0.9c-0.1,0.2-0.2,0.4-0.2,0.5c-0.1,0.1-0.2,0.1-0.3,0.1s-0.3,0-0.4-0.1C12.6,144.1,12.5,144,12.4,143.9z"/>
	<path fill="#595959" d="M19.6,143.6c-0.2-0.2-0.4-0.5-0.5-0.8s-0.2-0.7-0.2-1.1c0-0.4,0-0.9,0.2-1.3c0.1-0.4,0.3-0.9,0.5-1.3
		c0.2-0.4,0.5-0.8,0.7-1.2s0.6-0.7,1-1c0.8-0.6,1.5-0.9,2.4-0.9c1.1,0,1.8,0.5,2.2,1.4c0.3,0.7,0.3,1.5,0,2.5
		c-0.2,0.9-0.6,1.7-1.2,2.5c-0.6,0.7-1.3,1.3-2,1.6c-0.4,0.2-0.8,0.2-1.2,0.2s-0.7,0-1-0.1C20.1,144,19.9,143.8,19.6,143.6z
		 M21.1,139.8c-0.2,0.4-0.3,0.8-0.4,1.2c-0.1,0.4-0.1,0.8-0.1,1.2c0,0.4,0.1,0.6,0.2,0.9c0.1,0.2,0.3,0.3,0.5,0.3
		c0.2,0,0.5-0.1,0.7-0.2c0.2-0.2,0.5-0.4,0.7-0.7s0.4-0.6,0.6-0.9c0.2-0.4,0.4-0.7,0.5-1.1c0.3-0.8,0.5-1.6,0.5-2.2
		c0-0.6-0.1-0.9-0.4-1.1c-0.1-0.1-0.2-0.1-0.4-0.1c-0.2,0-0.4,0.1-0.6,0.2s-0.4,0.4-0.7,0.6s-0.4,0.6-0.6,0.9S21.3,139.4,21.1,139.8
		z"/>
	<path fill="#595959" d="M28.5,143.4c0,0.1-0.1,0.5-0.3,1.2c-0.2,0.7-0.4,1.3-0.5,1.8c-0.3,1-0.6,1.6-0.8,1.8
		c-0.2,0.2-0.4,0.3-0.6,0.3c-0.3,0-0.5-0.1-0.7-0.4c0-0.1-0.1-0.2-0.1-0.3s0.1-0.3,0.2-0.7c0.4-0.9,1-2.6,1.6-5.1
		c0.3-1,0.5-1.7,0.5-2l0.3-1c0.2-0.6,0.3-1.1,0.3-1.3c0-0.2,0-0.4,0-0.5c-0.1-0.1-0.1-0.2-0.2-0.2c-0.1,0-0.1-0.1-0.2-0.1
		s-0.1-0.1-0.1-0.2c0-0.1,0.1-0.2,0.1-0.3c0.1-0.1,0.2-0.1,0.3-0.2c0.2-0.1,0.5-0.2,0.7-0.2c0.2,0,0.4,0,0.6,0.1
		c0.1,0.1,0.2,0.1,0.3,0.2c0.2,0.2,0.3,0.4,0.3,0.6c-0.1,0.4-0.1,0.7-0.2,1c0.9-1.3,1.9-1.9,2.8-1.9c0.9,0,1.5,0.5,1.8,1.4
		c0.1,0.3,0.2,0.7,0.2,1.2s-0.1,0.9-0.2,1.4s-0.3,0.9-0.6,1.3c-0.2,0.4-0.5,0.8-0.8,1.2c-0.3,0.4-0.7,0.7-1,0.9
		c-0.8,0.5-1.5,0.8-2.1,0.8C29.4,144.2,28.9,143.9,28.5,143.4z M29.7,140.1c-0.2,0.4-0.3,0.7-0.5,1.1s-0.2,0.7-0.2,1
		s0.1,0.6,0.2,0.7c0.1,0.2,0.3,0.3,0.6,0.3c0.3,0,0.5-0.1,0.8-0.2c0.3-0.1,0.5-0.3,0.7-0.6c0.2-0.2,0.5-0.5,0.7-0.8
		c0.2-0.3,0.4-0.6,0.5-1c0.3-0.8,0.5-1.5,0.5-2.2c0-0.4,0-0.7-0.1-0.9c-0.1-0.2-0.3-0.3-0.5-0.3c-0.2,0-0.4,0.1-0.6,0.2
		c-0.2,0.2-0.5,0.4-0.7,0.6c-0.2,0.3-0.5,0.6-0.7,0.9C30.1,139.3,29.9,139.7,29.7,140.1z"/>
	<path fill="#595959" d="M37.3,143.4c0,0.1-0.1,0.5-0.3,1.2c-0.2,0.7-0.4,1.3-0.5,1.8c-0.3,1-0.6,1.6-0.8,1.8
		c-0.2,0.2-0.4,0.3-0.6,0.3c-0.3,0-0.5-0.1-0.7-0.4c0-0.1-0.1-0.2-0.1-0.3s0.1-0.3,0.2-0.7c0.4-0.9,1-2.6,1.6-5.1
		c0.3-1,0.5-1.7,0.5-2l0.3-1c0.2-0.6,0.3-1.1,0.3-1.3c0-0.2,0-0.4,0-0.5c-0.1-0.1-0.1-0.2-0.2-0.2c-0.1,0-0.1-0.1-0.2-0.1
		s-0.1-0.1-0.1-0.2c0-0.1,0.1-0.2,0.1-0.3c0.1-0.1,0.2-0.1,0.3-0.2c0.2-0.1,0.5-0.2,0.7-0.2c0.2,0,0.4,0,0.6,0.1
		c0.1,0.1,0.2,0.1,0.3,0.2c0.2,0.2,0.3,0.4,0.3,0.6c-0.1,0.4-0.1,0.7-0.2,1c0.9-1.3,1.9-1.9,2.8-1.9c0.9,0,1.5,0.5,1.8,1.4
		c0.1,0.3,0.2,0.7,0.2,1.2s-0.1,0.9-0.2,1.4s-0.3,0.9-0.6,1.3c-0.2,0.4-0.5,0.8-0.8,1.2c-0.3,0.4-0.7,0.7-1,0.9
		c-0.8,0.5-1.5,0.8-2.1,0.8C38.2,144.2,37.7,143.9,37.3,143.4z M38.5,140.1c-0.2,0.4-0.3,0.7-0.5,1.1s-0.2,0.7-0.2,1
		s0.1,0.6,0.2,0.7c0.1,0.2,0.3,0.3,0.6,0.3c0.3,0,0.5-0.1,0.8-0.2c0.3-0.1,0.5-0.3,0.7-0.6c0.2-0.2,0.5-0.5,0.7-0.8
		c0.2-0.3,0.4-0.6,0.5-1c0.3-0.8,0.5-1.5,0.5-2.2c0-0.4,0-0.7-0.1-0.9c-0.1-0.2-0.3-0.3-0.5-0.3c-0.2,0-0.4,0.1-0.6,0.2
		c-0.2,0.2-0.5,0.4-0.7,0.6c-0.2,0.3-0.5,0.6-0.7,0.9C39,139.3,38.7,139.7,38.5,140.1z"/>
	<path fill="#595959" d="M44.8,141.4c0-0.5,0.1-0.9,0.2-1.3c0.1-0.4,0.3-0.8,0.5-1.2s0.5-0.8,0.8-1.1c0.3-0.3,0.6-0.6,1-0.9
		c0.7-0.6,1.5-0.8,2.3-0.8c0.9,0,1.5,0.4,1.8,1.1c0.1,0.3,0.2,0.5,0.1,0.9c0,0.3-0.1,0.7-0.2,0.9s-0.3,0.6-0.5,0.8
		c-0.2,0.2-0.5,0.4-0.8,0.6s-0.6,0.3-1,0.5c-0.7,0.3-1.5,0.4-2.4,0.4c0,0.1,0,0.2,0,0.3c0,0.1,0,0.3,0,0.5c0,0.2,0.1,0.3,0.2,0.5
		c0.2,0.3,0.5,0.5,0.8,0.5c0.6,0,1.2-0.2,1.8-0.5c0.2-0.1,0.4-0.2,0.5-0.4c0.1-0.1,0.2-0.2,0.3-0.2s0.2,0.1,0.2,0.2s0.1,0.2,0.1,0.4
		c0,0.3-0.1,0.5-0.2,0.7c-0.7,0.7-1.6,1-2.9,1c-0.8,0-1.4-0.2-1.8-0.7C45,143,44.8,142.3,44.8,141.4z M49.4,137.1
		c-0.5,0-1.1,0.4-1.6,1.1c-0.4,0.6-0.8,1.4-1,2.3c0.9-0.1,1.6-0.4,2.3-1c0.6-0.6,0.9-1.1,0.9-1.6S49.8,137.1,49.4,137.1z"/>
	<path fill="#595959" d="M60.1,142.6c0.1,0,0.2,0.1,0.2,0.2c0,0.4-0.2,0.8-0.7,1.2c-0.3,0.2-0.6,0.3-0.9,0.3s-0.5,0-0.7-0.1
		c-0.2-0.1-0.3-0.2-0.4-0.3c-0.3-0.3-0.4-0.7-0.4-1.3c0-0.1,0-0.3,0.1-0.5c-0.4,0.7-0.8,1.1-1.1,1.4c-0.6,0.6-1.2,0.8-1.8,0.8
		c-0.9,0-1.5-0.4-1.8-1.3c-0.1-0.3-0.2-0.7-0.2-1.2s0.1-0.9,0.2-1.4s0.3-0.9,0.6-1.4s0.5-0.8,0.8-1.2s0.7-0.7,1-1
		c0.8-0.6,1.4-0.9,2.1-0.9c0.6,0,1.1,0.3,1.5,0.8c0.9-3.1,1.6-4.9,2-5.5c0.2-0.2,0.4-0.3,0.6-0.3c0.4,0,0.6,0.1,0.8,0.3
		c0.1,0.1,0.1,0.1,0.1,0.2s0,0.2-0.1,0.4c-0.1,0.2-0.2,0.5-0.4,0.9c-0.5,1.2-0.8,2.1-1,2.7c-0.5,1.5-0.8,2.5-1,3l-0.4,1.4
		c-0.4,1.3-0.6,2.1-0.6,2.5s0.1,0.5,0.4,0.5c0.2,0,0.4,0,0.6-0.1l0.3-0.1C60,142.6,60.1,142.6,60.1,142.6z M54.7,143
		c0.5,0,1.2-0.5,1.8-1.6c0.7-1.1,1.2-2.3,1.5-3.5c0-0.4-0.2-0.6-0.4-0.8c-0.1-0.1-0.2-0.1-0.4-0.1c-0.2,0-0.4,0.1-0.7,0.2
		c-0.3,0.1-0.5,0.3-0.7,0.6c-0.2,0.2-0.5,0.5-0.7,0.8c-0.2,0.3-0.4,0.6-0.5,1c-0.3,0.8-0.5,1.5-0.5,2.3S54.3,143,54.7,143z"/>
	<path fill="#595959" d="M68.7,142.7c0.1,0,0.2,0.1,0.2,0.3c0,0.2-0.1,0.5-0.3,0.7c-0.3,0.4-0.7,0.5-1.3,0.5c-0.6,0-1-0.2-1.2-0.7
		c-0.1-0.2-0.1-0.4-0.1-0.6s0-0.5,0.1-0.8s0.2-0.6,0.3-0.9c0.1-0.3,0.3-0.7,0.4-1l0.4-1c0.3-0.7,0.5-1.2,0.5-1.5s0-0.4-0.1-0.5
		c0-0.1-0.1-0.1-0.2-0.2l-0.2-0.1c-0.1,0-0.1-0.1-0.1-0.2s0-0.2,0.1-0.3s0.2-0.2,0.3-0.2c0.2-0.1,0.5-0.2,0.8-0.2
		c0.8,0,1.1,0.2,1.1,0.6c0,0.5-0.1,1-0.4,1.6c-0.2,0.6-0.5,1.1-0.6,1.5l-0.5,1.1c-0.3,0.8-0.5,1.4-0.5,1.7c0,0.2,0.1,0.3,0.3,0.3
		c0.2,0,0.4,0,0.5-0.1C68.6,142.7,68.7,142.7,68.7,142.7z M70.4,134.2c-0.1,0.1-0.2,0.2-0.4,0.3c-0.1,0.1-0.3,0.1-0.5,0.1
		c-0.2,0-0.3,0-0.5-0.1c-0.1-0.1-0.3-0.2-0.4-0.3c-0.2-0.3-0.3-0.5-0.3-0.8s0-0.5,0.1-0.6s0.2-0.2,0.3-0.3c0.3-0.2,0.5-0.2,0.7-0.2
		c0.2,0,0.4,0,0.5,0c0.1,0,0.2,0.1,0.3,0.2c0.3,0.2,0.4,0.4,0.4,0.6s0,0.5-0.1,0.6S70.5,134.1,70.4,134.2z"/>
	<path fill="#595959" d="M76.6,137.5c-0.3,0-0.9,0.4-1.7,1.3c-0.6,0.7-1,1.2-1.3,1.5l-0.7,0.9c-0.3,0.6-0.5,1-0.7,1.4l-0.4,0.9
		c-0.1,0.2-0.2,0.4-0.3,0.5c-0.1,0.1-0.2,0.1-0.3,0.1c-0.1,0-0.3,0-0.4-0.1c-0.1,0-0.2-0.1-0.3-0.2c-0.2-0.2-0.3-0.3-0.3-0.5
		c0-0.1,0.1-0.2,0.2-0.5l0.3-0.6c0.1-0.2,0.2-0.4,0.3-0.7l0.4-1.1c0.6-1.5,0.9-2.5,0.9-3c0-0.2-0.1-0.4-0.2-0.5l-0.2-0.1
		c-0.1,0-0.1-0.1-0.1-0.2s0-0.2,0.1-0.3s0.2-0.2,0.3-0.2c0.2-0.1,0.5-0.2,0.7-0.2c0.2,0,0.4,0,0.6,0.1c0.1,0.1,0.3,0.1,0.4,0.2
		c0.2,0.2,0.3,0.4,0.3,0.6s0,0.4-0.1,0.6c-0.1,0.2-0.1,0.4-0.2,0.6s-0.2,0.4-0.3,0.6c-0.2,0.4-0.3,0.7-0.4,0.8c0,0.1-0.1,0.1,0,0.1
		c1-1.2,1.5-2,1.7-2.2c0.4-0.5,0.7-0.8,0.9-1c0.4-0.3,0.8-0.5,1.2-0.5s0.7,0.1,0.9,0.3s0.3,0.5,0.3,0.9c0,0.3-0.1,0.7-0.3,1.2
		c-0.2,0.4-0.3,0.8-0.3,0.9l1.1-1.5l0.6-0.8c0.4-0.4,0.7-0.7,1-0.9c0.3-0.1,0.5-0.2,0.7-0.2c0.2,0,0.4,0,0.5,0.1s0.3,0.2,0.5,0.3
		c0.3,0.3,0.4,0.6,0.4,1c0,0.4-0.1,0.8-0.3,1.3s-0.4,0.8-0.5,1.1s-0.3,0.5-0.4,0.8c-0.4,0.8-0.6,1.4-0.6,1.8c0,0.3,0.1,0.4,0.3,0.4
		c0.2,0,0.4,0,0.6-0.1s0.3-0.1,0.3-0.1c0.1,0,0.2,0.1,0.2,0.2c0,0.5-0.2,0.9-0.7,1.2c-0.3,0.2-0.6,0.3-0.9,0.3c-0.3,0-0.5,0-0.6-0.1
		c-0.2-0.1-0.3-0.2-0.4-0.3c-0.3-0.3-0.4-0.7-0.4-1.1s0.1-0.9,0.2-1.3c0.1-0.4,0.3-0.7,0.4-1.1s0.3-0.7,0.5-1
		c0.2-0.3,0.3-0.5,0.4-0.7c0.2-0.4,0.3-0.6,0.3-0.8c0-0.2-0.1-0.3-0.3-0.3c-0.3,0-0.8,0.5-1.5,1.4c-0.6,0.7-0.9,1.2-1.1,1.6
		l-0.5,0.8c-0.3,0.6-0.5,1-0.7,1.4l-0.4,0.9c-0.1,0.2-0.2,0.4-0.3,0.5c-0.1,0.1-0.2,0.1-0.3,0.1c-0.1,0-0.3,0-0.4-0.1
		c-0.1,0-0.2-0.1-0.3-0.2c-0.2-0.2-0.3-0.3-0.3-0.5s0.1-0.4,0.2-0.7c0.1-0.3,0.3-0.6,0.4-1l1.1-2.3c0.4-0.9,0.6-1.4,0.6-1.6
		S76.8,137.5,76.6,137.5z M77.4,139.7C77.4,139.7,77.4,139.7,77.4,139.7L77.4,139.7C77.4,139.7,77.4,139.7,77.4,139.7z"/>
	<path fill="#595959" d="M89.8,142.1c0,0.5,0.2,0.7,0.5,0.7c0.2,0,0.4,0,0.6-0.1c0.2-0.1,0.3-0.1,0.3-0.1c0.1,0,0.2,0.1,0.2,0.2
		c0,0.4-0.2,0.8-0.7,1.2c-0.5,0.3-1,0.4-1.5,0.3c-0.3-0.1-0.6-0.4-0.8-0.8c-0.1-0.2-0.1-0.4-0.1-0.6c0-0.3,0-0.6,0.1-0.9
		c-0.5,1-1.1,1.7-1.8,2c-0.3,0.1-0.6,0.2-0.9,0.2c-0.3,0-0.6-0.1-0.8-0.2c-0.2-0.1-0.4-0.3-0.6-0.6c-0.3-0.5-0.5-1.1-0.5-1.8
		c0-0.9,0.3-1.8,0.8-2.7c0.5-0.8,1.1-1.5,1.8-2c0.7-0.5,1.4-0.8,2-0.8c0.6,0,1.1,0.3,1.5,0.9c0.4-0.6,0.7-0.9,1-0.9
		c0.3,0,0.5,0.1,0.7,0.2c0.3,0.2,0.4,0.4,0.3,0.5c-1.3,2.7-2,4.3-2,5C89.8,141.9,89.8,141.9,89.8,142.1z M85.4,142.1
		c0,0.6,0.2,0.9,0.6,0.9c0.3,0,0.7-0.3,1.1-0.8c0.7-0.8,1.2-1.8,1.7-3.1c0.2-0.4,0.3-0.8,0.4-1.2c0-0.4-0.2-0.6-0.4-0.8
		c-0.1-0.1-0.2-0.1-0.4-0.1c-0.2,0-0.4,0.1-0.6,0.2c-0.2,0.1-0.5,0.3-0.7,0.6c-0.2,0.2-0.4,0.5-0.6,0.8c-0.2,0.3-0.4,0.7-0.5,1
		C85.6,140.5,85.4,141.3,85.4,142.1z"/>
	<path fill="#595959" d="M97,142.4c-0.8,1.2-1.7,1.8-2.6,1.8c-0.9,0-1.5-0.5-1.8-1.4c-0.1-0.3-0.2-0.7-0.2-1.2s0.1-0.9,0.2-1.4
		s0.3-0.9,0.5-1.3c0.2-0.4,0.5-0.8,0.8-1.2c0.3-0.4,0.6-0.7,1-0.9c0.7-0.5,1.5-0.8,2.2-0.8c0.7,0,1.3,0.3,1.6,1
		c0.1-0.1,0.1-0.1,0.2-0.2c0.1-0.1,0.1-0.1,0.2-0.2c0.1-0.1,0.3-0.2,0.4-0.2s0.2,0,0.3,0.1c0.1,0,0.2,0.1,0.3,0.1
		c0.3,0.2,0.4,0.3,0.3,0.4c-0.3,0.6-0.5,1.2-0.7,1.8l-1.2,3.7c-0.9,2.8-2.1,4.6-3.5,5.4c-0.4,0.2-0.7,0.3-1,0.4c-0.3,0-0.5,0-0.6,0
		c-0.1,0-0.2-0.1-0.3-0.1c-0.2-0.1-0.3-0.2-0.3-0.4c0-0.2,0.1-0.3,0.4-0.3c0.2,0,0.5-0.1,0.8-0.3c0.3-0.2,0.5-0.3,0.8-0.6
		C95.7,145.8,96.5,144.4,97,142.4z M94.7,139.7c-0.1,0.4-0.2,0.8-0.3,1.2s-0.1,0.7-0.1,1s0,0.4,0,0.6s0,0.2,0.1,0.3
		c0.1,0.2,0.3,0.3,0.5,0.3s0.4-0.1,0.6-0.2c0.2-0.1,0.4-0.3,0.6-0.6s0.4-0.5,0.7-0.9s0.4-0.7,0.6-1.1c0.4-0.9,0.7-1.7,0.9-2.5
		c0-0.1-0.1-0.3-0.3-0.4c-0.3-0.3-0.6-0.4-0.8-0.4c-0.2,0-0.5,0.1-0.7,0.2c-0.2,0.1-0.5,0.3-0.7,0.6c-0.2,0.3-0.4,0.5-0.6,0.9
		S94.8,139.3,94.7,139.7z"/>
	<path fill="#595959" d="M100.9,141.4c0-0.5,0.1-0.9,0.2-1.3c0.1-0.4,0.3-0.8,0.5-1.2s0.5-0.8,0.8-1.1c0.3-0.3,0.6-0.6,1-0.9
		c0.7-0.6,1.5-0.8,2.3-0.8c0.9,0,1.5,0.4,1.8,1.1c0.1,0.3,0.2,0.5,0.1,0.9c0,0.3-0.1,0.7-0.2,0.9s-0.3,0.6-0.5,0.8
		c-0.2,0.2-0.5,0.4-0.8,0.6s-0.6,0.3-1,0.5c-0.7,0.3-1.5,0.4-2.4,0.4c0,0.1,0,0.2,0,0.3c0,0.1,0,0.3,0,0.5c0,0.2,0.1,0.3,0.2,0.5
		c0.2,0.3,0.5,0.5,0.8,0.5c0.6,0,1.2-0.2,1.8-0.5c0.2-0.1,0.4-0.2,0.5-0.4c0.1-0.1,0.2-0.2,0.3-0.2s0.2,0.1,0.2,0.2s0.1,0.2,0.1,0.4
		c0,0.3-0.1,0.5-0.2,0.7c-0.7,0.7-1.6,1-2.9,1c-0.8,0-1.4-0.2-1.8-0.7C101.1,143,100.9,142.3,100.9,141.4z M105.5,137.1
		c-0.5,0-1.1,0.4-1.6,1.1c-0.4,0.6-0.8,1.4-1,2.3c0.9-0.1,1.6-0.4,2.3-1c0.6-0.6,0.9-1.1,0.9-1.6S105.8,137.1,105.5,137.1z"/>
	<path fill="#595959" d="M32.4,162.6c0,0.1-0.1,0.5-0.3,1.2c-0.2,0.7-0.4,1.3-0.5,1.8c-0.3,1-0.6,1.6-0.8,1.8
		c-0.2,0.2-0.4,0.3-0.6,0.3c-0.3,0-0.5-0.1-0.7-0.4c0-0.1-0.1-0.2-0.1-0.3s0.1-0.3,0.2-0.7c0.4-0.9,1-2.6,1.6-5.1
		c0.3-1,0.5-1.7,0.5-2l0.3-1c0.2-0.6,0.3-1.1,0.3-1.3c0-0.2,0-0.4,0-0.5c-0.1-0.1-0.1-0.2-0.2-0.2c-0.1,0-0.1-0.1-0.2-0.1
		s-0.1-0.1-0.1-0.2c0-0.1,0.1-0.2,0.1-0.3c0.1-0.1,0.2-0.1,0.3-0.2c0.2-0.1,0.5-0.2,0.7-0.2c0.2,0,0.4,0,0.6,0.1
		c0.1,0.1,0.2,0.1,0.3,0.2c0.2,0.2,0.3,0.4,0.3,0.6c-0.1,0.4-0.1,0.7-0.2,1c0.9-1.3,1.9-1.9,2.8-1.9c0.9,0,1.5,0.5,1.8,1.4
		c0.1,0.3,0.2,0.7,0.2,1.2s-0.1,0.9-0.2,1.4s-0.3,0.9-0.6,1.3c-0.2,0.4-0.5,0.8-0.8,1.2c-0.3,0.4-0.7,0.7-1,0.9
		c-0.8,0.5-1.5,0.8-2.1,0.8C33.2,163.4,32.7,163.1,32.4,162.6z M33.6,159.3c-0.2,0.4-0.3,0.7-0.5,1.1s-0.2,0.7-0.2,1
		s0.1,0.6,0.2,0.7c0.1,0.2,0.3,0.3,0.6,0.3c0.3,0,0.5-0.1,0.8-0.2c0.3-0.1,0.5-0.3,0.7-0.6c0.2-0.2,0.5-0.5,0.7-0.8
		c0.2-0.3,0.4-0.6,0.5-1c0.3-0.8,0.5-1.5,0.5-2.2c0-0.4,0-0.7-0.1-0.9c-0.1-0.2-0.3-0.3-0.5-0.3c-0.2,0-0.4,0.1-0.6,0.2
		c-0.2,0.2-0.5,0.4-0.7,0.6c-0.2,0.3-0.5,0.6-0.7,0.9C34,158.5,33.8,158.9,33.6,159.3z"/>
	<path fill="#595959" d="M39.8,163.1c-0.1-0.1-0.2-0.2-0.3-0.3s-0.1-0.2-0.1-0.3c0-0.1,0-0.2,0-0.3c0-0.1,0.1-0.2,0.1-0.4
		c1.1-2.6,1.6-4.4,1.6-5.3c0-0.3-0.1-0.4-0.3-0.5l-0.2-0.1c0,0-0.1-0.1-0.1-0.2c0-0.1,0-0.2,0.1-0.3c0.1-0.1,0.2-0.2,0.3-0.2
		c0.2-0.1,0.5-0.2,0.7-0.2c0.2,0,0.4,0,0.6,0.1s0.2,0.1,0.3,0.2c0.2,0.2,0.3,0.4,0.3,0.6c0,0.2,0,0.4-0.1,0.6c0,0.2-0.1,0.4-0.2,0.6
		c-0.1,0.2-0.1,0.4-0.2,0.6c-0.1,0.2-0.1,0.3-0.1,0.4c0,0.2-0.1,0.3,0,0.3c0.1-0.1,0.2-0.2,0.2-0.3l0.3-0.6c0.7-1.2,1.3-2,2-2.4
		c0.2-0.1,0.4-0.2,0.7-0.2c0.3,0,0.5,0.1,0.6,0.3c0.2,0.2,0.2,0.4,0.3,0.6s0,0.4,0,0.6s-0.1,0.3-0.2,0.4c-0.2,0.3-0.4,0.4-0.6,0.4
		c-0.1,0-0.1,0-0.2-0.1l-0.2-0.1c-0.2-0.2-0.3-0.2-0.5-0.2c-0.2,0-0.4,0.1-0.6,0.3s-0.5,0.5-0.7,0.8c-0.8,1.1-1.5,2.3-2,3.7
		l-0.3,0.9c-0.1,0.2-0.2,0.4-0.2,0.5c-0.1,0.1-0.2,0.1-0.3,0.1s-0.3,0-0.4-0.1C40,163.3,39.9,163.2,39.8,163.1z"/>
	<path fill="#595959" d="M46.4,160.6c0-0.5,0.1-0.9,0.2-1.3c0.1-0.4,0.3-0.8,0.5-1.2s0.5-0.8,0.8-1.1c0.3-0.3,0.6-0.6,1-0.9
		c0.7-0.6,1.5-0.8,2.3-0.8c0.9,0,1.5,0.4,1.8,1.1c0.1,0.3,0.2,0.5,0.1,0.9c0,0.3-0.1,0.7-0.2,0.9s-0.3,0.6-0.5,0.8
		c-0.2,0.2-0.5,0.4-0.8,0.6s-0.6,0.3-1,0.5c-0.7,0.3-1.5,0.4-2.4,0.4c0,0.1,0,0.2,0,0.3c0,0.1,0,0.3,0,0.5c0,0.2,0.1,0.3,0.2,0.5
		c0.2,0.3,0.5,0.5,0.8,0.5c0.6,0,1.2-0.2,1.8-0.5c0.2-0.1,0.4-0.2,0.5-0.4c0.1-0.1,0.2-0.2,0.3-0.2s0.2,0.1,0.2,0.2s0.1,0.2,0.1,0.4
		c0,0.3-0.1,0.5-0.2,0.7c-0.7,0.7-1.6,1-2.9,1c-0.8,0-1.4-0.2-1.8-0.7C46.6,162.2,46.4,161.5,46.4,160.6z M51,156.3
		c-0.5,0-1.1,0.4-1.6,1.1c-0.4,0.6-0.8,1.4-1,2.3c0.9-0.1,1.6-0.4,2.3-1c0.6-0.6,0.9-1.1,0.9-1.6S51.3,156.3,51,156.3z"/>
	<path fill="#595959" d="M53.9,162.6c-0.1-0.2-0.1-0.4-0.1-0.6s0-0.5,0.1-0.8c0.1-0.3,0.2-0.6,0.3-0.9c0.1-0.3,0.2-0.6,0.4-0.9
		l0.4-0.9c0.5-1.2,0.7-1.9,0.6-2.1c-0.1-0.1-0.2-0.2-0.4-0.3c-0.1,0-0.1-0.1-0.1-0.2s0-0.2,0.1-0.3c0.1-0.1,0.2-0.2,0.3-0.2
		c0.3-0.1,0.5-0.2,0.8-0.2c0.3,0,0.4,0,0.6,0.1s0.2,0.1,0.3,0.2c0.2,0.2,0.3,0.4,0.3,0.6s0,0.5-0.1,0.8s-0.2,0.6-0.4,1
		s-0.3,0.7-0.5,1l-0.5,1c-0.3,0.8-0.5,1.3-0.5,1.5c0,0.5,0.2,0.7,0.5,0.7c0.9,0,1.7-0.5,2.4-1.5c0.4-0.6,0.8-1.3,1-2
		c0.1-0.3,0.1-0.6,0.1-0.9s0-0.5,0-0.7c0-0.2,0-0.3-0.1-0.5c-0.1-0.3-0.2-0.5-0.3-0.6c-0.1-0.1-0.1-0.3,0.1-0.5
		c0.2-0.2,0.6-0.3,1-0.3c0.3,0,0.5,0.1,0.7,0.4c0.3,0.3,0.4,0.7,0.4,1.3s-0.1,1.1-0.2,1.6c-0.2,0.5-0.4,1-0.7,1.5s-0.6,0.9-1,1.3
		s-0.8,0.8-1.2,1.1c-0.9,0.7-1.9,1-2.8,1C54.6,163.4,54.1,163.1,53.9,162.6z"/>
	<path fill="#595959" d="M64.6,161.9c0.1,0,0.2,0.1,0.2,0.3c0,0.2-0.1,0.5-0.3,0.7c-0.3,0.4-0.7,0.5-1.3,0.5c-0.6,0-1-0.2-1.2-0.7
		c-0.1-0.2-0.1-0.4-0.1-0.6s0-0.5,0.1-0.8s0.2-0.6,0.3-0.9c0.1-0.3,0.3-0.7,0.4-1l0.4-1c0.3-0.7,0.5-1.2,0.5-1.5s0-0.4-0.1-0.5
		c0-0.1-0.1-0.1-0.2-0.2l-0.2-0.1c-0.1,0-0.1-0.1-0.1-0.2s0-0.2,0.1-0.3s0.2-0.2,0.3-0.2c0.2-0.1,0.5-0.2,0.8-0.2
		c0.8,0,1.1,0.2,1.1,0.6c0,0.5-0.1,1-0.4,1.6c-0.2,0.6-0.5,1.1-0.6,1.5l-0.5,1.1c-0.3,0.8-0.5,1.4-0.5,1.7c0,0.2,0.1,0.3,0.3,0.3
		c0.2,0,0.4,0,0.5-0.1C64.5,161.9,64.6,161.9,64.6,161.9z M66.2,153.4c-0.1,0.1-0.2,0.2-0.4,0.3c-0.1,0.1-0.3,0.1-0.5,0.1
		c-0.2,0-0.3,0-0.5-0.1c-0.1-0.1-0.3-0.2-0.4-0.3c-0.2-0.3-0.3-0.5-0.3-0.8s0-0.5,0.1-0.6s0.2-0.2,0.3-0.3c0.3-0.2,0.5-0.2,0.7-0.2
		c0.2,0,0.4,0,0.5,0c0.1,0,0.2,0.1,0.3,0.2c0.3,0.2,0.4,0.4,0.4,0.6s0,0.5-0.1,0.6S66.4,153.3,66.2,153.4z"/>
	<path fill="#595959" d="M66.7,160.6c0-0.5,0.1-0.9,0.2-1.3c0.1-0.4,0.3-0.8,0.5-1.2s0.5-0.8,0.8-1.1c0.3-0.3,0.6-0.6,1-0.9
		c0.7-0.6,1.5-0.8,2.3-0.8c0.9,0,1.5,0.4,1.8,1.1c0.1,0.3,0.2,0.5,0.1,0.9c0,0.3-0.1,0.7-0.2,0.9s-0.3,0.6-0.5,0.8
		c-0.2,0.2-0.5,0.4-0.8,0.6s-0.6,0.3-1,0.5c-0.7,0.3-1.5,0.4-2.4,0.4c0,0.1,0,0.2,0,0.3c0,0.1,0,0.3,0,0.5c0,0.2,0.1,0.3,0.2,0.5
		c0.2,0.3,0.5,0.5,0.8,0.5c0.6,0,1.2-0.2,1.8-0.5c0.2-0.1,0.4-0.2,0.5-0.4c0.1-0.1,0.2-0.2,0.3-0.2s0.2,0.1,0.2,0.2s0.1,0.2,0.1,0.4
		c0,0.3-0.1,0.5-0.2,0.7c-0.7,0.7-1.6,1-2.9,1c-0.8,0-1.4-0.2-1.8-0.7C66.9,162.2,66.7,161.5,66.7,160.6z M71.2,156.3
		c-0.5,0-1.1,0.4-1.6,1.1c-0.4,0.6-0.8,1.4-1,2.3c0.9-0.1,1.6-0.4,2.3-1c0.6-0.6,0.9-1.1,0.9-1.6S71.6,156.3,71.2,156.3z"/>
	<path fill="#595959" d="M76.7,162.4c-0.7,0.6-1.3,0.9-1.7,0.9c-0.4,0-0.7-0.2-0.8-0.6c-0.1-0.1-0.1-0.3-0.1-0.4
		c0-0.3,0.1-0.7,0.2-1c0.1-0.3,0.2-0.6,0.3-0.9l0.7-1.8c0.3-0.7,0.4-1.2,0.5-1.5c0.1-0.3,0-0.5,0-0.6c-0.1-0.1-0.2-0.2-0.3-0.3
		c-0.1-0.1-0.2-0.1-0.3-0.2s-0.1-0.1-0.1-0.2s0-0.2,0.1-0.3c0.1-0.1,0.2-0.2,0.3-0.2c0.3-0.1,0.5-0.2,0.8-0.2c0.3,0,0.5,0,0.6,0.1
		c0.2,0.1,0.3,0.1,0.4,0.2c0.2,0.2,0.3,0.4,0.3,0.6s0,0.5-0.1,0.8c-0.1,0.3-0.2,0.6-0.3,1c-0.1,0.3-0.3,0.7-0.4,1.1l-0.4,1.1
		c-0.3,0.9-0.5,1.5-0.6,2c0.5-0.2,1.1-0.8,1.9-1.8c0.9-1.1,1.7-2.4,2.3-3.9c0.1-0.2,0.2-0.3,0.3-0.4c0.2-0.1,0.4-0.1,0.7-0.1
		c0.5,0,0.7,0.2,0.7,0.4c0,0.2,0,0.3-0.1,0.5c-0.1,0.2-0.2,0.4-0.2,0.5L81,158c-0.6,1.2-0.9,2.2-0.9,3c0,0.5,0.1,0.9,0.4,1.1
		c0.1,0.1,0.2,0.1,0.4,0.1s0.4-0.1,0.6-0.2s0.5-0.3,0.7-0.5c0.2-0.2,0.4-0.5,0.6-0.7c0.2-0.3,0.3-0.6,0.5-0.9
		c0.3-0.7,0.4-1.3,0.4-1.8c0-0.9-0.2-1.6-0.5-2c-0.1-0.1-0.1-0.3,0.1-0.5c0.2-0.2,0.5-0.3,0.9-0.3c0.5,0,0.8,0.3,1,0.9
		c0.1,0.2,0.1,0.5,0.1,1s-0.1,0.9-0.2,1.4c-0.2,0.5-0.4,1-0.6,1.5s-0.6,0.9-0.9,1.3s-0.7,0.8-1.1,1.1c-0.8,0.7-1.5,1-2.2,1
		c-1.2,0-1.7-0.8-1.7-2.3c0-0.3,0-0.7,0.1-1C78.1,161,77.5,161.8,76.7,162.4z"/>
</g>
<g>
	<path fill="#595959" d="M386.7,275.8c0.1,0,0.2,0.1,0.2,0.3c0,0.2,0,0.3-0.1,0.5c-0.1,0.1-0.1,0.2-0.2,0.3
		c-0.1,0.1-0.2,0.2-0.3,0.3c-0.3,0.2-0.7,0.3-1,0.3s-0.6,0-0.8-0.1c-0.2-0.1-0.4-0.2-0.5-0.4c-0.3-0.4-0.5-0.9-0.5-1.5
		c0-0.7,0.1-1.5,0.4-2.5c0.3-1,0.5-1.8,0.8-2.5s0.5-1.4,0.7-2l0.7-1.8c-0.8,0.7-1.7,2.1-2.9,4.4l-1.9,3.6c-1,1.9-1.7,2.8-2.2,2.8
		c-0.4,0-0.7-0.2-0.9-0.5c-0.1-0.3-0.2-0.9-0.2-1.8s0.1-1.6,0.2-2.4c0.1-0.8,0.3-1.5,0.5-2.3c0.4-1.3,0.8-2.6,1.4-3.9
		c-0.5,0.3-1.2,1-1.8,2.1c-0.5,0.8-0.9,1.5-1.1,1.9l-2,3.7c-0.8,1.5-1.5,2.5-2,2.8c-0.4,0.3-0.8,0.4-1.2,0.4c-0.4,0-0.6-0.1-0.8-0.3
		c-0.1-0.1-0.1-0.2-0.1-0.3s0-0.1,0.1-0.1c0.3-0.1,0.6-0.2,0.7-0.3c0.1-0.1,0.3-0.2,0.4-0.3c0.1-0.1,0.3-0.3,0.6-0.6
		c0.3-0.3,0.5-0.7,0.8-1.2c0.3-0.5,0.6-1,0.9-1.6l1-1.8c0.9-1.8,1.9-3.2,2.9-4.3c0.4-0.4,0.7-0.7,1-0.9c0.3-0.2,0.7-0.4,1.2-0.5
		c0.1,0,0.2,0,0.3,0c0.1,0,0.2,0,0.4,0s0.2,0.1,0.3,0.1c0.2,0.2,0.3,0.4,0.2,0.6c0,0.2-0.1,0.4-0.2,0.7l-0.4,1.1
		c-1,2.7-1.5,5.2-1.6,7.4c0.3-0.5,0.6-1,0.8-1.6l0.9-1.7l0.9-1.8c1.4-2.7,2.8-4.2,4-4.6c0.3-0.1,0.5-0.1,0.6-0.1s0.3,0,0.4,0.1
		c0.1,0,0.2,0.1,0.3,0.2c0.2,0.2,0.2,0.3,0.2,0.5c-0.1,0.2-0.1,0.4-0.2,0.7l-1.1,3.3l-0.4,1.3c-0.4,1.5-0.7,2.7-0.8,3.5
		c0,0.3,0,0.6,0.1,0.8c0.1,0.2,0.3,0.3,0.4,0.3s0.3,0,0.4,0c0.1,0,0.2-0.1,0.3-0.1l0.2-0.1C386.6,275.9,386.6,275.8,386.7,275.8z"/>
	<path fill="#595959" d="M388.8,276.9c-0.2-0.2-0.4-0.5-0.5-0.8s-0.2-0.7-0.2-1.1c0-0.4,0-0.9,0.2-1.3c0.1-0.4,0.3-0.9,0.5-1.3
		c0.2-0.4,0.5-0.8,0.7-1.2c0.3-0.4,0.6-0.7,1-1c0.8-0.6,1.5-0.9,2.4-0.9c1.1,0,1.8,0.5,2.2,1.4c0.3,0.7,0.3,1.5,0,2.5
		c-0.2,0.9-0.6,1.7-1.2,2.5c-0.6,0.7-1.3,1.3-2,1.6c-0.4,0.2-0.8,0.2-1.2,0.2s-0.7,0-1-0.1C389.3,277.3,389,277.1,388.8,276.9z
		 M390.3,273.1c-0.2,0.4-0.3,0.8-0.4,1.2c-0.1,0.4-0.1,0.8-0.1,1.2c0,0.4,0.1,0.6,0.2,0.9c0.1,0.2,0.3,0.3,0.5,0.3
		c0.2,0,0.5-0.1,0.7-0.2c0.2-0.2,0.5-0.4,0.7-0.7c0.2-0.3,0.4-0.6,0.6-0.9c0.2-0.4,0.4-0.7,0.5-1.1c0.3-0.8,0.5-1.6,0.5-2.2
		c0-0.6-0.1-0.9-0.4-1.1c-0.1-0.1-0.2-0.1-0.4-0.1c-0.2,0-0.4,0.1-0.6,0.2c-0.2,0.2-0.4,0.4-0.7,0.6c-0.2,0.3-0.4,0.6-0.6,0.9
		C390.6,272.3,390.5,272.7,390.3,273.1z"/>
	<path fill="#595959" d="M396.3,276.7c-0.1-0.2-0.1-0.4-0.1-0.6s0-0.5,0.1-0.8c0.1-0.3,0.2-0.6,0.3-0.9c0.1-0.3,0.2-0.6,0.4-0.9
		l0.4-0.9c0.5-1.2,0.7-1.9,0.6-2.1c-0.1-0.1-0.2-0.2-0.4-0.3c-0.1,0-0.1-0.1-0.1-0.2c0-0.1,0-0.2,0.1-0.3c0.1-0.1,0.2-0.2,0.3-0.2
		c0.3-0.1,0.5-0.2,0.8-0.2c0.3,0,0.4,0,0.6,0.1s0.2,0.1,0.3,0.2c0.2,0.2,0.3,0.4,0.3,0.6c0,0.2,0,0.5-0.1,0.8
		c-0.1,0.3-0.2,0.6-0.4,1c-0.1,0.3-0.3,0.7-0.5,1l-0.5,1c-0.3,0.8-0.5,1.3-0.5,1.5c0,0.5,0.2,0.7,0.5,0.7c0.9,0,1.7-0.5,2.4-1.5
		c0.4-0.6,0.8-1.3,1-2c0.1-0.3,0.1-0.6,0.1-0.9s0-0.5,0-0.7c0-0.2,0-0.3-0.1-0.5c-0.1-0.3-0.2-0.5-0.3-0.6c-0.1-0.1-0.1-0.3,0.1-0.5
		c0.2-0.2,0.6-0.3,1-0.3c0.3,0,0.5,0.1,0.7,0.4c0.3,0.3,0.4,0.7,0.4,1.3c0,0.5-0.1,1.1-0.2,1.6c-0.2,0.5-0.4,1-0.7,1.5
		c-0.3,0.5-0.6,0.9-1,1.3c-0.4,0.4-0.8,0.8-1.2,1.1c-0.9,0.7-1.9,1-2.8,1C397.1,277.5,396.6,277.2,396.3,276.7z"/>
	<path fill="#595959" d="M410.5,275.3c0,0.5,0.2,0.7,0.5,0.7c0.2,0,0.4,0,0.6-0.1c0.2-0.1,0.3-0.1,0.3-0.1c0.1,0,0.2,0.1,0.2,0.2
		c0,0.4-0.2,0.8-0.7,1.2c-0.5,0.3-1,0.4-1.5,0.3c-0.3-0.1-0.6-0.4-0.8-0.8c-0.1-0.2-0.1-0.4-0.1-0.6c0-0.3,0-0.6,0.1-0.9
		c-0.5,1-1.1,1.7-1.8,2c-0.3,0.1-0.6,0.2-0.9,0.2c-0.3,0-0.6-0.1-0.8-0.2c-0.2-0.1-0.4-0.3-0.6-0.6c-0.3-0.5-0.5-1.1-0.5-1.8
		c0-0.9,0.3-1.8,0.8-2.7c0.5-0.8,1.1-1.5,1.8-2c0.7-0.5,1.4-0.8,2-0.8c0.6,0,1.1,0.3,1.5,0.9c0.4-0.6,0.7-0.9,1-0.9
		c0.3,0,0.5,0.1,0.7,0.2c0.3,0.2,0.4,0.4,0.3,0.5c-1.3,2.7-2,4.3-2,5C410.5,275.1,410.5,275.2,410.5,275.3z M406.2,275.4
		c0,0.6,0.2,0.9,0.6,0.9c0.3,0,0.7-0.3,1.1-0.8c0.7-0.8,1.2-1.8,1.7-3.1c0.2-0.4,0.3-0.8,0.4-1.2c0-0.4-0.2-0.6-0.4-0.8
		c-0.1-0.1-0.2-0.1-0.4-0.1c-0.2,0-0.4,0.1-0.6,0.2c-0.2,0.1-0.5,0.3-0.7,0.6c-0.2,0.2-0.4,0.5-0.6,0.8c-0.2,0.3-0.4,0.7-0.5,1
		C406.3,273.8,406.2,274.6,406.2,275.4z"/>
	<path fill="#595959" d="M413.2,275.2c0-0.3,0-0.6,0.1-0.9c0-0.3,0.1-0.6,0.2-0.8s0.1-0.6,0.2-0.8l0.9-2.7c0.7-2.2,1.1-3.9,1.3-5.1
		c0.1-0.4,0.3-0.7,0.6-0.7c0.2,0,0.4,0.1,0.6,0.2c0.3,0.2,0.4,0.5,0.4,0.7c0,0.3,0,0.5-0.1,0.8c-0.1,0.3-0.1,0.6-0.3,1
		c-0.1,0.4-0.2,0.7-0.3,1.1c-0.3,1-0.6,1.8-0.8,2.2l-0.4,1.2c0.5-0.7,0.8-1.2,1.1-1.4c0.6-0.5,1.2-0.8,1.8-0.8
		c0.9,0,1.5,0.5,1.8,1.4c0.1,0.3,0.1,0.7,0.1,1.2c0,0.5-0.1,1-0.2,1.5c-0.1,0.5-0.3,0.9-0.6,1.3c-0.2,0.4-0.5,0.8-0.9,1.1
		c-0.3,0.3-0.7,0.6-1,0.9c-0.8,0.5-1.5,0.7-2.2,0.7c-0.7,0-1.3-0.2-1.7-0.7C413.4,276.4,413.2,275.9,413.2,275.2z M415.4,276.5
		c0.5,0,1-0.2,1.5-0.7c0.8-0.7,1.3-1.6,1.6-2.9c0.1-0.4,0.1-0.8,0.1-1.3c0-0.4,0-0.7-0.1-0.9c-0.1-0.2-0.3-0.3-0.5-0.3
		c-0.2,0-0.4,0.1-0.6,0.3c-0.2,0.2-0.5,0.4-0.7,0.7c-0.2,0.3-0.5,0.6-0.7,0.9c-0.2,0.4-0.5,0.7-0.6,1.1c-0.4,0.8-0.6,1.6-0.6,2.1
		S414.9,276.5,415.4,276.5z"/>
	<path fill="#595959" d="M421.9,277.1c-0.1-0.1-0.2-0.3-0.3-0.5c-0.1-0.2-0.1-0.5-0.1-0.7c0-0.3,0.1-0.7,0.2-1.1
		c0.1-0.5,0.3-1,0.5-1.6l0.7-1.9c0.9-2.7,1.5-4.8,1.6-6.3c0-0.4,0.3-0.7,0.6-0.7c0.2,0,0.4,0.1,0.6,0.2c0.3,0.2,0.4,0.5,0.4,0.8
		c0,0.3-0.1,0.6-0.1,1c-0.1,0.4-0.2,0.8-0.3,1.3s-0.3,1-0.5,1.5l-1.1,3.2c-0.6,1.8-0.9,3-0.9,3.5c0,0.3,0.1,0.4,0.3,0.4
		c0.2,0,0.4,0,0.6-0.1s0.3-0.1,0.3-0.1c0.1,0,0.2,0.1,0.2,0.2c0,0.5-0.2,0.9-0.7,1.2c-0.3,0.2-0.6,0.3-0.9,0.3c-0.3,0-0.5,0-0.6-0.1
		C422.2,277.3,422.1,277.2,421.9,277.1z"/>
	<path fill="#595959" d="M426.1,274.7c0-0.5,0.1-0.9,0.2-1.3c0.1-0.4,0.3-0.8,0.5-1.2c0.2-0.4,0.5-0.8,0.8-1.1
		c0.3-0.3,0.6-0.6,1-0.9c0.7-0.6,1.5-0.8,2.3-0.8c0.9,0,1.5,0.4,1.8,1.1c0.1,0.3,0.2,0.5,0.1,0.9c0,0.3-0.1,0.7-0.2,0.9
		s-0.3,0.6-0.5,0.8c-0.2,0.2-0.5,0.4-0.8,0.6s-0.6,0.3-1,0.5c-0.7,0.3-1.5,0.4-2.4,0.4c0,0.1,0,0.2,0,0.3c0,0.1,0,0.3,0,0.5
		c0,0.2,0.1,0.3,0.2,0.5c0.2,0.3,0.5,0.5,0.8,0.5c0.6,0,1.2-0.2,1.8-0.5c0.2-0.1,0.4-0.2,0.5-0.4c0.1-0.1,0.2-0.2,0.3-0.2
		s0.2,0.1,0.2,0.2c0.1,0.1,0.1,0.2,0.1,0.4c0,0.3-0.1,0.5-0.2,0.7c-0.7,0.7-1.6,1-2.9,1c-0.8,0-1.4-0.2-1.8-0.7
		C426.3,276.3,426.1,275.6,426.1,274.7z M430.7,270.4c-0.5,0-1.1,0.4-1.6,1.1c-0.4,0.6-0.8,1.4-1,2.3c0.9-0.1,1.6-0.4,2.3-1
		c0.6-0.6,0.9-1.1,0.9-1.6S431,270.4,430.7,270.4z"/>
	<path fill="#595959" d="M393.7,294.5c0,0.5,0.2,0.7,0.5,0.7c0.2,0,0.4,0,0.6-0.1c0.2-0.1,0.3-0.1,0.3-0.1c0.1,0,0.2,0.1,0.2,0.2
		c0,0.4-0.2,0.8-0.7,1.2c-0.5,0.3-1,0.4-1.5,0.3c-0.3-0.1-0.6-0.4-0.8-0.8c-0.1-0.2-0.1-0.4-0.1-0.6c0-0.3,0-0.6,0.1-0.9
		c-0.5,1-1.1,1.7-1.8,2c-0.3,0.1-0.6,0.2-0.9,0.2c-0.3,0-0.6-0.1-0.8-0.2c-0.2-0.1-0.4-0.3-0.6-0.6c-0.3-0.5-0.5-1.1-0.5-1.8
		c0-0.9,0.3-1.8,0.8-2.7c0.5-0.8,1.1-1.5,1.8-2c0.7-0.5,1.4-0.8,2-0.8c0.6,0,1.1,0.3,1.5,0.9c0.4-0.6,0.7-0.9,1-0.9
		c0.3,0,0.5,0.1,0.7,0.2c0.3,0.2,0.4,0.4,0.3,0.5c-1.3,2.7-2,4.3-2,5C393.7,294.3,393.7,294.4,393.7,294.5z M389.4,294.6
		c0,0.6,0.2,0.9,0.6,0.9c0.3,0,0.7-0.3,1.1-0.8c0.7-0.8,1.2-1.8,1.7-3.1c0.2-0.4,0.3-0.8,0.4-1.2c0-0.4-0.2-0.6-0.4-0.8
		c-0.1-0.1-0.2-0.1-0.4-0.1c-0.2,0-0.4,0.1-0.6,0.2c-0.2,0.1-0.5,0.3-0.7,0.6c-0.2,0.2-0.4,0.5-0.6,0.8c-0.2,0.3-0.4,0.7-0.5,1
		C389.5,293,389.4,293.8,389.4,294.6z"/>
	<path fill="#595959" d="M396.4,296.4c-0.1-0.1-0.2-0.2-0.3-0.3c-0.1-0.1-0.1-0.2-0.1-0.3c0-0.1,0-0.2,0-0.3c0-0.1,0.1-0.2,0.1-0.4
		c1.1-2.6,1.6-4.4,1.6-5.3c0-0.3-0.1-0.4-0.3-0.5l-0.2-0.1c0,0-0.1-0.1-0.1-0.2c0-0.1,0-0.2,0.1-0.3c0.1-0.1,0.2-0.2,0.3-0.2
		c0.2-0.1,0.5-0.2,0.7-0.2c0.2,0,0.4,0,0.6,0.1c0.1,0.1,0.2,0.1,0.3,0.2c0.2,0.2,0.3,0.4,0.3,0.6c0,0.2,0,0.4-0.1,0.6
		c0,0.2-0.1,0.4-0.2,0.6c-0.1,0.2-0.1,0.4-0.2,0.6c-0.1,0.2-0.1,0.3-0.1,0.4c0,0.2-0.1,0.3,0,0.3c0.1-0.1,0.2-0.2,0.2-0.3l0.3-0.6
		c0.7-1.2,1.3-2,2-2.4c0.2-0.1,0.4-0.2,0.7-0.2c0.3,0,0.5,0.1,0.6,0.3c0.2,0.2,0.2,0.4,0.3,0.6c0,0.2,0,0.4,0,0.6s-0.1,0.3-0.2,0.4
		c-0.2,0.3-0.4,0.4-0.6,0.4c-0.1,0-0.1,0-0.2-0.1l-0.2-0.1c-0.2-0.2-0.3-0.2-0.5-0.2c-0.2,0-0.4,0.1-0.6,0.3
		c-0.2,0.2-0.5,0.5-0.7,0.8c-0.8,1.1-1.5,2.3-2,3.7l-0.3,0.9c-0.1,0.2-0.2,0.4-0.2,0.5c-0.1,0.1-0.2,0.1-0.3,0.1s-0.3,0-0.4-0.1
		C396.6,296.6,396.5,296.5,396.4,296.4z"/>
	<path fill="#595959" d="M402.9,293.9c0-0.5,0.1-0.9,0.2-1.3c0.1-0.4,0.3-0.8,0.5-1.2c0.2-0.4,0.5-0.8,0.8-1.1
		c0.3-0.3,0.6-0.6,1-0.9c0.7-0.6,1.5-0.8,2.3-0.8c0.9,0,1.5,0.4,1.8,1.1c0.1,0.3,0.2,0.5,0.1,0.9c0,0.3-0.1,0.7-0.2,0.9
		s-0.3,0.6-0.5,0.8c-0.2,0.2-0.5,0.4-0.8,0.6s-0.6,0.3-1,0.5c-0.7,0.3-1.5,0.4-2.4,0.4c0,0.1,0,0.2,0,0.3c0,0.1,0,0.3,0,0.5
		c0,0.2,0.1,0.3,0.2,0.5c0.2,0.3,0.5,0.5,0.8,0.5c0.6,0,1.2-0.2,1.8-0.5c0.2-0.1,0.4-0.2,0.5-0.4c0.1-0.1,0.2-0.2,0.3-0.2
		s0.2,0.1,0.2,0.2c0.1,0.1,0.1,0.2,0.1,0.4c0,0.3-0.1,0.5-0.2,0.7c-0.7,0.7-1.6,1-2.9,1c-0.8,0-1.4-0.2-1.8-0.7
		C403.2,295.5,402.9,294.8,402.9,293.9z M407.5,289.6c-0.5,0-1.1,0.4-1.6,1.1c-0.4,0.6-0.8,1.4-1,2.3c0.9-0.1,1.6-0.4,2.3-1
		c0.6-0.6,0.9-1.1,0.9-1.6S407.9,289.6,407.5,289.6z"/>
	<path fill="#595959" d="M416.4,294.5c0,0.5,0.2,0.7,0.5,0.7c0.2,0,0.4,0,0.6-0.1c0.2-0.1,0.3-0.1,0.3-0.1c0.1,0,0.2,0.1,0.2,0.2
		c0,0.4-0.2,0.8-0.7,1.2c-0.5,0.3-1,0.4-1.5,0.3c-0.3-0.1-0.6-0.4-0.8-0.8c-0.1-0.2-0.1-0.4-0.1-0.6c0-0.3,0-0.6,0.1-0.9
		c-0.5,1-1.1,1.7-1.8,2c-0.3,0.1-0.6,0.2-0.9,0.2c-0.3,0-0.6-0.1-0.8-0.2c-0.2-0.1-0.4-0.3-0.6-0.6c-0.3-0.5-0.5-1.1-0.5-1.8
		c0-0.9,0.3-1.8,0.8-2.7c0.5-0.8,1.1-1.5,1.8-2c0.7-0.5,1.4-0.8,2-0.8c0.6,0,1.1,0.3,1.5,0.9c0.4-0.6,0.7-0.9,1-0.9
		c0.3,0,0.5,0.1,0.7,0.2c0.3,0.2,0.4,0.4,0.3,0.5c-1.3,2.7-2,4.3-2,5C416.4,294.3,416.4,294.4,416.4,294.5z M412.1,294.6
		c0,0.6,0.2,0.9,0.6,0.9c0.3,0,0.7-0.3,1.1-0.8c0.7-0.8,1.2-1.8,1.7-3.1c0.2-0.4,0.3-0.8,0.4-1.2c0-0.4-0.2-0.6-0.4-0.8
		c-0.1-0.1-0.2-0.1-0.4-0.1c-0.2,0-0.4,0.1-0.6,0.2c-0.2,0.1-0.5,0.3-0.7,0.6c-0.2,0.2-0.4,0.5-0.6,0.8c-0.2,0.3-0.4,0.7-0.5,1
		C412.3,293,412.1,293.8,412.1,294.6z"/>
</g>
<text transform="matrix(1 0 0 1 687.4191 -436.0013)" fill="#8F8F8F" font-family="'OpenSans'" font-size="15">top</text>
<text transform="matrix(1 0 0 1 798.4203 -314.0013)" fill="#8F8F8F" font-family="'OpenSans'" font-size="15">right</text>
<text transform="matrix(1 0 0 1 574.9241 -314.0013)" fill="#8F8F8F" font-family="'OpenSans'" font-size="15">left</text>
<text transform="matrix(1 0 0 1 673.4165 -205.0025)" fill="#8F8F8F" font-family="'OpenSans'" font-size="15">bottom</text>
<g>
	<path fill="#B9B9B9" d="M848.3-473.1h-6v3h6V-473.1L848.3-473.1z M836.3-473.1h-6v3h6V-473.1L836.3-473.1z M824.3-473.1h-6v3h6
		V-473.1L824.3-473.1z M812.3-473.1h-6v3h6V-473.1L812.3-473.1z M800.3-473.1h-6v3h6V-473.1L800.3-473.1z M788.3-473.1h-6v3h6
		V-473.1L788.3-473.1z M776.3-473.1h-6v3h6V-473.1L776.3-473.1z M764.3-473.1h-6v3h6V-473.1L764.3-473.1z M752.3-473.1h-6v3h6
		V-473.1L752.3-473.1z M740.3-473.1h-6v3h6V-473.1L740.3-473.1z M728.3-473.1h-6v3h6V-473.1L728.3-473.1z M716.3-473.1h-6v3h6
		V-473.1L716.3-473.1z M704.3-473.1h-6v3h6V-473.1L704.3-473.1z M692.3-473.1h-6v3h6V-473.1L692.3-473.1z M680.3-473.1h-6v3h6
		V-473.1L680.3-473.1z M668.3-473.1h-6v3h6V-473.1L668.3-473.1z M656.3-473.1h-6v3h6V-473.1L656.3-473.1z M644.3-473.1h-6v3h6
		V-473.1L644.3-473.1z M632.3-473.1h-6v3h6V-473.1L632.3-473.1z M620.3-473.1h-6v3h6V-473.1L620.3-473.1z M608.3-473.1h-6v3h6
		V-473.1L608.3-473.1z M596.3-473.1h-6v3h6V-473.1L596.3-473.1z M584.3-473.1h-6v3h6V-473.1L584.3-473.1z M572.3-473.1h-6v3h6
		V-473.1L572.3-473.1z M560.3-473.1h-6v3h6V-473.1L560.3-473.1z M554.4-470.1h-3v6h3V-470.1L554.4-470.1z M554.4-458.1h-3v6h3
		V-458.1L554.4-458.1z M554.4-446.1h-3v6h3V-446.1L554.4-446.1z M554.4-434.1h-3v6h3V-434.1L554.4-434.1z M554.4-422.1h-3v6h3
		V-422.1L554.4-422.1z M554.4-410.1h-3v6h3V-410.1L554.4-410.1z M554.4-398.1h-3v6h3V-398.1L554.4-398.1z M554.4-386.1h-3v6h3
		V-386.1L554.4-386.1z M554.4-374.1h-3v6h3V-374.1L554.4-374.1z M554.4-362.1h-3v6h3V-362.1L554.4-362.1z M554.4-350.1h-3v6h3
		V-350.1L554.4-350.1z M554.4-338.1h-3v6h3V-338.1L554.4-338.1z M554.4-326.1h-3v6h3V-326.1L554.4-326.1z M554.4-314.1h-3v6h3
		V-314.1L554.4-314.1z M554.4-302.1h-3v6h3V-302.1L554.4-302.1z M554.4-290.1h-3v6h3V-290.1L554.4-290.1z M554.4-278.1h-3v6h3
		V-278.1L554.4-278.1z M554.4-266.1h-3v6h3V-266.1L554.4-266.1z M554.4-254.1h-3v6h3V-254.1L554.4-254.1z M554.4-242.1h-3v6h3
		V-242.1L554.4-242.1z M554.4-230.1h-3v6h3V-230.1L554.4-230.1z M554.4-218.1h-3v6h3V-218.1L554.4-218.1z M554.4-206.1h-3v6h3
		V-206.1L554.4-206.1z M554.4-194.1h-3v6h3V-194.1L554.4-194.1z M554.4-182.1h-3v5.3h3l0,0l0,0l0,0V-182.1L554.4-182.1z
		 M564.1-179.8h-6v3h6V-179.8L564.1-179.8z M576.1-179.8h-6v3h6V-179.8L576.1-179.8z M588.1-179.8h-6v3h6V-179.8L588.1-179.8z
		 M600.1-179.8h-6v3h6V-179.8L600.1-179.8z M612.1-179.8h-6v3h6V-179.8L612.1-179.8z M624.1-179.8h-6v3h6V-179.8L624.1-179.8z
		 M636.1-179.8h-6v3h6V-179.8L636.1-179.8z M648.1-179.8h-6v3h6V-179.8L648.1-179.8z M660.1-179.8h-6v3h6V-179.8L660.1-179.8z
		 M672.1-179.8h-6v3h6V-179.8L672.1-179.8z M684.1-179.8h-6v3h6V-179.8L684.1-179.8z M696.1-179.8h-6v3h6V-179.8L696.1-179.8z
		 M708.1-179.8h-6v3h6V-179.8L708.1-179.8z M720.1-179.8h-6v3h6V-179.8L720.1-179.8z M732.1-179.8h-6v3h6V-179.8L732.1-179.8z
		 M744.1-179.8h-6v3h6V-179.8L744.1-179.8z M756.1-179.8h-6v3h6V-179.8L756.1-179.8z M768.1-179.8h-6v3h6V-179.8L768.1-179.8z
		 M780.1-179.8h-6v3h6V-179.8L780.1-179.8z M792.1-179.8h-6v3h6V-179.8L792.1-179.8z M804.1-179.8h-6v3h6V-179.8L804.1-179.8z
		 M816.1-179.8h-6v3h6V-179.8L816.1-179.8z M828.1-179.8h-6v3h6V-179.8L828.1-179.8z M840.1-179.8h-6v3h6V-179.8L840.1-179.8z
		 M848.3-180.6h-3v3.8h0.8l0,0h-0.8h0.8l0,0h2.2V-180.6L848.3-180.6z M848.3-192.6h-3v6h3V-192.6L848.3-192.6z M848.3-204.6h-3v6h3
		V-204.6L848.3-204.6z M848.3-216.6h-3v6h3V-216.6L848.3-216.6z M848.3-228.6h-3v6h3V-228.6L848.3-228.6z M848.3-240.6h-3v6h3
		V-240.6L848.3-240.6z M848.3-252.6h-3v6h3V-252.6L848.3-252.6z M848.3-264.6h-3v6h3V-264.6L848.3-264.6z M848.3-276.6h-3v6h3
		V-276.6L848.3-276.6z M848.3-288.6h-3v6h3V-288.6L848.3-288.6z M848.3-300.6h-3v6h3V-300.6L848.3-300.6z M848.3-312.6h-3v6h3
		V-312.6L848.3-312.6z M848.3-324.6h-3v6h3V-324.6L848.3-324.6z M848.3-336.6h-3v6h3V-336.6L848.3-336.6z M848.3-348.6h-3v6h3
		V-348.6L848.3-348.6z M848.3-360.6h-3v6h3V-360.6L848.3-360.6z M848.3-372.6h-3v6h3V-372.6L848.3-372.6z M848.3-384.6h-3v6h3
		V-384.6L848.3-384.6z M848.3-396.6h-3v6h3V-396.6L848.3-396.6z M848.3-408.6h-3v6h3V-408.6L848.3-408.6z M848.3-420.6h-3v6h3
		V-420.6L848.3-420.6z M848.3-432.6h-3v6h3V-432.6L848.3-432.6z M848.3-444.6h-3v6h3V-444.6L848.3-444.6z M848.3-456.6h-3v6h3
		V-456.6L848.3-456.6z M848.3-468.6h-3v6h3V-468.6L848.3-468.6z"/>
</g>
<line fill="none" stroke="#36CC89" stroke-width="2" stroke-miterlimit="10" x1="698.8" y1="-466" x2="698.8" y2="-450.2"/>
<line fill="none" stroke="#36CC89" stroke-width="2" stroke-miterlimit="10" x1="698.8" y1="-428" x2="698.8" y2="-412.3"/>
<line fill="none" stroke="#36CC89" stroke-width="2" stroke-miterlimit="10" x1="698.9" y1="-236" x2="698.9" y2="-220.3"/>
<line fill="none" stroke="#36CC89" stroke-width="2" stroke-miterlimit="10" x1="698.9" y1="-199" x2="698.9" y2="-183.3"/>
<line fill="none" stroke="#36CC89" stroke-width="2" stroke-miterlimit="10" x1="793.8" y1="-318" x2="787.2" y2="-318"/>
<line fill="none" stroke="#36CC89" stroke-width="2" stroke-miterlimit="10" x1="842.3" y1="-318" x2="836.1" y2="-318"/>
<line fill="none" stroke="#36CC89" stroke-width="2" stroke-miterlimit="10" x1="568.5" y1="-318" x2="559.2" y2="-318"/>
<line fill="none" stroke="#36CC89" stroke-width="2" stroke-miterlimit="10" x1="611.3" y1="-318" x2="602" y2="-318"/>
<g>
	
		<circle fill="none" stroke="#36CC89" stroke-width="4" stroke-miterlimit="10" stroke-dasharray="15.7562,7.8781" cx="699.9" cy="-324.1" r="82.8"/>
</g>
<g>
	<g>
		<polyline fill="none" stroke="#F2F2F2" stroke-width="2" stroke-miterlimit="10" points="349.8,-223 349.8,-221.5 348.3,-221.5 		
			"/>
		
			<line fill="none" stroke="#F2F2F2" stroke-width="2" stroke-miterlimit="10" stroke-dasharray="2.9545,2.9545" x1="345.3" y1="-221.5" x2="187.3" y2="-221.5"/>
		<polyline fill="none" stroke="#F2F2F2" stroke-width="2" stroke-miterlimit="10" points="185.8,-221.5 184.3,-221.5 184.3,-223 		
			"/>
		
			<line fill="none" stroke="#F2F2F2" stroke-width="2" stroke-miterlimit="10" stroke-dasharray="2.9545,2.9545" x1="184.3" y1="-226" x2="184.3" y2="-384"/>
		<polyline fill="none" stroke="#F2F2F2" stroke-width="2" stroke-miterlimit="10" points="184.3,-385.5 184.3,-387 185.8,-387 		
			"/>
		
			<line fill="none" stroke="#F2F2F2" stroke-width="2" stroke-miterlimit="10" stroke-dasharray="2.9545,2.9545" x1="188.7" y1="-387" x2="346.8" y2="-387"/>
		<polyline fill="none" stroke="#F2F2F2" stroke-width="2" stroke-miterlimit="10" points="348.3,-387 349.8,-387 349.8,-385.5 		
			"/>
		
			<line fill="none" stroke="#F2F2F2" stroke-width="2" stroke-miterlimit="10" stroke-dasharray="2.9545,2.9545" x1="349.8" y1="-382.6" x2="349.8" y2="-224.5"/>
	</g>
</g>
<g>
	<g>
		<polyline fill="none" stroke="#F2F2F2" stroke-width="2" stroke-miterlimit="10" points="288.4,-286.2 288.4,-284.7 286.9,-284.7 
					"/>
		
			<line fill="none" stroke="#F2F2F2" stroke-width="2" stroke-miterlimit="10" stroke-dasharray="2.9545,2.9545" x1="284" y1="-284.7" x2="125.9" y2="-284.7"/>
		<polyline fill="none" stroke="#F2F2F2" stroke-width="2" stroke-miterlimit="10" points="124.4,-284.7 122.9,-284.7 122.9,-286.2 
					"/>
		
			<line fill="none" stroke="#F2F2F2" stroke-width="2" stroke-miterlimit="10" stroke-dasharray="2.9545,2.9545" x1="122.9" y1="-289.2" x2="122.9" y2="-447.3"/>
		<polyline fill="none" stroke="#F2F2F2" stroke-width="2" stroke-miterlimit="10" points="122.9,-448.7 122.9,-450.2 124.4,-450.2 
					"/>
		
			<line fill="none" stroke="#F2F2F2" stroke-width="2" stroke-miterlimit="10" stroke-dasharray="2.9545,2.9545" x1="127.4" y1="-450.2" x2="285.5" y2="-450.2"/>
		<polyline fill="none" stroke="#F2F2F2" stroke-width="2" stroke-miterlimit="10" points="286.9,-450.2 288.4,-450.2 288.4,-448.7 
					"/>
		
			<line fill="none" stroke="#F2F2F2" stroke-width="2" stroke-miterlimit="10" stroke-dasharray="2.9545,2.9545" x1="288.4" y1="-445.8" x2="288.4" y2="-287.7"/>
	</g>
</g>
<g>
	
		<circle fill="none" stroke="#36CC89" stroke-width="4" stroke-miterlimit="10" stroke-dasharray="15.7562,7.8781" cx="267" cy="-304.3" r="82.8"/>
</g>
<image overflow="visible" width="287" height="231" xlink:href="C1F1131F.jpg"  transform="matrix(0.9999 0 0 0.9999 -247.4586 -458.1244)">
</image>
<text transform="matrix(0.9933 0.1152 -0.1152 0.9933 307.8604 -414.6423)" fill="#B9B9B9" font-family="'Courgette-Regular'" font-size="18.5219">Move event</text>
<text transform="matrix(1 0 0 1 172.9419 -417.9397)" fill="#8F8F8F" font-family="'OpenSans'" font-size="15">top</text>
<line fill="none" stroke="#36CC89" stroke-width="2" stroke-miterlimit="10" x1="184.3" y1="-446.5" x2="184.3" y2="-432.2"/>
<line fill="none" stroke="#36CC89" stroke-width="2" stroke-miterlimit="10" x1="184.3" y1="-409.9" x2="184.3" y2="-395.2"/>
<text transform="matrix(1 0 0 1 139.7611 -384.0203)" fill="#8F8F8F" font-family="'OpenSans'" font-size="15">left</text>
<line fill="none" stroke="#36CC89" stroke-width="2" stroke-miterlimit="10" x1="136.3" y1="-388" x2="127" y2="-388"/>
<line fill="none" stroke="#36CC89" stroke-width="2" stroke-miterlimit="10" x1="176.2" y1="-388" x2="166.8" y2="-388"/>
<circle fill="#D2F0E2" cx="123.9" cy="-449" r="5.2"/>
<circle fill="#36CC89" cx="184.3" cy="-387.3" r="5.2"/>
<path fill-rule="evenodd" clip-rule="evenodd" fill="none" stroke="#5A5A5A" stroke-width="2" stroke-miterlimit="10" stroke-dasharray="3" d="
	M284.3,45.1c0,0,24.1-6.1,51.1,22.4"/>
<path fill-rule="evenodd" clip-rule="evenodd" fill="none" stroke="#5A5A5A" stroke-width="2" stroke-miterlimit="10" stroke-dasharray="3" d="
	M66.4,174.5c26.5,21,52,18,52,18"/>
<path fill-rule="evenodd" clip-rule="evenodd" fill="none" stroke="#5A5A5A" stroke-width="2" stroke-miterlimit="10" stroke-dasharray="3" d="
	M398.4,256.5c0,0-9.1-23-48-28"/>
<g>
	<path fill="#FFFFFF" d="M314.2,145.5c1.8,3.1,3.3,6.4,4.8,9.7c0,0,0-0.1,0-0.1C319.4,151.1,318.2,147.5,314.2,145.5z"/>
	<path fill="#FFFFFF" d="M141.8,155.1C141.8,155.1,141.8,155.1,141.8,155.1c1.4-3.2,3-6.5,4.8-9.6
		C142.5,147.5,141.4,151.1,141.8,155.1z"/>
	<g>
		<path d="M318.9,155.1c-0.5,4.1-3.6,7.6-8.5,11.3c-5.8,4.5-14.9,6-20.3,8.9c-3.7,1.9-10.6,6.1-14.8,15.2
			c-4.5,9.9-3.7,14.4-3.7,14.4l-13-14c0,0,1.7-3.8-0.6-8.7c-2.9-6.3-7.6-8.9-7.6-8.9s13.9,4.5,22.7,1.2
			c14.8-5.6,21.1-20.6,21.1-20.6s1.1,2.4,2.3,3.3c7.8,6.3,12.5,2.7,13.4,1.9c1.3-1.4,2-2.9,2-4.7c0-1.6-0.8-3.3-2.5-3.7
			c-1.7-0.4-3.2,1.1-3.1,3c0.1,2.4,1.2,3,1.2,3s-2.6,0-4.6-2.7c-1.2-1.6-1.7-5.3,0.6-7.4c2.8-2.5,6.4-2.9,10-1.4
			c0.2,0.1,0.5,0.2,0.7,0.3c-2-3.5-4.2-6.9-6.5-10.1c-1.9-0.4-4.1-1.1-6.4-2.4c-2.2-1.2-7.4-3.9-14.8-6.2c-3-0.9-12.9-3.5-15.6-3.8
			c-4.3-0.4-13.3-2-19.1,4.7c-2,2.4-1.5,6.8-0.1,7.7c4.8,3,5.5-1.5,4.6-2.7c-0.9-1.2-0.3-4.7,1.2-5.8c1.5-1.2,3.7-2,6.9-0.9
			c2.1,0.8,3.7,3.4,3.8,6.4c0.1,2.6-0.8,5.3-3.2,6.8c-2.4,1.5-4.1,2-6.5,2.2c-3.3,0.2-5.4,0-8-0.9c-2.6-0.8-6.3-2.9-8.6-7.9
			c-2.3-5-1.2-7.6,0.4-10.2c5.2-8.5,16.8-6.4,21.7-5.8c17.5,2.1,25.3,5.5,29.9,7.3c2.4,0.9,4.5,1.7,6.3,2.4
			c-2.8-2.9-5.7-5.7-8.8-8.3c-0.1,0-0.1,0-0.2-0.1c-18.2-6.3-35.9-6.9-47.5-6.4c-1.1,0.5-4.2,2.4-6.4,7.4
			c-1.4,3.1-1.6,13.5-1.6,13.5s1,18.4,19.1,14.9c6-1.2,9.7-2.3,17.4-0.8c2.1,0.4,6.1,0.8,8.6-0.4c3.3-1.5,2.4-3.4,2.4-3.4
			s-0.9,0.7-2.8,1.3c-1.9,0.6-3.8-0.5-3.7-2.6c0.1-2.5,2.1-4.2,4.3-4.8c2.7-0.8,5.8-0.5,7.5,1.4c2.2,2.3,2.9,8.7-3.7,11.2
			c-1.8,0.7-5.3,1.9-11.4,1.7c-6.8-0.3-16.6,1.3-21.3,6.4c-1.6,1.8-4.5,2.7-5.6,2.6c-1.1-0.1-7.8-0.1-7.8-0.1l-8.4-8.3v7.3l7.8,7.2
			c0,0-0.3,2.8,0.8,5c1.1,2.2,2,5.4,1,7c-0.9,1.4-2.4,2.9-2.7,3.2c0.3-0.3,1.5-1.3,3.2-1.9c1.9-0.7,3.2-0.7,4.6-0.3
			c3,0.8,4.9,2.4,4.5,6.1c-0.3,3.5-4.7,4.5-6.5,2.1c-1.1-1.4-0.4-2.1-1.5-1.4c-0.3,0.2-1.5,8.7-4.9,10.8c-2.5,1.6-5.9,1.2-6.2,1.2
			v8.6h9.6l7.1,9.7h-16.6l0,65h24.9v6.8h-24.9v4.8c16.4,0,31.9-4.2,45.5-11.6c-0.3-6.7-3.6-16.4-7.9-32.4
			c-4.9-18.3-12.4-32.8-15.7-37.8c-5.7-8.6-7.4-10.7-7.4-10.7l4.2-4.7c22.3,24.8,28.6,52.2,33.6,81.4c4.5-2.9,8.7-6.2,12.6-9.9
			c-3.8-11.6-11.7-36.8-11.6-48.4c0.1-14.2-0.5-27.4,7-34.5c13.3-12.6,33-11.2,33-11.2l0.1,7.1l2.2,0
			C324.7,171.6,322.3,163.1,318.9,155.1z M264.8,158.1c4.2-1.4,9-1.2,11.6-1.4c2.6-0.2,11.3-1.7,11.3-1.7s-2,5.6-8.2,9.7
			c-3.5,2.3-10.1,5.9-14.8,5.7c-8.3-0.4-10-3.9-10-3.9S260.6,159.6,264.8,158.1z M259.7,271.8h-20l-5.3-48.2h10L259.7,271.8z"/>
		<path d="M214.1,160.1c-1.1,0.1-4-0.8-5.6-2.6c-4.6-5.2-14.4-6.7-21.3-6.4c-6.1,0.2-9.6-1-11.4-1.7c-6.6-2.5-5.8-8.9-3.7-11.2
			c1.8-1.9,4.9-2.2,7.5-1.4c2.2,0.6,4.2,2.3,4.3,4.8c0.1,2.1-1.8,3.2-3.7,2.6c-1.9-0.6-2.8-1.3-2.8-1.3s-0.8,1.8,2.4,3.4
			c2.5,1.2,6.6,0.8,8.6,0.4c7.7-1.5,11.4-0.4,17.4,0.8c18.1,3.6,19.1-14.9,19.1-14.9s-0.3-10.4-1.6-13.5c-2.2-5-5.3-6.9-6.4-7.4
			c-11.6-0.6-29.3,0-47.5,6.4c-0.1,0-0.1,0-0.2,0.1c-3.1,2.6-6,5.3-8.8,8.3c1.8-0.7,3.9-1.5,6.3-2.4c4.6-1.8,12.4-5.2,29.9-7.3
			c5-0.6,16.5-2.7,21.7,5.8c1.6,2.6,2.7,5.1,0.4,10.2c-2.3,5-6,7.1-8.6,7.9s-4.7,1.1-8,0.9c-2.4-0.2-4-0.7-6.5-2.2s-3.3-4.2-3.2-6.8
			c0.2-3,1.7-5.7,3.8-6.4c3.1-1.1,5.4-0.3,6.9,0.9c1.5,1.2,2.1,4.7,1.2,5.8c-0.9,1.2-0.2,5.7,4.6,2.7c1.4-0.9,1.9-5.3-0.1-7.7
			c-5.7-6.8-14.7-5.2-19.1-4.7c-2.7,0.3-12.6,2.9-15.6,3.8c-7.4,2.2-12.7,5-14.8,6.2c-2.3,1.2-4.5,2-6.4,2.4
			c-2.4,3.2-4.5,6.6-6.5,10.1c0.2-0.1,0.4-0.2,0.7-0.3c3.6-1.5,7.3-1.1,10,1.4c2.3,2.1,1.8,5.8,0.6,7.4c-2,2.7-4.6,2.7-4.6,2.7
			s1.1-0.6,1.2-3c0.1-1.9-1.4-3.5-3.1-3c-1.7,0.4-2.6,2.1-2.5,3.7c0,1.8,0.7,3.4,2,4.7c0.9,0.8,5.6,4.4,13.4-1.9
			c1.2-0.9,2.3-3.3,2.3-3.3s6.4,15.1,21.1,20.6c8.8,3.3,22.7-1.2,22.7-1.2s-4.7,2.5-7.6,8.9c-2.2,4.9-0.6,8.7-0.6,8.7l-13,14
			c0,0,0.8-4.6-3.7-14.4c-4.2-9.1-11.1-13.3-14.8-15.2c-5.4-2.9-14.5-4.4-20.3-8.9c-4.8-3.7-8-7.2-8.5-11.3c-3.4,8-5.8,16.4-7,25.3
			l2.2,0l0.1-7.1c0,0,19.7-1.4,33,11.2c7.5,7.1,6.8,20.3,7,34.5c0.1,11.5-7.8,36.8-11.6,48.4c3.9,3.6,8.1,6.9,12.6,9.9
			c5-29.2,11.3-56.6,33.6-81.4l4.2,4.7c0,0-1.8,2.1-7.4,10.7c-3.3,4.9-10.8,19.5-15.7,37.8c-4.3,16-7.5,25.7-7.9,32.4
			c13.6,7.4,29,11.6,45.5,11.6v-4.8h-24.9v-6.8h24.9v-65h-16.6l7.1-9.7h9.6v-8.6c-0.3,0-3.7,0.4-6.2-1.2c-3.3-2.1-4.6-10.6-4.9-10.8
			c-1.2-0.8-0.5,0-1.5,1.4c-1.8,2.3-6.2,1.3-6.5-2.1c-0.4-3.7,1.5-5.3,4.5-6.1c1.4-0.4,2.7-0.4,4.6,0.3c1.7,0.6,2.9,1.6,3.2,1.9
			c-0.3-0.3-1.8-1.8-2.7-3.2c-1-1.5-0.1-4.7,1-7c1.1-2.2,0.8-5,0.8-5l7.8-7.2v-7.3l-8.4,8.3C221.9,160,215.2,160,214.1,160.1z
			 M196,170.4c-4.7,0.2-11.3-3.4-14.8-5.7c-6.2-4.1-8.2-9.7-8.2-9.7s8.7,1.4,11.3,1.7c2.6,0.2,7.5,0,11.6,1.4c4.2,1.4,10,8.4,10,8.4
			S204.3,170,196,170.4z M216.4,223.6h10l-5.3,48.2h-20L216.4,223.6z"/>
	</g>
	<polygon points="230.4,281.4 230.4,281.4 230.4,216.4 230.4,216.4 230.4,216.4 230.4,216.4 230.4,281.4 230.4,281.4 	"/>
	<path d="M230.4,288.2L230.4,288.2L230.4,288.2l0,4.8c0,0,0,0,0,0c0,0,0,0,0,0L230.4,288.2L230.4,288.2z"/>
	<polygon points="230.4,159 230.4,159 230.4,159 230.4,159 230.4,159 230.4,151.7 230.4,151.7 230.4,151.7 230.4,159 230.4,159 	"/>
	<path d="M230.4,206.7L230.4,206.7l0-8.6c0,0,0,0,0,0c0,0,0,0,0,0L230.4,206.7L230.4,206.7L230.4,206.7z"/>
	<path fill="#FFFFFF" d="M264.8,158.1c-4.2,1.4-10,8.4-10,8.4s1.7,3.5,10,3.9c4.7,0.2,11.3-3.4,14.8-5.7c6.2-4.1,8.2-9.7,8.2-9.7
		s-8.7,1.4-11.3,1.7C273.8,156.9,269,156.7,264.8,158.1z"/>
	<g>
		<path fill="#FFFFFF" d="M274.9,281.4c-0.2-4.8-2-11.2-4.7-20.9c-0.9-3.4-2-7.1-3.1-11.3c-4.6-17.1-11.8-31.8-15.6-37.5
			c-5.5-8.4-7.3-10.6-7.4-10.6l-0.5-0.7l5.6-6.2l0.7,0.8c22.6,25.2,28.9,53.1,33.8,81.9l0.1,0.6l-0.5,0.4c-2.2,1.5-4.6,2.9-6.9,4.2
			L275,283L274.9,281.4z"/>
		<g>
			<path fill="#FFFFFF" d="M249.2,195.8c22.3,24.8,28.6,52.2,33.6,81.4c-2.2,1.5-4.5,2.8-6.9,4.1c-0.3-6.7-3.6-16.4-7.9-32.4
				c-4.9-18.3-12.4-32.8-15.7-37.8c-5.7-8.6-7.4-10.7-7.4-10.7L249.2,195.8 M249.2,192.8l-1.5,1.7l-4.2,4.7l-1.2,1.3l1.1,1.3
				c0,0,1.8,2.2,7.3,10.5c2.6,3.9,10.3,18.2,15.4,37.2c1.1,4.2,2.2,8,3.1,11.3c2.6,9.3,4.5,15.9,4.7,20.7l0.1,3.2l2.8-1.5
				c2.4-1.3,4.7-2.7,7-4.2l1.1-0.7l-0.2-1.3c-4.9-28.9-11.3-57-34.1-82.4L249.2,192.8L249.2,192.8z"/>
		</g>
	</g>
	<path fill="#FFFFFF" d="M313.5,145.1c-3.6-1.5-7.3-1.1-10,1.4c-2.3,2.1-1.8,5.8-0.6,7.4c2,2.7,4.6,2.7,4.6,2.7s-1.1-0.6-1.2-3
		c-0.1-1.9,1.4-3.5,3.1-3c1.7,0.4,2.6,2.1,2.5,3.7c0,1.8-0.7,3.4-2,4.7c-0.9,0.8-5.6,4.4-13.4-1.9c-1.2-0.9-2.3-3.3-2.3-3.3
		s-6.4,15.1-21.1,20.6c-8.8,3.3-22.7-1.2-22.7-1.2s4.7,2.5,7.6,8.9c2.2,4.9,0.6,8.7,0.6,8.7l13,14c0,0-0.8-4.6,3.7-14.4
		c4.2-9.1,11.1-13.3,14.8-15.2c5.4-2.9,14.5-4.4,20.3-8.9c4.8-3.7,8-7.2,8.5-11.3c-1.4-3.3-3-6.6-4.8-9.7
		C314,145.3,313.7,145.2,313.5,145.1z"/>
	<path fill="#FFFFFF" d="M293.9,124c-4.6-1.8-12.4-5.2-29.9-7.3c-5-0.6-16.5-2.7-21.7,5.8c-1.6,2.6-2.7,5.1-0.4,10.2
		c2.3,5,6,7.1,8.6,7.9c2.6,0.8,4.7,1.1,8,0.9c2.4-0.2,4-0.7,6.5-2.2c2.4-1.5,3.3-4.2,3.2-6.8c-0.2-3-1.7-5.7-3.8-6.4
		c-3.1-1.1-5.4-0.3-6.9,0.9c-1.5,1.2-2.1,4.7-1.2,5.8c0.9,1.2,0.2,5.7-4.6,2.7c-1.4-0.9-1.9-5.3,0.1-7.7c5.7-6.8,14.7-5.2,19.1-4.7
		c2.7,0.3,12.6,2.9,15.6,3.8c7.4,2.2,12.7,5,14.8,6.2c2.3,1.2,4.5,2,6.4,2.4c-2.3-3.1-4.8-6.1-7.5-9
		C298.4,125.7,296.3,124.9,293.9,124z"/>
	<polygon fill="#FFFFFF" points="234.4,223.6 239.7,271.8 259.7,271.8 244.4,223.6 	"/>
	<rect x="230.4" y="281.4" fill="#FFFFFF" width="24.9" height="6.8"/>
	<rect x="230.4" y="281.4" fill="#FFFFFF" width="0" height="6.8"/>
	<path fill="#FFFFFF" d="M245,179.2c-1.4-0.4-2.7-0.4-4.6,0.3c-1.7,0.6-2.9,1.6-3.2,1.9c0.3-0.3,1.8-1.8,2.7-3.2c1-1.5,0.1-4.7-1-7
		c-1.1-2.2-0.8-5-0.8-5l-7.8-7.2v0l-7.8,7.2c0,0,0.3,2.8-0.8,5c-1.1,2.2-2,5.4-1,7c0.9,1.4,2.4,2.9,2.7,3.2
		c-0.3-0.3-1.5-1.3-3.2-1.9c-1.9-0.7-3.2-0.7-4.6-0.3c-3,0.8-4.9,2.4-4.5,6.1c0.3,3.5,4.7,4.5,6.5,2.1c1.1-1.4,0.4-2.1,1.5-1.4
		c0.3,0.2,1.5,8.7,4.9,10.8c2.5,1.6,9.9,1.6,12.5,0c3.3-2.1,4.6-10.6,4.9-10.8c1.2-0.8,0.5,0,1.5,1.4c1.8,2.3,6.2,1.3,6.5-2.1
		C249.9,181.6,248,180,245,179.2z"/>
	<path fill="#FFFFFF" d="M230.4,198.1V159l0,0v0l0,0l0,0v0l0,0L230.4,198.1C230.4,198.1,230.4,198.1,230.4,198.1
		C230.4,198.1,230.4,198.1,230.4,198.1z"/>
	<path fill="#FFFFFF" d="M196,158.1c-4.2-1.4-9-1.2-11.6-1.4c-2.6-0.2-11.3-1.7-11.3-1.7s2,5.6,8.2,9.7c3.5,2.3,10.1,5.9,14.8,5.7
		c8.3-0.4,10-3.9,10-3.9S200.1,159.6,196,158.1z"/>
	<g>
		<path fill="#FFFFFF" d="M184.4,282.3c-2.4-1.3-4.7-2.7-6.9-4.2l-0.5-0.4l0.1-0.6c4.9-28.8,11.2-56.7,33.8-81.9l0.7-0.8l5.6,6.2
			l-0.5,0.7c0,0-1.8,2.2-7.4,10.6c-3.7,5.7-11,20.4-15.6,37.5c-1.1,4.2-2.2,7.9-3.1,11.3c-2.7,9.7-4.5,16.1-4.7,20.9l-0.1,1.6
			L184.4,282.3z"/>
		<g>
			<path fill="#FFFFFF" d="M211.6,195.8l4.2,4.7c0,0-1.8,2.1-7.4,10.7c-3.3,4.9-10.8,19.5-15.7,37.8c-4.3,16-7.5,25.7-7.9,32.4
				c-2.3-1.3-4.6-2.7-6.9-4.1C183,248,189.3,220.6,211.6,195.8 M211.6,192.8l-1.5,1.7C187.3,219.9,181,248,176,276.9l-0.2,1.3
				l1.1,0.7c2.3,1.5,4.6,2.9,7,4.2l2.8,1.5l0.1-3.2c0.2-4.7,2.1-11.4,4.7-20.7c0.9-3.3,2-7.1,3.1-11.3c5.1-19,12.9-33.3,15.4-37.2
				c5.5-8.3,7.3-10.5,7.3-10.6l1.1-1.3l-1.1-1.3l-4.2-4.7L211.6,192.8L211.6,192.8z"/>
		</g>
	</g>
	<polygon fill="#FFFFFF" points="247.1,216.4 240,206.7 230.4,206.7 230.4,216.4 	"/>
	<polygon fill="#FFFFFF" points="220.8,206.7 213.7,216.4 230.4,216.4 230.4,206.7 	"/>
	<polygon fill="#FFFFFF" points="230.4,216.4 230.4,216.4 230.4,206.7 230.4,206.7 230.4,206.7 230.4,206.7 230.4,216.4 
		230.4,216.4 	"/>
	<path fill="#FFFFFF" d="M150.3,166.5c5.8,4.5,14.9,6,20.3,8.9c3.7,1.9,10.6,6.1,14.8,15.2c4.5,9.9,3.7,14.4,3.7,14.4l13-14
		c0,0-1.7-3.8,0.6-8.7c2.9-6.3,7.6-8.9,7.6-8.9s-13.9,4.5-22.7,1.2c-14.8-5.6-21.1-20.6-21.1-20.6s-1.1,2.4-2.3,3.3
		c-7.8,6.3-12.5,2.7-13.4,1.9c-1.3-1.4-2-2.9-2-4.7c0-1.6,0.8-3.3,2.5-3.7c1.7-0.4,3.2,1.1,3.1,3c-0.1,2.4-1.2,3-1.2,3
		s2.6,0,4.6-2.7c1.2-1.6,1.7-5.3-0.6-7.4c-2.8-2.5-6.4-2.9-10-1.4c-0.2,0.1-0.5,0.2-0.7,0.3c-1.8,3.1-3.3,6.4-4.8,9.7
		C142.3,159.3,145.5,162.8,150.3,166.5z"/>
	<path fill="#FFFFFF" d="M159.5,133c2.2-1.2,7.4-3.9,14.8-6.2c3-0.9,12.9-3.5,15.6-3.8c4.3-0.4,13.3-2,19.1,4.7
		c2,2.4,1.5,6.8,0.1,7.7c-4.8,3-5.5-1.5-4.6-2.7c0.9-1.2,0.3-4.7-1.2-5.8c-1.5-1.2-3.7-2-6.9-0.9c-2.1,0.8-3.7,3.4-3.8,6.4
		c-0.1,2.6,0.8,5.3,3.2,6.8c2.4,1.5,4.1,2,6.5,2.2c3.3,0.2,5.4,0,8-0.9c2.6-0.8,6.3-2.9,8.6-7.9c2.3-5,1.2-7.6-0.4-10.2
		c-5.2-8.5-16.8-6.4-21.7-5.8c-17.5,2.1-25.3,5.5-29.9,7.3c-2.4,0.9-4.5,1.7-6.3,2.4c-2.7,2.8-5.1,5.8-7.5,9
		C155,135,157.2,134.2,159.5,133z"/>
	<polygon fill="#FFFFFF" points="221.1,271.8 226.4,223.6 216.4,223.6 201.1,271.8 	"/>
	<rect x="205.5" y="281.4" fill="#FFFFFF" width="24.9" height="6.8"/>
	<rect x="230.4" y="281.4" fill="#FFFFFF" width="0" height="6.8"/>
	<rect x="230.4" y="281.4" fill="#FFFFFF" width="0" height="6.8"/>
	<path fill="#FFFFFF" d="M288.6,138.3c-1.8-1.9-4.9-2.2-7.5-1.4c-2.2,0.6-4.2,2.3-4.3,4.8c-0.1,2.1,1.8,3.2,3.7,2.6
		c1.9-0.6,2.8-1.3,2.8-1.3s0.8,1.8-2.4,3.4c-2.5,1.2-6.6,0.8-8.6,0.4c-7.7-1.5-11.4-0.4-17.4,0.8c-18.1,3.6-19.1-14.9-19.1-14.9
		s0.3-10.4,1.6-13.5c1.7-3.9,4-5.9,5.4-6.8l1.4-0.8c0,0-11.7-0.9-12.5-0.9c-0.8,0-1.2,0-1.2,0v0l0,0l0,0v0c0,0-0.4,0-1.2,0
		c-0.8,0-12.5,0.9-12.5,0.9l1,0.5c1.4,0.8,4,2.8,5.8,7.1c1.4,3.1,1.6,13.5,1.6,13.5s-1,18.4-19.1,14.9c-6-1.2-9.7-2.3-17.4-0.8
		c-2.1,0.4-6.1,0.8-8.6-0.4c-3.3-1.5-2.4-3.4-2.4-3.4s0.9,0.7,2.8,1.3c1.9,0.6,3.8-0.5,3.7-2.6c-0.1-2.5-2.1-4.2-4.3-4.8
		c-2.7-0.8-5.8-0.5-7.5,1.4c-2.2,2.3-2.9,8.7,3.7,11.2c1.8,0.7,5.3,1.9,11.4,1.7c6.8-0.3,16.6,1.3,21.3,6.4c1.6,1.8,4.5,2.7,5.6,2.6
		c1.1-0.1,7.8-0.1,7.8-0.1l8.4-8.3v0h0.1v0l8.4,8.3c0,0,6.7,0,7.8,0.1c1.1,0.1,4-0.8,5.6-2.6c4.6-5.2,14.4-6.7,21.3-6.4
		c6.1,0.2,9.6-1,11.4-1.7C291.5,147,290.8,140.6,288.6,138.3z"/>
</g>
<path fill-rule="evenodd" clip-rule="evenodd" fill="none" stroke="#36CC89" stroke-width="3" stroke-miterlimit="10" stroke-dasharray="12,8" d="
	M230.4,87.3c58,0,105,48,105,107.2c0,59.2-47,107.2-105,107.2c-58,0-105-48-105-107.2C125.4,135.3,172.4,87.3,230.4,87.3z"/>
<polygon fill-rule="evenodd" clip-rule="evenodd" fill="#5A5A5A" points="129.2,194.3 117.2,186.1 116.3,202.5 "/>
<polygon fill-rule="evenodd" clip-rule="evenodd" fill="#5A5A5A" points="346.2,227.8 359.5,221.9 357.5,238.2 "/>
<polygon fill-rule="evenodd" clip-rule="evenodd" fill="#5A5A5A" points="338.4,70.5 335.4,56.2 323.3,67.4 "/>
</svg>
