<?xml version="1.0" encoding="utf-8"?>
<!-- Generator: Adobe Illustrator 18.0.0, SVG Export Plug-In . SVG Version: 6.00 Build 0)  -->
<!DOCTYPE svg PUBLIC "-//W3C//DTD SVG 1.1//EN" "http://www.w3.org/Graphics/SVG/1.1/DTD/svg11.dtd">
<svg version="1.1" id="Layer_1" xmlns="http://www.w3.org/2000/svg" xmlns:xlink="http://www.w3.org/1999/xlink" x="0px" y="0px"
	 width="340px" height="382px" viewBox="0 0 340 382" enable-background="new 0 0 340 382" xml:space="preserve">
<g>
	<path fill="#EACF1A" d="M2.5,17.9l0-0.5c0.1-3.1,0.9-6.1,2.4-8.9C6.3,6,8,3.9,10.1,2.3c2-1.6,4-2.3,6-2.3c1.5,0,2.6,0.5,3.5,1.5
		c0.7,0.9,1.1,2,1.1,3.2c0,1.5-0.6,3-1.7,4.5c-0.7,0.9-1.3,1.5-2.1,1.9c-0.3,0.2-0.7,0.3-1,0.3c-0.3,0-0.6-0.1-0.8-0.2
		s-0.5-0.3-0.7-0.5c-0.4-0.4-0.6-0.8-0.6-1.1c0-0.3,0.1-0.6,0.3-0.7c1.7-1.2,2.9-2.5,3.5-3.8c0.2-0.5,0.4-1,0.4-1.5
		c0-1-0.5-1.5-1.4-1.5c-1.5,0-3.1,0.8-4.7,2.5C10.3,6.2,9,8.1,8,10.4c-1.1,2.4-1.6,4.5-1.7,6.5l0,0.6c0,2.4,0.5,3.9,1.5,4.6
		c0.4,0.3,0.8,0.4,1.3,0.4c0.5,0,1-0.1,1.4-0.2s0.9-0.3,1.3-0.5c0.7-0.4,1.6-1,2.7-1.9c0.3-0.3,0.6-0.2,0.8,0.1
		c0.2,0.3,0.3,0.6,0.3,0.9c0,0.6-0.1,1-0.2,1.2c-0.2,0.2-0.4,0.5-0.8,0.8s-0.9,0.6-1.4,0.8c-1.3,0.6-2.6,0.9-3.9,0.9
		c-1.3,0-2.3-0.2-3.1-0.5c-0.8-0.3-1.4-0.8-2-1.3C3.1,21.6,2.5,20,2.5,17.9z"/>
	<path fill="#EACF1A" d="M19.4,24.1c-0.2-0.2-0.4-0.3-0.5-0.5c-0.1-0.2-0.2-0.4-0.2-0.5c0-0.1,0-0.3,0.1-0.5
		c0.1-0.2,0.2-0.5,0.3-0.7c2.1-5.3,3.2-8.8,3.2-10.6c0-0.5-0.2-0.9-0.5-1.1l-0.3-0.2c-0.1-0.1-0.1-0.2-0.1-0.4
		c0-0.2,0.1-0.4,0.2-0.5c0.1-0.2,0.3-0.3,0.5-0.4c0.5-0.2,0.9-0.4,1.4-0.4s0.9,0.1,1.1,0.2s0.5,0.2,0.7,0.4c0.4,0.4,0.6,0.8,0.6,1.2
		c0,0.4,0,0.8-0.1,1.3c-0.1,0.4-0.2,0.9-0.4,1.3s-0.3,0.8-0.4,1.2c-0.1,0.4-0.2,0.6-0.3,0.8c-0.1,0.4-0.1,0.6-0.1,0.7
		c0.3-0.2,0.4-0.4,0.5-0.6l0.6-1.2c1.4-2.5,2.7-4.1,4-4.9C30,8.3,30.5,8.2,31,8.2s1,0.2,1.3,0.6c0.3,0.4,0.5,0.8,0.5,1.2
		c0,0.5,0,0.8-0.1,1.1c-0.1,0.3-0.2,0.6-0.4,0.8c-0.3,0.6-0.8,0.9-1.3,0.9c-0.1,0-0.3,0-0.4-0.1l-0.3-0.3c-0.3-0.3-0.7-0.5-1-0.5
		s-0.7,0.2-1.2,0.6s-0.9,1-1.4,1.6c-1.7,2.2-3,4.6-4.1,7.4L22,23.4c-0.2,0.5-0.3,0.8-0.5,1c-0.1,0.2-0.3,0.3-0.6,0.3s-0.5,0-0.8-0.1
		S19.6,24.3,19.4,24.1z"/>
	<path fill="#EACF1A" d="M33.9,23.4c-0.4-0.4-0.8-1-1-1.6c-0.3-0.6-0.4-1.4-0.4-2.3c0-0.9,0.1-1.8,0.3-2.7c0.2-0.9,0.5-1.8,1-2.6
		c0.4-0.8,0.9-1.6,1.5-2.4c0.6-0.7,1.2-1.4,1.9-1.9c1.5-1.2,3.1-1.8,4.8-1.8c2.2,0,3.6,1,4.4,2.8c0.5,1.4,0.6,3,0.1,5
		c-0.4,1.8-1.2,3.4-2.4,4.9c-1.2,1.5-2.5,2.6-4.1,3.2c-0.8,0.3-1.6,0.5-2.4,0.5c-0.8,0-1.5-0.1-2.1-0.3S34.4,23.8,33.9,23.4z
		 M37,15.8c-0.3,0.8-0.6,1.6-0.7,2.4s-0.3,1.6-0.3,2.3c0,0.7,0.1,1.3,0.3,1.7c0.2,0.4,0.6,0.6,1,0.6c0.5,0,1-0.2,1.4-0.5
		c0.5-0.3,0.9-0.8,1.4-1.3c0.4-0.5,0.9-1.2,1.2-1.9c0.4-0.7,0.7-1.5,1-2.2c0.6-1.7,0.9-3.2,0.9-4.5c0-1.2-0.2-1.9-0.7-2.2
		c-0.2-0.1-0.5-0.2-0.8-0.2c-0.3,0-0.7,0.2-1.2,0.5s-0.9,0.7-1.3,1.3s-0.9,1.1-1.3,1.8C37.6,14.3,37.3,15,37,15.8z"/>
	<path fill="#EACF1A" d="M51.9,23c0,0.2-0.2,1-0.7,2.5c-0.4,1.5-0.8,2.7-1.1,3.6c-0.7,2-1.2,3.2-1.6,3.7c-0.3,0.4-0.8,0.6-1.3,0.6
		c-0.6,0-1.1-0.3-1.4-0.9c-0.1-0.2-0.1-0.4-0.1-0.6s0.2-0.6,0.5-1.3c0.8-1.7,1.9-5.1,3.3-10.2c0.6-2,0.9-3.4,1.1-4.1l0.5-2
		c0.3-1.3,0.5-2.2,0.6-2.7c0.1-0.5,0-0.8-0.1-1c-0.1-0.2-0.2-0.3-0.4-0.4C51,10,50.9,9.9,50.8,9.9c-0.1-0.1-0.2-0.2-0.2-0.4
		s0.1-0.4,0.3-0.5c0.2-0.2,0.3-0.3,0.6-0.4c0.5-0.2,0.9-0.3,1.4-0.3s0.9,0.1,1.1,0.2c0.3,0.1,0.5,0.3,0.7,0.5
		c0.4,0.4,0.5,0.8,0.5,1.2c-0.1,0.8-0.2,1.5-0.3,2.1c1.8-2.6,3.7-3.9,5.7-3.9c1.8,0,3,0.9,3.6,2.8c0.2,0.7,0.3,1.4,0.3,2.4
		s-0.1,1.9-0.4,2.8c-0.3,0.9-0.7,1.8-1.1,2.7c-0.5,0.8-1,1.6-1.7,2.3c-0.6,0.7-1.3,1.3-2,1.9c-1.5,1.1-2.9,1.6-4.3,1.6
		S52.5,24.1,51.9,23z M54.3,16.3c-0.4,0.7-0.7,1.5-0.9,2.2c-0.2,0.7-0.4,1.4-0.4,2c0,0.6,0.1,1.1,0.4,1.5c0.3,0.4,0.7,0.6,1.2,0.6
		s1-0.1,1.5-0.4c0.5-0.3,1-0.7,1.5-1.1s0.9-1,1.3-1.7c0.4-0.6,0.8-1.3,1.1-2c0.7-1.6,1-3,1-4.4c0-0.8-0.1-1.3-0.3-1.8
		s-0.5-0.6-0.9-0.6s-0.8,0.2-1.3,0.5c-0.5,0.3-0.9,0.7-1.4,1.3s-1,1.1-1.5,1.8C55.1,14.8,54.7,15.5,54.3,16.3z"/>
	<path fill="#EACF1A" d="M69.6,23c0,0.2-0.2,1-0.7,2.5c-0.4,1.5-0.8,2.7-1.1,3.6c-0.7,2-1.2,3.2-1.6,3.7c-0.3,0.4-0.8,0.6-1.3,0.6
		c-0.6,0-1.1-0.3-1.4-0.9c-0.1-0.2-0.1-0.4-0.1-0.6s0.2-0.6,0.5-1.3c0.8-1.7,1.9-5.1,3.3-10.2c0.6-2,0.9-3.4,1.1-4.1l0.5-2
		c0.3-1.3,0.5-2.2,0.6-2.7c0.1-0.5,0-0.8-0.1-1c-0.1-0.2-0.2-0.3-0.4-0.4c-0.1-0.1-0.3-0.2-0.4-0.3c-0.1-0.1-0.2-0.2-0.2-0.4
		s0.1-0.4,0.3-0.5c0.2-0.2,0.3-0.3,0.6-0.4c0.5-0.2,0.9-0.3,1.4-0.3s0.9,0.1,1.1,0.2c0.3,0.1,0.5,0.3,0.7,0.5
		c0.4,0.4,0.5,0.8,0.5,1.2c-0.1,0.8-0.2,1.5-0.3,2.1c1.8-2.6,3.7-3.9,5.7-3.9c1.8,0,3,0.9,3.6,2.8c0.2,0.7,0.3,1.4,0.3,2.4
		s-0.1,1.9-0.4,2.8c-0.3,0.9-0.7,1.8-1.1,2.7c-0.5,0.8-1,1.6-1.7,2.3c-0.6,0.7-1.3,1.3-2,1.9c-1.5,1.1-2.9,1.6-4.3,1.6
		S70.3,24.1,69.6,23z M72.1,16.3c-0.4,0.7-0.7,1.5-0.9,2.2c-0.2,0.7-0.4,1.4-0.4,2c0,0.6,0.1,1.1,0.4,1.5c0.3,0.4,0.7,0.6,1.2,0.6
		s1-0.1,1.5-0.4c0.5-0.3,1-0.7,1.5-1.1s0.9-1,1.3-1.7c0.4-0.6,0.8-1.3,1.1-2c0.7-1.6,1-3,1-4.4c0-0.8-0.1-1.3-0.3-1.8
		s-0.5-0.6-0.9-0.6s-0.8,0.2-1.3,0.5c-0.5,0.3-0.9,0.7-1.4,1.3s-1,1.1-1.5,1.8C72.9,14.8,72.4,15.5,72.1,16.3z"/>
	<path fill="#EACF1A" d="M84.7,19c0-0.9,0.2-1.8,0.5-2.6c0.3-0.8,0.6-1.6,1.1-2.4c0.4-0.8,1-1.5,1.6-2.2s1.2-1.3,1.9-1.8
		c1.5-1.1,3-1.7,4.5-1.7c1.8,0,3,0.7,3.6,2.2c0.2,0.5,0.3,1.1,0.3,1.8c0,0.7-0.1,1.3-0.4,1.9s-0.6,1.1-1,1.6c-0.4,0.5-1,0.9-1.6,1.3
		c-0.6,0.4-1.3,0.7-2,1c-1.5,0.5-3.1,0.8-4.8,0.8c0,0.1-0.1,0.4-0.1,0.7s0,0.6,0.1,1c0.1,0.4,0.2,0.7,0.4,1c0.4,0.6,0.9,0.9,1.6,0.9
		c1.2,0,2.4-0.4,3.6-1.1c0.4-0.2,0.7-0.5,1-0.7c0.3-0.3,0.5-0.4,0.7-0.4s0.4,0.1,0.5,0.3s0.2,0.5,0.2,0.8c0,0.6-0.2,1-0.5,1.4
		c-1.3,1.3-3.3,2-5.9,2c-1.5,0-2.8-0.5-3.7-1.4C85.2,22.2,84.7,20.8,84.7,19z M93.9,10.3c-1.1,0-2.2,0.8-3.2,2.3
		c-0.9,1.3-1.6,2.8-2.1,4.6c1.8-0.2,3.3-0.9,4.6-2.1c1.2-1.1,1.8-2.2,1.8-3.3S94.6,10.3,93.9,10.3z"/>
	<path fill="#EACF1A" d="M99.8,24.1c-0.2-0.2-0.4-0.3-0.5-0.5c-0.1-0.2-0.2-0.4-0.2-0.5c0-0.1,0-0.3,0.1-0.5
		c0.1-0.2,0.2-0.5,0.3-0.7c2.1-5.3,3.2-8.8,3.2-10.6c0-0.5-0.2-0.9-0.5-1.1l-0.3-0.2c-0.1-0.1-0.1-0.2-0.1-0.4
		c0-0.2,0.1-0.4,0.2-0.5c0.1-0.2,0.3-0.3,0.5-0.4c0.5-0.2,0.9-0.4,1.4-0.4s0.9,0.1,1.1,0.2s0.5,0.2,0.7,0.4c0.4,0.4,0.6,0.8,0.6,1.2
		c0,0.4,0,0.8-0.1,1.3c-0.1,0.4-0.2,0.9-0.4,1.3s-0.3,0.8-0.4,1.2c-0.1,0.4-0.2,0.6-0.3,0.8c-0.1,0.4-0.1,0.6-0.1,0.7
		c0.3-0.2,0.4-0.4,0.5-0.6l0.6-1.2c1.4-2.5,2.7-4.1,4-4.9c0.4-0.2,0.8-0.3,1.4-0.3s1,0.2,1.3,0.6c0.3,0.4,0.5,0.8,0.5,1.2
		c0,0.5,0,0.8-0.1,1.1c-0.1,0.3-0.2,0.6-0.4,0.8c-0.3,0.6-0.8,0.9-1.3,0.9c-0.1,0-0.3,0-0.4-0.1l-0.3-0.3c-0.3-0.3-0.7-0.5-1-0.5
		s-0.7,0.2-1.2,0.6s-0.9,1-1.4,1.6c-1.7,2.2-3,4.6-4.1,7.4l-0.7,1.8c-0.2,0.5-0.3,0.8-0.5,1c-0.1,0.2-0.3,0.3-0.6,0.3
		s-0.5,0-0.8-0.1S100.1,24.3,99.8,24.1z"/>
</g>
<g>
	<path fill="#969696" d="M222.5,109c-0.1-0.3-0.2-0.7-0.2-1.2c0-0.5,0.1-1,0.2-1.6c0.1-0.6,0.3-1.3,0.5-2.1c0.6-1.7,1.3-3.2,2.3-4.5
		c0.2-0.2,0.3-0.3,0.5-0.3c0.2,0,0.4,0,0.5,0.1s0.3,0.2,0.5,0.3c0.3,0.3,0.4,0.5,0.3,0.7c-0.8,1.3-1.5,2.5-2,3.5
		c1.3-0.1,2.4-0.5,3.4-1.2c1.1-0.8,1.6-1.8,1.6-2.9c0-0.8-0.4-1.3-1.1-1.5c-0.2-0.1-0.5-0.1-0.8-0.1s-0.7,0-1,0.1
		c-0.3,0.1-0.7,0.2-1,0.3c-0.6,0.2-1.2,0.5-1.7,0.9c-0.1,0.1-0.3,0.2-0.4,0.2c-0.1,0-0.3,0-0.4-0.1c-0.1-0.1-0.3-0.1-0.4-0.2
		c-0.4-0.4-0.4-0.8,0.2-1.2c0.8-0.6,2.1-1,3.7-1.1c0.3,0,0.7,0,1.2,0s1,0.1,1.6,0.2c0.5,0.2,1,0.4,1.3,0.7c0.6,0.5,0.9,1.3,0.9,2.2
		c0,0.8-0.3,1.7-1,2.5c-0.6,0.8-1.4,1.4-2.4,1.9c0.5,0.2,0.8,0.5,1,0.9c0.2,0.4,0.3,0.8,0.3,1.2c0,0.4-0.1,0.8-0.3,1.2
		c-0.2,0.4-0.4,0.7-0.6,1c-0.3,0.3-0.6,0.5-0.9,0.8c-0.4,0.2-0.7,0.4-1.1,0.5c-0.8,0.3-1.6,0.4-2.4,0.4
		C223.6,110.3,222.8,109.9,222.5,109z M224.6,105.2c-0.4,1.1-0.7,2-0.7,2.8c0,0.4,0.1,0.7,0.3,0.9c0.2,0.2,0.5,0.3,0.8,0.3
		c0.4,0,0.7-0.1,1.1-0.2s0.7-0.4,1-0.6c0.7-0.6,1.1-1.3,1.1-2.1c0-0.7-0.3-1.2-0.9-1.4c-0.2-0.1-0.4-0.1-0.6-0.1
		c-0.3,0-0.6,0.1-1.1,0.2C225.1,105.1,224.7,105.2,224.6,105.2z"/>
	<path fill="#969696" d="M232.6,109.7c-0.2-0.2-0.4-0.5-0.6-0.9c-0.1-0.4-0.2-0.8-0.2-1.2s0.1-1,0.2-1.5c0.1-0.5,0.3-1,0.5-1.4
		c0.2-0.5,0.5-0.9,0.8-1.3c0.3-0.4,0.7-0.7,1-1c0.8-0.6,1.7-1,2.6-1c1.2,0,2,0.5,2.4,1.6c0.3,0.7,0.3,1.7,0.1,2.7
		c-0.2,1-0.7,1.9-1.3,2.7c-0.6,0.8-1.4,1.4-2.2,1.7c-0.4,0.2-0.9,0.3-1.3,0.3s-0.8-0.1-1.1-0.2S232.8,109.9,232.6,109.7z
		 M234.2,105.5c-0.2,0.4-0.3,0.9-0.4,1.3c-0.1,0.4-0.1,0.9-0.1,1.3c0,0.4,0.1,0.7,0.2,0.9c0.1,0.2,0.3,0.3,0.6,0.3s0.5-0.1,0.8-0.3
		c0.3-0.2,0.5-0.4,0.7-0.7c0.2-0.3,0.5-0.6,0.7-1s0.4-0.8,0.6-1.2c0.3-0.9,0.5-1.7,0.5-2.5c0-0.6-0.1-1-0.4-1.2
		c-0.1-0.1-0.2-0.1-0.4-0.1c-0.2,0-0.4,0.1-0.6,0.3c-0.2,0.2-0.5,0.4-0.7,0.7c-0.2,0.3-0.5,0.6-0.7,1S234.4,105.1,234.2,105.5z"/>
	<path fill="#969696" d="M241.2,110.1c-0.2,0.2-0.4,0.3-0.6,0.3s-0.2,0-0.3-0.1c-0.1,0-0.2-0.1-0.2-0.1c-0.2-0.1-0.3-0.3-0.3-0.4
		c0-0.1,0.1-0.2,0.2-0.3l0.5-0.4c0.9-0.8,1.7-1.6,2.3-2.5c-0.5-1.4-0.7-2.6-0.7-3.5c0-0.5,0.2-0.9,0.6-1.2c0.3-0.3,0.7-0.4,1.1-0.4
		c0.1,0,0.2,0,0.2,0.1c0,0.1,0.1,0.2,0.1,0.3s0,0.3,0,0.5c0,0.2,0,0.3,0,0.5c0,0.2,0,0.4,0,0.6c0.1,0.6,0.1,1,0.2,1.4l0.3-0.5
		c0.7-1,1.4-1.9,2.3-2.5c0.5-0.3,0.9-0.5,1.3-0.5c0.3,0,0.6,0,0.7,0.1c0.3,0.2,0.4,0.3,0.3,0.5c0,0-0.1,0.1-0.1,0.1l-0.2,0.1
		c-0.9,0.4-2.1,1.4-3.5,2.9c-0.3,0.3-0.5,0.6-0.8,0.9l0.3,1c0.4,1.2,0.8,1.8,1.3,1.8c0.2,0,0.4,0,0.5-0.1l0.3-0.1c0.1,0,0.1,0,0.2,0
		c0.1,0,0.2,0.1,0.2,0.2c0,0.5-0.3,0.9-0.8,1.3c-0.3,0.2-0.7,0.3-1.2,0.3c-0.8,0-1.6-0.9-2.3-2.6
		C242.6,108.8,241.9,109.6,241.2,110.1z"/>
</g>
<g>
	<path fill="#C9E2A8" d="M313.7,147.1c0.7,1,2.5,1.9,5.4,2.9c1.7,0.6,3.2,1,4.6,1.2c0.4,0.1,0.7,0.1,0.9,0.1c0-0.2-0.1-0.4-0.2-0.6
		L324,150c-0.1-0.2,0-0.4,0.2-0.7c0.2-0.3,0.4-0.4,0.6-0.4c0.2,0,0.3,0.1,0.4,0.3c0.1,0.2,0.2,0.4,0.3,0.6c0.2,0.5,0.2,0.8,0.2,1.1
		c0,0.3,0,0.6-0.1,0.8c0,0.2-0.1,0.4-0.2,0.6c-0.3,0.4-0.6,0.7-1.1,0.7c-0.8,0-2.2-0.3-4.2-0.8c-3.1-0.9-5.3-2-6.6-3.2
		c-0.3-0.3-0.6-0.7-0.7-1.1c0-0.1-0.1-0.2-0.1-0.3c0-0.1,0-0.2,0.1-0.3c0-0.1,0.1-0.2,0.1-0.2c0.1-0.1,0.2-0.2,0.3-0.2
		S313.6,147,313.7,147.1z"/>
	<path fill="#C9E2A8" d="M319.9,159.6c0-0.3-0.5-0.9-1.4-1.8c-0.7-0.6-1.3-1.1-1.6-1.4l-0.9-0.7c-0.6-0.3-1.1-0.6-1.5-0.8l-1-0.4
		c-0.2-0.1-0.4-0.2-0.5-0.3c-0.1-0.1-0.1-0.2-0.1-0.3c0-0.1,0-0.3,0.1-0.4c0.1-0.1,0.1-0.3,0.2-0.4c0.2-0.2,0.4-0.3,0.6-0.3
		c0.1,0,0.2,0.1,0.5,0.2l0.7,0.3c0.2,0.1,0.5,0.2,0.8,0.3l1.1,0.5c1.6,0.7,2.7,1,3.2,1c0.3,0,0.4-0.1,0.6-0.2l0.1-0.2
		c0-0.1,0.1-0.1,0.2-0.1c0.1,0,0.2,0,0.3,0.1c0.1,0.1,0.2,0.2,0.2,0.3c0.1,0.2,0.2,0.5,0.2,0.8c0,0.3,0,0.4-0.1,0.6
		s-0.1,0.3-0.2,0.4c-0.2,0.2-0.4,0.3-0.6,0.3s-0.4,0-0.6-0.1c-0.2-0.1-0.4-0.1-0.6-0.2c-0.2-0.1-0.4-0.2-0.6-0.3
		c-0.5-0.2-0.8-0.4-0.9-0.4c-0.1-0.1-0.1-0.1-0.1,0c1.3,1,2.1,1.6,2.3,1.8c0.5,0.4,0.8,0.8,1,1c0.3,0.4,0.5,0.9,0.5,1.2
		c0,0.4-0.1,0.7-0.4,0.9s-0.6,0.3-1,0.3c-0.3,0-0.8-0.1-1.2-0.3s-0.8-0.3-1-0.4l1.6,1.2l0.8,0.7c0.5,0.4,0.8,0.8,0.9,1.1
		s0.2,0.6,0.2,0.8c0,0.2,0,0.4-0.1,0.6c-0.1,0.2-0.2,0.4-0.3,0.5c-0.3,0.3-0.6,0.4-1.1,0.4c-0.4,0-0.9-0.1-1.3-0.3s-0.8-0.4-1.1-0.5
		c-0.3-0.1-0.6-0.3-0.9-0.4c-0.9-0.4-1.5-0.6-2-0.6c-0.3,0-0.4,0.1-0.4,0.4c0,0.2,0,0.4,0.1,0.6c0.1,0.2,0.1,0.3,0.1,0.4
		c0,0.1-0.1,0.2-0.2,0.2c-0.5,0-0.9-0.3-1.2-0.8c-0.2-0.3-0.3-0.6-0.3-0.9c0-0.3,0-0.5,0.1-0.7s0.2-0.3,0.3-0.5
		c0.3-0.3,0.7-0.5,1.2-0.5s0.9,0.1,1.3,0.2s0.8,0.3,1.2,0.4c0.4,0.2,0.7,0.3,1,0.5c0.3,0.2,0.6,0.3,0.8,0.4c0.4,0.2,0.7,0.3,0.9,0.3
		c0.2,0,0.3-0.1,0.3-0.3c0-0.3-0.5-0.8-1.5-1.6c-0.8-0.6-1.3-1-1.7-1.2l-0.8-0.6c-0.6-0.3-1.1-0.6-1.5-0.7l-1-0.4
		c-0.2-0.1-0.4-0.2-0.5-0.3c-0.1-0.1-0.1-0.2-0.1-0.3s0-0.3,0.1-0.4c0-0.1,0.1-0.2,0.2-0.3c0.2-0.2,0.3-0.3,0.5-0.3
		c0.2,0,0.4,0.1,0.7,0.2c0.3,0.1,0.7,0.3,1,0.4l2.5,1.2c0.9,0.4,1.5,0.6,1.7,0.6C319.8,159.9,319.9,159.8,319.9,159.6z M317.6,160.4
		C317.6,160.4,317.6,160.4,317.6,160.4L317.6,160.4C317.6,160.4,317.6,160.4,317.6,160.4z"/>
	<path fill="#C9E2A8" d="M315.1,173.6c-0.5,0-0.8,0.2-0.8,0.5c0,0.2,0,0.5,0.1,0.6c0.1,0.2,0.1,0.3,0.1,0.3c0,0.1-0.1,0.2-0.2,0.2
		c-0.5,0-0.9-0.2-1.2-0.7c-0.4-0.5-0.4-1.1-0.3-1.6c0.1-0.4,0.4-0.6,0.8-0.8c0.2-0.1,0.4-0.1,0.6-0.1c0.3,0,0.6,0,0.9,0.1
		c-1.1-0.5-1.8-1.2-2.2-1.9c-0.2-0.3-0.2-0.6-0.2-1s0.1-0.6,0.2-0.9c0.1-0.3,0.3-0.5,0.6-0.6c0.5-0.4,1.2-0.5,2-0.5
		c1,0,2,0.3,2.9,0.9c0.9,0.5,1.6,1.1,2.2,1.9c0.6,0.8,0.9,1.5,0.9,2.2s-0.3,1.2-0.9,1.6c0.6,0.4,0.9,0.7,0.9,1
		c0,0.3-0.1,0.6-0.2,0.7c-0.2,0.3-0.4,0.4-0.6,0.3c-2.8-1.4-4.6-2.1-5.3-2.1C315.3,173.6,315.2,173.6,315.1,173.6z M315.1,169
		c-0.7,0-1,0.2-1,0.6c0,0.3,0.3,0.7,0.8,1.2c0.8,0.7,1.9,1.3,3.3,1.9c0.4,0.2,0.9,0.3,1.3,0.4c0.4,0,0.7-0.2,0.8-0.5
		c0.1-0.1,0.1-0.2,0.1-0.4c0-0.2-0.1-0.4-0.2-0.7c-0.1-0.3-0.3-0.5-0.6-0.8c-0.2-0.2-0.5-0.5-0.9-0.7c-0.3-0.2-0.7-0.4-1.1-0.6
		C316.8,169.1,315.9,169,315.1,169z"/>
	<path fill="#C9E2A8" d="M314.7,181.2c-1.3-0.8-1.9-1.8-1.9-2.8c0-0.9,0.5-1.5,1.5-1.9c0.3-0.1,0.8-0.2,1.2-0.2s1,0.1,1.5,0.2
		c0.5,0.1,1,0.3,1.4,0.6s0.9,0.5,1.2,0.9c0.4,0.3,0.7,0.7,1,1.1c0.6,0.8,0.9,1.6,0.9,2.3s-0.4,1.3-1.1,1.7c0.1,0.1,0.1,0.1,0.2,0.2
		c0.1,0.1,0.1,0.1,0.2,0.2c0.1,0.1,0.2,0.3,0.2,0.4c0,0.1,0,0.2-0.1,0.3c0,0.1-0.1,0.2-0.2,0.3c-0.2,0.3-0.3,0.4-0.4,0.3
		c-0.7-0.3-1.3-0.6-1.9-0.8l-3.9-1.2c-3-1-4.9-2.2-5.8-3.7c-0.2-0.4-0.4-0.7-0.4-1c0-0.3,0-0.5,0-0.6s0.1-0.2,0.1-0.3
		c0.1-0.2,0.3-0.3,0.4-0.3c0.2,0,0.3,0.1,0.4,0.4c0,0.3,0.1,0.5,0.3,0.8c0.2,0.3,0.4,0.6,0.6,0.8
		C311.1,179.9,312.6,180.7,314.7,181.2z M317.6,178.7c-0.4-0.1-0.8-0.3-1.2-0.3c-0.4-0.1-0.8-0.1-1-0.1s-0.5,0-0.6,0s-0.3,0-0.4,0.1
		c-0.2,0.1-0.3,0.3-0.3,0.5s0.1,0.4,0.2,0.6c0.2,0.2,0.4,0.4,0.6,0.7s0.6,0.5,0.9,0.7s0.7,0.5,1.2,0.7c0.9,0.5,1.8,0.8,2.6,1
		c0.2,0,0.3-0.1,0.5-0.3c0.3-0.3,0.5-0.6,0.5-0.9s-0.1-0.5-0.2-0.8c-0.2-0.3-0.4-0.5-0.6-0.7c-0.3-0.2-0.6-0.4-0.9-0.6
		C318.4,179.1,318,178.9,317.6,178.7z"/>
	<path fill="#C9E2A8" d="M315.8,185.4c0.5,0,0.9,0.1,1.4,0.2c0.4,0.1,0.9,0.3,1.3,0.6c0.4,0.2,0.8,0.5,1.2,0.8c0.4,0.3,0.7,0.7,1,1
		c0.6,0.8,0.9,1.6,0.9,2.4c0,0.9-0.4,1.6-1.2,1.9c-0.3,0.1-0.6,0.2-0.9,0.2c-0.4,0-0.7-0.1-1-0.2c-0.3-0.1-0.6-0.3-0.8-0.6
		c-0.3-0.2-0.5-0.5-0.7-0.8c-0.2-0.3-0.4-0.7-0.5-1.1c-0.3-0.8-0.4-1.6-0.4-2.5c-0.1,0-0.2,0-0.3,0s-0.3,0-0.5,0
		c-0.2,0-0.4,0.1-0.5,0.2c-0.3,0.2-0.5,0.5-0.5,0.9c0,0.6,0.2,1.3,0.6,1.9c0.1,0.2,0.3,0.4,0.4,0.5c0.1,0.1,0.2,0.3,0.2,0.4
		s-0.1,0.2-0.2,0.3c-0.1,0.1-0.3,0.1-0.4,0.1c-0.3,0-0.5-0.1-0.8-0.2c-0.7-0.7-1-1.7-1-3.1c0-0.8,0.2-1.5,0.7-2
		C314.1,185.6,314.8,185.4,315.8,185.4z M320.4,190.2c0-0.6-0.4-1.1-1.2-1.7c-0.7-0.5-1.5-0.8-2.4-1.1c0.1,0.9,0.5,1.7,1.1,2.4
		c0.6,0.6,1.2,0.9,1.7,0.9S320.4,190.6,320.4,190.2z"/>
	<path fill="#C9E2A8" d="M328,207.9c0,0.2-0.1,0.3-0.3,0.3c-0.1,0-0.3-0.1-0.5-0.4l-0.5-0.7c-0.2-0.2-0.3-0.4-0.5-0.6
		c-0.8-0.8-1.5-1.4-2.2-1.9s-1.4-0.9-2-1.2c-0.6-0.3-1.3-0.6-2.1-0.9c-1.6-0.6-3.3-0.8-5-0.8c-1.3,0-2.5,0.2-3.5,0.6
		c-0.9,0.4-1.6,0.8-1.9,1.3c-0.1,0.1-0.1,0.2-0.2,0.2c-0.1,0-0.2,0-0.2,0c-0.1,0-0.1-0.1-0.2-0.1c-0.1-0.1-0.2-0.3-0.2-0.5
		s0.1-0.4,0.2-0.7c0.2-0.3,0.4-0.5,0.7-0.7c0.3-0.2,0.6-0.5,1-0.7c0.4-0.2,0.8-0.4,1.3-0.6c1-0.3,2-0.5,3-0.5s1.9,0.1,2.8,0.3
		c0.9,0.2,1.7,0.4,2.4,0.7c0.8,0.3,1.5,0.6,2.2,1s1.3,0.8,1.9,1.2c1,0.8,1.9,1.6,2.6,2.5C327.6,206.5,328,207.3,328,207.9z"/>
	<path fill="#C9E2A8" d="M311.1,205.8c0.1,0,0.3,0.1,0.7,0.3c0.3,0.2,0.8,0.4,1.3,0.6c0.5,0.2,1.1,0.4,1.7,0.6s1.2,0.4,1.9,0.6
		l2.2,0.6l-0.2-0.9c0-0.2,0.1-0.4,0.3-0.5c0.1,0,0.1,0,0.2,0s0.2,0.1,0.3,0.2c0.1,0.1,0.2,0.3,0.3,0.5c0.2,0.4,0.4,0.8,0.5,1.2
		l0.2,0.1c0.5,0.1,0.9,0.3,1.4,0.4c0.5,0.1,1,0.3,1.5,0.4c0.5,0.2,0.9,0.3,1.4,0.5c0.4,0.2,0.8,0.4,1.1,0.7c0.7,0.6,1,1.3,1,2.2
		c0,0.6-0.2,1.2-0.5,1.5s-0.8,0.6-1.4,0.6c-0.6,0-1.1-0.2-1.6-0.5c-0.4-0.3-0.6-0.6-0.6-1c0-0.4,0.2-0.8,0.6-0.9
		c0.1,0,0.2-0.1,0.3-0.1c0.1,0,0.2,0.1,0.3,0.2c0.2,0.3,0.5,0.5,0.9,0.6c0.1,0,0.2,0.1,0.4,0.1c0.5,0,0.7-0.2,0.7-0.5
		c0-0.5-0.6-0.9-1.7-1.3c-0.3-0.1-0.7-0.2-1.1-0.4l-2.6-0.8c0.1,0.5,0.1,0.9,0.1,1.1c0,0.2,0,0.4-0.1,0.6c-0.1,0.2-0.1,0.3-0.2,0.5
		c-0.2,0.3-0.5,0.5-0.8,0.5s-0.5-0.2-0.5-0.5l0-1.1c0-0.6,0-1.1-0.1-1.6l-2.4-0.7c-1.6-0.4-2.8-0.8-3.6-1.1
		c-0.7-0.3-1.4-0.6-1.9-0.8c-0.5-0.2-0.7-0.6-0.7-1.1S310.7,205.8,311.1,205.8z"/>
	<path fill="#C9E2A8" d="M314.4,216.2c0,0.1-0.1,0.2-0.3,0.2c-0.2,0-0.5-0.1-0.8-0.3c-0.4-0.3-0.6-0.8-0.6-1.3
		c0-0.6,0.3-1.1,0.8-1.3c0.2-0.1,0.4-0.1,0.7-0.1s0.5,0,0.9,0.1c0.3,0.1,0.7,0.2,1,0.3c0.4,0.1,0.7,0.3,1.1,0.4l1,0.4
		c0.8,0.3,1.3,0.5,1.5,0.5s0.4,0,0.5-0.1c0.1-0.1,0.1-0.1,0.2-0.2l0.1-0.2c0-0.1,0.1-0.1,0.2-0.1c0.1,0,0.2,0,0.3,0.1
		c0.1,0.1,0.2,0.2,0.2,0.3c0.1,0.2,0.2,0.5,0.2,0.9c0,0.8-0.2,1.2-0.6,1.2c-0.5,0-1.1-0.1-1.7-0.4c-0.6-0.3-1.2-0.5-1.5-0.7
		l-1.1-0.5c-0.8-0.4-1.4-0.5-1.8-0.5c-0.2,0-0.4,0.1-0.4,0.4c0,0.2,0,0.4,0.1,0.5S314.4,216.1,314.4,216.2z M323.4,217.9
		c-0.1-0.1-0.2-0.3-0.3-0.4c-0.1-0.2-0.1-0.3-0.1-0.5c0-0.2,0-0.3,0.1-0.5c0.1-0.2,0.2-0.3,0.3-0.4c0.3-0.2,0.6-0.4,0.8-0.4
		s0.5,0,0.6,0.1c0.1,0.1,0.3,0.2,0.3,0.3c0.2,0.3,0.3,0.5,0.3,0.8c0,0.2,0,0.4,0,0.5c0,0.1-0.1,0.3-0.2,0.4
		c-0.2,0.3-0.4,0.4-0.7,0.4c-0.3,0-0.5,0-0.7-0.1C323.7,218.1,323.6,218,323.4,217.9z"/>
	<path fill="#C9E2A8" d="M315.1,223.1c0,0.2-0.1,0.2-0.3,0.2c-0.2,0-0.4-0.1-0.5-0.2c-0.3-0.1-0.6-0.4-0.9-0.9
		c-0.3-0.5-0.5-1-0.5-1.5c0-0.9,0.4-1.5,1.2-1.7c0.9-0.3,3,0.1,6,1.3c0.1-0.6,0.2-1,0.3-1c0,0,0.1,0,0.2,0c0.1,0,0.1,0,0.2,0.1
		c0.1,0.1,0.2,0.1,0.2,0.2c0.2,0.2,0.2,0.4,0.2,0.6v0.7c1.4,0.6,2.2,1,2.4,1.3c0.1,0.1,0.1,0.3,0.1,0.4s0,0.3-0.1,0.4
		s-0.1,0.2-0.2,0.3c-0.2,0.2-0.4,0.3-0.6,0.3c-0.1,0-0.2,0-0.4-0.1l-1.3-0.6v0.2c0,0.3,0,0.6,0,0.8l0,0.5c0,0.1,0,0.2,0,0.4
		c0,0.2-0.1,0.2-0.2,0.2c-0.7,0-1.1-0.9-1.1-2.6v-0.1l-1.5-0.6c-1.7-0.6-2.9-1-3.6-1c-0.2,0-0.3,0-0.5,0.1c-0.1,0.1-0.2,0.3-0.2,0.5
		s0,0.5,0.1,0.7s0.2,0.4,0.3,0.5c0.1,0.1,0.2,0.3,0.3,0.4C315,222.9,315.1,223,315.1,223.1z"/>
	<path fill="#C9E2A8" d="M315.1,229.2c0,0.2-0.1,0.2-0.3,0.2c-0.2,0-0.4-0.1-0.5-0.2c-0.3-0.1-0.6-0.4-0.9-0.9
		c-0.3-0.5-0.5-1-0.5-1.5c0-0.9,0.4-1.5,1.2-1.7c0.9-0.3,3,0.1,6,1.3c0.1-0.6,0.2-1,0.3-1c0,0,0.1,0,0.2,0c0.1,0,0.1,0,0.2,0.1
		c0.1,0.1,0.2,0.1,0.2,0.2c0.2,0.2,0.2,0.4,0.2,0.6v0.7c1.4,0.6,2.2,1,2.4,1.3c0.1,0.1,0.1,0.3,0.1,0.4s0,0.3-0.1,0.4
		s-0.1,0.2-0.2,0.3c-0.2,0.2-0.4,0.3-0.6,0.3c-0.1,0-0.2,0-0.4-0.1l-1.3-0.6v0.2c0,0.3,0,0.6,0,0.8l0,0.5c0,0.1,0,0.2,0,0.4
		c0,0.2-0.1,0.2-0.2,0.2c-0.7,0-1.1-0.9-1.1-2.6v-0.1l-1.5-0.6c-1.7-0.6-2.9-1-3.6-1c-0.2,0-0.3,0-0.5,0.1c-0.1,0.1-0.2,0.3-0.2,0.5
		s0,0.5,0.1,0.7s0.2,0.4,0.3,0.5c0.1,0.1,0.2,0.3,0.3,0.4C315,229,315.1,229.1,315.1,229.2z"/>
	<path fill="#C9E2A8" d="M315.8,230.5c0.5,0,0.9,0.1,1.4,0.2c0.4,0.1,0.9,0.3,1.3,0.6c0.4,0.2,0.8,0.5,1.2,0.8c0.4,0.3,0.7,0.7,1,1
		c0.6,0.8,0.9,1.6,0.9,2.4c0,0.9-0.4,1.6-1.2,1.9c-0.3,0.1-0.6,0.2-0.9,0.2c-0.4,0-0.7-0.1-1-0.2c-0.3-0.1-0.6-0.3-0.8-0.6
		c-0.3-0.2-0.5-0.5-0.7-0.8c-0.2-0.3-0.4-0.7-0.5-1.1c-0.3-0.8-0.4-1.6-0.4-2.5c-0.1,0-0.2,0-0.3,0s-0.3,0-0.5,0
		c-0.2,0-0.4,0.1-0.5,0.2c-0.3,0.2-0.5,0.5-0.5,0.9c0,0.6,0.2,1.3,0.6,1.9c0.1,0.2,0.3,0.4,0.4,0.5c0.1,0.1,0.2,0.3,0.2,0.4
		s-0.1,0.2-0.2,0.3c-0.1,0.1-0.3,0.1-0.4,0.1c-0.3,0-0.5-0.1-0.8-0.2c-0.7-0.7-1-1.7-1-3.1c0-0.8,0.2-1.5,0.7-2
		C314.1,230.8,314.8,230.5,315.8,230.5z M320.4,235.4c0-0.6-0.4-1.1-1.2-1.7c-0.7-0.5-1.5-0.8-2.4-1.1c0.1,0.9,0.5,1.7,1.1,2.4
		c0.6,0.6,1.2,0.9,1.7,0.9S320.4,235.8,320.4,235.4z"/>
	<path fill="#C9E2A8" d="M314.6,246.8c0,0.1-0.1,0.2-0.2,0.2c-0.5,0-0.9-0.2-1.2-0.7c-0.2-0.3-0.3-0.6-0.3-0.9c0-0.3,0-0.5,0.1-0.7
		s0.2-0.3,0.3-0.5c0.3-0.3,0.8-0.5,1.4-0.5c0.1,0,0.3,0,0.6,0.1c-0.7-0.4-1.2-0.8-1.5-1.2c-0.6-0.6-0.9-1.3-0.9-1.9
		c0-1,0.4-1.6,1.3-1.9c0.3-0.1,0.7-0.2,1.2-0.2s1,0.1,1.5,0.2s1,0.4,1.4,0.6c0.5,0.3,0.9,0.6,1.3,0.9c0.4,0.3,0.7,0.7,1,1.1
		c0.6,0.8,0.9,1.5,0.9,2.2s-0.3,1.2-0.8,1.6c3.3,1,5.2,1.7,5.8,2.2c0.2,0.2,0.4,0.4,0.4,0.6c0,0.4-0.1,0.7-0.3,0.9
		c-0.1,0.1-0.1,0.1-0.2,0.1s-0.2,0-0.4-0.1s-0.5-0.2-0.9-0.4c-1.3-0.5-2.3-0.8-2.9-1c-1.5-0.5-2.6-0.9-3.2-1l-1.5-0.5
		c-1.4-0.4-2.2-0.6-2.6-0.6s-0.6,0.1-0.6,0.4c0,0.2,0,0.4,0.1,0.6l0.1,0.3C314.6,246.6,314.6,246.7,314.6,246.8z M314.1,241.1
		c0,0.6,0.6,1.2,1.7,2c1.2,0.8,2.4,1.3,3.8,1.6c0.4,0,0.7-0.2,0.8-0.5c0.1-0.1,0.1-0.3,0.1-0.5c0-0.2-0.1-0.4-0.2-0.7
		c-0.1-0.3-0.3-0.5-0.6-0.8c-0.2-0.3-0.5-0.5-0.9-0.7c-0.3-0.2-0.7-0.4-1.1-0.6c-0.8-0.3-1.6-0.5-2.4-0.5
		C314.4,240.4,314.1,240.6,314.1,241.1z"/>
	<path fill="#C9E2A8" d="M308.7,246c0-0.2,0.1-0.3,0.3-0.3c0.1,0,0.3,0.1,0.5,0.4l0.5,0.7c0.2,0.2,0.3,0.4,0.5,0.6
		c1.2,1.2,2.6,2.3,4.2,3.2c2.2,1.1,4.5,1.7,7.1,1.7c1.3,0,2.5-0.2,3.5-0.6c0.9-0.3,1.6-0.8,1.9-1.3c0.1-0.1,0.1-0.2,0.2-0.2
		c0.1,0,0.2,0,0.2,0c0.1,0,0.1,0.1,0.2,0.1c0.1,0.1,0.2,0.3,0.2,0.5s-0.1,0.4-0.2,0.7c-0.2,0.3-0.4,0.5-0.7,0.7
		c-0.3,0.2-0.6,0.5-1,0.7c-0.4,0.2-0.8,0.4-1.3,0.6c-1,0.3-2.1,0.5-3,0.5s-1.9-0.1-2.8-0.3c-0.9-0.2-1.7-0.4-2.4-0.7
		c-0.8-0.3-1.5-0.6-2.2-1s-1.3-0.8-1.9-1.2c-1-0.8-1.9-1.6-2.6-2.5C309.1,247.3,308.7,246.6,308.7,246z"/>
</g>
<g>
	<g>
		<polyline fill="none" stroke="#EACF1A" stroke-width="3" stroke-miterlimit="10" points="339,378 339,381 336,381 		"/>
		
			<line fill="none" stroke="#EACF1A" stroke-width="3" stroke-miterlimit="10" stroke-dasharray="6.0356,6.0356" x1="329.9" y1="381" x2="7" y2="381"/>
		<polyline fill="none" stroke="#EACF1A" stroke-width="3" stroke-miterlimit="10" points="4,381 1,381 1,378 		"/>
		
			<line fill="none" stroke="#EACF1A" stroke-width="3" stroke-miterlimit="10" stroke-dasharray="6.0537,6.0537" x1="1" y1="371.9" x2="1" y2="48.1"/>
		<polyline fill="none" stroke="#EACF1A" stroke-width="3" stroke-miterlimit="10" points="1,45 1,42 4,42 		"/>
		
			<line fill="none" stroke="#EACF1A" stroke-width="3" stroke-miterlimit="10" stroke-dasharray="6.0356,6.0356" x1="10" y1="42" x2="332.9" y2="42"/>
		<polyline fill="none" stroke="#EACF1A" stroke-width="3" stroke-miterlimit="10" points="336,42 339,42 339,45 		"/>
		
			<line fill="none" stroke="#EACF1A" stroke-width="3" stroke-miterlimit="10" stroke-dasharray="6.0537,6.0537" x1="339" y1="51.1" x2="339" y2="375"/>
	</g>
</g>
<g>
	<g>
		<line fill="none" stroke="#C9E2A8" stroke-width="2" stroke-miterlimit="10" x1="299.3" y1="42" x2="299.3" y2="43.5"/>
		
			<line fill="none" stroke="#C9E2A8" stroke-width="2" stroke-miterlimit="10" stroke-dasharray="3.018,3.018" x1="299.3" y1="46.6" x2="299.3" y2="377"/>
		<line fill="none" stroke="#C9E2A8" stroke-width="2" stroke-miterlimit="10" x1="299.3" y1="378.5" x2="299.3" y2="380"/>
	</g>
</g>
<g>
	<g>
		<line fill="none" stroke="#C9E2A8" stroke-width="2" stroke-miterlimit="10" x1="38.7" y1="380" x2="38.7" y2="378.5"/>
		
			<line fill="none" stroke="#C9E2A8" stroke-width="2" stroke-miterlimit="10" stroke-dasharray="3.018,3.018" x1="38.7" y1="375.5" x2="38.7" y2="45"/>
		<line fill="none" stroke="#C9E2A8" stroke-width="2" stroke-miterlimit="10" x1="38.7" y1="43.5" x2="38.7" y2="42"/>
	</g>
</g>
<g>
	<g>
		<polyline fill="none" stroke="#F2F2F2" stroke-width="2" stroke-miterlimit="10" points="250,280 250,281.5 248.5,281.5 		"/>
		
			<line fill="none" stroke="#F2F2F2" stroke-width="2" stroke-miterlimit="10" stroke-dasharray="2.9545,2.9545" x1="245.5" y1="281.5" x2="87.5" y2="281.5"/>
		<polyline fill="none" stroke="#F2F2F2" stroke-width="2" stroke-miterlimit="10" points="86,281.5 84.5,281.5 84.5,280 		"/>
		
			<line fill="none" stroke="#F2F2F2" stroke-width="2" stroke-miterlimit="10" stroke-dasharray="2.9545,2.9545" x1="84.5" y1="277.1" x2="84.5" y2="119"/>
		<polyline fill="none" stroke="#F2F2F2" stroke-width="2" stroke-miterlimit="10" points="84.5,117.5 84.5,116 86,116 		"/>
		
			<line fill="none" stroke="#F2F2F2" stroke-width="2" stroke-miterlimit="10" stroke-dasharray="2.9545,2.9545" x1="89" y1="116" x2="247" y2="116"/>
		<polyline fill="none" stroke="#F2F2F2" stroke-width="2" stroke-miterlimit="10" points="248.5,116 250,116 250,117.5 		"/>
		
			<line fill="none" stroke="#F2F2F2" stroke-width="2" stroke-miterlimit="10" stroke-dasharray="2.9545,2.9545" x1="250" y1="120.5" x2="250" y2="278.6"/>
	</g>
</g>
</svg>
