<?xml version="1.0" encoding="utf-8"?>
<!-- Generator: Adobe Illustrator 18.0.0, SVG Export Plug-In . SVG Version: 6.00 Build 0)  -->
<!DOCTYPE svg PUBLIC "-//W3C//DTD SVG 1.1//EN" "http://www.w3.org/Graphics/SVG/1.1/DTD/svg11.dtd">
<svg version="1.1" id="Layer_1" xmlns="http://www.w3.org/2000/svg" xmlns:xlink="http://www.w3.org/1999/xlink" x="0px" y="0px"
	 width="340px" height="382px" viewBox="0 0 340 382" enable-background="new 0 0 340 382" xml:space="preserve">
<g>
	<path fill="#40B481" d="M2.5,17.9v-0.5c0.1-3.1,0.9-6.1,2.4-8.9C6.3,6,8,3.9,10.1,2.3c2-1.6,4-2.3,6-2.3c1.5,0,2.6,0.5,3.5,1.5
		c0.7,0.9,1.1,2,1.1,3.2c0,1.5-0.6,3-1.7,4.5c-0.7,0.9-1.3,1.5-2.1,1.9c-0.3,0.2-0.7,0.3-1,0.3c-0.3,0-0.6-0.1-0.8-0.2
		s-0.5-0.3-0.7-0.5c-0.4-0.4-0.6-0.8-0.6-1.1s0.1-0.6,0.3-0.7c1.7-1.2,2.9-2.5,3.5-3.8c0.2-0.5,0.4-1,0.4-1.5c0-1-0.5-1.5-1.4-1.5
		c-1.5,0-3.1,0.8-4.7,2.5C10.3,6.2,9,8.1,8,10.4c-1.1,2.4-1.6,4.5-1.7,6.5v0.6c0,2.4,0.5,3.9,1.5,4.6c0.4,0.3,0.8,0.4,1.3,0.4
		s1-0.1,1.4-0.2s0.9-0.3,1.3-0.5c0.7-0.4,1.6-1,2.7-1.9c0.3-0.3,0.6-0.2,0.8,0.1c0.2,0.3,0.3,0.6,0.3,0.9c0,0.6-0.1,1-0.2,1.2
		c-0.2,0.2-0.4,0.5-0.8,0.8s-0.9,0.6-1.4,0.8c-1.3,0.6-2.6,0.9-3.9,0.9S7,24.4,6.2,24.1s-1.4-0.8-2-1.3C3.1,21.6,2.5,20,2.5,17.9z"
		/>
	<path fill="#40B481" d="M19.4,24.1c-0.2-0.2-0.4-0.3-0.5-0.5s-0.2-0.4-0.2-0.5s0-0.3,0.1-0.5s0.2-0.5,0.3-0.7
		c2.1-5.3,3.2-8.8,3.2-10.6c0-0.5-0.2-0.9-0.5-1.1L21.5,10c-0.1-0.1-0.1-0.2-0.1-0.4s0.1-0.4,0.2-0.5c0.1-0.2,0.3-0.3,0.5-0.4
		c0.5-0.2,0.9-0.4,1.4-0.4s0.9,0.1,1.1,0.2s0.5,0.2,0.7,0.4c0.4,0.4,0.6,0.8,0.6,1.2s0,0.8-0.1,1.3c-0.1,0.4-0.2,0.9-0.4,1.3
		s-0.3,0.8-0.4,1.2s-0.2,0.6-0.3,0.8c-0.1,0.4-0.1,0.6-0.1,0.7c0.3-0.2,0.4-0.4,0.5-0.6l0.6-1.2c1.4-2.5,2.7-4.1,4-4.9
		C30,8.3,30.5,8.2,31,8.2s1,0.2,1.3,0.6c0.3,0.4,0.5,0.8,0.5,1.2c0,0.5,0,0.8-0.1,1.1s-0.2,0.6-0.4,0.8c-0.3,0.6-0.8,0.9-1.3,0.9
		c-0.1,0-0.3,0-0.4-0.1l-0.3-0.3c-0.3-0.3-0.7-0.5-1-0.5s-0.7,0.2-1.2,0.6s-0.9,1-1.4,1.6c-1.7,2.2-3,4.6-4.1,7.4L22,23.4
		c-0.2,0.5-0.3,0.8-0.5,1c-0.1,0.2-0.3,0.3-0.6,0.3s-0.5,0-0.8-0.1S19.6,24.3,19.4,24.1z"/>
	<path fill="#40B481" d="M33.9,23.4c-0.4-0.4-0.8-1-1-1.6c-0.3-0.6-0.4-1.4-0.4-2.3s0.1-1.8,0.3-2.7c0.2-0.9,0.5-1.8,1-2.6
		c0.4-0.8,0.9-1.6,1.5-2.4c0.6-0.7,1.2-1.4,1.9-1.9c1.5-1.2,3.1-1.8,4.8-1.8c2.2,0,3.6,1,4.4,2.8c0.5,1.4,0.6,3,0.1,5
		c-0.4,1.8-1.2,3.4-2.4,4.9S41.6,23.4,40,24c-0.8,0.3-1.6,0.5-2.4,0.5c-0.8,0-1.5-0.1-2.1-0.3S34.4,23.8,33.9,23.4z M37,15.8
		c-0.3,0.8-0.6,1.6-0.7,2.4S36,19.8,36,20.5c0,0.7,0.1,1.3,0.3,1.7c0.2,0.4,0.6,0.6,1,0.6c0.5,0,1-0.2,1.4-0.5
		c0.5-0.3,0.9-0.8,1.4-1.3c0.4-0.5,0.9-1.2,1.2-1.9c0.4-0.7,0.7-1.5,1-2.2c0.6-1.7,0.9-3.2,0.9-4.5c0-1.2-0.2-1.9-0.7-2.2
		C42.3,10.1,42,10,41.7,10s-0.7,0.2-1.2,0.5s-0.9,0.7-1.3,1.3s-0.9,1.1-1.3,1.8C37.6,14.3,37.3,15,37,15.8z"/>
	<path fill="#40B481" d="M51.9,23c0,0.2-0.2,1-0.7,2.5c-0.4,1.5-0.8,2.7-1.1,3.6c-0.7,2-1.2,3.2-1.6,3.7c-0.3,0.4-0.8,0.6-1.3,0.6
		c-0.6,0-1.1-0.3-1.4-0.9c-0.1-0.2-0.1-0.4-0.1-0.6s0.2-0.6,0.5-1.3c0.8-1.7,1.9-5.1,3.3-10.2c0.6-2,0.9-3.4,1.1-4.1l0.5-2
		c0.3-1.3,0.5-2.2,0.6-2.7s0-0.8-0.1-1s-0.2-0.3-0.4-0.4C51,10,50.9,9.9,50.8,9.9c-0.1-0.1-0.2-0.2-0.2-0.4s0.1-0.4,0.3-0.5
		c0.2-0.2,0.3-0.3,0.6-0.4c0.5-0.2,0.9-0.3,1.4-0.3s0.9,0.1,1.1,0.2c0.3,0.1,0.5,0.3,0.7,0.5c0.4,0.4,0.5,0.8,0.5,1.2
		c-0.1,0.8-0.2,1.5-0.3,2.1c1.8-2.6,3.7-3.9,5.7-3.9c1.8,0,3,0.9,3.6,2.8c0.2,0.7,0.3,1.4,0.3,2.4s-0.1,1.9-0.4,2.8
		c-0.3,0.9-0.7,1.8-1.1,2.7c-0.5,0.8-1,1.6-1.7,2.3c-0.6,0.7-1.3,1.3-2,1.9c-1.5,1.1-2.9,1.6-4.3,1.6S52.5,24.1,51.9,23z M54.3,16.3
		c-0.4,0.7-0.7,1.5-0.9,2.2s-0.4,1.4-0.4,2s0.1,1.1,0.4,1.5c0.3,0.4,0.7,0.6,1.2,0.6s1-0.1,1.5-0.4s1-0.7,1.5-1.1s0.9-1,1.3-1.7
		c0.4-0.6,0.8-1.3,1.1-2c0.7-1.6,1-3,1-4.4c0-0.8-0.1-1.3-0.3-1.8s-0.5-0.6-0.9-0.6s-0.8,0.2-1.3,0.5s-0.9,0.7-1.4,1.3
		s-1,1.1-1.5,1.8C55.1,14.8,54.7,15.5,54.3,16.3z"/>
	<path fill="#40B481" d="M69.6,23c0,0.2-0.2,1-0.7,2.5c-0.4,1.5-0.8,2.7-1.1,3.6c-0.7,2-1.2,3.2-1.6,3.7c-0.3,0.4-0.8,0.6-1.3,0.6
		c-0.6,0-1.1-0.3-1.4-0.9c-0.1-0.2-0.1-0.4-0.1-0.6s0.2-0.6,0.5-1.3c0.8-1.7,1.9-5.1,3.3-10.2c0.6-2,0.9-3.4,1.1-4.1l0.5-2
		c0.3-1.3,0.5-2.2,0.6-2.7s0-0.8-0.1-1s-0.2-0.3-0.4-0.4c-0.1-0.1-0.3-0.2-0.4-0.3s-0.2-0.2-0.2-0.4s0.1-0.4,0.3-0.5
		c0.2-0.2,0.3-0.3,0.6-0.4c0.5-0.2,0.9-0.3,1.4-0.3s0.9,0.1,1.1,0.2C72,8.6,72.2,8.8,72.4,9c0.4,0.4,0.5,0.8,0.5,1.2
		c-0.1,0.8-0.2,1.5-0.3,2.1c1.8-2.6,3.7-3.9,5.7-3.9c1.8,0,3,0.9,3.6,2.8c0.2,0.7,0.3,1.4,0.3,2.4s-0.1,1.9-0.4,2.8
		s-0.7,1.8-1.1,2.7c-0.5,0.8-1,1.6-1.7,2.3c-0.6,0.7-1.3,1.3-2,1.9c-1.5,1.1-2.9,1.6-4.3,1.6S70.3,24.1,69.6,23z M72.1,16.3
		c-0.4,0.7-0.7,1.5-0.9,2.2c-0.2,0.7-0.4,1.4-0.4,2s0.1,1.1,0.4,1.5s0.7,0.6,1.2,0.6s1-0.1,1.5-0.4s1-0.7,1.5-1.1s0.9-1,1.3-1.7
		c0.4-0.6,0.8-1.3,1.1-2c0.7-1.6,1-3,1-4.4c0-0.8-0.1-1.3-0.3-1.8s-0.5-0.6-0.9-0.6s-0.8,0.2-1.3,0.5s-0.9,0.7-1.4,1.3
		s-1,1.1-1.5,1.8C72.9,14.8,72.4,15.5,72.1,16.3z"/>
	<path fill="#40B481" d="M84.7,19c0-0.9,0.2-1.8,0.5-2.6c0.3-0.8,0.6-1.6,1.1-2.4c0.4-0.8,1-1.5,1.6-2.2s1.2-1.3,1.9-1.8
		c1.5-1.1,3-1.7,4.5-1.7c1.8,0,3,0.7,3.6,2.2c0.2,0.5,0.3,1.1,0.3,1.8s-0.1,1.3-0.4,1.9s-0.6,1.1-1,1.6c-0.4,0.5-1,0.9-1.6,1.3
		s-1.3,0.7-2,1c-1.5,0.5-3.1,0.8-4.8,0.8c0,0.1-0.1,0.4-0.1,0.7s0,0.6,0.1,1s0.2,0.7,0.4,1c0.4,0.6,0.9,0.9,1.6,0.9
		c1.2,0,2.4-0.4,3.6-1.1c0.4-0.2,0.7-0.5,1-0.7c0.3-0.3,0.5-0.4,0.7-0.4s0.4,0.1,0.5,0.3s0.2,0.5,0.2,0.8c0,0.6-0.2,1-0.5,1.4
		c-1.3,1.3-3.3,2-5.9,2c-1.5,0-2.8-0.5-3.7-1.4C85.2,22.2,84.7,20.8,84.7,19z M93.9,10.3c-1.1,0-2.2,0.8-3.2,2.3
		c-0.9,1.3-1.6,2.8-2.1,4.6c1.8-0.2,3.3-0.9,4.6-2.1c1.2-1.1,1.8-2.2,1.8-3.3S94.6,10.3,93.9,10.3z"/>
	<path fill="#40B481" d="M99.8,24.1c-0.2-0.2-0.4-0.3-0.5-0.5s-0.2-0.4-0.2-0.5s0-0.3,0.1-0.5s0.2-0.5,0.3-0.7
		c2.1-5.3,3.2-8.8,3.2-10.6c0-0.5-0.2-0.9-0.5-1.1l-0.3-0.2c-0.1-0.1-0.1-0.2-0.1-0.4s0.1-0.4,0.2-0.5c0.1-0.2,0.3-0.3,0.5-0.4
		c0.5-0.2,0.9-0.4,1.4-0.4s0.9,0.1,1.1,0.2s0.5,0.2,0.7,0.4c0.4,0.4,0.6,0.8,0.6,1.2s0,0.8-0.1,1.3c-0.1,0.4-0.2,0.9-0.4,1.3
		s-0.3,0.8-0.4,1.2s-0.2,0.6-0.3,0.8c-0.1,0.4-0.1,0.6-0.1,0.7c0.3-0.2,0.4-0.4,0.5-0.6l0.6-1.2c1.4-2.5,2.7-4.1,4-4.9
		c0.4-0.2,0.8-0.3,1.4-0.3s1,0.2,1.3,0.6c0.3,0.4,0.5,0.8,0.5,1.2c0,0.5,0,0.8-0.1,1.1s-0.2,0.6-0.4,0.8c-0.3,0.6-0.8,0.9-1.3,0.9
		c-0.1,0-0.3,0-0.4-0.1l-0.3-0.3c-0.3-0.3-0.7-0.5-1-0.5s-0.7,0.2-1.2,0.6s-0.9,1-1.4,1.6c-1.7,2.2-3,4.6-4.1,7.4l-0.7,1.8
		c-0.2,0.5-0.3,0.8-0.5,1c-0.1,0.2-0.3,0.3-0.6,0.3s-0.5,0-0.8-0.1S100.1,24.3,99.8,24.1z"/>
</g>
<g>
	<path fill="#969696" d="M122.7,200v-0.2c0.1-1.7,0.5-3.3,1.3-4.8c0.7-1.4,1.7-2.5,2.8-3.4c1.1-0.8,2.2-1.3,3.2-1.3
		c0.8,0,1.4,0.3,1.9,0.8c0.4,0.5,0.6,1.1,0.6,1.8c0,0.8-0.3,1.7-0.9,2.5c-0.4,0.5-0.7,0.8-1.1,1c-0.2,0.1-0.4,0.2-0.5,0.2
		c-0.2,0-0.3,0-0.5-0.1c-0.1-0.1-0.3-0.2-0.4-0.3c-0.2-0.2-0.3-0.4-0.3-0.6s0-0.3,0.1-0.4c0.9-0.7,1.6-1.4,1.9-2.1
		c0.1-0.3,0.2-0.5,0.2-0.8c0-0.6-0.3-0.8-0.8-0.8c-0.8,0-1.7,0.4-2.5,1.3c-0.8,0.8-1.5,1.9-2.1,3.1c-0.6,1.3-0.9,2.5-0.9,3.5v0.3
		c0,1.3,0.3,2.1,0.8,2.5c0.2,0.1,0.4,0.2,0.7,0.2s0.5,0,0.8-0.1c0.2-0.1,0.5-0.2,0.7-0.3c0.4-0.2,0.9-0.5,1.5-1
		c0.2-0.1,0.3-0.1,0.5,0.1c0.1,0.1,0.2,0.3,0.2,0.5c0,0.3,0,0.5-0.1,0.7c-0.1,0.1-0.2,0.3-0.5,0.4c-0.2,0.2-0.5,0.3-0.8,0.4
		c-0.7,0.3-1.4,0.5-2.1,0.5s-1.2-0.1-1.7-0.3c-0.4-0.2-0.8-0.4-1.1-0.7C123,202.1,122.7,201.2,122.7,200z"/>
	<path fill="#969696" d="M132.7,203c-0.2-0.2-0.4-0.5-0.6-0.9s-0.2-0.8-0.2-1.2c0-0.5,0.1-1,0.2-1.5c0.1-0.5,0.3-1,0.5-1.4
		c0.2-0.5,0.5-0.9,0.8-1.3c0.3-0.4,0.7-0.7,1-1c0.8-0.6,1.7-1,2.6-1c1.2,0,2,0.5,2.4,1.6c0.3,0.7,0.3,1.7,0.1,2.7s-0.7,1.9-1.3,2.7
		s-1.4,1.4-2.2,1.7c-0.4,0.2-0.9,0.3-1.3,0.3s-0.8-0.1-1.1-0.2S132.9,203.3,132.7,203z M134.3,198.9c-0.2,0.4-0.3,0.9-0.4,1.3
		c-0.1,0.4-0.1,0.9-0.1,1.3c0,0.4,0.1,0.7,0.2,0.9c0.1,0.2,0.3,0.3,0.6,0.3s0.5-0.1,0.8-0.3s0.5-0.4,0.7-0.7s0.5-0.6,0.7-1
		s0.4-0.8,0.6-1.2c0.3-0.9,0.5-1.7,0.5-2.5c0-0.6-0.1-1-0.4-1.2c-0.1-0.1-0.2-0.1-0.4-0.1s-0.4,0.1-0.6,0.3
		c-0.2,0.2-0.5,0.4-0.7,0.7s-0.5,0.6-0.7,1S134.5,198.4,134.3,198.9z"/>
	<path fill="#969696" d="M141.7,203c-0.2-0.2-0.4-0.5-0.6-0.9s-0.2-0.8-0.2-1.2c0-0.5,0.1-1,0.2-1.5c0.1-0.5,0.3-1,0.5-1.4
		c0.2-0.5,0.5-0.9,0.8-1.3c0.3-0.4,0.7-0.7,1-1c0.8-0.6,1.7-1,2.6-1c1.2,0,2,0.5,2.4,1.6c0.3,0.7,0.3,1.7,0.1,2.7s-0.7,1.9-1.3,2.7
		s-1.4,1.4-2.2,1.7c-0.4,0.2-0.9,0.3-1.3,0.3s-0.8-0.1-1.1-0.2S141.9,203.3,141.7,203z M143.3,198.9c-0.2,0.4-0.3,0.9-0.4,1.3
		c-0.1,0.4-0.1,0.9-0.1,1.3c0,0.4,0.1,0.7,0.2,0.9c0.1,0.2,0.3,0.3,0.6,0.3s0.5-0.1,0.8-0.3s0.5-0.4,0.7-0.7s0.5-0.6,0.7-1
		s0.4-0.8,0.6-1.2c0.3-0.9,0.5-1.7,0.5-2.5c0-0.6-0.1-1-0.4-1.2c-0.1-0.1-0.2-0.1-0.4-0.1s-0.4,0.1-0.6,0.3
		c-0.2,0.2-0.5,0.4-0.7,0.7s-0.5,0.6-0.7,1S143.5,198.4,143.3,198.9z"/>
	<path fill="#969696" d="M149.9,203.4c-0.1-0.1-0.2-0.2-0.3-0.3s-0.1-0.2-0.1-0.3s0-0.2,0-0.3s0.1-0.2,0.1-0.4
		c1.2-2.9,1.7-4.8,1.7-5.8c0-0.3-0.1-0.5-0.3-0.6l-0.2-0.1c-0.1,0-0.1-0.1-0.1-0.2c0-0.1,0-0.2,0.1-0.3s0.2-0.2,0.3-0.2
		c0.2-0.1,0.5-0.2,0.8-0.2s0.5,0,0.6,0.1s0.3,0.1,0.4,0.2c0.2,0.2,0.3,0.4,0.3,0.7s0,0.5-0.1,0.7s-0.1,0.5-0.2,0.7
		c-0.1,0.2-0.1,0.4-0.2,0.6c-0.1,0.2-0.1,0.4-0.1,0.5c0,0.2-0.1,0.3-0.1,0.4c0.1-0.1,0.2-0.2,0.2-0.4l0.3-0.6
		c0.7-1.3,1.5-2.2,2.2-2.7c0.2-0.1,0.5-0.2,0.7-0.2s0.5,0.1,0.7,0.3s0.3,0.4,0.3,0.7c0,0.2,0,0.4-0.1,0.6s-0.1,0.3-0.2,0.5
		c-0.2,0.3-0.4,0.5-0.7,0.5c-0.1,0-0.1,0-0.2-0.1l-0.2-0.2c-0.2-0.2-0.4-0.2-0.5-0.2s-0.4,0.1-0.6,0.3s-0.5,0.5-0.8,0.9
		c-0.9,1.2-1.6,2.5-2.2,4l-0.4,1c-0.1,0.2-0.2,0.4-0.3,0.5s-0.2,0.2-0.3,0.2s-0.3,0-0.4-0.1C150.2,203.6,150.1,203.5,149.9,203.4z"
		/>
	<path fill="#969696" d="M165.6,201.9c0.1,0,0.2,0.1,0.2,0.2c0,0.5-0.3,0.9-0.8,1.3c-0.3,0.2-0.7,0.4-1,0.4s-0.5,0-0.7-0.1
		s-0.3-0.2-0.5-0.3c-0.3-0.3-0.5-0.8-0.5-1.4c0-0.1,0-0.3,0.1-0.6c-0.5,0.7-0.9,1.2-1.2,1.5c-0.7,0.6-1.3,0.9-2,0.9
		c-1,0-1.7-0.5-2-1.4c-0.1-0.3-0.2-0.8-0.2-1.3s0.1-1,0.2-1.5c0.2-0.5,0.4-1,0.6-1.5c0.3-0.5,0.6-0.9,0.9-1.3s0.7-0.8,1.1-1
		c0.8-0.6,1.6-0.9,2.3-0.9s1.2,0.3,1.6,0.8c1-3.4,1.7-5.4,2.2-6c0.2-0.3,0.4-0.4,0.7-0.4c0.4,0,0.7,0.1,0.9,0.3
		c0.1,0.1,0.1,0.1,0.1,0.2s0,0.2-0.1,0.4s-0.2,0.5-0.4,1c-0.5,1.3-0.9,2.3-1.1,2.9c-0.5,1.6-0.9,2.7-1.1,3.3l-0.5,1.6
		c-0.4,1.4-0.6,2.3-0.6,2.7s0.1,0.6,0.4,0.6c0.3,0,0.5,0,0.6-0.1l0.3-0.2C165.5,201.9,165.6,201.9,165.6,201.9z M159.7,202.4
		c0.6,0,1.3-0.6,2-1.7c0.8-1.2,1.3-2.5,1.7-3.9c0-0.4-0.2-0.7-0.5-0.9c-0.1-0.1-0.3-0.1-0.5-0.1s-0.5,0.1-0.7,0.2
		c-0.3,0.2-0.5,0.4-0.8,0.6c-0.3,0.3-0.5,0.6-0.7,0.9c-0.2,0.3-0.4,0.7-0.6,1.1c-0.4,0.8-0.5,1.7-0.5,2.5S159.3,202.4,159.7,202.4z"
		/>
	<path fill="#969696" d="M169.7,202c0.1,0,0.2,0.1,0.2,0.3c0,0.3-0.1,0.5-0.4,0.8c-0.3,0.4-0.8,0.6-1.4,0.6c-0.7,0-1.1-0.3-1.4-0.8
		c-0.1-0.2-0.1-0.4-0.1-0.7s0-0.6,0.1-0.9c0.1-0.3,0.2-0.7,0.4-1c0.1-0.4,0.3-0.7,0.5-1.1l0.5-1.1c0.3-0.8,0.5-1.3,0.5-1.6
		s0-0.4-0.1-0.5s-0.1-0.1-0.2-0.2l-0.2-0.1c-0.1,0-0.1-0.1-0.1-0.2c0-0.1,0-0.2,0.1-0.3s0.2-0.2,0.3-0.2c0.3-0.1,0.6-0.2,0.9-0.2
		c0.8,0,1.3,0.2,1.3,0.7s-0.1,1.1-0.4,1.8c-0.3,0.7-0.5,1.2-0.7,1.6l-0.5,1.2c-0.4,0.9-0.6,1.5-0.6,1.9c0,0.3,0.1,0.4,0.4,0.4
		c0.2,0,0.4,0,0.6-0.1S169.7,202,169.7,202z M171.5,192.7c-0.1,0.1-0.3,0.2-0.4,0.3s-0.3,0.1-0.5,0.2c-0.2,0-0.3,0-0.5-0.1
		s-0.3-0.2-0.4-0.3c-0.2-0.3-0.4-0.6-0.4-0.9c0-0.3,0-0.5,0.1-0.7s0.2-0.3,0.4-0.4c0.3-0.2,0.5-0.3,0.8-0.3c0.2,0,0.4,0,0.6,0.1
		s0.3,0.1,0.4,0.2c0.3,0.2,0.4,0.4,0.4,0.7s0,0.5-0.1,0.7S171.6,192.6,171.5,192.7z"/>
	<path fill="#969696" d="M178.1,196.4c-0.2,0-0.4,0.2-0.8,0.5s-0.6,0.7-0.8,0.9l-0.7,0.9l-1.4,1.8c-0.3,0.6-0.6,1.2-0.8,1.6l-0.5,1
		c-0.1,0.2-0.2,0.4-0.3,0.5s-0.2,0.2-0.4,0.2s-0.3,0-0.4-0.1c-0.1-0.1-0.3-0.1-0.4-0.2c-0.2-0.2-0.3-0.4-0.3-0.6
		c0-0.1,0.1-0.3,0.2-0.5l0.3-0.7c0.1-0.2,0.2-0.5,0.4-0.8l0.5-1.2c0.7-1.7,1-2.8,1-3.3c0-0.3-0.1-0.5-0.3-0.6l-0.2-0.1
		c-0.1,0-0.1-0.1-0.1-0.2c0-0.1,0-0.2,0.1-0.3s0.2-0.2,0.3-0.2c0.3-0.1,0.5-0.2,0.8-0.2s0.5,0,0.6,0.1s0.3,0.1,0.4,0.2
		c0.2,0.2,0.3,0.4,0.3,0.6c0,0.2,0,0.4-0.1,0.7c-0.1,0.2-0.1,0.4-0.2,0.7c-0.1,0.2-0.2,0.4-0.3,0.7s-0.2,0.4-0.2,0.6l-0.2,0.4
		c0,0.1-0.1,0.1,0,0.1c0.6-0.9,1.1-1.4,1.3-1.7l0.6-0.7c0.4-0.5,0.8-0.9,1-1c0.5-0.3,0.9-0.5,1.2-0.5s0.5,0,0.7,0.1s0.4,0.2,0.5,0.3
		c0.3,0.3,0.5,0.7,0.5,1.1s-0.1,0.9-0.3,1.4s-0.4,0.9-0.5,1.2s-0.3,0.6-0.4,0.9c-0.4,1-0.6,1.6-0.6,2.1c0,0.2,0.2,0.3,0.5,0.3
		c0.2,0,0.5-0.1,0.7-0.2c0.2-0.1,0.3-0.2,0.4-0.2c0.1,0,0.2,0.1,0.2,0.2c0,0.5-0.3,0.9-0.8,1.3c-0.3,0.2-0.7,0.4-1,0.4
		s-0.5,0-0.7-0.1s-0.4-0.2-0.5-0.3c-0.3-0.3-0.5-0.7-0.5-1.3c0-0.7,0.2-1.5,0.6-2.5c0.3-0.7,0.5-1.1,0.6-1.4l0.3-0.6
		c0.2-0.4,0.3-0.7,0.3-0.9C178.5,196.5,178.4,196.4,178.1,196.4z"/>
	<path fill="#969696" d="M188.3,201.3c0,0.5,0.2,0.8,0.6,0.8c0.3,0,0.5,0,0.6-0.1c0.2-0.1,0.3-0.1,0.3-0.1c0.1,0,0.2,0.1,0.2,0.2
		c0,0.5-0.3,0.9-0.8,1.3c-0.5,0.4-1.1,0.5-1.7,0.3c-0.4-0.1-0.6-0.4-0.8-0.8c-0.1-0.2-0.1-0.4-0.1-0.6c0-0.3,0-0.6,0.1-0.9
		c-0.5,1.1-1.2,1.8-2,2.2c-0.3,0.2-0.6,0.2-1,0.2s-0.7-0.1-0.9-0.2c-0.3-0.1-0.5-0.3-0.7-0.6c-0.4-0.5-0.5-1.2-0.5-2
		c0-1,0.3-2,0.9-3c0.5-0.9,1.2-1.7,2-2.2c0.8-0.6,1.5-0.9,2.2-0.9s1.2,0.3,1.7,1c0.4-0.6,0.7-1,1-1s0.6,0.1,0.7,0.2
		c0.3,0.2,0.4,0.4,0.3,0.6c-1.4,2.9-2.2,4.8-2.2,5.5C188.3,201.1,188.3,201.2,188.3,201.3z M183.6,201.4c0,0.7,0.2,1,0.7,1
		c0.3,0,0.8-0.3,1.2-0.9c0.7-0.8,1.4-2,1.9-3.4c0.2-0.4,0.3-0.9,0.4-1.3c0-0.4-0.2-0.7-0.5-0.9c-0.1-0.1-0.3-0.1-0.5-0.1
		s-0.4,0.1-0.7,0.2s-0.5,0.4-0.8,0.6c-0.3,0.3-0.5,0.6-0.7,0.9c-0.2,0.4-0.4,0.7-0.6,1.1C183.8,199.6,183.6,200.5,183.6,201.4z"/>
	<path fill="#969696" d="M196.2,201.4c0.2,0,0.2,0.1,0.2,0.3s-0.1,0.4-0.2,0.5c-0.2,0.3-0.5,0.6-0.9,0.9c-0.5,0.3-1.1,0.5-1.6,0.5
		c-0.9,0-1.5-0.4-1.7-1.2c-0.3-1,0.1-3,1.3-6.2c-0.7-0.1-1-0.2-1.1-0.3c0-0.1,0-0.1,0-0.2c0-0.1,0-0.1,0.1-0.2
		c0.1-0.1,0.1-0.2,0.2-0.2c0.2-0.2,0.4-0.2,0.6-0.2h0.7c0.6-1.4,1.1-2.3,1.3-2.5c0.1-0.1,0.3-0.1,0.4-0.1s0.3,0,0.4,0.1
		s0.2,0.1,0.3,0.2c0.2,0.2,0.3,0.4,0.3,0.6c0,0.1,0,0.2-0.1,0.4l-0.6,1.4h0.2c0.4,0,0.6,0,0.9,0h0.5c0.1,0,0.2,0,0.4,0
		s0.2,0.1,0.2,0.2c0,0.8-0.9,1.1-2.7,1.1h-0.1l-0.6,1.5c-0.7,1.8-1,3-1,3.7c0,0.2,0,0.4,0.1,0.5s0.3,0.2,0.5,0.2s0.5,0,0.7-0.1
		s0.4-0.2,0.5-0.3s0.3-0.2,0.4-0.3C196,201.4,196.1,201.4,196.2,201.4z"/>
	<path fill="#969696" d="M197.6,200.6c0-0.5,0.1-1,0.2-1.4c0.1-0.5,0.3-0.9,0.6-1.3c0.2-0.4,0.5-0.8,0.8-1.2s0.7-0.7,1.1-1
		c0.8-0.6,1.6-0.9,2.5-0.9c1,0,1.6,0.4,2,1.2c0.1,0.3,0.2,0.6,0.2,1s-0.1,0.7-0.2,1s-0.3,0.6-0.6,0.9c-0.2,0.3-0.5,0.5-0.9,0.7
		c-0.3,0.2-0.7,0.4-1.1,0.5c-0.8,0.3-1.7,0.4-2.6,0.4c0,0.1,0,0.2,0,0.4s0,0.3,0.1,0.5s0.1,0.4,0.2,0.5c0.2,0.3,0.5,0.5,0.9,0.5
		c0.7,0,1.3-0.2,1.9-0.6c0.2-0.1,0.4-0.3,0.5-0.4c0.1-0.1,0.3-0.2,0.4-0.2c0.1,0,0.2,0.1,0.3,0.2c0.1,0.1,0.1,0.3,0.1,0.4
		c0,0.3-0.1,0.6-0.3,0.8c-0.7,0.7-1.8,1.1-3.2,1.1c-0.8,0-1.5-0.3-2-0.8C197.8,202.4,197.6,201.6,197.6,200.6z M202.6,195.9
		c-0.6,0-1.2,0.4-1.7,1.2c-0.5,0.7-0.8,1.5-1.1,2.5c1-0.1,1.8-0.5,2.5-1.1c0.6-0.6,1-1.2,1-1.8C203.2,196.2,203,195.9,202.6,195.9z"
		/>
	<path fill="#969696" d="M205.4,202.1c0-0.2,0-0.3,0.1-0.5s0.2-0.3,0.3-0.4c0.2-0.2,0.5-0.3,0.8-0.3c0.2,0,0.3,0.1,0.3,0.4
		c0,0.6,0.2,1,0.6,1.2c0.1,0.1,0.3,0.1,0.4,0.1s0.3,0,0.4-0.1s0.2-0.1,0.3-0.2c0.2-0.2,0.3-0.4,0.3-0.6c0-0.2-0.1-0.4-0.2-0.6
		c-0.1-0.2-0.2-0.4-0.4-0.6l-0.5-0.7c-0.7-0.9-1-1.8-1-2.5c0-0.6,0.3-1.2,0.8-1.7c0.6-0.6,1.4-0.9,2.4-0.9c0.8,0,1.5,0.2,2,0.6
		c0.4,0.3,0.6,0.7,0.6,1.2s-0.2,0.8-0.5,1.1c-0.3,0.2-0.6,0.3-0.9,0.3c-0.1,0-0.2-0.1-0.3-0.2s-0.1-0.2,0-0.4s0.1-0.3,0.1-0.4
		s0-0.3-0.1-0.4c-0.1-0.1-0.1-0.2-0.2-0.3c-0.2-0.2-0.4-0.3-0.6-0.3c-0.2,0-0.4,0-0.5,0.1c-0.1,0-0.3,0.1-0.4,0.2
		c-0.2,0.2-0.3,0.5-0.3,0.8s0.1,0.6,0.2,0.8c0.1,0.2,0.2,0.4,0.4,0.7c0.2,0.2,0.3,0.4,0.5,0.7c0.2,0.2,0.3,0.5,0.5,0.7
		c0.4,0.6,0.5,1.1,0.5,1.5s-0.1,0.8-0.3,1.1s-0.4,0.5-0.7,0.8c-0.6,0.5-1.3,0.7-2.1,0.7c-0.7,0-1.3-0.2-1.7-0.5
		C205.6,202.9,205.4,202.5,205.4,202.1z"/>
</g>
<g>
	<path fill="#5B74BC" d="M314.1,155.1c0.3-0.1,0.7-0.2,1.1-0.2s1,0.1,1.6,0.2c0.6,0.1,1.3,0.3,2,0.5c1.6,0.5,3.1,1.3,4.4,2.2
		c0.2,0.2,0.3,0.3,0.3,0.5s0,0.3-0.1,0.5s-0.2,0.3-0.3,0.4c-0.3,0.3-0.5,0.4-0.6,0.3c-1.3-0.8-2.4-1.4-3.4-1.9
		c0.1,1.3,0.5,2.4,1.2,3.3c0.8,1,1.7,1.6,2.8,1.6c0.7,0,1.2-0.4,1.4-1.1c0.1-0.2,0.1-0.5,0.1-0.8s0-0.6-0.1-1
		c-0.1-0.3-0.2-0.7-0.3-1c-0.2-0.6-0.5-1.2-0.9-1.7c-0.1-0.1-0.2-0.3-0.2-0.4s0-0.3,0.1-0.4c0.1-0.1,0.1-0.3,0.2-0.4
		c0.4-0.4,0.7-0.4,1.1,0.2c0.6,0.8,0.9,2,1.1,3.6c0,0.3,0,0.7,0,1.2s-0.1,1-0.2,1.5c-0.2,0.5-0.4,0.9-0.6,1.2
		c-0.5,0.6-1.2,0.9-2.1,0.9c-0.8,0-1.6-0.3-2.4-1c-0.7-0.6-1.3-1.4-1.8-2.3c-0.2,0.4-0.5,0.8-0.8,1c-0.4,0.2-0.7,0.3-1.2,0.3
		c-0.4,0-0.8-0.1-1.1-0.2c-0.3-0.2-0.7-0.4-0.9-0.6c-0.3-0.3-0.5-0.6-0.7-0.9c-0.2-0.3-0.4-0.7-0.5-1.1c-0.3-0.8-0.4-1.5-0.4-2.3
		C312.8,156.1,313.2,155.4,314.1,155.1z M317.7,157.1c-1-0.4-2-0.6-2.7-0.7c-0.4,0-0.7,0.1-0.9,0.3c-0.2,0.2-0.3,0.5-0.3,0.8
		s0.1,0.7,0.2,1.1s0.4,0.7,0.6,1c0.6,0.7,1.3,1.1,2,1.1s1.1-0.3,1.4-0.9c0.1-0.2,0.1-0.4,0.1-0.6c0-0.3-0.1-0.6-0.2-1.1
		C317.9,157.6,317.8,157.3,317.7,157.1z"/>
	<path fill="#5B74BC" d="M313.5,164.9c0.2-0.2,0.5-0.4,0.8-0.5s0.7-0.2,1.2-0.2s0.9,0.1,1.4,0.2c0.5,0.1,0.9,0.3,1.4,0.5
		c0.4,0.2,0.9,0.5,1.2,0.8c0.4,0.3,0.7,0.6,1,1c0.6,0.8,0.9,1.6,0.9,2.5c0,1.1-0.5,1.9-1.5,2.3c-0.7,0.3-1.6,0.3-2.6,0
		c-0.9-0.2-1.8-0.7-2.6-1.3c-0.8-0.6-1.4-1.3-1.7-2.2c-0.2-0.4-0.2-0.8-0.2-1.2s0.1-0.8,0.2-1.1
		C313.1,165.4,313.2,165.1,313.5,164.9z M317.5,166.5c-0.4-0.2-0.8-0.3-1.3-0.4c-0.4-0.1-0.8-0.1-1.2-0.1c-0.4,0-0.7,0.1-0.9,0.2
		c-0.2,0.1-0.3,0.3-0.3,0.6s0.1,0.5,0.3,0.8c0.2,0.2,0.4,0.5,0.7,0.7s0.6,0.5,1,0.7s0.8,0.4,1.2,0.5c0.9,0.3,1.7,0.5,2.4,0.5
		c0.6,0,1-0.1,1.2-0.4c0.1-0.1,0.1-0.2,0.1-0.4s-0.1-0.4-0.2-0.6c-0.2-0.2-0.4-0.5-0.7-0.7s-0.6-0.5-1-0.7S317.9,166.6,317.5,166.5z
		"/>
	<path fill="#5B74BC" d="M314.5,180.6c0,0.1-0.1,0.2-0.2,0.2c-0.5,0-0.9-0.2-1.2-0.7c-0.2-0.3-0.3-0.7-0.3-1.1
		c0-0.4,0.1-0.6,0.2-0.8c0.3-0.3,0.7-0.5,1.1-0.5c0.5,0,1.4,0.2,2.5,0.7c-1.2-0.9-1.9-1.4-2.3-1.8c-0.4-0.3-0.7-0.6-0.9-0.9
		c-0.5-0.6-0.7-1.1-0.7-1.5c0-0.7,0.3-1.1,0.9-1.4c0.2-0.1,0.4-0.1,0.6-0.1s0.5,0,0.8,0.1s0.6,0.2,0.9,0.3s0.6,0.3,1,0.4l1,0.4
		c1.3,0.6,2,0.8,2.3,0.6c0.1-0.1,0.2-0.2,0.3-0.4c0-0.1,0.1-0.1,0.2-0.1s0.2,0,0.3,0.1c0.1,0.1,0.2,0.2,0.2,0.3
		c0.1,0.3,0.2,0.5,0.2,0.8s0,0.5-0.1,0.6s-0.1,0.3-0.2,0.3c-0.2,0.2-0.4,0.3-0.6,0.3s-0.5,0-0.7-0.1c-0.3-0.1-0.6-0.2-0.9-0.3
		s-0.7-0.2-1-0.4c-0.9-0.4-1.5-0.6-1.8-0.8l-0.6-0.3c-0.4-0.2-0.7-0.3-0.8-0.3s-0.3,0-0.3,0.1c-0.1,0-0.1,0.1-0.1,0.3
		c0,0.1,0.1,0.3,0.2,0.5s0.3,0.4,0.5,0.6s0.4,0.4,0.7,0.6c0.3,0.2,0.5,0.4,0.8,0.6c0.6,0.4,1,0.7,1.4,0.9c2.1,1.2,3.2,1.8,3.3,1.9
		c0.2,0.2,0.4,0.4,0.4,0.5c0,0.2,0,0.3-0.1,0.5c0,0.1-0.1,0.3-0.2,0.4c-0.2,0.2-0.3,0.3-0.5,0.2c-2.8-1.4-4.6-2.1-5.3-2.2
		c-0.2,0-0.4,0-0.5,0c-0.4,0-0.6,0.1-0.6,0.4c0,0.2,0,0.4,0.1,0.6C314.5,180.4,314.5,180.5,314.5,180.6z"/>
	<path fill="#5B74BC" d="M319.9,188.2c0-0.2-0.2-0.4-0.5-0.7s-0.6-0.6-0.9-0.8l-0.8-0.7l-1.7-1.4c-0.6-0.3-1.1-0.6-1.5-0.8l-1-0.4
		c-0.2-0.1-0.4-0.2-0.5-0.3s-0.1-0.2-0.1-0.3s0-0.3,0.1-0.4c0.1-0.1,0.1-0.3,0.2-0.4c0.2-0.2,0.4-0.3,0.6-0.3c0.1,0,0.2,0.1,0.5,0.2
		l0.7,0.3c0.2,0.1,0.5,0.2,0.8,0.3l1.1,0.5c1.6,0.7,2.7,1,3.2,1c0.3,0,0.4-0.1,0.6-0.2l0.1-0.2c0-0.1,0.1-0.1,0.2-0.1s0.2,0,0.3,0.1
		c0.1,0.1,0.2,0.2,0.2,0.3c0.1,0.2,0.2,0.5,0.2,0.8s0,0.4-0.1,0.6s-0.1,0.3-0.2,0.3c-0.2,0.2-0.4,0.3-0.6,0.3s-0.4,0-0.6-0.1
		s-0.4-0.1-0.6-0.2c-0.2-0.1-0.4-0.2-0.6-0.3s-0.4-0.2-0.5-0.2l-0.4-0.2c-0.1,0-0.1-0.1-0.1,0c0.9,0.6,1.4,1,1.6,1.2l0.7,0.6
		c0.5,0.4,0.8,0.8,1,1c0.3,0.5,0.5,0.9,0.5,1.2s0,0.5-0.1,0.7s-0.2,0.4-0.3,0.5c-0.3,0.3-0.6,0.5-1.1,0.5s-0.9-0.1-1.4-0.3
		s-0.9-0.4-1.2-0.5c-0.3-0.1-0.6-0.3-0.9-0.4c-0.9-0.4-1.6-0.6-2-0.6c-0.2,0-0.3,0.1-0.3,0.4c0,0.2,0,0.4,0.1,0.6
		c0.1,0.2,0.1,0.3,0.1,0.4c0,0.1-0.1,0.2-0.2,0.2c-0.5,0-0.9-0.3-1.2-0.8c-0.2-0.3-0.3-0.6-0.3-0.9s0-0.5,0.1-0.7s0.2-0.4,0.3-0.5
		c0.3-0.3,0.7-0.5,1.2-0.5c0.6,0,1.4,0.2,2.4,0.6c0.7,0.3,1.1,0.5,1.4,0.6l0.6,0.3c0.4,0.2,0.6,0.3,0.8,0.3S319.9,188.5,319.9,188.2
		z"/>
	<path fill="#5B74BC" d="M314.6,200.1c0,0.1-0.1,0.2-0.2,0.2c-0.5,0-0.9-0.2-1.2-0.7c-0.2-0.3-0.3-0.6-0.3-0.9c0-0.3,0-0.5,0.1-0.7
		s0.2-0.3,0.3-0.5c0.3-0.3,0.8-0.5,1.4-0.5c0.1,0,0.3,0,0.6,0.1c-0.7-0.4-1.2-0.8-1.5-1.2c-0.6-0.6-0.9-1.3-0.9-1.9
		c0-1,0.4-1.6,1.3-1.9c0.3-0.1,0.7-0.2,1.2-0.2s1,0.1,1.5,0.2s1,0.4,1.4,0.6c0.5,0.3,0.9,0.6,1.3,0.9c0.4,0.3,0.7,0.7,1,1.1
		c0.6,0.8,0.9,1.5,0.9,2.2s-0.3,1.2-0.8,1.6c3.3,1,5.2,1.7,5.8,2.2c0.2,0.2,0.4,0.4,0.4,0.6c0,0.4-0.1,0.7-0.3,0.9
		c-0.1,0.1-0.1,0.1-0.2,0.1s-0.2,0-0.4-0.1s-0.5-0.2-0.9-0.4c-1.3-0.5-2.3-0.8-2.9-1c-1.5-0.5-2.6-0.9-3.2-1l-1.5-0.5
		c-1.4-0.4-2.2-0.6-2.6-0.6s-0.6,0.1-0.6,0.4c0,0.2,0,0.4,0.1,0.6l0.1,0.3C314.6,200,314.6,200,314.6,200.1z M314.1,194.4
		c0,0.6,0.6,1.2,1.7,2c1.2,0.8,2.4,1.3,3.8,1.6c0.4,0,0.7-0.2,0.8-0.5c0.1-0.1,0.1-0.3,0.1-0.5s-0.1-0.4-0.2-0.7s-0.3-0.5-0.6-0.8
		c-0.2-0.3-0.5-0.5-0.9-0.7c-0.3-0.2-0.7-0.4-1.1-0.6c-0.8-0.3-1.6-0.5-2.4-0.5C314.4,193.7,314.1,194,314.1,194.4z"/>
	<path fill="#5B74BC" d="M315.1,207.7c-0.5,0-0.8,0.2-0.8,0.5c0,0.2,0,0.5,0.1,0.6c0.1,0.2,0.1,0.3,0.1,0.3c0,0.1-0.1,0.2-0.2,0.2
		c-0.5,0-0.9-0.2-1.2-0.7c-0.4-0.5-0.4-1.1-0.3-1.6c0.1-0.4,0.4-0.6,0.8-0.8c0.2-0.1,0.4-0.1,0.6-0.1c0.3,0,0.6,0,0.9,0.1
		c-1.1-0.5-1.8-1.2-2.2-1.9c-0.2-0.3-0.2-0.6-0.2-1s0.1-0.6,0.2-0.9c0.1-0.3,0.3-0.5,0.6-0.6c0.5-0.4,1.2-0.5,2-0.5
		c1,0,2,0.3,2.9,0.9c0.9,0.5,1.6,1.1,2.2,1.9c0.6,0.8,0.9,1.5,0.9,2.2s-0.3,1.2-0.9,1.6c0.6,0.4,0.9,0.7,0.9,1s-0.1,0.6-0.2,0.7
		c-0.2,0.3-0.4,0.4-0.6,0.3c-2.8-1.4-4.6-2.1-5.3-2.1C315.3,207.7,315.2,207.7,315.1,207.7z M315.1,203.1c-0.7,0-1,0.2-1,0.6
		c0,0.3,0.3,0.7,0.8,1.2c0.8,0.7,1.9,1.3,3.3,1.9c0.4,0.2,0.9,0.3,1.3,0.4c0.4,0,0.7-0.2,0.8-0.5c0.1-0.1,0.1-0.2,0.1-0.4
		s-0.1-0.4-0.2-0.7s-0.3-0.5-0.6-0.8c-0.2-0.2-0.5-0.5-0.9-0.7c-0.3-0.2-0.7-0.4-1.1-0.6C316.8,203.2,315.9,203.1,315.1,203.1z"/>
	<path fill="#5B74BC" d="M313.1,210.5c0.1-0.1,0.2-0.2,0.3-0.3c0.1-0.1,0.2-0.1,0.3-0.1c0.1,0,0.2,0,0.3,0c0.1,0,0.2,0.1,0.4,0.1
		c2.8,1.1,4.6,1.7,5.6,1.7c0.3,0,0.5-0.1,0.6-0.3l0.1-0.2c0,0,0.1-0.1,0.2-0.1s0.2,0,0.3,0.1s0.2,0.2,0.2,0.3
		c0.1,0.2,0.2,0.5,0.2,0.7c0,0.3,0,0.4-0.1,0.6c-0.1,0.1-0.1,0.3-0.2,0.4c-0.2,0.2-0.4,0.3-0.6,0.3s-0.4,0-0.7-0.1
		c-0.2-0.1-0.4-0.1-0.7-0.2c-0.2-0.1-0.4-0.1-0.6-0.2c-0.2-0.1-0.3-0.1-0.4-0.1c-0.2,0-0.3-0.1-0.4,0c0.1,0.1,0.2,0.2,0.3,0.2
		l0.6,0.3c1.3,0.7,2.2,1.4,2.6,2.1c0.1,0.2,0.2,0.4,0.2,0.7s-0.1,0.5-0.3,0.7c-0.2,0.2-0.4,0.3-0.7,0.3c-0.2,0-0.4,0-0.6,0
		s-0.3-0.1-0.4-0.2c-0.3-0.2-0.5-0.4-0.5-0.7c0-0.1,0-0.1,0.1-0.2l0.2-0.2c0.2-0.2,0.2-0.4,0.2-0.5c0-0.2-0.1-0.4-0.3-0.6
		c-0.2-0.2-0.5-0.5-0.9-0.8c-1.2-0.9-2.5-1.6-3.9-2.1l-1-0.4c-0.2-0.1-0.4-0.2-0.5-0.2c-0.1-0.1-0.2-0.2-0.2-0.3s0-0.3,0.1-0.4
		C312.9,210.7,313,210.6,313.1,210.5z"/>
	<path fill="#5B74BC" d="M314.4,220.2c0,0.1-0.1,0.2-0.3,0.2c-0.2,0-0.5-0.1-0.8-0.3c-0.4-0.3-0.6-0.8-0.6-1.3
		c0-0.6,0.3-1.1,0.8-1.3c0.2-0.1,0.4-0.1,0.7-0.1s0.5,0,0.9,0.1c0.3,0.1,0.7,0.2,1,0.3c0.4,0.1,0.7,0.3,1.1,0.4l1,0.4
		c0.8,0.3,1.3,0.5,1.5,0.5s0.4,0,0.5-0.1s0.1-0.1,0.2-0.2l0.1-0.2c0-0.1,0.1-0.1,0.2-0.1s0.2,0,0.3,0.1c0.1,0.1,0.2,0.2,0.2,0.3
		c0.1,0.2,0.2,0.5,0.2,0.9c0,0.8-0.2,1.2-0.6,1.2c-0.5,0-1.1-0.1-1.7-0.4c-0.6-0.3-1.2-0.5-1.5-0.7l-1.1-0.5
		c-0.8-0.4-1.4-0.5-1.8-0.5c-0.2,0-0.4,0.1-0.4,0.4c0,0.2,0,0.4,0.1,0.5S314.4,220.1,314.4,220.2z M323.4,221.9
		c-0.1-0.1-0.2-0.3-0.3-0.4c-0.1-0.2-0.1-0.3-0.1-0.5s0-0.3,0.1-0.5s0.2-0.3,0.3-0.4c0.3-0.2,0.6-0.4,0.8-0.4s0.5,0,0.6,0.1
		s0.3,0.2,0.3,0.3c0.2,0.3,0.3,0.5,0.3,0.8c0,0.2,0,0.4,0,0.5s-0.1,0.3-0.2,0.4c-0.2,0.3-0.4,0.4-0.7,0.4c-0.3,0-0.5,0-0.7-0.1
		C323.7,222.1,323.6,222,323.4,221.9z"/>
	<path fill="#5B74BC" d="M315.8,222.3c0.5,0,0.9,0.1,1.4,0.2c0.4,0.1,0.9,0.3,1.3,0.6c0.4,0.2,0.8,0.5,1.2,0.8c0.4,0.3,0.7,0.7,1,1
		c0.6,0.8,0.9,1.6,0.9,2.4c0,0.9-0.4,1.6-1.2,1.9c-0.3,0.1-0.6,0.2-0.9,0.2c-0.4,0-0.7-0.1-1-0.2c-0.3-0.1-0.6-0.3-0.8-0.6
		c-0.3-0.2-0.5-0.5-0.7-0.8s-0.4-0.7-0.5-1.1c-0.3-0.8-0.4-1.6-0.4-2.5c-0.1,0-0.2,0-0.3,0s-0.3,0-0.5,0s-0.4,0.1-0.5,0.2
		c-0.3,0.2-0.5,0.5-0.5,0.9c0,0.6,0.2,1.3,0.6,1.9c0.1,0.2,0.3,0.4,0.4,0.5s0.2,0.3,0.2,0.4s-0.1,0.2-0.2,0.3s-0.3,0.1-0.4,0.1
		c-0.3,0-0.5-0.1-0.8-0.2c-0.7-0.7-1-1.7-1-3.1c0-0.8,0.2-1.5,0.7-2C314.1,222.6,314.8,222.3,315.8,222.3z M320.4,227.2
		c0-0.6-0.4-1.1-1.2-1.7c-0.7-0.5-1.5-0.8-2.4-1.1c0.1,0.9,0.5,1.7,1.1,2.4c0.6,0.6,1.2,0.9,1.7,0.9S320.4,227.6,320.4,227.2z"/>
	<path fill="#5B74BC" d="M314.4,229.9c0.2,0,0.3,0,0.5,0.1c0.1,0.1,0.3,0.2,0.4,0.3c0.2,0.2,0.3,0.5,0.3,0.7s-0.1,0.3-0.3,0.3
		c-0.6,0-1,0.2-1.2,0.6c-0.1,0.1-0.1,0.3-0.1,0.4s0,0.3,0,0.4s0.1,0.2,0.2,0.3c0.2,0.2,0.4,0.3,0.6,0.3s0.4,0,0.6-0.1
		s0.4-0.2,0.6-0.4l0.7-0.5c0.9-0.7,1.7-1,2.4-1c0.6,0,1.2,0.3,1.7,0.8c0.6,0.6,0.9,1.4,0.9,2.3c0,0.8-0.2,1.5-0.6,1.9
		c-0.3,0.4-0.7,0.6-1.1,0.6s-0.8-0.2-1-0.5s-0.3-0.6-0.3-0.9c0-0.1,0.1-0.2,0.2-0.3s0.2-0.1,0.4,0s0.3,0.1,0.4,0.1s0.3,0,0.4-0.1
		s0.2-0.1,0.3-0.2c0.2-0.2,0.3-0.4,0.3-0.6c0-0.2,0-0.4-0.1-0.5c0-0.1-0.1-0.3-0.2-0.4c-0.2-0.2-0.4-0.3-0.7-0.3
		c-0.3,0-0.5,0-0.8,0.1s-0.4,0.2-0.6,0.4c-0.2,0.1-0.4,0.3-0.6,0.5s-0.4,0.3-0.7,0.5c-0.6,0.3-1,0.5-1.5,0.5c-0.4,0-0.8-0.1-1.1-0.3
		c-0.3-0.2-0.5-0.4-0.7-0.7c-0.4-0.6-0.7-1.3-0.7-2s0.2-1.3,0.5-1.7C313.6,230.1,314,229.9,314.4,229.9z"/>
</g>
<g>
	<g>
		<polygon fill="#40B481" points="340.5,382.5 336,382.5 336,379.5 337.5,379.5 337.5,378 340.5,378 		"/>
	</g>
	<g>
		<path fill="#40B481" d="M329.9,382.5h-6v-3h6V382.5z M317.9,382.5h-6v-3h6V382.5z M305.8,382.5h-6v-3h6V382.5z M293.7,382.5h-6v-3
			h6V382.5z M281.6,382.5h-6v-3h6V382.5z M269.6,382.5h-6v-3h6V382.5z M257.5,382.5h-6v-3h6V382.5z M245.4,382.5h-6v-3h6V382.5z
			 M233.4,382.5h-6v-3h6V382.5z M221.3,382.5h-6v-3h6V382.5z M209.2,382.5h-6v-3h6V382.5z M197.1,382.5h-6v-3h6V382.5z M185.1,382.5
			h-6v-3h6V382.5z M173,382.5h-6v-3h6V382.5z M160.9,382.5h-6v-3h6V382.5z M148.9,382.5h-6v-3h6V382.5z M136.8,382.5h-6v-3h6V382.5z
			 M124.7,382.5h-6v-3h6V382.5z M112.6,382.5h-6v-3h6V382.5z M100.6,382.5h-6v-3h6V382.5z M88.5,382.5h-6v-3h6V382.5z M76.4,382.5
			h-6v-3h6V382.5z M64.4,382.5h-6v-3h6V382.5z M52.3,382.5h-6v-3h6V382.5z M40.2,382.5h-6v-3h6V382.5z M28.1,382.5h-6v-3h6V382.5z
			 M16.1,382.5h-6v-3h6V382.5z"/>
	</g>
	<g>
		<polygon fill="#40B481" points="4,382.5 -0.5,382.5 -0.5,378 2.5,378 2.5,379.5 4,379.5 		"/>
	</g>
	<g>
		<path fill="#40B481" d="M2.5,371.9h-3v-6.1h3V371.9z M2.5,359.8h-3v-6.1h3V359.8z M2.5,347.7h-3v-6.1h3V347.7z M2.5,335.6h-3v-6.1
			h3V335.6z M2.5,323.5h-3v-6.1h3V323.5z M2.5,311.4h-3v-6.1h3V311.4z M2.5,299.3h-3v-6.1h3V299.3z M2.5,287.2h-3v-6.1h3V287.2z
			 M2.5,275.1h-3V269h3V275.1z M2.5,263h-3v-6.1h3V263z M2.5,250.9h-3v-6.1h3V250.9z M2.5,238.8h-3v-6.1h3V238.8z M2.5,226.6h-3
			v-6.1h3V226.6z M2.5,214.5h-3v-6.1h3V214.5z M2.5,202.4h-3v-6.1h3V202.4z M2.5,190.3h-3v-6.1h3V190.3z M2.5,178.2h-3v-6.1h3V178.2
			z M2.5,166.1h-3V160h3V166.1z M2.5,154h-3v-6.1h3V154z M2.5,141.9h-3v-6.1h3V141.9z M2.5,129.8h-3v-6.1h3V129.8z M2.5,117.7h-3
			v-6.1h3V117.7z M2.5,105.6h-3v-6.1h3V105.6z M2.5,93.5h-3v-6.1h3V93.5z M2.5,81.4h-3v-6.1h3V81.4z M2.5,69.3h-3v-6.1h3V69.3z
			 M2.5,57.1h-3V51h3V57.1z"/>
	</g>
	<g>
		<polygon fill="#40B481" points="2.5,45 -0.5,45 -0.5,40.5 4,40.5 4,43.5 2.5,43.5 		"/>
	</g>
	<g>
		<path fill="#40B481" d="M329.9,43.5h-6v-3h6V43.5z M317.9,43.5h-6v-3h6V43.5z M305.8,43.5h-6v-3h6V43.5z M293.7,43.5h-6v-3h6V43.5
			z M281.6,43.5h-6v-3h6V43.5z M269.6,43.5h-6v-3h6V43.5z M257.5,43.5h-6v-3h6V43.5z M245.4,43.5h-6v-3h6V43.5z M233.4,43.5h-6v-3h6
			V43.5z M221.3,43.5h-6v-3h6V43.5z M209.2,43.5h-6v-3h6V43.5z M197.1,43.5h-6v-3h6V43.5z M185.1,43.5h-6v-3h6V43.5z M173,43.5h-6
			v-3h6V43.5z M160.9,43.5h-6v-3h6V43.5z M148.9,43.5h-6v-3h6V43.5z M136.8,43.5h-6v-3h6V43.5z M124.7,43.5h-6v-3h6V43.5z
			 M112.6,43.5h-6v-3h6V43.5z M100.6,43.5h-6v-3h6V43.5z M88.5,43.5h-6v-3h6V43.5z M76.4,43.5h-6v-3h6V43.5z M64.4,43.5h-6v-3h6
			V43.5z M52.3,43.5h-6v-3h6V43.5z M40.2,43.5h-6v-3h6V43.5z M28.1,43.5h-6v-3h6V43.5z M16.1,43.5h-6v-3h6V43.5z"/>
	</g>
	<g>
		<polygon fill="#40B481" points="340.5,45 337.5,45 337.5,43.5 336,43.5 336,40.5 340.5,40.5 		"/>
	</g>
	<g>
		<path fill="#40B481" d="M340.5,371.9h-3v-6.1h3V371.9z M340.5,359.8h-3v-6.1h3V359.8z M340.5,347.7h-3v-6.1h3V347.7z M340.5,335.6
			h-3v-6.1h3V335.6z M340.5,323.5h-3v-6.1h3V323.5z M340.5,311.4h-3v-6.1h3V311.4z M340.5,299.3h-3v-6.1h3V299.3z M340.5,287.2h-3
			v-6.1h3V287.2z M340.5,275.1h-3V269h3V275.1z M340.5,263h-3v-6.1h3V263z M340.5,250.9h-3v-6.1h3V250.9z M340.5,238.8h-3v-6.1h3
			V238.8z M340.5,226.6h-3v-6.1h3V226.6z M340.5,214.5h-3v-6.1h3V214.5z M340.5,202.4h-3v-6.1h3V202.4z M340.5,190.3h-3v-6.1h3
			V190.3z M340.5,178.2h-3v-6.1h3V178.2z M340.5,166.1h-3V160h3V166.1z M340.5,154h-3v-6.1h3V154z M340.5,141.9h-3v-6.1h3V141.9z
			 M340.5,129.8h-3v-6.1h3V129.8z M340.5,117.7h-3v-6.1h3V117.7z M340.5,105.6h-3v-6.1h3V105.6z M340.5,93.5h-3v-6.1h3V93.5z
			 M340.5,81.4h-3v-6.1h3V81.4z M340.5,69.3h-3v-6.1h3V69.3z M340.5,57.1h-3V51h3V57.1z"/>
	</g>
</g>
<g>
	<g>
		<rect x="298.3" y="42" fill="#5B74BC" width="2" height="1.5"/>
	</g>
	<g>
		<path fill="#5B74BC" d="M300.3,375.5h-2v-3h2V375.5z M300.3,369.5h-2v-3h2V369.5z M300.3,363.4h-2v-3h2V363.4z M300.3,357.4h-2v-3
			h2V357.4z M300.3,351.4h-2v-3h2V351.4z M300.3,345.3h-2v-3h2V345.3z M300.3,339.3h-2v-3h2V339.3z M300.3,333.3h-2v-3h2V333.3z
			 M300.3,327.2h-2v-3h2V327.2z M300.3,321.2h-2v-3h2V321.2z M300.3,315.2h-2v-3h2V315.2z M300.3,309.1h-2v-3h2V309.1z M300.3,303.1
			h-2v-3h2V303.1z M300.3,297h-2v-3h2V297z M300.3,291h-2v-3h2V291z M300.3,285h-2v-3h2V285z M300.3,278.9h-2v-3h2V278.9z
			 M300.3,272.9h-2v-3h2V272.9z M300.3,266.9h-2v-3h2V266.9z M300.3,260.8h-2v-3h2V260.8z M300.3,254.8h-2v-3h2V254.8z M300.3,248.8
			h-2v-3h2V248.8z M300.3,242.7h-2v-3h2V242.7z M300.3,236.7h-2v-3h2V236.7z M300.3,230.7h-2v-3h2V230.7z M300.3,224.6h-2v-3h2
			V224.6z M300.3,218.6h-2v-3h2V218.6z M300.3,212.5h-2v-3h2V212.5z M300.3,206.5h-2v-3h2V206.5z M300.3,200.5h-2v-3h2V200.5z
			 M300.3,194.4h-2v-3h2V194.4z M300.3,188.4h-2v-3h2V188.4z M300.3,182.4h-2v-3h2V182.4z M300.3,176.3h-2v-3h2V176.3z M300.3,170.3
			h-2v-3h2V170.3z M300.3,164.3h-2v-3h2V164.3z M300.3,158.2h-2v-3h2V158.2z M300.3,152.2h-2v-3h2V152.2z M300.3,146.1h-2v-3h2
			V146.1z M300.3,140.1h-2v-3h2V140.1z M300.3,134.1h-2v-3h2V134.1z M300.3,128h-2v-3h2V128z M300.3,122h-2v-3h2V122z M300.3,116h-2
			v-3h2V116z M300.3,109.9h-2v-3h2V109.9z M300.3,103.9h-2v-3h2V103.9z M300.3,97.9h-2v-3h2V97.9z M300.3,91.8h-2v-3h2V91.8z
			 M300.3,85.8h-2v-3h2V85.8z M300.3,79.8h-2v-3h2V79.8z M300.3,73.7h-2v-3h2V73.7z M300.3,67.7h-2v-3h2V67.7z M300.3,61.6h-2v-3h2
			V61.6z M300.3,55.6h-2v-3h2V55.6z M300.3,49.6h-2v-3h2V49.6z"/>
	</g>
	<g>
		<rect x="298.3" y="378.5" fill="#5B74BC" width="2" height="1.5"/>
	</g>
</g>
<g>
	<g>
		<rect x="37.7" y="378.5" fill="#5B74BC" width="2" height="1.5"/>
	</g>
	<g>
		<path fill="#5B74BC" d="M39.7,375.5h-2v-3h2V375.5z M39.7,369.5h-2v-3h2V369.5z M39.7,363.4h-2v-3h2V363.4z M39.7,357.4h-2v-3h2
			V357.4z M39.7,351.4h-2v-3h2V351.4z M39.7,345.3h-2v-3h2V345.3z M39.7,339.3h-2v-3h2V339.3z M39.7,333.3h-2v-3h2V333.3z
			 M39.7,327.2h-2v-3h2V327.2z M39.7,321.2h-2v-3h2V321.2z M39.7,315.2h-2v-3h2V315.2z M39.7,309.1h-2v-3h2V309.1z M39.7,303.1h-2
			v-3h2V303.1z M39.7,297h-2v-3h2V297z M39.7,291h-2v-3h2V291z M39.7,285h-2v-3h2V285z M39.7,278.9h-2v-3h2V278.9z M39.7,272.9h-2
			v-3h2V272.9z M39.7,266.9h-2v-3h2V266.9z M39.7,260.8h-2v-3h2V260.8z M39.7,254.8h-2v-3h2V254.8z M39.7,248.8h-2v-3h2V248.8z
			 M39.7,242.7h-2v-3h2V242.7z M39.7,236.7h-2v-3h2V236.7z M39.7,230.7h-2v-3h2V230.7z M39.7,224.6h-2v-3h2V224.6z M39.7,218.6h-2
			v-3h2V218.6z M39.7,212.5h-2v-3h2V212.5z M39.7,206.5h-2v-3h2V206.5z M39.7,200.5h-2v-3h2V200.5z M39.7,194.4h-2v-3h2V194.4z
			 M39.7,188.4h-2v-3h2V188.4z M39.7,182.4h-2v-3h2V182.4z M39.7,176.3h-2v-3h2V176.3z M39.7,170.3h-2v-3h2V170.3z M39.7,164.3h-2
			v-3h2V164.3z M39.7,158.2h-2v-3h2V158.2z M39.7,152.2h-2v-3h2V152.2z M39.7,146.1h-2v-3h2V146.1z M39.7,140.1h-2v-3h2V140.1z
			 M39.7,134.1h-2v-3h2V134.1z M39.7,128h-2v-3h2V128z M39.7,122h-2v-3h2V122z M39.7,116h-2v-3h2V116z M39.7,109.9h-2v-3h2V109.9z
			 M39.7,103.9h-2v-3h2V103.9z M39.7,97.9h-2v-3h2V97.9z M39.7,91.8h-2v-3h2V91.8z M39.7,85.8h-2v-3h2V85.8z M39.7,79.8h-2v-3h2
			V79.8z M39.7,73.7h-2v-3h2V73.7z M39.7,67.7h-2v-3h2V67.7z M39.7,61.6h-2v-3h2V61.6z M39.7,55.6h-2v-3h2V55.6z M39.7,49.6h-2v-3h2
			V49.6z"/>
	</g>
	<g>
		<rect x="37.7" y="42" fill="#5B74BC" width="2" height="1.5"/>
	</g>
</g>
<g>
	<g>
		<polygon fill="#F2F2F2" points="251,282.5 248.5,282.5 248.5,280.5 249,280.5 249,280 251,280 		"/>
	</g>
	<g>
		<path fill="#F2F2F2" d="M245.5,282.5h-3v-2h3V282.5z M239.6,282.5h-3v-2h3V282.5z M233.7,282.5h-3v-2h3V282.5z M227.8,282.5h-3v-2
			h3V282.5z M221.9,282.5h-3v-2h3V282.5z M216,282.5h-3v-2h3V282.5z M210.1,282.5h-3v-2h3V282.5z M204.2,282.5h-3v-2h3V282.5z
			 M198.3,282.5h-3v-2h3V282.5z M192.4,282.5h-3v-2h3V282.5z M186.5,282.5h-3v-2h3V282.5z M180.5,282.5h-3v-2h3V282.5z M174.6,282.5
			h-3v-2h3V282.5z M168.7,282.5h-3v-2h3V282.5z M162.8,282.5h-3v-2h3V282.5z M156.9,282.5h-3v-2h3V282.5z M151,282.5h-3v-2h3V282.5z
			 M145.1,282.5h-3v-2h3V282.5z M139.2,282.5h-3v-2h3V282.5z M133.3,282.5h-3v-2h3V282.5z M127.4,282.5h-3v-2h3V282.5z M121.5,282.5
			h-3v-2h3V282.5z M115.5,282.5h-3v-2h3V282.5z M109.6,282.5h-3v-2h3V282.5z M103.7,282.5h-3v-2h3V282.5z M97.8,282.5h-3v-2h3V282.5
			z M91.9,282.5h-3v-2h3V282.5z"/>
	</g>
	<g>
		<polygon fill="#F2F2F2" points="86,282.5 83.5,282.5 83.5,280 85.5,280 85.5,280.5 86,280.5 		"/>
	</g>
	<g>
		<path fill="#F2F2F2" d="M85.5,277.1h-2v-3h2V277.1z M85.5,271.2h-2v-3h2V271.2z M85.5,265.3h-2v-3h2V265.3z M85.5,259.4h-2v-3h2
			V259.4z M85.5,253.4h-2v-3h2V253.4z M85.5,247.5h-2v-3h2V247.5z M85.5,241.6h-2v-3h2V241.6z M85.5,235.7h-2v-3h2V235.7z
			 M85.5,229.8h-2v-3h2V229.8z M85.5,223.9h-2v-3h2V223.9z M85.5,218h-2v-3h2V218z M85.5,212.1h-2v-3h2V212.1z M85.5,206.2h-2v-3h2
			V206.2z M85.5,200.3h-2v-3h2V200.3z M85.5,194.4h-2v-3h2V194.4z M85.5,188.4h-2v-3h2V188.4z M85.5,182.5h-2v-3h2V182.5z
			 M85.5,176.6h-2v-3h2V176.6z M85.5,170.7h-2v-3h2V170.7z M85.5,164.8h-2v-3h2V164.8z M85.5,158.9h-2v-3h2V158.9z M85.5,153h-2v-3
			h2V153z M85.5,147.1h-2v-3h2V147.1z M85.5,141.2h-2v-3h2V141.2z M85.5,135.3h-2v-3h2V135.3z M85.5,129.4h-2v-3h2V129.4z
			 M85.5,123.4h-2v-3h2V123.4z"/>
	</g>
	<g>
		<polygon fill="#F2F2F2" points="85.5,117.5 83.5,117.5 83.5,115 86,115 86,117 85.5,117 		"/>
	</g>
	<g>
		<path fill="#F2F2F2" d="M245.5,117h-3v-2h3V117z M239.6,117h-3v-2h3V117z M233.7,117h-3v-2h3V117z M227.8,117h-3v-2h3V117z
			 M221.9,117h-3v-2h3V117z M216,117h-3v-2h3V117z M210.1,117h-3v-2h3V117z M204.2,117h-3v-2h3V117z M198.3,117h-3v-2h3V117z
			 M192.4,117h-3v-2h3V117z M186.5,117h-3v-2h3V117z M180.5,117h-3v-2h3V117z M174.6,117h-3v-2h3V117z M168.7,117h-3v-2h3V117z
			 M162.8,117h-3v-2h3V117z M156.9,117h-3v-2h3V117z M151,117h-3v-2h3V117z M145.1,117h-3v-2h3V117z M139.2,117h-3v-2h3V117z
			 M133.3,117h-3v-2h3V117z M127.4,117h-3v-2h3V117z M121.5,117h-3v-2h3V117z M115.5,117h-3v-2h3V117z M109.6,117h-3v-2h3V117z
			 M103.7,117h-3v-2h3V117z M97.8,117h-3v-2h3V117z M91.9,117h-3v-2h3V117z"/>
	</g>
	<g>
		<polygon fill="#F2F2F2" points="251,117.5 249,117.5 249,117 248.5,117 248.5,115 251,115 		"/>
	</g>
	<g>
		<path fill="#F2F2F2" d="M251,277.1h-2v-3h2V277.1z M251,271.2h-2v-3h2V271.2z M251,265.3h-2v-3h2V265.3z M251,259.4h-2v-3h2V259.4
			z M251,253.4h-2v-3h2V253.4z M251,247.5h-2v-3h2V247.5z M251,241.6h-2v-3h2V241.6z M251,235.7h-2v-3h2V235.7z M251,229.8h-2v-3h2
			V229.8z M251,223.9h-2v-3h2V223.9z M251,218h-2v-3h2V218z M251,212.1h-2v-3h2V212.1z M251,206.2h-2v-3h2V206.2z M251,200.3h-2v-3
			h2V200.3z M251,194.4h-2v-3h2V194.4z M251,188.4h-2v-3h2V188.4z M251,182.5h-2v-3h2V182.5z M251,176.6h-2v-3h2V176.6z M251,170.7
			h-2v-3h2V170.7z M251,164.8h-2v-3h2V164.8z M251,158.9h-2v-3h2V158.9z M251,153h-2v-3h2V153z M251,147.1h-2v-3h2V147.1z
			 M251,141.2h-2v-3h2V141.2z M251,135.3h-2v-3h2V135.3z M251,129.4h-2v-3h2V129.4z M251,123.4h-2v-3h2V123.4z"/>
	</g>
</g>
</svg>
