<svg xmlns="http://www.w3.org/2000/svg" width="339.9" height="302"><g fill="#40B481"><path d="M1.8 14v-.4c0-2.4.6-4.8 1.8-6.9 1-2 2.4-3.7 4-4.8C9.2.6 10.7 0 12.2 0c1.1 0 2 .4 2.8 1.1.5.6.9 1.5.9 2.5 0 1.3-.4 2.4-1.3 3.5-.5.6-1 1.1-1.6 1.5-.3.2-.5.4-.8.4s-.6 0-.8-.1c-.1-.1-.4-.3-.5-.4-.4-.4-.5-.6-.5-.9s.1-.4.3-.5c1.4-1 2.3-2 2.8-3 .1-.4.3-.8.3-1.1 0-.8-.4-1.1-1.1-1.1-1.1 0-2.4.6-3.7 1.9-1.3 1.1-2.1 2.6-3 4.4-.9 1.9-1.3 3.5-1.3 5v.5c0 1.9.4 3 1.1 3.7.3.3.6.4 1 .4s.8 0 1.1-.1c.4-.1.6-.3 1-.4.5-.3 1.3-.8 2.1-1.5.3-.3.5-.1.6.1.1.3.3.5.3.8 0 .5-.1.8-.3 1-.1.3-.3.1-.6.4-.4.3-.6.5-1.1.6-1 .5-2 .6-3 .6s-1.8 0-2.4-.3-1.1-.6-1.5-1c-.9-1.1-1.2-2.4-1.2-4zM14.9 18.9l-.4-.4c-.1-.1-.1-.4-.1-.5s0-.3.1-.4.1-.4.3-.6c1.6-4.2 2.5-6.9 2.5-8.3 0-.4-.1-.6-.4-.9l-.3-.1c-.1 0-.1-.1-.1-.3s0-.3.1-.4l.4-.4c.4-.1.8-.3 1.1-.3.4 0 .6 0 .9.1.3.1.4.3.5.4.3.4.5.8.5 1s0 .6-.1 1-.1.6-.3 1c-.1.4-.3.6-.4.9 0 .3-.2.5-.2.6-.1.3-.1.5-.1.5.3-.1.4-.4.4-.5l.5-.9c1-1.9 2.1-3.2 3.2-3.8.3-.1.6-.3 1-.3s.8.1 1 .4c.3.3.4.6.4 1s0 .6-.1.9c-.2.4-.2.6-.3.7-.3.5-.5.8-.9.8-.1 0-.3 0-.3-.1l-.3-.3c-.3-.3-.5-.4-.8-.4s-.5.1-.9.5-.8.8-1.1 1.3c-1.3 1.8-2.4 3.7-3.2 5.8l-.8 1.4c-.1.4-.3.6-.4.8-.1.1-.3.3-.5.3s-.4 0-.6-.1c-.1-.3-.2-.4-.3-.4zM26.2 18.3c-.4-.4-.6-.8-.8-1.3-.1-.5-.3-1.1-.3-1.8s.1-1.4.3-2.1c.1-.8.4-1.4.8-2s.8-1.3 1.1-1.9c.4-.6 1-1.1 1.5-1.5 1.3-.9 2.4-1.4 3.8-1.4 1.6 0 2.8.8 3.4 2.3.4 1.1.5 2.4.1 3.9-.4 1.4-1 2.6-1.9 3.9-.9 1.1-2 2-3.3 2.5-.6.3-1.3.4-1.9.4s-1-.1-1.5-.3c-.5-.1-.9-.3-1.3-.7zm2.4-5.9c-.3.6-.5 1.3-.6 1.9-.1.6-.3 1.3-.3 1.8s.1 1 .3 1.4c.1.4.5.5.8.5s.8-.1 1.1-.4c.4-.3.8-.6 1-1 .3-.4.6-.9 1-1.5s.6-1.1.8-1.8c.5-1.3.8-2.5.8-3.5 0-.9-.1-1.5-.5-1.8-.1-.1-.4-.1-.6-.1s-.6.1-.9.4-.6.5-.9 1c-.3.5-.8.9-1 1.4-.3.4-.7 1-1 1.7zM40.3 18c0 .1-.3.8-.5 1.9-.3 1.1-.6 2.1-.9 2.8-.5 1.5-.9 2.5-1.3 2.9-.3.3-.6.5-1 .5-.5 0-.9-.3-1-.6-.1-.1-.1-.3-.1-.4 0-.1.1-.5.4-1 .6-1.4 1.5-4 2.6-7.9.4-1.6.8-2.6.9-3.2l.4-1.5c.3-1 .4-1.8.5-2 .1-.3 0-.6-.1-.8-.1-.1-.2-.3-.2-.4s-.4-.5-.5-.6c-.1-.1-.1-.1-.1-.3 0-.1.1-.3.3-.4.1-.1.3-.3.5-.4.4-.1.8-.3 1.1-.3s.6 0 .9.1c.3.1.4.3.5.4.2.5.3.8.3 1-.1.6-.1 1.1-.3 1.6 1.4-2 2.9-3 4.4-3 1.4 0 2.4.8 2.8 2.1.1.5.3 1.1.3 1.9 0 .8-.1 1.5-.4 2.1-.3.6-.5 1.4-.9 2.1-.4.8-.8 1.3-1.3 1.8s-1 1-1.6 1.4c-1.1.9-2.3 1.3-3.4 1.3s-1.7-.3-2.3-1.1zm1.9-5.3c-.3.6-.5 1.1-.8 1.8s-.3 1.1-.3 1.6.1.9.3 1.1c.1.3.5.5.9.5s.8-.1 1.3-.4.8-.5 1.1-.9c.4-.4.8-.8 1-1.3.3-.5.6-1 .9-1.6.5-1.3.8-2.4.8-3.4 0-.6-.1-1-.3-1.4-.1-.4-.4-.5-.8-.5s-.6.1-1 .4c-.4.3-.8.6-1.1 1-.4.4-.8.9-1.1 1.4-.4.6-.6 1.1-.9 1.7zM54.2 18c0 .1-.3.8-.5 1.9-.3 1.1-.6 2.1-.9 2.8-.5 1.5-.9 2.5-1.3 2.9-.3.3-.6.5-1 .5-.5 0-.9-.3-1-.6-.1-.1-.1-.3-.1-.4 0-.1.1-.5.4-1 .6-1.4 1.5-4 2.6-7.9.4-1.6.8-2.6.9-3.2l.4-1.5c.3-1 .4-1.8.5-2 .1-.3 0-.6-.1-.8-.1-.1-.3-.3-.3-.4s-.4-.5-.5-.6c-.1-.1-.1-.1-.1-.3 0-.1.1-.3.3-.4.1-.1.3-.3.5-.4.4-.1.8-.3 1.1-.3s.6 0 .9.1c.3.1.4.3.5.4.3.4.4.6.4.9-.1.6-.1 1.1-.3 1.6 1.4-2 2.9-3 4.4-3 1.4 0 2.4.8 2.8 2.1.1.5.3 1.1.3 1.9 0 .8-.1 1.5-.4 2.1-.3.6-.5 1.4-.9 2.1-.4.8-.8 1.3-1.3 1.8s-1 1-1.6 1.4c-1.1.9-2.3 1.3-3.4 1.3s-1.8-.2-2.3-1zm1.9-5.3c-.3.6-.5 1.1-.8 1.8s-.3 1.1-.3 1.6.1.9.3 1.1c.1.3.5.5.9.5s.8-.1 1.3-.4.8-.5 1.1-.9c.4-.4.8-.8 1-1.3.3-.5.6-1 .9-1.6.5-1.3.8-2.4.8-3.4 0-.6-.1-1-.3-1.4-.1-.4-.4-.5-.8-.5s-.5 0-.9.3-.8.6-1.1 1-.8.9-1.1 1.4-.7 1.2-1 1.8zM65.9 14.9c0-.8.1-1.4.4-2 .3-.6.5-1.3.9-1.9.4-.6.8-1.1 1.3-1.8.5-.6 1-1 1.5-1.4 1.1-.9 2.4-1.3 3.5-1.3 1.4 0 2.4.6 2.8 1.8.1.4.3.9.3 1.4s-.1.9-.4 1.3c-.3.4-.5.9-.8 1.3-.3.4-.8.8-1.3 1-.5.3-1 .5-1.5.8-1.1.4-2.4.6-3.8.6v.5c0 .3 0 .5.1.8.1.3.1.5.3.8.3.5.8.8 1.3.8 1 0 1.9-.3 2.8-.9.4-.1.6-.4.8-.6s.4-.3.5-.3c.1 0 .3.1.4.3v.4c0 .4-.1.8-.4 1.1-1 1-2.5 1.5-4.7 1.5-1.3 0-2.1-.4-2.9-1.1-.7-.6-1.1-1.7-1.1-3.1zm7.2-6.8c-.9 0-1.6.6-2.5 1.8-.6 1-1.3 2.3-1.6 3.7 1.4-.1 2.5-.6 3.5-1.6.9-.9 1.4-1.8 1.4-2.5 0-.9-.1-1.4-.8-1.4zM77.8 18.9l-.4-.4c-.1-.1-.1-.3-.1-.4 0-.1 0-.3.1-.4.1-.1.1-.4.3-.6 1.6-4.2 2.5-6.9 2.5-8.3 0-.4-.1-.6-.4-.9l-.3-.1c-.1 0-.1-.1-.1-.3 0-.1 0-.3.1-.4l.4-.4c.4-.1.8-.3 1.1-.3s.6 0 .9.1c.3.1.4.3.5.4.3.4.6.8.6 1 0 .3 0 .6-.1 1s-.3.5-.4.9c-.1.4-.3.6-.4.9-.1.3-.1.5-.1.6-.1.3-.1.5-.1.5.3-.1.4-.4.4-.5l.5-.9c1-1.9 2.1-3.2 3.2-3.8.3-.1.6-.3 1-.3s.8.1 1 .4c.3.3.4.6.4 1s0 .6-.1.9c-.3.4-.3.6-.4.7-.3.5-.5.8-.9.8-.1 0-.3 0-.3-.1l-.3-.3c-.3-.3-.5-.4-.8-.4s-.8.1-1 .5c-.3.4-.8.8-1.1 1.3-1.3 1.8-2.4 3.7-3.2 5.8l-.5 1.4c-.1.4-.3.6-.4.8-.1.1-.3.3-.5.3-.3 0-.4 0-.6-.1-.1-.3-.4-.4-.5-.4z"/></g><g fill="#969696"><path d="M123.8 160.4v-.2c.1-1.7.5-3.3 1.3-4.8.7-1.4 1.7-2.5 2.8-3.4 1.1-.8 2.2-1.3 3.2-1.3.8 0 1.4.3 1.9.8.4.5.6 1.1.6 1.8 0 .8-.3 1.7-.9 2.5-.4.5-.7.8-1.1 1-.2.1-.4.2-.5.2-.2 0-.3 0-.5-.1-.1-.1-.3-.2-.4-.3-.2-.2-.3-.4-.3-.6 0-.2 0-.3.1-.4.9-.7 1.6-1.4 1.9-2.1.1-.3.2-.5.2-.8 0-.6-.3-.8-.8-.8-.8 0-1.7.4-2.5 1.3-.8.8-1.5 1.9-2.1 3.1-.6 1.3-.9 2.5-.9 3.5v.3c0 1.3.3 2.1.8 2.5.2.1.4.2.7.2s.5 0 .8-.1c.2-.1.5-.2.7-.3.4-.2.9-.5 1.5-1 .2-.1.3-.1.5.1.1.1.2.3.2.5 0 .3 0 .5-.1.7-.1.1-.2.3-.5.4-.2.2-.5.3-.8.4-.7.3-1.4.5-2.1.5s-1.2-.1-1.7-.3c-.4-.2-.8-.4-1.1-.7-.6-.5-.9-1.4-.9-2.6zM133.8 163.4c-.2-.2-.4-.5-.6-.9-.1-.4-.2-.8-.2-1.2s.1-1 .2-1.5.3-1 .5-1.4c.2-.5.5-.9.8-1.3.3-.4.7-.7 1-1 .8-.6 1.7-1 2.6-1 1.2 0 2 .5 2.4 1.6.3.7.3 1.7.1 2.7s-.7 1.9-1.3 2.7-1.4 1.4-2.2 1.7c-.4.2-.9.3-1.3.3s-.8-.1-1.1-.2-.7-.2-.9-.5zm1.6-4.1c-.2.4-.3.9-.4 1.3-.1.4-.1.9-.1 1.3s.1.7.2.9c.1.2.3.3.6.3s.5-.1.8-.3.5-.4.7-.7.5-.6.7-1l.6-1.2c.3-.9.5-1.7.5-2.5 0-.6-.1-1-.4-1.2-.1-.1-.2-.1-.4-.1s-.4.1-.6.3c-.2.2-.5.4-.7.7s-.5.6-.7 1-.6.8-.8 1.2zM142.8 163.4c-.2-.2-.4-.5-.6-.9-.1-.4-.2-.8-.2-1.2s.1-1 .2-1.5.3-1 .5-1.4c.2-.5.5-.9.8-1.3.3-.4.7-.7 1-1 .8-.6 1.7-1 2.6-1 1.2 0 2 .5 2.4 1.6.3.7.3 1.7.1 2.7s-.7 1.9-1.3 2.7-1.4 1.4-2.2 1.7c-.4.2-.9.3-1.3.3s-.8-.1-1.1-.2-.7-.2-.9-.5zm1.6-4.1c-.2.4-.3.9-.4 1.3-.1.4-.1.9-.1 1.3s.1.7.2.9c.1.2.3.3.6.3s.5-.1.8-.3.5-.4.7-.7.5-.6.7-1l.6-1.2c.3-.9.5-1.7.5-2.5 0-.6-.1-1-.4-1.2-.1-.1-.2-.1-.4-.1s-.4.1-.6.3c-.2.2-.5.4-.7.7s-.5.6-.7 1-.6.8-.8 1.2zM151 163.8l-.3-.3c-.1-.1-.1-.2-.1-.3v-.3c0-.1.1-.2.1-.4 1.2-2.9 1.7-4.8 1.7-5.8 0-.3-.1-.5-.3-.6l-.2-.1c-.1 0-.1-.1-.1-.2s0-.2.1-.3.2-.2.3-.2c.2-.1.5-.2.8-.2s.5 0 .6.1.3.1.4.2c.2.2.3.4.3.7s0 .5-.1.7-.1.5-.2.7c-.1.2-.1.4-.2.6-.1.2-.1.4-.1.5 0 .2-.1.3-.1.4.1-.1.2-.2.2-.4l.3-.6c.7-1.3 1.5-2.2 2.2-2.7.2-.1.5-.2.7-.2s.5.1.7.3.3.4.3.7c0 .2 0 .4-.1.6 0 .2-.1.3-.2.5-.2.3-.4.5-.7.5-.1 0-.1 0-.2-.1l-.2-.2c-.2-.2-.4-.2-.5-.2s-.4.1-.6.3-.5.5-.8.9c-.9 1.2-1.6 2.5-2.2 4l-.4 1c-.1.2-.2.4-.3.5s-.2.2-.3.2-.3 0-.4-.1.1-.1-.1-.2zM166.7 162.3c.1 0 .2.1.2.2 0 .5-.3.9-.8 1.3-.3.2-.7.4-1 .4s-.5 0-.7-.1-.3-.2-.5-.3c-.3-.3-.5-.8-.5-1.4 0-.1 0-.3.1-.6-.5.7-.9 1.2-1.2 1.5-.7.6-1.3.9-2 .9-1 0-1.7-.5-2-1.4-.1-.3-.2-.8-.2-1.3s.1-1 .2-1.5.4-1 .6-1.5c.3-.5.6-.9.9-1.3.4-.4.7-.8 1.1-1 .8-.6 1.6-.9 2.3-.9s1.2.3 1.6.8c1-3.4 1.7-5.4 2.2-6 .2-.3.4-.4.7-.4.4 0 .7.1.9.3.1.1.1.1.1.2s0 .2-.1.4-.2.5-.4 1c-.5 1.3-.9 2.3-1.1 2.9-.5 1.6-.9 2.7-1.1 3.3l-.5 1.6c-.4 1.4-.6 2.3-.6 2.7s.1.6.4.6c.3 0 .5 0 .6-.1l.3-.2c.4-.1.5-.1.5-.1zm-5.9.5c.6 0 1.3-.6 2-1.7.8-1.2 1.3-2.5 1.7-3.9 0-.4-.2-.7-.5-.9-.1-.1-.3-.1-.5-.1s-.5.1-.7.2c-.3.2-.5.4-.8.6s-.5.6-.7.9c-.2.3-.4.7-.6 1.1-.4.8-.5 1.7-.5 2.5 0 .9.2 1.3.6 1.3zM170.8 162.4c.1 0 .2.1.2.3 0 .3-.1.5-.4.8-.3.4-.8.6-1.4.6-.7 0-1.1-.3-1.4-.8-.1-.2-.1-.4-.1-.7s0-.6.1-.9c.1-.3.2-.7.4-1 .1-.4.3-.7.5-1.1l.5-1.1c.3-.8.5-1.3.5-1.6s0-.4-.1-.5l-.2-.2-.2-.1c-.1 0-.1-.1-.1-.2s0-.2.1-.3.2-.2.3-.2c.3-.1.6-.2.9-.2.8 0 1.3.2 1.3.7s-.1 1.1-.4 1.8c-.3.7-.5 1.2-.7 1.6l-.5 1.2c-.4.9-.6 1.5-.6 1.9 0 .3.1.4.4.4.2 0 .4 0 .6-.1.2-.3.3-.3.3-.3zm1.8-9.3c-.1.1-.3.2-.4.3s-.3.1-.5.2-.3 0-.5-.1-.3-.2-.4-.3c-.2-.3-.4-.6-.4-.9 0-.3 0-.5.1-.7.1-.1.2-.3.4-.4.3-.2.5-.3.8-.3.2 0 .4 0 .6.1s.3.1.4.2c.3.2.4.4.4.7s0 .5-.1.7c-.2.2-.3.4-.4.5zM179.1 156.8c-.2 0-.4.2-.8.5s-.6.6-.8.9l-.7.9-1.4 1.8-.8 1.6-.5 1c-.1.2-.2.4-.3.5s-.2.2-.4.2-.3 0-.4-.1-.3-.1-.4-.2c-.2-.2-.3-.4-.3-.6 0-.1.1-.3.2-.5l.3-.7c.1-.2.2-.5.4-.8l.5-1.2c.7-1.7 1-2.8 1-3.3 0-.3-.1-.5-.3-.6l-.2-.1c-.1 0-.1-.1-.1-.2s0-.2.1-.3.2-.2.3-.2c.3-.1.5-.2.8-.2s.5 0 .6.1.3.1.4.2c.2.2.3.4.3.6 0 .2 0 .4-.1.7-.1.2-.1.4-.2.7-.1.2-.2.4-.3.7-.1.2-.2.4-.2.6l-.2.4c0 .1-.1.1 0 .1.6-.9 1.1-1.4 1.3-1.7l.6-.7c.4-.5.8-.9 1-1 .5-.3.9-.5 1.2-.5s.5 0 .7.1.4.2.5.3c.3.3.5.7.5 1.1 0 .5-.1.9-.3 1.4s-.4.9-.5 1.2-.3.6-.4.9c-.4 1-.6 1.6-.6 2.1 0 .2.2.3.5.3.2 0 .5-.1.7-.2.2-.1.3-.2.4-.2.1 0 .2.1.2.2 0 .5-.3.9-.8 1.3-.3.2-.7.4-1 .4s-.5 0-.7-.1-.4-.2-.5-.3c-.3-.3-.5-.7-.5-1.3 0-.7.2-1.5.6-2.5.3-.7.5-1.1.6-1.4l.3-.6c.2-.4.3-.7.3-.9s-.2-.4-.6-.4zM189.4 161.7c0 .5.2.8.6.8.3 0 .5 0 .6-.1.2-.1.3-.1.3-.1.1 0 .2.1.2.2 0 .5-.3.9-.8 1.3s-1.1.5-1.7.3c-.4-.1-.6-.4-.8-.8-.1-.2-.1-.4-.1-.6 0-.3 0-.6.1-.9-.5 1.1-1.2 1.8-2 2.2-.3.2-.6.2-1 .2s-.7-.1-.9-.2c-.3-.1-.5-.3-.7-.6-.4-.5-.5-1.2-.5-2 0-1 .3-2 .9-3 .5-.9 1.2-1.7 2-2.2.8-.6 1.5-.9 2.2-.9s1.2.3 1.7 1c.4-.6.7-1 1-1s.6.1.7.2c.3.2.4.4.3.6-1.4 2.9-2.2 4.8-2.2 5.5.1-.1.1 0 .1.1zm-4.7.1c0 .7.2 1 .7 1 .3 0 .8-.3 1.2-.9.7-.8 1.4-2 1.9-3.4.2-.4.3-.9.4-1.3 0-.4-.2-.7-.5-.9-.1-.1-.3-.1-.5-.1s-.4.1-.7.2-.5.4-.8.6c-.3.3-.5.6-.7.9-.2.4-.4.7-.6 1.1-.3 1-.4 1.9-.4 2.8zM197.3 161.8c.2 0 .2.1.2.3s-.1.4-.2.5c-.2.3-.5.6-.9.9-.5.3-1.1.5-1.6.5-.9 0-1.5-.4-1.7-1.2-.3-1 .1-3 1.3-6.2-.7-.1-1-.2-1.1-.3v-.2c0-.1 0-.1.1-.2s.1-.2.2-.2c.2-.2.4-.2.6-.2h.7c.6-1.4 1.1-2.3 1.3-2.5.1-.1.3-.1.4-.1s.3 0 .4.1c.1 0 .2.1.3.2.2.2.3.4.3.6 0 .1 0 .2-.1.4l-.6 1.4h2c.2 0 .2.1.2.2 0 .8-.9 1.1-2.7 1.1h-.1l-.6 1.5c-.7 1.8-1 3-1 3.7 0 .2 0 .4.1.5s.3.2.5.2.5 0 .7-.1.4-.2.5-.3c.2-.1.3-.2.4-.3.2-.3.3-.3.4-.3zM198.7 161c0-.5.1-1 .2-1.4.1-.5.3-.9.6-1.3.2-.4.5-.8.8-1.2s.7-.7 1.1-1c.8-.6 1.6-.9 2.5-.9 1 0 1.6.4 2 1.2.1.3.2.6.2 1s-.1.7-.2 1c-.1.3-.3.6-.6.9-.2.3-.5.5-.9.7-.3.2-.7.4-1.1.5-.8.3-1.7.4-2.6.4v.4c0 .2 0 .3.1.5 0 .2.1.4.2.5.2.3.5.5.9.5.7 0 1.3-.2 1.9-.6.2-.1.4-.3.5-.4.1-.1.3-.2.4-.2.1 0 .2.1.3.2.1.1.1.3.1.4 0 .3-.1.6-.3.8-.7.7-1.8 1.1-3.2 1.1-.8 0-1.5-.3-2-.8-.7-.5-.9-1.3-.9-2.3zm5-4.7c-.6 0-1.2.4-1.7 1.2-.5.7-.8 1.5-1.1 2.5 1-.1 1.8-.5 2.5-1.1.6-.6 1-1.2 1-1.8-.1-.5-.3-.8-.7-.8zM206.5 162.5c0-.2 0-.3.1-.5s.2-.3.3-.4c.2-.2.5-.3.8-.3.2 0 .3.1.3.4 0 .6.2 1 .6 1.2.1.1.3.1.4.1s.3 0 .4-.1.2-.1.3-.2c.2-.2.3-.4.3-.6 0-.2-.1-.4-.2-.6-.1-.2-.2-.4-.4-.6l-.5-.7c-.7-.9-1-1.8-1-2.5 0-.6.3-1.2.8-1.7.6-.6 1.4-.9 2.4-.9.8 0 1.5.2 2 .6.4.3.6.7.6 1.2s-.2.8-.5 1.1c-.3.2-.6.3-.9.3-.1 0-.2-.1-.3-.2s-.1-.2 0-.4c0-.1.1-.3.1-.4s0-.3-.1-.4-.1-.2-.2-.3c-.2-.2-.4-.3-.6-.3-.2 0-.4 0-.5.1-.1 0-.3.1-.4.2-.2.2-.3.5-.3.8s.1.6.2.8.2.4.4.7.3.4.5.7c.2.2.3.5.5.7.4.6.5 1.1.5 1.5s-.1.8-.3 1.1-.4.5-.7.8c-.6.5-1.3.7-2.1.7-.7 0-1.3-.2-1.7-.5-.6-.6-.8-1-.8-1.4z"/></g><path fill="#5B74BC" d="M296.1 30.1h2v1.2h-2zM298.1 296.2h-2v-2.4h2v2.4zm0-4.8h-2V289h2v2.4zm0-4.8h-2v-2.4h2v2.4zm0-4.8h-2v-2.4h2v2.4zm0-4.8h-2v-2.4h2v2.4zm0-4.9h-2v-2.4h2v2.4zm0-4.8h-2v-2.4h2v2.4zm0-4.8h-2v-2.4h2v2.4zm0-4.8h-2v-2.4h2v2.4zm0-4.8h-2v-2.4h2v2.4zm0-4.8h-2v-2.4h2v2.4zm0-4.9h-2v-2.4h2v2.4zm0-4.7h-2v-2.4h2v2.4zm0-4.8h-2v-2.4h2v2.4zm0-4.9h-2v-2.4h2v2.4zm0-4.8h-2v-2.4h2v2.4zm0-4.9h-2v-2.4h2v2.4zm0-4.7h-2V212h2v2.4zm0-4.8h-2v-2.4h2v2.4zm0-4.9h-2v-2.4h2v2.4zm0-4.8h-2v-2.4h2v2.4zm0-4.8h-2v-2.4h2v2.4zm0-4.8h-2v-2.4h2v2.4zm0-4.8h-2v-2.4h2v2.4zm0-4.8h-2v-2.4h2v2.4zm0-4.9h-2v-2.4h2v2.4zm0-4.8h-2v-2.4h2v2.4zm0-4.8h-2v-2.4h2v2.4zm0-4.8h-2V159h2v2.4zm0-4.8h-2v-2.4h2v2.4zm0-4.9h-2v-2.4h2v2.4zm0-4.8h-2v-2.4h2v2.4zm0-4.8h-2v-2.4h2v2.4zm0-4.8h-2v-2.4h2v2.4zm0-4.8h-2v-2.4h2v2.4zm0-4.8h-2v-2.4h2v2.4zm0-4.9h-2v-2.4h2v2.4zm0-4.8h-2v-2.4h2v2.4zm0-4.8h-2v-2.4h2v2.4zm0-4.8h-2V106h2v2.4zm0-4.8h-2v-2.4h2v2.4zm0-4.9h-2v-2.4h2v2.4zm0-4.8h-2v-2.4h2v2.4zm0-4.7h-2v-2.4h2v2.4zm0-4.9h-2v-2.4h2v2.4zm0-4.8h-2v-2.4h2v2.4zm0-4.8h-2v-2.4h2v2.4zm0-4.9h-2v-2.4h2v2.4zm0-4.7h-2v-2.4h2v2.4zm0-4.8h-2v-2.4h2v2.4zm0-4.9h-2V53h2v2.4zm0-4.8h-2v-2.4h2v2.4zm0-4.8h-2v-2.4h2v2.4zm0-4.8h-2v-2.4h2V41zm0-4.8h-2v-2.4h2v2.4zM296.1 298.6h2v1.2h-2z"/><path fill="#7C7C7C" d="M300.4 30.1h2v1.2h-2zM300.4 298.6h2v1.2h-2z"/><path fill="#5B74BC" d="M38.5 298.6h2v1.2h-2zM40.5 296.2h-2v-2.4h2v2.4zm0-4.8h-2V289h2v2.4zm0-4.8h-2v-2.4h2v2.4zm0-4.8h-2v-2.4h2v2.4zm0-4.8h-2v-2.4h2v2.4zm0-4.9h-2v-2.4h2v2.4zm0-4.8h-2v-2.4h2v2.4zm0-4.8h-2v-2.4h2v2.4zm0-4.8h-2v-2.4h2v2.4zm0-4.8h-2v-2.4h2v2.4zm0-4.8h-2v-2.4h2v2.4zm0-4.9h-2v-2.4h2v2.4zm0-4.7h-2v-2.4h2v2.4zm0-4.8h-2v-2.4h2v2.4zm0-4.9h-2v-2.4h2v2.4zm0-4.8h-2v-2.4h2v2.4zm0-4.9h-2v-2.4h2v2.4zm0-4.7h-2V212h2v2.4zm0-4.8h-2v-2.4h2v2.4zm0-4.9h-2v-2.4h2v2.4zm0-4.8h-2v-2.4h2v2.4zm0-4.8h-2v-2.4h2v2.4zm0-4.8h-2v-2.4h2v2.4zm0-4.8h-2v-2.4h2v2.4zm0-4.8h-2v-2.4h2v2.4zm0-4.9h-2v-2.4h2v2.4zm0-4.8h-2v-2.4h2v2.4zm0-4.8h-2v-2.4h2v2.4zm0-4.8h-2V159h2v2.4zm0-4.8h-2v-2.4h2v2.4zm0-4.9h-2v-2.4h2v2.4zm0-4.8h-2v-2.4h2v2.4zm0-4.8h-2v-2.4h2v2.4zm0-4.8h-2v-2.4h2v2.4zm0-4.8h-2v-2.4h2v2.4zm0-4.8h-2v-2.4h2v2.4zm0-4.9h-2v-2.4h2v2.4zm0-4.8h-2v-2.4h2v2.4zm0-4.8h-2v-2.4h2v2.4zm0-4.8h-2V106h2v2.4zm0-4.8h-2v-2.4h2v2.4zm0-4.9h-2v-2.4h2v2.4zm0-4.8h-2v-2.4h2v2.4zm0-4.7h-2v-2.4h2v2.4zm0-4.9h-2v-2.4h2v2.4zm0-4.8h-2v-2.4h2v2.4zm0-4.8h-2v-2.4h2v2.4zm0-4.9h-2v-2.4h2v2.4zm0-4.7h-2v-2.4h2v2.4zm0-4.8h-2v-2.4h2v2.4zm0-4.9h-2V53h2v2.4zm0-4.8h-2v-2.4h2v2.4zm0-4.8h-2v-2.4h2v2.4zm0-4.8h-2v-2.4h2V41zm0-4.8h-2v-2.4h2v2.4zM38.5 30.1h2v1.2h-2z"/><g><path fill="#DBDBDB" d="M250.8 244.6h-2.5v-2h.5v-.5h2zM245.3 244.6h-3v-2h3v2zm-5.9 0h-3v-2h3v2zm-5.9 0h-3v-2h3v2zm-5.9 0h-3v-2h3v2zm-5.9 0h-3v-2h3v2zm-5.9 0h-3v-2h3v2zm-5.9 0h-3v-2h3v2zm-5.9 0h-3v-2h3v2zm-5.9 0h-3v-2h3v2zm-5.9 0h-3v-2h3v2zm-5.9 0h-3v-2h3v2zm-6 0h-3v-2h3v2zm-5.9 0h-3v-2h3v2zm-5.9 0h-3v-2h3v2zm-5.9 0h-3v-2h3v2zm-5.9 0h-3v-2h3v2zm-5.9 0h-3v-2h3v2zm-5.9 0h-3v-2h3v2zm-5.9 0h-3v-2h3v2zm-5.9 0h-3v-2h3v2zm-5.9 0h-3v-2h3v2zm-5.9 0h-3v-2h3v2zm-6 0h-3v-2h3v2zm-5.9 0h-3v-2h3v2zm-5.9 0h-3v-2h3v2zm-5.9 0h-3v-2h3v2zm-5.9 0h-3v-2h3v2zM85.8 244.6h-2.5v-2.5h2v.5h.5zM85.3 239.2h-2v-3h2v3zm0-5.9h-2v-3h2v3zm0-5.9h-2v-3h2v3zm0-5.9h-2v-3h2v3zm0-5.9h-2v-3h2v3zm0-6h-2v-3h2v3zm0-5.9h-2v-3h2v3zm0-5.9h-2v-3h2v3zm0-5.9h-2v-3h2v3zm0-5.9h-2v-3h2v3zm0-5.9h-2v-3h2v3zm0-5.9h-2v-3h2v3zm0-5.9h-2v-3h2v3zm0-5.9h-2v-3h2v3zm0-5.9h-2v-3h2v3zm0-5.9h-2v-3h2v3zm0-6h-2v-3h2v3zm0-5.9h-2v-3h2v3zm0-5.9h-2v-3h2v3zm0-5.9h-2v-3h2v3zm0-5.9h-2v-3h2v3zm0-5.9h-2v-3h2v3zm0-5.9h-2v-3h2v3zm0-5.9h-2v-3h2v3zm0-5.9h-2v-3h2v3zm0-5.9h-2v-3h2v3zm0-5.9h-2v-3h2v3zM85.3 79.6h-2v-2.5h2.5v2h-.5zM245.3 79.1h-3v-2h3v2zm-5.9 0h-3v-2h3v2zm-5.9 0h-3v-2h3v2zm-5.9 0h-3v-2h3v2zm-5.9 0h-3v-2h3v2zm-5.9 0h-3v-2h3v2zm-5.9 0h-3v-2h3v2zm-5.9 0h-3v-2h3v2zm-5.9 0h-3v-2h3v2zm-5.9 0h-3v-2h3v2zm-5.9 0h-3v-2h3v2zm-6 0h-3v-2h3v2zm-5.9 0h-3v-2h3v2zm-5.9 0h-3v-2h3v2zm-5.9 0h-3v-2h3v2zm-5.9 0h-3v-2h3v2zm-5.9 0h-3v-2h3v2zm-5.9 0h-3v-2h3v2zm-5.9 0h-3v-2h3v2zm-5.9 0h-3v-2h3v2zm-5.9 0h-3v-2h3v2zm-5.9 0h-3v-2h3v2zm-6 0h-3v-2h3v2zm-5.9 0h-3v-2h3v2zm-5.9 0h-3v-2h3v2zm-5.9 0h-3v-2h3v2zm-5.9 0h-3v-2h3v2zM250.8 79.6h-2v-.5h-.5v-2h2.5zM250.8 239.2h-2v-3h2v3zm0-5.9h-2v-3h2v3zm0-5.9h-2v-3h2v3zm0-5.9h-2v-3h2v3zm0-5.9h-2v-3h2v3zm0-6h-2v-3h2v3zm0-5.9h-2v-3h2v3zm0-5.9h-2v-3h2v3zm0-5.9h-2v-3h2v3zm0-5.9h-2v-3h2v3zm0-5.9h-2v-3h2v3zm0-5.9h-2v-3h2v3zm0-5.9h-2v-3h2v3zm0-5.9h-2v-3h2v3zm0-5.9h-2v-3h2v3zm0-5.9h-2v-3h2v3zm0-6h-2v-3h2v3zm0-5.9h-2v-3h2v3zm0-5.9h-2v-3h2v3zm0-5.9h-2v-3h2v3zm0-5.9h-2v-3h2v3zm0-5.9h-2v-3h2v3zm0-5.9h-2v-3h2v3zm0-5.9h-2v-3h2v3zm0-5.9h-2v-3h2v3zm0-5.9h-2v-3h2v3zm0-5.9h-2v-3h2v3z"/></g><g><g fill="none" stroke="#40B481" stroke-width="1.788" stroke-miterlimit="10"><path d="M339 299.7v1.4h-1.4"/><path stroke-dasharray="2.6832,2.6832" d="M335 301.1H3.6"/><path d="M2.2 301.1H.9v-1.4"/><path stroke-dasharray="2.6563,2.6563" d="M.9 297.1V32.8"/><path d="M.9 31.4v-1.3h1.3"/><path stroke-dasharray="2.6832,2.6832" d="M4.9 30.1h331.4"/><path d="M337.6 30.1h1.4v1.3"/><path stroke-dasharray="2.6563,2.6563" d="M339 34.1v264.3"/></g></g><g><circle fill="none" stroke="#36CC89" stroke-width="4" stroke-miterlimit="10" stroke-dasharray="15.7562,7.8781" cx="167.1" cy="161.2" r="81.3"/></g><g fill="#40B481"><path d="M137.5 61.8l-.1.8c0 .8.3 1.4.8 1.7.2.1.4.2.7.2s.5 0 .7-.1c.2-.1.4-.2.5-.4.3-.3.4-.7.4-1.1s-.1-.8-.2-1.1c-.2-.3-.4-.6-.6-1l-.8-1c-.7-.8-1.1-1.5-1.3-2.1-.2-.6-.3-1.2-.3-1.8s.1-1.1.2-1.5c.1-.5.3-.9.6-1.4.2-.4.5-.8.9-1.2s.7-.7 1.1-.9c.8-.6 1.7-.9 2.5-.9s1.5.1 1.9.3.8.5 1.1.9c.5.7.8 1.5.8 2.4 0 .9-.2 1.7-.7 2.5-.5.7-1 1.2-1.5 1.3-.1.1-.3.1-.5.1s-.4 0-.5-.1c-.1-.1-.3-.2-.4-.3-.2-.2-.4-.5-.4-.8 0-.2.1-.3.2-.4.5-.3 1-.7 1.3-1.2.4-.6.6-1.1.6-1.7 0-.6-.1-1-.4-1.3-.3-.3-.7-.4-1.2-.4s-.9.1-1.3.3c-.4.2-.7.5-1 .9-.6.8-.9 1.7-.9 2.8 0 .7.3 1.5.8 2.3.2.3.4.7.7 1 .2.3.5.7.7 1 .5.8.7 1.6.7 2.2s-.1 1.2-.4 1.6c-.2.4-.5.8-.9 1.2-.8.7-1.8 1.1-2.8 1.1-1 0-1.8-.3-2.3-.9-.4-.5-.7-1-.7-1.6 0-.6.2-1.1.5-1.5.3-.3.5-.5.8-.6.4.1.7.2.7.7zM151.4 63.1c.2 0 .3.1.3.4 0 .2-.1.4-.2.6-.2.4-.5.8-1.1 1.1-.6.4-1.2.6-1.9.6-1.1 0-1.8-.5-2.1-1.5-.3-1.2.2-3.6 1.6-7.4-.8-.1-1.2-.2-1.3-.4v-.2c0-.1 0-.2.1-.2s.1-.2.2-.3c.2-.2.5-.3.7-.3h.8c.7-1.7 1.3-2.7 1.6-2.9.1-.1.3-.2.5-.2s.3 0 .5.1.2.1.3.2c.2.2.3.4.3.7 0 .1 0 .3-.1.5l-.8 1.6h2.3c.2 0 .3.1.3.2 0 .9-1.1 1.3-3.2 1.3h-.1l-.7 1.8c-.8 2.1-1.2 3.6-1.2 4.4 0 .2.1.4.2.6.1.1.3.2.6.2s.6-.1.8-.2.5-.2.6-.3c.2-.1.3-.2.5-.3s.4-.1.5-.1zM153.1 62.2c0-.6.1-1.2.3-1.7.2-.5.4-1.1.7-1.6s.6-1 1-1.4c.4-.5.8-.8 1.2-1.2 1-.7 1.9-1.1 2.9-1.1 1.2 0 1.9.5 2.3 1.4.1.3.2.7.2 1.2 0 .4-.1.9-.3 1.2-.2.4-.4.7-.7 1-.3.3-.6.6-1 .8-.4.2-.8.5-1.3.6-1 .3-2 .5-3.1.5 0 .1 0 .2-.1.4s0 .4.1.6.1.4.2.6c.2.4.6.6 1.1.6.8 0 1.6-.2 2.3-.7.3-.2.5-.3.6-.5s.3-.2.4-.2c.1 0 .2.1.3.2.1.1.1.3.1.5 0 .4-.1.7-.3.9-.9.9-2.1 1.3-3.8 1.3-1 0-1.8-.3-2.4-.9-.4-.4-.8-1.3-.7-2.5zm5.9-5.6c-.7 0-1.4.5-2.1 1.5-.6.8-1 1.8-1.3 3 1.1-.1 2.1-.6 2.9-1.3.8-.7 1.1-1.4 1.1-2.1.1-.7-.1-1.1-.6-1.1zM170.1 57.2c-.2 0-.5.2-.9.6-.4.4-.7.8-1 1.1l-.9 1-1.7 2.1c-.4.7-.7 1.4-.9 1.9l-.5 1.2c-.1.3-.3.5-.4.6s-.2.2-.4.2-.4 0-.5-.1c-.2-.1-.3-.1-.4-.2-.3-.2-.4-.5-.4-.7 0-.1.1-.3.2-.6l.4-.8c.1-.2.3-.6.4-.9l.6-1.4c.8-2 1.2-3.3 1.2-3.9 0-.3-.1-.5-.3-.7l-.2-.1c-.1 0-.1-.1-.1-.2s0-.2.1-.3.2-.2.4-.3c.3-.2.6-.2.9-.2s.5 0 .7.1c.2.1.3.2.4.3.3.2.4.5.4.7s0 .5-.1.8c-.1.3-.1.5-.2.8-.1.3-.2.5-.3.8s-.2.5-.3.7l-.2.4-.1-.1c.8-1 1.2-1.7 1.5-2l.7-.9c.5-.6.9-1 1.2-1.2.6-.4 1.1-.6 1.4-.6.3 0 .6 0 .9.1.2.1.4.2.6.4.4.3.6.8.6 1.3s-.1 1.1-.4 1.7c-.2.6-.5 1.1-.6 1.4-.2.4-.3.7-.5 1.1-.5 1.1-.8 2-.8 2.5 0 .2.2.3.5.3s.5-.1.8-.2c.2-.1.4-.2.5-.2.1 0 .2.1.2.2 0 .6-.3 1.1-.9 1.5-.4.3-.8.4-1.1.4-.3 0-.6 0-.9-.1-.2-.1-.4-.2-.6-.4-.4-.4-.6-.9-.6-1.5 0-.8.2-1.8.7-2.9.4-.8.6-1.4.8-1.7l.3-.7c.2-.4.3-.8.3-1s-.1-.3-.5-.3zM174.4 62.3c0-.6.1-1.2.3-1.8.2-.6.4-1.1.7-1.7s.6-1 1-1.4c.4-.4.8-.8 1.3-1.1 1-.7 2-1 3.1-1s1.9.4 2.3 1.3c.1.3.2.7.2 1.1s-.1.8-.2 1.1c-.1.3-.3.6-.5.9-.4.6-.8.9-1.2.9-.5 0-.8-.1-1-.4-.2-.2-.3-.5-.2-.8 0-.1.1-.2.2-.2s.2-.2.4-.3c.4-.5.7-1 .7-1.6 0-.4-.2-.6-.8-.6-.6 0-1.2.3-1.8 1-.9.9-1.5 2.1-1.9 3.6-.3 1.3-.3 2.2.2 2.8.3.3.6.5 1.1.5.8 0 1.5-.3 2.2-.8.2-.2.4-.3.5-.5.1-.2.3-.3.4-.3s.2.1.3.2.1.3.1.4c0 .4-.2.8-.5 1.2-.9.9-2 1.3-3.3 1.3-1.1 0-2-.3-2.6-.9-.7-.9-1-1.8-1-2.9zM187.5 63.9c.2 0 .3.1.3.3 0 .3-.1.6-.4.9-.4.5-1 .7-1.6.7-.8 0-1.3-.3-1.6-1-.1-.2-.2-.5-.2-.8 0-.3.1-.7.2-1.1s.3-.8.4-1.2c.2-.4.3-.9.5-1.3l.5-1.3c.4-1 .6-1.6.6-1.9s0-.5-.1-.6c-.1-.1-.1-.2-.2-.2l-.2-.1c-.1 0-.1-.1-.1-.2s0-.2.1-.3c.1-.1.2-.2.4-.3.3-.2.7-.2 1.1-.2 1 0 1.5.3 1.5.8 0 .6-.2 1.3-.5 2.1s-.6 1.4-.8 1.9l-.6 1.4c-.4 1-.7 1.8-.7 2.2 0 .3.1.4.4.4.3 0 .5 0 .7-.1.2-.1.3-.1.3-.1zm2.1-11c-.1.2-.3.3-.5.4s-.4.2-.6.2c-.2 0-.4 0-.6-.1-.2-.1-.3-.2-.5-.4-.3-.3-.4-.7-.4-1s.1-.6.2-.8c.1-.2.3-.3.4-.4.3-.2.6-.3.9-.3.3 0 .5 0 .7.1s.3.1.4.2c.3.2.5.5.5.8 0 .3 0 .6-.1.8-.1.1-.2.3-.4.5zM190.6 65.4c-.2-.2-.3-.4-.4-.7-.1-.3-.2-.6-.2-1s.1-.8.2-1.5c.2-.6.4-1.3.6-2.1l.9-2.5c1.2-3.5 1.9-6.2 2.1-8.2.1-.6.3-.9.8-.9.3 0 .6.1.8.2.4.3.6.6.6 1s-.1.8-.2 1.3-.3 1.1-.4 1.7c-.2.6-.4 1.3-.6 2l-1.4 4.1c-.8 2.3-1.2 3.9-1.2 4.5 0 .4.1.5.4.5.3 0 .5-.1.8-.2s.4-.2.5-.2c.1 0 .2.1.2.2 0 .6-.3 1.1-.9 1.5-.4.3-.8.4-1.1.4s-.6 0-.8-.1c-.3.3-.5.2-.7 0z"/></g></svg>