<svg xmlns="http://www.w3.org/2000/svg" width="16" height="16"><path fill="#777" d="M14.4 9.5c0-.4.3-.8.8-.8s.8.3.8.8v4.3c0 .6-.3 1.2-.7 1.6s-1 .7-1.6.7H2.2c-.6 0-1.2-.3-1.6-.7s-.6-1-.6-1.6V2.2C0 1.6.2 1 .7.6S1.6 0 2.2 0h4.3c.4 0 .8.3.8.8s-.4.7-.8.7H2.2c-.2 0-.3.1-.5.2-.1.2-.2.3-.2.5v11.5c0 .2.1.4.2.5.1.1.3.2.5.2h11.5c.2 0 .4-.1.5-.2.1-.1.2-.3.2-.5V9.5zm.2-7.2L7 10c-.3.3-.8.3-1.1 0-.2-.3-.2-.8.1-1.1l7.3-7.4h-3c-.4 0-.8-.3-.8-.8s.3-.7.7-.7h3.5c.7 0 1.5-.1 2 .4.3.3.3 2.9.2 4.5v.9c0 .4-.3.8-.8.8-.4 0-.8-.3-.8-.8v-.9c.1-.9.3-1.9.3-2.6z"/></svg>