<?xml version="1.0" encoding="utf-8"?>
<!-- Generator: Adobe Illustrator 18.0.0, SVG Export Plug-In . SVG Version: 6.00 Build 0)  -->
<!DOCTYPE svg PUBLIC "-//W3C//DTD SVG 1.1//EN" "http://www.w3.org/Graphics/SVG/1.1/DTD/svg11.dtd">
<svg version="1.1" id="Layer_1" xmlns="http://www.w3.org/2000/svg" xmlns:xlink="http://www.w3.org/1999/xlink" x="0px" y="0px"
	 width="60.6px" height="60.6px" viewBox="0 0 60.6 60.6" enable-background="new 0 0 60.6 60.6" xml:space="preserve">
<circle fill="none" stroke="#000000" stroke-width="2.7984" stroke-miterlimit="10" cx="30.3" cy="30.3" r="28.9"/>
<g>
	<path fill="none" d="M6.5,24.2c0-0.1,0-0.2,0.1-0.2c0,0-0.1,0-0.1,0L6.5,24.2z"/>
	<path fill="none" d="M54.2,24C54.2,24,54.1,24,54.2,24c0,0.1,0,0.2,0,0.2L54.2,24z"/>
	<path d="M54.2,24.2c0-0.1,0-0.2-0.1-0.2c-0.5,0-5.2-0.2-8.4,2.9c-1.9,1.8-1.7,5.2-1.8,8.8c0,3,2.1,9.8,3.1,12.6
		c4.8-4.6,7.8-11.1,7.8-18.3c0-1.4-0.1-2.8-0.3-4.2l-0.3,0L54.2,24.2z"/>
	<path d="M14.9,26.8c-3.2-3-7.9-2.9-8.4-2.9c0,0.1,0,0.2-0.1,0.2l0,1.6l-0.3,0c-0.2,1.4-0.3,2.8-0.3,4.2c0,7.2,3,13.7,7.8,18.3
		c0.9-2.8,3.1-9.6,3.1-12.6C16.7,32,16.8,28.7,14.9,26.8z"/>
	<path d="M26.9,8.2c-0.1,0-0.1,0-0.1,0s3-0.2,3.2-0.2c0.2,0,0.3,0,0.3,0v0h0h0v0c0,0,0.1,0,0.3,0c0.2,0,3.2,0.2,3.2,0.2s0,0-0.1,0
		c2.6-0.1,6.3,0,10.4,1.1C40.2,6.6,35.4,5,30.3,5s-9.8,1.6-13.8,4.3C20.6,8.2,24.3,8.1,26.9,8.2z"/>
	<path d="M54.2,25.8l0.3,0c-0.1-0.5-0.2-1.1-0.3-1.6L54.2,25.8z"/>
	<path d="M6.5,24.2c-0.1,0.5-0.2,1.1-0.3,1.6l0.3,0L6.5,24.2z"/>
	<path d="M25.5,29.7l1.1,1.2c0,0-0.5,0.5-1.9,2.7c-0.8,1.3-2.8,5-4,9.7c-1.2,4.4-2.1,6.9-2,8.7c1.7,0.9,3.4,1.6,5.3,2.1h12.7
		c1.9-0.5,3.6-1.2,5.3-2.1c0-1.7-0.8-4.3-2-8.7c-1.2-4.7-3.2-8.4-4-9.7c-1.4-2.2-1.9-2.7-1.9-2.7l1.1-1.2c5.8,6.4,7.4,13.6,8.6,21.1
		c1.2-0.8,2.2-1.6,3.2-2.6c-0.9-2.8-3.1-9.6-3.1-12.6c0-3.6-0.1-7,1.8-8.8c3.2-3,7.9-2.9,8.4-2.9c-0.3-1.4-0.8-2.7-1.3-4
		c-0.3,0.8-1,1.5-2,2.2c-1.5,1.1-3.8,1.5-5.2,2.3c-0.9,0.5-2.7,1.6-3.8,3.9c-1.2,2.5-1,3.7-1,3.7l-3.3-3.6c0,0,0.4-1-0.1-2.2
		c-0.7-1.6-2-2.3-2-2.3s3.6,1.1,5.8,0.3c3.8-1.4,5.4-5.3,5.4-5.3s0.3,0.6,0.6,0.8c2,1.6,3.2,0.7,3.4,0.5c0.3-0.4,0.5-0.7,0.5-1.2
		c0-0.4-0.2-0.8-0.6-1c-0.4-0.1-0.8,0.3-0.8,0.8c0,0.6,0.3,0.8,0.3,0.8s-0.7,0-1.2-0.7c-0.3-0.4-0.4-1.4,0.2-1.9
		c0.6-0.5,1.3-0.7,2-0.5c-0.6-0.9-1.2-1.8-1.9-2.6c-0.2-0.1-0.5-0.2-0.7-0.3c-0.6-0.3-1.9-1-3.8-1.6c-0.8-0.2-3.3-0.9-4-1
		c-1.1-0.1-3.4-0.5-4.9,1.2c-0.5,0.6-0.4,1.7,0,2c1.2,0.8,1.4-0.4,1.2-0.7c-0.2-0.3-0.1-1.2,0.3-1.5c0.4-0.3,1-0.5,1.8-0.2
		c0.5,0.2,0.9,0.9,1,1.6c0,0.7-0.2,1.4-0.8,1.7s-1,0.5-1.7,0.6c-0.8,0.1-1.4,0-2-0.2c-0.7-0.2-1.6-0.7-2.2-2
		c-0.6-1.3-0.3-1.9,0.1-2.6c1.3-2.2,4.3-1.6,5.6-1.5c4.5,0.5,6.5,1.4,7.7,1.9c0.1,0,0.1,0.1,0.2,0.1c-0.8-0.8-1.7-1.5-2.7-2.2
		c-4-1.1-7.8-1.2-10.4-1.1c-0.3,0.1-1.1,0.6-1.6,1.9c-0.4,0.8-0.4,3.5-0.4,3.5s0.3,4.7,4.9,3.8c1.5-0.3,2.5-0.6,4.5-0.2
		c0.5,0.1,1.6,0.2,2.2-0.1c0.8-0.4,0.6-0.9,0.6-0.9s-0.2,0.2-0.7,0.3s-1-0.1-0.9-0.7c0-0.6,0.5-1.1,1.1-1.2c0.7-0.2,1.5-0.1,1.9,0.4
		c0.6,0.6,0.7,2.2-0.9,2.9c-0.5,0.2-1.4,0.5-2.9,0.4c-1.7-0.1-4.3,0.3-5.4,1.6c-0.4,0.5-1.2,0.7-1.4,0.7c-0.3,0-2,0-2,0l-2.2-2.1
		l-2.2,2.1c0,0-1.7,0-2,0c-0.3,0-1-0.2-1.4-0.7c-1.2-1.3-3.7-1.7-5.4-1.6c-1.6,0.1-2.4-0.2-2.9-0.4c-1.7-0.6-1.5-2.3-0.9-2.9
		c0.5-0.5,1.2-0.6,1.9-0.4c0.6,0.2,1.1,0.6,1.1,1.2c0,0.5-0.5,0.8-0.9,0.7c-0.5-0.2-0.7-0.3-0.7-0.3s-0.2,0.5,0.6,0.9
		c0.6,0.3,1.7,0.2,2.2,0.1c2-0.4,2.9-0.1,4.5,0.2c4.6,0.9,4.9-3.8,4.9-3.8s-0.1-2.6-0.4-3.5c-0.6-1.3-1.4-1.8-1.6-1.9
		c-2.6-0.1-6.3,0-10.4,1.1c-0.9,0.7-1.8,1.4-2.7,2.2c0.1,0,0.1,0,0.2-0.1c1.2-0.5,3.2-1.3,7.7-1.9C23,9.3,26,8.8,27.3,11
		c0.4,0.7,0.7,1.3,0.1,2.6c-0.6,1.3-1.5,1.8-2.2,2c-0.7,0.2-1.2,0.3-2,0.2c-0.6,0-1-0.2-1.7-0.6s-0.8-1.1-0.8-1.7
		c0-0.8,0.4-1.4,1-1.6c0.8-0.3,1.4-0.1,1.8,0.2c0.4,0.3,0.5,1.2,0.3,1.5c-0.2,0.3-0.1,1.5,1.2,0.7c0.4-0.2,0.5-1.4,0-2
		c-1.5-1.7-3.8-1.3-4.9-1.2c-0.7,0.1-3.2,0.7-4,1c-1.9,0.6-3.2,1.3-3.8,1.6c-0.3,0.1-0.5,0.2-0.7,0.3c-0.7,0.8-1.3,1.7-1.9,2.6
		c0.7-0.2,1.5,0,2,0.5c0.6,0.5,0.5,1.5,0.2,1.9c-0.5,0.7-1.2,0.7-1.2,0.7s0.3-0.1,0.3-0.8c0-0.5-0.4-0.9-0.8-0.8
		c-0.4,0.1-0.7,0.5-0.6,1c0,0.5,0.2,0.9,0.5,1.2c0.2,0.2,1.4,1.1,3.4-0.5C13.7,19.6,14,19,14,19s1.6,3.9,5.4,5.3
		c2.3,0.9,5.8-0.3,5.8-0.3s-1.2,0.7-2,2.3c-0.6,1.2-0.1,2.2-0.1,2.2l-3.3,3.6c0,0,0.2-1.2-1-3.7C17.8,26.1,16,25,15,24.5
		c-1.4-0.7-3.7-1.1-5.2-2.3c-1-0.7-1.7-1.4-2-2.2c-0.5,1.3-1,2.6-1.3,4c0.5,0,5.2-0.2,8.4,2.9c1.9,1.8,1.7,5.2,1.8,8.8
		c0,3-2.1,9.8-3.1,12.6c1,1,2.1,1.8,3.2,2.6C18.2,43.3,19.7,36.2,25.5,29.7z M39.1,20.1c1.1-0.4,2.3-0.3,3-0.4
		c0.7-0.1,2.9-0.4,2.9-0.4s-0.5,1.4-2.1,2.5c-0.9,0.6-2.6,1.5-3.8,1.5c-2.1-0.1-2.6-1-2.6-1S38,20.5,39.1,20.1z M21.5,23.2
		c-1.2,0.1-2.9-0.9-3.8-1.5c-1.6-1.1-2.1-2.5-2.1-2.5s2.2,0.4,2.9,0.4c0.7,0.1,1.9,0,3,0.4c1.1,0.4,2.6,2.2,2.6,2.2
		S23.6,23.1,21.5,23.2z M27.9,49.1h-5.1l3.9-12.3h2.6L27.9,49.1z M37.8,49.1h-5.1l-1.3-12.3h2.6L37.8,49.1z M34.6,35h-4.3h0h-4.3
		l1.8-2.5h2.5h0h2.5L34.6,35z M26.6,25.5c0.4-0.1,0.7-0.1,1.2,0.1c0.4,0.2,0.7,0.4,0.8,0.5c-0.1-0.1-0.5-0.5-0.7-0.8
		c-0.2-0.4,0-1.2,0.2-1.8c0.3-0.6,0.2-1.3,0.2-1.3l2-1.9v0l0,0l0,0v0l2,1.9c0,0-0.1,0.7,0.2,1.3c0.3,0.6,0.5,1.4,0.2,1.8
		c-0.2,0.4-0.6,0.7-0.7,0.8c0.1-0.1,0.4-0.3,0.8-0.5c0.5-0.2,0.8-0.2,1.2-0.1c0.8,0.2,1.2,0.6,1.2,1.6c-0.1,0.9-1.2,1.1-1.7,0.5
		c-0.3-0.4-0.1-0.5-0.4-0.3c-0.1,0.1-0.4,2.2-1.2,2.8c-0.7,0.4-1.6,0.3-1.6,0.3c0,0-0.9,0.1-1.6-0.3c-0.9-0.5-1.2-2.7-1.2-2.8
		c-0.3-0.2-0.1,0-0.4,0.3c-0.5,0.6-1.6,0.3-1.7-0.5C25.3,26.1,25.8,25.7,26.6,25.5z"/>
	<path fill="#FFFFFF" d="M39.1,23.2c1.2,0.1,2.9-0.9,3.8-1.5c1.6-1.1,2.1-2.5,2.1-2.5s-2.2,0.4-2.9,0.4c-0.7,0.1-1.9,0-3,0.4
		c-1.1,0.4-2.6,2.2-2.6,2.2S37,23.1,39.1,23.2z"/>
	<g>
		<path fill="#FFFFFF" d="M40.1,55.7c-0.3,0-0.5,0-0.7-0.1c-0.9-0.5-0.9-1.1-0.7-1.5c0.3-0.7,1.3-0.7,1.6-0.7c0.2,0,0.3,0,0.4,0
			l0.2,0c0.4,0,0.7-0.2,0.8-0.7c0-0.2,0.1-0.4,0.1-0.7l0-0.1l0.1-0.1c0.6-0.3,1.2-0.7,1.8-1.1l0.3-0.2l0.2,1
			c0.4,2.3-1.2,3.2-1.8,3.6C41.8,55.4,40.9,55.7,40.1,55.7z"/>
		<g>
			<path fill="#FFFFFF" d="M43.8,50.9c0,0.2,0.1,0.5,0.1,0.7c0.4,2.3-1.3,3.1-1.8,3.4c-0.4,0.2-1.3,0.5-2,0.5c-0.2,0-0.4,0-0.6-0.1
				c-0.4-0.2-0.9-0.6-0.6-1.2c0.2-0.5,0.9-0.6,1.4-0.6c0.2,0,0.5,0,0.6,0c0.3,0,0.9-0.1,1-0.9c0-0.2,0.1-0.5,0.1-0.7
				C42.6,51.6,43.2,51.3,43.8,50.9 M44.1,50.2l-0.6,0.4c-0.6,0.4-1.2,0.8-1.8,1.1l-0.2,0.1l0,0.2c0,0.2,0,0.4-0.1,0.6
				c-0.1,0.4-0.3,0.6-0.6,0.6c0,0-0.1,0-0.2,0c-0.1,0-0.3,0-0.4,0c-1,0-1.6,0.3-1.8,0.9c-0.1,0.3-0.3,1.2,0.8,1.7
				c0.2,0.1,0.5,0.2,0.8,0.2c0.8,0,1.8-0.3,2.2-0.6l0.1,0c0.6-0.3,2.4-1.3,2-3.8l-0.1-0.5l0-0.3L44.1,50.2L44.1,50.2z"/>
		</g>
	</g>
	<g>
		<path fill="#FFFFFF" d="M41.7,52c0-1.3-0.5-3-1.2-5.7c-0.2-0.9-0.5-1.8-0.8-2.9c-1.2-4.4-3-8.1-4-9.6c-1.4-2.1-1.9-2.7-1.9-2.7
			l-0.1-0.1l1.4-1.5l0.2,0.2c5.8,6.5,7.4,13.7,8.7,21.3l0,0.1l-0.1,0.1c-0.6,0.4-1.2,0.8-1.8,1.1l-0.3,0.2L41.7,52z"/>
		<g>
			<path fill="#FFFFFF" d="M35.1,29.7c5.8,6.4,7.4,13.6,8.6,21.1c-0.6,0.4-1.2,0.8-1.8,1.1c0-1.7-0.8-4.3-2-8.7
				c-1.2-4.7-3.2-8.4-4-9.7c-1.4-2.2-1.9-2.7-1.9-2.7L35.1,29.7 M35.1,29.1l-0.3,0.4l-1.1,1.2l-0.2,0.3l0.2,0.3c0,0,0.5,0.6,1.9,2.7
				c0.7,1,2.7,4.7,4,9.5c0.3,1.1,0.6,2,0.8,2.9c0.7,2.7,1.2,4.4,1.2,5.7l0,0.7l0.7-0.4c0.6-0.3,1.2-0.7,1.8-1.1l0.2-0.2l0-0.3
				c-1.3-7.5-2.9-14.9-8.7-21.4L35.1,29.1L35.1,29.1z"/>
		</g>
	</g>
	<path fill="#FFFFFF" d="M51.6,16.8c-0.2-0.1-0.4-0.1-0.5-0.2c0.7,1.1,1.3,2.2,1.8,3.4c0.1-0.2,0.2-0.4,0.2-0.7
		C53.1,18.3,52.7,17.3,51.6,16.8z"/>
	<path fill="#FFFFFF" d="M49,17.1c-0.6,0.5-0.5,1.5-0.2,1.9c0.5,0.7,1.2,0.7,1.2,0.7s-0.3-0.1-0.3-0.8c0-0.5,0.4-0.9,0.8-0.8
		c0.4,0.1,0.7,0.5,0.6,1c0,0.5-0.2,0.9-0.5,1.2c-0.2,0.2-1.4,1.1-3.4-0.5c-0.3-0.2-0.6-0.8-0.6-0.8s-1.6,3.9-5.4,5.3
		C39,25.2,35.4,24,35.4,24s1.2,0.7,2,2.3c0.6,1.2,0.1,2.2,0.1,2.2l3.3,3.6c0,0-0.2-1.2,1-3.7c1.1-2.3,2.8-3.4,3.8-3.9
		c1.4-0.7,3.7-1.1,5.2-2.3c1-0.7,1.7-1.4,2-2.2c-0.5-1.2-1.1-2.3-1.8-3.4C50.3,16.5,49.6,16.6,49,17.1z"/>
	<path fill="#FFFFFF" d="M46.8,11.4c-0.1,0-0.1,0-0.2-0.1c-1.2-0.5-3.2-1.3-7.7-1.9c-1.3-0.2-4.2-0.7-5.6,1.5
		c-0.4,0.7-0.7,1.3-0.1,2.6c0.6,1.3,1.5,1.8,2.2,2c0.7,0.2,1.2,0.3,2,0.2c0.6,0,1-0.2,1.7-0.6s0.8-1.1,0.8-1.7c0-0.8-0.4-1.4-1-1.6
		c-0.8-0.3-1.4-0.1-1.8,0.2c-0.4,0.3-0.5,1.2-0.3,1.5c0.2,0.3,0.1,1.5-1.2,0.7c-0.4-0.2-0.5-1.4,0-2c1.5-1.7,3.8-1.3,4.9-1.2
		c0.7,0.1,3.2,0.7,4,1c1.9,0.6,3.2,1.3,3.8,1.6c0.3,0.1,0.5,0.2,0.7,0.3C48.4,13.1,47.6,12.2,46.8,11.4z"/>
	<polygon fill="#FFFFFF" points="31.3,36.8 32.7,49.1 37.8,49.1 33.9,36.8 	"/>
	<path fill="#FFFFFF" d="M30.6,7.9c-0.2,0-0.3,0-0.3,0v0h0h0v0c0,0-0.1,0-0.3,0c-0.2,0-3.2,0.2-3.2,0.2s0,0,0.1,0
		c2,0.1,3.3,0.3,3.4,0.3c0.1,0,1.4-0.2,3.4-0.3c0.1,0,0.1,0,0.1,0S30.8,7.9,30.6,7.9z"/>
	<path fill="#FFFFFF" d="M26.9,8.2c0.3,0.1,1.1,0.6,1.6,1.9c0.4,0.8,0.4,3.5,0.4,3.5s-0.3,4.7-4.9,3.8c-1.5-0.3-2.5-0.6-4.5-0.2
		c-0.5,0.1-1.6,0.2-2.2-0.1c-0.8-0.4-0.6-0.9-0.6-0.9s0.2,0.2,0.7,0.3c0.5,0.2,1-0.1,0.9-0.7c0-0.6-0.5-1.1-1.1-1.2
		c-0.7-0.2-1.5-0.1-1.9,0.4c-0.6,0.6-0.7,2.2,0.9,2.9c0.5,0.2,1.4,0.5,2.9,0.4c1.7-0.1,4.3,0.3,5.4,1.6c0.4,0.5,1.2,0.7,1.4,0.7
		c0.3,0,2,0,2,0l2.2-2.1l2.2,2.1c0,0,1.7,0,2,0c0.3,0,1-0.2,1.4-0.7c1.2-1.3,3.7-1.7,5.4-1.6c1.6,0.1,2.4-0.2,2.9-0.4
		c1.7-0.6,1.5-2.3,0.9-2.9c-0.5-0.5-1.2-0.6-1.9-0.4c-0.6,0.2-1.1,0.6-1.1,1.2c0,0.5,0.5,0.8,0.9,0.7s0.7-0.3,0.7-0.3
		s0.2,0.5-0.6,0.9c-0.6,0.3-1.7,0.2-2.2,0.1c-2-0.4-2.9-0.1-4.5,0.2c-4.6,0.9-4.9-3.8-4.9-3.8s0.1-2.6,0.4-3.5
		c0.6-1.3,1.4-1.8,1.6-1.9c-2,0.1-3.3,0.3-3.4,0.3C30.3,8.6,29,8.3,26.9,8.2z"/>
	<path fill="#FFFFFF" d="M27.1,27.6c0.3-0.4,0.1-0.5,0.4-0.3c0.1,0.1,0.4,2.2,1.2,2.8c0.7,0.4,1.6,0.3,1.6,0.3c0,0,0.9,0.1,1.6-0.3
		c0.9-0.5,1.2-2.7,1.2-2.8c0.3-0.2,0.1,0,0.4,0.3c0.5,0.6,1.6,0.3,1.7-0.5c0.1-1-0.4-1.4-1.2-1.6c-0.4-0.1-0.7-0.1-1.2,0.1
		c-0.4,0.2-0.7,0.4-0.8,0.5c0.1-0.1,0.5-0.5,0.7-0.8c0.2-0.4,0-1.2-0.2-1.8c-0.3-0.6-0.2-1.3-0.2-1.3l-2-1.9v0l0,0l0,0v0l-2,1.9
		c0,0,0.1,0.7-0.2,1.3c-0.3,0.6-0.5,1.4-0.2,1.8c0.2,0.4,0.6,0.7,0.7,0.8c-0.1-0.1-0.4-0.3-0.8-0.5c-0.5-0.2-0.8-0.2-1.2-0.1
		c-0.8,0.2-1.2,0.6-1.2,1.6C25.5,27.9,26.6,28.2,27.1,27.6z"/>
	<path fill="#FFFFFF" d="M21.5,20.1c-1.1-0.4-2.3-0.3-3-0.4c-0.7-0.1-2.9-0.4-2.9-0.4s0.5,1.4,2.1,2.5c0.9,0.6,2.6,1.5,3.8,1.5
		c2.1-0.1,2.6-1,2.6-1S22.6,20.5,21.5,20.1z"/>
	<g>
		<path fill="#FFFFFF" d="M20.5,55.7c-0.8,0-1.7-0.3-2.1-0.5c-0.7-0.4-2.3-1.3-1.9-3.6l0.2-1l0.3,0.2c0.6,0.4,1.2,0.8,1.8,1.1
			l0.1,0.1l0,0.1c0,0.3,0,0.5,0.1,0.7c0.1,0.5,0.4,0.7,0.8,0.7l0.2,0c0.1,0,0.3,0,0.4,0c0.3,0,1.3,0,1.6,0.7c0.1,0.3,0.2,1-0.7,1.5
			C21,55.6,20.8,55.7,20.5,55.7L20.5,55.7z"/>
		<g>
			<path fill="#FFFFFF" d="M16.9,50.9c0.6,0.4,1.2,0.8,1.8,1.1c0,0.3,0,0.5,0.1,0.7c0.2,0.8,0.7,0.9,1,0.9c0.1,0,0.3,0,0.6,0
				c0.5,0,1.2,0.1,1.4,0.6c0.2,0.6-0.2,1-0.6,1.2c-0.2,0.1-0.4,0.1-0.6,0.1c-0.7,0-1.6-0.3-2-0.5c-0.5-0.3-2.2-1.1-1.8-3.4
				C16.8,51.4,16.8,51.1,16.9,50.9 M16.6,50.2l-0.1,0.7l0,0.3l-0.1,0.5c-0.4,2.5,1.4,3.5,2,3.8l0.1,0c0.4,0.2,1.4,0.6,2.2,0.6
				c0.3,0,0.6-0.1,0.8-0.2c1.1-0.5,1-1.4,0.8-1.7c-0.2-0.6-0.8-0.9-1.8-0.9c-0.2,0-0.3,0-0.4,0c-0.1,0-0.1,0-0.2,0
				c-0.3,0-0.5-0.2-0.6-0.6c0-0.2-0.1-0.4-0.1-0.6l0-0.2l-0.2-0.1c-0.6-0.3-1.2-0.7-1.8-1.1L16.6,50.2L16.6,50.2z"/>
		</g>
	</g>
	<g>
		<path fill="#FFFFFF" d="M18.6,52.2c-0.6-0.3-1.2-0.7-1.8-1.1L16.6,51l0-0.1c1.3-7.5,2.9-14.8,8.7-21.3l0.2-0.2l1.4,1.5l-0.1,0.1
			c0,0-0.5,0.6-1.9,2.7c-1,1.5-2.8,5.2-4,9.6c-0.3,1.1-0.6,2-0.8,2.9c-0.7,2.7-1.2,4.5-1.2,5.7l0,0.4L18.6,52.2z"/>
		<g>
			<path fill="#FFFFFF" d="M25.5,29.7l1.1,1.2c0,0-0.5,0.5-1.9,2.7c-0.8,1.3-2.8,5-4,9.7c-1.2,4.4-2.1,6.9-2,8.7
				c-0.6-0.3-1.2-0.7-1.8-1.1C18.2,43.3,19.7,36.2,25.5,29.7 M25.5,29.1l-0.3,0.4c-5.8,6.5-7.5,13.8-8.7,21.4l0,0.3l0.2,0.2
				c0.6,0.4,1.2,0.8,1.8,1.1l0.7,0.4l0-0.7c0-1.2,0.5-3,1.2-5.7c0.2-0.9,0.5-1.8,0.8-2.9c1.3-4.9,3.3-8.5,4-9.5
				c1.4-2.1,1.9-2.7,1.9-2.7l0.2-0.3l-0.2-0.3l-1.1-1.2L25.5,29.1L25.5,29.1z"/>
		</g>
	</g>
	<polygon fill="#FFFFFF" points="30.3,32.5 30.3,32.5 27.9,32.5 26.1,35 30.3,35 30.3,35 34.6,35 32.8,32.5 	"/>
	<path fill="#FFFFFF" d="M9.8,22.2c1.5,1.1,3.8,1.5,5.2,2.3c0.9,0.5,2.7,1.6,3.8,3.9c1.2,2.5,1,3.7,1,3.7l3.3-3.6c0,0-0.4-1,0.1-2.2
		c0.7-1.6,2-2.3,2-2.3s-3.6,1.1-5.8,0.3C15.6,22.9,14,19,14,19s-0.3,0.6-0.6,0.8c-2,1.6-3.2,0.7-3.4,0.5c-0.3-0.4-0.5-0.7-0.5-1.2
		c0-0.4,0.2-0.8,0.6-1c0.4-0.1,0.8,0.3,0.8,0.8c0,0.6-0.3,0.8-0.3,0.8s0.7,0,1.2-0.7c0.3-0.4,0.4-1.4-0.2-1.9
		c-0.6-0.5-1.3-0.7-2-0.5c-0.7,1.1-1.3,2.2-1.8,3.4C8.2,20.8,8.9,21.5,9.8,22.2z"/>
	<path fill="#FFFFFF" d="M11.5,14c0.2-0.1,0.5-0.2,0.7-0.3c0.6-0.3,1.9-1,3.8-1.6c0.8-0.2,3.3-0.9,4-1c1.1-0.1,3.4-0.5,4.9,1.2
		c0.5,0.6,0.4,1.7,0,2c-1.2,0.8-1.4-0.4-1.2-0.7c0.2-0.3,0.1-1.2-0.3-1.5c-0.4-0.3-1-0.5-1.8-0.2c-0.5,0.2-0.9,0.9-1,1.6
		c0,0.7,0.2,1.4,0.8,1.7s1,0.5,1.7,0.6c0.8,0.1,1.4,0,2-0.2c0.7-0.2,1.6-0.7,2.2-2c0.6-1.3,0.3-1.9-0.1-2.6C26,8.8,23,9.3,21.7,9.5
		c-4.5,0.5-6.5,1.4-7.7,1.9c-0.1,0-0.1,0.1-0.2,0.1C13,12.2,12.2,13.1,11.5,14z"/>
	<polygon fill="#FFFFFF" points="22.8,49.1 27.9,49.1 29.3,36.8 26.7,36.8 	"/>
	<path fill="#FFFFFF" d="M22.9,51.6L22.9,51.6l1,2.5c2,0.6,4.2,0.9,6.4,0.9s4.3-0.3,6.4-0.9l1-2.5l0,0
		C32.8,52.3,27.8,52.3,22.9,51.6z"/>
	<circle fill="#FFFFFF" stroke="#FFFFFF" stroke-width="1.4985" stroke-miterlimit="10" cx="6" cy="57.4" r="2.3"/>
</g>
</svg>
