<?xml version="1.0" encoding="utf-8"?>
<!-- Generator: Adobe Illustrator 18.0.0, SVG Export Plug-In . SVG Version: 6.00 Build 0)  -->
<!DOCTYPE svg PUBLIC "-//W3C//DTD SVG 1.1//EN" "http://www.w3.org/Graphics/SVG/1.1/DTD/svg11.dtd">
<svg version="1.1" id="Layer_1" xmlns="http://www.w3.org/2000/svg" xmlns:xlink="http://www.w3.org/1999/xlink" x="0px" y="0px"
	 width="1337.4px" height="94.5px" viewBox="0 0 1337.4 94.5" enable-background="new 0 0 1337.4 94.5" xml:space="preserve">
<path fill="#36AA76" d="M0.7,0L0.5,2.2l260,50.8l-58.7,35.7l189.3-43.3l65.9,25l123.7-17.1l-12.3,13.3l7.3-1.3
	c116.6-20.5,139.1-24.8,143.6-25.9c8.2,0.8,120.9,8.6,125.7,8.9l0.7,0.1L906.4,15l-26.1,28L937,59.8l116.3-5.8l-5.3,16l69.1-19
	l44.2,23.1L1331.1,0H0.7z"/>
<polygon fill="#43B582" points="927.3,12.3 898.3,39.8 942.8,48.3 915.8,34.3 "/>
<polygon fill="#2FA36F" points="392.6,30.5 461.3,55.1 579.9,30.5 462.6,42.8 "/>
<path fill="#012D1A" d="M1324.9,0l-163.6,71.3l-44-23l-65.5,18l5-15l-119.5,6l-52.5-15.5l34-36.5l-73.5,40.5c0,0-121.4-8.4-126-9
	c-1.6,0.9-144,26-144,26l12-13l-130,18l-66-25l-175,40l51-31L2.1,0H0.5L0,4.7l253.7,49.5l-40,24.3l-26.4,16l30.1-6.9L391,48
	l64.6,24.5l1.2,0.5l1.3-0.2l116.2-16.1l-2.5,2.7l-10,10.9l14.6-2.6c0.4-0.1,36-6.3,71.4-12.6c52.8-9.4,67.5-12.1,72-13.2
	c11.4,1,113.3,8.1,125.3,8.9l1.5,0.1l1.3-0.7l46.1-25.4l-12.7,13.6l-5.5,5.9l7.8,2.3l52.5,15.5l0.8,0.2l0.9,0l112.2-5.6l-2.7,8.1
	l-3,8.9l9-2.5l63.6-17.5l42.3,22.1l2.1,1.1l2.2-1l164.1-71.5l10-4.4H1324.9z"/>
</svg>
