<?xml version="1.0" encoding="utf-8"?>
<!-- Generator: Adobe Illustrator 18.0.0, SVG Export Plug-In . SVG Version: 6.00 Build 0)  -->
<!DOCTYPE svg PUBLIC "-//W3C//DTD SVG 1.1//EN" "http://www.w3.org/Graphics/SVG/1.1/DTD/svg11.dtd">
<svg version="1.1" id="Layer_1" xmlns="http://www.w3.org/2000/svg" xmlns:xlink="http://www.w3.org/1999/xlink" x="0px" y="0px"
	 width="636.1px" height="606px" viewBox="0 0 636.1 606" enable-background="new 0 0 636.1 606" xml:space="preserve">
<g>
	<g>
		<line fill="none" stroke="#D1D1D1" stroke-width="2" stroke-miterlimit="10" x1="285.7" y1="149.3" x2="285.7" y2="152.3"/>
		
			<line fill="none" stroke="#D1D1D1" stroke-width="2" stroke-miterlimit="10" stroke-dasharray="6.5269,6.5269" x1="285.7" y1="158.9" x2="285.7" y2="207.8"/>
		<polyline fill="none" stroke="#D1D1D1" stroke-width="2" stroke-miterlimit="10" points="285.7,211.1 285.7,214.1 282.7,214.1 		
			"/>
		
			<line fill="none" stroke="#D1D1D1" stroke-width="2" stroke-miterlimit="10" stroke-dasharray="5.9855,5.9855" x1="276.7" y1="214.1" x2="28.3" y2="214.1"/>
		<polyline fill="none" stroke="#D1D1D1" stroke-width="2" stroke-miterlimit="10" points="25.3,214.1 22.3,214.1 22.3,211.1 		"/>
		
			<line fill="none" stroke="#D1D1D1" stroke-width="2" stroke-miterlimit="10" stroke-dasharray="5.9511,5.9511" x1="22.3" y1="205.1" x2="22.3" y2="29.6"/>
		<polyline fill="none" stroke="#D1D1D1" stroke-width="2" stroke-miterlimit="10" points="22.3,26.6 22.3,23.6 25.3,23.6 		"/>
		
			<line fill="none" stroke="#D1D1D1" stroke-width="2" stroke-miterlimit="10" stroke-dasharray="5.9855,5.9855" x1="31.3" y1="23.6" x2="279.7" y2="23.6"/>
		<polyline fill="none" stroke="#D1D1D1" stroke-width="2" stroke-miterlimit="10" points="282.7,23.6 285.7,23.6 285.7,26.6 		"/>
		
			<line fill="none" stroke="#D1D1D1" stroke-width="2" stroke-miterlimit="10" stroke-dasharray="5.4275,5.4275" x1="285.7" y1="32" x2="285.7" y2="61.9"/>
		<line fill="none" stroke="#D1D1D1" stroke-width="2" stroke-miterlimit="10" x1="285.7" y1="64.6" x2="285.7" y2="67.6"/>
	</g>
</g>
<g>
	<g>
		<line fill="none" stroke="#40B481" stroke-width="2" stroke-miterlimit="10" x1="386.4" y1="69.3" x2="386.4" y2="66.3"/>
		
			<line fill="none" stroke="#40B481" stroke-width="2" stroke-miterlimit="10" stroke-dasharray="5.6775,5.6775" x1="386.4" y1="60.7" x2="386.4" y2="29.4"/>
		<polyline fill="none" stroke="#40B481" stroke-width="2" stroke-miterlimit="10" points="386.4,26.6 386.4,23.6 389.4,23.6 		"/>
		
			<line fill="none" stroke="#40B481" stroke-width="2" stroke-miterlimit="10" stroke-dasharray="5.911,5.911" x1="395.4" y1="23.6" x2="628.8" y2="23.6"/>
		<polyline fill="none" stroke="#40B481" stroke-width="2" stroke-miterlimit="10" points="631.8,23.6 634.8,23.6 634.8,26.6 		"/>
		
			<line fill="none" stroke="#40B481" stroke-width="2" stroke-miterlimit="10" stroke-dasharray="6.046,6.046" x1="634.8" y1="32.7" x2="634.8" y2="597.9"/>
		<polyline fill="none" stroke="#40B481" stroke-width="2" stroke-miterlimit="10" points="634.8,601 634.8,604 631.8,604 		"/>
		
			<line fill="none" stroke="#40B481" stroke-width="2" stroke-miterlimit="10" stroke-dasharray="5.911,5.911" x1="625.9" y1="604" x2="392.4" y2="604"/>
		<polyline fill="none" stroke="#40B481" stroke-width="2" stroke-miterlimit="10" points="389.4,604 386.4,604 386.4,601 		"/>
		
			<line fill="none" stroke="#40B481" stroke-width="2" stroke-miterlimit="10" stroke-dasharray="5.9681,5.9681" x1="386.4" y1="595" x2="386.4" y2="156.3"/>
		<line fill="none" stroke="#40B481" stroke-width="2" stroke-miterlimit="10" x1="386.4" y1="153.4" x2="386.4" y2="150.4"/>
	</g>
</g>
<g>
	<g>
		<polyline fill="none" stroke="#40B481" stroke-width="2" stroke-miterlimit="10" points="603.9,571.3 603.9,574.3 600.9,574.3 		
			"/>
		
			<line fill="none" stroke="#40B481" stroke-width="2" stroke-miterlimit="10" stroke-dasharray="6.1024,6.1024" x1="594.8" y1="574.3" x2="427" y2="574.3"/>
		<polyline fill="none" stroke="#40B481" stroke-width="2" stroke-miterlimit="10" points="424,574.3 421,574.3 421,571.3 		"/>
		
			<line fill="none" stroke="#40B481" stroke-width="2" stroke-miterlimit="10" stroke-dasharray="6.276,6.276" x1="421" y1="565" x2="421" y2="517.9"/>
		<polyline fill="none" stroke="#40B481" stroke-width="2" stroke-miterlimit="10" points="421,514.8 421,511.8 424,511.8 		"/>
		
			<line fill="none" stroke="#40B481" stroke-width="2" stroke-miterlimit="10" stroke-dasharray="6.1024,6.1024" x1="430.1" y1="511.8" x2="597.9" y2="511.8"/>
		<polyline fill="none" stroke="#40B481" stroke-width="2" stroke-miterlimit="10" points="600.9,511.8 603.9,511.8 603.9,514.8 		
			"/>
		
			<line fill="none" stroke="#40B481" stroke-width="2" stroke-miterlimit="10" stroke-dasharray="6.276,6.276" x1="603.9" y1="521.1" x2="603.9" y2="568.1"/>
	</g>
</g>
<g>
	<path fill="#515151" d="M320.9,104.3c-0.6,0-1.2-0.1-1.7-0.3c-0.5-0.2-1-0.5-1.3-0.9c-0.4-0.4-0.7-0.9-0.9-1.5
		c-0.2-0.6-0.3-1.3-0.3-2s0.1-1.4,0.3-2s0.5-1.1,0.9-1.5c0.4-0.4,0.8-0.7,1.4-0.9c0.5-0.2,1.1-0.3,1.7-0.3c0.4,0,0.7,0,1,0.1
		c0.3,0.1,0.6,0.1,0.8,0.2c0.2,0.1,0.4,0.1,0.5,0.2s0.2,0.1,0.3,0.2l-0.4,1c-0.1-0.1-0.2-0.1-0.3-0.2c-0.1-0.1-0.3-0.1-0.5-0.2
		c-0.2-0.1-0.4-0.1-0.6-0.1c-0.2,0-0.4-0.1-0.7-0.1c-0.5,0-0.9,0.1-1.3,0.2c-0.4,0.2-0.7,0.4-1,0.7c-0.3,0.3-0.5,0.7-0.6,1.1
		c-0.1,0.4-0.2,0.9-0.2,1.5c0,0.5,0.1,1,0.2,1.5c0.1,0.4,0.3,0.8,0.6,1.1c0.3,0.3,0.6,0.6,0.9,0.7s0.8,0.3,1.3,0.3
		c0.6,0,1.1-0.1,1.4-0.2c0.4-0.1,0.7-0.2,0.9-0.3l0.3,1c-0.1,0-0.2,0.1-0.3,0.2c-0.2,0.1-0.4,0.1-0.6,0.2c-0.2,0.1-0.5,0.1-0.8,0.2
		C321.6,104.3,321.2,104.3,320.9,104.3z"/>
	<path fill="#515151" d="M327.5,97.2c0.1,0,0.2,0,0.4,0c0.1,0,0.3,0,0.4,0.1c0.1,0,0.2,0,0.4,0.1s0.2,0,0.2,0.1l-0.2,1.1
		c-0.1,0-0.3-0.1-0.5-0.1c-0.2,0-0.5-0.1-0.9-0.1c-0.2,0-0.4,0-0.7,0.1s-0.4,0.1-0.4,0.1v5.7H325v-6.5c0.3-0.1,0.6-0.2,1.1-0.3
		C326.5,97.3,326.9,97.2,327.5,97.2z"/>
	<path fill="#515151" d="M336,100.7c0,0.5-0.1,1-0.2,1.5c-0.2,0.4-0.4,0.8-0.7,1.1c-0.3,0.3-0.6,0.6-1,0.7c-0.4,0.2-0.8,0.3-1.3,0.3
		s-0.9-0.1-1.3-0.3c-0.4-0.2-0.7-0.4-1-0.7c-0.3-0.3-0.5-0.7-0.7-1.1c-0.2-0.4-0.2-0.9-0.2-1.5c0-0.5,0.1-1,0.2-1.4
		c0.2-0.4,0.4-0.8,0.7-1.1c0.3-0.3,0.6-0.6,1-0.7c0.4-0.2,0.8-0.3,1.3-0.3s0.9,0.1,1.3,0.3c0.4,0.2,0.7,0.4,1,0.7
		c0.3,0.3,0.5,0.7,0.7,1.1C335.9,99.7,336,100.2,336,100.7z M334.7,100.7c0-0.8-0.2-1.4-0.5-1.8s-0.8-0.7-1.4-0.7
		c-0.6,0-1.1,0.2-1.4,0.7c-0.3,0.4-0.5,1.1-0.5,1.8s0.2,1.4,0.5,1.8c0.3,0.4,0.8,0.7,1.4,0.7c0.6,0,1.1-0.2,1.4-0.7
		S334.7,101.5,334.7,100.7z"/>
	<path fill="#515151" d="M339.2,103.3c0.5,0,0.9-0.1,1.1-0.2c0.2-0.1,0.4-0.3,0.4-0.6c0-0.3-0.1-0.5-0.4-0.7
		c-0.2-0.2-0.6-0.4-1.2-0.6c-0.3-0.1-0.5-0.2-0.7-0.3c-0.2-0.1-0.4-0.2-0.6-0.4c-0.2-0.1-0.3-0.3-0.4-0.5c-0.1-0.2-0.2-0.5-0.2-0.8
		c0-0.6,0.2-1.1,0.7-1.4c0.4-0.4,1-0.5,1.8-0.5c0.2,0,0.4,0,0.6,0s0.4,0,0.5,0.1c0.2,0,0.3,0.1,0.4,0.1c0.1,0,0.2,0.1,0.3,0.1
		l-0.2,1c-0.1-0.1-0.3-0.1-0.6-0.2c-0.3-0.1-0.6-0.1-1-0.1c-0.3,0-0.6,0.1-0.9,0.2c-0.3,0.1-0.4,0.3-0.4,0.6c0,0.1,0,0.3,0.1,0.4
		c0.1,0.1,0.1,0.2,0.3,0.3s0.3,0.2,0.4,0.3c0.2,0.1,0.4,0.2,0.6,0.2c0.3,0.1,0.6,0.2,0.9,0.4c0.3,0.1,0.5,0.3,0.6,0.4
		s0.3,0.3,0.4,0.6c0.1,0.2,0.1,0.5,0.1,0.8c0,0.6-0.2,1.1-0.7,1.4c-0.5,0.3-1.1,0.5-2,0.5c-0.6,0-1.1,0-1.4-0.1s-0.6-0.2-0.7-0.2
		l0.2-1c0.1,0.1,0.4,0.1,0.7,0.2C338.3,103.2,338.7,103.3,339.2,103.3z"/>
	<path fill="#515151" d="M345,103.3c0.5,0,0.9-0.1,1.1-0.2c0.2-0.1,0.4-0.3,0.4-0.6c0-0.3-0.1-0.5-0.4-0.7c-0.2-0.2-0.6-0.4-1.2-0.6
		c-0.3-0.1-0.5-0.2-0.7-0.3c-0.2-0.1-0.4-0.2-0.6-0.4c-0.2-0.1-0.3-0.3-0.4-0.5c-0.1-0.2-0.2-0.5-0.2-0.8c0-0.6,0.2-1.1,0.7-1.4
		c0.4-0.4,1-0.5,1.8-0.5c0.2,0,0.4,0,0.6,0s0.4,0,0.5,0.1c0.2,0,0.3,0.1,0.4,0.1c0.1,0,0.2,0.1,0.3,0.1l-0.2,1
		c-0.1-0.1-0.3-0.1-0.6-0.2c-0.3-0.1-0.6-0.1-1-0.1c-0.3,0-0.6,0.1-0.9,0.2c-0.3,0.1-0.4,0.3-0.4,0.6c0,0.1,0,0.3,0.1,0.4
		c0.1,0.1,0.1,0.2,0.3,0.3s0.3,0.2,0.4,0.3c0.2,0.1,0.4,0.2,0.6,0.2c0.3,0.1,0.6,0.2,0.9,0.4c0.3,0.1,0.5,0.3,0.6,0.4
		s0.3,0.3,0.4,0.6c0.1,0.2,0.1,0.5,0.1,0.8c0,0.6-0.2,1.1-0.7,1.4c-0.5,0.3-1.1,0.5-2,0.5c-0.6,0-1.1,0-1.4-0.1s-0.6-0.2-0.7-0.2
		l0.2-1c0.1,0.1,0.4,0.1,0.7,0.2C344.1,103.2,344.5,103.3,345,103.3z"/>
	<path fill="#515151" d="M348.6,99.7h3.2v1.1h-3.2V99.7z"/>
	<path fill="#515151" d="M352.9,99.6c0-0.8,0.1-1.5,0.3-2s0.5-1.1,0.9-1.5s0.9-0.7,1.4-0.9s1.1-0.3,1.7-0.3c0.6,0,1.1,0.1,1.6,0.3
		s1,0.5,1.4,0.9s0.7,0.9,0.9,1.5s0.3,1.3,0.3,2s-0.1,1.5-0.3,2c-0.2,0.6-0.5,1.1-0.9,1.5s-0.8,0.7-1.4,0.9c-0.5,0.2-1.1,0.3-1.6,0.3
		c-0.6,0-1.1-0.1-1.7-0.3c-0.5-0.2-1-0.5-1.4-0.9s-0.7-0.9-0.9-1.5C353,101.1,352.9,100.4,352.9,99.6z M354.2,99.6
		c0,0.5,0.1,1,0.2,1.5s0.3,0.8,0.6,1.1c0.3,0.3,0.6,0.6,0.9,0.7s0.8,0.3,1.2,0.3c0.5,0,0.9-0.1,1.2-0.3s0.7-0.4,0.9-0.7
		c0.3-0.3,0.5-0.7,0.6-1.1c0.1-0.4,0.2-0.9,0.2-1.5s-0.1-1-0.2-1.5c-0.1-0.4-0.3-0.8-0.6-1.1c-0.3-0.3-0.6-0.6-0.9-0.7
		s-0.8-0.3-1.2-0.3c-0.5,0-0.9,0.1-1.2,0.3s-0.7,0.4-0.9,0.7c-0.3,0.3-0.5,0.7-0.6,1.1S354.2,99.1,354.2,99.6z"/>
	<path fill="#515151" d="M365.8,97.2c0.1,0,0.2,0,0.4,0c0.1,0,0.3,0,0.4,0.1c0.1,0,0.2,0,0.4,0.1s0.2,0,0.2,0.1l-0.2,1.1
		c-0.1,0-0.3-0.1-0.5-0.1c-0.2,0-0.5-0.1-0.9-0.1c-0.2,0-0.4,0-0.7,0.1s-0.4,0.1-0.4,0.1v5.7h-1.2v-6.5c0.3-0.1,0.6-0.2,1.1-0.3
		C364.8,97.3,365.2,97.2,365.8,97.2z"/>
	<path fill="#515151" d="M368.9,96.1c-0.2,0-0.4-0.1-0.6-0.2c-0.2-0.1-0.2-0.3-0.2-0.6s0.1-0.4,0.2-0.6c0.2-0.1,0.3-0.2,0.6-0.2
		s0.4,0.1,0.6,0.2s0.2,0.3,0.2,0.6s-0.1,0.4-0.2,0.6C369.3,96.1,369.1,96.1,368.9,96.1z M369.5,104.1h-1.2v-6.8h1.2V104.1z"/>
	<path fill="#515151" d="M375.8,103.4c-0.1,0.1-0.3,0.2-0.6,0.3c-0.3,0.1-0.6,0.2-1,0.2c-0.4,0-0.8-0.1-1.2-0.2
		c-0.4-0.1-0.7-0.3-0.9-0.6c-0.3-0.3-0.5-0.6-0.6-1c-0.2-0.4-0.2-0.9-0.2-1.5c0-0.5,0.1-0.9,0.2-1.4c0.1-0.4,0.4-0.8,0.6-1.1
		s0.6-0.5,1-0.7c0.4-0.2,0.9-0.3,1.4-0.3c0.6,0,1.1,0,1.5,0.1c0.4,0.1,0.8,0.2,1.1,0.2v6c0,1-0.3,1.8-0.8,2.3s-1.4,0.7-2.4,0.7
		c-0.4,0-0.8,0-1.2-0.1s-0.7-0.2-1-0.2l0.2-1.1c0.2,0.1,0.5,0.2,0.9,0.3c0.4,0.1,0.7,0.1,1.1,0.1c0.7,0,1.2-0.1,1.6-0.4
		c0.3-0.3,0.5-0.7,0.5-1.4V103.4z M375.8,98.4c-0.1,0-0.3-0.1-0.5-0.1c-0.2,0-0.5,0-0.8,0c-0.7,0-1.2,0.2-1.5,0.6
		c-0.4,0.4-0.5,1-0.5,1.7c0,0.4,0,0.7,0.1,1s0.2,0.5,0.4,0.7c0.2,0.2,0.4,0.3,0.6,0.4s0.4,0.1,0.7,0.1c0.3,0,0.6,0,0.9-0.1
		c0.3-0.1,0.5-0.2,0.6-0.3V98.4z"/>
	<path fill="#515151" d="M379.7,96.1c-0.2,0-0.4-0.1-0.6-0.2c-0.2-0.1-0.2-0.3-0.2-0.6s0.1-0.4,0.2-0.6c0.2-0.1,0.3-0.2,0.6-0.2
		s0.4,0.1,0.6,0.2s0.2,0.3,0.2,0.6s-0.1,0.4-0.2,0.6C380.1,96.1,379.9,96.1,379.7,96.1z M380.3,104.1h-1.2v-6.8h1.2V104.1z"/>
	<path fill="#515151" d="M382.4,97.6c0.3-0.1,0.6-0.1,1.1-0.2c0.5-0.1,1-0.1,1.6-0.1c0.5,0,1,0.1,1.3,0.2c0.4,0.2,0.6,0.4,0.9,0.6
		c0.2,0.3,0.4,0.6,0.4,1c0.1,0.4,0.1,0.8,0.1,1.3v3.8h-1.2v-3.5c0-0.4,0-0.8-0.1-1.1c-0.1-0.3-0.1-0.5-0.3-0.7
		c-0.1-0.2-0.3-0.3-0.5-0.4c-0.2-0.1-0.5-0.1-0.8-0.1c-0.1,0-0.3,0-0.4,0s-0.3,0-0.4,0c-0.1,0-0.2,0-0.3,0c-0.1,0-0.2,0-0.2,0v5.7
		h-1.2V97.6z"/>
	<path fill="#515151" d="M319.4,112.8c0.1,0,0.2,0,0.4,0c0.1,0,0.3,0,0.4,0.1c0.1,0,0.2,0,0.4,0.1s0.2,0,0.2,0.1l-0.2,1.1
		c-0.1,0-0.3-0.1-0.5-0.1c-0.2,0-0.5-0.1-0.9-0.1c-0.2,0-0.4,0-0.7,0.1s-0.4,0.1-0.4,0.1v5.7h-1.2v-6.5c0.3-0.1,0.6-0.2,1.1-0.3
		C318.4,112.9,318.9,112.8,319.4,112.8z"/>
	<path fill="#515151" d="M321.6,116.4c0-0.6,0.1-1.1,0.3-1.6c0.2-0.4,0.4-0.8,0.7-1.1s0.6-0.5,1-0.7c0.4-0.1,0.8-0.2,1.1-0.2
		c0.9,0,1.6,0.3,2.1,0.9c0.5,0.6,0.7,1.4,0.7,2.6c0,0.1,0,0.1,0,0.2c0,0.1,0,0.2,0,0.2h-4.6c0.1,0.7,0.3,1.2,0.6,1.6
		s0.9,0.5,1.7,0.5c0.4,0,0.8,0,1.1-0.1c0.3-0.1,0.5-0.1,0.7-0.2l0.2,1c-0.1,0.1-0.4,0.2-0.8,0.2c-0.4,0.1-0.8,0.1-1.3,0.1
		c-0.6,0-1.1-0.1-1.5-0.3c-0.4-0.2-0.8-0.4-1.1-0.7c-0.3-0.3-0.5-0.7-0.6-1.1C321.6,117.3,321.6,116.9,321.6,116.4z M326.2,115.7
		c0-0.5-0.1-1-0.4-1.3c-0.3-0.4-0.7-0.5-1.2-0.5c-0.3,0-0.5,0.1-0.7,0.2c-0.2,0.1-0.4,0.2-0.5,0.4c-0.1,0.2-0.3,0.4-0.3,0.6
		s-0.1,0.5-0.2,0.7H326.2z"/>
	<path fill="#515151" d="M328.8,116.4c0-0.5,0.1-1,0.2-1.5c0.2-0.4,0.4-0.8,0.7-1.1c0.3-0.3,0.7-0.5,1.1-0.7
		c0.4-0.2,0.9-0.2,1.4-0.2c0.6,0,1.1,0,1.5,0.1c0.4,0.1,0.8,0.2,1.1,0.2v9h-1.2v-2.7c-0.1,0.1-0.4,0.2-0.7,0.3s-0.6,0.2-1,0.2
		c-0.5,0-0.9-0.1-1.3-0.3c-0.4-0.2-0.7-0.4-1-0.7c-0.3-0.3-0.5-0.7-0.6-1.1C328.9,117.3,328.8,116.9,328.8,116.4z M330.1,116.4
		c0,0.3,0,0.7,0.1,1s0.2,0.6,0.3,0.8c0.2,0.2,0.4,0.4,0.6,0.5c0.2,0.1,0.5,0.2,0.9,0.2c0.3,0,0.6-0.1,0.9-0.2
		c0.3-0.1,0.5-0.2,0.6-0.4V114c-0.1,0-0.3-0.1-0.5-0.1c-0.2,0-0.5,0-0.9,0c-0.7,0-1.2,0.2-1.6,0.6
		C330.3,115,330.1,115.6,330.1,116.4z"/>
	<path fill="#515151" d="M342.2,119.5c-0.3,0.1-0.6,0.1-1.1,0.2c-0.5,0.1-1,0.1-1.6,0.1c-0.5,0-1-0.1-1.3-0.2
		c-0.4-0.2-0.6-0.4-0.9-0.6c-0.2-0.3-0.4-0.6-0.5-1c-0.1-0.4-0.1-0.8-0.1-1.3V113h1.2v3.5c0,0.8,0.1,1.4,0.4,1.8
		c0.3,0.4,0.7,0.5,1.3,0.5c0.1,0,0.3,0,0.4,0c0.1,0,0.3,0,0.4,0c0.1,0,0.2,0,0.3,0c0.1,0,0.2,0,0.2,0V113h1.2V119.5z"/>
	<path fill="#515151" d="M343.9,116.4c0-0.6,0.1-1.1,0.3-1.6c0.2-0.4,0.4-0.8,0.7-1.1s0.6-0.5,1-0.7c0.4-0.1,0.8-0.2,1.1-0.2
		c0.9,0,1.6,0.3,2.1,0.9c0.5,0.6,0.7,1.4,0.7,2.6c0,0.1,0,0.1,0,0.2c0,0.1,0,0.2,0,0.2h-4.6c0.1,0.7,0.3,1.2,0.6,1.6
		s0.9,0.5,1.7,0.5c0.4,0,0.8,0,1.1-0.1c0.3-0.1,0.5-0.1,0.7-0.2l0.2,1c-0.1,0.1-0.4,0.2-0.8,0.2c-0.4,0.1-0.8,0.1-1.3,0.1
		c-0.6,0-1.1-0.1-1.5-0.3c-0.4-0.2-0.8-0.4-1.1-0.7c-0.3-0.3-0.5-0.7-0.6-1.1C344,117.3,343.9,116.9,343.9,116.4z M348.6,115.7
		c0-0.5-0.1-1-0.4-1.3c-0.3-0.4-0.7-0.5-1.2-0.5c-0.3,0-0.5,0.1-0.7,0.2c-0.2,0.1-0.4,0.2-0.5,0.4c-0.1,0.2-0.3,0.4-0.3,0.6
		s-0.1,0.5-0.2,0.7H348.6z"/>
	<path fill="#515151" d="M353.2,118.9c0.5,0,0.9-0.1,1.1-0.2c0.2-0.1,0.4-0.3,0.4-0.6c0-0.3-0.1-0.5-0.4-0.7
		c-0.2-0.2-0.6-0.4-1.2-0.6c-0.3-0.1-0.5-0.2-0.7-0.3c-0.2-0.1-0.4-0.2-0.6-0.4c-0.2-0.1-0.3-0.3-0.4-0.5c-0.1-0.2-0.2-0.5-0.2-0.8
		c0-0.6,0.2-1.1,0.7-1.4c0.4-0.4,1-0.5,1.8-0.5c0.2,0,0.4,0,0.6,0s0.4,0,0.5,0.1c0.2,0,0.3,0.1,0.4,0.1c0.1,0,0.2,0.1,0.3,0.1
		l-0.2,1c-0.1-0.1-0.3-0.1-0.6-0.2c-0.3-0.1-0.6-0.1-1-0.1c-0.3,0-0.6,0.1-0.9,0.2c-0.3,0.1-0.4,0.3-0.4,0.6c0,0.1,0,0.3,0.1,0.4
		c0.1,0.1,0.1,0.2,0.3,0.3s0.3,0.2,0.4,0.3c0.2,0.1,0.4,0.2,0.6,0.2c0.3,0.1,0.6,0.2,0.9,0.4c0.3,0.1,0.5,0.3,0.6,0.4
		s0.3,0.3,0.4,0.6c0.1,0.2,0.1,0.5,0.1,0.8c0,0.6-0.2,1.1-0.7,1.4c-0.5,0.3-1.1,0.5-2,0.5c-0.6,0-1.1,0-1.4-0.1s-0.6-0.2-0.7-0.2
		l0.2-1c0.1,0.1,0.4,0.1,0.7,0.2C352.3,118.8,352.7,118.9,353.2,118.9z"/>
	<path fill="#515151" d="M358.5,113h2.6v1h-2.6v3.1c0,0.3,0,0.6,0.1,0.8c0.1,0.2,0.1,0.4,0.2,0.5c0.1,0.1,0.2,0.2,0.4,0.3
		s0.3,0.1,0.5,0.1c0.4,0,0.7,0,0.9-0.1c0.2-0.1,0.4-0.1,0.5-0.2l0.2,1c-0.1,0.1-0.3,0.1-0.6,0.2c-0.3,0.1-0.7,0.1-1,0.1
		c-0.5,0-0.8-0.1-1.1-0.2s-0.5-0.3-0.7-0.5c-0.2-0.2-0.3-0.5-0.4-0.9c-0.1-0.3-0.1-0.7-0.1-1.2v-6l1.2-0.2V113z"/>
</g>
<g>
	<path fill="#515151" d="M412.5,192.3c-0.1-0.4-0.3-0.8-0.4-1.2s-0.3-0.8-0.4-1.2h-4.1l-0.8,2.3h-1.3c0.3-1,0.7-1.8,1-2.6
		c0.3-0.8,0.6-1.6,0.9-2.3c0.3-0.7,0.6-1.4,0.9-2.1c0.3-0.7,0.6-1.3,0.9-2h1.2c0.3,0.6,0.6,1.3,0.9,2c0.3,0.7,0.6,1.4,0.9,2.1
		c0.3,0.7,0.6,1.5,0.9,2.3s0.6,1.7,1,2.6H412.5z M411.3,189c-0.3-0.8-0.6-1.5-0.8-2.2c-0.3-0.7-0.6-1.4-0.9-2
		c-0.3,0.7-0.6,1.3-0.9,2c-0.3,0.7-0.5,1.4-0.8,2.2H411.3z"/>
	<path fill="#515151" d="M416.1,185.5h2.6v1h-2.6v3.1c0,0.3,0,0.6,0.1,0.8c0.1,0.2,0.1,0.4,0.2,0.5c0.1,0.1,0.2,0.2,0.4,0.3
		s0.3,0.1,0.5,0.1c0.4,0,0.7,0,0.9-0.1c0.2-0.1,0.4-0.1,0.5-0.2l0.2,1c-0.1,0.1-0.3,0.1-0.6,0.2c-0.3,0.1-0.7,0.1-1,0.1
		c-0.5,0-0.8-0.1-1.1-0.2s-0.5-0.3-0.7-0.5c-0.2-0.2-0.3-0.5-0.4-0.9c-0.1-0.3-0.1-0.7-0.1-1.2v-6l1.2-0.2V185.5z"/>
	<path fill="#515151" d="M421.4,185.5h2.6v1h-2.6v3.1c0,0.3,0,0.6,0.1,0.8c0.1,0.2,0.1,0.4,0.2,0.5c0.1,0.1,0.2,0.2,0.4,0.3
		s0.3,0.1,0.5,0.1c0.4,0,0.7,0,0.9-0.1c0.2-0.1,0.4-0.1,0.5-0.2l0.2,1c-0.1,0.1-0.3,0.1-0.6,0.2c-0.3,0.1-0.7,0.1-1,0.1
		c-0.5,0-0.8-0.1-1.1-0.2s-0.5-0.3-0.7-0.5c-0.2-0.2-0.3-0.5-0.4-0.9c-0.1-0.3-0.1-0.7-0.1-1.2v-6l1.2-0.2V185.5z"/>
	<path fill="#515151" d="M424.9,188.9c0-0.6,0.1-1.1,0.3-1.6c0.2-0.4,0.4-0.8,0.7-1.1s0.6-0.5,1-0.7c0.4-0.1,0.8-0.2,1.1-0.2
		c0.9,0,1.6,0.3,2.1,0.9c0.5,0.6,0.7,1.4,0.7,2.6c0,0.1,0,0.1,0,0.2c0,0.1,0,0.2,0,0.2h-4.6c0.1,0.7,0.3,1.2,0.6,1.6
		s0.9,0.5,1.7,0.5c0.4,0,0.8,0,1.1-0.1c0.3-0.1,0.5-0.1,0.7-0.2l0.2,1c-0.1,0.1-0.4,0.2-0.8,0.2c-0.4,0.1-0.8,0.1-1.3,0.1
		c-0.6,0-1.1-0.1-1.5-0.3c-0.4-0.2-0.8-0.4-1.1-0.7c-0.3-0.3-0.5-0.7-0.6-1.1C425,189.9,424.9,189.4,424.9,188.9z M429.6,188.3
		c0-0.5-0.1-1-0.4-1.3c-0.3-0.4-0.7-0.5-1.2-0.5c-0.3,0-0.5,0.1-0.7,0.2c-0.2,0.1-0.4,0.2-0.5,0.4c-0.1,0.2-0.3,0.4-0.3,0.6
		s-0.1,0.5-0.2,0.7H429.6z"/>
	<path fill="#515151" d="M432.6,185.7c0.3-0.1,0.6-0.1,1.1-0.2s1-0.1,1.6-0.1c0.4,0,0.8,0.1,1.1,0.2c0.3,0.1,0.5,0.3,0.7,0.5
		c0.1,0,0.2-0.1,0.3-0.2c0.1-0.1,0.3-0.2,0.5-0.2c0.2-0.1,0.4-0.1,0.6-0.2s0.5-0.1,0.8-0.1c0.5,0,0.9,0.1,1.3,0.2
		c0.3,0.2,0.6,0.4,0.8,0.6c0.2,0.3,0.3,0.6,0.4,1c0.1,0.4,0.1,0.8,0.1,1.2v3.8h-1.2v-3.5c0-0.4,0-0.7-0.1-1c0-0.3-0.1-0.5-0.2-0.7
		c-0.1-0.2-0.3-0.3-0.4-0.4c-0.2-0.1-0.4-0.1-0.7-0.1c-0.4,0-0.7,0.1-1,0.2s-0.4,0.2-0.5,0.3c0.1,0.2,0.1,0.5,0.2,0.7
		c0,0.3,0.1,0.5,0.1,0.8v3.8h-1.2v-3.5c0-0.4,0-0.7-0.1-1c0-0.3-0.1-0.5-0.2-0.7c-0.1-0.2-0.3-0.3-0.4-0.4c-0.2-0.1-0.4-0.1-0.7-0.1
		c-0.1,0-0.3,0-0.4,0s-0.3,0-0.4,0c-0.1,0-0.2,0-0.3,0c-0.1,0-0.2,0-0.2,0v5.7h-1.2V185.7z"/>
	<path fill="#515151" d="M449.7,188.9c0,0.5-0.1,1-0.2,1.4c-0.1,0.4-0.3,0.8-0.6,1.1c-0.3,0.3-0.6,0.6-1,0.7
		c-0.4,0.2-0.8,0.3-1.3,0.3c-0.4,0-0.7-0.1-1-0.2c-0.3-0.1-0.5-0.2-0.7-0.3v2.7h-1.2v-9c0.3-0.1,0.6-0.1,1.1-0.2s0.9-0.1,1.5-0.1
		c0.5,0,1,0.1,1.4,0.2c0.4,0.2,0.8,0.4,1.1,0.7c0.3,0.3,0.5,0.7,0.7,1.1C449.7,187.9,449.7,188.4,449.7,188.9z M448.5,188.9
		c0-0.8-0.2-1.4-0.6-1.8c-0.4-0.4-0.9-0.6-1.6-0.6c-0.4,0-0.6,0-0.9,0c-0.2,0-0.4,0.1-0.5,0.1v4.3c0.1,0.1,0.4,0.2,0.6,0.4
		c0.3,0.1,0.6,0.2,0.9,0.2c0.3,0,0.6-0.1,0.9-0.2c0.2-0.1,0.4-0.3,0.6-0.5c0.2-0.2,0.3-0.5,0.3-0.8S448.5,189.3,448.5,188.9z"/>
	<path fill="#515151" d="M452.6,185.5h2.6v1h-2.6v3.1c0,0.3,0,0.6,0.1,0.8c0.1,0.2,0.1,0.4,0.2,0.5c0.1,0.1,0.2,0.2,0.4,0.3
		s0.3,0.1,0.5,0.1c0.4,0,0.7,0,0.9-0.1c0.2-0.1,0.4-0.1,0.5-0.2l0.2,1c-0.1,0.1-0.3,0.1-0.6,0.2c-0.3,0.1-0.7,0.1-1,0.1
		c-0.5,0-0.8-0.1-1.1-0.2s-0.5-0.3-0.7-0.5c-0.2-0.2-0.3-0.5-0.4-0.9c-0.1-0.3-0.1-0.7-0.1-1.2v-6l1.2-0.2V185.5z"/>
	<path fill="#515151" d="M460.8,185.5h2.6v1h-2.6v3.1c0,0.3,0,0.6,0.1,0.8c0.1,0.2,0.1,0.4,0.2,0.5c0.1,0.1,0.2,0.2,0.4,0.3
		s0.3,0.1,0.5,0.1c0.4,0,0.7,0,0.9-0.1c0.2-0.1,0.4-0.1,0.5-0.2l0.2,1c-0.1,0.1-0.3,0.1-0.6,0.2c-0.3,0.1-0.7,0.1-1,0.1
		c-0.5,0-0.8-0.1-1.1-0.2s-0.5-0.3-0.7-0.5c-0.2-0.2-0.3-0.5-0.4-0.9c-0.1-0.3-0.1-0.7-0.1-1.2v-6l1.2-0.2V185.5z"/>
	<path fill="#515151" d="M470.7,188.9c0,0.5-0.1,1-0.2,1.5c-0.2,0.4-0.4,0.8-0.7,1.1c-0.3,0.3-0.6,0.6-1,0.7
		c-0.4,0.2-0.8,0.3-1.3,0.3s-0.9-0.1-1.3-0.3c-0.4-0.2-0.7-0.4-1-0.7c-0.3-0.3-0.5-0.7-0.7-1.1c-0.2-0.4-0.2-0.9-0.2-1.5
		c0-0.5,0.1-1,0.2-1.4c0.2-0.4,0.4-0.8,0.7-1.1c0.3-0.3,0.6-0.6,1-0.7c0.4-0.2,0.8-0.3,1.3-0.3s0.9,0.1,1.3,0.3
		c0.4,0.2,0.7,0.4,1,0.7c0.3,0.3,0.5,0.7,0.7,1.1C470.6,187.9,470.7,188.4,470.7,188.9z M469.4,188.9c0-0.8-0.2-1.4-0.5-1.8
		s-0.8-0.7-1.4-0.7c-0.6,0-1.1,0.2-1.4,0.7c-0.3,0.4-0.5,1.1-0.5,1.8s0.2,1.4,0.5,1.8c0.3,0.4,0.8,0.7,1.4,0.7
		c0.6,0,1.1-0.2,1.4-0.7S469.4,189.7,469.4,188.9z"/>
	<path fill="#515151" d="M479.6,191.6c-0.1,0.1-0.3,0.2-0.6,0.3c-0.3,0.1-0.6,0.2-1,0.2c-0.4,0-0.8-0.1-1.2-0.2
		c-0.4-0.1-0.7-0.3-0.9-0.6c-0.3-0.3-0.5-0.6-0.6-1c-0.2-0.4-0.2-0.9-0.2-1.5c0-0.5,0.1-0.9,0.2-1.4c0.1-0.4,0.4-0.8,0.6-1.1
		s0.6-0.5,1-0.7c0.4-0.2,0.9-0.3,1.4-0.3c0.6,0,1.1,0,1.5,0.1c0.4,0.1,0.8,0.2,1.1,0.2v6c0,1-0.3,1.8-0.8,2.3s-1.4,0.7-2.4,0.7
		c-0.4,0-0.8,0-1.2-0.1s-0.7-0.2-1-0.2l0.2-1.1c0.2,0.1,0.5,0.2,0.9,0.3c0.4,0.1,0.7,0.1,1.1,0.1c0.7,0,1.2-0.1,1.6-0.4
		c0.3-0.3,0.5-0.7,0.5-1.4V191.6z M479.6,186.6c-0.1,0-0.3-0.1-0.5-0.1c-0.2,0-0.5,0-0.8,0c-0.7,0-1.2,0.2-1.5,0.6
		c-0.4,0.4-0.5,1-0.5,1.7c0,0.4,0,0.7,0.1,1s0.2,0.5,0.4,0.7c0.2,0.2,0.4,0.3,0.6,0.4s0.4,0.1,0.7,0.1c0.3,0,0.6,0,0.9-0.1
		c0.3-0.1,0.5-0.2,0.6-0.3V186.6z"/>
	<path fill="#515151" d="M482.5,188.9c0-0.6,0.1-1.1,0.3-1.6c0.2-0.4,0.4-0.8,0.7-1.1s0.6-0.5,1-0.7c0.4-0.1,0.8-0.2,1.1-0.2
		c0.9,0,1.6,0.3,2.1,0.9c0.5,0.6,0.7,1.4,0.7,2.6c0,0.1,0,0.1,0,0.2c0,0.1,0,0.2,0,0.2h-4.6c0.1,0.7,0.3,1.2,0.6,1.6
		s0.9,0.5,1.7,0.5c0.4,0,0.8,0,1.1-0.1c0.3-0.1,0.5-0.1,0.7-0.2l0.2,1c-0.1,0.1-0.4,0.2-0.8,0.2c-0.4,0.1-0.8,0.1-1.3,0.1
		c-0.6,0-1.1-0.1-1.5-0.3c-0.4-0.2-0.8-0.4-1.1-0.7c-0.3-0.3-0.5-0.7-0.6-1.1C482.6,189.9,482.5,189.4,482.5,188.9z M487.2,188.3
		c0-0.5-0.1-1-0.4-1.3c-0.3-0.4-0.7-0.5-1.2-0.5c-0.3,0-0.5,0.1-0.7,0.2c-0.2,0.1-0.4,0.2-0.5,0.4c-0.1,0.2-0.3,0.4-0.3,0.6
		s-0.1,0.5-0.2,0.7H487.2z"/>
	<path fill="#515151" d="M491.3,185.5h2.6v1h-2.6v3.1c0,0.3,0,0.6,0.1,0.8c0.1,0.2,0.1,0.4,0.2,0.5c0.1,0.1,0.2,0.2,0.4,0.3
		s0.3,0.1,0.5,0.1c0.4,0,0.7,0,0.9-0.1c0.2-0.1,0.4-0.1,0.5-0.2l0.2,1c-0.1,0.1-0.3,0.1-0.6,0.2c-0.3,0.1-0.7,0.1-1,0.1
		c-0.5,0-0.8-0.1-1.1-0.2s-0.5-0.3-0.7-0.5c-0.2-0.2-0.3-0.5-0.4-0.9c-0.1-0.3-0.1-0.7-0.1-1.2v-6l1.2-0.2V185.5z"/>
	<path fill="#515151" d="M409.3,208.1c-0.5,0-1-0.1-1.4-0.3c-0.4-0.2-0.8-0.4-1-0.7c-0.3-0.3-0.5-0.7-0.6-1.1s-0.2-0.9-0.2-1.4
		c0-0.5,0.1-1,0.2-1.4c0.2-0.4,0.4-0.8,0.6-1.1c0.3-0.3,0.6-0.6,1-0.7c0.4-0.2,0.9-0.3,1.3-0.3c0.3,0,0.6,0,0.9,0.1
		c0.3,0.1,0.6,0.1,0.9,0.2l-0.3,1c-0.2-0.1-0.4-0.2-0.6-0.2s-0.5-0.1-0.8-0.1c-0.7,0-1.2,0.2-1.6,0.6c-0.4,0.4-0.5,1-0.5,1.9
		c0,0.4,0,0.7,0.1,1c0.1,0.3,0.2,0.6,0.4,0.8s0.4,0.4,0.7,0.5c0.3,0.1,0.6,0.2,1,0.2c0.3,0,0.6,0,0.9-0.1s0.5-0.1,0.6-0.2l0.2,1
		c-0.1,0-0.2,0.1-0.3,0.1s-0.3,0.1-0.4,0.1c-0.2,0-0.3,0.1-0.5,0.1C409.7,208,409.5,208.1,409.3,208.1z"/>
	<path fill="#515151" d="M414.6,201c0.5,0,0.9,0.1,1.2,0.2c0.3,0.1,0.6,0.3,0.8,0.5c0.2,0.2,0.3,0.5,0.4,0.8c0.1,0.3,0.1,0.7,0.1,1
		v4.2c-0.1,0-0.2,0-0.4,0.1c-0.2,0-0.4,0.1-0.6,0.1c-0.2,0-0.5,0-0.8,0.1c-0.3,0-0.5,0-0.8,0c-0.4,0-0.7,0-1.1-0.1
		c-0.3-0.1-0.6-0.2-0.8-0.4c-0.2-0.2-0.4-0.4-0.5-0.7s-0.2-0.6-0.2-1c0-0.4,0.1-0.7,0.2-1c0.2-0.3,0.4-0.5,0.6-0.7
		c0.3-0.2,0.6-0.3,0.9-0.4c0.3-0.1,0.7-0.1,1.1-0.1c0.1,0,0.2,0,0.4,0c0.1,0,0.3,0,0.4,0.1s0.2,0,0.3,0.1c0.1,0,0.1,0,0.2,0v-0.3
		c0-0.2,0-0.4-0.1-0.6c0-0.2-0.1-0.4-0.2-0.5c-0.1-0.2-0.3-0.3-0.5-0.4c-0.2-0.1-0.4-0.1-0.8-0.1c-0.4,0-0.7,0-1,0.1
		c-0.3,0.1-0.5,0.1-0.7,0.2l-0.1-1c0.2-0.1,0.4-0.1,0.8-0.2C413.8,201,414.2,201,414.6,201z M414.7,207c0.3,0,0.5,0,0.8,0
		c0.2,0,0.4,0,0.6-0.1v-2c-0.1,0-0.2-0.1-0.4-0.1c-0.2,0-0.4,0-0.7,0c-0.2,0-0.4,0-0.6,0c-0.2,0-0.4,0.1-0.6,0.2
		c-0.2,0.1-0.3,0.2-0.4,0.3c-0.1,0.1-0.2,0.3-0.2,0.6c0,0.4,0.1,0.7,0.4,0.9C413.9,206.9,414.2,207,414.7,207z"/>
	<path fill="#515151" d="M419.2,201.3c0.3-0.1,0.6-0.1,1.1-0.2c0.5-0.1,1-0.1,1.6-0.1c0.5,0,1,0.1,1.3,0.2c0.4,0.2,0.6,0.4,0.9,0.6
		c0.2,0.3,0.4,0.6,0.4,1c0.1,0.4,0.1,0.8,0.1,1.3v3.8h-1.2v-3.5c0-0.4,0-0.8-0.1-1.1c-0.1-0.3-0.1-0.5-0.3-0.7
		c-0.1-0.2-0.3-0.3-0.5-0.4c-0.2-0.1-0.5-0.1-0.8-0.1c-0.1,0-0.3,0-0.4,0s-0.3,0-0.4,0c-0.1,0-0.2,0-0.3,0c-0.1,0-0.2,0-0.2,0v5.7
		h-1.2V201.3z"/>
	<path fill="#515151" d="M431.7,201.1c-0.3,1.3-0.7,2.5-1.2,3.6s-0.9,2.2-1.3,3.1h-1.1c-0.4-0.9-0.9-2-1.3-3.1s-0.9-2.4-1.2-3.6h1.3
		c0.1,0.4,0.2,0.9,0.4,1.4c0.1,0.5,0.3,1,0.5,1.4c0.2,0.5,0.3,0.9,0.5,1.4c0.2,0.4,0.3,0.8,0.5,1.2c0.1-0.3,0.3-0.7,0.5-1.2
		c0.2-0.4,0.3-0.9,0.5-1.4c0.2-0.5,0.3-0.9,0.5-1.4c0.1-0.5,0.3-0.9,0.4-1.4H431.7z"/>
	<path fill="#515151" d="M435.2,201c0.5,0,0.9,0.1,1.2,0.2c0.3,0.1,0.6,0.3,0.8,0.5c0.2,0.2,0.3,0.5,0.4,0.8c0.1,0.3,0.1,0.7,0.1,1
		v4.2c-0.1,0-0.2,0-0.4,0.1c-0.2,0-0.4,0.1-0.6,0.1c-0.2,0-0.5,0-0.8,0.1c-0.3,0-0.5,0-0.8,0c-0.4,0-0.7,0-1.1-0.1
		c-0.3-0.1-0.6-0.2-0.8-0.4c-0.2-0.2-0.4-0.4-0.5-0.7s-0.2-0.6-0.2-1c0-0.4,0.1-0.7,0.2-1c0.2-0.3,0.4-0.5,0.6-0.7
		c0.3-0.2,0.6-0.3,0.9-0.4c0.3-0.1,0.7-0.1,1.1-0.1c0.1,0,0.2,0,0.4,0c0.1,0,0.3,0,0.4,0.1s0.2,0,0.3,0.1c0.1,0,0.1,0,0.2,0v-0.3
		c0-0.2,0-0.4-0.1-0.6c0-0.2-0.1-0.4-0.2-0.5c-0.1-0.2-0.3-0.3-0.5-0.4c-0.2-0.1-0.4-0.1-0.8-0.1c-0.4,0-0.7,0-1,0.1
		c-0.3,0.1-0.5,0.1-0.7,0.2l-0.1-1c0.2-0.1,0.4-0.1,0.8-0.2C434.4,201,434.7,201,435.2,201z M435.3,207c0.3,0,0.5,0,0.8,0
		c0.2,0,0.4,0,0.6-0.1v-2c-0.1,0-0.2-0.1-0.4-0.1c-0.2,0-0.4,0-0.7,0c-0.2,0-0.4,0-0.6,0c-0.2,0-0.4,0.1-0.6,0.2
		c-0.2,0.1-0.3,0.2-0.4,0.3c-0.1,0.1-0.2,0.3-0.2,0.6c0,0.4,0.1,0.7,0.4,0.9C434.4,206.9,434.8,207,435.3,207z"/>
	<path fill="#515151" d="M441.3,207c0.5,0,0.9-0.1,1.1-0.2c0.2-0.1,0.4-0.3,0.4-0.6c0-0.3-0.1-0.5-0.4-0.7c-0.2-0.2-0.6-0.4-1.2-0.6
		c-0.3-0.1-0.5-0.2-0.7-0.3c-0.2-0.1-0.4-0.2-0.6-0.4c-0.2-0.1-0.3-0.3-0.4-0.5c-0.1-0.2-0.2-0.5-0.2-0.8c0-0.6,0.2-1.1,0.7-1.4
		c0.4-0.4,1-0.5,1.8-0.5c0.2,0,0.4,0,0.6,0s0.4,0,0.5,0.1c0.2,0,0.3,0.1,0.4,0.1c0.1,0,0.2,0.1,0.3,0.1l-0.2,1
		c-0.1-0.1-0.3-0.1-0.6-0.2c-0.3-0.1-0.6-0.1-1-0.1c-0.3,0-0.6,0.1-0.9,0.2c-0.3,0.1-0.4,0.3-0.4,0.6c0,0.1,0,0.3,0.1,0.4
		c0.1,0.1,0.1,0.2,0.3,0.3s0.3,0.2,0.4,0.3c0.2,0.1,0.4,0.2,0.6,0.2c0.3,0.1,0.6,0.2,0.9,0.4c0.3,0.1,0.5,0.3,0.6,0.4
		s0.3,0.3,0.4,0.6c0.1,0.2,0.1,0.5,0.1,0.8c0,0.6-0.2,1.1-0.7,1.4c-0.5,0.3-1.1,0.5-2,0.5c-0.6,0-1.1,0-1.4-0.1s-0.6-0.2-0.7-0.2
		l0.2-1c0.1,0.1,0.4,0.1,0.7,0.2C440.4,207,440.8,207,441.3,207z"/>
	<path fill="#515151" d="M451.5,208.1c-0.5,0-1-0.1-1.4-0.3c-0.4-0.2-0.8-0.4-1-0.7c-0.3-0.3-0.5-0.7-0.6-1.1s-0.2-0.9-0.2-1.4
		c0-0.5,0.1-1,0.2-1.4c0.2-0.4,0.4-0.8,0.6-1.1c0.3-0.3,0.6-0.6,1-0.7c0.4-0.2,0.9-0.3,1.3-0.3c0.3,0,0.6,0,0.9,0.1
		c0.3,0.1,0.6,0.1,0.9,0.2l-0.3,1c-0.2-0.1-0.4-0.2-0.6-0.2s-0.5-0.1-0.8-0.1c-0.7,0-1.2,0.2-1.6,0.6c-0.4,0.4-0.5,1-0.5,1.9
		c0,0.4,0,0.7,0.1,1c0.1,0.3,0.2,0.6,0.4,0.8s0.4,0.4,0.7,0.5c0.3,0.1,0.6,0.2,1,0.2c0.3,0,0.6,0,0.9-0.1s0.5-0.1,0.6-0.2l0.2,1
		c-0.1,0-0.2,0.1-0.3,0.1s-0.3,0.1-0.4,0.1c-0.2,0-0.3,0.1-0.5,0.1C451.9,208,451.7,208.1,451.5,208.1z"/>
	<path fill="#515151" d="M460.4,204.5c0,0.5-0.1,1-0.2,1.5c-0.2,0.4-0.4,0.8-0.7,1.1c-0.3,0.3-0.6,0.6-1,0.7
		c-0.4,0.2-0.8,0.3-1.3,0.3s-0.9-0.1-1.3-0.3c-0.4-0.2-0.7-0.4-1-0.7c-0.3-0.3-0.5-0.7-0.7-1.1c-0.2-0.4-0.2-0.9-0.2-1.5
		c0-0.5,0.1-1,0.2-1.4c0.2-0.4,0.4-0.8,0.7-1.1c0.3-0.3,0.6-0.6,1-0.7c0.4-0.2,0.8-0.3,1.3-0.3s0.9,0.1,1.3,0.3
		c0.4,0.2,0.7,0.4,1,0.7c0.3,0.3,0.5,0.7,0.7,1.1C460.3,203.5,460.4,204,460.4,204.5z M459.2,204.5c0-0.8-0.2-1.4-0.5-1.8
		s-0.8-0.7-1.4-0.7c-0.6,0-1.1,0.2-1.4,0.7c-0.3,0.4-0.5,1.1-0.5,1.8s0.2,1.4,0.5,1.8c0.3,0.4,0.8,0.7,1.4,0.7
		c0.6,0,1.1-0.2,1.4-0.7S459.2,205.3,459.2,204.5z"/>
	<path fill="#515151" d="M462.1,201.3c0.3-0.1,0.6-0.1,1.1-0.2c0.5-0.1,1-0.1,1.6-0.1c0.5,0,1,0.1,1.3,0.2c0.4,0.2,0.6,0.4,0.9,0.6
		c0.2,0.3,0.4,0.6,0.4,1c0.1,0.4,0.1,0.8,0.1,1.3v3.8h-1.2v-3.5c0-0.4,0-0.8-0.1-1.1c-0.1-0.3-0.1-0.5-0.3-0.7
		c-0.1-0.2-0.3-0.3-0.5-0.4c-0.2-0.1-0.5-0.1-0.8-0.1c-0.1,0-0.3,0-0.4,0s-0.3,0-0.4,0c-0.1,0-0.2,0-0.3,0c-0.1,0-0.2,0-0.2,0v5.7
		h-1.2V201.3z"/>
	<path fill="#515151" d="M470.7,201.1h2.6v1h-2.6v3.1c0,0.3,0,0.6,0.1,0.8c0.1,0.2,0.1,0.4,0.2,0.5c0.1,0.1,0.2,0.2,0.4,0.3
		s0.3,0.1,0.5,0.1c0.4,0,0.7,0,0.9-0.1c0.2-0.1,0.4-0.1,0.5-0.2l0.2,1c-0.1,0.1-0.3,0.1-0.6,0.2c-0.3,0.1-0.7,0.1-1,0.1
		c-0.5,0-0.8-0.1-1.1-0.2s-0.5-0.3-0.7-0.5c-0.2-0.2-0.3-0.5-0.4-0.9c-0.1-0.3-0.1-0.7-0.1-1.2v-6l1.2-0.2V201.1z"/>
	<path fill="#515151" d="M474.3,204.5c0-0.6,0.1-1.1,0.3-1.6c0.2-0.4,0.4-0.8,0.7-1.1s0.6-0.5,1-0.7c0.4-0.1,0.8-0.2,1.1-0.2
		c0.9,0,1.6,0.3,2.1,0.9c0.5,0.6,0.7,1.4,0.7,2.6c0,0.1,0,0.1,0,0.2c0,0.1,0,0.2,0,0.2h-4.6c0.1,0.7,0.3,1.2,0.6,1.6
		s0.9,0.5,1.7,0.5c0.4,0,0.8,0,1.1-0.1c0.3-0.1,0.5-0.1,0.7-0.2l0.2,1c-0.1,0.1-0.4,0.2-0.8,0.2c-0.4,0.1-0.8,0.1-1.3,0.1
		c-0.6,0-1.1-0.1-1.5-0.3c-0.4-0.2-0.8-0.4-1.1-0.7c-0.3-0.3-0.5-0.7-0.6-1.1C474.4,205.5,474.3,205,474.3,204.5z M478.9,203.9
		c0-0.5-0.1-1-0.4-1.3c-0.3-0.4-0.7-0.5-1.2-0.5c-0.3,0-0.5,0.1-0.7,0.2c-0.2,0.1-0.4,0.2-0.5,0.4c-0.1,0.2-0.3,0.4-0.3,0.6
		s-0.1,0.5-0.2,0.7H478.9z"/>
	<path fill="#515151" d="M481.9,201.3c0.3-0.1,0.6-0.1,1.1-0.2c0.5-0.1,1-0.1,1.6-0.1c0.5,0,1,0.1,1.3,0.2c0.4,0.2,0.6,0.4,0.9,0.6
		c0.2,0.3,0.4,0.6,0.4,1c0.1,0.4,0.1,0.8,0.1,1.3v3.8h-1.2v-3.5c0-0.4,0-0.8-0.1-1.1c-0.1-0.3-0.1-0.5-0.3-0.7
		c-0.1-0.2-0.3-0.3-0.5-0.4c-0.2-0.1-0.5-0.1-0.8-0.1c-0.1,0-0.3,0-0.4,0s-0.3,0-0.4,0c-0.1,0-0.2,0-0.3,0c-0.1,0-0.2,0-0.2,0v5.7
		h-1.2V201.3z"/>
	<path fill="#515151" d="M490.5,201.1h2.6v1h-2.6v3.1c0,0.3,0,0.6,0.1,0.8c0.1,0.2,0.1,0.4,0.2,0.5c0.1,0.1,0.2,0.2,0.4,0.3
		s0.3,0.1,0.5,0.1c0.4,0,0.7,0,0.9-0.1c0.2-0.1,0.4-0.1,0.5-0.2l0.2,1c-0.1,0.1-0.3,0.1-0.6,0.2c-0.3,0.1-0.7,0.1-1,0.1
		c-0.5,0-0.8-0.1-1.1-0.2s-0.5-0.3-0.7-0.5c-0.2-0.2-0.3-0.5-0.4-0.9c-0.1-0.3-0.1-0.7-0.1-1.2v-6l1.2-0.2V201.1z"/>
</g>
<g>
	<path fill="#515151" d="M59.1,316c-0.2,0-0.4,0-0.6,0c-0.2,0-0.4,0-0.6,0c-0.2,0-0.4,0-0.6-0.1s-0.4-0.1-0.6-0.1v-8.7
		c0.2,0,0.4-0.1,0.6-0.1c0.2,0,0.4,0,0.6-0.1s0.4,0,0.6,0s0.4,0,0.6,0c0.5,0,1,0,1.5,0.1c0.5,0.1,0.8,0.2,1.2,0.4
		c0.3,0.2,0.6,0.4,0.8,0.7c0.2,0.3,0.3,0.7,0.3,1.1c0,0.5-0.1,0.9-0.4,1.2c-0.2,0.3-0.5,0.6-0.9,0.7c0.5,0.2,0.9,0.4,1.3,0.7
		s0.5,0.8,0.5,1.4c0,0.9-0.3,1.6-1,2C61.5,315.8,60.5,316,59.1,316z M57.9,310.7h1.3c0.3,0,0.6,0,0.9-0.1c0.3,0,0.5-0.1,0.7-0.2
		c0.2-0.1,0.4-0.3,0.5-0.4c0.1-0.2,0.2-0.4,0.2-0.7c0-0.3-0.1-0.5-0.2-0.7c-0.1-0.2-0.3-0.3-0.5-0.4S60.3,308,60,308
		c-0.3-0.1-0.6-0.1-0.9-0.1c-0.3,0-0.6,0-0.8,0c-0.2,0-0.3,0-0.5,0V310.7z M57.9,311.8v3.2c0.1,0,0.2,0,0.3,0c0.1,0,0.2,0,0.4,0
		c0.2,0,0.3,0,0.5,0c0.4,0,0.7,0,1.1-0.1c0.3,0,0.6-0.1,0.9-0.3s0.5-0.3,0.6-0.5c0.2-0.2,0.2-0.5,0.2-0.8c0-0.3-0.1-0.5-0.2-0.7
		c-0.1-0.2-0.3-0.4-0.5-0.5c-0.2-0.1-0.5-0.2-0.8-0.3c-0.3-0.1-0.6-0.1-1-0.1H57.9z"/>
	<path fill="#515151" d="M66.9,316.1c-0.7,0-1.3-0.2-1.6-0.5c-0.3-0.3-0.5-0.8-0.5-1.4v-8.1l1.2-0.2v8.1c0,0.2,0,0.4,0.1,0.5
		s0.1,0.2,0.2,0.3c0.1,0.1,0.2,0.1,0.3,0.2c0.1,0,0.3,0.1,0.5,0.1L66.9,316.1z"/>
	<path fill="#515151" d="M74.4,312.6c0,0.5-0.1,1-0.2,1.5c-0.2,0.4-0.4,0.8-0.7,1.1c-0.3,0.3-0.6,0.6-1,0.7
		c-0.4,0.2-0.8,0.3-1.3,0.3s-0.9-0.1-1.3-0.3c-0.4-0.2-0.7-0.4-1-0.7c-0.3-0.3-0.5-0.7-0.7-1.1c-0.2-0.4-0.2-0.9-0.2-1.5
		c0-0.5,0.1-1,0.2-1.4c0.2-0.4,0.4-0.8,0.7-1.1c0.3-0.3,0.6-0.6,1-0.7s0.8-0.3,1.3-0.3s0.9,0.1,1.3,0.3c0.4,0.2,0.7,0.4,1,0.7
		c0.3,0.3,0.5,0.7,0.7,1.1C74.3,311.6,74.4,312,74.4,312.6z M73.2,312.6c0-0.8-0.2-1.4-0.5-1.8s-0.8-0.7-1.4-0.7s-1.1,0.2-1.4,0.7
		s-0.5,1.1-0.5,1.8s0.2,1.4,0.5,1.8s0.8,0.7,1.4,0.7s1.1-0.2,1.4-0.7S73.2,313.3,73.2,312.6z"/>
	<path fill="#515151" d="M79.1,316.1c-0.5,0-1-0.1-1.4-0.3c-0.4-0.2-0.8-0.4-1-0.7c-0.3-0.3-0.5-0.7-0.6-1.1s-0.2-0.9-0.2-1.4
		c0-0.5,0.1-1,0.2-1.4c0.2-0.4,0.4-0.8,0.6-1.1c0.3-0.3,0.6-0.6,1-0.7c0.4-0.2,0.9-0.3,1.3-0.3c0.3,0,0.6,0,0.9,0.1
		c0.3,0.1,0.6,0.1,0.9,0.2l-0.3,1c-0.2-0.1-0.4-0.2-0.6-0.2s-0.5-0.1-0.8-0.1c-0.7,0-1.2,0.2-1.6,0.6c-0.4,0.4-0.5,1-0.5,1.9
		c0,0.4,0,0.7,0.1,1c0.1,0.3,0.2,0.6,0.4,0.8s0.4,0.4,0.7,0.5c0.3,0.1,0.6,0.2,1,0.2c0.3,0,0.6,0,0.9-0.1c0.3-0.1,0.5-0.1,0.6-0.2
		l0.2,1c-0.1,0-0.2,0.1-0.3,0.1c-0.1,0-0.3,0.1-0.4,0.1c-0.2,0-0.3,0.1-0.5,0.1C79.4,316.1,79.2,316.1,79.1,316.1z"/>
	<path fill="#515151" d="M84.6,312.2c0.3,0.2,0.5,0.4,0.8,0.7c0.3,0.3,0.6,0.6,0.9,1c0.3,0.3,0.5,0.7,0.8,1s0.5,0.7,0.6,1h-1.4
		c-0.2-0.3-0.4-0.6-0.6-0.9c-0.2-0.3-0.5-0.6-0.7-0.9c-0.3-0.3-0.5-0.6-0.8-0.8c-0.3-0.2-0.5-0.4-0.8-0.6v3.3h-1.2v-9.9l1.2-0.2v6.2
		c0.2-0.2,0.4-0.4,0.7-0.7c0.3-0.3,0.5-0.5,0.7-0.8c0.2-0.3,0.5-0.5,0.7-0.7c0.2-0.2,0.4-0.4,0.6-0.6h1.4c-0.2,0.2-0.4,0.5-0.7,0.7
		c-0.2,0.3-0.5,0.5-0.7,0.8c-0.3,0.3-0.5,0.5-0.8,0.8C85.1,311.7,84.8,312,84.6,312.2z"/>
	<path fill="#515151" d="M88.2,312.6c0-0.6,0.1-1.1,0.3-1.6s0.4-0.8,0.7-1.1c0.3-0.3,0.6-0.5,1-0.7c0.4-0.1,0.8-0.2,1.1-0.2
		c0.9,0,1.6,0.3,2.1,0.9c0.5,0.6,0.7,1.4,0.7,2.6c0,0.1,0,0.1,0,0.2c0,0.1,0,0.2,0,0.2h-4.6c0.1,0.7,0.3,1.2,0.6,1.6
		c0.4,0.4,0.9,0.5,1.7,0.5c0.4,0,0.8,0,1.1-0.1c0.3-0.1,0.5-0.1,0.7-0.2l0.2,1c-0.1,0.1-0.4,0.2-0.8,0.2c-0.4,0.1-0.8,0.1-1.3,0.1
		c-0.6,0-1.1-0.1-1.5-0.3s-0.8-0.4-1.1-0.7c-0.3-0.3-0.5-0.7-0.6-1.1C88.3,313.6,88.2,313.1,88.2,312.6z M92.9,311.9
		c0-0.5-0.1-1-0.4-1.3c-0.3-0.4-0.7-0.5-1.2-0.5c-0.3,0-0.5,0.1-0.7,0.2s-0.4,0.2-0.5,0.4c-0.1,0.2-0.3,0.4-0.3,0.6
		c-0.1,0.2-0.1,0.5-0.2,0.7H92.9z"/>
	<path fill="#515151" d="M100.3,306.1l1.2-0.2v9.9c-0.3,0.1-0.6,0.2-1.1,0.2s-0.9,0.1-1.5,0.1c-0.5,0-1-0.1-1.4-0.2
		c-0.4-0.2-0.8-0.4-1.1-0.7s-0.5-0.7-0.7-1.1s-0.2-0.9-0.2-1.5c0-0.5,0.1-1,0.2-1.4c0.1-0.4,0.3-0.8,0.6-1.1c0.3-0.3,0.6-0.6,1-0.7
		c0.4-0.2,0.8-0.3,1.3-0.3c0.4,0,0.7,0.1,1,0.2c0.3,0.1,0.5,0.2,0.7,0.3V306.1z M100.3,310.6c-0.1-0.1-0.4-0.2-0.6-0.4
		c-0.3-0.1-0.6-0.2-0.9-0.2c-0.3,0-0.6,0.1-0.9,0.2c-0.2,0.1-0.4,0.3-0.6,0.5s-0.3,0.5-0.3,0.8c-0.1,0.3-0.1,0.6-0.1,1
		c0,0.8,0.2,1.4,0.6,1.8c0.4,0.4,0.9,0.6,1.6,0.6c0.3,0,0.6,0,0.8,0s0.4-0.1,0.5-0.1V310.6z"/>
	<path fill="#515151" d="M105,315.2c0,0.2-0.1,0.4-0.2,0.6c-0.2,0.2-0.4,0.3-0.6,0.3s-0.5-0.1-0.6-0.3c-0.2-0.2-0.2-0.4-0.2-0.6
		c0-0.2,0.1-0.4,0.2-0.6c0.2-0.2,0.4-0.3,0.6-0.3s0.5,0.1,0.6,0.3C104.9,314.8,105,315,105,315.2z"/>
	<path fill="#515151" d="M111.9,315.1c1.3,0,2-0.5,2-1.4c0-0.3-0.1-0.5-0.2-0.7c-0.1-0.2-0.3-0.4-0.5-0.5c-0.2-0.1-0.4-0.3-0.7-0.4
		c-0.3-0.1-0.5-0.2-0.8-0.3c-0.3-0.1-0.6-0.2-0.9-0.4c-0.3-0.1-0.6-0.3-0.8-0.5c-0.2-0.2-0.4-0.4-0.5-0.7c-0.1-0.3-0.2-0.6-0.2-1
		c0-0.8,0.3-1.4,0.8-1.8c0.5-0.4,1.3-0.7,2.2-0.7c0.5,0,1,0.1,1.5,0.2c0.4,0.1,0.8,0.2,1,0.4l-0.4,1c-0.2-0.1-0.5-0.2-0.8-0.3
		c-0.4-0.1-0.8-0.2-1.3-0.2c-0.2,0-0.5,0-0.7,0.1s-0.4,0.1-0.5,0.2c-0.2,0.1-0.3,0.2-0.4,0.4c-0.1,0.2-0.1,0.3-0.1,0.6
		c0,0.2,0,0.4,0.1,0.6c0.1,0.2,0.2,0.3,0.4,0.4c0.2,0.1,0.4,0.2,0.6,0.3c0.2,0.1,0.5,0.2,0.8,0.3c0.4,0.2,0.7,0.3,1.1,0.5
		c0.3,0.2,0.6,0.3,0.8,0.6s0.4,0.5,0.6,0.8s0.2,0.7,0.2,1.1c0,0.8-0.3,1.4-0.9,1.8c-0.6,0.4-1.4,0.6-2.4,0.6c-0.4,0-0.7,0-1-0.1
		c-0.3,0-0.6-0.1-0.8-0.2c-0.2-0.1-0.4-0.1-0.6-0.2c-0.2-0.1-0.3-0.1-0.4-0.2l0.4-1c0.2,0.1,0.5,0.2,0.9,0.4
		C110.8,315,111.3,315.1,111.9,315.1z"/>
	<path fill="#515151" d="M119.6,316.1c-0.5,0-1-0.1-1.4-0.3c-0.4-0.2-0.8-0.4-1-0.7c-0.3-0.3-0.5-0.7-0.6-1.1s-0.2-0.9-0.2-1.4
		c0-0.5,0.1-1,0.2-1.4c0.2-0.4,0.4-0.8,0.6-1.1c0.3-0.3,0.6-0.6,1-0.7c0.4-0.2,0.9-0.3,1.3-0.3c0.3,0,0.6,0,0.9,0.1
		c0.3,0.1,0.6,0.1,0.9,0.2l-0.3,1c-0.2-0.1-0.4-0.2-0.6-0.2s-0.5-0.1-0.8-0.1c-0.7,0-1.2,0.2-1.6,0.6c-0.4,0.4-0.5,1-0.5,1.9
		c0,0.4,0,0.7,0.1,1c0.1,0.3,0.2,0.6,0.4,0.8s0.4,0.4,0.7,0.5c0.3,0.1,0.6,0.2,1,0.2c0.3,0,0.6,0,0.9-0.1s0.5-0.1,0.6-0.2l0.2,1
		c-0.1,0-0.2,0.1-0.3,0.1s-0.3,0.1-0.4,0.1c-0.2,0-0.3,0.1-0.5,0.1C120,316.1,119.8,316.1,119.6,316.1z"/>
	<path fill="#515151" d="M125.2,309c0.1,0,0.2,0,0.4,0c0.1,0,0.3,0,0.4,0.1c0.1,0,0.2,0,0.4,0.1s0.2,0,0.2,0.1l-0.2,1.1
		c-0.1,0-0.3-0.1-0.5-0.1c-0.2,0-0.5-0.1-0.9-0.1c-0.2,0-0.4,0-0.7,0.1s-0.4,0.1-0.4,0.1v5.7h-1.2v-6.5c0.3-0.1,0.6-0.2,1.1-0.3
		C124.2,309.1,124.7,309,125.2,309z"/>
	<path fill="#515151" d="M128.3,308c-0.2,0-0.4-0.1-0.6-0.2c-0.2-0.1-0.2-0.3-0.2-0.6c0-0.2,0.1-0.4,0.2-0.6
		c0.2-0.1,0.3-0.2,0.6-0.2s0.4,0.1,0.6,0.2s0.2,0.3,0.2,0.6c0,0.2-0.1,0.4-0.2,0.6C128.7,307.9,128.5,308,128.3,308z M128.9,315.9
		h-1.2v-6.8h1.2V315.9z"/>
	<path fill="#515151" d="M137,312.6c0,0.5-0.1,1-0.2,1.4c-0.1,0.4-0.3,0.8-0.6,1.1c-0.3,0.3-0.6,0.6-1,0.7c-0.4,0.2-0.8,0.3-1.3,0.3
		c-0.4,0-0.7-0.1-1-0.2c-0.3-0.1-0.5-0.2-0.7-0.3v2.7H131v-9c0.3-0.1,0.6-0.1,1.1-0.2s0.9-0.1,1.5-0.1c0.5,0,1,0.1,1.4,0.2
		c0.4,0.2,0.8,0.4,1.1,0.7c0.3,0.3,0.5,0.7,0.7,1.1C136.9,311.5,137,312,137,312.6z M135.7,312.6c0-0.8-0.2-1.4-0.6-1.8
		c-0.4-0.4-0.9-0.6-1.6-0.6c-0.4,0-0.6,0-0.9,0c-0.2,0-0.4,0.1-0.5,0.1v4.3c0.1,0.1,0.4,0.2,0.6,0.4c0.3,0.1,0.6,0.2,0.9,0.2
		c0.3,0,0.6-0.1,0.9-0.2c0.2-0.1,0.4-0.3,0.6-0.5c0.2-0.2,0.3-0.5,0.3-0.8S135.7,312.9,135.7,312.6z"/>
	<path fill="#515151" d="M139.8,309.2h2.6v1h-2.6v3.1c0,0.3,0,0.6,0.1,0.8c0.1,0.2,0.1,0.4,0.2,0.5c0.1,0.1,0.2,0.2,0.4,0.3
		s0.3,0.1,0.5,0.1c0.4,0,0.7,0,0.9-0.1c0.2-0.1,0.4-0.1,0.5-0.2l0.2,1c-0.1,0.1-0.3,0.1-0.6,0.2c-0.3,0.1-0.7,0.1-1,0.1
		c-0.5,0-0.8-0.1-1.1-0.2s-0.5-0.3-0.7-0.5c-0.2-0.2-0.3-0.5-0.4-0.9c-0.1-0.3-0.1-0.7-0.1-1.2v-6l1.2-0.2V309.2z"/>
	<path fill="#515151" d="M145.5,315.1c0.5,0,0.9-0.1,1.1-0.2c0.2-0.1,0.4-0.3,0.4-0.6c0-0.3-0.1-0.5-0.4-0.7
		c-0.2-0.2-0.6-0.4-1.2-0.6c-0.3-0.1-0.5-0.2-0.7-0.3c-0.2-0.1-0.4-0.2-0.6-0.4c-0.2-0.1-0.3-0.3-0.4-0.5c-0.1-0.2-0.2-0.5-0.2-0.8
		c0-0.6,0.2-1.1,0.7-1.4c0.4-0.4,1-0.5,1.8-0.5c0.2,0,0.4,0,0.6,0s0.4,0,0.5,0.1c0.2,0,0.3,0.1,0.4,0.1c0.1,0,0.2,0.1,0.3,0.1
		l-0.2,1c-0.1-0.1-0.3-0.1-0.6-0.2c-0.3-0.1-0.6-0.1-1-0.1c-0.3,0-0.6,0.1-0.9,0.2c-0.3,0.1-0.4,0.3-0.4,0.6c0,0.1,0,0.3,0.1,0.4
		c0.1,0.1,0.1,0.2,0.3,0.3s0.3,0.2,0.4,0.3c0.2,0.1,0.4,0.2,0.6,0.2c0.3,0.1,0.6,0.2,0.9,0.4c0.3,0.1,0.5,0.3,0.6,0.4
		s0.3,0.3,0.4,0.6c0.1,0.2,0.1,0.5,0.1,0.8c0,0.6-0.2,1.1-0.7,1.4c-0.5,0.3-1.1,0.5-2,0.5c-0.6,0-1.1,0-1.4-0.1s-0.6-0.2-0.7-0.2
		l0.2-1c0.1,0.1,0.4,0.1,0.7,0.2C144.6,315,145,315.1,145.5,315.1z"/>
	<path fill="#515151" d="M155.6,316.1c-0.5,0-1-0.1-1.4-0.3c-0.4-0.2-0.8-0.4-1-0.7c-0.3-0.3-0.5-0.7-0.6-1.1s-0.2-0.9-0.2-1.4
		c0-0.5,0.1-1,0.2-1.4c0.2-0.4,0.4-0.8,0.6-1.1c0.3-0.3,0.6-0.6,1-0.7c0.4-0.2,0.9-0.3,1.3-0.3c0.3,0,0.6,0,0.9,0.1
		c0.3,0.1,0.6,0.1,0.9,0.2l-0.3,1c-0.2-0.1-0.4-0.2-0.6-0.2s-0.5-0.1-0.8-0.1c-0.7,0-1.2,0.2-1.6,0.6c-0.4,0.4-0.5,1-0.5,1.9
		c0,0.4,0,0.7,0.1,1c0.1,0.3,0.2,0.6,0.4,0.8s0.4,0.4,0.7,0.5c0.3,0.1,0.6,0.2,1,0.2c0.3,0,0.6,0,0.9-0.1s0.5-0.1,0.6-0.2l0.2,1
		c-0.1,0-0.2,0.1-0.3,0.1s-0.3,0.1-0.4,0.1c-0.2,0-0.3,0.1-0.5,0.1C156,316.1,155.8,316.1,155.6,316.1z"/>
	<path fill="#515151" d="M160.9,309c0.5,0,0.9,0.1,1.2,0.2c0.3,0.1,0.6,0.3,0.8,0.5c0.2,0.2,0.3,0.5,0.4,0.8c0.1,0.3,0.1,0.7,0.1,1
		v4.2c-0.1,0-0.2,0-0.4,0.1c-0.2,0-0.4,0.1-0.6,0.1c-0.2,0-0.5,0-0.8,0.1c-0.3,0-0.5,0-0.8,0c-0.4,0-0.7,0-1.1-0.1
		c-0.3-0.1-0.6-0.2-0.8-0.4c-0.2-0.2-0.4-0.4-0.5-0.7s-0.2-0.6-0.2-1c0-0.4,0.1-0.7,0.2-1c0.2-0.3,0.4-0.5,0.6-0.7
		c0.3-0.2,0.6-0.3,0.9-0.4c0.3-0.1,0.7-0.1,1.1-0.1c0.1,0,0.2,0,0.4,0c0.1,0,0.3,0,0.4,0.1s0.2,0,0.3,0.1c0.1,0,0.1,0,0.2,0v-0.3
		c0-0.2,0-0.4-0.1-0.6c0-0.2-0.1-0.4-0.2-0.5c-0.1-0.2-0.3-0.3-0.5-0.4c-0.2-0.1-0.4-0.1-0.8-0.1c-0.4,0-0.7,0-1,0.1
		c-0.3,0.1-0.5,0.1-0.7,0.2l-0.1-1c0.2-0.1,0.4-0.1,0.8-0.2C160.1,309.1,160.5,309,160.9,309z M161,315.1c0.3,0,0.5,0,0.8,0
		c0.2,0,0.4,0,0.6-0.1v-2c-0.1,0-0.2-0.1-0.4-0.1c-0.2,0-0.4,0-0.7,0c-0.2,0-0.4,0-0.6,0c-0.2,0-0.4,0.1-0.6,0.2
		c-0.2,0.1-0.3,0.2-0.4,0.3c-0.1,0.1-0.2,0.3-0.2,0.6c0,0.4,0.1,0.7,0.4,0.9C160.2,315,160.6,315.1,161,315.1z"/>
	<path fill="#515151" d="M165.5,309.4c0.3-0.1,0.6-0.1,1.1-0.2c0.5-0.1,1-0.1,1.6-0.1c0.5,0,1,0.1,1.3,0.2c0.4,0.2,0.6,0.4,0.9,0.6
		c0.2,0.3,0.4,0.6,0.4,1c0.1,0.4,0.1,0.8,0.1,1.3v3.8h-1.2v-3.5c0-0.4,0-0.8-0.1-1.1c-0.1-0.3-0.1-0.5-0.3-0.7
		c-0.1-0.2-0.3-0.3-0.5-0.4c-0.2-0.1-0.5-0.1-0.8-0.1c-0.1,0-0.3,0-0.4,0s-0.3,0-0.4,0c-0.1,0-0.2,0-0.3,0c-0.1,0-0.2,0-0.2,0v5.7
		h-1.2V309.4z"/>
	<path fill="#515151" d="M173.9,306.2c0,0.1,0,0.2,0,0.3s0,0.2,0,0.3c0,0.5-0.1,0.9-0.3,1.3s-0.4,0.9-0.6,1.2L172,309
		c0.2-0.4,0.3-0.8,0.4-1.2c0.1-0.4,0.1-0.7,0.1-1.1c0-0.1,0-0.2,0-0.3c0-0.1,0-0.2,0-0.3H173.9z"/>
	<path fill="#515151" d="M176.8,309.2h2.6v1h-2.6v3.1c0,0.3,0,0.6,0.1,0.8c0.1,0.2,0.1,0.4,0.2,0.5c0.1,0.1,0.2,0.2,0.4,0.3
		s0.3,0.1,0.5,0.1c0.4,0,0.7,0,0.9-0.1c0.2-0.1,0.4-0.1,0.5-0.2l0.2,1c-0.1,0.1-0.3,0.1-0.6,0.2c-0.3,0.1-0.7,0.1-1,0.1
		c-0.5,0-0.8-0.1-1.1-0.2s-0.5-0.3-0.7-0.5c-0.2-0.2-0.3-0.5-0.4-0.9c-0.1-0.3-0.1-0.7-0.1-1.2v-6l1.2-0.2V309.2z"/>
	<path fill="#515151" d="M188.2,315.3c-0.1,0.1-0.3,0.2-0.6,0.3c-0.3,0.1-0.6,0.2-1,0.2c-0.4,0-0.8-0.1-1.2-0.2
		c-0.4-0.1-0.7-0.3-0.9-0.6c-0.3-0.3-0.5-0.6-0.6-1c-0.2-0.4-0.2-0.9-0.2-1.5c0-0.5,0.1-0.9,0.2-1.4c0.1-0.4,0.4-0.8,0.6-1.1
		s0.6-0.5,1-0.7c0.4-0.2,0.9-0.3,1.4-0.3c0.6,0,1.1,0,1.5,0.1c0.4,0.1,0.8,0.2,1.1,0.2v6c0,1-0.3,1.8-0.8,2.3s-1.4,0.7-2.4,0.7
		c-0.4,0-0.8,0-1.2-0.1s-0.7-0.2-1-0.2l0.2-1.1c0.2,0.1,0.5,0.2,0.9,0.3c0.4,0.1,0.7,0.1,1.1,0.1c0.7,0,1.2-0.1,1.6-0.4
		c0.3-0.3,0.5-0.7,0.5-1.4V315.3z M188.2,310.3c-0.1,0-0.3-0.1-0.5-0.1c-0.2,0-0.5,0-0.8,0c-0.7,0-1.2,0.2-1.5,0.6
		c-0.4,0.4-0.5,1-0.5,1.7c0,0.4,0,0.7,0.1,1s0.2,0.5,0.4,0.7c0.2,0.2,0.4,0.3,0.6,0.4s0.4,0.1,0.7,0.1c0.3,0,0.6,0,0.9-0.1
		c0.3-0.1,0.5-0.2,0.6-0.3V310.3z"/>
	<path fill="#515151" d="M191.1,312.6c0-0.6,0.1-1.1,0.3-1.6c0.2-0.4,0.4-0.8,0.7-1.1s0.6-0.5,1-0.7c0.4-0.1,0.8-0.2,1.1-0.2
		c0.9,0,1.6,0.3,2.1,0.9c0.5,0.6,0.7,1.4,0.7,2.6c0,0.1,0,0.1,0,0.2c0,0.1,0,0.2,0,0.2h-4.6c0.1,0.7,0.3,1.2,0.6,1.6
		s0.9,0.5,1.7,0.5c0.4,0,0.8,0,1.1-0.1c0.3-0.1,0.5-0.1,0.7-0.2l0.2,1c-0.1,0.1-0.4,0.2-0.8,0.2c-0.4,0.1-0.8,0.1-1.3,0.1
		c-0.6,0-1.1-0.1-1.5-0.3c-0.4-0.2-0.8-0.4-1.1-0.7c-0.3-0.3-0.5-0.7-0.6-1.1C191.1,313.6,191.1,313.1,191.1,312.6z M195.7,311.9
		c0-0.5-0.1-1-0.4-1.3c-0.3-0.4-0.7-0.5-1.2-0.5c-0.3,0-0.5,0.1-0.7,0.2c-0.2,0.1-0.4,0.2-0.5,0.4c-0.1,0.2-0.3,0.4-0.3,0.6
		s-0.1,0.5-0.2,0.7H195.7z"/>
	<path fill="#515151" d="M199.8,309.2h2.6v1h-2.6v3.1c0,0.3,0,0.6,0.1,0.8c0.1,0.2,0.1,0.4,0.2,0.5c0.1,0.1,0.2,0.2,0.4,0.3
		s0.3,0.1,0.5,0.1c0.4,0,0.7,0,0.9-0.1c0.2-0.1,0.4-0.1,0.5-0.2l0.2,1c-0.1,0.1-0.3,0.1-0.6,0.2c-0.3,0.1-0.7,0.1-1,0.1
		c-0.5,0-0.8-0.1-1.1-0.2s-0.5-0.3-0.7-0.5c-0.2-0.2-0.3-0.5-0.4-0.9c-0.1-0.3-0.1-0.7-0.1-1.2v-6l1.2-0.2V309.2z"/>
	<path fill="#515151" d="M209.1,309c0.5,0,0.9,0.1,1.2,0.2c0.3,0.1,0.6,0.3,0.8,0.5c0.2,0.2,0.3,0.5,0.4,0.8c0.1,0.3,0.1,0.7,0.1,1
		v4.2c-0.1,0-0.2,0-0.4,0.1c-0.2,0-0.4,0.1-0.6,0.1c-0.2,0-0.5,0-0.8,0.1c-0.3,0-0.5,0-0.8,0c-0.4,0-0.7,0-1.1-0.1
		c-0.3-0.1-0.6-0.2-0.8-0.4c-0.2-0.2-0.4-0.4-0.5-0.7s-0.2-0.6-0.2-1c0-0.4,0.1-0.7,0.2-1c0.2-0.3,0.4-0.5,0.6-0.7
		c0.3-0.2,0.6-0.3,0.9-0.4c0.3-0.1,0.7-0.1,1.1-0.1c0.1,0,0.2,0,0.4,0c0.1,0,0.3,0,0.4,0.1s0.2,0,0.3,0.1c0.1,0,0.1,0,0.2,0v-0.3
		c0-0.2,0-0.4-0.1-0.6c0-0.2-0.1-0.4-0.2-0.5c-0.1-0.2-0.3-0.3-0.5-0.4c-0.2-0.1-0.4-0.1-0.8-0.1c-0.4,0-0.7,0-1,0.1
		c-0.3,0.1-0.5,0.1-0.7,0.2l-0.1-1c0.2-0.1,0.4-0.1,0.8-0.2C208.3,309.1,208.7,309,209.1,309z M209.2,315.1c0.3,0,0.5,0,0.8,0
		c0.2,0,0.4,0,0.6-0.1v-2c-0.1,0-0.2-0.1-0.4-0.1c-0.2,0-0.4,0-0.7,0c-0.2,0-0.4,0-0.6,0c-0.2,0-0.4,0.1-0.6,0.2
		c-0.2,0.1-0.3,0.2-0.4,0.3c-0.1,0.1-0.2,0.3-0.2,0.6c0,0.4,0.1,0.7,0.4,0.9C208.4,315,208.8,315.1,209.2,315.1z"/>
	<path fill="#515151" d="M216.7,316.1c-0.5,0-1-0.1-1.4-0.3c-0.4-0.2-0.8-0.4-1-0.7c-0.3-0.3-0.5-0.7-0.6-1.1s-0.2-0.9-0.2-1.4
		c0-0.5,0.1-1,0.2-1.4c0.2-0.4,0.4-0.8,0.6-1.1c0.3-0.3,0.6-0.6,1-0.7c0.4-0.2,0.9-0.3,1.3-0.3c0.3,0,0.6,0,0.9,0.1
		c0.3,0.1,0.6,0.1,0.9,0.2l-0.3,1c-0.2-0.1-0.4-0.2-0.6-0.2s-0.5-0.1-0.8-0.1c-0.7,0-1.2,0.2-1.6,0.6c-0.4,0.4-0.5,1-0.5,1.9
		c0,0.4,0,0.7,0.1,1c0.1,0.3,0.2,0.6,0.4,0.8s0.4,0.4,0.7,0.5c0.3,0.1,0.6,0.2,1,0.2c0.3,0,0.6,0,0.9-0.1s0.5-0.1,0.6-0.2l0.2,1
		c-0.1,0-0.2,0.1-0.3,0.1s-0.3,0.1-0.4,0.1c-0.2,0-0.3,0.1-0.5,0.1C217,316.1,216.8,316.1,216.7,316.1z"/>
	<path fill="#515151" d="M222.7,316.1c-0.5,0-1-0.1-1.4-0.3c-0.4-0.2-0.8-0.4-1-0.7c-0.3-0.3-0.5-0.7-0.6-1.1s-0.2-0.9-0.2-1.4
		c0-0.5,0.1-1,0.2-1.4c0.2-0.4,0.4-0.8,0.6-1.1c0.3-0.3,0.6-0.6,1-0.7c0.4-0.2,0.9-0.3,1.3-0.3c0.3,0,0.6,0,0.9,0.1
		c0.3,0.1,0.6,0.1,0.9,0.2l-0.3,1c-0.2-0.1-0.4-0.2-0.6-0.2s-0.5-0.1-0.8-0.1c-0.7,0-1.2,0.2-1.6,0.6c-0.4,0.4-0.5,1-0.5,1.9
		c0,0.4,0,0.7,0.1,1c0.1,0.3,0.2,0.6,0.4,0.8s0.4,0.4,0.7,0.5c0.3,0.1,0.6,0.2,1,0.2c0.3,0,0.6,0,0.9-0.1s0.5-0.1,0.6-0.2l0.2,1
		c-0.1,0-0.2,0.1-0.3,0.1s-0.3,0.1-0.4,0.1c-0.2,0-0.3,0.1-0.5,0.1C223.1,316.1,222.9,316.1,222.7,316.1z"/>
	<path fill="#515151" d="M225.4,312.6c0-0.6,0.1-1.1,0.3-1.6c0.2-0.4,0.4-0.8,0.7-1.1s0.6-0.5,1-0.7c0.4-0.1,0.8-0.2,1.1-0.2
		c0.9,0,1.6,0.3,2.1,0.9c0.5,0.6,0.7,1.4,0.7,2.6c0,0.1,0,0.1,0,0.2c0,0.1,0,0.2,0,0.2h-4.6c0.1,0.7,0.3,1.2,0.6,1.6
		s0.9,0.5,1.7,0.5c0.4,0,0.8,0,1.1-0.1c0.3-0.1,0.5-0.1,0.7-0.2l0.2,1c-0.1,0.1-0.4,0.2-0.8,0.2c-0.4,0.1-0.8,0.1-1.3,0.1
		c-0.6,0-1.1-0.1-1.5-0.3c-0.4-0.2-0.8-0.4-1.1-0.7c-0.3-0.3-0.5-0.7-0.6-1.1C225.5,313.6,225.4,313.1,225.4,312.6z M230.1,311.9
		c0-0.5-0.1-1-0.4-1.3c-0.3-0.4-0.7-0.5-1.2-0.5c-0.3,0-0.5,0.1-0.7,0.2c-0.2,0.1-0.4,0.2-0.5,0.4c-0.1,0.2-0.3,0.4-0.3,0.6
		s-0.1,0.5-0.2,0.7H230.1z"/>
	<path fill="#515151" d="M234.7,315.1c0.5,0,0.9-0.1,1.1-0.2c0.2-0.1,0.4-0.3,0.4-0.6c0-0.3-0.1-0.5-0.4-0.7
		c-0.2-0.2-0.6-0.4-1.2-0.6c-0.3-0.1-0.5-0.2-0.7-0.3c-0.2-0.1-0.4-0.2-0.6-0.4c-0.2-0.1-0.3-0.3-0.4-0.5c-0.1-0.2-0.2-0.5-0.2-0.8
		c0-0.6,0.2-1.1,0.7-1.4c0.4-0.4,1-0.5,1.8-0.5c0.2,0,0.4,0,0.6,0s0.4,0,0.5,0.1c0.2,0,0.3,0.1,0.4,0.1c0.1,0,0.2,0.1,0.3,0.1
		l-0.2,1c-0.1-0.1-0.3-0.1-0.6-0.2c-0.3-0.1-0.6-0.1-1-0.1c-0.3,0-0.6,0.1-0.9,0.2c-0.3,0.1-0.4,0.3-0.4,0.6c0,0.1,0,0.3,0.1,0.4
		c0.1,0.1,0.1,0.2,0.3,0.3s0.3,0.2,0.4,0.3c0.2,0.1,0.4,0.2,0.6,0.2c0.3,0.1,0.6,0.2,0.9,0.4c0.3,0.1,0.5,0.3,0.6,0.4
		s0.3,0.3,0.4,0.6c0.1,0.2,0.1,0.5,0.1,0.8c0,0.6-0.2,1.1-0.7,1.4c-0.5,0.3-1.1,0.5-2,0.5c-0.6,0-1.1,0-1.4-0.1s-0.6-0.2-0.7-0.2
		l0.2-1c0.1,0.1,0.4,0.1,0.7,0.2C233.8,315,234.2,315.1,234.7,315.1z"/>
	<path fill="#515151" d="M240.5,315.1c0.5,0,0.9-0.1,1.1-0.2c0.2-0.1,0.4-0.3,0.4-0.6c0-0.3-0.1-0.5-0.4-0.7
		c-0.2-0.2-0.6-0.4-1.2-0.6c-0.3-0.1-0.5-0.2-0.7-0.3c-0.2-0.1-0.4-0.2-0.6-0.4c-0.2-0.1-0.3-0.3-0.4-0.5c-0.1-0.2-0.2-0.5-0.2-0.8
		c0-0.6,0.2-1.1,0.7-1.4c0.4-0.4,1-0.5,1.8-0.5c0.2,0,0.4,0,0.6,0s0.4,0,0.5,0.1c0.2,0,0.3,0.1,0.4,0.1c0.1,0,0.2,0.1,0.3,0.1
		l-0.2,1c-0.1-0.1-0.3-0.1-0.6-0.2c-0.3-0.1-0.6-0.1-1-0.1c-0.3,0-0.6,0.1-0.9,0.2c-0.3,0.1-0.4,0.3-0.4,0.6c0,0.1,0,0.3,0.1,0.4
		c0.1,0.1,0.1,0.2,0.3,0.3s0.3,0.2,0.4,0.3c0.2,0.1,0.4,0.2,0.6,0.2c0.3,0.1,0.6,0.2,0.9,0.4c0.3,0.1,0.5,0.3,0.6,0.4
		s0.3,0.3,0.4,0.6c0.1,0.2,0.1,0.5,0.1,0.8c0,0.6-0.2,1.1-0.7,1.4c-0.5,0.3-1.1,0.5-2,0.5c-0.6,0-1.1,0-1.4-0.1s-0.6-0.2-0.7-0.2
		l0.2-1c0.1,0.1,0.4,0.1,0.7,0.2C239.6,315,240,315.1,240.5,315.1z"/>
	<path fill="#515151" d="M248.8,309.2h2.6v1h-2.6v3.1c0,0.3,0,0.6,0.1,0.8c0.1,0.2,0.1,0.4,0.2,0.5c0.1,0.1,0.2,0.2,0.4,0.3
		s0.3,0.1,0.5,0.1c0.4,0,0.7,0,0.9-0.1c0.2-0.1,0.4-0.1,0.5-0.2l0.2,1c-0.1,0.1-0.3,0.1-0.6,0.2c-0.3,0.1-0.7,0.1-1,0.1
		c-0.5,0-0.8-0.1-1.1-0.2s-0.5-0.3-0.7-0.5c-0.2-0.2-0.3-0.5-0.4-0.9c-0.1-0.3-0.1-0.7-0.1-1.2v-6l1.2-0.2V309.2z"/>
	<path fill="#515151" d="M258.7,312.6c0,0.5-0.1,1-0.2,1.5c-0.2,0.4-0.4,0.8-0.7,1.1c-0.3,0.3-0.6,0.6-1,0.7
		c-0.4,0.2-0.8,0.3-1.3,0.3s-0.9-0.1-1.3-0.3c-0.4-0.2-0.7-0.4-1-0.7c-0.3-0.3-0.5-0.7-0.7-1.1c-0.2-0.4-0.2-0.9-0.2-1.5
		c0-0.5,0.1-1,0.2-1.4c0.2-0.4,0.4-0.8,0.7-1.1c0.3-0.3,0.6-0.6,1-0.7c0.4-0.2,0.8-0.3,1.3-0.3s0.9,0.1,1.3,0.3
		c0.4,0.2,0.7,0.4,1,0.7c0.3,0.3,0.5,0.7,0.7,1.1C258.6,311.6,258.7,312,258.7,312.6z M257.4,312.6c0-0.8-0.2-1.4-0.5-1.8
		s-0.8-0.7-1.4-0.7c-0.6,0-1.1,0.2-1.4,0.7c-0.3,0.4-0.5,1.1-0.5,1.8s0.2,1.4,0.5,1.8c0.3,0.4,0.8,0.7,1.4,0.7
		c0.6,0,1.1-0.2,1.4-0.7S257.4,313.3,257.4,312.6z"/>
	<path fill="#515151" d="M58.7,327c0.5,0,0.9,0.1,1.2,0.2c0.3,0.1,0.6,0.3,0.8,0.5c0.2,0.2,0.3,0.5,0.4,0.8c0.1,0.3,0.1,0.7,0.1,1
		v4.2c-0.1,0-0.2,0-0.4,0.1c-0.2,0-0.4,0.1-0.6,0.1c-0.2,0-0.5,0-0.8,0.1s-0.5,0-0.8,0c-0.4,0-0.7,0-1.1-0.1
		c-0.3-0.1-0.6-0.2-0.8-0.4c-0.2-0.2-0.4-0.4-0.5-0.7s-0.2-0.6-0.2-1c0-0.4,0.1-0.7,0.2-1c0.2-0.3,0.4-0.5,0.6-0.7
		c0.3-0.2,0.6-0.3,0.9-0.4s0.7-0.1,1.1-0.1c0.1,0,0.2,0,0.4,0c0.1,0,0.3,0,0.4,0.1c0.1,0,0.2,0,0.3,0.1c0.1,0,0.1,0,0.2,0v-0.3
		c0-0.2,0-0.4-0.1-0.6c0-0.2-0.1-0.4-0.2-0.5c-0.1-0.2-0.3-0.3-0.5-0.4c-0.2-0.1-0.4-0.1-0.8-0.1c-0.4,0-0.7,0-1,0.1
		c-0.3,0.1-0.5,0.1-0.7,0.2l-0.1-1c0.2-0.1,0.4-0.1,0.8-0.2C57.9,327.1,58.3,327,58.7,327z M58.8,333.1c0.3,0,0.5,0,0.8,0
		c0.2,0,0.4,0,0.6-0.1v-2c-0.1,0-0.2-0.1-0.4-0.1c-0.2,0-0.4,0-0.7,0c-0.2,0-0.4,0-0.6,0c-0.2,0-0.4,0.1-0.6,0.2
		c-0.2,0.1-0.3,0.2-0.4,0.3c-0.1,0.1-0.2,0.3-0.2,0.6c0,0.4,0.1,0.7,0.4,0.9C58,333,58.4,333.1,58.8,333.1z"/>
	<path fill="#515151" d="M63.3,327.4c0.3-0.1,0.6-0.1,1.1-0.2c0.5-0.1,1-0.1,1.6-0.1c0.5,0,1,0.1,1.3,0.2c0.4,0.2,0.6,0.4,0.9,0.6
		c0.2,0.3,0.4,0.6,0.4,1c0.1,0.4,0.1,0.8,0.1,1.3v3.8h-1.2v-3.5c0-0.4,0-0.8-0.1-1.1c-0.1-0.3-0.1-0.5-0.3-0.7
		c-0.1-0.2-0.3-0.3-0.5-0.4c-0.2-0.1-0.5-0.1-0.8-0.1c-0.1,0-0.3,0-0.4,0c-0.1,0-0.3,0-0.4,0c-0.1,0-0.2,0-0.3,0s-0.2,0-0.2,0v5.7
		h-1.2V327.4z"/>
	<path fill="#515151" d="M74.4,326c-0.2,0-0.4-0.1-0.6-0.2c-0.2-0.1-0.2-0.3-0.2-0.6c0-0.2,0.1-0.4,0.2-0.6c0.2-0.1,0.3-0.2,0.6-0.2
		c0.2,0,0.4,0.1,0.6,0.2c0.2,0.1,0.2,0.3,0.2,0.6c0,0.2-0.1,0.4-0.2,0.6C74.8,325.9,74.6,326,74.4,326z M75,333.9h-1.2v-6.8H75
		V333.9z"/>
	<path fill="#515151" d="M77.1,327.4c0.3-0.1,0.6-0.1,1.1-0.2c0.5-0.1,1-0.1,1.6-0.1c0.4,0,0.8,0.1,1.1,0.2c0.3,0.1,0.5,0.3,0.7,0.5
		c0.1,0,0.2-0.1,0.3-0.2c0.1-0.1,0.3-0.2,0.5-0.2c0.2-0.1,0.4-0.1,0.6-0.2s0.5-0.1,0.8-0.1c0.5,0,0.9,0.1,1.3,0.2
		c0.3,0.2,0.6,0.4,0.8,0.6s0.3,0.6,0.4,1c0.1,0.4,0.1,0.8,0.1,1.2v3.8h-1.2v-3.5c0-0.4,0-0.7-0.1-1c0-0.3-0.1-0.5-0.2-0.7
		c-0.1-0.2-0.3-0.3-0.4-0.4c-0.2-0.1-0.4-0.1-0.7-0.1c-0.4,0-0.7,0.1-1,0.2c-0.3,0.1-0.4,0.2-0.5,0.3c0.1,0.2,0.1,0.5,0.2,0.7
		s0.1,0.5,0.1,0.8v3.8h-1.2v-3.5c0-0.4,0-0.7-0.1-1c0-0.3-0.1-0.5-0.2-0.7c-0.1-0.2-0.3-0.3-0.4-0.4s-0.4-0.1-0.7-0.1
		c-0.1,0-0.3,0-0.4,0c-0.1,0-0.3,0-0.4,0c-0.1,0-0.2,0-0.3,0s-0.2,0-0.2,0v5.7h-1.2V327.4z"/>
	<path fill="#515151" d="M90.5,327c0.5,0,0.9,0.1,1.2,0.2c0.3,0.1,0.6,0.3,0.8,0.5c0.2,0.2,0.3,0.5,0.4,0.8c0.1,0.3,0.1,0.7,0.1,1
		v4.2c-0.1,0-0.2,0-0.4,0.1c-0.2,0-0.4,0.1-0.6,0.1c-0.2,0-0.5,0-0.8,0.1s-0.5,0-0.8,0c-0.4,0-0.7,0-1.1-0.1
		c-0.3-0.1-0.6-0.2-0.8-0.4c-0.2-0.2-0.4-0.4-0.5-0.7s-0.2-0.6-0.2-1c0-0.4,0.1-0.7,0.2-1c0.2-0.3,0.4-0.5,0.6-0.7
		c0.3-0.2,0.6-0.3,0.9-0.4s0.7-0.1,1.1-0.1c0.1,0,0.2,0,0.4,0c0.1,0,0.3,0,0.4,0.1c0.1,0,0.2,0,0.3,0.1c0.1,0,0.1,0,0.2,0v-0.3
		c0-0.2,0-0.4-0.1-0.6c0-0.2-0.1-0.4-0.2-0.5c-0.1-0.2-0.3-0.3-0.5-0.4c-0.2-0.1-0.4-0.1-0.8-0.1c-0.4,0-0.7,0-1,0.1
		c-0.3,0.1-0.5,0.1-0.7,0.2l-0.1-1c0.2-0.1,0.4-0.1,0.8-0.2C89.6,327.1,90,327,90.5,327z M90.6,333.1c0.3,0,0.5,0,0.8,0
		c0.2,0,0.4,0,0.6-0.1v-2c-0.1,0-0.2-0.1-0.4-0.1c-0.2,0-0.4,0-0.7,0c-0.2,0-0.4,0-0.6,0c-0.2,0-0.4,0.1-0.6,0.2
		c-0.2,0.1-0.3,0.2-0.4,0.3c-0.1,0.1-0.2,0.3-0.2,0.6c0,0.4,0.1,0.7,0.4,0.9C89.7,333,90.1,333.1,90.6,333.1z"/>
	<path fill="#515151" d="M99.3,333.3c-0.1,0.1-0.3,0.2-0.6,0.3s-0.6,0.2-1,0.2c-0.4,0-0.8-0.1-1.2-0.2c-0.4-0.1-0.7-0.3-0.9-0.6
		c-0.3-0.3-0.5-0.6-0.6-1c-0.2-0.4-0.2-0.9-0.2-1.5c0-0.5,0.1-0.9,0.2-1.4c0.1-0.4,0.4-0.8,0.6-1.1s0.6-0.5,1-0.7
		c0.4-0.2,0.9-0.3,1.4-0.3c0.6,0,1.1,0,1.5,0.1c0.4,0.1,0.8,0.2,1.1,0.2v6c0,1-0.3,1.8-0.8,2.3s-1.4,0.7-2.4,0.7
		c-0.4,0-0.8,0-1.2-0.1s-0.7-0.2-1-0.2l0.2-1.1c0.2,0.1,0.5,0.2,0.9,0.3c0.4,0.1,0.7,0.1,1.1,0.1c0.7,0,1.2-0.1,1.6-0.4
		c0.3-0.3,0.5-0.7,0.5-1.4V333.3z M99.3,328.3c-0.1,0-0.3-0.1-0.5-0.1c-0.2,0-0.5,0-0.8,0c-0.7,0-1.2,0.2-1.5,0.6s-0.5,1-0.5,1.7
		c0,0.4,0.1,0.7,0.2,1s0.2,0.5,0.4,0.7c0.2,0.2,0.4,0.3,0.6,0.4s0.4,0.1,0.7,0.1c0.3,0,0.6,0,0.9-0.1c0.3-0.1,0.5-0.2,0.6-0.3V328.3
		z"/>
	<path fill="#515151" d="M102.2,330.6c0-0.6,0.1-1.1,0.3-1.6c0.2-0.4,0.4-0.8,0.7-1.1s0.6-0.5,1-0.7c0.4-0.1,0.8-0.2,1.1-0.2
		c0.9,0,1.6,0.3,2.1,0.9c0.5,0.6,0.7,1.4,0.7,2.6c0,0.1,0,0.1,0,0.2c0,0.1,0,0.2,0,0.2h-4.6c0.1,0.7,0.3,1.2,0.6,1.6
		s0.9,0.5,1.7,0.5c0.4,0,0.8,0,1.1-0.1c0.3-0.1,0.5-0.1,0.7-0.2l0.2,1c-0.1,0.1-0.4,0.2-0.8,0.2c-0.4,0.1-0.8,0.1-1.3,0.1
		c-0.6,0-1.1-0.1-1.5-0.3c-0.4-0.2-0.8-0.4-1.1-0.7c-0.3-0.3-0.5-0.7-0.6-1.1C102.3,331.6,102.2,331.1,102.2,330.6z M106.8,329.9
		c0-0.5-0.1-1-0.4-1.3c-0.3-0.4-0.7-0.5-1.2-0.5c-0.3,0-0.5,0.1-0.7,0.2c-0.2,0.1-0.4,0.2-0.5,0.4c-0.1,0.2-0.3,0.4-0.3,0.6
		s-0.1,0.5-0.2,0.7H106.8z"/>
	<path fill="#515151" d="M115.8,334.1c-0.5,0-1-0.1-1.4-0.3c-0.4-0.2-0.8-0.4-1-0.7c-0.3-0.3-0.5-0.7-0.6-1.1s-0.2-0.9-0.2-1.4
		c0-0.5,0.1-1,0.2-1.4c0.2-0.4,0.4-0.8,0.6-1.1c0.3-0.3,0.6-0.6,1-0.7c0.4-0.2,0.9-0.3,1.3-0.3c0.3,0,0.6,0,0.9,0.1
		c0.3,0.1,0.6,0.1,0.9,0.2l-0.3,1c-0.2-0.1-0.4-0.2-0.6-0.2s-0.5-0.1-0.8-0.1c-0.7,0-1.2,0.2-1.6,0.6c-0.4,0.4-0.5,1-0.5,1.9
		c0,0.4,0,0.7,0.1,1c0.1,0.3,0.2,0.6,0.4,0.8s0.4,0.4,0.7,0.5c0.3,0.1,0.6,0.2,1,0.2c0.3,0,0.6,0,0.9-0.1s0.5-0.1,0.6-0.2l0.2,1
		c-0.1,0-0.2,0.1-0.3,0.1s-0.3,0.1-0.4,0.1c-0.2,0-0.3,0.1-0.5,0.1C116.1,334.1,116,334.1,115.8,334.1z"/>
	<path fill="#515151" d="M124.7,330.6c0,0.5-0.1,1-0.2,1.5c-0.2,0.4-0.4,0.8-0.7,1.1c-0.3,0.3-0.6,0.6-1,0.7
		c-0.4,0.2-0.8,0.3-1.3,0.3s-0.9-0.1-1.3-0.3c-0.4-0.2-0.7-0.4-1-0.7c-0.3-0.3-0.5-0.7-0.7-1.1c-0.2-0.4-0.2-0.9-0.2-1.5
		c0-0.5,0.1-1,0.2-1.4c0.2-0.4,0.4-0.8,0.7-1.1c0.3-0.3,0.6-0.6,1-0.7c0.4-0.2,0.8-0.3,1.3-0.3s0.9,0.1,1.3,0.3
		c0.4,0.2,0.7,0.4,1,0.7c0.3,0.3,0.5,0.7,0.7,1.1C124.6,329.6,124.7,330,124.7,330.6z M123.4,330.6c0-0.8-0.2-1.4-0.5-1.8
		s-0.8-0.7-1.4-0.7c-0.6,0-1.1,0.2-1.4,0.7c-0.3,0.4-0.5,1.1-0.5,1.8s0.2,1.4,0.5,1.8c0.3,0.4,0.8,0.7,1.4,0.7
		c0.6,0,1.1-0.2,1.4-0.7S123.4,331.3,123.4,330.6z"/>
	<path fill="#515151" d="M126.4,327.4c0.3-0.1,0.6-0.1,1.1-0.2c0.5-0.1,1-0.1,1.6-0.1c0.5,0,1,0.1,1.3,0.2c0.4,0.2,0.6,0.4,0.9,0.6
		c0.2,0.3,0.4,0.6,0.4,1c0.1,0.4,0.1,0.8,0.1,1.3v3.8h-1.2v-3.5c0-0.4,0-0.8-0.1-1.1c-0.1-0.3-0.1-0.5-0.3-0.7
		c-0.1-0.2-0.3-0.3-0.5-0.4c-0.2-0.1-0.5-0.1-0.8-0.1c-0.1,0-0.3,0-0.4,0s-0.3,0-0.4,0c-0.1,0-0.2,0-0.3,0c-0.1,0-0.2,0-0.2,0v5.7
		h-1.2V327.4z"/>
	<path fill="#515151" d="M135,327.2h2.6v1H135v3.1c0,0.3,0,0.6,0.1,0.8c0.1,0.2,0.1,0.4,0.2,0.5c0.1,0.1,0.2,0.2,0.4,0.3
		s0.3,0.1,0.5,0.1c0.4,0,0.7,0,0.9-0.1c0.2-0.1,0.4-0.1,0.5-0.2l0.2,1c-0.1,0.1-0.3,0.1-0.6,0.2c-0.3,0.1-0.7,0.1-1,0.1
		c-0.5,0-0.8-0.1-1.1-0.2s-0.5-0.3-0.7-0.5c-0.2-0.2-0.3-0.5-0.4-0.9c-0.1-0.3-0.1-0.7-0.1-1.2v-6l1.2-0.2V327.2z"/>
	<path fill="#515151" d="M138.6,330.6c0-0.6,0.1-1.1,0.3-1.6c0.2-0.4,0.4-0.8,0.7-1.1s0.6-0.5,1-0.7c0.4-0.1,0.8-0.2,1.1-0.2
		c0.9,0,1.6,0.3,2.1,0.9c0.5,0.6,0.7,1.4,0.7,2.6c0,0.1,0,0.1,0,0.2c0,0.1,0,0.2,0,0.2h-4.6c0.1,0.7,0.3,1.2,0.6,1.6
		s0.9,0.5,1.7,0.5c0.4,0,0.8,0,1.1-0.1c0.3-0.1,0.5-0.1,0.7-0.2l0.2,1c-0.1,0.1-0.4,0.2-0.8,0.2c-0.4,0.1-0.8,0.1-1.3,0.1
		c-0.6,0-1.1-0.1-1.5-0.3c-0.4-0.2-0.8-0.4-1.1-0.7c-0.3-0.3-0.5-0.7-0.6-1.1C138.6,331.6,138.6,331.1,138.6,330.6z M143.2,329.9
		c0-0.5-0.1-1-0.4-1.3c-0.3-0.4-0.7-0.5-1.2-0.5c-0.3,0-0.5,0.1-0.7,0.2c-0.2,0.1-0.4,0.2-0.5,0.4c-0.1,0.2-0.3,0.4-0.3,0.6
		s-0.1,0.5-0.2,0.7H143.2z"/>
	<path fill="#515151" d="M146.2,327.4c0.3-0.1,0.6-0.1,1.1-0.2c0.5-0.1,1-0.1,1.6-0.1c0.5,0,1,0.1,1.3,0.2c0.4,0.2,0.6,0.4,0.9,0.6
		c0.2,0.3,0.4,0.6,0.4,1c0.1,0.4,0.1,0.8,0.1,1.3v3.8h-1.2v-3.5c0-0.4,0-0.8-0.1-1.1c-0.1-0.3-0.1-0.5-0.3-0.7
		c-0.1-0.2-0.3-0.3-0.5-0.4c-0.2-0.1-0.5-0.1-0.8-0.1c-0.1,0-0.3,0-0.4,0s-0.3,0-0.4,0c-0.1,0-0.2,0-0.3,0c-0.1,0-0.2,0-0.2,0v5.7
		h-1.2V327.4z"/>
	<path fill="#515151" d="M154.8,327.2h2.6v1h-2.6v3.1c0,0.3,0,0.6,0.1,0.8c0.1,0.2,0.1,0.4,0.2,0.5c0.1,0.1,0.2,0.2,0.4,0.3
		s0.3,0.1,0.5,0.1c0.4,0,0.7,0,0.9-0.1c0.2-0.1,0.4-0.1,0.5-0.2l0.2,1c-0.1,0.1-0.3,0.1-0.6,0.2c-0.3,0.1-0.7,0.1-1,0.1
		c-0.5,0-0.8-0.1-1.1-0.2s-0.5-0.3-0.7-0.5c-0.2-0.2-0.3-0.5-0.4-0.9c-0.1-0.3-0.1-0.7-0.1-1.2v-6l1.2-0.2V327.2z"/>
</g>
<g>
	<path fill="#717877" d="M413.9,10.8c0.4-0.6,0.7-1.2,1.1-1.9c0.4-0.6,0.7-1.3,1-1.9h1.7c-0.5,0.9-0.9,1.7-1.4,2.6
		c-0.5,0.9-1,1.7-1.6,2.6v3.3h-1.5v-3.3c-0.6-0.9-1.1-1.7-1.6-2.6s-1-1.7-1.4-2.6h1.8c0.3,0.6,0.6,1.3,0.9,1.9
		C413.2,9.5,413.5,10.2,413.9,10.8z"/>
	<path fill="#717877" d="M423.8,12.3c0,0.5-0.1,1-0.2,1.4c-0.1,0.4-0.4,0.8-0.6,1.1c-0.3,0.3-0.6,0.5-1,0.7
		c-0.4,0.2-0.8,0.2-1.3,0.2c-0.5,0-0.9-0.1-1.3-0.2c-0.4-0.2-0.7-0.4-1-0.7c-0.3-0.3-0.5-0.6-0.6-1.1c-0.2-0.4-0.2-0.9-0.2-1.4
		s0.1-1,0.2-1.4c0.2-0.4,0.4-0.8,0.6-1.1c0.3-0.3,0.6-0.5,1-0.7c0.4-0.2,0.8-0.2,1.2-0.2s0.9,0.1,1.2,0.2c0.4,0.2,0.7,0.4,1,0.7
		c0.3,0.3,0.5,0.6,0.6,1.1S423.8,11.8,423.8,12.3z M422.3,12.3c0-0.6-0.1-1.1-0.4-1.5c-0.3-0.4-0.7-0.6-1.1-0.6s-0.9,0.2-1.1,0.6
		c-0.3,0.4-0.4,0.9-0.4,1.5c0,0.6,0.1,1.2,0.4,1.5c0.3,0.4,0.7,0.6,1.1,0.6s0.9-0.2,1.1-0.6C422.2,13.4,422.3,12.9,422.3,12.3z"/>
	<path fill="#717877" d="M430.6,15.3c-0.3,0.1-0.7,0.1-1.1,0.2c-0.5,0.1-1,0.1-1.5,0.1c-0.5,0-0.9-0.1-1.3-0.2
		c-0.3-0.1-0.6-0.4-0.8-0.6c-0.2-0.3-0.4-0.6-0.4-0.9s-0.1-0.8-0.1-1.2V9.1h1.5v3.4c0,0.7,0.1,1.2,0.3,1.5c0.2,0.3,0.5,0.4,1,0.4
		c0.2,0,0.4,0,0.6,0c0.2,0,0.3,0,0.4-0.1V9.1h1.5V15.3z"/>
	<path fill="#717877" d="M436.2,10.4c-0.1,0-0.3-0.1-0.5-0.1s-0.5-0.1-0.8-0.1c-0.2,0-0.3,0-0.5,0c-0.2,0-0.3,0.1-0.4,0.1v5.1h-1.5
		V9.4c0.3-0.1,0.6-0.2,1.1-0.3C434,9,434.5,9,435,9c0.1,0,0.2,0,0.3,0c0.1,0,0.3,0,0.4,0s0.3,0,0.4,0.1c0.1,0,0.2,0.1,0.3,0.1
		L436.2,10.4z"/>
	<path fill="#717877" d="M444.1,11.5c-0.2,0.7-0.4,1.4-0.6,2.1c-0.2,0.7-0.4,1.3-0.6,1.9h-1.2c-0.2-0.4-0.3-0.8-0.5-1.3
		c-0.2-0.5-0.4-1-0.5-1.5c-0.2-0.5-0.4-1.1-0.5-1.7c-0.2-0.6-0.4-1.2-0.5-1.9h1.6c0.1,0.3,0.2,0.7,0.3,1.1c0.1,0.4,0.2,0.8,0.3,1.2
		s0.2,0.8,0.3,1.2c0.1,0.4,0.2,0.8,0.3,1.1c0.1-0.4,0.2-0.8,0.4-1.2s0.2-0.8,0.3-1.2s0.2-0.8,0.3-1.2c0.1-0.4,0.2-0.7,0.3-1.1h1.1
		c0.1,0.3,0.2,0.7,0.2,1.1c0.1,0.4,0.2,0.8,0.3,1.2s0.2,0.8,0.3,1.2s0.2,0.8,0.4,1.2c0.1-0.3,0.2-0.7,0.3-1.1
		c0.1-0.4,0.2-0.8,0.3-1.2s0.2-0.8,0.3-1.2c0.1-0.4,0.2-0.8,0.3-1.1h1.5c-0.2,0.6-0.3,1.2-0.5,1.9c-0.2,0.6-0.4,1.2-0.5,1.7
		c-0.2,0.5-0.4,1.1-0.5,1.5c-0.2,0.5-0.4,0.9-0.5,1.3h-1.2c-0.2-0.6-0.4-1.2-0.7-1.9C444.5,12.9,444.3,12.2,444.1,11.5z"/>
	<path fill="#717877" d="M449.5,12.3c0-0.6,0.1-1.1,0.3-1.5c0.2-0.4,0.4-0.8,0.7-1.1c0.3-0.3,0.6-0.5,1-0.6s0.7-0.2,1.1-0.2
		c0.9,0,1.6,0.3,2.1,0.8c0.5,0.5,0.7,1.4,0.7,2.5c0,0.1,0,0.2,0,0.3c0,0.1,0,0.2,0,0.3H451c0,0.5,0.2,0.9,0.5,1.2
		c0.3,0.3,0.8,0.4,1.4,0.4c0.4,0,0.7,0,1-0.1c0.3-0.1,0.5-0.1,0.7-0.2l0.2,1.2c-0.1,0-0.2,0.1-0.3,0.1c-0.1,0-0.3,0.1-0.5,0.1
		c-0.2,0-0.4,0.1-0.6,0.1s-0.4,0-0.6,0c-0.6,0-1.1-0.1-1.5-0.3c-0.4-0.2-0.8-0.4-1-0.7s-0.5-0.6-0.6-1.1S449.5,12.8,449.5,12.3z
		 M453.8,11.7c0-0.2,0-0.4-0.1-0.6c-0.1-0.2-0.1-0.3-0.3-0.5s-0.2-0.2-0.4-0.3s-0.3-0.1-0.6-0.1c-0.2,0-0.4,0-0.6,0.1
		c-0.2,0.1-0.3,0.2-0.4,0.3c-0.1,0.1-0.2,0.3-0.3,0.5s-0.1,0.4-0.1,0.6H453.8z"/>
	<path fill="#717877" d="M462.6,12.3c0,0.5-0.1,1-0.2,1.4c-0.2,0.4-0.4,0.8-0.6,1.1c-0.3,0.3-0.6,0.5-1,0.7
		c-0.4,0.2-0.9,0.2-1.4,0.2c-0.5,0-1,0-1.4-0.1c-0.4-0.1-0.8-0.2-1.1-0.2V6.2l1.5-0.2v3.3c0.2-0.1,0.4-0.2,0.6-0.2
		c0.2-0.1,0.5-0.1,0.8-0.1c0.4,0,0.9,0.1,1.2,0.2c0.4,0.2,0.7,0.4,0.9,0.7c0.2,0.3,0.4,0.6,0.5,1.1
		C462.6,11.3,462.6,11.8,462.6,12.3z M461.1,12.3c0-0.6-0.1-1.1-0.4-1.5s-0.6-0.6-1.2-0.6c-0.2,0-0.5,0-0.7,0.1
		c-0.2,0.1-0.4,0.2-0.5,0.2v3.7c0.1,0,0.2,0,0.4,0.1c0.2,0,0.4,0,0.6,0c0.5,0,1-0.2,1.3-0.6C461,13.4,461.1,12.9,461.1,12.3z"/>
	<path fill="#717877" d="M465.8,14.4c0.4,0,0.7,0,0.9-0.1c0.2-0.1,0.3-0.3,0.3-0.5c0-0.2-0.1-0.4-0.3-0.5c-0.2-0.1-0.5-0.3-1-0.5
		c-0.3-0.1-0.5-0.2-0.7-0.3s-0.4-0.2-0.6-0.4c-0.2-0.1-0.3-0.3-0.4-0.5c-0.1-0.2-0.1-0.5-0.1-0.8c0-0.6,0.2-1.1,0.7-1.4
		c0.4-0.3,1-0.5,1.8-0.5c0.4,0,0.7,0,1.1,0.1c0.3,0.1,0.6,0.1,0.8,0.2l-0.3,1.2c-0.2-0.1-0.4-0.1-0.6-0.2c-0.3-0.1-0.5-0.1-0.9-0.1
		c-0.3,0-0.5,0.1-0.7,0.2c-0.2,0.1-0.3,0.3-0.3,0.5c0,0.1,0,0.2,0.1,0.3c0,0.1,0.1,0.2,0.2,0.2s0.2,0.1,0.4,0.2
		c0.1,0.1,0.3,0.1,0.5,0.2c0.4,0.1,0.6,0.3,0.9,0.4c0.2,0.1,0.4,0.3,0.6,0.4c0.2,0.2,0.3,0.3,0.3,0.5c0.1,0.2,0.1,0.4,0.1,0.7
		c0,0.6-0.2,1.1-0.7,1.4c-0.5,0.3-1.1,0.5-1.9,0.5c-0.6,0-1,0-1.4-0.1c-0.3-0.1-0.6-0.2-0.7-0.2l0.3-1.2c0.2,0.1,0.5,0.2,0.8,0.3
		C465,14.4,465.4,14.4,465.8,14.4z"/>
	<path fill="#717877" d="M471.4,7.2c0,0.3-0.1,0.5-0.3,0.7s-0.4,0.2-0.6,0.2c-0.3,0-0.5-0.1-0.6-0.2s-0.3-0.4-0.3-0.7
		c0-0.3,0.1-0.5,0.3-0.7s0.4-0.2,0.6-0.2c0.2,0,0.5,0.1,0.6,0.2S471.4,6.9,471.4,7.2z M471.3,15.5h-1.5V9.1h1.5V15.5z"/>
	<path fill="#717877" d="M473.1,7.4l1.5-0.2v1.9h2.3v1.2h-2.3v2.6c0,0.5,0.1,0.9,0.2,1.1c0.2,0.2,0.4,0.3,0.8,0.3
		c0.3,0,0.5,0,0.7-0.1c0.2-0.1,0.4-0.1,0.5-0.2l0.2,1.2c-0.2,0.1-0.4,0.1-0.7,0.2c-0.3,0.1-0.6,0.1-1,0.1c-0.5,0-0.8-0.1-1.1-0.2
		s-0.5-0.3-0.7-0.5s-0.3-0.5-0.4-0.8c-0.1-0.3-0.1-0.7-0.1-1.1V7.4z"/>
	<path fill="#717877" d="M477.8,12.3c0-0.6,0.1-1.1,0.3-1.5c0.2-0.4,0.4-0.8,0.7-1.1c0.3-0.3,0.6-0.5,1-0.6s0.7-0.2,1.1-0.2
		c0.9,0,1.6,0.3,2.1,0.8c0.5,0.5,0.7,1.4,0.7,2.5c0,0.1,0,0.2,0,0.3c0,0.1,0,0.2,0,0.3h-4.2c0,0.5,0.2,0.9,0.5,1.2
		c0.3,0.3,0.8,0.4,1.4,0.4c0.4,0,0.7,0,1-0.1c0.3-0.1,0.5-0.1,0.7-0.2l0.2,1.2c-0.1,0-0.2,0.1-0.3,0.1c-0.1,0-0.3,0.1-0.5,0.1
		c-0.2,0-0.4,0.1-0.6,0.1s-0.4,0-0.6,0c-0.6,0-1.1-0.1-1.5-0.3c-0.4-0.2-0.8-0.4-1-0.7s-0.5-0.6-0.6-1.1S477.8,12.8,477.8,12.3z
		 M482.1,11.7c0-0.2,0-0.4-0.1-0.6c-0.1-0.2-0.1-0.3-0.3-0.5s-0.2-0.2-0.4-0.3s-0.3-0.1-0.6-0.1c-0.2,0-0.4,0-0.6,0.1
		c-0.2,0.1-0.3,0.2-0.4,0.3c-0.1,0.1-0.2,0.3-0.3,0.5s-0.1,0.4-0.1,0.6H482.1z"/>
</g>
<g>
	<path fill="#717877" d="M475.2,63.8c-0.6,0-1.2-0.1-1.7-0.3c-0.5-0.2-0.9-0.5-1.3-0.9c-0.4-0.4-0.6-0.8-0.8-1.4
		c-0.2-0.5-0.3-1.2-0.3-1.9s0.1-1.3,0.3-1.9c0.2-0.5,0.5-1,0.9-1.4s0.8-0.7,1.3-0.9c0.5-0.2,1-0.3,1.6-0.3c0.4,0,0.7,0,1,0.1
		s0.5,0.1,0.7,0.2c0.2,0.1,0.4,0.1,0.5,0.2c0.1,0.1,0.2,0.1,0.3,0.2l-0.5,1.3c-0.2-0.1-0.5-0.2-0.8-0.3c-0.4-0.1-0.8-0.2-1.2-0.2
		c-0.4,0-0.7,0.1-1,0.2c-0.3,0.1-0.6,0.3-0.8,0.6c-0.2,0.3-0.4,0.6-0.5,1s-0.2,0.8-0.2,1.3c0,0.4,0.1,0.9,0.2,1.2
		c0.1,0.4,0.3,0.7,0.5,1c0.2,0.3,0.5,0.5,0.8,0.6c0.3,0.2,0.7,0.2,1.2,0.2c0.5,0,1-0.1,1.3-0.2c0.3-0.1,0.6-0.2,0.8-0.3l0.4,1.3
		c-0.1,0.1-0.2,0.1-0.4,0.2c-0.2,0.1-0.4,0.1-0.6,0.2c-0.2,0.1-0.5,0.1-0.8,0.1C475.8,63.8,475.5,63.8,475.2,63.8z"/>
	<path fill="#717877" d="M481.3,57.1c0.5,0,0.9,0.1,1.2,0.2s0.6,0.3,0.8,0.5c0.2,0.2,0.3,0.5,0.4,0.8c0.1,0.3,0.1,0.7,0.1,1v3.9
		c-0.2,0-0.6,0.1-1,0.2c-0.5,0.1-1,0.1-1.6,0.1c-0.4,0-0.7,0-1.1-0.1c-0.3-0.1-0.6-0.2-0.8-0.4c-0.2-0.2-0.4-0.4-0.5-0.6
		c-0.1-0.3-0.2-0.6-0.2-1c0-0.4,0.1-0.7,0.2-0.9c0.1-0.3,0.3-0.5,0.6-0.6s0.5-0.3,0.9-0.3c0.3-0.1,0.7-0.1,1-0.1c0.2,0,0.3,0,0.5,0
		s0.4,0.1,0.6,0.1v-0.2c0-0.2,0-0.3-0.1-0.5s-0.1-0.3-0.2-0.4c-0.1-0.1-0.2-0.2-0.4-0.3c-0.2-0.1-0.4-0.1-0.6-0.1
		c-0.3,0-0.7,0-0.9,0.1c-0.3,0-0.5,0.1-0.7,0.2l-0.2-1.2c0.2-0.1,0.5-0.1,0.8-0.2C480.5,57.1,480.9,57.1,481.3,57.1z M481.4,62.6
		c0.5,0,0.8,0,1-0.1v-1.6c-0.1,0-0.2,0-0.4-0.1s-0.3,0-0.5,0c-0.2,0-0.3,0-0.5,0c-0.2,0-0.3,0.1-0.5,0.1c-0.1,0.1-0.2,0.2-0.3,0.3
		c-0.1,0.1-0.1,0.3-0.1,0.4c0,0.4,0.1,0.6,0.3,0.7S481,62.6,481.4,62.6z"/>
	<path fill="#717877" d="M485.7,57.4c0.3-0.1,0.7-0.2,1.1-0.2c0.5-0.1,1-0.1,1.5-0.1c0.5,0,1,0.1,1.3,0.2c0.4,0.1,0.6,0.3,0.8,0.6
		s0.4,0.6,0.4,0.9c0.1,0.4,0.1,0.8,0.1,1.2v3.6h-1.5v-3.4c0-0.3,0-0.6-0.1-0.9s-0.1-0.4-0.2-0.6c-0.1-0.2-0.2-0.3-0.4-0.3
		s-0.4-0.1-0.6-0.1c-0.2,0-0.4,0-0.6,0c-0.2,0-0.4,0-0.5,0.1v5.2h-1.5V57.4z"/>
	<path fill="#717877" d="M494.4,63.6c-0.4-0.8-0.8-1.8-1.3-2.9s-0.8-2.3-1.2-3.5h1.6c0.1,0.4,0.2,0.7,0.3,1.2
		c0.1,0.4,0.2,0.8,0.4,1.2c0.1,0.4,0.3,0.8,0.4,1.2s0.3,0.7,0.4,1c0.1-0.3,0.3-0.7,0.4-1c0.1-0.4,0.3-0.8,0.4-1.2
		c0.1-0.4,0.3-0.8,0.4-1.2c0.1-0.4,0.2-0.8,0.3-1.2h1.5c-0.4,1.3-0.7,2.4-1.2,3.5s-0.9,2.1-1.3,2.9H494.4z"/>
	<path fill="#717877" d="M501.3,57.1c0.5,0,0.9,0.1,1.2,0.2s0.6,0.3,0.8,0.5c0.2,0.2,0.3,0.5,0.4,0.8c0.1,0.3,0.1,0.7,0.1,1v3.9
		c-0.2,0-0.6,0.1-1,0.2c-0.5,0.1-1,0.1-1.6,0.1c-0.4,0-0.7,0-1.1-0.1c-0.3-0.1-0.6-0.2-0.8-0.4c-0.2-0.2-0.4-0.4-0.5-0.6
		c-0.1-0.3-0.2-0.6-0.2-1c0-0.4,0.1-0.7,0.2-0.9c0.1-0.3,0.3-0.5,0.6-0.6s0.5-0.3,0.9-0.3c0.3-0.1,0.7-0.1,1-0.1c0.2,0,0.3,0,0.5,0
		s0.4,0.1,0.6,0.1v-0.2c0-0.2,0-0.3-0.1-0.5s-0.1-0.3-0.2-0.4c-0.1-0.1-0.2-0.2-0.4-0.3c-0.2-0.1-0.4-0.1-0.6-0.1
		c-0.3,0-0.7,0-0.9,0.1c-0.3,0-0.5,0.1-0.7,0.2l-0.2-1.2c0.2-0.1,0.5-0.1,0.8-0.2C500.5,57.1,500.9,57.1,501.3,57.1z M501.4,62.6
		c0.5,0,0.8,0,1-0.1v-1.6c-0.1,0-0.2,0-0.4-0.1s-0.3,0-0.5,0c-0.2,0-0.3,0-0.5,0c-0.2,0-0.3,0.1-0.5,0.1c-0.1,0.1-0.2,0.2-0.3,0.3
		c-0.1,0.1-0.1,0.3-0.1,0.4c0,0.4,0.1,0.6,0.3,0.7S501,62.6,501.4,62.6z"/>
	<path fill="#717877" d="M507.3,62.6c0.4,0,0.7,0,0.9-0.1c0.2-0.1,0.3-0.3,0.3-0.5c0-0.2-0.1-0.4-0.3-0.5c-0.2-0.1-0.5-0.3-1-0.5
		c-0.3-0.1-0.5-0.2-0.7-0.3s-0.4-0.2-0.6-0.4c-0.2-0.1-0.3-0.3-0.4-0.5c-0.1-0.2-0.1-0.5-0.1-0.8c0-0.6,0.2-1.1,0.7-1.4
		c0.4-0.3,1-0.5,1.8-0.5c0.4,0,0.7,0,1.1,0.1c0.3,0.1,0.6,0.1,0.8,0.2l-0.3,1.2c-0.2-0.1-0.4-0.1-0.6-0.2c-0.3-0.1-0.5-0.1-0.9-0.1
		c-0.3,0-0.5,0.1-0.7,0.2c-0.2,0.1-0.3,0.3-0.3,0.5c0,0.1,0,0.2,0.1,0.3c0,0.1,0.1,0.2,0.2,0.2s0.2,0.1,0.4,0.2
		c0.1,0.1,0.3,0.1,0.5,0.2c0.4,0.1,0.6,0.3,0.9,0.4c0.2,0.1,0.4,0.3,0.6,0.4c0.2,0.2,0.3,0.3,0.3,0.5c0.1,0.2,0.1,0.4,0.1,0.7
		c0,0.6-0.2,1.1-0.7,1.4c-0.5,0.3-1.1,0.5-1.9,0.5c-0.6,0-1,0-1.4-0.1c-0.3-0.1-0.6-0.2-0.7-0.2l0.3-1.2c0.2,0.1,0.5,0.2,0.8,0.3
		C506.6,62.5,506.9,62.6,507.3,62.6z"/>
</g>
<g>
	<path fill="#717877" d="M484.8,269.9c0.9,0,1.6-0.2,2-0.5s0.6-0.7,0.6-1.3c0-0.3-0.1-0.6-0.2-0.9c-0.1-0.2-0.3-0.5-0.6-0.7
		c-0.3-0.2-0.6-0.4-0.9-0.5c-0.4-0.2-0.8-0.3-1.3-0.5c-0.5-0.2-0.9-0.4-1.4-0.6c-0.4-0.2-0.8-0.5-1.2-0.8s-0.6-0.7-0.8-1.1
		c-0.2-0.4-0.3-0.9-0.3-1.5c0-1.3,0.4-2.2,1.3-3c0.9-0.7,2-1.1,3.5-1.1c0.9,0,1.6,0.1,2.3,0.3c0.7,0.2,1.2,0.4,1.6,0.6l-0.8,2
		c-0.5-0.3-1-0.4-1.5-0.6c-0.5-0.1-1.1-0.2-1.7-0.2c-0.7,0-1.2,0.1-1.6,0.4s-0.6,0.7-0.6,1.2c0,0.3,0.1,0.6,0.2,0.8
		c0.1,0.2,0.3,0.4,0.5,0.6c0.2,0.2,0.5,0.3,0.8,0.5c0.3,0.1,0.7,0.3,1,0.4c0.7,0.2,1.2,0.5,1.8,0.7c0.5,0.2,0.9,0.5,1.3,0.9
		c0.4,0.3,0.6,0.7,0.8,1.2s0.3,1,0.3,1.7c0,1.3-0.4,2.2-1.3,2.9c-0.9,0.7-2.2,1-3.9,1c-0.6,0-1.1,0-1.6-0.1
		c-0.5-0.1-0.9-0.2-1.3-0.3c-0.4-0.1-0.7-0.2-1-0.3c-0.3-0.1-0.5-0.2-0.6-0.3l0.7-2.1c0.4,0.2,0.8,0.4,1.5,0.6
		C483.2,269.8,484,269.9,484.8,269.9z"/>
	<path fill="#717877" d="M491.6,266.5c0-0.8,0.1-1.5,0.4-2.2c0.2-0.7,0.6-1.3,1-1.8c0.4-0.5,1-0.9,1.6-1.2c0.6-0.3,1.4-0.4,2.2-0.4
		c1,0,1.9,0.2,2.8,0.5l-0.5,2c-0.3-0.1-0.6-0.2-1-0.3s-0.7-0.1-1.1-0.1c-0.9,0-1.7,0.3-2.2,0.9c-0.5,0.6-0.7,1.4-0.7,2.5
		c0,1,0.2,1.9,0.7,2.5s1.3,0.9,2.4,0.9c0.4,0,0.8,0,1.2-0.1c0.4-0.1,0.7-0.2,1-0.3l0.3,2c-0.3,0.1-0.7,0.3-1.2,0.4
		c-0.5,0.1-1.1,0.2-1.7,0.2c-0.9,0-1.7-0.1-2.3-0.4c-0.7-0.3-1.2-0.7-1.6-1.1c-0.4-0.5-0.8-1.1-1-1.7
		C491.7,268.1,491.6,267.3,491.6,266.5z"/>
	<path fill="#717877" d="M507.5,263.5c-0.2-0.1-0.5-0.1-0.8-0.2s-0.8-0.1-1.2-0.1c-0.3,0-0.6,0-0.9,0.1c-0.3,0.1-0.5,0.1-0.6,0.1
		v8.4h-2.4v-10c0.5-0.2,1-0.3,1.8-0.5s1.5-0.2,2.3-0.2c0.2,0,0.3,0,0.6,0c0.2,0,0.4,0,0.6,0.1c0.2,0,0.4,0.1,0.6,0.1
		c0.2,0,0.4,0.1,0.5,0.1L507.5,263.5z"/>
	<path fill="#717877" d="M512.3,258.2c0,0.5-0.1,0.8-0.4,1.1c-0.3,0.3-0.6,0.4-1,0.4c-0.4,0-0.8-0.1-1.1-0.4
		c-0.3-0.3-0.4-0.6-0.4-1.1c0-0.5,0.1-0.8,0.4-1.1c0.3-0.3,0.6-0.4,1.1-0.4c0.4,0,0.7,0.1,1,0.4S512.3,257.8,512.3,258.2z
		 M512.1,271.8h-2.4v-10.5h2.4V271.8z"/>
	<path fill="#717877" d="M524.6,266.5c0,0.8-0.1,1.5-0.3,2.2c-0.2,0.7-0.5,1.2-0.9,1.7c-0.4,0.5-0.9,0.9-1.5,1.1
		c-0.6,0.3-1.2,0.4-2,0.4c-0.5,0-0.9-0.1-1.4-0.2c-0.4-0.1-0.8-0.3-1-0.4v4.1h-2.4v-13.8c0.5-0.1,1.1-0.3,1.8-0.4
		c0.7-0.1,1.5-0.2,2.3-0.2c0.8,0,1.6,0.1,2.2,0.4c0.7,0.3,1.2,0.6,1.7,1.1s0.8,1,1.1,1.7C524.5,264.9,524.6,265.7,524.6,266.5z
		 M522.1,266.6c0-1.1-0.2-1.9-0.7-2.5c-0.5-0.6-1.3-0.9-2.3-0.9c-0.2,0-0.5,0-0.7,0c-0.2,0-0.5,0.1-0.7,0.1v6
		c0.2,0.1,0.5,0.3,0.8,0.4c0.4,0.1,0.7,0.2,1.1,0.2c0.9,0,1.5-0.3,1.9-0.9C521.9,268.4,522.1,267.6,522.1,266.6z"/>
	<path fill="#717877" d="M527,258.5l2.4-0.4v3.2h3.7v2h-3.7v4.3c0,0.8,0.1,1.4,0.4,1.8c0.3,0.4,0.7,0.5,1.4,0.5c0.4,0,0.8,0,1.2-0.1
		c0.3-0.1,0.6-0.2,0.8-0.3l0.4,1.9c-0.3,0.1-0.6,0.2-1.1,0.4c-0.5,0.1-1,0.2-1.6,0.2c-0.7,0-1.4-0.1-1.9-0.3
		c-0.5-0.2-0.9-0.5-1.2-0.9s-0.5-0.8-0.6-1.4c-0.1-0.5-0.2-1.2-0.2-1.9V258.5z"/>
	<path fill="#717877" d="M538.1,270c0.6,0,1.1-0.1,1.4-0.2c0.3-0.2,0.4-0.4,0.4-0.8c0-0.3-0.2-0.6-0.5-0.9c-0.3-0.2-0.8-0.5-1.5-0.7
		c-0.4-0.2-0.8-0.3-1.2-0.5c-0.4-0.2-0.7-0.4-0.9-0.6c-0.3-0.2-0.5-0.5-0.6-0.9c-0.2-0.3-0.2-0.8-0.2-1.3c0-1,0.4-1.7,1.1-2.3
		c0.7-0.6,1.7-0.8,2.9-0.8c0.6,0,1.2,0.1,1.8,0.2c0.6,0.1,1,0.2,1.3,0.3l-0.4,2c-0.3-0.1-0.6-0.2-1-0.3c-0.4-0.1-0.9-0.2-1.4-0.2
		c-0.5,0-0.9,0.1-1.2,0.3c-0.3,0.2-0.5,0.4-0.5,0.8c0,0.2,0,0.3,0.1,0.5c0.1,0.1,0.2,0.3,0.3,0.4s0.3,0.2,0.6,0.3s0.5,0.2,0.9,0.3
		c0.6,0.2,1.1,0.4,1.5,0.6c0.4,0.2,0.7,0.4,1,0.7s0.5,0.6,0.6,0.9c0.1,0.3,0.2,0.7,0.2,1.2c0,1-0.4,1.8-1.1,2.3
		c-0.7,0.5-1.8,0.8-3.2,0.8c-0.9,0-1.7-0.1-2.2-0.2c-0.6-0.2-1-0.3-1.2-0.4l0.4-2c0.4,0.1,0.8,0.3,1.3,0.4
		C536.9,270,537.4,270,538.1,270z"/>
</g>
<g>
	<path fill="#717877" d="M477.8,549.7c-0.7,0-1.5,0-2.2-0.1c-0.7,0-1.4-0.1-2-0.3v-13.5c0.3-0.1,0.6-0.1,0.9-0.1
		c0.3,0,0.7-0.1,1-0.1s0.7,0,1-0.1c0.3,0,0.7,0,1,0c0.8,0,1.6,0.1,2.3,0.2c0.7,0.1,1.3,0.3,1.9,0.6c0.5,0.3,0.9,0.7,1.2,1.2
		c0.3,0.5,0.4,1.1,0.4,1.8c0,0.7-0.2,1.2-0.5,1.7c-0.3,0.5-0.8,0.8-1.3,1.1c0.8,0.3,1.5,0.7,1.9,1.2c0.4,0.5,0.6,1.2,0.6,2.1
		c0,1.4-0.5,2.5-1.6,3.2C481.6,549.4,480,549.7,477.8,549.7z M476.1,541.3h1.8c1,0,1.7-0.1,2.3-0.4s0.8-0.8,0.8-1.5
		c0-0.7-0.3-1.1-0.8-1.4c-0.6-0.3-1.3-0.4-2.2-0.4c-0.4,0-0.7,0-1,0s-0.6,0-0.8,0.1V541.3z M476.1,543.3v4.2c0.3,0,0.6,0,0.9,0.1
		c0.3,0,0.6,0,0.9,0c0.5,0,1,0,1.5-0.1c0.4-0.1,0.8-0.2,1.2-0.3c0.3-0.2,0.6-0.4,0.8-0.7c0.2-0.3,0.3-0.6,0.3-1.1
		c0-0.8-0.3-1.3-0.9-1.6c-0.6-0.3-1.4-0.5-2.4-0.5H476.1z"/>
	<path fill="#717877" d="M490.2,538.8c0.8,0,1.5,0.1,2,0.3s1,0.5,1.3,0.8c0.3,0.4,0.6,0.8,0.7,1.3c0.1,0.5,0.2,1.1,0.2,1.7v6.3
		c-0.4,0.1-0.9,0.2-1.7,0.3c-0.8,0.1-1.6,0.2-2.6,0.2c-0.6,0-1.2-0.1-1.7-0.2c-0.5-0.1-1-0.3-1.3-0.6c-0.4-0.3-0.7-0.6-0.9-1
		c-0.2-0.4-0.3-1-0.3-1.6c0-0.6,0.1-1.1,0.4-1.5c0.2-0.4,0.5-0.8,0.9-1c0.4-0.3,0.9-0.4,1.4-0.6c0.5-0.1,1.1-0.2,1.6-0.2
		c0.3,0,0.5,0,0.8,0c0.3,0,0.6,0.1,0.9,0.2v-0.4c0-0.3,0-0.5-0.1-0.8c-0.1-0.3-0.2-0.5-0.4-0.7c-0.2-0.2-0.4-0.3-0.7-0.4
		c-0.3-0.1-0.6-0.2-1-0.2c-0.6,0-1.1,0-1.5,0.1c-0.5,0.1-0.8,0.2-1.1,0.3l-0.3-2c0.3-0.1,0.8-0.2,1.3-0.3
		C488.9,538.9,489.5,538.8,490.2,538.8z M490.4,547.8c0.7,0,1.3,0,1.7-0.1V545c-0.1,0-0.3-0.1-0.6-0.1s-0.5-0.1-0.8-0.1
		c-0.3,0-0.5,0-0.8,0.1c-0.3,0-0.5,0.1-0.7,0.2c-0.2,0.1-0.4,0.3-0.5,0.5c-0.1,0.2-0.2,0.4-0.2,0.7c0,0.6,0.2,1,0.5,1.2
		C489.3,547.7,489.7,547.8,490.4,547.8z"/>
	<path fill="#717877" d="M496.8,544.3c0-0.8,0.1-1.5,0.4-2.2c0.2-0.7,0.6-1.3,1-1.8c0.4-0.5,1-0.9,1.6-1.2c0.6-0.3,1.4-0.4,2.2-0.4
		c1,0,1.9,0.2,2.8,0.5l-0.5,2c-0.3-0.1-0.6-0.2-1-0.3s-0.7-0.1-1.1-0.1c-0.9,0-1.7,0.3-2.2,0.9c-0.5,0.6-0.7,1.4-0.7,2.5
		c0,1,0.2,1.9,0.7,2.5s1.3,0.9,2.4,0.9c0.4,0,0.8,0,1.2-0.1c0.4-0.1,0.7-0.2,1-0.3l0.3,2c-0.3,0.1-0.7,0.3-1.2,0.4
		c-0.5,0.1-1.1,0.2-1.7,0.2c-0.9,0-1.7-0.1-2.3-0.4c-0.7-0.3-1.2-0.7-1.6-1.1c-0.4-0.5-0.8-1.1-1-1.7
		C496.9,545.8,496.8,545.1,496.8,544.3z"/>
	<path fill="#717877" d="M509.2,543.2c0.3-0.3,0.6-0.7,1-1c0.3-0.4,0.7-0.7,1-1.1c0.3-0.4,0.7-0.7,1-1.1s0.6-0.6,0.8-0.9h2.9
		c-0.7,0.7-1.4,1.5-2.1,2.3c-0.7,0.8-1.5,1.6-2.2,2.3c0.4,0.3,0.8,0.7,1.3,1.2c0.4,0.5,0.9,1,1.3,1.5c0.4,0.5,0.8,1.1,1.2,1.6
		c0.4,0.5,0.7,1,0.9,1.5h-2.8c-0.2-0.4-0.5-0.8-0.8-1.3s-0.7-0.9-1-1.3c-0.4-0.4-0.7-0.8-1.1-1.2c-0.4-0.4-0.7-0.7-1.1-1v4.8h-2.4
		v-15.1l2.4-0.4V543.2z"/>
	<path fill="#717877" d="M516.8,544.4c0-0.9,0.1-1.7,0.4-2.4s0.6-1.3,1.1-1.7s1-0.8,1.6-1c0.6-0.2,1.2-0.3,1.8-0.3
		c1.4,0,2.6,0.4,3.4,1.3c0.8,0.9,1.2,2.2,1.2,4c0,0.1,0,0.3,0,0.5s0,0.3,0,0.4h-6.9c0.1,0.8,0.4,1.5,0.9,2c0.5,0.5,1.3,0.7,2.3,0.7
		c0.6,0,1.1-0.1,1.6-0.2c0.5-0.1,0.9-0.2,1.2-0.3l0.3,2c-0.1,0.1-0.3,0.1-0.5,0.2c-0.2,0.1-0.5,0.1-0.8,0.2c-0.3,0.1-0.6,0.1-1,0.2
		c-0.3,0-0.7,0.1-1.1,0.1c-0.9,0-1.7-0.1-2.4-0.4c-0.7-0.3-1.2-0.7-1.7-1.1c-0.4-0.5-0.8-1.1-1-1.7
		C516.9,545.9,516.8,545.2,516.8,544.4z M523.8,543.3c0-0.3,0-0.7-0.1-1s-0.2-0.6-0.4-0.8c-0.2-0.2-0.4-0.4-0.7-0.5
		c-0.3-0.1-0.6-0.2-0.9-0.2c-0.4,0-0.7,0.1-1,0.2c-0.3,0.1-0.5,0.3-0.7,0.5c-0.2,0.2-0.3,0.5-0.5,0.8c-0.1,0.3-0.2,0.6-0.2,0.9
		H523.8z"/>
	<path fill="#717877" d="M528.8,539.4c0.5-0.1,1.1-0.3,1.8-0.4c0.7-0.1,1.6-0.2,2.5-0.2c0.9,0,1.6,0.1,2.1,0.3c0.6,0.2,1,0.6,1.4,1
		c0.3,0.4,0.6,0.9,0.7,1.5c0.1,0.6,0.2,1.2,0.2,2v5.9h-2.4V544c0-0.6,0-1-0.1-1.4s-0.2-0.7-0.4-1c-0.2-0.2-0.4-0.4-0.7-0.5
		c-0.3-0.1-0.6-0.2-1-0.2c-0.3,0-0.6,0-1,0.1c-0.3,0-0.6,0.1-0.7,0.1v8.4h-2.4V539.4z"/>
	<path fill="#717877" d="M549.3,549.2c-0.5,0.1-1.1,0.3-1.8,0.4c-0.7,0.1-1.5,0.2-2.3,0.2c-0.8,0-1.6-0.1-2.2-0.4s-1.2-0.6-1.7-1.1
		s-0.8-1-1.1-1.7c-0.2-0.7-0.4-1.4-0.4-2.3c0-0.8,0.1-1.6,0.3-2.3c0.2-0.7,0.5-1.3,0.9-1.7c0.4-0.5,0.9-0.9,1.5-1.1s1.2-0.4,2-0.4
		c0.5,0,1,0.1,1.3,0.2s0.7,0.3,1,0.4v-5l2.4-0.4V549.2z M542.4,544.3c0,1.1,0.3,1.9,0.8,2.5s1.2,0.9,2.1,0.9c0.4,0,0.7,0,1,0
		s0.5-0.1,0.7-0.1v-6c-0.2-0.1-0.5-0.3-0.8-0.4c-0.4-0.1-0.7-0.2-1.1-0.2c-0.9,0-1.5,0.3-1.9,0.9
		C542.6,542.4,542.4,543.3,542.4,544.3z"/>
</g>
<g>
	<line fill="none" stroke="#40B481" stroke-width="2" stroke-miterlimit="10" x1="459" y1="81.7" x2="238.7" y2="81.7"/>
	<g>
		<polygon fill="#40B481" points="240.3,76 230.5,81.7 240.3,87.4 		"/>
	</g>
</g>
<g>
	<line fill="none" stroke="#E01717" stroke-width="2.8569" stroke-miterlimit="10" x1="515.5" y1="223.3" x2="515.5" y2="178.7"/>
	<g>
		<polygon fill="#E01717" points="521.2,180.4 515.5,170.5 509.8,180.4 		"/>
	</g>
</g>
<g>
	<line fill="none" stroke="#C6C6C6" stroke-width="2.8569" stroke-miterlimit="10" x1="515.5" y1="308.4" x2="515.5" y2="337.9"/>
	<g>
		<polygon fill="#C6C6C6" points="509.8,336.3 515.5,346.1 521.2,336.3 		"/>
	</g>
</g>
<g>
	<line fill="none" stroke="#C6C6C6" stroke-width="2.8569" stroke-miterlimit="10" x1="515.5" y1="454.5" x2="515.5" y2="484.1"/>
	<g>
		<polygon fill="#C6C6C6" points="509.8,482.4 515.5,492.3 521.2,482.4 		"/>
	</g>
</g>
<line fill="none" stroke="#40B481" stroke-width="2" stroke-miterlimit="10" x1="230.5" y1="132.7" x2="450.8" y2="132.7"/>
<polygon fill="#40B481" points="449.2,138.4 459,132.7 449.2,127 "/>
<circle fill="#40B481" stroke="#FFFFFF" stroke-width="2.2856" stroke-miterlimit="10" cx="382.8" cy="23.3" r="22.2"/>
<g>
	<path fill="#717877" d="M53.6,14.4c0.6,0,1-0.1,1.2-0.3s0.4-0.5,0.4-0.8c0-0.2,0-0.4-0.1-0.5c-0.1-0.1-0.2-0.3-0.4-0.4
		c-0.2-0.1-0.4-0.2-0.6-0.3c-0.2-0.1-0.5-0.2-0.8-0.3c-0.3-0.1-0.6-0.2-0.9-0.3c-0.3-0.1-0.5-0.3-0.7-0.5s-0.4-0.4-0.5-0.7
		c-0.1-0.3-0.2-0.6-0.2-0.9c0-0.8,0.3-1.4,0.8-1.8s1.3-0.7,2.2-0.7c0.5,0,1,0.1,1.4,0.2s0.7,0.2,1,0.4L56,8.6
		c-0.3-0.2-0.6-0.3-0.9-0.4c-0.3-0.1-0.7-0.1-1-0.1c-0.4,0-0.7,0.1-1,0.3c-0.2,0.2-0.3,0.4-0.3,0.7c0,0.2,0,0.3,0.1,0.5
		c0.1,0.1,0.2,0.3,0.3,0.4c0.1,0.1,0.3,0.2,0.5,0.3c0.2,0.1,0.4,0.2,0.6,0.3c0.4,0.1,0.8,0.3,1.1,0.4c0.3,0.2,0.6,0.3,0.8,0.5
		c0.2,0.2,0.4,0.5,0.5,0.7c0.1,0.3,0.2,0.6,0.2,1c0,0.8-0.3,1.4-0.8,1.8s-1.3,0.6-2.4,0.6c-0.4,0-0.7,0-1-0.1s-0.5-0.1-0.8-0.2
		c-0.2-0.1-0.4-0.1-0.6-0.2c-0.2-0.1-0.3-0.1-0.4-0.2l0.5-1.3c0.2,0.1,0.5,0.2,0.9,0.4S53.1,14.4,53.6,14.4z"/>
	<path fill="#717877" d="M58,7.4l1.5-0.2v1.9h2.3v1.2h-2.3v2.6c0,0.5,0.1,0.9,0.2,1.1c0.2,0.2,0.4,0.3,0.8,0.3c0.3,0,0.5,0,0.7-0.1
		c0.2-0.1,0.4-0.1,0.5-0.2l0.2,1.2c-0.2,0.1-0.4,0.1-0.7,0.2c-0.3,0.1-0.6,0.1-1,0.1c-0.5,0-0.8-0.1-1.1-0.2
		c-0.3-0.1-0.5-0.3-0.7-0.5s-0.3-0.5-0.4-0.8C58.1,13.8,58,13.4,58,13V7.4z"/>
	<path fill="#717877" d="M68.9,12.3c0,0.5-0.1,1-0.2,1.4c-0.1,0.4-0.4,0.8-0.6,1.1c-0.3,0.3-0.6,0.5-1,0.7c-0.4,0.2-0.8,0.2-1.3,0.2
		c-0.5,0-0.9-0.1-1.3-0.2c-0.4-0.2-0.7-0.4-1-0.7c-0.3-0.3-0.5-0.6-0.6-1.1c-0.2-0.4-0.2-0.9-0.2-1.4s0.1-1,0.2-1.4s0.4-0.8,0.6-1.1
		c0.3-0.3,0.6-0.5,1-0.7c0.4-0.2,0.8-0.2,1.2-0.2c0.4,0,0.9,0.1,1.2,0.2c0.4,0.2,0.7,0.4,1,0.7c0.3,0.3,0.5,0.6,0.6,1.1
		C68.8,11.3,68.9,11.8,68.9,12.3z M67.4,12.3c0-0.6-0.1-1.1-0.4-1.5c-0.3-0.4-0.7-0.6-1.1-0.6s-0.9,0.2-1.1,0.6
		c-0.3,0.4-0.4,0.9-0.4,1.5c0,0.6,0.1,1.2,0.4,1.5c0.3,0.4,0.7,0.6,1.1,0.6s0.9-0.2,1.1-0.6S67.4,12.9,67.4,12.3z"/>
	<path fill="#717877" d="M74.1,10.4c-0.1,0-0.3-0.1-0.5-0.1c-0.2,0-0.5-0.1-0.8-0.1c-0.2,0-0.3,0-0.5,0c-0.2,0-0.3,0.1-0.4,0.1v5.1
		h-1.5V9.4c0.3-0.1,0.6-0.2,1.1-0.3C71.9,9,72.4,9,72.9,9c0.1,0,0.2,0,0.3,0c0.1,0,0.3,0,0.4,0s0.3,0,0.4,0.1c0.1,0,0.2,0.1,0.3,0.1
		L74.1,10.4z"/>
	<path fill="#717877" d="M77.5,8.9c0.5,0,0.9,0.1,1.2,0.2s0.6,0.3,0.8,0.5c0.2,0.2,0.3,0.5,0.4,0.8s0.1,0.7,0.1,1v3.9
		c-0.2,0-0.6,0.1-1,0.2c-0.5,0.1-1,0.1-1.6,0.1c-0.4,0-0.7,0-1.1-0.1c-0.3-0.1-0.6-0.2-0.8-0.4c-0.2-0.2-0.4-0.4-0.5-0.6
		s-0.2-0.6-0.2-1c0-0.4,0.1-0.7,0.2-0.9s0.3-0.5,0.6-0.6s0.5-0.3,0.9-0.3c0.3-0.1,0.7-0.1,1-0.1c0.2,0,0.3,0,0.5,0s0.4,0.1,0.6,0.1
		v-0.2c0-0.2,0-0.3-0.1-0.5s-0.1-0.3-0.2-0.4c-0.1-0.1-0.2-0.2-0.4-0.3s-0.4-0.1-0.6-0.1c-0.3,0-0.7,0-0.9,0.1
		c-0.3,0-0.5,0.1-0.7,0.2l-0.2-1.2C75.7,9.2,76,9.1,76.3,9C76.7,9,77.1,8.9,77.5,8.9z M77.6,14.5c0.5,0,0.8,0,1-0.1v-1.6
		c-0.1,0-0.2,0-0.4-0.1c-0.2,0-0.3,0-0.5,0c-0.2,0-0.3,0-0.5,0s-0.3,0.1-0.5,0.1c-0.1,0.1-0.2,0.2-0.3,0.3c-0.1,0.1-0.1,0.3-0.1,0.4
		c0,0.4,0.1,0.6,0.3,0.7C76.9,14.4,77.2,14.5,77.6,14.5z"/>
	<path fill="#717877" d="M87.2,14.9c0,1-0.3,1.8-0.8,2.2c-0.5,0.5-1.3,0.7-2.4,0.7c-0.4,0-0.8,0-1.1-0.1c-0.4-0.1-0.7-0.2-1-0.3
		l0.3-1.3c0.3,0.1,0.5,0.2,0.9,0.3c0.3,0.1,0.7,0.1,1,0.1c0.6,0,1-0.1,1.3-0.4c0.3-0.2,0.4-0.6,0.4-1.1v-0.2
		c-0.1,0.1-0.3,0.1-0.6,0.2c-0.2,0.1-0.5,0.1-0.8,0.1c-0.4,0-0.8-0.1-1.1-0.2c-0.3-0.1-0.6-0.3-0.9-0.6c-0.2-0.3-0.4-0.6-0.6-1
		s-0.2-0.8-0.2-1.3c0-0.5,0.1-0.9,0.2-1.3c0.1-0.4,0.4-0.7,0.6-1c0.3-0.3,0.6-0.5,1-0.6C83.8,9,84.2,9,84.7,9c0.5,0,0.9,0,1.4,0.1
		c0.4,0.1,0.8,0.2,1.1,0.2V14.9z M83.1,12.1c0,0.6,0.1,1.1,0.4,1.4c0.3,0.3,0.6,0.4,1.1,0.4c0.2,0,0.5,0,0.7-0.1
		c0.2-0.1,0.4-0.1,0.5-0.2v-3.3c-0.1,0-0.2,0-0.4-0.1c-0.2,0-0.4,0-0.6,0c-0.5,0-1,0.2-1.2,0.5S83.1,11.6,83.1,12.1z"/>
	<path fill="#717877" d="M88.7,12.3c0-0.6,0.1-1.1,0.3-1.5c0.2-0.4,0.4-0.8,0.7-1.1c0.3-0.3,0.6-0.5,1-0.6C91,9,91.3,8.9,91.7,8.9
		c0.9,0,1.6,0.3,2.1,0.8c0.5,0.5,0.7,1.4,0.7,2.5c0,0.1,0,0.2,0,0.3c0,0.1,0,0.2,0,0.3h-4.2c0,0.5,0.2,0.9,0.5,1.2
		c0.3,0.3,0.8,0.4,1.4,0.4c0.4,0,0.7,0,1-0.1s0.5-0.1,0.7-0.2l0.2,1.2c-0.1,0-0.2,0.1-0.3,0.1c-0.1,0-0.3,0.1-0.5,0.1
		c-0.2,0-0.4,0.1-0.6,0.1s-0.4,0-0.6,0c-0.6,0-1.1-0.1-1.5-0.3c-0.4-0.2-0.8-0.4-1-0.7c-0.3-0.3-0.5-0.6-0.6-1.1
		C88.8,13.3,88.7,12.8,88.7,12.3z M93,11.7c0-0.2,0-0.4-0.1-0.6c-0.1-0.2-0.1-0.3-0.3-0.5s-0.2-0.2-0.4-0.3
		c-0.2-0.1-0.3-0.1-0.6-0.1c-0.2,0-0.4,0-0.6,0.1c-0.2,0.1-0.3,0.2-0.4,0.3c-0.1,0.1-0.2,0.3-0.3,0.5s-0.1,0.4-0.1,0.6H93z"/>
</g>
<circle fill="#40B481" stroke="#FFFFFF" stroke-width="2.2856" stroke-miterlimit="10" cx="23.3" cy="23.3" r="22.2"/>
<g>
	<path fill="#FFFFFF" d="M28.9,32.2c-0.3-0.8-0.5-1.5-0.8-2.2s-0.5-1.5-0.8-2.3h-8.1c-0.3,0.8-0.5,1.5-0.8,2.3s-0.5,1.5-0.8,2.2H14
		c0.7-2.1,1.4-4,2.1-5.7c0.6-1.7,1.3-3.4,1.9-4.9s1.2-3,1.8-4.4s1.2-2.8,1.9-4.2H25c0.6,1.4,1.3,2.8,1.9,4.2s1.2,2.9,1.8,4.4
		c0.6,1.6,1.3,3.2,1.9,4.9c0.7,1.7,1.3,3.6,2.1,5.7H28.9z M23.3,16.7c-0.4,1-0.9,2.2-1.5,3.6c-0.5,1.4-1.1,2.9-1.7,4.6h6.3
		c-0.6-1.6-1.2-3.2-1.7-4.6C24.2,18.9,23.7,17.7,23.3,16.7z"/>
</g>
<g>
	<path fill="#FFFFFF" d="M382.9,32.5c-1,0-2,0-3.1-0.1c-1-0.1-1.9-0.2-2.7-0.4V13.3c0.4-0.1,0.8-0.1,1.3-0.2
		c0.5-0.1,0.9-0.1,1.4-0.2s1-0.1,1.4-0.1c0.5,0,0.9,0,1.3,0c1.2,0,2.2,0.1,3.2,0.3c1,0.2,1.9,0.5,2.6,0.9c0.7,0.4,1.3,0.9,1.7,1.6
		c0.4,0.7,0.6,1.5,0.6,2.5c0,0.9-0.2,1.7-0.7,2.3s-1,1.2-1.8,1.6c1.2,0.4,2,1,2.6,1.7c0.6,0.8,0.8,1.7,0.8,2.9c0,2-0.7,3.5-2.2,4.5
		C388.1,32,385.9,32.5,382.9,32.5z M380.5,20.8h2.5c1.3,0,2.4-0.2,3.1-0.6c0.8-0.4,1.1-1.1,1.1-2c0-0.9-0.4-1.6-1.2-2
		c-0.8-0.4-1.8-0.6-3.1-0.6c-0.5,0-1,0-1.4,0c-0.4,0-0.8,0-1.1,0.1V20.8z M380.5,23.6v5.9c0.4,0,0.8,0.1,1.3,0.1c0.4,0,0.9,0,1.2,0
		c0.7,0,1.4,0,2-0.1c0.6-0.1,1.2-0.3,1.6-0.5c0.5-0.2,0.8-0.5,1.1-0.9c0.3-0.4,0.4-0.9,0.4-1.5c0-1.1-0.4-1.9-1.2-2.3
		c-0.8-0.4-1.9-0.6-3.3-0.6H380.5z"/>
</g>
<circle fill="#E01717" cx="29" cy="319.8" r="11.4"/>
<g>
	<path fill="#515151" d="M56.6,263.6h1.3v9h-1.3V263.6z"/>
	<path fill="#515151" d="M60,266.1c0.3-0.1,0.6-0.1,1.1-0.2c0.5-0.1,1-0.1,1.6-0.1c0.4,0,0.8,0.1,1.1,0.2c0.3,0.1,0.5,0.3,0.7,0.5
		c0.1,0,0.2-0.1,0.3-0.2c0.1-0.1,0.3-0.2,0.5-0.2c0.2-0.1,0.4-0.1,0.6-0.2s0.5-0.1,0.8-0.1c0.5,0,0.9,0.1,1.3,0.2
		c0.3,0.2,0.6,0.4,0.8,0.6s0.3,0.6,0.4,1c0.1,0.4,0.1,0.8,0.1,1.2v3.8H68v-3.5c0-0.4,0-0.7-0.1-1c0-0.3-0.1-0.5-0.2-0.7
		c-0.1-0.2-0.3-0.3-0.4-0.4c-0.2-0.1-0.4-0.1-0.7-0.1c-0.4,0-0.7,0.1-1,0.2c-0.3,0.1-0.4,0.2-0.5,0.3c0.1,0.2,0.1,0.5,0.2,0.7
		s0.1,0.5,0.1,0.8v3.8H64v-3.5c0-0.4,0-0.7-0.1-1c0-0.3-0.1-0.5-0.2-0.7c-0.1-0.2-0.3-0.3-0.4-0.4s-0.4-0.1-0.7-0.1
		c-0.1,0-0.3,0-0.4,0c-0.1,0-0.3,0-0.4,0c-0.1,0-0.2,0-0.3,0s-0.2,0-0.2,0v5.7H60V266.1z"/>
	<path fill="#515151" d="M73.4,265.7c0.5,0,0.9,0.1,1.2,0.2c0.3,0.1,0.6,0.3,0.8,0.5c0.2,0.2,0.3,0.5,0.4,0.8c0.1,0.3,0.1,0.7,0.1,1
		v4.2c-0.1,0-0.2,0-0.4,0.1c-0.2,0-0.4,0.1-0.6,0.1c-0.2,0-0.5,0-0.8,0.1s-0.5,0-0.8,0c-0.4,0-0.7,0-1.1-0.1
		c-0.3-0.1-0.6-0.2-0.8-0.4c-0.2-0.2-0.4-0.4-0.5-0.7s-0.2-0.6-0.2-1c0-0.4,0.1-0.7,0.2-1c0.2-0.3,0.4-0.5,0.6-0.7
		c0.3-0.2,0.6-0.3,0.9-0.4s0.7-0.1,1.1-0.1c0.1,0,0.2,0,0.4,0c0.1,0,0.3,0,0.4,0.1c0.1,0,0.2,0,0.3,0.1c0.1,0,0.1,0,0.2,0v-0.3
		c0-0.2,0-0.4-0.1-0.6c0-0.2-0.1-0.4-0.2-0.5c-0.1-0.2-0.3-0.3-0.5-0.4c-0.2-0.1-0.4-0.1-0.8-0.1c-0.4,0-0.7,0-1,0.1
		c-0.3,0.1-0.5,0.1-0.7,0.2l-0.1-1c0.2-0.1,0.4-0.1,0.8-0.2C72.6,265.7,73,265.7,73.4,265.7z M73.5,271.8c0.3,0,0.5,0,0.8,0
		c0.2,0,0.4,0,0.6-0.1v-2c-0.1,0-0.2-0.1-0.4-0.1c-0.2,0-0.4,0-0.7,0c-0.2,0-0.4,0-0.6,0c-0.2,0-0.4,0.1-0.6,0.2
		c-0.2,0.1-0.3,0.2-0.4,0.3c-0.1,0.1-0.2,0.3-0.2,0.6c0,0.4,0.1,0.7,0.4,0.9C72.7,271.7,73.1,271.8,73.5,271.8z"/>
	<path fill="#515151" d="M82.3,272c-0.1,0.1-0.3,0.2-0.6,0.3c-0.3,0.1-0.6,0.2-1,0.2c-0.4,0-0.8-0.1-1.2-0.2
		c-0.4-0.1-0.7-0.3-0.9-0.6c-0.3-0.3-0.5-0.6-0.6-1c-0.2-0.4-0.2-0.9-0.2-1.5c0-0.5,0.1-0.9,0.2-1.4c0.1-0.4,0.4-0.8,0.6-1.1
		s0.6-0.5,1-0.7c0.4-0.2,0.9-0.3,1.4-0.3c0.6,0,1.1,0,1.5,0.1s0.8,0.2,1.1,0.2v6c0,1-0.3,1.8-0.8,2.3c-0.5,0.5-1.4,0.7-2.4,0.7
		c-0.4,0-0.8,0-1.2-0.1s-0.7-0.2-1-0.2l0.2-1.1c0.2,0.1,0.5,0.2,0.9,0.3c0.4,0.1,0.7,0.1,1.1,0.1c0.7,0,1.2-0.1,1.6-0.4
		c0.3-0.3,0.5-0.7,0.5-1.4V272z M82.3,266.9c-0.1,0-0.3-0.1-0.5-0.1s-0.5,0-0.8,0c-0.7,0-1.2,0.2-1.5,0.6c-0.4,0.4-0.5,1-0.5,1.7
		c0,0.4,0,0.7,0.1,1c0.1,0.3,0.2,0.5,0.4,0.7c0.2,0.2,0.4,0.3,0.6,0.4s0.4,0.1,0.7,0.1c0.3,0,0.6,0,0.9-0.1c0.3-0.1,0.5-0.2,0.6-0.3
		V266.9z"/>
	<path fill="#515151" d="M85.2,269.3c0-0.6,0.1-1.1,0.3-1.6s0.4-0.8,0.7-1.1c0.3-0.3,0.6-0.5,1-0.7c0.4-0.1,0.8-0.2,1.1-0.2
		c0.9,0,1.6,0.3,2.1,0.9c0.5,0.6,0.7,1.4,0.7,2.6c0,0.1,0,0.1,0,0.2c0,0.1,0,0.2,0,0.2h-4.6c0.1,0.7,0.3,1.2,0.6,1.6
		c0.4,0.4,0.9,0.5,1.7,0.5c0.4,0,0.8,0,1.1-0.1c0.3-0.1,0.5-0.1,0.7-0.2l0.2,1c-0.1,0.1-0.4,0.2-0.8,0.2c-0.4,0.1-0.8,0.1-1.3,0.1
		c-0.6,0-1.1-0.1-1.5-0.3s-0.8-0.4-1.1-0.7c-0.3-0.3-0.5-0.7-0.6-1.1C85.2,270.3,85.2,269.8,85.2,269.3z M89.8,268.6
		c0-0.5-0.1-1-0.4-1.3c-0.3-0.4-0.7-0.5-1.2-0.5c-0.3,0-0.5,0.1-0.7,0.2s-0.4,0.2-0.5,0.4c-0.1,0.2-0.3,0.4-0.3,0.6
		c-0.1,0.2-0.1,0.5-0.2,0.7H89.8z"/>
	<path fill="#515151" d="M97.4,271.8c0.5,0,0.9-0.1,1.1-0.2c0.2-0.1,0.4-0.3,0.4-0.6c0-0.3-0.1-0.5-0.4-0.7
		c-0.2-0.2-0.6-0.4-1.2-0.6c-0.3-0.1-0.5-0.2-0.7-0.3c-0.2-0.1-0.4-0.2-0.6-0.4s-0.3-0.3-0.4-0.5s-0.2-0.5-0.2-0.8
		c0-0.6,0.2-1.1,0.7-1.4c0.4-0.4,1-0.5,1.8-0.5c0.2,0,0.4,0,0.6,0c0.2,0,0.4,0,0.5,0.1c0.2,0,0.3,0.1,0.4,0.1c0.1,0,0.2,0.1,0.3,0.1
		l-0.2,1c-0.1-0.1-0.3-0.1-0.6-0.2c-0.3-0.1-0.6-0.1-1-0.1c-0.3,0-0.6,0.1-0.9,0.2c-0.3,0.1-0.4,0.3-0.4,0.6c0,0.1,0,0.3,0.1,0.4
		c0.1,0.1,0.1,0.2,0.3,0.3s0.3,0.2,0.4,0.3c0.2,0.1,0.4,0.2,0.6,0.2c0.3,0.1,0.6,0.2,0.9,0.4c0.3,0.1,0.5,0.3,0.6,0.4
		s0.3,0.3,0.4,0.6c0.1,0.2,0.1,0.5,0.1,0.8c0,0.6-0.2,1.1-0.7,1.4c-0.5,0.3-1.1,0.5-2,0.5c-0.6,0-1.1,0-1.4-0.1s-0.6-0.2-0.7-0.2
		l0.2-1c0.1,0.1,0.4,0.1,0.7,0.2C96.5,271.7,96.9,271.8,97.4,271.8z"/>
	<path fill="#515151" d="M107,272.4c-0.3,0.1-0.6,0.1-1.1,0.2c-0.5,0.1-1,0.1-1.6,0.1c-0.5,0-1-0.1-1.3-0.2
		c-0.4-0.2-0.6-0.4-0.9-0.6c-0.2-0.3-0.4-0.6-0.5-1c-0.1-0.4-0.1-0.8-0.1-1.3v-3.8h1.2v3.5c0,0.8,0.1,1.4,0.4,1.8
		c0.3,0.4,0.7,0.5,1.3,0.5c0.1,0,0.3,0,0.4,0c0.1,0,0.3,0,0.4,0c0.1,0,0.2,0,0.3,0c0.1,0,0.2,0,0.2,0v-5.7h1.2V272.4z"/>
	<path fill="#515151" d="M112,272.8c-0.5,0-1-0.1-1.4-0.3c-0.4-0.2-0.8-0.4-1-0.7c-0.3-0.3-0.5-0.7-0.6-1.1s-0.2-0.9-0.2-1.4
		c0-0.5,0.1-1,0.2-1.4c0.2-0.4,0.4-0.8,0.6-1.1c0.3-0.3,0.6-0.6,1-0.7c0.4-0.2,0.9-0.3,1.3-0.3c0.3,0,0.6,0,0.9,0.1
		c0.3,0.1,0.6,0.1,0.9,0.2l-0.3,1c-0.2-0.1-0.4-0.2-0.6-0.2s-0.5-0.1-0.8-0.1c-0.7,0-1.2,0.2-1.6,0.6c-0.4,0.4-0.5,1-0.5,1.9
		c0,0.4,0,0.7,0.1,1c0.1,0.3,0.2,0.6,0.4,0.8s0.4,0.4,0.7,0.5c0.3,0.1,0.6,0.2,1,0.2c0.3,0,0.6,0,0.9-0.1s0.5-0.1,0.6-0.2l0.2,1
		c-0.1,0-0.2,0.1-0.3,0.1s-0.3,0.1-0.4,0.1c-0.2,0-0.3,0.1-0.5,0.1C112.4,272.8,112.2,272.8,112,272.8z"/>
	<path fill="#515151" d="M118.1,272.8c-0.5,0-1-0.1-1.4-0.3c-0.4-0.2-0.8-0.4-1-0.7c-0.3-0.3-0.5-0.7-0.6-1.1s-0.2-0.9-0.2-1.4
		c0-0.5,0.1-1,0.2-1.4c0.2-0.4,0.4-0.8,0.6-1.1c0.3-0.3,0.6-0.6,1-0.7c0.4-0.2,0.9-0.3,1.3-0.3c0.3,0,0.6,0,0.9,0.1
		c0.3,0.1,0.6,0.1,0.9,0.2l-0.3,1c-0.2-0.1-0.4-0.2-0.6-0.2s-0.5-0.1-0.8-0.1c-0.7,0-1.2,0.2-1.6,0.6c-0.4,0.4-0.5,1-0.5,1.9
		c0,0.4,0,0.7,0.1,1c0.1,0.3,0.2,0.6,0.4,0.8s0.4,0.4,0.7,0.5c0.3,0.1,0.6,0.2,1,0.2c0.3,0,0.6,0,0.9-0.1s0.5-0.1,0.6-0.2l0.2,1
		c-0.1,0-0.2,0.1-0.3,0.1s-0.3,0.1-0.4,0.1c-0.2,0-0.3,0.1-0.5,0.1C118.4,272.8,118.2,272.8,118.1,272.8z"/>
	<path fill="#515151" d="M120.8,269.3c0-0.6,0.1-1.1,0.3-1.6c0.2-0.4,0.4-0.8,0.7-1.1s0.6-0.5,1-0.7c0.4-0.1,0.8-0.2,1.1-0.2
		c0.9,0,1.6,0.3,2.1,0.9c0.5,0.6,0.7,1.4,0.7,2.6c0,0.1,0,0.1,0,0.2c0,0.1,0,0.2,0,0.2H122c0.1,0.7,0.3,1.2,0.6,1.6s0.9,0.5,1.7,0.5
		c0.4,0,0.8,0,1.1-0.1c0.3-0.1,0.5-0.1,0.7-0.2l0.2,1c-0.1,0.1-0.4,0.2-0.8,0.2c-0.4,0.1-0.8,0.1-1.3,0.1c-0.6,0-1.1-0.1-1.5-0.3
		c-0.4-0.2-0.8-0.4-1.1-0.7c-0.3-0.3-0.5-0.7-0.6-1.1C120.9,270.3,120.8,269.8,120.8,269.3z M125.4,268.6c0-0.5-0.1-1-0.4-1.3
		c-0.3-0.4-0.7-0.5-1.2-0.5c-0.3,0-0.5,0.1-0.7,0.2c-0.2,0.1-0.4,0.2-0.5,0.4c-0.1,0.2-0.3,0.4-0.3,0.6s-0.1,0.5-0.2,0.7H125.4z"/>
	<path fill="#515151" d="M130,271.8c0.5,0,0.9-0.1,1.1-0.2c0.2-0.1,0.4-0.3,0.4-0.6c0-0.3-0.1-0.5-0.4-0.7c-0.2-0.2-0.6-0.4-1.2-0.6
		c-0.3-0.1-0.5-0.2-0.7-0.3c-0.2-0.1-0.4-0.2-0.6-0.4c-0.2-0.1-0.3-0.3-0.4-0.5c-0.1-0.2-0.2-0.5-0.2-0.8c0-0.6,0.2-1.1,0.7-1.4
		c0.4-0.4,1-0.5,1.8-0.5c0.2,0,0.4,0,0.6,0s0.4,0,0.5,0.1c0.2,0,0.3,0.1,0.4,0.1c0.1,0,0.2,0.1,0.3,0.1l-0.2,1
		c-0.1-0.1-0.3-0.1-0.6-0.2c-0.3-0.1-0.6-0.1-1-0.1c-0.3,0-0.6,0.1-0.9,0.2c-0.3,0.1-0.4,0.3-0.4,0.6c0,0.1,0,0.3,0.1,0.4
		c0.1,0.1,0.1,0.2,0.3,0.3s0.3,0.2,0.4,0.3c0.2,0.1,0.4,0.2,0.6,0.2c0.3,0.1,0.6,0.2,0.9,0.4c0.3,0.1,0.5,0.3,0.6,0.4
		s0.3,0.3,0.4,0.6c0.1,0.2,0.1,0.5,0.1,0.8c0,0.6-0.2,1.1-0.7,1.4c-0.5,0.3-1.1,0.5-2,0.5c-0.6,0-1.1,0-1.4-0.1s-0.6-0.2-0.7-0.2
		l0.2-1c0.1,0.1,0.4,0.1,0.7,0.2C129.1,271.7,129.5,271.8,130,271.8z"/>
	<path fill="#515151" d="M136.9,262.5c0.4,0,0.7,0,0.9,0.1c0.3,0.1,0.4,0.1,0.5,0.1l-0.2,1c-0.1-0.1-0.3-0.1-0.4-0.1
		s-0.4-0.1-0.7-0.1c-0.6,0-1,0.2-1.2,0.5c-0.2,0.3-0.3,0.7-0.3,1.2v0.6h2.6v1h-2.6v5.7h-1.2v-7.4c0-0.9,0.2-1.5,0.6-2
		C135.3,262.8,136,262.5,136.9,262.5z"/>
	<path fill="#515151" d="M144.6,272.4c-0.3,0.1-0.6,0.1-1.1,0.2c-0.5,0.1-1,0.1-1.6,0.1c-0.5,0-1-0.1-1.3-0.2
		c-0.4-0.2-0.6-0.4-0.9-0.6c-0.2-0.3-0.4-0.6-0.5-1c-0.1-0.4-0.1-0.8-0.1-1.3v-3.8h1.2v3.5c0,0.8,0.1,1.4,0.4,1.8
		c0.3,0.4,0.7,0.5,1.3,0.5c0.1,0,0.3,0,0.4,0c0.1,0,0.3,0,0.4,0c0.1,0,0.2,0,0.3,0c0.1,0,0.2,0,0.2,0v-5.7h1.2V272.4z"/>
	<path fill="#515151" d="M148.7,272.8c-0.7,0-1.3-0.2-1.6-0.5c-0.3-0.3-0.5-0.8-0.5-1.4v-8.1l1.2-0.2v8.1c0,0.2,0,0.4,0.1,0.5
		c0,0.1,0.1,0.2,0.2,0.3s0.2,0.1,0.3,0.2s0.3,0.1,0.5,0.1L148.7,272.8z"/>
	<path fill="#515151" d="M155.8,265.7c0.1,0,0.2,0,0.4,0c0.1,0,0.3,0,0.4,0.1c0.1,0,0.2,0,0.4,0.1s0.2,0,0.2,0.1l-0.2,1.1
		c-0.1,0-0.3-0.1-0.5-0.1c-0.2,0-0.5-0.1-0.9-0.1c-0.2,0-0.4,0-0.7,0.1s-0.4,0.1-0.4,0.1v5.7h-1.2v-6.5c0.3-0.1,0.6-0.2,1.1-0.3
		C154.7,265.8,155.2,265.7,155.8,265.7z"/>
	<path fill="#515151" d="M157.9,269.3c0-0.6,0.1-1.1,0.3-1.6c0.2-0.4,0.4-0.8,0.7-1.1s0.6-0.5,1-0.7c0.4-0.1,0.8-0.2,1.1-0.2
		c0.9,0,1.6,0.3,2.1,0.9c0.5,0.6,0.7,1.4,0.7,2.6c0,0.1,0,0.1,0,0.2c0,0.1,0,0.2,0,0.2h-4.6c0.1,0.7,0.3,1.2,0.6,1.6
		s0.9,0.5,1.7,0.5c0.4,0,0.8,0,1.1-0.1c0.3-0.1,0.5-0.1,0.7-0.2l0.2,1c-0.1,0.1-0.4,0.2-0.8,0.2c-0.4,0.1-0.8,0.1-1.3,0.1
		c-0.6,0-1.1-0.1-1.5-0.3c-0.4-0.2-0.8-0.4-1.1-0.7c-0.3-0.3-0.5-0.7-0.6-1.1C158,270.3,157.9,269.8,157.9,269.3z M162.5,268.6
		c0-0.5-0.1-1-0.4-1.3c-0.3-0.4-0.7-0.5-1.2-0.5c-0.3,0-0.5,0.1-0.7,0.2c-0.2,0.1-0.4,0.2-0.5,0.4c-0.1,0.2-0.3,0.4-0.3,0.6
		s-0.1,0.5-0.2,0.7H162.5z"/>
	<path fill="#515151" d="M166.7,265.9h2.6v1h-2.6v3.1c0,0.3,0,0.6,0.1,0.8c0.1,0.2,0.1,0.4,0.2,0.5c0.1,0.1,0.2,0.2,0.4,0.3
		s0.3,0.1,0.5,0.1c0.4,0,0.7,0,0.9-0.1c0.2-0.1,0.4-0.1,0.5-0.2l0.2,1c-0.1,0.1-0.3,0.1-0.6,0.2c-0.3,0.1-0.7,0.1-1,0.1
		c-0.5,0-0.8-0.1-1.1-0.2s-0.5-0.3-0.7-0.5c-0.2-0.2-0.3-0.5-0.4-0.9c-0.1-0.3-0.1-0.7-0.1-1.2v-6l1.2-0.2V265.9z"/>
	<path fill="#515151" d="M173.3,265.7c0.1,0,0.2,0,0.4,0c0.1,0,0.3,0,0.4,0.1c0.1,0,0.2,0,0.4,0.1s0.2,0,0.2,0.1l-0.2,1.1
		c-0.1,0-0.3-0.1-0.5-0.1c-0.2,0-0.5-0.1-0.9-0.1c-0.2,0-0.4,0-0.7,0.1s-0.4,0.1-0.4,0.1v5.7h-1.2v-6.5c0.3-0.1,0.6-0.2,1.1-0.3
		C172.3,265.8,172.7,265.7,173.3,265.7z"/>
	<path fill="#515151" d="M176.4,264.7c-0.2,0-0.4-0.1-0.6-0.2c-0.2-0.1-0.2-0.3-0.2-0.6c0-0.2,0.1-0.4,0.2-0.6
		c0.2-0.1,0.3-0.2,0.6-0.2s0.4,0.1,0.6,0.2s0.2,0.3,0.2,0.6c0,0.2-0.1,0.4-0.2,0.6C176.8,264.6,176.6,264.7,176.4,264.7z M177,272.6
		h-1.2v-6.8h1.2V272.6z"/>
	<path fill="#515151" d="M178.7,269.3c0-0.6,0.1-1.1,0.3-1.6c0.2-0.4,0.4-0.8,0.7-1.1s0.6-0.5,1-0.7c0.4-0.1,0.8-0.2,1.1-0.2
		c0.9,0,1.6,0.3,2.1,0.9c0.5,0.6,0.7,1.4,0.7,2.6c0,0.1,0,0.1,0,0.2c0,0.1,0,0.2,0,0.2H180c0.1,0.7,0.3,1.2,0.6,1.6s0.9,0.5,1.7,0.5
		c0.4,0,0.8,0,1.1-0.1c0.3-0.1,0.5-0.1,0.7-0.2l0.2,1c-0.1,0.1-0.4,0.2-0.8,0.2c-0.4,0.1-0.8,0.1-1.3,0.1c-0.6,0-1.1-0.1-1.5-0.3
		c-0.4-0.2-0.8-0.4-1.1-0.7c-0.3-0.3-0.5-0.7-0.6-1.1C178.8,270.3,178.7,269.8,178.7,269.3z M183.3,268.6c0-0.5-0.1-1-0.4-1.3
		c-0.3-0.4-0.7-0.5-1.2-0.5c-0.3,0-0.5,0.1-0.7,0.2c-0.2,0.1-0.4,0.2-0.5,0.4c-0.1,0.2-0.3,0.4-0.3,0.6s-0.1,0.5-0.2,0.7H183.3z"/>
	<path fill="#515151" d="M191.6,265.9c-0.3,1.3-0.7,2.5-1.2,3.6s-0.9,2.2-1.3,3.1H188c-0.4-0.9-0.9-2-1.3-3.1s-0.9-2.4-1.2-3.6h1.3
		c0.1,0.4,0.2,0.9,0.4,1.4c0.1,0.5,0.3,1,0.5,1.4c0.2,0.5,0.3,0.9,0.5,1.4c0.2,0.4,0.3,0.8,0.5,1.2c0.1-0.3,0.3-0.7,0.5-1.2
		c0.2-0.4,0.3-0.9,0.5-1.4c0.2-0.5,0.3-0.9,0.5-1.4c0.1-0.5,0.3-0.9,0.4-1.4H191.6z"/>
	<path fill="#515151" d="M192.3,269.3c0-0.6,0.1-1.1,0.3-1.6c0.2-0.4,0.4-0.8,0.7-1.1s0.6-0.5,1-0.7c0.4-0.1,0.8-0.2,1.1-0.2
		c0.9,0,1.6,0.3,2.1,0.9c0.5,0.6,0.7,1.4,0.7,2.6c0,0.1,0,0.1,0,0.2c0,0.1,0,0.2,0,0.2h-4.6c0.1,0.7,0.3,1.2,0.6,1.6
		s0.9,0.5,1.7,0.5c0.4,0,0.8,0,1.1-0.1c0.3-0.1,0.5-0.1,0.7-0.2l0.2,1c-0.1,0.1-0.4,0.2-0.8,0.2c-0.4,0.1-0.8,0.1-1.3,0.1
		c-0.6,0-1.1-0.1-1.5-0.3c-0.4-0.2-0.8-0.4-1.1-0.7c-0.3-0.3-0.5-0.7-0.6-1.1C192.4,270.3,192.3,269.8,192.3,269.3z M196.9,268.6
		c0-0.5-0.1-1-0.4-1.3c-0.3-0.4-0.7-0.5-1.2-0.5c-0.3,0-0.5,0.1-0.7,0.2c-0.2,0.1-0.4,0.2-0.5,0.4c-0.1,0.2-0.3,0.4-0.3,0.6
		s-0.1,0.5-0.2,0.7H196.9z"/>
	<path fill="#515151" d="M204.3,262.8l1.2-0.2v9.9c-0.3,0.1-0.6,0.2-1.1,0.2s-0.9,0.1-1.5,0.1c-0.5,0-1-0.1-1.4-0.2
		c-0.4-0.2-0.8-0.4-1.1-0.7s-0.5-0.7-0.7-1.1s-0.2-0.9-0.2-1.5c0-0.5,0.1-1,0.2-1.4c0.1-0.4,0.3-0.8,0.6-1.1c0.3-0.3,0.6-0.6,1-0.7
		c0.4-0.2,0.8-0.3,1.3-0.3c0.4,0,0.7,0.1,1,0.2c0.3,0.1,0.5,0.2,0.7,0.3V262.8z M204.3,267.3c-0.1-0.1-0.4-0.2-0.6-0.4
		c-0.3-0.1-0.6-0.2-0.9-0.2c-0.3,0-0.6,0.1-0.9,0.2c-0.2,0.1-0.4,0.3-0.6,0.5s-0.3,0.5-0.3,0.8c-0.1,0.3-0.1,0.6-0.1,1
		c0,0.8,0.2,1.4,0.6,1.8c0.4,0.4,0.9,0.6,1.6,0.6c0.3,0,0.6,0,0.8,0s0.4-0.1,0.5-0.1V267.3z"/>
	<path fill="#515151" d="M209,271.9c0,0.2-0.1,0.4-0.2,0.6c-0.2,0.2-0.4,0.3-0.6,0.3s-0.5-0.1-0.6-0.3c-0.2-0.2-0.2-0.4-0.2-0.6
		c0-0.2,0.1-0.4,0.2-0.6c0.2-0.2,0.4-0.3,0.6-0.3s0.5,0.1,0.6,0.3C209,271.5,209,271.7,209,271.9z"/>
</g>
<circle fill="#40B481" cx="29" cy="268.1" r="11.4"/>
<g>
	<path fill="#FFFFFF" d="M25.7,264.2c0.7-0.3,1.3-0.6,2-1c0.7-0.4,1.3-0.9,1.8-1.5h1.5v11.9h-2.1v-9.1c-0.3,0.2-0.7,0.5-1.2,0.7
		c-0.5,0.2-0.9,0.4-1.4,0.6L25.7,264.2z"/>
</g>
<circle fill="#40B481" cx="291.4" cy="108.9" r="11.4"/>
<g>
	<path fill="#FFFFFF" d="M288.1,105c0.7-0.3,1.3-0.6,2-1c0.7-0.4,1.3-0.9,1.8-1.5h1.5v11.9h-2.1v-9.1c-0.3,0.2-0.7,0.5-1.2,0.7
		s-0.9,0.4-1.4,0.6L288.1,105z"/>
</g>
<g>
	<path fill="#FFFFFF" d="M32.4,316.5c0,0.4-0.1,0.8-0.3,1.2c-0.2,0.4-0.4,0.8-0.7,1.1s-0.6,0.7-0.9,1.1s-0.7,0.7-1,1
		c-0.2,0.2-0.4,0.4-0.6,0.6c-0.2,0.2-0.4,0.5-0.7,0.7c-0.2,0.2-0.4,0.5-0.5,0.7s-0.2,0.4-0.2,0.6h5.3v1.7h-7.6c0-0.1,0-0.2,0-0.3
		c0-0.1,0-0.2,0-0.3c0-0.5,0.1-1.1,0.3-1.5c0.2-0.5,0.4-0.9,0.7-1.3s0.6-0.8,1-1.1c0.4-0.4,0.7-0.7,1.1-1c0.3-0.3,0.5-0.5,0.8-0.8
		c0.3-0.3,0.5-0.5,0.7-0.7c0.2-0.2,0.3-0.5,0.5-0.8c0.1-0.3,0.2-0.5,0.2-0.8c0-0.6-0.2-1-0.5-1.3c-0.3-0.3-0.8-0.4-1.3-0.4
		c-0.3,0-0.6,0-0.9,0.1c-0.3,0.1-0.5,0.2-0.7,0.3c-0.2,0.1-0.4,0.3-0.6,0.4c-0.2,0.1-0.3,0.2-0.4,0.3l-1-1.5c0.5-0.5,1-0.8,1.7-1.1
		c0.6-0.3,1.3-0.4,2.1-0.4c1.3,0,2.2,0.3,2.8,0.9C32.1,314.7,32.4,315.5,32.4,316.5z"/>
</g>
<g>
	<path fill="#E01717" d="M386.7,209.5c-7.3,0-13.2-5.9-13.2-13.2s5.9-13.2,13.2-13.2s13.2,5.9,13.2,13.2S393.9,209.5,386.7,209.5z"
		/>
	<path fill="#FFFFFF" d="M386.7,184.9c6.3,0,11.4,5.1,11.4,11.4s-5.1,11.4-11.4,11.4s-11.4-5.1-11.4-11.4S380.4,184.9,386.7,184.9
		 M386.7,181.4c-8.2,0-14.9,6.7-14.9,14.9c0,8.2,6.7,14.9,14.9,14.9s14.9-6.7,14.9-14.9C401.6,188.1,394.9,181.4,386.7,181.4
		L386.7,181.4z"/>
</g>
<g>
	<path fill="#FFFFFF" d="M390,193c0,0.4-0.1,0.8-0.3,1.2c-0.2,0.4-0.4,0.8-0.7,1.1s-0.6,0.7-0.9,1.1s-0.7,0.7-1,1
		c-0.2,0.2-0.4,0.4-0.6,0.6s-0.4,0.5-0.7,0.7c-0.2,0.2-0.4,0.5-0.5,0.7c-0.1,0.2-0.2,0.4-0.2,0.6h5.3v1.7h-7.6c0-0.1,0-0.2,0-0.3
		c0-0.1,0-0.2,0-0.3c0-0.5,0.1-1.1,0.3-1.5c0.2-0.5,0.4-0.9,0.7-1.3c0.3-0.4,0.6-0.8,1-1.1c0.4-0.4,0.7-0.7,1.1-1
		c0.3-0.3,0.5-0.5,0.8-0.8c0.3-0.3,0.5-0.5,0.7-0.7c0.2-0.2,0.3-0.5,0.5-0.8s0.2-0.5,0.2-0.8c0-0.6-0.2-1-0.5-1.3
		c-0.3-0.3-0.8-0.4-1.3-0.4c-0.3,0-0.6,0-0.9,0.1s-0.5,0.2-0.7,0.3c-0.2,0.1-0.4,0.3-0.6,0.4c-0.2,0.1-0.3,0.2-0.4,0.3l-1-1.5
		c0.5-0.5,1-0.8,1.7-1.1s1.3-0.4,2.1-0.4c1.3,0,2.2,0.3,2.8,0.9C389.7,191.2,390,192,390,193z"/>
</g>
<path fill="none" stroke="#011627" stroke-width="2.2051" stroke-miterlimit="10" d="M127.8,122.5l16.8-17.6c0.5-0.5,1.2-0.5,1.7,0
	l11.2,11.7l6.2-5.8c0.5-0.5,1.3-0.4,1.7,0.1l11,11.7c0.5,0.5,0.4,1.3,0,1.7c-0.3,0.2-0.6,0.3-0.9,0.3h-13.2v0h-33.8
	c-0.7,0-1.2-0.6-1.2-1.2C127.4,123.1,127.5,122.8,127.8,122.5z"/>
<path fill="none" stroke="#011627" stroke-width="2.2051" stroke-miterlimit="10" d="M158,93.6c3,0.1,4.9,1.7,5.8,3.9
	c0.3,0.8,0.5,1.7,0.5,2.6c0,0.9-0.2,1.7-0.5,2.6c-0.9,2.1-2.8,3.7-5.8,3.7c-3.1,0-5.1-1.7-6-3.9c-0.3-0.8-0.5-1.7-0.5-2.6
	c0-0.9,0.2-1.8,0.5-2.6C153,95.2,155,93.6,158,93.6z"/>
<path fill="none" stroke="#011627" stroke-width="2.2051" stroke-miterlimit="10" d="M486.4,129.5l16.8-17.6c0.5-0.5,1.2-0.5,1.7,0
	l11.2,11.7l6.2-5.8c0.5-0.5,1.3-0.4,1.7,0.1l11,11.7c0.5,0.5,0.4,1.3,0,1.7c-0.3,0.2-0.6,0.3-0.9,0.3h-13.2v0h-33.8
	c-0.7,0-1.2-0.6-1.2-1.2C486,130.1,486.2,129.8,486.4,129.5z"/>
<path fill="none" stroke="#011627" stroke-width="2.2051" stroke-miterlimit="10" d="M517.2,100.6c3,0.1,4.9,1.7,5.8,3.9
	c0.3,0.8,0.5,1.7,0.5,2.6c0,0.9-0.2,1.7-0.5,2.6c-0.9,2.1-2.8,3.7-5.8,3.7c-3.1,0-5.1-1.7-6-3.9c-0.3-0.8-0.5-1.7-0.5-2.6
	c0-0.9,0.2-1.8,0.5-2.6C512.2,102.2,514.2,100.6,517.2,100.6z"/>
<path fill="none" stroke="#011627" stroke-width="2.2051" stroke-miterlimit="10" d="M517.4,406v-2.5l-0.4,0.3l-11.2-11.7
	c-0.5-0.5-1.3-0.4-1.7,0L490.8,406"/>
<path fill="none" stroke="#011627" stroke-width="2.2051" stroke-miterlimit="10" d="M516.9,379.7c-3,0-4.9,1.6-5.8,3.6
	c-0.3,0.8-0.5,1.7-0.5,2.6c0,0.9,0.2,1.8,0.5,2.6c0.9,2.1,2.8,3.8,5.9,3.9"/>
<path fill="#011627" d="M516.4,368h-4.4v1.8h4.4V368L516.4,368z M507.5,368h-4.4v1.8h4.4V368L507.5,368z M498.7,368h-4.4v1.8h4.4
	V368L498.7,368z M489.9,368h-4.4v1.8h4.4V368L489.9,368z M481.4,370h-1.8v4.4h1.8V370L481.4,370z M481.4,378.9h-1.8v4.4h1.8V378.9
	L481.4,378.9z M481.4,387.7h-1.8v4.4h1.8V387.7L481.4,387.7z M481.4,396.5h-1.8v4.4h1.8V396.5L481.4,396.5z M486,405.1h-4.4v1.8h4.4
	V405.1L486,405.1z M494.8,405.1h-4.4v1.8h4.4V405.1L494.8,405.1z M503.6,405.1h-4.4v1.8h4.4V405.1L503.6,405.1z M512.4,405.1H508
	v1.8h4.4V405.1L512.4,405.1z M518.1,400.2h-1.8v4.4h1.8V400.2L518.1,400.2z M518.1,391.4h-1.8v4.4h1.8V391.4L518.1,391.4z
	 M518.1,382.6h-1.8v4.4h1.8V382.6L518.1,382.6z M518.1,373.8h-1.8v4.4h1.8V373.8L518.1,373.8z"/>
<g>
	<g>
		<polyline fill="none" stroke="#40B481" stroke-width="2" stroke-miterlimit="10" points="603.9,293.3 603.9,296.3 600.9,296.3 		
			"/>
		
			<line fill="none" stroke="#40B481" stroke-width="2" stroke-miterlimit="10" stroke-dasharray="6.1024,6.1024" x1="594.8" y1="296.3" x2="427" y2="296.3"/>
		<polyline fill="none" stroke="#40B481" stroke-width="2" stroke-miterlimit="10" points="424,296.3 421,296.3 421,293.3 		"/>
		
			<line fill="none" stroke="#40B481" stroke-width="2" stroke-miterlimit="10" stroke-dasharray="6.276,6.276" x1="421" y1="287" x2="421" y2="240"/>
		<polyline fill="none" stroke="#40B481" stroke-width="2" stroke-miterlimit="10" points="421,236.8 421,233.8 424,233.8 		"/>
		
			<line fill="none" stroke="#40B481" stroke-width="2" stroke-miterlimit="10" stroke-dasharray="6.1024,6.1024" x1="430.1" y1="233.8" x2="597.9" y2="233.8"/>
		<polyline fill="none" stroke="#40B481" stroke-width="2" stroke-miterlimit="10" points="600.9,233.8 603.9,233.8 603.9,236.8 		
			"/>
		
			<line fill="none" stroke="#40B481" stroke-width="2" stroke-miterlimit="10" stroke-dasharray="6.276,6.276" x1="603.9" y1="243.1" x2="603.9" y2="290.2"/>
	</g>
</g>
<g>
	<g>
		<polyline fill="none" stroke="#011627" stroke-width="2" stroke-miterlimit="10" points="192.8,145.8 192.8,148.8 189.8,148.8 		
			"/>
		
			<line fill="none" stroke="#011627" stroke-width="2" stroke-miterlimit="10" stroke-dasharray="5.6923,5.6923" x1="184.1" y1="148.8" x2="118.6" y2="148.8"/>
		<polyline fill="none" stroke="#011627" stroke-width="2" stroke-miterlimit="10" points="115.8,148.8 112.8,148.8 112.8,145.8 		
			"/>
		
			<line fill="none" stroke="#011627" stroke-width="2" stroke-miterlimit="10" stroke-dasharray="5.6923,5.6923" x1="112.8" y1="140.1" x2="112.8" y2="74.7"/>
		<polyline fill="none" stroke="#011627" stroke-width="2" stroke-miterlimit="10" points="112.8,71.8 112.8,68.8 115.8,68.8 		"/>
		
			<line fill="none" stroke="#011627" stroke-width="2" stroke-miterlimit="10" stroke-dasharray="5.6923,5.6923" x1="121.5" y1="68.8" x2="186.9" y2="68.8"/>
		<polyline fill="none" stroke="#011627" stroke-width="2" stroke-miterlimit="10" points="189.8,68.8 192.8,68.8 192.8,71.8 		"/>
		
			<line fill="none" stroke="#011627" stroke-width="2" stroke-miterlimit="10" stroke-dasharray="5.6923,5.6923" x1="192.8" y1="77.5" x2="192.8" y2="143"/>
	</g>
</g>
<g>
	<g>
		<polyline fill="none" stroke="#011627" stroke-width="2" stroke-miterlimit="10" points="551.7,145.8 551.7,148.8 548.7,148.8 		
			"/>
		
			<line fill="none" stroke="#011627" stroke-width="2" stroke-miterlimit="10" stroke-dasharray="5.6923,5.6923" x1="543" y1="148.8" x2="477.6" y2="148.8"/>
		<polyline fill="none" stroke="#011627" stroke-width="2" stroke-miterlimit="10" points="474.7,148.8 471.7,148.8 471.7,145.8 		
			"/>
		
			<line fill="none" stroke="#011627" stroke-width="2" stroke-miterlimit="10" stroke-dasharray="5.6923,5.6923" x1="471.7" y1="140.1" x2="471.7" y2="74.7"/>
		<polyline fill="none" stroke="#011627" stroke-width="2" stroke-miterlimit="10" points="471.7,71.8 471.7,68.8 474.7,68.8 		"/>
		
			<line fill="none" stroke="#011627" stroke-width="2" stroke-miterlimit="10" stroke-dasharray="5.6923,5.6923" x1="480.4" y1="68.8" x2="545.9" y2="68.8"/>
		<polyline fill="none" stroke="#011627" stroke-width="2" stroke-miterlimit="10" points="548.7,68.8 551.7,68.8 551.7,71.8 		"/>
		
			<line fill="none" stroke="#011627" stroke-width="2" stroke-miterlimit="10" stroke-dasharray="5.6923,5.6923" x1="551.7" y1="77.5" x2="551.7" y2="143"/>
	</g>
</g>
<g>
	<g>
		<polyline fill="none" stroke="#D1D1D1" stroke-width="2" stroke-miterlimit="10" points="551.7,435.9 551.7,438.9 548.7,438.9 		
			"/>
		
			<line fill="none" stroke="#D1D1D1" stroke-width="2" stroke-miterlimit="10" stroke-dasharray="5.6923,5.6923" x1="543" y1="438.9" x2="477.6" y2="438.9"/>
		<polyline fill="none" stroke="#D1D1D1" stroke-width="2" stroke-miterlimit="10" points="474.7,438.9 471.7,438.9 471.7,435.9 		
			"/>
		
			<line fill="none" stroke="#D1D1D1" stroke-width="2" stroke-miterlimit="10" stroke-dasharray="5.6923,5.6923" x1="471.7" y1="430.2" x2="471.7" y2="364.8"/>
		<polyline fill="none" stroke="#D1D1D1" stroke-width="2" stroke-miterlimit="10" points="471.7,361.9 471.7,358.9 474.7,358.9 		
			"/>
		
			<line fill="none" stroke="#D1D1D1" stroke-width="2" stroke-miterlimit="10" stroke-dasharray="5.6923,5.6923" x1="480.4" y1="358.9" x2="545.9" y2="358.9"/>
		<polyline fill="none" stroke="#D1D1D1" stroke-width="2" stroke-miterlimit="10" points="548.7,358.9 551.7,358.9 551.7,361.9 		
			"/>
		
			<line fill="none" stroke="#D1D1D1" stroke-width="2" stroke-miterlimit="10" stroke-dasharray="5.6923,5.6923" x1="551.7" y1="367.6" x2="551.7" y2="433.1"/>
	</g>
</g>
</svg>
