<?xml version="1.0" encoding="utf-8"?>
<!-- Generator: Adobe Illustrator 18.0.0, SVG Export Plug-In . SVG Version: 6.00 Build 0)  -->
<!DOCTYPE svg PUBLIC "-//W3C//DTD SVG 1.1//EN" "http://www.w3.org/Graphics/SVG/1.1/DTD/svg11.dtd">
<svg version="1.1" id="Layer_1" xmlns="http://www.w3.org/2000/svg" xmlns:xlink="http://www.w3.org/1999/xlink" x="0px" y="0px"
	 width="16px" height="13.9px" viewBox="289.7 414 16 13.9" enable-background="new 289.7 414 16 13.9" xml:space="preserve">
<path fill="#FFFFFF" d="M305.5,419.8h-2c-0.6-3.3-3.4-5.8-6.8-5.8c-3.8,0-6.9,3.1-6.9,6.9s3.1,6.9,6.9,6.9c1.7,0,3.3-0.6,4.6-1.7
	l-1.4-1.8c-0.8,0.8-1.9,1.2-3.1,1.2c-2.5,0-4.6-2.1-4.6-4.6s2.1-4.6,4.6-4.6c2.1,0,3.9,1.5,4.5,3.5h-2c-0.3,0-0.3,0.2-0.2,0.4
	l3.1,3.8c0.2,0.2,0.4,0.2,0.6,0l3.1-3.8C305.8,419.9,305.7,419.8,305.5,419.8z"/>
</svg>
