<svg version="1.1" id="Layer_1" xmlns="http://www.w3.org/2000/svg" xmlns:xlink="http://www.w3.org/1999/xlink" x="0px" y="0px"
	 width="16px" height="16px" viewBox="0 0 16 16" enable-background="new 0 0 16 16" xml:space="preserve">
<g>
	<path fill="#FFFFFF" d="M16,15.1L16,15.1c0,0.5-0.4,0.9-0.9,0.9h0h-4c-0.8,0-1.1-0.9-0.6-1.5l1.3-1.3L8,9.4l-3.8,3.8l1.3,1.3
		C6,15.1,5.6,16,4.9,16h-4h0C0.4,16,0,15.6,0,15.1v0v-4c0-0.8,0.9-1.1,1.5-0.6l1.3,1.3L6.6,8L2.8,4.2L1.5,5.5C0.9,6,0,5.6,0,4.9v-4
		v0C0,0.4,0.4,0,0.9,0h0h4C5.6,0,6,0.9,5.5,1.5L4.2,2.8L8,6.6l3.8-3.8l-1.3-1.3C10,0.9,10.4,0,11.1,0h4h0C15.6,0,16,0.4,16,0.9v0v4
		c0,0.8-0.9,1.1-1.5,0.6l-1.3-1.3L9.4,8l3.8,3.8l1.3-1.3c0.5-0.5,1.5-0.2,1.5,0.6V15.1z"/>
</g>
</svg>
