<svg version="1.1" id="Layer_1" xmlns="http://www.w3.org/2000/svg" xmlns:xlink="http://www.w3.org/1999/xlink" x="0px" y="0px"
	 width="16px" height="16px" viewBox="0 0 16 16" enable-background="new 0 0 16 16" xml:space="preserve">
<g>
	<path fill="#FFFFFF" d="M7,2.8v3.5C7,6.7,6.7,7,6.3,7H2.8c-0.7,0-1-0.8-0.5-1.3l1-1L0.2,1.7C0,1.5,0,1.2,0.2,1L1,0.2
		C1.2,0,1.5,0,1.7,0.2l3.1,3.1l1-1C6.2,1.8,7,2.1,7,2.8z M7,9.7v3.5c0,0.7-0.8,1-1.3,0.5l-1-1l-3.1,3.1C1.5,16,1.2,16,1,15.8L0.2,15
		c-0.2-0.2-0.2-0.5,0-0.7l3.1-3.1l-1-1C1.8,9.8,2.1,9,2.8,9h3.5C6.7,9,7,9.3,7,9.7z M9,6.3V2.8c0-0.7,0.8-1,1.3-0.5l1,1l3.1-3.1
		C14.5,0,14.8,0,15,0.2L15.8,1c0.2,0.2,0.2,0.5,0,0.7l-3.1,3.1l1,1C14.2,6.2,13.9,7,13.2,7H9.7C9.3,7,9,6.7,9,6.3z M15.8,14.3
		c0.2,0.2,0.2,0.5,0,0.7L15,15.8c-0.2,0.2-0.5,0.2-0.7,0l-3.1-3.1l-1,1C9.8,14.2,9,13.8,9,13.2V9.7C9,9.3,9.3,9,9.7,9h3.5
		c0.7,0,1,0.8,0.5,1.3l-1,1L15.8,14.3z"/>
</g>
</svg>
