<svg version="1.1" id="Layer_1" xmlns="http://www.w3.org/2000/svg" xmlns:xlink="http://www.w3.org/1999/xlink" x="0px" y="0px"
	 width="16px" height="16px" viewBox="0 0 16 16" enable-background="new 0 0 16 16" xml:space="preserve">
<g>
	<path fill="#FFFFFF" d="M0,0.9C0,0.4,0.4,0,0.9,0h4.4c0.2,0,0.4,0.2,0.4,0.4v1.4c0,0.2-0.2,0.4-0.4,0.4h-3v3c0,0.2-0.2,0.4-0.4,0.4
		H0.4C0.2,5.7,0,5.5,0,5.3V0.9z M5.3,16H0.9C0.4,16,0,15.6,0,15.2v-4.4c0-0.2,0.2-0.4,0.4-0.4h1.4c0.2,0,0.4,0.2,0.4,0.4v3h3
		c0.2,0,0.4,0.2,0.4,0.4v1.4C5.7,15.8,5.5,16,5.3,16z M10.7,0h4.4C15.6,0,16,0.4,16,0.9v4.4c0,0.2-0.2,0.4-0.4,0.4h-1.4
		c-0.2,0-0.4-0.2-0.4-0.4v-3h-3c-0.2,0-0.4-0.2-0.4-0.4V0.4C10.3,0.2,10.5,0,10.7,0z M16,10.7v4.4c0,0.5-0.4,0.9-0.9,0.9h-4.4
		c-0.2,0-0.4-0.2-0.4-0.4v-1.4c0-0.2,0.2-0.4,0.4-0.4h3v-3c0-0.2,0.2-0.4,0.4-0.4h1.4C15.8,10.3,16,10.5,16,10.7z"/>
</g>
</svg>
