<?xml version="1.0" encoding="utf-8"?>
<!-- Generator: Adobe Illustrator 18.0.0, SVG Export Plug-In . SVG Version: 6.00 Build 0)  -->
<!DOCTYPE svg PUBLIC "-//W3C//DTD SVG 1.1//EN" "http://www.w3.org/Graphics/SVG/1.1/DTD/svg11.dtd">
<svg version="1.1" id="Layer_1" xmlns="http://www.w3.org/2000/svg" xmlns:xlink="http://www.w3.org/1999/xlink" x="0px" y="0px"
	 width="373.3px" height="273.9px" viewBox="0 0 373.3 273.9" enable-background="new 0 0 373.3 273.9" xml:space="preserve">
<rect x="85.2" y="52.6" fill="none" stroke="#F2F2F2" stroke-width="2" stroke-miterlimit="10" stroke-dasharray="3" width="212.3" height="214"/>
<path fill="#FFFFFF" stroke="#36CC89" stroke-width="3" stroke-miterlimit="10" d="M291.5,259.9H304v12.5h-12.5V259.9z"/>
<path fill="#FFFFFF" stroke="#36CC89" stroke-width="3" stroke-miterlimit="10" d="M79,259.9h12.5v12.5H79
	C79,272.4,79,259.9,79,259.9z"/>
<path fill="#FFFFFF" stroke="#36CC89" stroke-width="3" stroke-miterlimit="10" d="M79,46.4h12.5v12.5H79C79,58.9,79,46.4,79,46.4z"
	/>
<path fill="#FFFFFF" stroke="#36CC89" stroke-width="3" stroke-miterlimit="10" d="M291.5,46.4H304v12.5h-12.5V46.4z"/>
<path d="M191,59.4c54.7,0,99,45.2,99,101s-44.3,101-99,101s-99-45.2-99-101S136.3,59.4,191,59.4z"/>
<path fill="none" stroke="#5A5A5A" stroke-width="2" stroke-miterlimit="10" stroke-dasharray="3" d="M244.9,11
	c0,0,24.1-6.1,51.1,22.4"/>
<path fill="none" stroke="#5A5A5A" stroke-width="2" stroke-miterlimit="10" stroke-dasharray="3" d="M27,140.4c26.5,21,52,18,52,18
	"/>
<path fill="none" stroke="#5A5A5A" stroke-width="2" stroke-miterlimit="10" stroke-dasharray="3" d="M359,222.4c0,0-9.1-23-48-28"
	/>
<g>
	<path fill="#FFFFFF" d="M274.8,111.7c1.8,3.1,3.3,6.4,4.8,9.7v-0.1C280,117.3,278.8,113.7,274.8,111.7z"/>
	<path fill="#FFFFFF" d="M102.4,121.3L102.4,121.3c1.4-3.2,3-6.5,4.8-9.6C103.1,113.7,102,117.3,102.4,121.3z"/>
	<path d="M191,254.4L191,254.4L191,254.4v4.8l0,0l0,0V254.4L191,254.4z"/>
	<polygon points="191,125.2 191,125.2 191,125.2 191,125.2 191,125.2 191,117.9 191,117.9 191,117.9 191,125.2 	"/>
	<path fill="#FFFFFF" d="M225.4,124.3c-4.2,1.4-10,8.4-10,8.4s1.7,3.5,10,3.9c4.7,0.2,11.3-3.4,14.8-5.7c6.2-4.1,8.2-9.7,8.2-9.7
		s-8.7,1.4-11.3,1.7C234.4,123.1,229.6,122.9,225.4,124.3z"/>
	<g>
		<g>
			<path fill="#FFFFFF" d="M245.5,245.1l-0.2-1.9c-4.9-28.9-11.3-57-34.1-82.4l-1.4-1.8l0,0l-1.5,1.7l-4.2,4.7l-1.2,1.3l1.1,1.3
				c0,0,1.8,2.2,7.3,10.5c2.6,3.9,10.3,18.2,15.4,37.2c1.1,4.2,2.2,8,3.1,11.3c2.6,9.3,4.5,15.9,4.7,20.7l0.1,3.8"/>
		</g>
	</g>
	<path fill="#FFFFFF" d="M274.1,111.3c-3.6-1.5-7.3-1.1-10,1.4c-2.3,2.1-1.8,5.8-0.6,7.4c2,2.7,4.6,2.7,4.6,2.7s-1.1-0.6-1.2-3
		c-0.1-1.9,1.4-3.5,3.1-3c1.7,0.4,2.6,2.1,2.5,3.7c0,1.8-0.7,3.4-2,4.7c-0.9,0.8-5.6,4.4-13.4-1.9c-1.2-0.9-2.3-3.3-2.3-3.3
		s-6.4,15.1-21.1,20.6c-8.8,3.3-22.7-1.2-22.7-1.2s4.7,2.5,7.6,8.9c2.2,4.9,0.6,8.7,0.6,8.7l13,14c0,0-0.8-4.6,3.7-14.4
		c4.2-9.1,11.1-13.3,14.8-15.2c5.4-2.9,14.5-4.4,20.3-8.9c4.8-3.7,8-7.2,8.5-11.3c-1.4-3.3-3-6.6-4.8-9.7
		C274.6,111.5,274.3,111.4,274.1,111.3z"/>
	<path fill="#FFFFFF" d="M254.5,90.2c-4.6-1.8-12.4-5.2-29.9-7.3c-5-0.6-16.5-2.7-21.7,5.8c-1.6,2.6-2.7,5.1-0.4,10.2
		c2.3,5,6,7.1,8.6,7.9c2.6,0.8,4.7,1.1,8,0.9c2.4-0.2,4-0.7,6.5-2.2c2.4-1.5,3.3-4.2,3.2-6.8c-0.2-3-1.7-5.7-3.8-6.4
		c-3.1-1.1-5.4-0.3-6.9,0.9c-1.5,1.2-2.1,4.7-1.2,5.8c0.9,1.2,0.2,5.7-4.6,2.7c-1.4-0.9-1.9-5.3,0.1-7.7c5.7-6.8,14.7-5.2,19.1-4.7
		c2.7,0.3,12.6,2.9,15.6,3.8c7.4,2.2,12.7,5,14.8,6.2c2.3,1.2,4.5,2,6.4,2.4c-2.3-3.1-4.8-6.1-7.5-9C259,91.9,256.9,91.1,254.5,90.2
		z"/>
	<polygon fill="#FFFFFF" points="195,189.8 200.3,238 220.3,238 205,189.8 	"/>
	<rect x="191" y="247.6" fill="#FFFFFF" width="24.9" height="6.8"/>
	<rect x="191" y="247.6" fill="#FFFFFF" width="0" height="6.8"/>
	<path fill="#FFFFFF" d="M205.6,145.4c-1.4-0.4-2.7-0.4-4.6,0.3c-1.7,0.6-2.9,1.6-3.2,1.9c0.3-0.3,1.8-1.8,2.7-3.2
		c1-1.5,0.1-4.7-1-7c-1.1-2.2-0.8-5-0.8-5l-7.8-7.2l0,0l-7.8,7.2c0,0,0.3,2.8-0.8,5s-2,5.4-1,7c0.9,1.4,2.4,2.9,2.7,3.2
		c-0.3-0.3-1.5-1.3-3.2-1.9c-1.9-0.7-3.2-0.7-4.6-0.3c-3,0.8-4.9,2.4-4.5,6.1c0.3,3.5,4.7,4.5,6.5,2.1c1.1-1.4,0.4-2.1,1.5-1.4
		c0.3,0.2,1.5,8.7,4.9,10.8c2.5,1.6,9.9,1.6,12.5,0c3.3-2.1,4.6-10.6,4.9-10.8c1.2-0.8,0.5,0,1.5,1.4c1.8,2.3,6.2,1.3,6.5-2.1
		C210.5,147.8,208.6,146.2,205.6,145.4z"/>
	<path fill="#FFFFFF" d="M191,164.3v-39.1l0,0l0,0l0,0l0,0l0,0l0,0V164.3L191,164.3L191,164.3z"/>
	<path fill="#FFFFFF" d="M156.6,124.3c-4.2-1.4-9-1.2-11.6-1.4s-11.3-1.7-11.3-1.7s2,5.6,8.2,9.7c3.5,2.3,10.1,5.9,14.8,5.7
		c8.3-0.4,10-3.9,10-3.9S160.7,125.8,156.6,124.3z"/>
	<g>
		<g>
			<path fill="#FFFFFF" d="M147.3,251.4l0.1-3.8c0.2-4.7,2.1-11.4,4.7-20.7c0.9-3.3,2-7.1,3.1-11.3c5.1-19,12.9-33.3,15.4-37.2
				c5.5-8.3,7.3-10.5,7.3-10.6l1.1-1.3l-1.1-1.3l-4.2-4.7l-1.5-1.5l0,0l-1.5,1.7c-22.8,25.4-29.1,53.5-34.1,82.4l-0.2,1.9"/>
		</g>
	</g>
	<polygon fill="#FFFFFF" points="200.6,172.9 191,172.9 181.4,172.9 174.3,182.6 191,182.6 207.7,182.6 	"/>
	<path fill="#FFFFFF" d="M110.9,132.7c5.8,4.5,14.9,6,20.3,8.9c3.7,1.9,10.6,6.1,14.8,15.2c4.5,9.9,3.7,14.4,3.7,14.4l13-14
		c0,0-1.7-3.8,0.6-8.7c2.9-6.3,7.6-8.9,7.6-8.9s-13.9,4.5-22.7,1.2c-14.8-5.6-21.1-20.6-21.1-20.6s-1.1,2.4-2.3,3.3
		c-7.8,6.3-12.5,2.7-13.4,1.9c-1.3-1.4-2-2.9-2-4.7c0-1.6,0.8-3.3,2.5-3.7s3.2,1.1,3.1,3c-0.1,2.4-1.2,3-1.2,3s2.6,0,4.6-2.7
		c1.2-1.6,1.7-5.3-0.6-7.4c-2.8-2.5-6.4-2.9-10-1.4c-0.2,0.1-0.5,0.2-0.7,0.3c-1.8,3.1-3.3,6.4-4.8,9.7
		C102.9,125.5,106.1,129,110.9,132.7z"/>
	<path fill="#FFFFFF" d="M120.1,99.2c2.2-1.2,7.4-3.9,14.8-6.2c3-0.9,12.9-3.5,15.6-3.8c4.3-0.4,13.3-2,19.1,4.7
		c2,2.4,1.5,6.8,0.1,7.7c-4.8,3-5.5-1.5-4.6-2.7s0.3-4.7-1.2-5.8c-1.5-1.2-3.7-2-6.9-0.9c-2.1,0.8-3.7,3.4-3.8,6.4
		c-0.1,2.6,0.8,5.3,3.2,6.8s4.1,2,6.5,2.2c3.3,0.2,5.4,0,8-0.9c2.6-0.8,6.3-2.9,8.6-7.9s1.2-7.6-0.4-10.2
		c-5.2-8.5-16.8-6.4-21.7-5.8c-17.5,2.1-25.3,5.5-29.9,7.3c-2.4,0.9-4.5,1.7-6.3,2.4c-2.7,2.8-5.1,5.8-7.5,9
		C115.6,101.2,117.8,100.4,120.1,99.2z"/>
	<polygon fill="#FFFFFF" points="181.7,238 187,189.8 177,189.8 161.7,238 	"/>
	<rect x="166.1" y="247.6" fill="#FFFFFF" width="24.9" height="6.8"/>
	<rect x="191" y="247.6" fill="#FFFFFF" width="0" height="6.8"/>
	<rect x="191" y="247.6" fill="#FFFFFF" width="0" height="6.8"/>
	<path fill="#FFFFFF" d="M249.2,104.5c-1.8-1.9-4.9-2.2-7.5-1.4c-2.2,0.6-4.2,2.3-4.3,4.8c-0.1,2.1,1.8,3.2,3.7,2.6
		c1.9-0.6,2.8-1.3,2.8-1.3s0.8,1.8-2.4,3.4c-2.5,1.2-6.6,0.8-8.6,0.4c-7.7-1.5-11.4-0.4-17.4,0.8c-18.1,3.6-19.1-14.9-19.1-14.9
		s0.3-10.4,1.6-13.5c1.7-3.9,4-5.9,5.4-6.8l1.4-0.8c0,0-11.7-0.9-12.5-0.9s-1.2,0-1.2,0l0,0l0,0l0,0l0,0c0,0-0.4,0-1.2,0
		s-12.5,0.9-12.5,0.9l1,0.5c1.4,0.8,4,2.8,5.8,7.1c1.4,3.1,1.6,13.5,1.6,13.5s-1,18.4-19.1,14.9c-6-1.2-9.7-2.3-17.4-0.8
		c-2.1,0.4-6.1,0.8-8.6-0.4c-3.3-1.5-2.4-3.4-2.4-3.4s0.9,0.7,2.8,1.3c1.9,0.6,3.8-0.5,3.7-2.6c-0.1-2.5-2.1-4.2-4.3-4.8
		c-2.7-0.8-5.8-0.5-7.5,1.4c-2.2,2.3-2.9,8.7,3.7,11.2c1.8,0.7,5.3,1.9,11.4,1.7c6.8-0.3,16.6,1.3,21.3,6.4c1.6,1.8,4.5,2.7,5.6,2.6
		c1.1-0.1,7.8-0.1,7.8-0.1l8.4-8.3l0,0h0.1l0,0l8.4,8.3c0,0,6.7,0,7.8,0.1s4-0.8,5.6-2.6c4.6-5.2,14.4-6.7,21.3-6.4
		c6.1,0.2,9.6-1,11.4-1.7C252.1,113.2,251.4,106.8,249.2,104.5z"/>
</g>
<path fill="none" stroke="#36CC89" stroke-width="3" stroke-miterlimit="10" stroke-dasharray="12,8" d="M191,53.2
	c58,0,105,48,105,107.2s-47,107.2-105,107.2s-105-48-105-107.2C86,101.2,133,53.2,191,53.2z"/>
<polygon fill="#5A5A5A" points="89.8,160.2 77.8,152 76.9,168.4 "/>
<polygon fill="#5A5A5A" points="306.8,193.7 320.1,187.8 318.1,204.1 "/>
<polygon fill="#5A5A5A" points="299,36.4 296,22.1 283.9,33.3 "/>
<g>
	<path fill="#5A5A5A" d="M186.4,8.2c-0.7-0.1-1.4-0.1-2.1-0.1c-0.7,0-1.4,0-2.1,0.1c-0.9,2.5-1.9,4.4-2.9,5.4
		c-0.4,0.4-0.8,0.7-1.2,0.8c-0.1,0-0.2,0.1-0.3,0.1s-0.2,0-0.3-0.1c-0.1,0-0.2-0.1-0.2-0.1c-0.1-0.1-0.2-0.2-0.2-0.4s0-0.2,0.1-0.3
		c0.9-0.7,1.9-2.3,2.9-5.1c0,0-0.1,0-0.1,0c0,0-0.1,0-0.1,0c-0.1,0-0.1,0-0.2-0.1c-0.1-0.1-0.2-0.1-0.2-0.2
		c-0.1-0.2-0.2-0.4-0.1-0.5c0.2-0.2,0.6-0.3,1.1-0.5c0.8-2.4,1.2-4.1,1.2-5c-0.2,0-0.5,0.1-0.7,0.2L180.5,3c-0.2,0.1-0.4,0-0.7-0.2
		c-0.3-0.2-0.4-0.5-0.4-0.7c0-0.3,0.5-0.6,1.4-0.8c0.3-0.1,0.6-0.1,0.7-0.1c0.2,0,0.4,0,0.5,0c0.2,0,0.3,0,0.5,0.1
		c0.6,0.1,0.9,0.4,1.1,0.7c0.1,0.2,0.1,0.4,0.1,0.6c0,0.2,0,0.5-0.1,0.8c0,0.3-0.1,0.7-0.2,1c-0.2,0.8-0.4,1.7-0.7,2.7
		c1.2-0.1,2.5-0.2,3.9-0.2h0.4l0.5-1.4c0.5-1.6,0.8-2.8,1-3.6c0.1-0.5,0.3-0.7,0.7-0.7c0.3,0,0.5,0.1,0.7,0.2
		c0.3,0.2,0.5,0.5,0.5,0.8c0,0.3-0.1,0.6-0.1,0.9c-0.1,0.3-0.2,0.7-0.3,1.1c-0.1,0.4-0.3,0.9-0.5,1.3l-0.5,1.4l0.2,0
		c0.1,0,0.2,0,0.2,0c0.1,0,0.1,0,0.2,0c0.1,0,0.2,0.1,0.2,0.2s0,0.2-0.1,0.4c-0.1,0.1-0.2,0.2-0.3,0.3c-0.3,0.3-0.6,0.4-1,0.4
		c-0.7,1.8-1.1,3-1.2,3.4c-0.1,0.4-0.2,0.7-0.2,0.8c0,0.3,0.1,0.5,0.4,0.5c0.2,0,0.4,0,0.6-0.1l0.3-0.2c0.1,0,0.1,0,0.2,0
		c0.1,0,0.2,0.1,0.2,0.2c0,0.5-0.3,0.9-0.9,1.3c-0.4,0.2-0.8,0.3-1.2,0.3c-0.6,0-1-0.3-1.2-0.8c-0.1-0.2-0.1-0.3-0.1-0.5
		c0-0.4,0.1-0.7,0.2-1.1c0.1-0.4,0.2-0.8,0.4-1.2L186.4,8.2z"/>
	<path fill="#5A5A5A" d="M196.8,12.2c0,0.5,0.2,0.8,0.6,0.8c0.3,0,0.5,0,0.6-0.1c0.2-0.1,0.3-0.1,0.3-0.1c0.1,0,0.2,0.1,0.2,0.2
		c0,0.5-0.3,0.9-0.8,1.3c-0.5,0.4-1.1,0.5-1.7,0.3c-0.4-0.1-0.6-0.4-0.8-0.8c-0.1-0.2-0.1-0.4-0.1-0.6c0-0.3,0-0.6,0.1-0.9
		c-0.5,1.1-1.2,1.8-2,2.2c-0.3,0.2-0.6,0.2-1,0.2c-0.4,0-0.7-0.1-0.9-0.2c-0.3-0.1-0.5-0.3-0.7-0.6c-0.4-0.5-0.5-1.2-0.5-2
		c0-1,0.3-2,0.9-3c0.5-0.9,1.2-1.7,2-2.2c0.8-0.6,1.5-0.9,2.2-0.9c0.7,0,1.2,0.3,1.7,1c0.4-0.6,0.7-1,1-1c0.3,0,0.6,0.1,0.7,0.2
		c0.3,0.2,0.4,0.4,0.3,0.6c-1.4,2.9-2.2,4.8-2.2,5.5C196.8,11.9,196.8,12.1,196.8,12.2z M192,12.2c0,0.7,0.2,1,0.7,1
		c0.3,0,0.8-0.3,1.2-0.9c0.7-0.8,1.4-2,1.9-3.4c0.2-0.4,0.3-0.9,0.4-1.3c0-0.4-0.2-0.7-0.5-0.9c-0.1-0.1-0.3-0.1-0.5-0.1
		s-0.4,0.1-0.7,0.2s-0.5,0.4-0.8,0.6c-0.3,0.3-0.5,0.6-0.7,0.9c-0.2,0.4-0.4,0.7-0.6,1.1C192.2,10.5,192,11.3,192,12.2z"/>
	<path fill="#5A5A5A" d="M205.8,7.2c-0.2,0-0.4,0.2-0.8,0.5c-0.3,0.3-0.6,0.6-0.8,0.9l-0.7,0.9l-1.4,1.8c-0.3,0.6-0.6,1.2-0.8,1.6
		l-0.5,1c-0.1,0.2-0.2,0.4-0.3,0.5c-0.1,0.1-0.2,0.2-0.4,0.2c-0.2,0-0.3,0-0.4-0.1c-0.1-0.1-0.3-0.1-0.4-0.2
		c-0.2-0.2-0.3-0.4-0.3-0.6c0-0.1,0.1-0.3,0.2-0.5l0.3-0.7c0.1-0.2,0.2-0.5,0.4-0.8l0.5-1.2c0.7-1.7,1-2.8,1-3.3
		c0-0.3-0.1-0.5-0.3-0.6L201,6.5c-0.1,0-0.1-0.1-0.1-0.2s0-0.2,0.1-0.3s0.2-0.2,0.3-0.2c0.3-0.1,0.5-0.2,0.8-0.2
		c0.3,0,0.5,0,0.6,0.1c0.1,0.1,0.3,0.1,0.4,0.2c0.2,0.2,0.3,0.4,0.3,0.6c0,0.2,0,0.4-0.1,0.7c-0.1,0.2-0.1,0.4-0.2,0.7
		s-0.2,0.4-0.3,0.7c-0.1,0.2-0.2,0.4-0.2,0.6l-0.2,0.4c0,0.1-0.1,0.1,0,0.1c0.6-0.9,1.1-1.4,1.3-1.7l0.6-0.7c0.4-0.5,0.8-0.9,1-1
		c0.5-0.3,0.9-0.5,1.2-0.5c0.3,0,0.5,0,0.7,0.1s0.4,0.2,0.5,0.3c0.3,0.3,0.5,0.7,0.5,1.1c0,0.5-0.1,0.9-0.3,1.4
		c-0.2,0.5-0.4,0.9-0.5,1.2s-0.3,0.6-0.4,0.9c-0.4,1-0.6,1.6-0.6,2.1c0,0.2,0.2,0.3,0.5,0.3c0.2,0,0.5-0.1,0.7-0.2
		c0.2-0.1,0.3-0.2,0.4-0.2c0.1,0,0.2,0.1,0.2,0.2c0,0.5-0.3,0.9-0.8,1.3c-0.3,0.2-0.7,0.4-1,0.4c-0.3,0-0.5,0-0.7-0.1
		c-0.2-0.1-0.4-0.2-0.5-0.3c-0.3-0.3-0.5-0.7-0.5-1.3c0-0.7,0.2-1.5,0.6-2.5c0.3-0.7,0.5-1.1,0.6-1.4l0.3-0.6
		c0.2-0.4,0.3-0.7,0.3-0.9S206.1,7.2,205.8,7.2z"/>
	<path fill="#5A5A5A" d="M218.1,12.7c0.1,0,0.2,0.1,0.2,0.2c0,0.5-0.3,0.9-0.8,1.3c-0.3,0.2-0.7,0.4-1,0.4c-0.3,0-0.5,0-0.7-0.1
		c-0.2-0.1-0.3-0.2-0.5-0.3c-0.3-0.3-0.5-0.8-0.5-1.4c0-0.1,0-0.3,0.1-0.6c-0.5,0.7-0.9,1.2-1.2,1.5c-0.7,0.6-1.3,0.9-2,0.9
		c-1,0-1.7-0.5-2-1.4c-0.1-0.3-0.2-0.8-0.2-1.3c0-0.5,0.1-1,0.2-1.5s0.4-1,0.6-1.5c0.3-0.5,0.6-0.9,0.9-1.3c0.4-0.4,0.7-0.8,1.1-1
		c0.8-0.6,1.6-0.9,2.3-0.9c0.7,0,1.2,0.3,1.6,0.8c1-3.4,1.7-5.4,2.2-6c0.2-0.3,0.4-0.4,0.7-0.4c0.4,0,0.7,0.1,0.9,0.3
		c0.1,0.1,0.1,0.1,0.1,0.2s0,0.2-0.1,0.4c-0.1,0.2-0.2,0.5-0.4,1c-0.5,1.3-0.9,2.3-1.1,2.9c-0.5,1.6-0.9,2.7-1.1,3.3l-0.5,1.6
		c-0.4,1.4-0.6,2.3-0.6,2.7s0.1,0.6,0.4,0.6c0.3,0,0.5,0,0.6-0.1l0.3-0.2C217.9,12.7,218,12.7,218.1,12.7z M212.2,13.3
		c0.6,0,1.3-0.6,2-1.7c0.8-1.2,1.3-2.5,1.7-3.9c0-0.4-0.2-0.7-0.5-0.9c-0.1-0.1-0.3-0.1-0.5-0.1c-0.2,0-0.5,0.1-0.7,0.2
		c-0.3,0.2-0.5,0.4-0.8,0.6c-0.3,0.3-0.5,0.6-0.7,0.9s-0.4,0.7-0.6,1.1c-0.4,0.8-0.5,1.7-0.5,2.5C211.5,12.8,211.7,13.3,212.2,13.3z
		"/>
	<path fill="#5A5A5A" d="M219.7,14.1c-0.1-0.1-0.3-0.3-0.3-0.6c-0.1-0.2-0.1-0.5-0.1-0.8s0.1-0.7,0.2-1.2c0.1-0.5,0.3-1.1,0.5-1.8
		l0.7-2.1c1-3,1.6-5.3,1.8-6.9c0.1-0.5,0.3-0.7,0.7-0.7c0.3,0,0.5,0.1,0.7,0.2c0.3,0.3,0.5,0.5,0.5,0.8c0,0.3-0.1,0.7-0.2,1.1
		c-0.1,0.4-0.2,0.9-0.4,1.4s-0.3,1.1-0.5,1.7L222,8.7c-0.7,2-1,3.3-1,3.8c0,0.3,0.1,0.5,0.4,0.5c0.2,0,0.5-0.1,0.7-0.2
		c0.2-0.1,0.3-0.2,0.4-0.2c0.1,0,0.2,0.1,0.2,0.2c0,0.5-0.3,0.9-0.8,1.3c-0.3,0.2-0.7,0.4-1,0.4c-0.3,0-0.5,0-0.7-0.1
		C220,14.4,219.8,14.3,219.7,14.1z"/>
	<path fill="#5A5A5A" d="M224.3,11.5c0-0.5,0.1-1,0.2-1.4c0.1-0.5,0.3-0.9,0.6-1.3c0.2-0.4,0.5-0.8,0.8-1.2c0.3-0.4,0.7-0.7,1.1-1
		c0.8-0.6,1.6-0.9,2.5-0.9c1,0,1.6,0.4,2,1.2c0.1,0.3,0.2,0.6,0.2,1c0,0.4-0.1,0.7-0.2,1c-0.1,0.3-0.3,0.6-0.6,0.9
		c-0.2,0.3-0.5,0.5-0.9,0.7c-0.3,0.2-0.7,0.4-1.1,0.5c-0.8,0.3-1.7,0.4-2.6,0.4c0,0.1,0,0.2,0,0.4c0,0.2,0,0.3,0.1,0.5
		c0,0.2,0.1,0.4,0.2,0.5c0.2,0.3,0.5,0.5,0.9,0.5c0.7,0,1.3-0.2,1.9-0.6c0.2-0.1,0.4-0.3,0.5-0.4c0.1-0.1,0.3-0.2,0.4-0.2
		c0.1,0,0.2,0.1,0.3,0.2c0.1,0.1,0.1,0.3,0.1,0.4c0,0.3-0.1,0.6-0.3,0.8c-0.7,0.7-1.8,1.1-3.2,1.1c-0.8,0-1.5-0.3-2-0.8
		C224.5,13.2,224.2,12.4,224.3,11.5z M229.3,6.7c-0.6,0-1.2,0.4-1.7,1.2c-0.5,0.7-0.8,1.5-1.1,2.5c1-0.1,1.8-0.5,2.5-1.1
		c0.6-0.6,1-1.2,1-1.8C229.9,7,229.7,6.7,229.3,6.7z"/>
	<path fill="#5A5A5A" d="M232.5,14.2c-0.1-0.1-0.2-0.2-0.3-0.3c-0.1-0.1-0.1-0.2-0.1-0.3s0-0.2,0-0.3c0-0.1,0.1-0.2,0.1-0.4
		c1.2-2.9,1.7-4.8,1.7-5.8c0-0.3-0.1-0.5-0.3-0.6l-0.2-0.1c-0.1,0-0.1-0.1-0.1-0.2s0-0.2,0.1-0.3s0.2-0.2,0.3-0.2
		c0.2-0.1,0.5-0.2,0.8-0.2s0.5,0,0.6,0.1c0.1,0.1,0.3,0.1,0.4,0.2c0.2,0.2,0.3,0.4,0.3,0.7s0,0.5-0.1,0.7c-0.1,0.2-0.1,0.5-0.2,0.7
		c-0.1,0.2-0.1,0.4-0.2,0.6c-0.1,0.2-0.1,0.4-0.1,0.5c0,0.2-0.1,0.3-0.1,0.4c0.1-0.1,0.2-0.2,0.2-0.4l0.3-0.6
		c0.7-1.3,1.5-2.2,2.2-2.7c0.2-0.1,0.5-0.2,0.7-0.2c0.3,0,0.5,0.1,0.7,0.3c0.2,0.2,0.3,0.4,0.3,0.7s0,0.4-0.1,0.6
		c0,0.2-0.1,0.3-0.2,0.5c-0.2,0.3-0.4,0.5-0.7,0.5c-0.1,0-0.1,0-0.2-0.1l-0.2-0.2c-0.2-0.2-0.4-0.2-0.5-0.2c-0.2,0-0.4,0.1-0.6,0.3
		c-0.2,0.2-0.5,0.5-0.8,0.9c-0.9,1.2-1.6,2.5-2.2,4l-0.4,1c-0.1,0.2-0.2,0.4-0.3,0.5c-0.1,0.1-0.2,0.2-0.3,0.2c-0.1,0-0.3,0-0.4-0.1
		S232.6,14.3,232.5,14.2z"/>
</g>
<g>
	<path fill="#5A5A5A" d="M3.1,127.8c-0.4,0.6-0.8,1.2-1.3,1.6c-0.4,0.4-0.8,0.6-1.2,0.6c-0.2,0-0.3,0-0.4-0.1
		c-0.2-0.1-0.2-0.3-0.2-0.4s0-0.2,0.1-0.3c0.9-0.6,1.8-2.5,2.9-5.5l0.5-1.4c0.6-1.6,1.1-2.7,1.5-3.1c0.1-0.1,0.3-0.2,0.4-0.2
		s0.3,0,0.4,0.1s0.2,0.1,0.3,0.2c0.2,0.2,0.3,0.4,0.3,0.6c0,0.1,0,0.2-0.1,0.4c-0.1,0.2-0.2,0.4-0.3,0.6l-1.1,3
		c1.4-0.3,2.5-0.8,3.4-1.7c0.8-0.8,1.3-1.7,1.3-2.6c0-0.8-0.4-1.4-1.1-1.7c-0.3-0.1-0.6-0.1-0.9-0.1c-0.3,0-0.7,0-1,0.1
		c-0.4,0.1-0.7,0.2-1,0.3c-0.7,0.3-1.3,0.6-1.7,1c-0.1,0.1-0.2,0.2-0.4,0.2s-0.3,0-0.4-0.1c-0.1-0.1-0.2-0.1-0.3-0.2
		c-0.2-0.2-0.3-0.4-0.3-0.6c0-0.2,0.1-0.4,0.2-0.6c0.1-0.2,0.3-0.3,0.6-0.5s0.5-0.3,0.8-0.4c0.3-0.1,0.6-0.2,1-0.3
		c0.7-0.1,1.4-0.2,2-0.2s1.3,0.1,1.9,0.3s1,0.4,1.4,0.7c0.7,0.6,1.1,1.3,1.1,2.2v0.1c-0.1,1.1-0.5,2-1.2,2.9
		c-0.7,0.7-1.5,1.3-2.6,1.7c-1,0.4-1.9,0.6-2.7,0.6H4.7c-0.1,0-0.1,0-0.2,0C4,126.2,3.6,127.2,3.1,127.8z"/>
	<path fill="#5A5A5A" d="M11,129.7c-0.1-0.1-0.2-0.2-0.3-0.3c-0.1-0.1-0.1-0.2-0.1-0.3s0-0.2,0-0.3c0-0.1,0.1-0.2,0.1-0.4
		c1.2-2.9,1.7-4.8,1.7-5.8c0-0.3-0.1-0.5-0.3-0.6l-0.2-0.1c-0.1,0-0.1-0.1-0.1-0.2s0-0.2,0.1-0.3s0.2-0.2,0.3-0.2
		c0.2-0.1,0.5-0.2,0.8-0.2c0.3,0,0.5,0,0.6,0.1c0.1,0.1,0.3,0.1,0.4,0.2c0.2,0.2,0.3,0.4,0.3,0.7s0,0.5-0.1,0.7s-0.1,0.5-0.2,0.7
		c-0.1,0.2-0.1,0.4-0.2,0.6c-0.1,0.2-0.1,0.4-0.1,0.5c0,0.2-0.1,0.3-0.1,0.4c0.1-0.1,0.2-0.2,0.2-0.4l0.3-0.6
		c0.7-1.3,1.5-2.2,2.2-2.7c0.2-0.1,0.5-0.2,0.7-0.2s0.5,0.1,0.7,0.3c0.2,0.2,0.3,0.4,0.3,0.7c0,0.2,0,0.4-0.1,0.6
		c0,0.2-0.1,0.3-0.2,0.5c-0.2,0.3-0.4,0.5-0.7,0.5c-0.1,0-0.1,0-0.2-0.1l-0.2-0.2c-0.2-0.2-0.4-0.2-0.5-0.2s-0.4,0.1-0.6,0.3
		s-0.5,0.5-0.8,0.9c-0.9,1.2-1.6,2.5-2.2,4l-0.4,1c-0.1,0.2-0.2,0.4-0.3,0.5c-0.1,0.1-0.2,0.2-0.3,0.2c-0.1,0-0.3,0-0.4-0.1
		S11.1,129.8,11,129.7z"/>
	<path fill="#5A5A5A" d="M18.2,126.9c0-0.5,0.1-1,0.2-1.4c0.1-0.5,0.3-0.9,0.6-1.3c0.2-0.4,0.5-0.8,0.8-1.2s0.7-0.7,1.1-1
		c0.8-0.6,1.6-0.9,2.5-0.9c1,0,1.6,0.4,2,1.2c0.1,0.3,0.2,0.6,0.2,1c0,0.4-0.1,0.7-0.2,1c-0.1,0.3-0.3,0.6-0.6,0.9
		c-0.2,0.3-0.5,0.5-0.9,0.7c-0.3,0.2-0.7,0.4-1.1,0.5c-0.8,0.3-1.7,0.4-2.6,0.4c0,0.1,0,0.2,0,0.4c0,0.2,0,0.3,0.1,0.5
		c0,0.2,0.1,0.4,0.2,0.5c0.2,0.3,0.5,0.5,0.9,0.5c0.7,0,1.3-0.2,1.9-0.6c0.2-0.1,0.4-0.3,0.5-0.4c0.1-0.1,0.3-0.2,0.4-0.2
		c0.1,0,0.2,0.1,0.3,0.2c0.1,0.1,0.1,0.3,0.1,0.4c0,0.3-0.1,0.6-0.3,0.8c-0.7,0.7-1.8,1.1-3.2,1.1c-0.8,0-1.5-0.3-2-0.8
		C18.4,128.7,18.2,127.9,18.2,126.9z M23.2,122.2c-0.6,0-1.2,0.4-1.7,1.2c-0.5,0.7-0.8,1.5-1.1,2.5c1-0.1,1.8-0.5,2.5-1.1
		c0.6-0.6,1-1.2,1-1.8C23.8,122.5,23.6,122.2,23.2,122.2z"/>
	<path fill="#5A5A5A" d="M26.4,129.1c-0.1-0.2-0.1-0.4-0.1-0.7c0-0.3,0-0.5,0.1-0.9c0.1-0.3,0.2-0.6,0.3-1c0.1-0.3,0.3-0.7,0.4-1
		l0.4-1c0.6-1.3,0.8-2.1,0.6-2.3c-0.1-0.1-0.2-0.2-0.4-0.3c-0.1,0-0.1-0.1-0.1-0.2s0-0.2,0.1-0.3c0.1-0.1,0.2-0.2,0.3-0.2
		c0.3-0.1,0.6-0.2,0.8-0.2c0.3,0,0.5,0,0.6,0.1c0.1,0.1,0.3,0.1,0.4,0.2c0.2,0.2,0.3,0.4,0.3,0.7c0,0.3-0.1,0.6-0.2,0.9
		c-0.1,0.3-0.2,0.7-0.4,1.1s-0.3,0.8-0.5,1.1l-0.5,1.1c-0.4,0.8-0.5,1.4-0.5,1.6c0,0.5,0.2,0.8,0.6,0.8c1,0,1.8-0.6,2.7-1.7
		c0.5-0.7,0.8-1.4,1-2.1c0.1-0.4,0.1-0.7,0.1-1c0-0.3,0-0.5,0-0.8c0-0.2-0.1-0.4-0.1-0.5c-0.1-0.3-0.2-0.5-0.4-0.7
		c-0.1-0.1-0.1-0.3,0.2-0.5c0.3-0.2,0.6-0.3,1.1-0.3c0.3,0,0.5,0.1,0.8,0.4c0.3,0.3,0.4,0.8,0.4,1.4s-0.1,1.2-0.3,1.8
		s-0.4,1.1-0.7,1.7c-0.3,0.5-0.7,1-1.1,1.5c-0.4,0.5-0.9,0.9-1.4,1.2c-1,0.7-2.1,1.1-3.1,1.1C27.2,130,26.7,129.7,26.4,129.1z"/>
	<path fill="#5A5A5A" d="M38.2,128.3c0.1,0,0.2,0.1,0.2,0.3c0,0.3-0.1,0.5-0.4,0.8c-0.3,0.4-0.8,0.6-1.4,0.6c-0.7,0-1.1-0.3-1.4-0.8
		c-0.1-0.2-0.1-0.4-0.1-0.7s0-0.6,0.1-0.9c0.1-0.3,0.2-0.7,0.4-1c0.1-0.4,0.3-0.7,0.5-1.1l0.5-1.1c0.3-0.8,0.5-1.3,0.5-1.6
		c0-0.3,0-0.4-0.1-0.5c-0.1-0.1-0.1-0.1-0.2-0.2l-0.2-0.1c-0.1,0-0.1-0.1-0.1-0.2s0-0.2,0.1-0.3s0.2-0.2,0.3-0.2
		c0.3-0.1,0.6-0.2,0.9-0.2c0.8,0,1.3,0.2,1.3,0.7c0,0.5-0.1,1.1-0.4,1.8c-0.3,0.7-0.5,1.2-0.7,1.6l-0.5,1.2
		c-0.4,0.9-0.6,1.5-0.6,1.9c0,0.3,0.1,0.4,0.4,0.4c0.2,0,0.4,0,0.6-0.1C38.1,128.3,38.2,128.3,38.2,128.3z M40,119
		c-0.1,0.1-0.3,0.2-0.4,0.3s-0.3,0.1-0.5,0.2s-0.3,0-0.5-0.1s-0.3-0.2-0.4-0.3c-0.2-0.3-0.4-0.6-0.4-0.9c0-0.3,0-0.5,0.1-0.7
		c0.1-0.1,0.2-0.3,0.4-0.4c0.3-0.2,0.5-0.3,0.8-0.3c0.2,0,0.4,0,0.6,0.1s0.3,0.1,0.4,0.2c0.3,0.2,0.4,0.4,0.4,0.7
		c0,0.3,0,0.5-0.1,0.7C40.2,118.7,40.1,118.9,40,119z"/>
	<path fill="#5A5A5A" d="M40.5,126.9c0-0.5,0.1-1,0.2-1.4c0.1-0.5,0.3-0.9,0.6-1.3c0.2-0.4,0.5-0.8,0.8-1.2s0.7-0.7,1.1-1
		c0.8-0.6,1.6-0.9,2.5-0.9c1,0,1.6,0.4,2,1.2c0.1,0.3,0.2,0.6,0.2,1c0,0.4-0.1,0.7-0.2,1c-0.1,0.3-0.3,0.6-0.6,0.9
		c-0.2,0.3-0.5,0.5-0.9,0.7c-0.3,0.2-0.7,0.4-1.1,0.5c-0.8,0.3-1.7,0.4-2.6,0.4c0,0.1,0,0.2,0,0.4c0,0.2,0,0.3,0.1,0.5
		c0,0.2,0.1,0.4,0.2,0.5c0.2,0.3,0.5,0.5,0.9,0.5c0.7,0,1.3-0.2,1.9-0.6c0.2-0.1,0.4-0.3,0.5-0.4c0.1-0.1,0.3-0.2,0.4-0.2
		c0.1,0,0.2,0.1,0.3,0.2c0.1,0.1,0.1,0.3,0.1,0.4c0,0.3-0.1,0.6-0.3,0.8c-0.7,0.7-1.8,1.1-3.2,1.1c-0.8,0-1.5-0.3-2-0.8
		C40.7,128.7,40.4,127.9,40.5,126.9z M45.5,122.2c-0.6,0-1.2,0.4-1.7,1.2c-0.5,0.7-0.8,1.5-1.1,2.5c1-0.1,1.8-0.5,2.5-1.1
		c0.6-0.6,1-1.2,1-1.8C46.1,122.5,45.9,122.2,45.5,122.2z"/>
	<path fill="#5A5A5A" d="M51.5,128.9c-0.8,0.7-1.4,1-1.8,1s-0.8-0.2-0.9-0.7c-0.1-0.2-0.1-0.3-0.1-0.4c0-0.4,0.1-0.7,0.2-1.1
		s0.2-0.7,0.3-1l0.8-1.9c0.3-0.8,0.5-1.3,0.5-1.7c0.1-0.3,0.1-0.5,0-0.6s-0.2-0.2-0.3-0.3c-0.1-0.1-0.2-0.2-0.3-0.2
		s-0.1-0.1-0.1-0.2s0-0.2,0.1-0.3c0.1-0.1,0.2-0.2,0.3-0.2c0.3-0.1,0.6-0.2,0.9-0.2c0.3,0,0.5,0,0.7,0.1s0.3,0.1,0.4,0.2
		c0.2,0.2,0.3,0.4,0.3,0.7c0,0.3,0,0.6-0.1,0.9c-0.1,0.3-0.2,0.7-0.3,1.1c-0.1,0.4-0.3,0.8-0.5,1.2l-0.5,1.2c-0.4,1-0.6,1.7-0.7,2.1
		c0.5-0.2,1.2-0.8,2.1-2c1-1.2,1.8-2.7,2.6-4.2c0.1-0.2,0.2-0.3,0.3-0.4c0.2-0.1,0.5-0.1,0.8-0.1c0.5,0,0.8,0.2,0.8,0.5
		c0,0.2,0,0.4-0.1,0.6c-0.1,0.2-0.2,0.4-0.3,0.5l-0.3,0.7c-0.7,1.4-1,2.5-1,3.3c0,0.6,0.2,1,0.5,1.2c0.1,0.1,0.2,0.1,0.4,0.1
		c0.2,0,0.4-0.1,0.7-0.2c0.3-0.1,0.5-0.3,0.7-0.6s0.5-0.5,0.7-0.8c0.2-0.3,0.4-0.6,0.5-1c0.3-0.7,0.5-1.4,0.5-2c0-1-0.2-1.7-0.6-2.2
		c-0.1-0.1-0.1-0.3,0.1-0.5c0.2-0.2,0.5-0.3,1-0.3c0.6,0,0.9,0.3,1.1,0.9c0.1,0.2,0.1,0.6,0.1,1.1c0,0.5-0.1,1-0.2,1.6
		s-0.4,1.1-0.7,1.7c-0.3,0.5-0.6,1-1,1.5c-0.4,0.5-0.8,0.9-1.2,1.2c-0.9,0.7-1.7,1.1-2.4,1.1c-1.3,0-1.9-0.8-1.9-2.5
		c0-0.4,0-0.7,0.1-1.1C53,127.4,52.3,128.2,51.5,128.9z"/>
</g>
<g>
	<path fill="#5A5A5A" d="M348.7,230.4c-0.8,0-1.5,0.9-2.3,2.8l-1.4,3.6c-0.9,2.3-1.8,3.8-2.6,4.5c1.2-0.4,2.6-0.7,4.2-0.8
		c0.2,0,0.5,0,0.7,0c0.2,0,0.5,0,0.7,0.1c0.2,0.1,0.5,0.2,0.6,0.3c0.4,0.3,0.6,0.7,0.6,1.3c0,0.3-0.1,0.5-0.3,0.5
		c-0.1,0-0.2,0-0.4-0.1c-0.1-0.1-0.3-0.1-0.4-0.2c-0.2-0.1-0.3-0.1-0.5-0.2c-0.5-0.1-0.9-0.2-1.4-0.2c-0.5,0-0.9,0-1.4,0.1
		c-0.4,0.1-0.9,0.1-1.3,0.2l-1.1,0.2c-0.3,0.1-0.6,0.1-0.8,0.1c-0.2,0-0.3,0-0.4-0.1c-0.1-0.1-0.2-0.2-0.3-0.3
		c-0.2-0.3-0.3-0.5-0.3-0.6c0-0.3,0.1-0.4,0.2-0.5c0.5-0.3,1-1.3,1.7-3.1c0.6-1.6,1-2.7,1.2-3.3c0.2-0.6,0.4-1.1,0.7-1.6
		c0.3-0.5,0.5-1,0.8-1.5c0.3-0.5,0.6-0.9,1-1.2c0.8-0.8,1.6-1.1,2.5-1.1c0.6,0,1.2,0.3,1.6,0.8c0.4,0.5,0.6,1.1,0.6,1.8
		c0,0.9-0.3,1.8-1,2.8c-0.4,0.6-0.8,1-1.3,1.2c-0.2,0.1-0.4,0.2-0.6,0.2c-0.2,0-0.3,0-0.5-0.1c-0.1-0.1-0.3-0.2-0.4-0.3
		c-0.2-0.2-0.3-0.4-0.3-0.6c0-0.2,0-0.3,0.1-0.4c0.7-0.4,1.3-0.9,1.8-1.5c0.5-0.6,0.8-1.3,0.8-1.9
		C349.6,230.7,349.3,230.4,348.7,230.4z"/>
	<path fill="#5A5A5A" d="M353.6,241c0.1,0,0.2,0.1,0.2,0.3c0,0.3-0.1,0.5-0.4,0.8c-0.3,0.4-0.8,0.6-1.4,0.6c-0.7,0-1.1-0.3-1.4-0.8
		c-0.1-0.2-0.1-0.4-0.1-0.7s0-0.6,0.1-0.9c0.1-0.3,0.2-0.7,0.4-1c0.1-0.4,0.3-0.7,0.5-1.1l0.5-1.1c0.3-0.8,0.5-1.3,0.5-1.6
		c0-0.3,0-0.4-0.1-0.5s-0.1-0.1-0.2-0.2l-0.2-0.1c-0.1,0-0.1-0.1-0.1-0.2c0-0.1,0-0.2,0.1-0.3c0.1-0.1,0.2-0.2,0.3-0.2
		c0.3-0.1,0.6-0.2,0.9-0.2c0.8,0,1.3,0.2,1.3,0.7c0,0.5-0.1,1.1-0.4,1.8c-0.3,0.7-0.5,1.2-0.7,1.6l-0.5,1.2
		c-0.4,0.9-0.6,1.5-0.6,1.9c0,0.3,0.1,0.4,0.4,0.4c0.2,0,0.4,0,0.6-0.1C353.5,241,353.6,241,353.6,241z M355.4,231.7
		c-0.1,0.1-0.3,0.2-0.4,0.3s-0.3,0.1-0.5,0.2c-0.2,0-0.3,0-0.5-0.1s-0.3-0.2-0.4-0.3c-0.2-0.3-0.4-0.6-0.4-0.9c0-0.3,0-0.5,0.1-0.7
		c0.1-0.1,0.2-0.3,0.4-0.4c0.3-0.2,0.5-0.3,0.8-0.3s0.4,0,0.6,0.1c0.1,0,0.3,0.1,0.4,0.2c0.3,0.2,0.4,0.4,0.4,0.7
		c0,0.3,0,0.5-0.1,0.7S355.5,231.6,355.4,231.7z"/>
	<path fill="#5A5A5A" d="M361.9,235.4c-0.2,0-0.4,0.2-0.8,0.5c-0.3,0.3-0.6,0.7-0.8,0.9l-0.7,0.9l-1.4,1.8c-0.3,0.6-0.6,1.2-0.8,1.6
		l-0.5,1c-0.1,0.2-0.2,0.4-0.3,0.5c-0.1,0.1-0.2,0.2-0.4,0.2s-0.3,0-0.4-0.1c-0.1-0.1-0.3-0.1-0.4-0.2c-0.2-0.2-0.3-0.4-0.3-0.6
		c0-0.1,0.1-0.3,0.2-0.5l0.3-0.7c0.1-0.2,0.2-0.5,0.4-0.8l0.5-1.2c0.7-1.7,1-2.8,1-3.3c0-0.3-0.1-0.5-0.3-0.6l-0.2-0.1
		c-0.1,0-0.1-0.1-0.1-0.2c0-0.1,0-0.2,0.1-0.3c0.1-0.1,0.2-0.2,0.3-0.2c0.3-0.1,0.5-0.2,0.8-0.2s0.5,0,0.6,0.1
		c0.1,0.1,0.3,0.1,0.4,0.2c0.2,0.2,0.3,0.4,0.3,0.6c0,0.2,0,0.4-0.1,0.7s-0.1,0.4-0.2,0.7c-0.1,0.2-0.2,0.4-0.3,0.7
		c-0.1,0.2-0.2,0.4-0.2,0.6l-0.2,0.4c0,0.1-0.1,0.1,0,0.1c0.6-0.9,1.1-1.4,1.3-1.7l0.6-0.7c0.4-0.5,0.8-0.9,1-1
		c0.5-0.3,0.9-0.5,1.2-0.5c0.3,0,0.5,0,0.7,0.1s0.4,0.2,0.5,0.3c0.3,0.3,0.5,0.7,0.5,1.1s-0.1,0.9-0.3,1.4c-0.2,0.5-0.4,0.9-0.5,1.2
		s-0.3,0.6-0.4,0.9c-0.4,1-0.6,1.6-0.6,2.1c0,0.2,0.2,0.3,0.5,0.3c0.2,0,0.5-0.1,0.7-0.2c0.2-0.1,0.3-0.2,0.4-0.2
		c0.1,0,0.2,0.1,0.2,0.2c0,0.5-0.3,0.9-0.8,1.3c-0.3,0.2-0.7,0.4-1,0.4c-0.3,0-0.5,0-0.7-0.1s-0.4-0.2-0.5-0.3
		c-0.3-0.3-0.5-0.7-0.5-1.3c0-0.7,0.2-1.5,0.6-2.5c0.3-0.7,0.5-1.1,0.6-1.4l0.3-0.6c0.2-0.4,0.3-0.7,0.3-0.9
		C362.4,235.5,362.3,235.4,361.9,235.4z"/>
	<path fill="#5A5A5A" d="M365.7,239.6c0-0.5,0.1-1,0.2-1.4s0.3-0.9,0.6-1.3c0.2-0.4,0.5-0.8,0.8-1.2c0.3-0.4,0.7-0.7,1-1
		c0.8-0.6,1.6-0.9,2.5-0.9c1,0,1.6,0.4,2,1.2c0.1,0.3,0.2,0.6,0.2,1s-0.1,0.7-0.2,1c-0.1,0.3-0.3,0.6-0.6,0.9
		c-0.2,0.3-0.5,0.5-0.9,0.7s-0.7,0.4-1.1,0.5c-0.8,0.3-1.7,0.4-2.6,0.4c0,0.1,0,0.2,0,0.4c0,0.2,0,0.3,0.1,0.5s0.1,0.4,0.2,0.5
		c0.2,0.3,0.5,0.5,0.9,0.5c0.7,0,1.3-0.2,1.9-0.6c0.2-0.1,0.4-0.3,0.5-0.4c0.1-0.1,0.3-0.2,0.4-0.2s0.2,0.1,0.3,0.2
		c0.1,0.1,0.1,0.3,0.1,0.4c0,0.3-0.1,0.6-0.3,0.8c-0.7,0.7-1.8,1.1-3.2,1.1c-0.8,0-1.5-0.3-2-0.8
		C365.9,241.4,365.7,240.6,365.7,239.6z M370.7,234.9c-0.6,0-1.2,0.4-1.7,1.2c-0.5,0.7-0.8,1.5-1.1,2.5c1-0.1,1.8-0.5,2.5-1.1
		c0.6-0.6,1-1.2,1-1.8C371.3,235.2,371.1,234.9,370.7,234.9z"/>
</g>
</svg>
