<?xml version="1.0" encoding="utf-8"?>
<!-- Generator: Adobe Illustrator 18.0.0, SVG Export Plug-In . SVG Version: 6.00 Build 0)  -->
<!DOCTYPE svg PUBLIC "-//W3C//DTD SVG 1.1//EN" "http://www.w3.org/Graphics/SVG/1.1/DTD/svg11.dtd">
<svg version="1.1" id="Layer_1" xmlns="http://www.w3.org/2000/svg" xmlns:xlink="http://www.w3.org/1999/xlink" x="0px" y="0px"
	 width="16px" height="16px" viewBox="0 0 16 16" enable-background="new 0 0 16 16" xml:space="preserve">
<g>
	<path fill="#FFFFFF" d="M14.8,16c-0.3,0-0.6-0.1-0.9-0.4l-3.3-3.3c-1.1,0.8-2.5,1.2-3.8,1.2C3,13.5,0,10.5,0,6.8C0,3,3,0,6.8,0
		c3.7,0,6.8,3,6.8,6.8c0,1.4-0.4,2.7-1.2,3.8l3.3,3.3c0.2,0.2,0.4,0.5,0.4,0.9C16,15.5,15.5,16,14.8,16z M6.8,2.5
		c-2.4,0-4.3,1.9-4.3,4.3c0,2.4,1.9,4.3,4.3,4.3c2.4,0,4.3-1.9,4.3-4.3C11.1,4.4,9.1,2.5,6.8,2.5z"/>
</g>
<path fill="#FFFFFF" d="M9.3,7.5c0,0.2-0.1,0.3-0.3,0.3H4.5c-0.2,0-0.3-0.1-0.3-0.3V6.1c0-0.2,0.1-0.3,0.3-0.3H9
	c0.2,0,0.3,0.1,0.3,0.3V7.5z"/>
</svg>
