<?xml version="1.0" encoding="utf-8"?>
<!-- Generator: Adobe Illustrator 18.0.0, SVG Export Plug-In . SVG Version: 6.00 Build 0)  -->
<!DOCTYPE svg PUBLIC "-//W3C//DTD SVG 1.1//EN" "http://www.w3.org/Graphics/SVG/1.1/DTD/svg11.dtd">
<svg version="1.1" id="Layer_1" xmlns="http://www.w3.org/2000/svg" xmlns:xlink="http://www.w3.org/1999/xlink" x="0px" y="0px"
	 width="16px" height="16px" viewBox="0 0 16 16" enable-background="new 0 0 16 16" xml:space="preserve">
<g>
	<path fill="#FFFFFF" d="M3.9,7.4L4.3,7c0.1-0.1,0.3-0.2,0.5-0.2S5.2,6.8,5.3,7l1.6,1.6V4.7c0-0.4,0.3-0.6,0.7-0.6h0.7
		c0.4,0,0.7,0.2,0.7,0.6v3.9L10.7,7c0.1-0.1,0.3-0.2,0.5-0.2c0.2,0,0.4,0.1,0.5,0.2l0.4,0.4c0.1,0.1,0.2,0.3,0.2,0.5
		c0,0.2-0.1,0.4-0.2,0.5L8.5,12c-0.1,0.1-0.3,0.2-0.5,0.2c-0.2,0-0.4-0.1-0.5-0.2L3.9,8.4C3.8,8.3,3.7,8.1,3.7,7.9
		C3.7,7.7,3.8,7.5,3.9,7.4z"/>
</g>
</svg>
