<?xml version="1.0" encoding="utf-8"?>
<!-- Generator: Adobe Illustrator 18.0.0, SVG Export Plug-In . SVG Version: 6.00 Build 0)  -->
<!DOCTYPE svg PUBLIC "-//W3C//DTD SVG 1.1//EN" "http://www.w3.org/Graphics/SVG/1.1/DTD/svg11.dtd">
<svg version="1.1" id="Layer_1" xmlns="http://www.w3.org/2000/svg" xmlns:xlink="http://www.w3.org/1999/xlink" x="0px" y="0px"
	 width="16px" height="16px" viewBox="0 0 16 16" enable-background="new 0 0 16 16" xml:space="preserve">
<g enable-background="new    ">
	<path fill="#FFFFFF" d="M1.5,8c0-3.7,3-6.5,6.5-6.5c1.7,0,3.3,0.7,4.5,1.8l1.1-1.1c0.1-0.1,0.4-0.1,0.6-0.1
		c0.1,0.1,0.3,0.3,0.3,0.6v3.8c0,0.3-0.3,0.6-0.6,0.6h-3.8C10,6.9,9.8,6.7,9.7,6.6C9.6,6.4,9.7,6.2,9.8,6L11,4.9
		C10.1,4,9.1,3.6,8,3.6c-2.4,0-4.4,2-4.4,4.4s2,4.4,4.4,4.4c1.4,0,2.5-0.6,3.4-1.7l0.1-0.1c0.1,0,0.1,0,0.3,0.1l1.1,1.1
		c0.1,0.1,0.1,0.3,0,0.4c-1.1,1.4-3,2.3-4.9,2.3C4.3,14.5,1.5,11.7,1.5,8z"/>
</g>
</svg>
