<?xml version="1.0" encoding="utf-8"?>
<!-- Generator: Adobe Illustrator 18.0.0, SVG Export Plug-In . SVG Version: 6.00 Build 0)  -->
<!DOCTYPE svg PUBLIC "-//W3C//DTD SVG 1.1//EN" "http://www.w3.org/Graphics/SVG/1.1/DTD/svg11.dtd">
<svg version="1.1" id="Layer_1" xmlns="http://www.w3.org/2000/svg" xmlns:xlink="http://www.w3.org/1999/xlink" x="0px" y="0px"
	 width="16px" height="16px" viewBox="0 0 16 16" enable-background="new 0 0 16 16" xml:space="preserve">
<g enable-background="new    ">
	<path fill="#FFFFFF" d="M8,14.5c-2,0-3.8-0.8-5.1-2.4c-0.1-0.1-0.1-0.3,0-0.4l1.1-1.1c0,0,0.1-0.1,0.3-0.1c0.1,0,0.1,0,0.1,0.1
		c1,1.3,2.1,1.8,3.5,1.8c2.4,0,4.4-2,4.4-4.4s-2-4.4-4.4-4.4c-1.1,0-2.1,0.4-3,1.1l1.1,1.1c0.1,0.3,0.3,0.4,0.1,0.7
		C6.2,6.7,6.1,6.9,5.9,6.9H2c-0.3,0-0.6-0.3-0.6-0.6V2.5c0-0.3,0.1-0.4,0.3-0.6c0.1-0.1,0.4,0,0.6,0.1l1.1,1.1
		c1.3-1.1,2.8-1.8,4.5-1.8c3.7,0,6.5,3,6.5,6.5S11.7,14.5,8,14.5z"/>
</g>
</svg>
