<svg xmlns="http://www.w3.org/2000/svg" xmlns:xlink="http://www.w3.org/1999/xlink" width="453" height="354"><path clip-rule="evenodd" fill="none" stroke="#F2F2F2" stroke-width="2" stroke-miterlimit="10" stroke-dasharray="3" d="M124.6 86.7h212.3v214H124.6z"/><path fill-rule="evenodd" clip-rule="evenodd" fill="#FFF" stroke="#36CC89" stroke-width="3" stroke-miterlimit="10" d="M330.9 294h12.5v12.5h-12.5V294zM118.4 294h12.5v12.5h-12.5V294zM118.4 80.5h12.5V93h-12.5V80.5zM330.9 80.5h12.5V93h-12.5V80.5z"/><path fill-rule="evenodd" clip-rule="evenodd" d="M230.4 93.5c54.7 0 99 45.2 99 101s-44.3 101-99 101-99-45.2-99-101 44.3-101 99-101z"/><g fill="#EACF1A"><path d="M909.9-534.2v-.5c.1-3.1.9-6.1 2.4-8.9 1.4-2.5 3.1-4.6 5.1-6.2 2-1.6 4-2.3 6-2.3 1.5 0 2.6.5 3.5 1.5.7.9 1.1 2 1.1 3.2 0 1.5-.6 3-1.7 4.5-.7.9-1.3 1.5-2.1 1.9-.3.2-.7.3-1 .3-.3 0-.6-.1-.8-.2s-.5-.3-.7-.5c-.4-.4-.6-.8-.6-1.1 0-.3.1-.6.3-.7 1.7-1.2 2.9-2.5 3.5-3.8.2-.5.4-1 .4-1.5 0-1-.5-1.5-1.4-1.5-1.5 0-3.1.8-4.7 2.5-1.5 1.5-2.8 3.4-3.8 5.7-1.1 2.4-1.6 4.5-1.7 6.5v.6c0 2.4.5 3.9 1.5 4.6.4.3.8.4 1.3.4s1-.1 1.4-.2.9-.3 1.3-.5c.7-.4 1.6-1 2.7-1.9.3-.3.6-.2.8.1.2.3.3.6.3.9 0 .6-.1 1-.2 1.2-.2.2-.4.5-.8.8s-.9.6-1.4.8c-1.3.6-2.6.9-3.9.9-1.3 0-2.3-.2-3.1-.5-.8-.3-1.4-.8-2-1.3-1.1-1-1.7-2.7-1.7-4.8zM926.8-527.9c-.2-.2-.4-.3-.5-.5-.1-.2-.2-.4-.2-.5 0-.1 0-.3.1-.5s.2-.5.3-.7c2.1-5.3 3.2-8.8 3.2-10.6 0-.5-.2-.9-.5-1.1l-.3-.2c-.1-.1-.1-.2-.1-.4s.1-.4.2-.5c.1-.2.3-.3.5-.4.5-.2.9-.4 1.4-.4s.9.1 1.1.2.5.2.7.4c.4.4.6.8.6 1.2 0 .4 0 .8-.1 1.3-.1.4-.2.9-.4 1.3s-.3.8-.4 1.2c-.1.4-.2.6-.3.8-.1.4-.1.6-.1.7.3-.2.4-.4.5-.6l.6-1.2c1.4-2.5 2.7-4.1 4-4.9.4-.2.8-.3 1.4-.3s1 .2 1.3.6c.3.4.5.8.5 1.2 0 .5 0 .8-.1 1.1-.1.3-.2.6-.4.8-.3.6-.8.9-1.3.9-.1 0-.3 0-.4-.1l-.3-.3c-.3-.3-.7-.5-1-.5s-.7.2-1.2.6-.9 1-1.4 1.6c-1.7 2.2-3 4.6-4.1 7.4l-.7 1.8c-.2.5-.3.8-.5 1-.1.2-.3.3-.6.3s-.5 0-.8-.1-.5-.5-.7-.6zM941.3-528.6c-.4-.4-.8-1-1-1.6-.3-.6-.4-1.4-.4-2.3 0-.9.1-1.8.3-2.7.2-.9.5-1.8 1-2.6.4-.8.9-1.6 1.5-2.4.6-.7 1.2-1.4 1.9-1.9 1.5-1.2 3.1-1.8 4.8-1.8 2.2 0 3.6 1 4.4 2.8.5 1.4.6 3 .1 5-.4 1.8-1.2 3.4-2.4 4.9-1.2 1.5-2.5 2.6-4.1 3.2-.8.3-1.6.5-2.4.5-.8 0-1.5-.1-2.1-.3s-1.1-.4-1.6-.8zm3-7.7c-.3.8-.6 1.6-.7 2.4s-.3 1.6-.3 2.3c0 .7.1 1.3.3 1.7.2.4.6.6 1 .6.5 0 1-.2 1.4-.5.5-.3.9-.8 1.4-1.3.4-.5.9-1.2 1.2-1.9.4-.7.7-1.5 1-2.2.6-1.7.9-3.2.9-4.5 0-1.2-.2-1.9-.7-2.2-.2-.1-.5-.2-.8-.2-.3 0-.7.2-1.2.5s-.9.7-1.3 1.3-.9 1.1-1.3 1.8c-.2.7-.6 1.5-.9 2.2zM959.3-529.1c0 .2-.2 1-.7 2.5-.4 1.5-.8 2.7-1.1 3.6-.7 2-1.2 3.2-1.6 3.7-.3.4-.8.6-1.3.6-.6 0-1.1-.3-1.4-.9-.1-.2-.1-.4-.1-.6s.2-.6.5-1.3c.8-1.7 1.9-5.1 3.3-10.2.6-2 .9-3.4 1.1-4.1l.5-2c.3-1.3.5-2.2.6-2.7.1-.5 0-.8-.1-1-.1-.2-.2-.3-.4-.4-.1-.1-.3-.2-.4-.3-.1-.1-.2-.2-.2-.4s.1-.4.3-.5c.2-.2.3-.3.6-.4.5-.2.9-.3 1.4-.3s.9.1 1.1.2c.3.1.5.3.7.5.4.4.5.8.5 1.2-.1.8-.2 1.5-.3 2.1 1.8-2.6 3.7-3.9 5.7-3.9 1.8 0 3 .9 3.6 2.8.2.7.3 1.4.3 2.4s-.1 1.9-.4 2.8c-.3.9-.7 1.8-1.1 2.7-.5.8-1 1.6-1.7 2.3-.6.7-1.3 1.3-2 1.9-1.5 1.1-2.9 1.6-4.3 1.6s-2.5-.8-3.1-1.9zm2.4-6.7c-.4.7-.7 1.5-.9 2.2-.2.7-.4 1.4-.4 2 0 .6.1 1.1.4 1.5.3.4.7.6 1.2.6s1-.1 1.5-.4c.5-.3 1-.7 1.5-1.1s.9-1 1.3-1.7c.4-.6.8-1.3 1.1-2 .7-1.6 1-3 1-4.4 0-.8-.1-1.3-.3-1.8s-.5-.6-.9-.6-.8.2-1.3.5-.9.7-1.4 1.3-1 1.1-1.5 1.8-.9 1.4-1.3 2.1zM977-529.1c0 .2-.2 1-.7 2.5-.4 1.5-.8 2.7-1.1 3.6-.7 2-1.2 3.2-1.6 3.7-.3.4-.8.6-1.3.6-.6 0-1.1-.3-1.4-.9-.1-.2-.1-.4-.1-.6s.2-.6.5-1.3c.8-1.7 1.9-5.1 3.3-10.2.6-2 .9-3.4 1.1-4.1l.5-2c.3-1.3.5-2.2.6-2.7.1-.5 0-.8-.1-1-.1-.2-.2-.3-.4-.4-.1-.1-.3-.2-.4-.3-.1-.1-.2-.2-.2-.4s.1-.4.3-.5c.2-.2.3-.3.6-.4.5-.2.9-.3 1.4-.3s.9.1 1.1.2c.3.1.5.3.7.5.4.4.5.8.5 1.2-.1.8-.2 1.5-.3 2.1 1.8-2.6 3.7-3.9 5.7-3.9 1.8 0 3 .9 3.6 2.8.2.7.3 1.4.3 2.4s-.1 1.9-.4 2.8c-.3.9-.7 1.8-1.1 2.7-.5.8-1 1.6-1.7 2.3-.6.7-1.3 1.3-2 1.9-1.5 1.1-2.9 1.6-4.3 1.6s-2.4-.8-3.1-1.9zm2.4-6.7c-.4.7-.7 1.5-.9 2.2-.2.7-.4 1.4-.4 2 0 .6.1 1.1.4 1.5.3.4.7.6 1.2.6s1-.1 1.5-.4c.5-.3 1-.7 1.5-1.1s.9-1 1.3-1.7c.4-.6.8-1.3 1.1-2 .7-1.6 1-3 1-4.4 0-.8-.1-1.3-.3-1.8s-.5-.6-.9-.6-.8.2-1.3.5-.9.7-1.4 1.3-1 1.1-1.5 1.8c-.4.7-.9 1.4-1.3 2.1zM992.1-533.1c0-.9.2-1.8.5-2.6s.6-1.6 1.1-2.4c.4-.8 1-1.5 1.6-2.2s1.2-1.3 1.9-1.8c1.5-1.1 3-1.7 4.5-1.7 1.8 0 3 .7 3.6 2.2.2.5.3 1.1.3 1.8s-.1 1.3-.4 1.9-.6 1.1-1 1.6-1 .9-1.6 1.3c-.6.4-1.3.7-2 1-1.5.5-3.1.8-4.8.8 0 .1-.1.4-.1.7s0 .6.1 1 .2.7.4 1c.4.6.9.9 1.6.9 1.2 0 2.4-.4 3.6-1.1.4-.2.7-.5 1-.7.3-.3.5-.4.7-.4s.4.1.5.3.2.5.2.8c0 .6-.2 1-.5 1.4-1.3 1.3-3.3 2-5.9 2-1.5 0-2.8-.5-3.7-1.4-1.2-1.1-1.7-2.6-1.6-4.4zm9.2-8.7c-1.1 0-2.2.8-3.2 2.3-.9 1.3-1.6 2.8-2.1 4.6 1.8-.2 3.3-.9 4.6-2.1 1.2-1.1 1.8-2.2 1.8-3.3s-.4-1.5-1.1-1.5zM1007.2-527.9c-.2-.2-.4-.3-.5-.5-.1-.2-.2-.4-.2-.5 0-.1 0-.3.1-.5s.2-.5.3-.7c2.1-5.3 3.2-8.8 3.2-10.6 0-.5-.2-.9-.5-1.1l-.3-.2c-.1-.1-.1-.2-.1-.4s.1-.4.2-.5c.1-.2.3-.3.5-.4.5-.2.9-.4 1.4-.4s.9.1 1.1.2.5.2.7.4c.4.4.6.8.6 1.2 0 .4 0 .8-.1 1.3-.1.4-.2.9-.4 1.3s-.3.8-.4 1.2c-.1.4-.2.6-.3.8-.1.4-.1.6-.1.7.3-.2.4-.4.5-.6l.6-1.2c1.4-2.5 2.7-4.1 4-4.9.4-.2.8-.3 1.4-.3s1 .2 1.3.6c.3.4.5.8.5 1.2 0 .5 0 .8-.1 1.1-.1.3-.2.6-.4.8-.3.6-.8.9-1.3.9-.1 0-.3 0-.4-.1l-.3-.3c-.3-.3-.7-.5-1-.5s-.7.2-1.2.6-.9 1-1.4 1.6c-1.7 2.2-3 4.6-4.1 7.4l-.7 1.8c-.2.5-.3.8-.5 1-.1.2-.3.3-.6.3s-.5 0-.8-.1-.5-.5-.7-.6z"/></g><g fill="#36CC89"><path d="M988.1-457.1v1.2c.1 1.3.6 2.1 1.5 2.5.3.1.7.2 1.1.1.4 0 .8-.1 1.1-.3.3-.2.6-.4.8-.6.4-.5.6-1.1.5-1.7-.1-.6-.2-1.2-.5-1.6s-.6-1-1.1-1.4l-1.4-1.4c-1.1-1.1-1.9-2.2-2.3-3.1-.4-1-.7-1.9-.7-2.7-.1-.8 0-1.6.1-2.4.1-.8.4-1.5.7-2.2.3-.7.7-1.4 1.2-2 .5-.6 1-1.1 1.6-1.6 1.2-1 2.5-1.5 3.8-1.6 1.3-.1 2.3 0 3.1.3.8.3 1.4.7 1.9 1.2.9 1 1.4 2.2 1.5 3.6.1 1.3-.2 2.7-.8 3.9-.6 1.1-1.3 1.9-2.2 2.3-.2.1-.4.2-.8.2-.3 0-.6 0-.8-.1-.2-.1-.4-.2-.6-.4-.4-.3-.6-.7-.6-1.1 0-.3 0-.5.2-.6.8-.5 1.4-1.2 1.9-2 .6-.9.8-1.9.8-2.7 0-.9-.3-1.5-.8-1.9-.5-.4-1.1-.5-1.9-.5-.8.1-1.4.3-2 .7-.6.4-1.1.9-1.5 1.5-.8 1.3-1.2 2.8-1 4.5.1 1.1.6 2.3 1.5 3.4l1.2 1.5 1.2 1.5c.9 1.2 1.3 2.3 1.4 3.3.1 1 0 1.9-.3 2.6-.3.7-.7 1.4-1.3 1.9-1.2 1.2-2.6 1.9-4.3 2-1.5.1-2.8-.2-3.7-1.1-.7-.7-1.1-1.5-1.2-2.3-.1-.9.1-1.8.6-2.5.4-.5.7-.9 1.1-1 .5-.4.9-.1 1 .6zM1009.8-456.9c.3 0 .5.2.5.6 0 .3 0 .7-.2 1-.2.6-.7 1.3-1.6 1.9-.9.7-1.9 1.1-2.8 1.2-1.7.1-2.8-.5-3.4-2-.7-1.7-.2-5.6 1.5-11.6-1.2 0-1.9-.2-2-.5 0-.1-.1-.2-.1-.3 0-.1 0-.2.1-.4s.2-.3.3-.5c.3-.3.7-.5 1.1-.5l1.2-.1c.9-2.7 1.6-4.3 2-4.7.2-.2.5-.3.7-.3.3 0 .5 0 .7.1.2.1.4.1.5.3.4.3.6.6.6 1 0 .2 0 .5-.1.7l-1 2.6h.4c.6-.1 1.2-.1 1.6-.1l.9-.1c.2 0 .4-.1.7-.1s.5.1.5.3c.1 1.4-1.5 2.2-4.7 2.5h-.1l-.8 2.9c-.9 3.4-1.3 5.7-1.2 7 0 .4.1.6.3.8.2.2.5.3 1 .2.5 0 .9-.2 1.2-.3s.7-.4.9-.6c.3-.2.5-.4.7-.6.2-.3.4-.4.6-.4zM1012.2-458.5c0-.9 0-1.8.2-2.6.2-.9.5-1.7.8-2.5.4-.8.8-1.6 1.4-2.3.5-.7 1.1-1.4 1.8-2 1.4-1.2 2.9-1.9 4.4-2.1 1.8-.1 3 .5 3.8 1.9.3.5.4 1.1.4 1.8s0 1.3-.2 1.9c-.2.6-.5 1.2-.9 1.7s-.9 1-1.5 1.4c-.6.4-1.2.8-1.9 1.1-1.4.6-3 1.1-4.7 1.2v.7c0 .3.1.6.2 1s.3.7.5.9c.4.6 1 .9 1.7.8 1.2-.1 2.4-.6 3.5-1.4.4-.3.7-.6.9-.8.2-.3.4-.4.6-.4s.4.1.5.3c.2.2.3.5.3.7 0 .6-.1 1-.4 1.5-1.2 1.4-3.1 2.3-5.7 2.5-1.5.1-2.8-.2-3.8-1.1-1.2-1-1.8-2.4-1.9-4.2zm8.4-9.4c-1.1.1-2.1.9-3 2.5-.7 1.4-1.3 3-1.7 4.8 1.7-.3 3.2-1.1 4.4-2.5 1.1-1.2 1.6-2.4 1.5-3.4 0-1-.4-1.5-1.2-1.4zM1037.9-468.5c-.3 0-.8.4-1.3 1-.5.7-1 1.3-1.4 1.8l-1.2 1.7-2.3 3.5c-.5 1.2-.9 2.2-1.2 3l-.7 1.9c-.2.5-.3.8-.5 1-.1.2-.4.3-.6.3-.3 0-.5 0-.8-.1s-.5-.2-.7-.3c-.4-.3-.7-.7-.7-1 0-.2.1-.5.3-1l.5-1.3c.2-.4.3-.9.5-1.5l.7-2.2c1-3.2 1.4-5.2 1.4-6.1 0-.5-.2-.8-.6-1l-.3-.2c-.1-.1-.2-.2-.2-.4s0-.4.2-.5c.1-.2.3-.3.5-.5.5-.3.9-.4 1.4-.5.5 0 .8 0 1.1.1.3.1.5.2.7.4.4.3.6.7.7 1.1v1.2c-.1.4-.2.8-.3 1.3s-.2.8-.4 1.3c-.1.4-.3.8-.4 1.1l-.3.7c-.1.2-.1.2 0 .2 1-1.7 1.7-2.8 2-3.3l1-1.4c.7-1 1.3-1.7 1.7-2 .9-.7 1.6-1.1 2.1-1.1s1 0 1.4.1c.4.1.7.3 1 .5.6.5 1 1.1 1 2 .1.8 0 1.7-.3 2.6-.3.9-.6 1.7-.8 2.3-.2.6-.4 1.2-.7 1.8-.6 1.8-.9 3.1-.9 3.9 0 .4.3.5.9.5.4 0 .8-.2 1.2-.4.3-.2.6-.3.7-.3.2 0 .3.1.4.3.1.9-.3 1.7-1.2 2.5-.6.5-1.2.7-1.7.8-.5 0-1 0-1.3-.1-.4-.1-.7-.2-1-.5-.7-.5-1-1.3-1.1-2.2-.1-1.2.2-2.8.8-4.6.5-1.3.8-2.2 1-2.7l.4-1.2c.3-.7.4-1.2.4-1.6-.3-.7-.6-.9-1.1-.9zM1045.2-461.2c-.1-.9 0-1.8.2-2.8.2-.9.5-1.8.9-2.7s.8-1.6 1.4-2.4c.6-.7 1.2-1.4 1.9-1.9 1.4-1.2 3-1.8 4.6-2 1.7-.1 2.9.4 3.7 1.8.3.5.4 1 .4 1.6 0 .6 0 1.2-.2 1.7-.1.5-.3 1-.6 1.4-.6 1-1.2 1.5-1.8 1.5-.7.1-1.3-.1-1.6-.5-.3-.3-.5-.7-.4-1.2 0-.1.1-.3.3-.4s.3-.3.6-.6c.6-.8.9-1.6.9-2.6 0-.6-.5-.9-1.3-.9-.9.1-1.8.6-2.6 1.7-1.3 1.5-2.1 3.5-2.5 5.8-.3 2-.1 3.4.6 4.2.5.5 1 .7 1.7.6 1.2-.1 2.3-.6 3.3-1.5.3-.3.6-.6.7-.9.2-.3.4-.4.5-.5.2 0 .3.1.5.2s.2.4.2.7c.1.6-.2 1.2-.7 1.9-1.3 1.5-3 2.3-5 2.5-1.7.1-3.1-.2-4.1-1.1-1-.4-1.5-1.8-1.6-3.6zM1065.6-460.4c.3 0 .4.1.5.5 0 .5-.1 1-.5 1.5-.6.8-1.4 1.2-2.4 1.3-1.2.1-2.1-.3-2.6-1.3-.2-.3-.3-.7-.4-1.2 0-.5 0-1 .1-1.7.1-.6.3-1.3.5-2s.4-1.4.7-2.1l.7-2c.5-1.5.7-2.5.7-3s-.1-.8-.2-.9c-.1-.1-.2-.3-.4-.3l-.3-.2c-.1-.1-.2-.2-.2-.4s0-.4.2-.5c.1-.2.3-.3.5-.5.5-.3 1-.4 1.6-.5 1.5-.1 2.3.2 2.4 1 .1.9-.1 2-.5 3.3s-.7 2.3-1 3l-.8 2.2c-.6 1.6-.8 2.8-.7 3.5 0 .5.3.7.7.6.5 0 .8-.1 1-.3.2.1.3 0 .4 0zm1.8-17.2c-.2.3-.5.5-.7.7-.3.2-.6.3-.9.4-.3.1-.6 0-.9-.1-.3-.1-.6-.3-.8-.5-.5-.5-.8-1-.8-1.5s0-.9.2-1.2c.1-.3.3-.5.6-.7.5-.4.9-.6 1.4-.6h1c.3 0 .5.1.7.3.5.3.8.7.9 1.2 0 .5 0 .9-.1 1.3-.2.1-.4.4-.6.7zM1070.5-458.5c-.3-.2-.5-.6-.7-1-.2-.4-.3-.9-.4-1.5s0-1.3.2-2.3c.2-1 .4-2.1.7-3.3l1-4c1.4-5.6 2.1-9.9 2.2-12.9 0-.9.4-1.4 1.2-1.4.5 0 .9 0 1.2.2.6.4 1 .9 1 1.5s0 1.3-.1 2.1-.3 1.7-.5 2.7c-.2 1-.4 2-.7 3.1l-1.6 6.5c-.9 3.7-1.4 6.1-1.3 7.2 0 .6.3.8.8.8.4 0 .8-.2 1.2-.4.3-.2.6-.3.7-.3.2 0 .3.1.4.3.1.9-.3 1.7-1.2 2.5-.6.5-1.2.7-1.7.8-.5 0-1 0-1.3-.1-.5 0-.8-.2-1.1-.5z"/></g><g fill="#969696"><path d="M1129.9-443.1c-.1-.3-.2-.7-.2-1.2s.1-1 .2-1.6c.1-.6.3-1.3.5-2.1.6-1.7 1.3-3.2 2.3-4.5.2-.2.3-.3.5-.3s.4 0 .5.1.3.2.5.3c.3.3.4.5.3.7-.8 1.3-1.5 2.5-2 3.5 1.3-.1 2.4-.5 3.4-1.2 1.1-.8 1.6-1.8 1.6-2.9 0-.8-.4-1.3-1.1-1.5-.2-.1-.5-.1-.8-.1s-.7 0-1 .1c-.3.1-.7.2-1 .3-.6.2-1.2.5-1.7.9-.1.1-.3.2-.4.2-.1 0-.3 0-.4-.1-.1-.1-.3-.1-.4-.2-.4-.4-.4-.8.2-1.2.8-.6 2.1-1 3.7-1.1h1.2c.5 0 1 .1 1.6.2.5.2 1 .4 1.3.7.6.5.9 1.3.9 2.2 0 .8-.3 1.7-1 2.5-.6.8-1.4 1.4-2.4 1.9.5.2.8.5 1 .9.2.4.3.8.3 1.2 0 .4-.1.8-.3 1.2-.2.4-.4.7-.6 1-.3.3-.6.5-.9.8-.4.2-.7.4-1.1.5-.8.3-1.6.4-2.4.4-1.3-.2-2-.7-2.3-1.6zm2-3.7c-.4 1.1-.7 2-.7 2.8 0 .4.1.7.3.9.2.2.5.3.8.3.4 0 .7-.1 1.1-.2s.7-.4 1-.6c.7-.6 1.1-1.3 1.1-2.1 0-.7-.3-1.2-.9-1.4-.2-.1-.4-.1-.6-.1-.3 0-.6.1-1.1.2-.5.1-.8.2-1 .2zM1140-442.4c-.2-.2-.4-.5-.6-.9-.1-.4-.2-.8-.2-1.2s.1-1 .2-1.5.3-1 .5-1.4c.2-.5.5-.9.8-1.3.3-.4.7-.7 1-1 .8-.6 1.7-1 2.6-1 1.2 0 2 .5 2.4 1.6.3.7.3 1.7.1 2.7-.2 1-.7 1.9-1.3 2.7-.6.8-1.4 1.4-2.2 1.7-.4.2-.9.3-1.3.3s-.8-.1-1.1-.2-.7-.2-.9-.5zm1.6-4.1c-.2.4-.3.9-.4 1.3-.1.4-.1.9-.1 1.3s.1.7.2.9c.1.2.3.3.6.3s.5-.1.8-.3c.3-.2.5-.4.7-.7.2-.3.5-.6.7-1l.6-1.2c.3-.9.5-1.7.5-2.5 0-.6-.1-1-.4-1.2-.1-.1-.2-.1-.4-.1s-.4.1-.6.3c-.2.2-.5.4-.7.7-.2.3-.5.6-.7 1s-.6.7-.8 1.2zM1148.6-442c-.2.2-.4.3-.6.3s-.2 0-.3-.1c-.1 0-.2-.1-.2-.1-.2-.1-.3-.3-.3-.4 0-.1.1-.2.2-.3l.5-.4c.9-.8 1.7-1.6 2.3-2.5-.5-1.4-.7-2.6-.7-3.5 0-.5.2-.9.6-1.2.3-.3.7-.4 1.1-.4.1 0 .2 0 .2.1s.1.2.1.3v1.6c.1.6.1 1 .2 1.4l.3-.5c.7-1 1.4-1.9 2.3-2.5.5-.3.9-.5 1.3-.5.3 0 .6 0 .7.1.3.2.4.3.3.5l-.1.1-.2.1c-.9.4-2.1 1.4-3.5 2.9-.3.3-.5.6-.8.9l.3 1c.4 1.2.8 1.8 1.3 1.8.2 0 .4 0 .5-.1l.3-.1h.2c.1 0 .2.1.2.2 0 .5-.3.9-.8 1.3-.3.2-.7.3-1.2.3-.8 0-1.6-.9-2.3-2.6-.6 1.1-1.3 1.8-1.9 2.3z"/></g><g fill="#C9E2A8"><path d="M1221-405c.7 1 2.5 1.9 5.4 2.9 1.7.6 3.2 1 4.6 1.2.4.1.7.1.9.1 0-.2-.1-.4-.2-.6l-.4-.6c-.1-.2 0-.4.2-.7.2-.3.4-.4.6-.4.2 0 .3.1.4.3l.3.6c.2.5.2.8.2 1.1 0 .3 0 .6-.1.8 0 .2-.1.4-.2.6-.3.4-.6.7-1.1.7-.8 0-2.2-.3-4.2-.8-3.1-.9-5.3-2-6.6-3.2-.3-.3-.6-.7-.7-1.1 0-.1-.1-.2-.1-.3 0-.1 0-.2.1-.3 0-.1.1-.2.1-.2.1-.1.2-.2.3-.2s.5 0 .5.1zM1227.3-392.5c0-.3-.5-.9-1.4-1.8-.7-.6-1.3-1.1-1.6-1.4l-.9-.7c-.6-.3-1.1-.6-1.5-.8l-1-.4c-.2-.1-.4-.2-.5-.3-.1-.1-.1-.2-.1-.3 0-.1 0-.3.1-.4.1-.1.1-.3.2-.4.2-.2.4-.3.6-.3.1 0 .2.1.5.2l.7.3c.2.1.5.2.8.3l1.1.5c1.6.7 2.7 1 3.2 1 .3 0 .4-.1.6-.2l.1-.2c0-.1.1-.1.2-.1s.2 0 .3.1c.1.1.2.2.2.3.1.2.2.5.2.8 0 .3 0 .4-.1.6s-.1.3-.2.4c-.2.2-.4.3-.6.3s-.4 0-.6-.1c-.2-.1-.4-.1-.6-.2l-.6-.3c-.5-.2-.8-.4-.9-.4-.1-.1-.1-.1-.1 0 1.3 1 2.1 1.6 2.3 1.8.5.4.8.8 1 1 .3.4.5.9.5 1.2 0 .4-.1.7-.4.9s-.6.3-1 .3c-.3 0-.8-.1-1.2-.3s-.8-.3-1-.4l1.6 1.2.8.7c.5.4.8.8.9 1.1s.2.6.2.8c0 .2 0 .4-.1.6-.1.2-.2.4-.3.5-.3.3-.6.4-1.1.4-.4 0-.9-.1-1.3-.3s-.8-.4-1.1-.5c-.3-.1-.6-.3-.9-.4-.9-.4-1.5-.6-2-.6-.3 0-.4.1-.4.4 0 .2 0 .4.1.6.1.2.1.3.1.4 0 .1-.1.2-.2.2-.5 0-.9-.3-1.2-.8-.2-.3-.3-.6-.3-.9 0-.3 0-.5.1-.7s.2-.3.3-.5c.3-.3.7-.5 1.2-.5s.9.1 1.3.2.8.3 1.2.4c.4.2.7.3 1 .5.3.2.6.3.8.4.4.2.7.3.9.3.2 0 .3-.1.3-.3 0-.3-.5-.8-1.5-1.6-.8-.6-1.3-1-1.7-1.2l-.8-.6c-.6-.3-1.1-.6-1.5-.7l-1-.4c-.2-.1-.4-.2-.5-.3-.1-.1-.1-.2-.1-.3s0-.3.1-.4c0-.1.1-.2.2-.3.2-.2.3-.3.5-.3s.4.1.7.2c.3.1.7.3 1 .4l2.5 1.2c.9.4 1.5.6 1.7.6.1-.1.2-.3.2-.5zm-2.3.8s0 .1 0 0zM1222.5-378.5c-.5 0-.8.2-.8.5 0 .2 0 .5.1.6.1.2.1.3.1.3 0 .1-.1.2-.2.2-.5 0-.9-.2-1.2-.7-.4-.5-.4-1.1-.3-1.6.1-.4.4-.6.8-.8.2-.1.4-.1.6-.1.3 0 .6 0 .9.1-1.1-.5-1.8-1.2-2.2-1.9-.2-.3-.2-.6-.2-1s.1-.6.2-.9c.1-.3.3-.5.6-.6.5-.4 1.2-.5 2-.5 1 0 2 .3 2.9.9.9.5 1.6 1.1 2.2 1.9.6.8.9 1.5.9 2.2s-.3 1.2-.9 1.6c.6.4.9.7.9 1 0 .3-.1.6-.2.7-.2.3-.4.4-.6.3-2.8-1.4-4.6-2.1-5.3-2.1-.1-.1-.2-.1-.3-.1zm-.1-4.6c-.7 0-1 .2-1 .6 0 .3.3.7.8 1.2.8.7 1.9 1.3 3.3 1.9.4.2.9.3 1.3.4.4 0 .7-.2.8-.5.1-.1.1-.2.1-.4s-.1-.4-.2-.7c-.1-.3-.3-.5-.6-.8-.2-.2-.5-.5-.9-.7-.3-.2-.7-.4-1.1-.6-.8-.2-1.6-.4-2.5-.4zM1222.1-370.8c-1.3-.8-1.9-1.8-1.9-2.8 0-.9.5-1.5 1.5-1.9.3-.1.8-.2 1.2-.2s1 .1 1.5.2 1 .3 1.4.6.9.5 1.2.9c.4.3.7.7 1 1.1.6.8.9 1.6.9 2.3s-.4 1.3-1.1 1.7l.2.2.2.2c.1.1.2.3.2.4 0 .1 0 .2-.1.3 0 .1-.1.2-.2.3-.2.3-.3.4-.4.3-.7-.3-1.3-.6-1.9-.8l-3.9-1.2c-3-1-4.9-2.2-5.8-3.7-.2-.4-.4-.7-.4-1v-.6c0-.1.1-.2.1-.3.1-.2.3-.3.4-.3.2 0 .3.1.4.4 0 .3.1.5.3.8.2.3.4.6.6.8 1 1 2.5 1.7 4.6 2.3zm2.9-2.5c-.4-.1-.8-.3-1.2-.3-.4-.1-.8-.1-1-.1h-.6c-.1 0-.3 0-.4.1-.2.1-.3.3-.3.5s.1.4.2.6c.2.2.4.4.6.7s.6.5.9.7.7.5 1.2.7c.9.5 1.8.8 2.6 1 .2 0 .3-.1.5-.3.3-.3.5-.6.5-.9s-.1-.5-.2-.8c-.2-.3-.4-.5-.6-.7l-.9-.6c-.6-.3-.9-.5-1.3-.6zM1223.2-366.6c.5 0 .9.1 1.4.2.4.1.9.3 1.3.6.4.2.8.5 1.2.8.4.3.7.7 1 1 .6.8.9 1.6.9 2.4 0 .9-.4 1.6-1.2 1.9-.3.1-.6.2-.9.2-.4 0-.7-.1-1-.2-.3-.1-.6-.3-.8-.6-.3-.2-.5-.5-.7-.8-.2-.3-.4-.7-.5-1.1-.3-.8-.4-1.6-.4-2.5h-.8c-.2 0-.4.1-.5.2-.3.2-.5.5-.5.9 0 .6.2 1.3.6 1.9.1.2.3.4.4.5.1.1.2.3.2.4s-.1.2-.2.3c-.1.1-.3.1-.4.1-.3 0-.5-.1-.8-.2-.7-.7-1-1.7-1-3.1 0-.8.2-1.5.7-2 .3-.7 1-1 2-.9zm4.6 4.8c0-.6-.4-1.1-1.2-1.7-.7-.5-1.5-.8-2.4-1.1.1.9.5 1.7 1.1 2.4.6.6 1.2.9 1.7.9s.8-.1.8-.5zM1235.4-344.2c0 .2-.1.3-.3.3-.1 0-.3-.1-.5-.4l-.5-.7c-.2-.2-.3-.4-.5-.6-.8-.8-1.5-1.4-2.2-1.9s-1.4-.9-2-1.2c-.6-.3-1.3-.6-2.1-.9-1.6-.6-3.3-.8-5-.8-1.3 0-2.5.2-3.5.6-.9.4-1.6.8-1.9 1.3-.1.1-.1.2-.2.2h-.2c-.1 0-.1-.1-.2-.1-.1-.1-.2-.3-.2-.5s.1-.4.2-.7c.2-.3.4-.5.7-.7.3-.2.6-.5 1-.7.4-.2.8-.4 1.3-.6 1-.3 2-.5 3-.5s1.9.1 2.8.3c.9.2 1.7.4 2.4.7.8.3 1.5.6 2.2 1s1.3.8 1.9 1.2c1 .8 1.9 1.6 2.6 2.5.8.9 1.2 1.7 1.2 2.2zM1218.4-346.3c.1 0 .3.1.7.3.3.2.8.4 1.3.6.5.2 1.1.4 1.7.6s1.2.4 1.9.6l2.2.6-.2-.9c0-.2.1-.4.3-.5h.2c.1 0 .2.1.3.2.1.1.2.3.3.5.2.4.4.8.5 1.2l.2.1c.5.1.9.3 1.4.4.5.1 1 .3 1.5.4.5.2.9.3 1.4.5.4.2.8.4 1.1.7.7.6 1 1.3 1 2.2 0 .6-.2 1.2-.5 1.5s-.8.6-1.4.6c-.6 0-1.1-.2-1.6-.5-.4-.3-.6-.6-.6-1s.2-.8.6-.9c.1 0 .2-.1.3-.1.1 0 .2.1.3.2.2.3.5.5.9.6.1 0 .2.1.4.1.5 0 .7-.2.7-.5 0-.5-.6-.9-1.7-1.3-.3-.1-.7-.2-1.1-.4l-2.6-.8c.1.5.1.9.1 1.1 0 .2 0 .4-.1.6-.1.2-.1.3-.2.5-.2.3-.5.5-.8.5s-.5-.2-.5-.5v-1.1c0-.6 0-1.1-.1-1.6l-2.4-.7c-1.6-.4-2.8-.8-3.6-1.1-.7-.3-1.4-.6-1.9-.8-.5-.2-.7-.6-.7-1.1s.4-.8.7-.8zM1221.8-335.9c0 .1-.1.2-.3.2-.2 0-.5-.1-.8-.3-.4-.3-.6-.8-.6-1.3 0-.6.3-1.1.8-1.3.2-.1.4-.1.7-.1s.5 0 .9.1c.3.1.7.2 1 .3.4.1.7.3 1.1.4l1 .4c.8.3 1.3.5 1.5.5s.4 0 .5-.1l.2-.2.1-.2c0-.1.1-.1.2-.1s.2 0 .3.1c.1.1.2.2.2.3.1.2.2.5.2.9 0 .8-.2 1.2-.6 1.2-.5 0-1.1-.1-1.7-.4-.6-.3-1.2-.5-1.5-.7l-1.1-.5c-.8-.4-1.4-.5-1.8-.5-.2 0-.4.1-.4.4 0 .2 0 .4.1.5s0 .4 0 .4zm9 1.7c-.1-.1-.2-.3-.3-.4-.1-.2-.1-.3-.1-.5s0-.3.1-.5.2-.3.3-.4c.3-.2.6-.4.8-.4s.5 0 .6.1c.1.1.3.2.3.3.2.3.3.5.3.8v.5c0 .1-.1.3-.2.4-.2.3-.4.4-.7.4-.3 0-.5 0-.7-.1-.1 0-.3-.1-.4-.2zM1222.4-329c0 .2-.1.2-.3.2-.2 0-.4-.1-.5-.2-.3-.1-.6-.4-.9-.9-.3-.5-.5-1-.5-1.5 0-.9.4-1.5 1.2-1.7.9-.3 3 .1 6 1.3.1-.6.2-1 .3-1h.2c.1 0 .1 0 .2.1s.2.1.2.2c.2.2.2.4.2.6v.7c1.4.6 2.2 1 2.4 1.3.1.1.1.3.1.4s0 .3-.1.4-.1.2-.2.3c-.2.2-.4.3-.6.3-.1 0-.2 0-.4-.1l-1.3-.6v1.9c0 .2-.1.2-.2.2-.7 0-1.1-.9-1.1-2.6v-.1l-1.5-.6c-1.7-.6-2.9-1-3.6-1-.2 0-.3 0-.5.1-.1.1-.2.3-.2.5s0 .5.1.7.2.4.3.5c.1.1.2.3.3.4.4.1.4.2.4.2zM1222.4-322.9c0 .2-.1.2-.3.2-.2 0-.4-.1-.5-.2-.3-.1-.6-.4-.9-.9-.3-.5-.5-1-.5-1.5 0-.9.4-1.5 1.2-1.7.9-.3 3 .1 6 1.3.1-.6.2-1 .3-1h.2c.1 0 .1 0 .2.1s.2.1.2.2c.2.2.2.4.2.6v.7c1.4.6 2.2 1 2.4 1.3.1.1.1.3.1.4s0 .3-.1.4-.1.2-.2.3c-.2.2-.4.3-.6.3-.1 0-.2 0-.4-.1l-1.3-.6v1.9c0 .2-.1.2-.2.2-.7 0-1.1-.9-1.1-2.6v-.1l-1.5-.6c-1.7-.6-2.9-1-3.6-1-.2 0-.3 0-.5.1-.1.1-.2.3-.2.5s0 .5.1.7.2.4.3.5c.1.1.2.3.3.4.4.1.4.2.4.2zM1223.2-321.5c.5 0 .9.1 1.4.2.4.1.9.3 1.3.6.4.2.8.5 1.2.8.4.3.7.7 1 1 .6.8.9 1.6.9 2.4 0 .9-.4 1.6-1.2 1.9-.3.1-.6.2-.9.2-.4 0-.7-.1-1-.2-.3-.1-.6-.3-.8-.6-.3-.2-.5-.5-.7-.8-.2-.3-.4-.7-.5-1.1-.3-.8-.4-1.6-.4-2.5h-.8c-.2 0-.4.1-.5.2-.3.2-.5.5-.5.9 0 .6.2 1.3.6 1.9.1.2.3.4.4.5.1.1.2.3.2.4s-.1.2-.2.3c-.1.1-.3.1-.4.1-.3 0-.5-.1-.8-.2-.7-.7-1-1.7-1-3.1 0-.8.2-1.5.7-2 .3-.7 1-.9 2-.9zm4.6 4.8c0-.6-.4-1.1-1.2-1.7-.7-.5-1.5-.8-2.4-1.1.1.9.5 1.7 1.1 2.4.6.6 1.2.9 1.7.9s.8-.1.8-.5zM1221.9-305.3c0 .1-.1.2-.2.2-.5 0-.9-.2-1.2-.7-.2-.3-.3-.6-.3-.9 0-.3 0-.5.1-.7s.2-.3.3-.5c.3-.3.8-.5 1.4-.5.1 0 .3 0 .6.1-.7-.4-1.2-.8-1.5-1.2-.6-.6-.9-1.3-.9-1.9 0-1 .4-1.6 1.3-1.9.3-.1.7-.2 1.2-.2s1 .1 1.5.2 1 .4 1.4.6c.5.3.9.6 1.3.9.4.3.7.7 1 1.1.6.8.9 1.5.9 2.2s-.3 1.2-.8 1.6c3.3 1 5.2 1.7 5.8 2.2.2.2.4.4.4.6 0 .4-.1.7-.3.9-.1.1-.1.1-.2.1s-.2 0-.4-.1-.5-.2-.9-.4c-1.3-.5-2.3-.8-2.9-1-1.5-.5-2.6-.9-3.2-1l-1.5-.5c-1.4-.4-2.2-.6-2.6-.6s-.6.1-.6.4c0 .2 0 .4.1.6l.1.3c.1 0 .1.1.1.1zm-.5-5.7c0 .6.6 1.2 1.7 2 1.2.8 2.4 1.3 3.8 1.6.4 0 .7-.2.8-.5.1-.1.1-.3.1-.5s-.1-.4-.2-.7c-.1-.3-.3-.5-.6-.8-.2-.3-.5-.5-.9-.7-.3-.2-.7-.4-1.1-.6-.8-.3-1.6-.5-2.4-.5-.8.1-1.2.3-1.2.7zM1216.1-306c0-.2.1-.3.3-.3.1 0 .3.1.5.4l.5.7c.2.2.3.4.5.6 1.2 1.2 2.6 2.3 4.2 3.2 2.2 1.1 4.5 1.7 7.1 1.7 1.3 0 2.5-.2 3.5-.6.9-.3 1.6-.8 1.9-1.3.1-.1.1-.2.2-.2h.2c.1 0 .1.1.2.1.1.1.2.3.2.5s-.1.4-.2.7c-.2.3-.4.5-.7.7-.3.2-.6.5-1 .7-.4.2-.8.4-1.3.6-1 .3-2.1.5-3 .5s-1.9-.1-2.8-.3c-.9-.2-1.7-.4-2.4-.7-.8-.3-1.5-.6-2.2-1s-1.3-.8-1.9-1.2c-1-.8-1.9-1.6-2.6-2.5-.8-1-1.2-1.8-1.2-2.3z"/></g><g fill="none" stroke="#EACF1A" stroke-width="3" stroke-miterlimit="10"><path d="M1246.3-174v3h-3"/><path stroke-dasharray="6.0356,6.0356" d="M1237.3-171H914.4"/><path d="M911.4-171h-3v-3"/><path stroke-dasharray="6.0537,6.0537" d="M908.4-180.1V-504"/><path d="M908.4-507v-3h3"/><path stroke-dasharray="6.0356,6.0356" d="M917.4-510h322.9"/><path d="M1243.3-510h3v3"/><path stroke-dasharray="6.0537,6.0537" d="M1246.3-500.9v323.8"/></g><g fill="none" stroke="#C9E2A8" stroke-width="2" stroke-miterlimit="10"><path d="M1206.7-510v1.5"/><path stroke-dasharray="3.018,3.018" d="M1206.7-505.5V-175"/><path d="M1206.7-173.5v1.5"/></g><g fill="none" stroke="#C9E2A8" stroke-width="2" stroke-miterlimit="10"><path d="M946-172v-1.5"/><path stroke-dasharray="3.018,3.018" d="M946-176.5V-507"/><path d="M946-508.5v-1.5"/></g><g fill="none" stroke="#F2F2F2" stroke-width="2" stroke-miterlimit="10"><path d="M1157.4-272v1.5h-1.5"/><path stroke-dasharray="2.9545,2.9545" d="M1152.9-270.5h-158"/><path d="M993.4-270.5h-1.5v-1.5"/><path stroke-dasharray="2.9545,2.9545" d="M991.9-275v-158"/><path d="M991.9-434.5v-1.5h1.5"/><path stroke-dasharray="2.9545,2.9545" d="M996.3-436h158.1"/><path d="M1155.9-436h1.5v1.5"/><path stroke-dasharray="2.9545,2.9545" d="M1157.4-431.5v158"/></g><g fill="none" stroke="#F2F2F2" stroke-width="2" stroke-miterlimit="10"><path d="M782.6-242.8v1.5h-1.5"/><path stroke-dasharray="2.9545,2.9545" d="M778.2-241.3H620.1"/><path d="M618.6-241.3h-1.5v-1.5"/><path stroke-dasharray="2.9545,2.9545" d="M617.1-245.8v-158.1"/><path d="M617.1-405.3v-1.5h1.5"/><path stroke-dasharray="2.9545,2.9545" d="M621.6-406.8h158"/><path d="M781.1-406.8h1.5v1.5"/><path stroke-dasharray="2.9545,2.9545" d="M782.6-402.4v158.1"/></g><circle fill="none" stroke="#36CC89" stroke-width="4" stroke-miterlimit="10" stroke-dasharray="15.7562,7.8781" cx="1074.6" cy="-353.3" r="82.7"/><image overflow="visible" width="297" height="320" xlink:href="C1F1131A.jpg" transform="translate(551.376 -498.77) scale(.9999)"/><text transform="translate(555.71 -484.084)" fill="#B9B9B9" font-family="'Courgette-Regular'" font-size="18.522">Resize event</text><g fill="#595959"><path d="M220 41.8c-.6-.1-1.3-.1-1.9-.1-.6 0-1.2 0-1.9.1-.8 2.3-1.7 4-2.7 5-.3.4-.7.6-1.1.8-.1 0-.2.1-.3.1s-.2 0-.3-.1c-.1 0-.1-.1-.2-.1-.1-.1-.2-.2-.2-.3s0-.2.1-.3c.8-.6 1.7-2.1 2.6-4.6h-.1H213.7c-.1 0-.1-.1-.2-.2-.1-.2-.2-.3-.1-.4.2-.2.5-.3 1-.5.7-2.2 1.1-3.7 1.1-4.6-.2 0-.4.1-.6.2l-.6.3c-.2.1-.4 0-.6-.2-.3-.2-.4-.4-.3-.6 0-.3.5-.5 1.3-.7.3-.1.5-.1.7-.1h.5c.2 0 .3 0 .4.1.5.1.8.3 1 .7.1.1.1.3.1.5s0 .4-.1.7c0 .3-.1.6-.2.9-.2.8-.4 1.6-.7 2.5 1.1-.1 2.3-.2 3.5-.2h.3l.4-1.3c.5-1.4.8-2.5.9-3.3.1-.4.3-.7.7-.7.2 0 .4.1.6.2.3.2.4.4.4.7 0 .2-.1.5-.1.8-.1.3-.2.7-.3 1-.1.4-.3.8-.4 1.2l-.5 1.3H222.5c.1 0 .2.1.2.2s0 .2-.1.3c-.1.1-.1.2-.3.3-.3.2-.6.4-.9.4-.6 1.7-1 2.7-1.1 3.1-.1.4-.2.6-.2.8 0 .3.1.4.3.4.2 0 .4 0 .5-.1l.3-.1h.2c.1 0 .2.1.2.2 0 .5-.3.9-.8 1.2-.4.2-.7.3-1.1.3-.5 0-.9-.2-1.1-.7-.1-.2-.1-.3-.1-.5 0-.3.1-.7.2-1 .1-.3.2-.7.3-1.1l1-2.5zM229.4 45.4c0 .5.2.7.5.7.2 0 .4 0 .6-.1.2-.1.3-.1.3-.1.1 0 .2.1.2.2 0 .4-.2.8-.7 1.2-.5.3-1 .4-1.5.3-.3-.1-.6-.4-.8-.8-.1-.2-.1-.4-.1-.6 0-.3 0-.6.1-.9-.5 1-1.1 1.7-1.8 2-.3.1-.6.2-.9.2-.3 0-.6-.1-.8-.2-.2-.1-.4-.3-.6-.6-.3-.5-.5-1.1-.5-1.8 0-.9.3-1.8.8-2.7.5-.8 1.1-1.5 1.8-2s1.4-.8 2-.8c.6 0 1.1.3 1.5.9.4-.6.7-.9 1-.9.3 0 .5.1.7.2.3.2.4.4.3.5-1.3 2.7-2 4.3-2 5-.1.1-.1.2-.1.3zm-4.3.1c0 .6.2.9.6.9.3 0 .7-.3 1.1-.8.7-.8 1.2-1.8 1.7-3.1.2-.4.3-.8.4-1.2 0-.4-.2-.6-.4-.8-.1-.1-.2-.1-.4-.1s-.4.1-.6.2c-.2.1-.5.3-.7.6-.2.2-.4.5-.6.8-.2.3-.4.7-.5 1-.5.9-.6 1.7-.6 2.5zM237.7 40.9c-.2 0-.4.2-.7.5l-.8.8-.7.8-1.3 1.6-.7 1.4-.4.9c-.1.2-.2.4-.3.5-.1.1-.2.1-.3.1-.1 0-.3 0-.4-.1-.1 0-.2-.1-.3-.2-.2-.2-.3-.3-.3-.5 0-.1.1-.2.2-.5l.3-.6c.1-.2.2-.4.3-.7l.4-1.1c.6-1.5.9-2.5.9-3 0-.2-.1-.4-.2-.5l-.2-.1c-.1 0-.1-.1-.1-.2s0-.2.1-.3c.1-.1.2-.2.3-.2.2-.1.5-.2.7-.2.2 0 .4 0 .6.1.1.1.2.1.3.2.2.2.3.4.3.6 0 .2 0 .4-.1.6 0 .2-.1.4-.2.6-.1.2-.2.4-.2.6-.1.2-.2.4-.2.5l-.2.3c0 .1-.1.1 0 .1.6-.8 1-1.3 1.1-1.5l.5-.7c.4-.5.7-.8.9-.9.5-.3.8-.5 1.1-.5s.5 0 .7.1c.2.1.3.2.5.3.3.3.4.6.4 1s-.1.8-.3 1.3c-.2.4-.4.8-.5 1.1-.1.3-.3.6-.4.8-.4.9-.6 1.5-.6 1.9 0 .2.1.3.4.3.2 0 .4 0 .6-.1s.3-.1.3-.1c.1 0 .2.1.2.2 0 .5-.2.9-.7 1.2-.3.2-.6.3-.9.3s-.5 0-.7-.1c-.2-.1-.3-.1-.5-.3-.3-.3-.5-.7-.5-1.2 0-.6.2-1.4.6-2.3.3-.6.5-1 .6-1.3l.3-.6c.2-.3.2-.6.2-.8.3 0 .2-.1-.1-.1zM248.8 45.9c.1 0 .2.1.2.2 0 .4-.2.8-.7 1.2-.3.2-.6.3-.9.3s-.5 0-.7-.1c-.2-.1-.3-.2-.4-.3-.3-.3-.4-.7-.4-1.3 0-.1 0-.3.1-.5-.4.7-.8 1.1-1.1 1.4-.6.6-1.2.8-1.8.8-.9 0-1.5-.4-1.8-1.3-.1-.3-.2-.7-.2-1.2s.1-.9.2-1.4c.1-.5.3-.9.6-1.4.2-.4.5-.8.8-1.2s.7-.7 1-1c.8-.6 1.4-.9 2.1-.9.6 0 1.1.3 1.5.8.9-3.1 1.6-4.9 2-5.5.2-.2.4-.3.6-.3.4 0 .6.1.8.3.1.1.1.1.1.2s0 .2-.1.4-.2.5-.4.9c-.5 1.2-.8 2.1-1 2.7-.5 1.5-.8 2.5-1 3l-.4 1.4c-.4 1.3-.6 2.1-.6 2.5 0 .3.1.5.4.5.2 0 .4 0 .6-.1l.3-.1c.1.1.2 0 .2 0zm-5.3.5c.5 0 1.2-.5 1.8-1.6.7-1.1 1.2-2.3 1.5-3.5 0-.4-.2-.6-.4-.8-.1-.1-.2-.1-.4-.1s-.4.1-.7.2c-.3.1-.5.3-.7.6-.2.2-.5.5-.7.8-.2.3-.4.7-.5 1-.3.8-.5 1.5-.5 2.3s.2 1.1.6 1.1zM250.3 47.2c-.1-.1-.2-.3-.3-.5-.1-.2-.1-.5-.1-.7 0-.3.1-.7.2-1.1.1-.5.3-1 .5-1.6l.7-1.9c.9-2.7 1.5-4.8 1.6-6.3 0-.4.3-.7.6-.7.2 0 .4.1.6.2.3.2.4.5.4.8 0 .3-.1.6-.1 1-.1.4-.2.8-.3 1.3s-.3 1-.5 1.5l-1.1 3.2c-.6 1.8-.9 3-.9 3.5 0 .3.1.4.3.4.2 0 .4 0 .6-.1s.3-.1.3-.1c.1 0 .2.1.2.2 0 .5-.2.9-.7 1.2-.3.2-.6.3-.9.3-.3 0-.5 0-.6-.1-.2-.3-.3-.4-.5-.5zM254.5 44.8c0-.5.1-.9.2-1.3s.3-.8.5-1.2c.2-.4.5-.8.8-1.1.3-.3.6-.6 1-.9.7-.6 1.5-.8 2.3-.8.9 0 1.5.4 1.8 1.1.1.3.2.5.1.9 0 .3-.1.7-.2.9s-.3.6-.5.8c-.2.2-.5.4-.8.6s-.6.3-1 .5c-.7.3-1.5.4-2.4.4v.8c0 .2.1.3.2.5.2.3.5.5.8.5.6 0 1.2-.2 1.8-.5.2-.1.4-.2.5-.4.1-.1.2-.2.3-.2s.2.1.2.2c.1.1.1.2.1.4 0 .3-.1.5-.2.7-.7.7-1.6 1-2.9 1-.8 0-1.4-.2-1.8-.7-.6-.6-.8-1.3-.8-2.2zm4.6-4.3c-.5 0-1.1.4-1.6 1.1-.4.6-.8 1.4-1 2.3.9-.1 1.6-.4 2.3-1 .6-.6.9-1.1.9-1.6s-.3-.8-.6-.8zM262 47.3l-.3-.3c-.1-.1-.1-.2-.1-.3v-.3c0-.1.1-.2.1-.4 1.1-2.6 1.6-4.4 1.6-5.3 0-.3-.1-.4-.3-.5l-.2-.1s-.1-.1-.1-.2 0-.2.1-.3c.1-.1.2-.2.3-.2.2-.1.5-.2.7-.2.2 0 .4 0 .6.1.1.1.2.1.3.2.2.2.3.4.3.6 0 .2 0 .4-.1.6 0 .2-.1.4-.2.6-.1.2-.1.4-.2.6-.1.2-.1.3-.1.4 0 .2-.1.3 0 .3.1-.1.2-.2.2-.3l.3-.6c.7-1.2 1.3-2 2-2.4.2-.1.4-.2.7-.2.3 0 .5.1.6.3.2.2.2.4.3.6v.6c0 .2-.1.3-.2.4-.2.3-.4.4-.6.4-.1 0-.1 0-.2-.1l-.2-.1c-.2-.2-.3-.2-.5-.2s-.4.1-.6.3c-.2.2-.5.5-.7.8-.8 1.1-1.5 2.3-2 3.7l-.3.9c-.1.2-.2.4-.2.5-.1.1-.2.1-.3.1s-.3 0-.4-.1c-.1.3-.2.2-.3.1zM268.1 46.1c0-.2 0-.3.1-.4.1-.1.2-.3.3-.3.2-.2.4-.3.7-.3.2 0 .3.1.3.3 0 .5.2.9.5 1.1.1.1.3.1.4.1h.4c.1 0 .2-.1.3-.1.2-.2.3-.3.3-.5s0-.4-.1-.6c-.1-.2-.2-.4-.4-.6l-.4-.6c-.6-.8-.9-1.6-.9-2.3 0-.6.2-1.1.7-1.6.6-.5 1.3-.8 2.2-.8.8 0 1.4.2 1.8.6.4.3.5.7.5 1.1 0 .4-.2.7-.5 1-.3.2-.6.3-.8.2-.1 0-.2-.1-.3-.2-.1-.1-.1-.2 0-.3 0-.1.1-.3.1-.4s0-.3-.1-.4c-.1-.1-.1-.2-.2-.3-.2-.2-.4-.3-.6-.3-.2 0-.4 0-.5.1-.1 0-.2.1-.3.2-.2.2-.3.4-.3.7s0 .5.1.7l.3.6c.1.2.3.4.4.6.2.2.3.4.4.6.3.5.5 1 .5 1.4s-.1.7-.3 1c-.2.3-.4.5-.6.7-.6.4-1.2.6-1.9.6s-1.2-.2-1.6-.5c-.3-.4-.5-.7-.5-1.1z"/></g><g fill="#595959"><path d="M4 140.9v-.2c.1-1.6.5-3 1.2-4.4.7-1.3 1.5-2.3 2.5-3.1 1-.8 2-1.2 3-1.2.7 0 1.3.3 1.7.8.4.4.5 1 .5 1.6 0 .8-.3 1.5-.8 2.3-.3.4-.7.7-1 .9-.2.1-.3.1-.5.1s-.3 0-.4-.1-.2-.1-.3-.2c-.2-.2-.3-.4-.3-.5s0-.3.1-.3c.9-.6 1.4-1.2 1.7-1.9.1-.3.2-.5.2-.7 0-.5-.2-.8-.7-.8-.8 0-1.5.4-2.3 1.2-.7.8-1.4 1.7-1.9 2.8-.5 1.2-.8 2.2-.8 3.2v.3c0 1.2.2 1.9.7 2.3.2.1.4.2.6.2.2 0 .5 0 .7-.1s.4-.1.7-.3c.4-.2.8-.5 1.4-.9.2-.1.3-.1.4.1.1.1.1.3.1.5 0 .3 0 .5-.1.6l-.4.4c-.2.2-.4.3-.7.4-.7.3-1.3.4-1.9.4-.6 0-1.1-.1-1.5-.2-.4-.2-.7-.4-1-.7-.6-.7-.9-1.5-.9-2.5zM12.4 143.9l-.3-.3c-.1-.1-.1-.2-.1-.3v-.3c0-.1.1-.2.1-.4 1.1-2.6 1.6-4.4 1.6-5.3 0-.3-.1-.4-.3-.5l-.2-.1s-.1-.1-.1-.2 0-.2.1-.3c.1-.1.2-.2.3-.2.2-.1.5-.2.7-.2.2 0 .4 0 .6.1s.2.1.3.2c.2.2.3.4.3.6 0 .2 0 .4-.1.6 0 .2-.1.4-.2.6-.1.2-.1.4-.2.6-.1.2-.1.3-.1.4 0 .2-.1.3 0 .3.1-.1.2-.2.2-.3l.3-.6c.7-1.2 1.3-2 2-2.4.2-.1.4-.2.7-.2.3 0 .5.1.6.3.2.2.2.4.3.6s0 .4 0 .6-.1.3-.2.4c-.2.3-.4.4-.6.4-.1 0-.1 0-.2-.1l-.2-.1c-.2-.2-.3-.2-.5-.2s-.4.1-.6.3-.5.5-.7.8c-.8 1.1-1.5 2.3-2 3.7l-.3.9c-.1.2-.2.4-.2.5-.1.1-.2.1-.3.1s-.3 0-.4-.1c-.1.3-.2.2-.3.1zM19.6 143.6c-.2-.2-.4-.5-.5-.8s-.2-.7-.2-1.1c0-.4 0-.9.2-1.3.1-.4.3-.9.5-1.3s.5-.8.7-1.2.6-.7 1-1c.8-.6 1.5-.9 2.4-.9 1.1 0 1.8.5 2.2 1.4.3.7.3 1.5 0 2.5-.2.9-.6 1.7-1.2 2.5-.6.7-1.3 1.3-2 1.6-.4.2-.8.2-1.2.2s-.7 0-1-.1c-.4-.1-.6-.3-.9-.5zm1.5-3.8c-.2.4-.3.8-.4 1.2-.1.4-.1.8-.1 1.2 0 .4.1.6.2.9.1.2.3.3.5.3s.5-.1.7-.2c.2-.2.5-.4.7-.7l.6-.9c.2-.4.4-.7.5-1.1.3-.8.5-1.6.5-2.2 0-.6-.1-.9-.4-1.1-.1-.1-.2-.1-.4-.1s-.4.1-.6.2-.4.4-.7.6-.4.6-.6.9-.3.6-.5 1zM28.5 143.4c0 .1-.1.5-.3 1.2-.2.7-.4 1.3-.5 1.8-.3 1-.6 1.6-.8 1.8-.2.2-.4.3-.6.3-.3 0-.5-.1-.7-.4 0-.1-.1-.2-.1-.3s.1-.3.2-.7c.4-.9 1-2.6 1.6-5.1.3-1 .5-1.7.5-2l.3-1c.2-.6.3-1.1.3-1.3v-.5c-.1-.1-.1-.2-.2-.2s-.1-.1-.2-.1-.1-.1-.1-.2.1-.2.1-.3c.1-.1.2-.1.3-.2.2-.1.5-.2.7-.2.2 0 .4 0 .6.1.1.1.2.1.3.2.2.2.3.4.3.6-.1.4-.1.7-.2 1 .9-1.3 1.9-1.9 2.8-1.9.9 0 1.5.5 1.8 1.4.1.3.2.7.2 1.2s-.1.9-.2 1.4-.3.9-.6 1.3c-.2.4-.5.8-.8 1.2-.3.4-.7.7-1 .9-.8.5-1.5.8-2.1.8-.7 0-1.2-.3-1.6-.8zm1.2-3.3c-.2.4-.3.7-.5 1.1s-.2.7-.2 1 .1.6.2.7c.1.2.3.3.6.3s.5-.1.8-.2c.3-.1.5-.3.7-.6.2-.2.5-.5.7-.8.2-.3.4-.6.5-1 .3-.8.5-1.5.5-2.2 0-.4 0-.7-.1-.9-.1-.2-.3-.3-.5-.3s-.4.1-.6.2c-.2.2-.5.4-.7.6-.2.3-.5.6-.7.9-.3.4-.5.8-.7 1.2zM37.3 143.4c0 .1-.1.5-.3 1.2-.2.7-.4 1.3-.5 1.8-.3 1-.6 1.6-.8 1.8-.2.2-.4.3-.6.3-.3 0-.5-.1-.7-.4 0-.1-.1-.2-.1-.3s.1-.3.2-.7c.4-.9 1-2.6 1.6-5.1.3-1 .5-1.7.5-2l.3-1c.2-.6.3-1.1.3-1.3v-.5c-.1-.1-.1-.2-.2-.2s-.1-.1-.2-.1-.1-.1-.1-.2.1-.2.1-.3c.1-.1.2-.1.3-.2.2-.1.5-.2.7-.2.2 0 .4 0 .6.1.1.1.2.1.3.2.2.2.3.4.3.6-.1.4-.1.7-.2 1 .9-1.3 1.9-1.9 2.8-1.9.9 0 1.5.5 1.8 1.4.1.3.2.7.2 1.2s-.1.9-.2 1.4-.3.9-.6 1.3c-.2.4-.5.8-.8 1.2-.3.4-.7.7-1 .9-.8.5-1.5.8-2.1.8-.7 0-1.2-.3-1.6-.8zm1.2-3.3c-.2.4-.3.7-.5 1.1s-.2.7-.2 1 .1.6.2.7c.1.2.3.3.6.3s.5-.1.8-.2c.3-.1.5-.3.7-.6.2-.2.5-.5.7-.8.2-.3.4-.6.5-1 .3-.8.5-1.5.5-2.2 0-.4 0-.7-.1-.9-.1-.2-.3-.3-.5-.3s-.4.1-.6.2c-.2.2-.5.4-.7.6-.2.3-.5.6-.7.9-.2.4-.5.8-.7 1.2zM44.8 141.4c0-.5.1-.9.2-1.3s.3-.8.5-1.2.5-.8.8-1.1c.3-.3.6-.6 1-.9.7-.6 1.5-.8 2.3-.8.9 0 1.5.4 1.8 1.1.1.3.2.5.1.9 0 .3-.1.7-.2.9s-.3.6-.5.8c-.2.2-.5.4-.8.6s-.6.3-1 .5c-.7.3-1.5.4-2.4.4v.8c0 .2.1.3.2.5.2.3.5.5.8.5.6 0 1.2-.2 1.8-.5.2-.1.4-.2.5-.4.1-.1.2-.2.3-.2s.2.1.2.2.1.2.1.4c0 .3-.1.5-.2.7-.7.7-1.6 1-2.9 1-.8 0-1.4-.2-1.8-.7-.6-.6-.8-1.3-.8-2.2zm4.6-4.3c-.5 0-1.1.4-1.6 1.1-.4.6-.8 1.4-1 2.3.9-.1 1.6-.4 2.3-1 .6-.6.9-1.1.9-1.6s-.2-.8-.6-.8zM60.1 142.6c.1 0 .2.1.2.2 0 .4-.2.8-.7 1.2-.3.2-.6.3-.9.3s-.5 0-.7-.1c-.2-.1-.3-.2-.4-.3-.3-.3-.4-.7-.4-1.3 0-.1 0-.3.1-.5-.4.7-.8 1.1-1.1 1.4-.6.6-1.2.8-1.8.8-.9 0-1.5-.4-1.8-1.3-.1-.3-.2-.7-.2-1.2s.1-.9.2-1.4.3-.9.6-1.4.5-.8.8-1.2.7-.7 1-1c.8-.6 1.4-.9 2.1-.9.6 0 1.1.3 1.5.8.9-3.1 1.6-4.9 2-5.5.2-.2.4-.3.6-.3.4 0 .6.1.8.3.1.1.1.1.1.2s0 .2-.1.4-.2.5-.4.9c-.5 1.2-.8 2.1-1 2.7-.5 1.5-.8 2.5-1 3l-.4 1.4c-.4 1.3-.6 2.1-.6 2.5s.1.5.4.5c.2 0 .4 0 .6-.1l.3-.1h.2zm-5.4.4c.5 0 1.2-.5 1.8-1.6.7-1.1 1.2-2.3 1.5-3.5 0-.4-.2-.6-.4-.8-.1-.1-.2-.1-.4-.1s-.4.1-.7.2c-.3.1-.5.3-.7.6-.2.2-.5.5-.7.8-.2.3-.4.6-.5 1-.3.8-.5 1.5-.5 2.3s.2 1.1.6 1.1zM68.7 142.7c.1 0 .2.1.2.3 0 .2-.1.5-.3.7-.3.4-.7.5-1.3.5-.6 0-1-.2-1.2-.7-.1-.2-.1-.4-.1-.6s0-.5.1-.8l.3-.9c.1-.3.3-.7.4-1l.4-1c.3-.7.5-1.2.5-1.5s0-.4-.1-.5c0-.1-.1-.1-.2-.2l-.2-.1c-.1 0-.1-.1-.1-.2s0-.2.1-.3.2-.2.3-.2c.2-.1.5-.2.8-.2.8 0 1.1.2 1.1.6 0 .5-.1 1-.4 1.6-.2.6-.5 1.1-.6 1.5l-.5 1.1c-.3.8-.5 1.4-.5 1.7 0 .2.1.3.3.3.2 0 .4 0 .5-.1h.5zm1.7-8.5c-.1.1-.2.2-.4.3-.1.1-.3.1-.5.1s-.3 0-.5-.1c-.1-.1-.3-.2-.4-.3-.2-.3-.3-.5-.3-.8s0-.5.1-.6l.3-.3c.3-.2.5-.2.7-.2h.5c.1 0 .2.1.3.2.3.2.4.4.4.6s0 .5-.1.6 0 .4-.1.5zM76.6 137.5c-.3 0-.9.4-1.7 1.3-.6.7-1 1.2-1.3 1.5l-.7.9-.7 1.4-.4.9c-.1.2-.2.4-.3.5-.1.1-.2.1-.3.1-.1 0-.3 0-.4-.1-.1 0-.2-.1-.3-.2-.2-.2-.3-.3-.3-.5 0-.1.1-.2.2-.5l.3-.6c.1-.2.2-.4.3-.7l.4-1.1c.6-1.5.9-2.5.9-3 0-.2-.1-.4-.2-.5l-.2-.1c-.1 0-.1-.1-.1-.2s0-.2.1-.3.2-.2.3-.2c.2-.1.5-.2.7-.2.2 0 .4 0 .6.1.1.1.3.1.4.2.2.2.3.4.3.6s0 .4-.1.6c-.1.2-.1.4-.2.6l-.3.6c-.2.4-.3.7-.4.8 0 .1-.1.1 0 .1 1-1.2 1.5-2 1.7-2.2.4-.5.7-.8.9-1 .4-.3.8-.5 1.2-.5s.7.1.9.3.3.5.3.9c0 .3-.1.7-.3 1.2-.2.4-.3.8-.3.9l1.1-1.5.6-.8c.4-.4.7-.7 1-.9.3-.1.5-.2.7-.2.2 0 .4 0 .5.1s.3.2.5.3c.3.3.4.6.4 1s-.1.8-.3 1.3-.4.8-.5 1.1-.3.5-.4.8c-.4.8-.6 1.4-.6 1.8 0 .3.1.4.3.4.2 0 .4 0 .6-.1s.3-.1.3-.1c.1 0 .2.1.2.2 0 .5-.2.9-.7 1.2-.3.2-.6.3-.9.3-.3 0-.5 0-.6-.1-.2-.1-.3-.2-.4-.3-.3-.3-.4-.7-.4-1.1s.1-.9.2-1.3.3-.7.4-1.1.3-.7.5-1c.2-.3.3-.5.4-.7.2-.4.3-.6.3-.8 0-.2-.1-.3-.3-.3-.3 0-.8.5-1.5 1.4-.6.7-.9 1.2-1.1 1.6l-.5.8-.7 1.4-.4.9c-.1.2-.2.4-.3.5-.1.1-.2.1-.3.1-.1 0-.3 0-.4-.1-.1 0-.2-.1-.3-.2-.2-.2-.3-.3-.3-.5s.1-.4.2-.7c.1-.3.3-.6.4-1l1.1-2.3c.4-.9.6-1.4.6-1.6s-.2-.1-.4-.1zm.8 2.2zM89.8 142.1c0 .5.2.7.5.7.2 0 .4 0 .6-.1.2-.1.3-.1.3-.1.1 0 .2.1.2.2 0 .4-.2.8-.7 1.2-.5.3-1 .4-1.5.3-.3-.1-.6-.4-.8-.8-.1-.2-.1-.4-.1-.6 0-.3 0-.6.1-.9-.5 1-1.1 1.7-1.8 2-.3.1-.6.2-.9.2-.3 0-.6-.1-.8-.2-.2-.1-.4-.3-.6-.6-.3-.5-.5-1.1-.5-1.8 0-.9.3-1.8.8-2.7.5-.8 1.1-1.5 1.8-2s1.4-.8 2-.8c.6 0 1.1.3 1.5.9.4-.6.7-.9 1-.9.3 0 .5.1.7.2.3.2.4.4.3.5-1.3 2.7-2 4.3-2 5-.1.1-.1.1-.1.3zm-4.4 0c0 .6.2.9.6.9.3 0 .7-.3 1.1-.8.7-.8 1.2-1.8 1.7-3.1.2-.4.3-.8.4-1.2 0-.4-.2-.6-.4-.8-.1-.1-.2-.1-.4-.1s-.4.1-.6.2c-.2.1-.5.3-.7.6-.2.2-.4.5-.6.8-.2.3-.4.7-.5 1-.4.9-.6 1.7-.6 2.5zM97 142.4c-.8 1.2-1.7 1.8-2.6 1.8-.9 0-1.5-.5-1.8-1.4-.1-.3-.2-.7-.2-1.2s.1-.9.2-1.4.3-.9.5-1.3.5-.8.8-1.2c.3-.4.6-.7 1-.9.7-.5 1.5-.8 2.2-.8.7 0 1.3.3 1.6 1l.2-.2.2-.2c.1-.1.3-.2.4-.2s.2 0 .3.1c.1 0 .2.1.3.1.3.2.4.3.3.4-.3.6-.5 1.2-.7 1.8l-1.2 3.7c-.9 2.8-2.1 4.6-3.5 5.4-.4.2-.7.3-1 .4h-.6c-.1 0-.2-.1-.3-.1-.2-.1-.3-.2-.3-.4s.1-.3.4-.3c.2 0 .5-.1.8-.3.3-.2.5-.3.8-.6.9-.8 1.7-2.2 2.2-4.2zm-2.3-2.7l-.3 1.2c-.1.4-.1.7-.1 1v.6c0 .2 0 .2.1.3.1.2.3.3.5.3s.4-.1.6-.2c.2-.1.4-.3.6-.6s.4-.5.7-.9.4-.7.6-1.1c.4-.9.7-1.7.9-2.5 0-.1-.1-.3-.3-.4-.3-.3-.6-.4-.8-.4-.2 0-.5.1-.7.2-.2.1-.5.3-.7.6-.2.3-.4.5-.6.9s-.4.6-.5 1zM100.9 141.4c0-.5.1-.9.2-1.3s.3-.8.5-1.2.5-.8.8-1.1c.3-.3.6-.6 1-.9.7-.6 1.5-.8 2.3-.8.9 0 1.5.4 1.8 1.1.1.3.2.5.1.9 0 .3-.1.7-.2.9s-.3.6-.5.8c-.2.2-.5.4-.8.6s-.6.3-1 .5c-.7.3-1.5.4-2.4.4v.8c0 .2.1.3.2.5.2.3.5.5.8.5.6 0 1.2-.2 1.8-.5.2-.1.4-.2.5-.4.1-.1.2-.2.3-.2s.2.1.2.2.1.2.1.4c0 .3-.1.5-.2.7-.7.7-1.6 1-2.9 1-.8 0-1.4-.2-1.8-.7-.6-.6-.8-1.3-.8-2.2zm4.6-4.3c-.5 0-1.1.4-1.6 1.1-.4.6-.8 1.4-1 2.3.9-.1 1.6-.4 2.3-1 .6-.6.9-1.1.9-1.6s-.3-.8-.6-.8zM32.4 162.6c0 .1-.1.5-.3 1.2-.2.7-.4 1.3-.5 1.8-.3 1-.6 1.6-.8 1.8-.2.2-.4.3-.6.3-.3 0-.5-.1-.7-.4 0-.1-.1-.2-.1-.3s.1-.3.2-.7c.4-.9 1-2.6 1.6-5.1.3-1 .5-1.7.5-2l.3-1c.2-.6.3-1.1.3-1.3v-.5c-.1-.1-.1-.2-.2-.2s-.1-.1-.2-.1-.1-.1-.1-.2.1-.2.1-.3c.1-.1.2-.1.3-.2.2-.1.5-.2.7-.2.2 0 .4 0 .6.1.1.1.2.1.3.2.2.2.3.4.3.6-.1.4-.1.7-.2 1 .9-1.3 1.9-1.9 2.8-1.9.9 0 1.5.5 1.8 1.4.1.3.2.7.2 1.2s-.1.9-.2 1.4-.3.9-.6 1.3c-.2.4-.5.8-.8 1.2-.3.4-.7.7-1 .9-.8.5-1.5.8-2.1.8-.8 0-1.3-.3-1.6-.8zm1.2-3.3c-.2.4-.3.7-.5 1.1s-.2.7-.2 1 .1.6.2.7c.1.2.3.3.6.3s.5-.1.8-.2c.3-.1.5-.3.7-.6.2-.2.5-.5.7-.8.2-.3.4-.6.5-1 .3-.8.5-1.5.5-2.2 0-.4 0-.7-.1-.9-.1-.2-.3-.3-.5-.3s-.4.1-.6.2c-.2.2-.5.4-.7.6-.2.3-.5.6-.7.9-.3.4-.5.8-.7 1.2zM39.8 163.1l-.3-.3c-.1-.1-.1-.2-.1-.3v-.3c0-.1.1-.2.1-.4 1.1-2.6 1.6-4.4 1.6-5.3 0-.3-.1-.4-.3-.5l-.2-.1s-.1-.1-.1-.2 0-.2.1-.3c.1-.1.2-.2.3-.2.2-.1.5-.2.7-.2.2 0 .4 0 .6.1s.2.1.3.2c.2.2.3.4.3.6 0 .2 0 .4-.1.6 0 .2-.1.4-.2.6-.1.2-.1.4-.2.6-.1.2-.1.3-.1.4 0 .2-.1.3 0 .3.1-.1.2-.2.2-.3l.3-.6c.7-1.2 1.3-2 2-2.4.2-.1.4-.2.7-.2.3 0 .5.1.6.3.2.2.2.4.3.6s0 .4 0 .6-.1.3-.2.4c-.2.3-.4.4-.6.4-.1 0-.1 0-.2-.1l-.2-.1c-.2-.2-.3-.2-.5-.2s-.4.1-.6.3-.5.5-.7.8c-.8 1.1-1.5 2.3-2 3.7l-.3.9c-.1.2-.2.4-.2.5-.1.1-.2.1-.3.1s-.3 0-.4-.1c-.1.3-.2.2-.3.1zM46.4 160.6c0-.5.1-.9.2-1.3s.3-.8.5-1.2.5-.8.8-1.1c.3-.3.6-.6 1-.9.7-.6 1.5-.8 2.3-.8.9 0 1.5.4 1.8 1.1.1.3.2.5.1.9 0 .3-.1.7-.2.9s-.3.6-.5.8c-.2.2-.5.4-.8.6s-.6.3-1 .5c-.7.3-1.5.4-2.4.4v.8c0 .2.1.3.2.5.2.3.5.5.8.5.6 0 1.2-.2 1.8-.5.2-.1.4-.2.5-.4.1-.1.2-.2.3-.2s.2.1.2.2.1.2.1.4c0 .3-.1.5-.2.7-.7.7-1.6 1-2.9 1-.8 0-1.4-.2-1.8-.7-.6-.6-.8-1.3-.8-2.2zm4.6-4.3c-.5 0-1.1.4-1.6 1.1-.4.6-.8 1.4-1 2.3.9-.1 1.6-.4 2.3-1 .6-.6.9-1.1.9-1.6s-.3-.8-.6-.8zM53.9 162.6c-.1-.2-.1-.4-.1-.6s0-.5.1-.8l.3-.9c.1-.3.2-.6.4-.9l.4-.9c.5-1.2.7-1.9.6-2.1-.1-.1-.2-.2-.4-.3-.1 0-.1-.1-.1-.2s0-.2.1-.3c.1-.1.2-.2.3-.2.3-.1.5-.2.8-.2.3 0 .4 0 .6.1s.2.1.3.2c.2.2.3.4.3.6s0 .5-.1.8-.2.6-.4 1-.3.7-.5 1l-.5 1c-.3.8-.5 1.3-.5 1.5 0 .5.2.7.5.7.9 0 1.7-.5 2.4-1.5.4-.6.8-1.3 1-2 .1-.3.1-.6.1-.9v-.7c0-.2 0-.3-.1-.5-.1-.3-.2-.5-.3-.6-.1-.1-.1-.3.1-.5s.6-.3 1-.3c.3 0 .5.1.7.4.3.3.4.7.4 1.3s-.1 1.1-.2 1.6c-.2.5-.4 1-.7 1.5s-.6.9-1 1.3-.8.8-1.2 1.1c-.9.7-1.9 1-2.8 1-.8.1-1.3-.2-1.5-.7zM64.6 161.9c.1 0 .2.1.2.3 0 .2-.1.5-.3.7-.3.4-.7.5-1.3.5-.6 0-1-.2-1.2-.7-.1-.2-.1-.4-.1-.6s0-.5.1-.8l.3-.9c.1-.3.3-.7.4-1l.4-1c.3-.7.5-1.2.5-1.5s0-.4-.1-.5c0-.1-.1-.1-.2-.2l-.2-.1c-.1 0-.1-.1-.1-.2s0-.2.1-.3.2-.2.3-.2c.2-.1.5-.2.8-.2.8 0 1.1.2 1.1.6 0 .5-.1 1-.4 1.6-.2.6-.5 1.1-.6 1.5l-.5 1.1c-.3.8-.5 1.4-.5 1.7 0 .2.1.3.3.3.2 0 .4 0 .5-.1h.5zm1.6-8.5c-.1.1-.2.2-.4.3-.1.1-.3.1-.5.1s-.3 0-.5-.1c-.1-.1-.3-.2-.4-.3-.2-.3-.3-.5-.3-.8s0-.5.1-.6l.3-.3c.3-.2.5-.2.7-.2h.5c.1 0 .2.1.3.2.3.2.4.4.4.6s0 .5-.1.6.1.4-.1.5zM66.7 160.6c0-.5.1-.9.2-1.3s.3-.8.5-1.2.5-.8.8-1.1c.3-.3.6-.6 1-.9.7-.6 1.5-.8 2.3-.8.9 0 1.5.4 1.8 1.1.1.3.2.5.1.9 0 .3-.1.7-.2.9s-.3.6-.5.8c-.2.2-.5.4-.8.6s-.6.3-1 .5c-.7.3-1.5.4-2.4.4v.8c0 .2.1.3.2.5.2.3.5.5.8.5.6 0 1.2-.2 1.8-.5.2-.1.4-.2.5-.4.1-.1.2-.2.3-.2s.2.1.2.2.1.2.1.4c0 .3-.1.5-.2.7-.7.7-1.6 1-2.9 1-.8 0-1.4-.2-1.8-.7-.6-.6-.8-1.3-.8-2.2zm4.5-4.3c-.5 0-1.1.4-1.6 1.1-.4.6-.8 1.4-1 2.3.9-.1 1.6-.4 2.3-1 .6-.6.9-1.1.9-1.6s-.2-.8-.6-.8zM76.7 162.4c-.7.6-1.3.9-1.7.9-.4 0-.7-.2-.8-.6-.1-.1-.1-.3-.1-.4 0-.3.1-.7.2-1l.3-.9.7-1.8c.3-.7.4-1.2.5-1.5.1-.3 0-.5 0-.6l-.3-.3c-.1-.1-.2-.1-.3-.2s-.1-.1-.1-.2 0-.2.1-.3c.1-.1.2-.2.3-.2.3-.1.5-.2.8-.2.3 0 .5 0 .6.1.2.1.3.1.4.2.2.2.3.4.3.6s0 .5-.1.8c-.1.3-.2.6-.3 1-.1.3-.3.7-.4 1.1l-.4 1.1c-.3.9-.5 1.5-.6 2 .5-.2 1.1-.8 1.9-1.8.9-1.1 1.7-2.4 2.3-3.9.1-.2.2-.3.3-.4.2-.1.4-.1.7-.1.5 0 .7.2.7.4s0 .3-.1.5-.2.4-.2.5l-.4.8c-.6 1.2-.9 2.2-.9 3 0 .5.1.9.4 1.1.1.1.2.1.4.1s.4-.1.6-.2.5-.3.7-.5c.2-.2.4-.5.6-.7.2-.3.3-.6.5-.9.3-.7.4-1.3.4-1.8 0-.9-.2-1.6-.5-2-.1-.1-.1-.3.1-.5s.5-.3.9-.3c.5 0 .8.3 1 .9.1.2.1.5.1 1s-.1.9-.2 1.4l-.6 1.5c-.2.5-.6.9-.9 1.3s-.7.8-1.1 1.1c-.8.7-1.5 1-2.2 1-1.2 0-1.7-.8-1.7-2.3 0-.3 0-.7.1-1-.6.8-1.2 1.6-2 2.2z"/></g><g fill="#595959"><path d="M386.7 275.8c.1 0 .2.1.2.3 0 .2 0 .3-.1.5-.1.1-.1.2-.2.3l-.3.3c-.3.2-.7.3-1 .3s-.6 0-.8-.1c-.2-.1-.4-.2-.5-.4-.3-.4-.5-.9-.5-1.5 0-.7.1-1.5.4-2.5.3-1 .5-1.8.8-2.5s.5-1.4.7-2l.7-1.8c-.8.7-1.7 2.1-2.9 4.4l-1.9 3.6c-1 1.9-1.7 2.8-2.2 2.8-.4 0-.7-.2-.9-.5-.1-.3-.2-.9-.2-1.8s.1-1.6.2-2.4c.1-.8.3-1.5.5-2.3.4-1.3.8-2.6 1.4-3.9-.5.3-1.2 1-1.8 2.1-.5.8-.9 1.5-1.1 1.9l-2 3.7c-.8 1.5-1.5 2.5-2 2.8-.4.3-.8.4-1.2.4-.4 0-.6-.1-.8-.3-.1-.1-.1-.2-.1-.3s0-.1.1-.1c.3-.1.6-.2.7-.3.1-.1.3-.2.4-.3l.6-.6c.3-.3.5-.7.8-1.2.3-.5.6-1 .9-1.6l1-1.8c.9-1.8 1.9-3.2 2.9-4.3.4-.4.7-.7 1-.9.3-.2.7-.4 1.2-.5h.7c.2 0 .2.1.3.1.2.2.3.4.2.6 0 .2-.1.4-.2.7l-.4 1.1c-1 2.7-1.5 5.2-1.6 7.4.3-.5.6-1 .8-1.6l.9-1.7.9-1.8c1.4-2.7 2.8-4.2 4-4.6.3-.1.5-.1.6-.1s.3 0 .4.1c.1 0 .2.1.3.2.2.2.2.3.2.5-.1.2-.1.4-.2.7l-1.1 3.3-.4 1.3c-.4 1.5-.7 2.7-.8 3.5 0 .3 0 .6.1.8.1.2.3.3.4.3h.4c.1 0 .2-.1.3-.1l.2-.1c-.1 0-.1-.1 0-.1zM388.8 276.9c-.2-.2-.4-.5-.5-.8s-.2-.7-.2-1.1c0-.4 0-.9.2-1.3.1-.4.3-.9.5-1.3s.5-.8.7-1.2c.3-.4.6-.7 1-1 .8-.6 1.5-.9 2.4-.9 1.1 0 1.8.5 2.2 1.4.3.7.3 1.5 0 2.5-.2.9-.6 1.7-1.2 2.5-.6.7-1.3 1.3-2 1.6-.4.2-.8.2-1.2.2s-.7 0-1-.1c-.4-.1-.7-.3-.9-.5zm1.5-3.8c-.2.4-.3.8-.4 1.2-.1.4-.1.8-.1 1.2 0 .4.1.6.2.9.1.2.3.3.5.3s.5-.1.7-.2c.2-.2.5-.4.7-.7l.6-.9c.2-.4.4-.7.5-1.1.3-.8.5-1.6.5-2.2 0-.6-.1-.9-.4-1.1-.1-.1-.2-.1-.4-.1s-.4.1-.6.2c-.2.2-.4.4-.7.6l-.6.9c-.2.2-.3.6-.5 1zM396.3 276.7c-.1-.2-.1-.4-.1-.6s0-.5.1-.8l.3-.9c.1-.3.2-.6.4-.9l.4-.9c.5-1.2.7-1.9.6-2.1-.1-.1-.2-.2-.4-.3-.1 0-.1-.1-.1-.2s0-.2.1-.3c.1-.1.2-.2.3-.2.3-.1.5-.2.8-.2.3 0 .4 0 .6.1s.2.1.3.2c.2.2.3.4.3.6 0 .2 0 .5-.1.8-.1.3-.2.6-.4 1-.1.3-.3.7-.5 1l-.5 1c-.3.8-.5 1.3-.5 1.5 0 .5.2.7.5.7.9 0 1.7-.5 2.4-1.5.4-.6.8-1.3 1-2 .1-.3.1-.6.1-.9v-.7c0-.2 0-.3-.1-.5-.1-.3-.2-.5-.3-.6-.1-.1-.1-.3.1-.5s.6-.3 1-.3c.3 0 .5.1.7.4.3.3.4.7.4 1.3 0 .5-.1 1.1-.2 1.6-.2.5-.4 1-.7 1.5-.3.5-.6.9-1 1.3s-.8.8-1.2 1.1c-.9.7-1.9 1-2.8 1-.7.1-1.2-.2-1.5-.7zM410.5 275.3c0 .5.2.7.5.7.2 0 .4 0 .6-.1.2-.1.3-.1.3-.1.1 0 .2.1.2.2 0 .4-.2.8-.7 1.2-.5.3-1 .4-1.5.3-.3-.1-.6-.4-.8-.8-.1-.2-.1-.4-.1-.6 0-.3 0-.6.1-.9-.5 1-1.1 1.7-1.8 2-.3.1-.6.2-.9.2-.3 0-.6-.1-.8-.2-.2-.1-.4-.3-.6-.6-.3-.5-.5-1.1-.5-1.8 0-.9.3-1.8.8-2.7.5-.8 1.1-1.5 1.8-2s1.4-.8 2-.8c.6 0 1.1.3 1.5.9.4-.6.7-.9 1-.9.3 0 .5.1.7.2.3.2.4.4.3.5-1.3 2.7-2 4.3-2 5-.1.1-.1.2-.1.3zm-4.3.1c0 .6.2.9.6.9.3 0 .7-.3 1.1-.8.7-.8 1.2-1.8 1.7-3.1.2-.4.3-.8.4-1.2 0-.4-.2-.6-.4-.8-.1-.1-.2-.1-.4-.1s-.4.1-.6.2c-.2.1-.5.3-.7.6-.2.2-.4.5-.6.8-.2.3-.4.7-.5 1-.5.9-.6 1.7-.6 2.5zM413.2 275.2c0-.3 0-.6.1-.9 0-.3.1-.6.2-.8s.1-.6.2-.8l.9-2.7c.7-2.2 1.1-3.9 1.3-5.1.1-.4.3-.7.6-.7.2 0 .4.1.6.2.3.2.4.5.4.7 0 .3 0 .5-.1.8-.1.3-.1.6-.3 1-.1.4-.2.7-.3 1.1-.3 1-.6 1.8-.8 2.2l-.4 1.2c.5-.7.8-1.2 1.1-1.4.6-.5 1.2-.8 1.8-.8.9 0 1.5.5 1.8 1.4.1.3.1.7.1 1.2s-.1 1-.2 1.5-.3.9-.6 1.3c-.2.4-.5.8-.9 1.1-.3.3-.7.6-1 .9-.8.5-1.5.7-2.2.7-.7 0-1.3-.2-1.7-.7-.4-.2-.6-.7-.6-1.4zm2.2 1.3c.5 0 1-.2 1.5-.7.8-.7 1.3-1.6 1.6-2.9.1-.4.1-.8.1-1.3 0-.4 0-.7-.1-.9-.1-.2-.3-.3-.5-.3s-.4.1-.6.3c-.2.2-.5.4-.7.7-.2.3-.5.6-.7.9-.2.4-.5.7-.6 1.1-.4.8-.6 1.6-.6 2.1s.1 1 .6 1zM421.9 277.1c-.1-.1-.2-.3-.3-.5-.1-.2-.1-.5-.1-.7 0-.3.1-.7.2-1.1.1-.5.3-1 .5-1.6l.7-1.9c.9-2.7 1.5-4.8 1.6-6.3 0-.4.3-.7.6-.7.2 0 .4.1.6.2.3.2.4.5.4.8 0 .3-.1.6-.1 1-.1.4-.2.8-.3 1.3s-.3 1-.5 1.5l-1.1 3.2c-.6 1.8-.9 3-.9 3.5 0 .3.1.4.3.4.2 0 .4 0 .6-.1s.3-.1.3-.1c.1 0 .2.1.2.2 0 .5-.2.9-.7 1.2-.3.2-.6.3-.9.3-.3 0-.5 0-.6-.1-.2-.3-.3-.4-.5-.5zM426.1 274.7c0-.5.1-.9.2-1.3s.3-.8.5-1.2c.2-.4.5-.8.8-1.1.3-.3.6-.6 1-.9.7-.6 1.5-.8 2.3-.8.9 0 1.5.4 1.8 1.1.1.3.2.5.1.9 0 .3-.1.7-.2.9s-.3.6-.5.8c-.2.2-.5.4-.8.6s-.6.3-1 .5c-.7.3-1.5.4-2.4.4v.8c0 .2.1.3.2.5.2.3.5.5.8.5.6 0 1.2-.2 1.8-.5.2-.1.4-.2.5-.4.1-.1.2-.2.3-.2s.2.1.2.2c.1.1.1.2.1.4 0 .3-.1.5-.2.7-.7.7-1.6 1-2.9 1-.8 0-1.4-.2-1.8-.7-.6-.6-.8-1.3-.8-2.2zm4.6-4.3c-.5 0-1.1.4-1.6 1.1-.4.6-.8 1.4-1 2.3.9-.1 1.6-.4 2.3-1 .6-.6.9-1.1.9-1.6s-.3-.8-.6-.8zM393.7 294.5c0 .5.2.7.5.7.2 0 .4 0 .6-.1.2-.1.3-.1.3-.1.1 0 .2.1.2.2 0 .4-.2.8-.7 1.2-.5.3-1 .4-1.5.3-.3-.1-.6-.4-.8-.8-.1-.2-.1-.4-.1-.6 0-.3 0-.6.1-.9-.5 1-1.1 1.7-1.8 2-.3.1-.6.2-.9.2-.3 0-.6-.1-.8-.2-.2-.1-.4-.3-.6-.6-.3-.5-.5-1.1-.5-1.8 0-.9.3-1.8.8-2.7.5-.8 1.1-1.5 1.8-2s1.4-.8 2-.8c.6 0 1.1.3 1.5.9.4-.6.7-.9 1-.9.3 0 .5.1.7.2.3.2.4.4.3.5-1.3 2.7-2 4.3-2 5-.1.1-.1.2-.1.3zm-4.3.1c0 .6.2.9.6.9.3 0 .7-.3 1.1-.8.7-.8 1.2-1.8 1.7-3.1.2-.4.3-.8.4-1.2 0-.4-.2-.6-.4-.8-.1-.1-.2-.1-.4-.1s-.4.1-.6.2c-.2.1-.5.3-.7.6-.2.2-.4.5-.6.8-.2.3-.4.7-.5 1-.5.9-.6 1.7-.6 2.5zM396.4 296.4l-.3-.3c-.1-.1-.1-.2-.1-.3v-.3c0-.1.1-.2.1-.4 1.1-2.6 1.6-4.4 1.6-5.3 0-.3-.1-.4-.3-.5l-.2-.1s-.1-.1-.1-.2 0-.2.1-.3c.1-.1.2-.2.3-.2.2-.1.5-.2.7-.2.2 0 .4 0 .6.1.1.1.2.1.3.2.2.2.3.4.3.6 0 .2 0 .4-.1.6 0 .2-.1.4-.2.6-.1.2-.1.4-.2.6-.1.2-.1.3-.1.4 0 .2-.1.3 0 .3.1-.1.2-.2.2-.3l.3-.6c.7-1.2 1.3-2 2-2.4.2-.1.4-.2.7-.2.3 0 .5.1.6.3.2.2.2.4.3.6v.6c0 .2-.1.3-.2.4-.2.3-.4.4-.6.4-.1 0-.1 0-.2-.1l-.2-.1c-.2-.2-.3-.2-.5-.2s-.4.1-.6.3c-.2.2-.5.5-.7.8-.8 1.1-1.5 2.3-2 3.7l-.3.9c-.1.2-.2.4-.2.5-.1.1-.2.1-.3.1s-.3 0-.4-.1c-.1.3-.2.2-.3.1zM402.9 293.9c0-.5.1-.9.2-1.3s.3-.8.5-1.2c.2-.4.5-.8.8-1.1.3-.3.6-.6 1-.9.7-.6 1.5-.8 2.3-.8.9 0 1.5.4 1.8 1.1.1.3.2.5.1.9 0 .3-.1.7-.2.9s-.3.6-.5.8c-.2.2-.5.4-.8.6s-.6.3-1 .5c-.7.3-1.5.4-2.4.4v.8c0 .2.1.3.2.5.2.3.5.5.8.5.6 0 1.2-.2 1.8-.5.2-.1.4-.2.5-.4.1-.1.2-.2.3-.2s.2.1.2.2c.1.1.1.2.1.4 0 .3-.1.5-.2.7-.7.7-1.6 1-2.9 1-.8 0-1.4-.2-1.8-.7-.5-.6-.8-1.3-.8-2.2zm4.6-4.3c-.5 0-1.1.4-1.6 1.1-.4.6-.8 1.4-1 2.3.9-.1 1.6-.4 2.3-1 .6-.6.9-1.1.9-1.6s-.2-.8-.6-.8zM416.4 294.5c0 .5.2.7.5.7.2 0 .4 0 .6-.1.2-.1.3-.1.3-.1.1 0 .2.1.2.2 0 .4-.2.8-.7 1.2-.5.3-1 .4-1.5.3-.3-.1-.6-.4-.8-.8-.1-.2-.1-.4-.1-.6 0-.3 0-.6.1-.9-.5 1-1.1 1.7-1.8 2-.3.1-.6.2-.9.2-.3 0-.6-.1-.8-.2-.2-.1-.4-.3-.6-.6-.3-.5-.5-1.1-.5-1.8 0-.9.3-1.8.8-2.7.5-.8 1.1-1.5 1.8-2s1.4-.8 2-.8c.6 0 1.1.3 1.5.9.4-.6.7-.9 1-.9.3 0 .5.1.7.2.3.2.4.4.3.5-1.3 2.7-2 4.3-2 5-.1.1-.1.2-.1.3zm-4.3.1c0 .6.2.9.6.9.3 0 .7-.3 1.1-.8.7-.8 1.2-1.8 1.7-3.1.2-.4.3-.8.4-1.2 0-.4-.2-.6-.4-.8-.1-.1-.2-.1-.4-.1s-.4.1-.6.2c-.2.1-.5.3-.7.6-.2.2-.4.5-.6.8-.2.3-.4.7-.5 1-.4.9-.6 1.7-.6 2.5z"/></g><text transform="translate(687.42 -436.001)" fill="#8F8F8F" font-family="'OpenSans'" font-size="15">top</text><text transform="translate(798.42 -314.001)" fill="#8F8F8F" font-family="'OpenSans'" font-size="15">right</text><text transform="translate(574.924 -314.001)" fill="#8F8F8F" font-family="'OpenSans'" font-size="15">left</text><text transform="translate(673.417 -205.002)" fill="#8F8F8F" font-family="'OpenSans'" font-size="15">bottom</text><path fill="#B9B9B9" d="M848.3-473.1h-6v3h6v-3zm-12 0h-6v3h6v-3zm-12 0h-6v3h6v-3zm-12 0h-6v3h6v-3zm-12 0h-6v3h6v-3zm-12 0h-6v3h6v-3zm-12 0h-6v3h6v-3zm-12 0h-6v3h6v-3zm-12 0h-6v3h6v-3zm-12 0h-6v3h6v-3zm-12 0h-6v3h6v-3zm-12 0h-6v3h6v-3zm-12 0h-6v3h6v-3zm-12 0h-6v3h6v-3zm-12 0h-6v3h6v-3zm-12 0h-6v3h6v-3zm-12 0h-6v3h6v-3zm-12 0h-6v3h6v-3zm-12 0h-6v3h6v-3zm-12 0h-6v3h6v-3zm-12 0h-6v3h6v-3zm-12 0h-6v3h6v-3zm-12 0h-6v3h6v-3zm-12 0h-6v3h6v-3zm-12 0h-6v3h6v-3zm-5.9 3h-3v6h3v-6zm0 12h-3v6h3v-6zm0 12h-3v6h3v-6zm0 12h-3v6h3v-6zm0 12h-3v6h3v-6zm0 12h-3v6h3v-6zm0 12h-3v6h3v-6zm0 12h-3v6h3v-6zm0 12h-3v6h3v-6zm0 12h-3v6h3v-6zm0 12h-3v6h3v-6zm0 12h-3v6h3v-6zm0 12h-3v6h3v-6zm0 12h-3v6h3v-6zm0 12h-3v6h3v-6zm0 12h-3v6h3v-6zm0 12h-3v6h3v-6zm0 12h-3v6h3v-6zm0 12h-3v6h3v-6zm0 12h-3v6h3v-6zm0 12h-3v6h3v-6zm0 12h-3v6h3v-6zm0 12h-3v6h3v-6zm0 12h-3v6h3v-6zm0 12h-3v5.3h3v-5.3zm9.7 2.3h-6v3h6v-3zm12 0h-6v3h6v-3zm12 0h-6v3h6v-3zm12 0h-6v3h6v-3zm12 0h-6v3h6v-3zm12 0h-6v3h6v-3zm12 0h-6v3h6v-3zm12 0h-6v3h6v-3zm12 0h-6v3h6v-3zm12 0h-6v3h6v-3zm12 0h-6v3h6v-3zm12 0h-6v3h6v-3zm12 0h-6v3h6v-3zm12 0h-6v3h6v-3zm12 0h-6v3h6v-3zm12 0h-6v3h6v-3zm12 0h-6v3h6v-3zm12 0h-6v3h6v-3zm12 0h-6v3h6v-3zm12 0h-6v3h6v-3zm12 0h-6v3h6v-3zm12 0h-6v3h6v-3zm12 0h-6v3h6v-3zm12 0h-6v3h6v-3zm8.2-.8h-3v3.8h.8-.8 3v-3.8zm0-12h-3v6h3v-6zm0-12h-3v6h3v-6zm0-12h-3v6h3v-6zm0-12h-3v6h3v-6zm0-12h-3v6h3v-6zm0-12h-3v6h3v-6zm0-12h-3v6h3v-6zm0-12h-3v6h3v-6zm0-12h-3v6h3v-6zm0-12h-3v6h3v-6zm0-12h-3v6h3v-6zm0-12h-3v6h3v-6zm0-12h-3v6h3v-6zm0-12h-3v6h3v-6zm0-12h-3v6h3v-6zm0-12h-3v6h3v-6zm0-12h-3v6h3v-6zm0-12h-3v6h3v-6zm0-12h-3v6h3v-6zm0-12h-3v6h3v-6zm0-12h-3v6h3v-6zm0-12h-3v6h3v-6zm0-12h-3v6h3v-6zm0-12h-3v6h3v-6z"/><path fill="none" stroke="#36CC89" stroke-width="2" stroke-miterlimit="10" d="M698.8-466v15.8M698.8-428v15.7M698.9-236v15.7M698.9-199v15.7M793.8-318h-6.6M842.3-318h-6.2M568.5-318h-9.3M611.3-318H602"/><circle fill="none" stroke="#36CC89" stroke-width="4" stroke-miterlimit="10" stroke-dasharray="15.7562,7.8781" cx="699.9" cy="-324.1" r="82.8"/><g fill="none" stroke="#F2F2F2" stroke-width="2" stroke-miterlimit="10"><path d="M349.8-223v1.5h-1.5"/><path stroke-dasharray="2.9545,2.9545" d="M345.3-221.5h-158"/><path d="M185.8-221.5h-1.5v-1.5"/><path stroke-dasharray="2.9545,2.9545" d="M184.3-226v-158"/><path d="M184.3-385.5v-1.5h1.5"/><path stroke-dasharray="2.9545,2.9545" d="M188.7-387h158.1"/><path d="M348.3-387h1.5v1.5"/><path stroke-dasharray="2.9545,2.9545" d="M349.8-382.6v158.1"/></g><g fill="none" stroke="#F2F2F2" stroke-width="2" stroke-miterlimit="10"><path d="M288.4-286.2v1.5h-1.5"/><path stroke-dasharray="2.9545,2.9545" d="M284-284.7H125.9"/><path d="M124.4-284.7h-1.5v-1.5"/><path stroke-dasharray="2.9545,2.9545" d="M122.9-289.2v-158.1"/><path d="M122.9-448.7v-1.5h1.5"/><path stroke-dasharray="2.9545,2.9545" d="M127.4-450.2h158.1"/><path d="M286.9-450.2h1.5v1.5"/><path stroke-dasharray="2.9545,2.9545" d="M288.4-445.8v158.1"/></g><circle fill="none" stroke="#36CC89" stroke-width="4" stroke-miterlimit="10" stroke-dasharray="15.7562,7.8781" cx="267" cy="-304.3" r="82.8"/><image overflow="visible" width="287" height="231" xlink:href="C1F1131F.jpg" transform="translate(-247.459 -458.124) scale(.9999)"/><text transform="rotate(6.615 3741.28 2456.173)" fill="#B9B9B9" font-family="'Courgette-Regular'" font-size="18.522">Move event</text><text transform="translate(172.942 -417.94)" fill="#8F8F8F" font-family="'OpenSans'" font-size="15">top</text><path fill="none" stroke="#36CC89" stroke-width="2" stroke-miterlimit="10" d="M184.3-446.5v14.3M184.3-409.9v14.7"/><text transform="translate(139.761 -384.02)" fill="#8F8F8F" font-family="'OpenSans'" font-size="15">left</text><path fill="none" stroke="#36CC89" stroke-width="2" stroke-miterlimit="10" d="M136.3-388H127M176.2-388h-9.4"/><circle fill="#D2F0E2" cx="123.9" cy="-449" r="5.2"/><circle fill="#36CC89" cx="184.3" cy="-387.3" r="5.2"/><path clip-rule="evenodd" fill="none" stroke="#5A5A5A" stroke-width="2" stroke-miterlimit="10" stroke-dasharray="3" d="M284.3 45.1s24.1-6.1 51.1 22.4M66.4 174.5c26.5 21 52 18 52 18M398.4 256.5s-9.1-23-48-28"/><path fill="#FFF" d="M314.2 145.5c1.8 3.1 3.3 6.4 4.8 9.7v-.1c.4-4-.8-7.6-4.8-9.6zM141.8 155.1c1.4-3.2 3-6.5 4.8-9.6-4.1 2-5.2 5.6-4.8 9.6z"/><path d="M318.9 155.1c-.5 4.1-3.6 7.6-8.5 11.3-5.8 4.5-14.9 6-20.3 8.9-3.7 1.9-10.6 6.1-14.8 15.2-4.5 9.9-3.7 14.4-3.7 14.4l-13-14s1.7-3.8-.6-8.7c-2.9-6.3-7.6-8.9-7.6-8.9s13.9 4.5 22.7 1.2c14.8-5.6 21.1-20.6 21.1-20.6s1.1 2.4 2.3 3.3c7.8 6.3 12.5 2.7 13.4 1.9 1.3-1.4 2-2.9 2-4.7 0-1.6-.8-3.3-2.5-3.7-1.7-.4-3.2 1.1-3.1 3 .1 2.4 1.2 3 1.2 3s-2.6 0-4.6-2.7c-1.2-1.6-1.7-5.3.6-7.4 2.8-2.5 6.4-2.9 10-1.4.2.1.5.2.7.3-2-3.5-4.2-6.9-6.5-10.1-1.9-.4-4.1-1.1-6.4-2.4-2.2-1.2-7.4-3.9-14.8-6.2-3-.9-12.9-3.5-15.6-3.8-4.3-.4-13.3-2-19.1 4.7-2 2.4-1.5 6.8-.1 7.7 4.8 3 5.5-1.5 4.6-2.7-.9-1.2-.3-4.7 1.2-5.8 1.5-1.2 3.7-2 6.9-.9 2.1.8 3.7 3.4 3.8 6.4.1 2.6-.8 5.3-3.2 6.8-2.4 1.5-4.1 2-6.5 2.2-3.3.2-5.4 0-8-.9-2.6-.8-6.3-2.9-8.6-7.9s-1.2-7.6.4-10.2c5.2-8.5 16.8-6.4 21.7-5.8 17.5 2.1 25.3 5.5 29.9 7.3 2.4.9 4.5 1.7 6.3 2.4-2.8-2.9-5.7-5.7-8.8-8.3-.1 0-.1 0-.2-.1-18.2-6.3-35.9-6.9-47.5-6.4-1.1.5-4.2 2.4-6.4 7.4-1.4 3.1-1.6 13.5-1.6 13.5s1 18.4 19.1 14.9c6-1.2 9.7-2.3 17.4-.8 2.1.4 6.1.8 8.6-.4 3.3-1.5 2.4-3.4 2.4-3.4s-.9.7-2.8 1.3c-1.9.6-3.8-.5-3.7-2.6.1-2.5 2.1-4.2 4.3-4.8 2.7-.8 5.8-.5 7.5 1.4 2.2 2.3 2.9 8.7-3.7 11.2-1.8.7-5.3 1.9-11.4 1.7-6.8-.3-16.6 1.3-21.3 6.4-1.6 1.8-4.5 2.7-5.6 2.6-1.1-.1-7.8-.1-7.8-.1l-8.4-8.3v7.3l7.8 7.2s-.3 2.8.8 5 2 5.4 1 7c-.9 1.4-2.4 2.9-2.7 3.2.3-.3 1.5-1.3 3.2-1.9 1.9-.7 3.2-.7 4.6-.3 3 .8 4.9 2.4 4.5 6.1-.3 3.5-4.7 4.5-6.5 2.1-1.1-1.4-.4-2.1-1.5-1.4-.3.2-1.5 8.7-4.9 10.8-2.5 1.6-5.9 1.2-6.2 1.2v8.6h9.6l7.1 9.7h-16.6v65h24.9v6.8h-24.9v4.8c16.4 0 31.9-4.2 45.5-11.6-.3-6.7-3.6-16.4-7.9-32.4-4.9-18.3-12.4-32.8-15.7-37.8-5.7-8.6-7.4-10.7-7.4-10.7l4.2-4.7c22.3 24.8 28.6 52.2 33.6 81.4 4.5-2.9 8.7-6.2 12.6-9.9-3.8-11.6-11.7-36.8-11.6-48.4.1-14.2-.5-27.4 7-34.5 13.3-12.6 33-11.2 33-11.2l.1 7.1h2.2c-1.4-8.4-3.8-16.9-7.2-24.9zm-54.1 3c4.2-1.4 9-1.2 11.6-1.4 2.6-.2 11.3-1.7 11.3-1.7s-2 5.6-8.2 9.7c-3.5 2.3-10.1 5.9-14.8 5.7-8.3-.4-10-3.9-10-3.9s5.9-6.9 10.1-8.4zm-5.1 113.7h-20l-5.3-48.2h10l15.3 48.2z"/><path d="M214.1 160.1c-1.1.1-4-.8-5.6-2.6-4.6-5.2-14.4-6.7-21.3-6.4-6.1.2-9.6-1-11.4-1.7-6.6-2.5-5.8-8.9-3.7-11.2 1.8-1.9 4.9-2.2 7.5-1.4 2.2.6 4.2 2.3 4.3 4.8.1 2.1-1.8 3.2-3.7 2.6-1.9-.6-2.8-1.3-2.8-1.3s-.8 1.8 2.4 3.4c2.5 1.2 6.6.8 8.6.4 7.7-1.5 11.4-.4 17.4.8 18.1 3.6 19.1-14.9 19.1-14.9s-.3-10.4-1.6-13.5c-2.2-5-5.3-6.9-6.4-7.4-11.6-.6-29.3 0-47.5 6.4-.1 0-.1 0-.2.1-3.1 2.6-6 5.3-8.8 8.3 1.8-.7 3.9-1.5 6.3-2.4 4.6-1.8 12.4-5.2 29.9-7.3 5-.6 16.5-2.7 21.7 5.8 1.6 2.6 2.7 5.1.4 10.2-2.3 5-6 7.1-8.6 7.9s-4.7 1.1-8 .9c-2.4-.2-4-.7-6.5-2.2s-3.3-4.2-3.2-6.8c.2-3 1.7-5.7 3.8-6.4 3.1-1.1 5.4-.3 6.9.9s2.1 4.7 1.2 5.8c-.9 1.2-.2 5.7 4.6 2.7 1.4-.9 1.9-5.3-.1-7.7-5.7-6.8-14.7-5.2-19.1-4.7-2.7.3-12.6 2.9-15.6 3.8-7.4 2.2-12.7 5-14.8 6.2-2.3 1.2-4.5 2-6.4 2.4-2.4 3.2-4.5 6.6-6.5 10.1.2-.1.4-.2.7-.3 3.6-1.5 7.3-1.1 10 1.4 2.3 2.1 1.8 5.8.6 7.4-2 2.7-4.6 2.7-4.6 2.7s1.1-.6 1.2-3c.1-1.9-1.4-3.5-3.1-3-1.7.4-2.6 2.1-2.5 3.7 0 1.8.7 3.4 2 4.7.9.8 5.6 4.4 13.4-1.9 1.2-.9 2.3-3.3 2.3-3.3s6.4 15.1 21.1 20.6c8.8 3.3 22.7-1.2 22.7-1.2s-4.7 2.5-7.6 8.9c-2.2 4.9-.6 8.7-.6 8.7l-13 14s.8-4.6-3.7-14.4c-4.2-9.1-11.1-13.3-14.8-15.2-5.4-2.9-14.5-4.4-20.3-8.9-4.8-3.7-8-7.2-8.5-11.3-3.4 8-5.8 16.4-7 25.3h2.2l.1-7.1s19.7-1.4 33 11.2c7.5 7.1 6.8 20.3 7 34.5.1 11.5-7.8 36.8-11.6 48.4 3.9 3.6 8.1 6.9 12.6 9.9 5-29.2 11.3-56.6 33.6-81.4l4.2 4.7s-1.8 2.1-7.4 10.7c-3.3 4.9-10.8 19.5-15.7 37.8-4.3 16-7.5 25.7-7.9 32.4 13.6 7.4 29 11.6 45.5 11.6v-4.8h-24.9v-6.8h24.9v-65h-16.6l7.1-9.7h9.6v-8.6c-.3 0-3.7.4-6.2-1.2-3.3-2.1-4.6-10.6-4.9-10.8-1.2-.8-.5 0-1.5 1.4-1.8 2.3-6.2 1.3-6.5-2.1-.4-3.7 1.5-5.3 4.5-6.1 1.4-.4 2.7-.4 4.6.3 1.7.6 2.9 1.6 3.2 1.9-.3-.3-1.8-1.8-2.7-3.2-1-1.5-.1-4.7 1-7 1.1-2.2.8-5 .8-5l7.8-7.2v-7.3l-8.4 8.3c-.2-.4-6.9-.4-8-.3zM196 170.4c-4.7.2-11.3-3.4-14.8-5.7-6.2-4.1-8.2-9.7-8.2-9.7s8.7 1.4 11.3 1.7c2.6.2 7.5 0 11.6 1.4 4.2 1.4 10 8.4 10 8.4s-1.6 3.5-9.9 3.9zm20.4 53.2h10l-5.3 48.2h-20l15.3-48.2zM230.4 281.4v-65 65zM230.4 288.2v4.8-4.8zM230.4 159v-7.3 7.3zM230.4 206.7v-8.6 8.6z"/><path fill="#FFF" d="M264.8 158.1c-4.2 1.4-10 8.4-10 8.4s1.7 3.5 10 3.9c4.7.2 11.3-3.4 14.8-5.7 6.2-4.1 8.2-9.7 8.2-9.7s-8.7 1.4-11.3 1.7c-2.7.2-7.5 0-11.7 1.4zM274.9 281.4c-.2-4.8-2-11.2-4.7-20.9-.9-3.4-2-7.1-3.1-11.3-4.6-17.1-11.8-31.8-15.6-37.5-5.5-8.4-7.3-10.6-7.4-10.6l-.5-.7 5.6-6.2.7.8c22.6 25.2 28.9 53.1 33.8 81.9l.1.6-.5.4c-2.2 1.5-4.6 2.9-6.9 4.2l-1.4.9-.1-1.6z"/><path fill="#FFF" d="M249.2 195.8c22.3 24.8 28.6 52.2 33.6 81.4-2.2 1.5-4.5 2.8-6.9 4.1-.3-6.7-3.6-16.4-7.9-32.4-4.9-18.3-12.4-32.8-15.7-37.8-5.7-8.6-7.4-10.7-7.4-10.7l4.3-4.6m0-3l-1.5 1.7-4.2 4.7-1.2 1.3 1.1 1.3s1.8 2.2 7.3 10.5c2.6 3.9 10.3 18.2 15.4 37.2 1.1 4.2 2.2 8 3.1 11.3 2.6 9.3 4.5 15.9 4.7 20.7l.1 3.2 2.8-1.5c2.4-1.3 4.7-2.7 7-4.2l1.1-.7-.2-1.3c-4.9-28.9-11.3-57-34.1-82.4l-1.4-1.8zM313.5 145.1c-3.6-1.5-7.3-1.1-10 1.4-2.3 2.1-1.8 5.8-.6 7.4 2 2.7 4.6 2.7 4.6 2.7s-1.1-.6-1.2-3c-.1-1.9 1.4-3.5 3.1-3 1.7.4 2.6 2.1 2.5 3.7 0 1.8-.7 3.4-2 4.7-.9.8-5.6 4.4-13.4-1.9-1.2-.9-2.3-3.3-2.3-3.3s-6.4 15.1-21.1 20.6c-8.8 3.3-22.7-1.2-22.7-1.2s4.7 2.5 7.6 8.9c2.2 4.9.6 8.7.6 8.7l13 14s-.8-4.6 3.7-14.4c4.2-9.1 11.1-13.3 14.8-15.2 5.4-2.9 14.5-4.4 20.3-8.9 4.8-3.7 8-7.2 8.5-11.3-1.4-3.3-3-6.6-4.8-9.7-.1 0-.4-.1-.6-.2zM293.9 124c-4.6-1.8-12.4-5.2-29.9-7.3-5-.6-16.5-2.7-21.7 5.8-1.6 2.6-2.7 5.1-.4 10.2 2.3 5 6 7.1 8.6 7.9 2.6.8 4.7 1.1 8 .9 2.4-.2 4-.7 6.5-2.2 2.4-1.5 3.3-4.2 3.2-6.8-.2-3-1.7-5.7-3.8-6.4-3.1-1.1-5.4-.3-6.9.9s-2.1 4.7-1.2 5.8c.9 1.2.2 5.7-4.6 2.7-1.4-.9-1.9-5.3.1-7.7 5.7-6.8 14.7-5.2 19.1-4.7 2.7.3 12.6 2.9 15.6 3.8 7.4 2.2 12.7 5 14.8 6.2 2.3 1.2 4.5 2 6.4 2.4-2.3-3.1-4.8-6.1-7.5-9-1.8-.8-3.9-1.6-6.3-2.5zM234.4 223.6l5.3 48.2h20l-15.3-48.2zM230.4 281.4h24.9v6.8h-24.9zM245 179.2c-1.4-.4-2.7-.4-4.6.3-1.7.6-2.9 1.6-3.2 1.9.3-.3 1.8-1.8 2.7-3.2 1-1.5.1-4.7-1-7-1.1-2.2-.8-5-.8-5l-7.8-7.2-7.8 7.2s.3 2.8-.8 5-2 5.4-1 7c.9 1.4 2.4 2.9 2.7 3.2-.3-.3-1.5-1.3-3.2-1.9-1.9-.7-3.2-.7-4.6-.3-3 .8-4.9 2.4-4.5 6.1.3 3.5 4.7 4.5 6.5 2.1 1.1-1.4.4-2.1 1.5-1.4.3.2 1.5 8.7 4.9 10.8 2.5 1.6 9.9 1.6 12.5 0 3.3-2.1 4.6-10.6 4.9-10.8 1.2-.8.5 0 1.5 1.4 1.8 2.3 6.2 1.3 6.5-2.1.5-3.7-1.4-5.3-4.4-6.1zM230.4 198.1V159v39.1zM196 158.1c-4.2-1.4-9-1.2-11.6-1.4-2.6-.2-11.3-1.7-11.3-1.7s2 5.6 8.2 9.7c3.5 2.3 10.1 5.9 14.8 5.7 8.3-.4 10-3.9 10-3.9s-6-6.9-10.1-8.4zM184.4 282.3c-2.4-1.3-4.7-2.7-6.9-4.2l-.5-.4.1-.6c4.9-28.8 11.2-56.7 33.8-81.9l.7-.8 5.6 6.2-.5.7s-1.8 2.2-7.4 10.6c-3.7 5.7-11 20.4-15.6 37.5-1.1 4.2-2.2 7.9-3.1 11.3-2.7 9.7-4.5 16.1-4.7 20.9l-.1 1.6-1.4-.9z"/><path fill="#FFF" d="M211.6 195.8l4.2 4.7s-1.8 2.1-7.4 10.7c-3.3 4.9-10.8 19.5-15.7 37.8-4.3 16-7.5 25.7-7.9 32.4-2.3-1.3-4.6-2.7-6.9-4.1 5.1-29.3 11.4-56.7 33.7-81.5m0-3l-1.5 1.7C187.3 219.9 181 248 176 276.9l-.2 1.3 1.1.7c2.3 1.5 4.6 2.9 7 4.2l2.8 1.5.1-3.2c.2-4.7 2.1-11.4 4.7-20.7.9-3.3 2-7.1 3.1-11.3 5.1-19 12.9-33.3 15.4-37.2 5.5-8.3 7.3-10.5 7.3-10.6l1.1-1.3-1.1-1.3-4.2-4.7-1.5-1.5zM247.1 216.4l-7.1-9.7h-9.6v9.7z"/><path fill="#FFF" d="M220.8 206.7l-7.1 9.7h16.7v-9.7zM230.4 216.4v-9.7 9.7zM150.3 166.5c5.8 4.5 14.9 6 20.3 8.9 3.7 1.9 10.6 6.1 14.8 15.2 4.5 9.9 3.7 14.4 3.7 14.4l13-14s-1.7-3.8.6-8.7c2.9-6.3 7.6-8.9 7.6-8.9s-13.9 4.5-22.7 1.2c-14.8-5.6-21.1-20.6-21.1-20.6s-1.1 2.4-2.3 3.3c-7.8 6.3-12.5 2.7-13.4 1.9-1.3-1.4-2-2.9-2-4.7 0-1.6.8-3.3 2.5-3.7 1.7-.4 3.2 1.1 3.1 3-.1 2.4-1.2 3-1.2 3s2.6 0 4.6-2.7c1.2-1.6 1.7-5.3-.6-7.4-2.8-2.5-6.4-2.9-10-1.4-.2.1-.5.2-.7.3-1.8 3.1-3.3 6.4-4.8 9.7.6 4 3.8 7.5 8.6 11.2zM159.5 133c2.2-1.2 7.4-3.9 14.8-6.2 3-.9 12.9-3.5 15.6-3.8 4.3-.4 13.3-2 19.1 4.7 2 2.4 1.5 6.8.1 7.7-4.8 3-5.5-1.5-4.6-2.7.9-1.2.3-4.7-1.2-5.8-1.5-1.2-3.7-2-6.9-.9-2.1.8-3.7 3.4-3.8 6.4-.1 2.6.8 5.3 3.2 6.8 2.4 1.5 4.1 2 6.5 2.2 3.3.2 5.4 0 8-.9 2.6-.8 6.3-2.9 8.6-7.9s1.2-7.6-.4-10.2c-5.2-8.5-16.8-6.4-21.7-5.8-17.5 2.1-25.3 5.5-29.9 7.3-2.4.9-4.5 1.7-6.3 2.4-2.7 2.8-5.1 5.8-7.5 9 1.9-.3 4.1-1.1 6.4-2.3zM221.1 271.8l5.3-48.2h-10l-15.3 48.2zM205.5 281.4h24.9v6.8h-24.9z"/><path fill="#FFF" d="M288.6 138.3c-1.8-1.9-4.9-2.2-7.5-1.4-2.2.6-4.2 2.3-4.3 4.8-.1 2.1 1.8 3.2 3.7 2.6 1.9-.6 2.8-1.3 2.8-1.3s.8 1.8-2.4 3.4c-2.5 1.2-6.6.8-8.6.4-7.7-1.5-11.4-.4-17.4.8-18.1 3.6-19.1-14.9-19.1-14.9s.3-10.4 1.6-13.5c1.7-3.9 4-5.9 5.4-6.8l1.4-.8s-11.7-.9-12.5-.9h-1.2-1.2c-.8 0-12.5.9-12.5.9l1 .5c1.4.8 4 2.8 5.8 7.1 1.4 3.1 1.6 13.5 1.6 13.5s-1 18.4-19.1 14.9c-6-1.2-9.7-2.3-17.4-.8-2.1.4-6.1.8-8.6-.4-3.3-1.5-2.4-3.4-2.4-3.4s.9.7 2.8 1.3c1.9.6 3.8-.5 3.7-2.6-.1-2.5-2.1-4.2-4.3-4.8-2.7-.8-5.8-.5-7.5 1.4-2.2 2.3-2.9 8.7 3.7 11.2 1.8.7 5.3 1.9 11.4 1.7 6.8-.3 16.6 1.3 21.3 6.4 1.6 1.8 4.5 2.7 5.6 2.6 1.1-.1 7.8-.1 7.8-.1l8.4-8.3h.1l8.4 8.3s6.7 0 7.8.1c1.1.1 4-.8 5.6-2.6 4.6-5.2 14.4-6.7 21.3-6.4 6.1.2 9.6-1 11.4-1.7 6.3-2.5 5.6-8.9 3.4-11.2z"/><path clip-rule="evenodd" fill="none" stroke="#36CC89" stroke-width="3" stroke-miterlimit="10" stroke-dasharray="12,8" d="M230.4 87.3c58 0 105 48 105 107.2s-47 107.2-105 107.2-105-48-105-107.2 47-107.2 105-107.2z"/><path fill-rule="evenodd" clip-rule="evenodd" fill="#5A5A5A" d="M129.2 194.3l-12-8.2-.9 16.4zM346.2 227.8l13.3-5.9-2 16.3zM338.4 70.5l-3-14.3-12.1 11.2z"/></svg>