<svg xmlns="http://www.w3.org/2000/svg" width="338" height="338"><text transform="translate(0 -17.558)" fill="#EACF1A" font-family="'Courgette-Regular'" font-size="32.239">Cropper</text><text transform="rotate(-4.775 750.163 -884.855) scale(.99997)" fill="#36CC89" font-family="'Courgette-Regular'" font-size="32.239">Stencil</text><text transform="translate(220.5 68.209)" fill="#969696" font-family="'Courgette-Regular'" font-size="17.555">Box</text><text transform="rotate(90 103.4 208.494)" fill="#C9E2A8" font-family="'Courgette-Regular'" font-size="17">Image (fitted)</text><g fill="none" stroke="#EACF1A" stroke-width="2" stroke-miterlimit="10"><path d="M338 336v3h-3"/><path stroke-dasharray="6.0356,6.0356" d="M328.9 339H6"/><path d="M3 339H0v-3"/><path stroke-dasharray="6.0537,6.0537" d="M0 329.9V6"/><path d="M0 3V0h3"/><path stroke-dasharray="6.0356,6.0356" d="M9 0h322.9"/><path d="M335 0h3v3"/><path stroke-dasharray="6.0537,6.0537" d="M338 9.1v323.8"/></g><g fill="none" stroke="#C9E2A8" stroke-width="2" stroke-miterlimit="10"><path d="M298.3 0v1.5"/><path stroke-dasharray="3.018,3.018" d="M298.3 4.5V335"/><path d="M298.3 336.5v1.5"/></g><g fill="none" stroke="#C9E2A8" stroke-width="2" stroke-miterlimit="10"><path d="M37.7 338v-1.5"/><path stroke-dasharray="3.018,3.018" d="M37.7 333.5V3"/><path d="M37.7 1.5V0"/></g><g fill="none" stroke="#F2F2F2" stroke-width="2" stroke-miterlimit="10"><path d="M249 238v1.5h-1.5"/><path stroke-dasharray="2.9545,2.9545" d="M244.5 239.5h-158"/><path d="M85 239.5h-1.5V238"/><path stroke-dasharray="2.9545,2.9545" d="M83.5 235V77"/><path d="M83.5 75.5V74H85"/><path stroke-dasharray="2.9545,2.9545" d="M88 74h158"/><path d="M247.5 74h1.5v1.5"/><path stroke-dasharray="2.9545,2.9545" d="M249 78.5v158"/></g><circle fill="none" stroke="#36CC89" stroke-width="4" stroke-miterlimit="10" stroke-dasharray="15.7562,7.8781" cx="166.3" cy="156.8" r="82.8"/></svg>