<svg xmlns="http://www.w3.org/2000/svg" width="340" height="382"><g fill="#40B481"><path d="M2.5 17.9v-.5c.1-3.1.9-6.1 2.4-8.9C6.3 6 8 3.9 10.1 2.3c2-1.6 4-2.3 6-2.3 1.5 0 2.6.5 3.5 1.5.7.9 1.1 2 1.1 3.2 0 1.5-.6 3-1.7 4.5-.7.9-1.3 1.5-2.1 1.9-.3.2-.7.3-1 .3-.3 0-.6-.1-.8-.2s-.5-.3-.7-.5c-.4-.4-.6-.8-.6-1.1 0-.3.1-.6.3-.7 1.7-1.2 2.9-2.5 3.5-3.8.2-.5.4-1 .4-1.5 0-1-.5-1.5-1.4-1.5-1.5 0-3.1.8-4.7 2.5C10.3 6.2 9 8.1 8 10.4c-1.1 2.4-1.6 4.5-1.7 6.5v.6c0 2.4.5 3.9 1.5 4.6.4.3.8.4 1.3.4s1-.1 1.4-.2.9-.3 1.3-.5c.7-.4 1.6-1 2.7-1.9.3-.3.6-.2.8.1.2.3.3.6.3.9 0 .6-.1 1-.2 1.2-.2.2-.4.5-.8.8s-.9.6-1.4.8c-1.3.6-2.6.9-3.9.9-1.3 0-2.3-.2-3.1-.5-.8-.3-1.4-.8-2-1.3-1.1-1.2-1.7-2.8-1.7-4.9zM19.4 24.1c-.2-.2-.4-.3-.5-.5-.1-.2-.2-.4-.2-.5 0-.1 0-.3.1-.5s.2-.5.3-.7c2.1-5.3 3.2-8.8 3.2-10.6 0-.5-.2-.9-.5-1.1l-.3-.2c-.1-.1-.1-.2-.1-.4s.1-.4.2-.5c.1-.2.3-.3.5-.4.5-.2.9-.4 1.4-.4s.9.1 1.1.2.5.2.7.4c.4.4.6.8.6 1.2 0 .4 0 .8-.1 1.3-.1.4-.2.9-.4 1.3s-.3.8-.4 1.2c-.1.4-.2.6-.3.8-.1.4-.1.6-.1.7.3-.2.4-.4.5-.6l.6-1.2c1.4-2.5 2.7-4.1 4-4.9.3-.4.8-.5 1.3-.5s1 .2 1.3.6c.3.4.5.8.5 1.2 0 .5 0 .8-.1 1.1-.1.3-.2.6-.4.8-.3.6-.8.9-1.3.9-.1 0-.3 0-.4-.1l-.3-.3c-.3-.3-.7-.5-1-.5s-.7.2-1.2.6-.9 1-1.4 1.6c-1.7 2.2-3 4.6-4.1 7.4l-.6 1.9c-.2.5-.3.8-.5 1-.1.2-.3.3-.6.3s-.5 0-.8-.1-.5-.3-.7-.5zM33.9 23.4c-.4-.4-.8-1-1-1.6-.3-.6-.4-1.4-.4-2.3 0-.9.1-1.8.3-2.7.2-.9.5-1.8 1-2.6.4-.8.9-1.6 1.5-2.4.6-.7 1.2-1.4 1.9-1.9 1.5-1.2 3.1-1.8 4.8-1.8 2.2 0 3.6 1 4.4 2.8.5 1.4.6 3 .1 5-.4 1.8-1.2 3.4-2.4 4.9-1.2 1.5-2.5 2.6-4.1 3.2-.8.3-1.6.5-2.4.5-.8 0-1.5-.1-2.1-.3s-1.1-.4-1.6-.8zm3.1-7.6c-.3.8-.6 1.6-.7 2.4s-.3 1.6-.3 2.3c0 .7.1 1.3.3 1.7.2.4.6.6 1 .6.5 0 1-.2 1.4-.5.5-.3.9-.8 1.4-1.3.4-.5.9-1.2 1.2-1.9.4-.7.7-1.5 1-2.2.6-1.7.9-3.2.9-4.5 0-1.2-.2-1.9-.7-2.2-.2-.1-.5-.2-.8-.2-.3 0-.7.2-1.2.5s-.9.7-1.3 1.3-.9 1.1-1.3 1.8c-.3.7-.6 1.4-.9 2.2zM51.9 23c0 .2-.2 1-.7 2.5-.4 1.5-.8 2.7-1.1 3.6-.7 2-1.2 3.2-1.6 3.7-.3.4-.8.6-1.3.6-.6 0-1.1-.3-1.4-.9-.1-.2-.1-.4-.1-.6s.2-.6.5-1.3c.8-1.7 1.9-5.1 3.3-10.2.6-2 .9-3.4 1.1-4.1l.5-2c.3-1.3.5-2.2.6-2.7.1-.5 0-.8-.1-1-.1-.2-.2-.3-.4-.4-.2-.2-.3-.3-.4-.3-.1-.1-.2-.2-.2-.4s.1-.4.3-.5c.2-.2.3-.3.6-.4.5-.2.9-.3 1.4-.3s.9.1 1.1.2c.3.1.5.3.7.5.4.4.5.8.5 1.2-.1.8-.2 1.5-.3 2.1 1.8-2.6 3.7-3.9 5.7-3.9 1.8 0 3 .9 3.6 2.8.2.7.3 1.4.3 2.4s-.1 1.9-.4 2.8c-.3.9-.7 1.8-1.1 2.7-.5.8-1 1.6-1.7 2.3-.6.7-1.3 1.3-2 1.9-1.5 1.1-2.9 1.6-4.3 1.6s-2.5-.8-3.1-1.9zm2.4-6.7c-.4.7-.7 1.5-.9 2.2-.2.7-.4 1.4-.4 2 0 .6.1 1.1.4 1.5.3.4.7.6 1.2.6s1-.1 1.5-.4c.5-.3 1-.7 1.5-1.1s.9-1 1.3-1.7c.4-.6.8-1.3 1.1-2 .7-1.6 1-3 1-4.4 0-.8-.1-1.3-.3-1.8s-.5-.6-.9-.6-.8.2-1.3.5-.9.7-1.4 1.3-1 1.1-1.5 1.8c-.5.6-.9 1.3-1.3 2.1zM69.6 23c0 .2-.2 1-.7 2.5-.4 1.5-.8 2.7-1.1 3.6-.7 2-1.2 3.2-1.6 3.7-.3.4-.8.6-1.3.6-.6 0-1.1-.3-1.4-.9-.1-.2-.1-.4-.1-.6s.2-.6.5-1.3c.8-1.7 1.9-5.1 3.3-10.2.6-2 .9-3.4 1.1-4.1l.5-2c.3-1.3.5-2.2.6-2.7.1-.5 0-.8-.1-1-.1-.2-.2-.3-.4-.4-.1-.1-.3-.2-.4-.3-.1-.1-.2-.2-.2-.4s.1-.4.3-.5c.2-.2.3-.3.6-.4.5-.2.9-.3 1.4-.3s.9.1 1.1.2c.3.1.5.3.7.5.4.4.5.8.5 1.2-.1.8-.2 1.5-.3 2.1 1.8-2.6 3.7-3.9 5.7-3.9 1.8 0 3 .9 3.6 2.8.2.7.3 1.4.3 2.4s-.1 1.9-.4 2.8c-.3.9-.7 1.8-1.1 2.7-.5.8-1 1.6-1.7 2.3-.6.7-1.3 1.3-2 1.9-1.5 1.1-2.9 1.6-4.3 1.6s-2.4-.8-3.1-1.9zm2.5-6.7c-.4.7-.7 1.5-.9 2.2-.2.7-.4 1.4-.4 2 0 .6.1 1.1.4 1.5.3.4.7.6 1.2.6s1-.1 1.5-.4c.5-.3 1-.7 1.5-1.1s.9-1 1.3-1.7c.4-.6.8-1.3 1.1-2 .7-1.6 1-3 1-4.4 0-.8-.1-1.3-.3-1.8s-.5-.6-.9-.6-.8.2-1.3.5-.9.7-1.4 1.3-1 1.1-1.5 1.8c-.5.6-1 1.3-1.3 2.1zM84.7 19c0-.9.2-1.8.5-2.6s.6-1.6 1.1-2.4c.4-.8 1-1.5 1.6-2.2s1.2-1.3 1.9-1.8c1.5-1.1 3-1.7 4.5-1.7 1.8 0 3 .7 3.6 2.2.2.5.3 1.1.3 1.8s-.1 1.3-.4 1.9-.6 1.1-1 1.6-1 .9-1.6 1.3c-.6.4-1.3.7-2 1-1.5.5-3.1.8-4.8.8 0 .1-.1.4-.1.7s0 .6.1 1 .2.7.4 1c.4.6.9.9 1.6.9 1.2 0 2.4-.4 3.6-1.1.4-.2.7-.5 1-.7.3-.3.5-.4.7-.4s.4.1.5.3.2.5.2.8c0 .6-.2 1-.5 1.4-1.3 1.3-3.3 2-5.9 2-1.5 0-2.8-.5-3.7-1.4-1.1-1.2-1.6-2.6-1.6-4.4zm9.2-8.7c-1.1 0-2.2.8-3.2 2.3-.9 1.3-1.6 2.8-2.1 4.6 1.8-.2 3.3-.9 4.6-2.1 1.2-1.1 1.8-2.2 1.8-3.3s-.4-1.5-1.1-1.5zM99.8 24.1c-.2-.2-.4-.3-.5-.5-.1-.2-.2-.4-.2-.5 0-.1 0-.3.1-.5s.2-.5.3-.7c2.1-5.3 3.2-8.8 3.2-10.6 0-.5-.2-.9-.5-1.1l-.3-.2c-.1-.1-.1-.2-.1-.4s.1-.4.2-.5c.1-.2.3-.3.5-.4.5-.2.9-.4 1.4-.4s.9.1 1.1.2.5.2.7.4c.4.4.6.8.6 1.2 0 .4 0 .8-.1 1.3-.1.4-.2.9-.4 1.3s-.3.8-.4 1.2c-.1.4-.2.6-.3.8-.1.4-.1.6-.1.7.3-.2.4-.4.5-.6l.6-1.2c1.4-2.5 2.7-4.1 4-4.9.4-.2.8-.3 1.4-.3s1 .2 1.3.6c.3.4.5.8.5 1.2 0 .5 0 .8-.1 1.1-.1.3-.2.6-.4.8-.3.6-.8.9-1.3.9-.1 0-.3 0-.4-.1l-.3-.3c-.3-.3-.7-.5-1-.5s-.7.2-1.2.6-.9 1-1.4 1.6c-1.7 2.2-3 4.6-4.1 7.4l-.7 1.8c-.2.5-.3.8-.5 1-.1.2-.3.3-.6.3s-.5 0-.8-.1-.4-.4-.7-.6z"/></g><g fill="#5B74BC"><path d="M314.1 155.1c.3-.1.7-.2 1.1-.2.4 0 1 .1 1.6.2.6.1 1.3.3 2 .5 1.6.5 3.1 1.3 4.4 2.2.2.2.3.3.3.5s0 .3-.1.5-.2.3-.3.4c-.3.3-.5.4-.6.3-1.3-.8-2.4-1.4-3.4-1.9.1 1.3.5 2.4 1.2 3.3.8 1 1.7 1.6 2.8 1.6.7 0 1.2-.4 1.4-1.1.1-.2.1-.5.1-.8 0-.3 0-.6-.1-1-.1-.3-.2-.7-.3-1-.2-.6-.5-1.2-.9-1.7-.1-.1-.2-.3-.2-.4s0-.3.1-.4c.1-.1.1-.3.2-.4.4-.4.7-.4 1.1.2.6.8.9 2 1.1 3.6v1.2c0 .5-.1 1-.2 1.5-.2.5-.4.9-.6 1.2-.5.6-1.2.9-2.1.9-.8 0-1.6-.3-2.4-1-.7-.6-1.3-1.4-1.8-2.3-.2.4-.5.8-.8 1-.4.2-.7.3-1.2.3-.4 0-.8-.1-1.1-.2-.3-.2-.7-.4-.9-.6-.3-.3-.5-.6-.7-.9-.2-.3-.4-.7-.5-1.1-.3-.8-.4-1.5-.4-2.3-.1-1.1.3-1.8 1.2-2.1zm3.6 2c-1-.4-2-.6-2.7-.7-.4 0-.7.1-.9.3-.2.2-.3.5-.3.8s.1.7.2 1.1.4.7.6 1c.6.7 1.3 1.1 2 1.1s1.1-.3 1.4-.9c.1-.2.1-.4.1-.6 0-.3-.1-.6-.2-1.1 0-.5-.1-.8-.2-1zM313.5 164.9c.2-.2.5-.4.8-.5.3-.1.7-.2 1.2-.2s.9.1 1.4.2c.5.1.9.3 1.4.5.4.2.9.5 1.2.8.4.3.7.6 1 1 .6.8.9 1.6.9 2.5 0 1.1-.5 1.9-1.5 2.3-.7.3-1.6.3-2.6 0-.9-.2-1.8-.7-2.6-1.3-.8-.6-1.4-1.3-1.7-2.2-.2-.4-.2-.8-.2-1.2 0-.4.1-.8.2-1.1.1-.3.2-.6.5-.8zm4 1.6c-.4-.2-.8-.3-1.3-.4-.4-.1-.8-.1-1.2-.1-.4 0-.7.1-.9.2-.2.1-.3.3-.3.6s.1.5.3.8c.2.2.4.5.7.7s.6.5 1 .7.8.4 1.2.5c.9.3 1.7.5 2.4.5.6 0 1-.1 1.2-.4.1-.1.1-.2.1-.4s-.1-.4-.2-.6c-.2-.2-.4-.5-.7-.7s-.6-.5-1-.7-.9-.6-1.3-.7zM314.5 180.6c0 .1-.1.2-.2.2-.5 0-.9-.2-1.2-.7-.2-.3-.3-.7-.3-1.1 0-.4.1-.6.2-.8.3-.3.7-.5 1.1-.5.5 0 1.4.2 2.5.7-1.2-.9-1.9-1.4-2.3-1.8-.4-.3-.7-.6-.9-.9-.5-.6-.7-1.1-.7-1.5 0-.7.3-1.1.9-1.4.2-.1.4-.1.6-.1.2 0 .5 0 .8.1l.9.3c.3.1.6.3 1 .4l1 .4c1.3.6 2 .8 2.3.6.1-.1.2-.2.3-.4 0-.1.1-.1.2-.1s.2 0 .3.1c.1.1.2.2.2.3.1.3.2.5.2.8s0 .5-.1.6c-.1.1-.1.3-.2.3-.2.2-.4.3-.6.3s-.5 0-.7-.1l-.9-.3c-.3-.1-.7-.2-1-.4-.9-.4-1.5-.6-1.8-.8l-.6-.3c-.4-.2-.7-.3-.8-.3s-.3 0-.3.1c-.1 0-.1.1-.1.3 0 .1.1.3.2.5s.3.4.5.6.4.4.7.6c.3.2.5.4.8.6.6.4 1 .7 1.4.9 2.1 1.2 3.2 1.8 3.3 1.9.2.2.4.4.4.5 0 .2 0 .3-.1.5 0 .1-.1.3-.2.4-.2.2-.3.3-.5.2-2.8-1.4-4.6-2.1-5.3-2.2h-.5c-.4 0-.6.1-.6.4 0 .2 0 .4.1.6v.5zM319.9 188.2c0-.2-.2-.4-.5-.7-.3-.3-.6-.6-.9-.8l-.8-.7-1.7-1.4c-.6-.3-1.1-.6-1.5-.8l-1-.4c-.2-.1-.4-.2-.5-.3-.1-.1-.1-.2-.1-.3 0-.1 0-.3.1-.4.1-.1.1-.3.2-.4.2-.2.4-.3.6-.3.1 0 .2.1.5.2l.7.3c.2.1.5.2.8.3l1.1.5c1.6.7 2.7 1 3.2 1 .3 0 .4-.1.6-.2l.1-.2c0-.1.1-.1.2-.1s.2 0 .3.1c.1.1.2.2.2.3.1.2.2.5.2.8 0 .3 0 .4-.1.6s-.1.3-.2.3c-.2.2-.4.3-.6.3s-.4 0-.6-.1c-.2-.1-.4-.1-.6-.2l-.6-.3c-.2-.1-.4-.2-.5-.2l-.4-.2c-.1 0-.1-.1-.1 0 .9.6 1.4 1 1.6 1.2l.7.6c.5.4.8.8 1 1 .3.5.5.9.5 1.2s0 .5-.1.7-.2.4-.3.5c-.3.3-.6.5-1.1.5s-.9-.1-1.4-.3-.9-.4-1.2-.5c-.3-.1-.6-.3-.9-.4-.9-.4-1.6-.6-2-.6-.2 0-.3.1-.3.4 0 .2 0 .4.1.6.1.2.1.3.1.4 0 .1-.1.2-.2.2-.5 0-.9-.3-1.2-.8-.2-.3-.3-.6-.3-.9s0-.5.1-.7c.1-.2.2-.4.3-.5.3-.3.7-.5 1.2-.5.6 0 1.4.2 2.4.6.7.3 1.1.5 1.4.6l.6.3c.4.2.6.3.8.3s.1-.3.1-.6zM314.6 200.1c0 .1-.1.2-.2.2-.5 0-.9-.2-1.2-.7-.2-.3-.3-.6-.3-.9 0-.3 0-.5.1-.7s.2-.3.3-.5c.3-.3.8-.5 1.4-.5.1 0 .3 0 .6.1-.7-.4-1.2-.8-1.5-1.2-.6-.6-.9-1.3-.9-1.9 0-1 .4-1.6 1.3-1.9.3-.1.7-.2 1.2-.2s1 .1 1.5.2 1 .4 1.4.6c.5.3.9.6 1.3.9.4.3.7.7 1 1.1.6.8.9 1.5.9 2.2s-.3 1.2-.8 1.6c3.3 1 5.2 1.7 5.8 2.2.2.2.4.4.4.6 0 .4-.1.7-.3.9-.1.1-.1.1-.2.1s-.2 0-.4-.1-.5-.2-.9-.4c-1.3-.5-2.3-.8-2.9-1-1.5-.5-2.6-.9-3.2-1l-1.5-.5c-1.4-.4-2.2-.6-2.6-.6s-.6.1-.6.4c0 .2 0 .4.1.6l.1.3c.1 0 .1 0 .1.1zm-.5-5.7c0 .6.6 1.2 1.7 2 1.2.8 2.4 1.3 3.8 1.6.4 0 .7-.2.8-.5.1-.1.1-.3.1-.5s-.1-.4-.2-.7c-.1-.3-.3-.5-.6-.8-.2-.3-.5-.5-.9-.7-.3-.2-.7-.4-1.1-.6-.8-.3-1.6-.5-2.4-.5-.9 0-1.2.3-1.2.7zM315.1 207.7c-.5 0-.8.2-.8.5 0 .2 0 .5.1.6.1.2.1.3.1.3 0 .1-.1.2-.2.2-.5 0-.9-.2-1.2-.7-.4-.5-.4-1.1-.3-1.6.1-.4.4-.6.8-.8.2-.1.4-.1.6-.1.3 0 .6 0 .9.1-1.1-.5-1.8-1.2-2.2-1.9-.2-.3-.2-.6-.2-1s.1-.6.2-.9c.1-.3.3-.5.6-.6.5-.4 1.2-.5 2-.5 1 0 2 .3 2.9.9.9.5 1.6 1.1 2.2 1.9.6.8.9 1.5.9 2.2s-.3 1.2-.9 1.6c.6.4.9.7.9 1 0 .3-.1.6-.2.7-.2.3-.4.4-.6.3-2.8-1.4-4.6-2.1-5.3-2.1-.1-.1-.2-.1-.3-.1zm0-4.6c-.7 0-1 .2-1 .6 0 .3.3.7.8 1.2.8.7 1.9 1.3 3.3 1.9.4.2.9.3 1.3.4.4 0 .7-.2.8-.5.1-.1.1-.2.1-.4s-.1-.4-.2-.7c-.1-.3-.3-.5-.6-.8-.2-.2-.5-.5-.9-.7-.3-.2-.7-.4-1.1-.6-.8-.3-1.7-.4-2.5-.4zM313.1 210.5l.3-.3c.1-.1.2-.1.3-.1h.3c.1 0 .2.1.4.1 2.8 1.1 4.6 1.7 5.6 1.7.3 0 .5-.1.6-.3l.1-.2s.1-.1.2-.1.2 0 .3.1.2.2.2.3c.1.2.2.5.2.7 0 .3 0 .4-.1.6-.1.1-.1.3-.2.4-.2.2-.4.3-.6.3-.2 0-.4 0-.7-.1-.2-.1-.4-.1-.7-.2-.2-.1-.4-.1-.6-.2-.2-.1-.3-.1-.4-.1-.2 0-.3-.1-.4 0 .1.1.2.2.3.2l.6.3c1.3.7 2.2 1.4 2.6 2.1.1.2.2.4.2.7 0 .3-.1.5-.3.7-.2.2-.4.3-.7.3h-.6c-.2 0-.3-.1-.4-.2-.3-.2-.5-.4-.5-.7 0-.1 0-.1.1-.2l.2-.2c.2-.2.2-.4.2-.5 0-.2-.1-.4-.3-.6-.2-.2-.5-.5-.9-.8-1.2-.9-2.5-1.6-3.9-2.1l-1-.4c-.2-.1-.4-.2-.5-.2-.1-.1-.2-.2-.2-.3 0-.1 0-.3.1-.4 0-.1.1-.2.2-.3zM314.4 220.2c0 .1-.1.2-.3.2-.2 0-.5-.1-.8-.3-.4-.3-.6-.8-.6-1.3 0-.6.3-1.1.8-1.3.2-.1.4-.1.7-.1s.5 0 .9.1c.3.1.7.2 1 .3.4.1.7.3 1.1.4l1 .4c.8.3 1.3.5 1.5.5s.4 0 .5-.1l.2-.2.1-.2c0-.1.1-.1.2-.1s.2 0 .3.1c.1.1.2.2.2.3.1.2.2.5.2.9 0 .8-.2 1.2-.6 1.2-.5 0-1.1-.1-1.7-.4-.6-.3-1.2-.5-1.5-.7l-1.1-.5c-.8-.4-1.4-.5-1.8-.5-.2 0-.4.1-.4.4 0 .2 0 .4.1.5s0 .3 0 .4zm9 1.7c-.1-.1-.2-.3-.3-.4-.1-.2-.1-.3-.1-.5s0-.3.1-.5.2-.3.3-.4c.3-.2.6-.4.8-.4s.5 0 .6.1c.1.1.3.2.3.3.2.3.3.5.3.8v.5c0 .1-.1.3-.2.4-.2.3-.4.4-.7.4-.3 0-.5 0-.7-.1-.1 0-.2-.1-.4-.2zM315.8 222.3c.5 0 .9.1 1.4.2.4.1.9.3 1.3.6.4.2.8.5 1.2.8.4.3.7.7 1 1 .6.8.9 1.6.9 2.4 0 .9-.4 1.6-1.2 1.9-.3.1-.6.2-.9.2-.4 0-.7-.1-1-.2-.3-.1-.6-.3-.8-.6-.3-.2-.5-.5-.7-.8-.2-.3-.4-.7-.5-1.1-.3-.8-.4-1.6-.4-2.5h-.8c-.2 0-.4.1-.5.2-.3.2-.5.5-.5.9 0 .6.2 1.3.6 1.9.1.2.3.4.4.5.1.1.2.3.2.4s-.1.2-.2.3c-.1.1-.3.1-.4.1-.3 0-.5-.1-.8-.2-.7-.7-1-1.7-1-3.1 0-.8.2-1.5.7-2 .3-.6 1-.9 2-.9zm4.6 4.9c0-.6-.4-1.1-1.2-1.7-.7-.5-1.5-.8-2.4-1.1.1.9.5 1.7 1.1 2.4.6.6 1.2.9 1.7.9s.8-.1.8-.5zM314.4 229.9c.2 0 .3 0 .5.1.1.1.3.2.4.3.2.2.3.5.3.7 0 .2-.1.3-.3.3-.6 0-1 .2-1.2.6-.1.1-.1.3-.1.4v.4c0 .1.1.2.2.3.2.2.4.3.6.3s.4 0 .6-.1c.2-.1.4-.2.6-.4l.7-.5c.9-.7 1.7-1 2.4-1 .6 0 1.2.3 1.7.8.6.6.9 1.4.9 2.3 0 .8-.2 1.5-.6 1.9-.3.4-.7.6-1.1.6-.4 0-.8-.2-1-.5-.2-.3-.3-.6-.3-.9 0-.1.1-.2.2-.3.1-.1.2-.1.4 0s.3.1.4.1.3 0 .4-.1.2-.1.3-.2c.2-.2.3-.4.3-.6 0-.2 0-.4-.1-.5 0-.1-.1-.3-.2-.4-.2-.2-.4-.3-.7-.3-.3 0-.5 0-.8.1s-.4.2-.6.4c-.2.1-.4.3-.6.5s-.4.3-.7.5c-.6.3-1 .5-1.5.5-.4 0-.8-.1-1.1-.3-.3-.2-.5-.4-.7-.7-.4-.6-.7-1.3-.7-2s.2-1.3.5-1.7c.1-.4.5-.6.9-.6z"/></g><path fill="#40B481" d="M340.5 382.5H336v-3h1.5V378h3zM329.9 382.5h-6v-3h6v3zm-12 0h-6v-3h6v3zm-12.1 0h-6v-3h6v3zm-12.1 0h-6v-3h6v3zm-12.1 0h-6v-3h6v3zm-12 0h-6v-3h6v3zm-12.1 0h-6v-3h6v3zm-12.1 0h-6v-3h6v3zm-12 0h-6v-3h6v3zm-12.1 0h-6v-3h6v3zm-12.1 0h-6v-3h6v3zm-12.1 0h-6v-3h6v3zm-12 0h-6v-3h6v3zm-12.1 0h-6v-3h6v3zm-12.1 0h-6v-3h6v3zm-12 0h-6v-3h6v3zm-12.1 0h-6v-3h6v3zm-12.1 0h-6v-3h6v3zm-12.1 0h-6v-3h6v3zm-12 0h-6v-3h6v3zm-12.1 0h-6v-3h6v3zm-12.1 0h-6v-3h6v3zm-12 0h-6v-3h6v3zm-12.1 0h-6v-3h6v3zm-12.1 0h-6v-3h6v3zm-12.1 0h-6v-3h6v3zm-12 0h-6v-3h6v3zM4 382.5H-.5V378h3v1.5H4zM2.5 371.9h-3v-6.1h3v6.1zm0-12.1h-3v-6.1h3v6.1zm0-12.1h-3v-6.1h3v6.1zm0-12.1h-3v-6.1h3v6.1zm0-12.1h-3v-6.1h3v6.1zm0-12.1h-3v-6.1h3v6.1zm0-12.1h-3v-6.1h3v6.1zm0-12.1h-3v-6.1h3v6.1zm0-12.1h-3V269h3v6.1zm0-12.1h-3v-6.1h3v6.1zm0-12.1h-3v-6.1h3v6.1zm0-12.1h-3v-6.1h3v6.1zm0-12.2h-3v-6.1h3v6.1zm0-12.1h-3v-6.1h3v6.1zm0-12.1h-3v-6.1h3v6.1zm0-12.1h-3v-6.1h3v6.1zm0-12.1h-3v-6.1h3v6.1zm0-12.1h-3V160h3v6.1zm0-12.1h-3v-6.1h3v6.1zm0-12.1h-3v-6.1h3v6.1zm0-12.1h-3v-6.1h3v6.1zm0-12.1h-3v-6.1h3v6.1zm0-12.1h-3v-6.1h3v6.1zm0-12.1h-3v-6.1h3v6.1zm0-12.1h-3v-6.1h3v6.1zm0-12.1h-3v-6.1h3v6.1zm0-12.2h-3V51h3v6.1zM2.5 45h-3v-4.5H4v3H2.5zM329.9 43.5h-6v-3h6v3zm-12 0h-6v-3h6v3zm-12.1 0h-6v-3h6v3zm-12.1 0h-6v-3h6v3zm-12.1 0h-6v-3h6v3zm-12 0h-6v-3h6v3zm-12.1 0h-6v-3h6v3zm-12.1 0h-6v-3h6v3zm-12 0h-6v-3h6v3zm-12.1 0h-6v-3h6v3zm-12.1 0h-6v-3h6v3zm-12.1 0h-6v-3h6v3zm-12 0h-6v-3h6v3zm-12.1 0h-6v-3h6v3zm-12.1 0h-6v-3h6v3zm-12 0h-6v-3h6v3zm-12.1 0h-6v-3h6v3zm-12.1 0h-6v-3h6v3zm-12.1 0h-6v-3h6v3zm-12 0h-6v-3h6v3zm-12.1 0h-6v-3h6v3zm-12.1 0h-6v-3h6v3zm-12 0h-6v-3h6v3zm-12.1 0h-6v-3h6v3zm-12.1 0h-6v-3h6v3zm-12.1 0h-6v-3h6v3zm-12 0h-6v-3h6v3zM340.5 45h-3v-1.5H336v-3h4.5zM340.5 371.9h-3v-6.1h3v6.1zm0-12.1h-3v-6.1h3v6.1zm0-12.1h-3v-6.1h3v6.1zm0-12.1h-3v-6.1h3v6.1zm0-12.1h-3v-6.1h3v6.1zm0-12.1h-3v-6.1h3v6.1zm0-12.1h-3v-6.1h3v6.1zm0-12.1h-3v-6.1h3v6.1zm0-12.1h-3V269h3v6.1zm0-12.1h-3v-6.1h3v6.1zm0-12.1h-3v-6.1h3v6.1zm0-12.1h-3v-6.1h3v6.1zm0-12.2h-3v-6.1h3v6.1zm0-12.1h-3v-6.1h3v6.1zm0-12.1h-3v-6.1h3v6.1zm0-12.1h-3v-6.1h3v6.1zm0-12.1h-3v-6.1h3v6.1zm0-12.1h-3V160h3v6.1zm0-12.1h-3v-6.1h3v6.1zm0-12.1h-3v-6.1h3v6.1zm0-12.1h-3v-6.1h3v6.1zm0-12.1h-3v-6.1h3v6.1zm0-12.1h-3v-6.1h3v6.1zm0-12.1h-3v-6.1h3v6.1zm0-12.1h-3v-6.1h3v6.1zm0-12.1h-3v-6.1h3v6.1zm0-12.2h-3V51h3v6.1z"/><g><path fill="#5B74BC" d="M298.3 42h2v1.5h-2zM300.3 375.5h-2v-3h2v3zm0-6h-2v-3h2v3zm0-6.1h-2v-3h2v3zm0-6h-2v-3h2v3zm0-6h-2v-3h2v3zm0-6.1h-2v-3h2v3zm0-6h-2v-3h2v3zm0-6h-2v-3h2v3zm0-6.1h-2v-3h2v3zm0-6h-2v-3h2v3zm0-6h-2v-3h2v3zm0-6.1h-2v-3h2v3zm0-6h-2v-3h2v3zm0-6.1h-2v-3h2v3zm0-6h-2v-3h2v3zm0-6h-2v-3h2v3zm0-6.1h-2v-3h2v3zm0-6h-2v-3h2v3zm0-6h-2v-3h2v3zm0-6.1h-2v-3h2v3zm0-6h-2v-3h2v3zm0-6h-2v-3h2v3zm0-6.1h-2v-3h2v3zm0-6h-2v-3h2v3zm0-6h-2v-3h2v3zm0-6.1h-2v-3h2v3zm0-6h-2v-3h2v3zm0-6.1h-2v-3h2v3zm0-6h-2v-3h2v3zm0-6h-2v-3h2v3zm0-6.1h-2v-3h2v3zm0-6h-2v-3h2v3zm0-6h-2v-3h2v3zm0-6.1h-2v-3h2v3zm0-6h-2v-3h2v3zm0-6h-2v-3h2v3zm0-6.1h-2v-3h2v3zm0-6h-2v-3h2v3zm0-6.1h-2v-3h2v3zm0-6h-2v-3h2v3zm0-6h-2v-3h2v3zm0-6.1h-2v-3h2v3zm0-6h-2v-3h2v3zm0-6h-2v-3h2v3zm0-6.1h-2v-3h2v3zm0-6h-2v-3h2v3zm0-6h-2v-3h2v3zm0-6.1h-2v-3h2v3zm0-6h-2v-3h2v3zm0-6h-2v-3h2v3zm0-6.1h-2v-3h2v3zm0-6h-2v-3h2v3zm0-6.1h-2v-3h2v3zm0-6h-2v-3h2v3zm0-6h-2v-3h2v3zM298.3 378.5h2v1.5h-2z"/></g><g><path fill="#5B74BC" d="M37.7 378.5h2v1.5h-2zM39.7 375.5h-2v-3h2v3zm0-6h-2v-3h2v3zm0-6.1h-2v-3h2v3zm0-6h-2v-3h2v3zm0-6h-2v-3h2v3zm0-6.1h-2v-3h2v3zm0-6h-2v-3h2v3zm0-6h-2v-3h2v3zm0-6.1h-2v-3h2v3zm0-6h-2v-3h2v3zm0-6h-2v-3h2v3zm0-6.1h-2v-3h2v3zm0-6h-2v-3h2v3zm0-6.1h-2v-3h2v3zm0-6h-2v-3h2v3zm0-6h-2v-3h2v3zm0-6.1h-2v-3h2v3zm0-6h-2v-3h2v3zm0-6h-2v-3h2v3zm0-6.1h-2v-3h2v3zm0-6h-2v-3h2v3zm0-6h-2v-3h2v3zm0-6.1h-2v-3h2v3zm0-6h-2v-3h2v3zm0-6h-2v-3h2v3zm0-6.1h-2v-3h2v3zm0-6h-2v-3h2v3zm0-6.1h-2v-3h2v3zm0-6h-2v-3h2v3zm0-6h-2v-3h2v3zm0-6.1h-2v-3h2v3zm0-6h-2v-3h2v3zm0-6h-2v-3h2v3zm0-6.1h-2v-3h2v3zm0-6h-2v-3h2v3zm0-6h-2v-3h2v3zm0-6.1h-2v-3h2v3zm0-6h-2v-3h2v3zm0-6.1h-2v-3h2v3zm0-6h-2v-3h2v3zm0-6h-2v-3h2v3zm0-6.1h-2v-3h2v3zm0-6h-2v-3h2v3zm0-6h-2v-3h2v3zm0-6.1h-2v-3h2v3zm0-6h-2v-3h2v3zm0-6h-2v-3h2v3zm0-6.1h-2v-3h2v3zm0-6h-2v-3h2v3zm0-6h-2v-3h2v3zm0-6.1h-2v-3h2v3zm0-6h-2v-3h2v3zm0-6.1h-2v-3h2v3zm0-6h-2v-3h2v3zm0-6h-2v-3h2v3zM37.7 42h2v1.5h-2z"/></g><g><path fill="#F2F2F2" d="M251 282.5h-2.5v-2h.5v-.5h2zM245.5 282.5h-3v-2h3v2zm-5.9 0h-3v-2h3v2zm-5.9 0h-3v-2h3v2zm-5.9 0h-3v-2h3v2zm-5.9 0h-3v-2h3v2zm-5.9 0h-3v-2h3v2zm-5.9 0h-3v-2h3v2zm-5.9 0h-3v-2h3v2zm-5.9 0h-3v-2h3v2zm-5.9 0h-3v-2h3v2zm-5.9 0h-3v-2h3v2zm-6 0h-3v-2h3v2zm-5.9 0h-3v-2h3v2zm-5.9 0h-3v-2h3v2zm-5.9 0h-3v-2h3v2zm-5.9 0h-3v-2h3v2zm-5.9 0h-3v-2h3v2zm-5.9 0h-3v-2h3v2zm-5.9 0h-3v-2h3v2zm-5.9 0h-3v-2h3v2zm-5.9 0h-3v-2h3v2zm-5.9 0h-3v-2h3v2zm-6 0h-3v-2h3v2zm-5.9 0h-3v-2h3v2zm-5.9 0h-3v-2h3v2zm-5.9 0h-3v-2h3v2zm-5.9 0h-3v-2h3v2zM86 282.5h-2.5V280h2v.5h.5zM85.5 277.1h-2v-3h2v3zm0-5.9h-2v-3h2v3zm0-5.9h-2v-3h2v3zm0-5.9h-2v-3h2v3zm0-6h-2v-3h2v3zm0-5.9h-2v-3h2v3zm0-5.9h-2v-3h2v3zm0-5.9h-2v-3h2v3zm0-5.9h-2v-3h2v3zm0-5.9h-2v-3h2v3zm0-5.9h-2v-3h2v3zm0-5.9h-2v-3h2v3zm0-5.9h-2v-3h2v3zm0-5.9h-2v-3h2v3zm0-5.9h-2v-3h2v3zm0-6h-2v-3h2v3zm0-5.9h-2v-3h2v3zm0-5.9h-2v-3h2v3zm0-5.9h-2v-3h2v3zm0-5.9h-2v-3h2v3zm0-5.9h-2v-3h2v3zm0-5.9h-2v-3h2v3zm0-5.9h-2v-3h2v3zm0-5.9h-2v-3h2v3zm0-5.9h-2v-3h2v3zm0-5.9h-2v-3h2v3zm0-6h-2v-3h2v3zM85.5 117.5h-2V115H86v2h-.5zM245.5 117h-3v-2h3v2zm-5.9 0h-3v-2h3v2zm-5.9 0h-3v-2h3v2zm-5.9 0h-3v-2h3v2zm-5.9 0h-3v-2h3v2zm-5.9 0h-3v-2h3v2zm-5.9 0h-3v-2h3v2zm-5.9 0h-3v-2h3v2zm-5.9 0h-3v-2h3v2zm-5.9 0h-3v-2h3v2zm-5.9 0h-3v-2h3v2zm-6 0h-3v-2h3v2zm-5.9 0h-3v-2h3v2zm-5.9 0h-3v-2h3v2zm-5.9 0h-3v-2h3v2zm-5.9 0h-3v-2h3v2zm-5.9 0h-3v-2h3v2zm-5.9 0h-3v-2h3v2zm-5.9 0h-3v-2h3v2zm-5.9 0h-3v-2h3v2zm-5.9 0h-3v-2h3v2zm-5.9 0h-3v-2h3v2zm-6 0h-3v-2h3v2zm-5.9 0h-3v-2h3v2zm-5.9 0h-3v-2h3v2zm-5.9 0h-3v-2h3v2zm-5.9 0h-3v-2h3v2zM251 117.5h-2v-.5h-.5v-2h2.5zM251 277.1h-2v-3h2v3zm0-5.9h-2v-3h2v3zm0-5.9h-2v-3h2v3zm0-5.9h-2v-3h2v3zm0-6h-2v-3h2v3zm0-5.9h-2v-3h2v3zm0-5.9h-2v-3h2v3zm0-5.9h-2v-3h2v3zm0-5.9h-2v-3h2v3zm0-5.9h-2v-3h2v3zm0-5.9h-2v-3h2v3zm0-5.9h-2v-3h2v3zm0-5.9h-2v-3h2v3zm0-5.9h-2v-3h2v3zm0-5.9h-2v-3h2v3zm0-6h-2v-3h2v3zm0-5.9h-2v-3h2v3zm0-5.9h-2v-3h2v3zm0-5.9h-2v-3h2v3zm0-5.9h-2v-3h2v3zm0-5.9h-2v-3h2v3zm0-5.9h-2v-3h2v3zm0-5.9h-2v-3h2v3zm0-5.9h-2v-3h2v3zm0-5.9h-2v-3h2v3zm0-5.9h-2v-3h2v3zm0-6h-2v-3h2v3z"/></g><g fill="#969696"><path d="M123.8 196.4v-.2c.1-1.7.5-3.3 1.3-4.8.7-1.4 1.7-2.5 2.8-3.4 1.1-.8 2.2-1.3 3.2-1.3.8 0 1.4.3 1.9.8.4.5.6 1.1.6 1.8 0 .8-.3 1.7-.9 2.5-.4.5-.7.8-1.1 1-.2.1-.4.2-.5.2-.2 0-.3 0-.5-.1-.1-.1-.3-.2-.4-.3-.2-.2-.3-.4-.3-.6 0-.2 0-.3.1-.4.9-.7 1.6-1.4 1.9-2.1.1-.3.2-.5.2-.8 0-.6-.3-.8-.8-.8-.8 0-1.7.4-2.5 1.3-.8.8-1.5 1.9-2.1 3.1-.6 1.3-.9 2.5-.9 3.5v.3c0 1.3.3 2.1.8 2.5.2.1.4.2.7.2s.5 0 .8-.1c.2-.1.5-.2.7-.3.4-.2.9-.5 1.5-1 .2-.1.3-.1.5.1.1.1.2.3.2.5 0 .3 0 .5-.1.7-.1.1-.2.3-.5.4-.2.2-.5.3-.8.4-.7.3-1.4.5-2.1.5s-1.2-.1-1.7-.3c-.4-.2-.8-.4-1.1-.7-.6-.5-.9-1.4-.9-2.6zM133.8 199.4c-.2-.2-.4-.5-.6-.9-.1-.4-.2-.8-.2-1.2s.1-1 .2-1.5.3-1 .5-1.4c.2-.5.5-.9.8-1.3.3-.4.7-.7 1-1 .8-.6 1.7-1 2.6-1 1.2 0 2 .5 2.4 1.6.3.7.3 1.7.1 2.7s-.7 1.9-1.3 2.7-1.4 1.4-2.2 1.7c-.4.2-.9.3-1.3.3s-.8-.1-1.1-.2-.7-.2-.9-.5zm1.6-4.1c-.2.4-.3.9-.4 1.3-.1.4-.1.9-.1 1.3s.1.7.2.9c.1.2.3.3.6.3s.5-.1.8-.3.5-.4.7-.7.5-.6.7-1l.6-1.2c.3-.9.5-1.7.5-2.5 0-.6-.1-1-.4-1.2-.1-.1-.2-.1-.4-.1s-.4.1-.6.3c-.2.2-.5.4-.7.7s-.5.6-.7 1-.6.8-.8 1.2zM142.8 199.4c-.2-.2-.4-.5-.6-.9-.1-.4-.2-.8-.2-1.2s.1-1 .2-1.5.3-1 .5-1.4c.2-.5.5-.9.8-1.3.3-.4.7-.7 1-1 .8-.6 1.7-1 2.6-1 1.2 0 2 .5 2.4 1.6.3.7.3 1.7.1 2.7s-.7 1.9-1.3 2.7-1.4 1.4-2.2 1.7c-.4.2-.9.3-1.3.3s-.8-.1-1.1-.2-.7-.2-.9-.5zm1.6-4.1c-.2.4-.3.9-.4 1.3-.1.4-.1.9-.1 1.3s.1.7.2.9c.1.2.3.3.6.3s.5-.1.8-.3.5-.4.7-.7.5-.6.7-1l.6-1.2c.3-.9.5-1.7.5-2.5 0-.6-.1-1-.4-1.2-.1-.1-.2-.1-.4-.1s-.4.1-.6.3c-.2.2-.5.4-.7.7s-.5.6-.7 1-.6.8-.8 1.2zM151 199.8l-.3-.3c-.1-.1-.1-.2-.1-.3v-.3c0-.1.1-.2.1-.4 1.2-2.9 1.7-4.8 1.7-5.8 0-.3-.1-.5-.3-.6l-.2-.1c-.1 0-.1-.1-.1-.2s0-.2.1-.3.2-.2.3-.2c.2-.1.5-.2.8-.2s.5 0 .6.1.3.1.4.2c.2.2.3.4.3.7s0 .5-.1.7-.1.5-.2.7c-.1.2-.1.4-.2.6-.1.2-.1.4-.1.5 0 .2-.1.3-.1.4.1-.1.2-.2.2-.4l.3-.6c.7-1.3 1.5-2.2 2.2-2.7.2-.1.5-.2.7-.2s.5.1.7.3.3.4.3.7c0 .2 0 .4-.1.6 0 .2-.1.3-.2.5-.2.3-.4.5-.7.5-.1 0-.1 0-.2-.1l-.2-.2c-.2-.2-.4-.2-.5-.2s-.4.1-.6.3-.5.5-.8.9c-.9 1.2-1.6 2.5-2.2 4l-.4 1c-.1.2-.2.4-.3.5s-.2.2-.3.2-.3 0-.4-.1.1-.1-.1-.2zM166.7 198.3c.1 0 .2.1.2.2 0 .5-.3.9-.8 1.3-.3.2-.7.4-1 .4s-.5 0-.7-.1-.3-.2-.5-.3c-.3-.3-.5-.8-.5-1.4 0-.1 0-.3.1-.6-.5.7-.9 1.2-1.2 1.5-.7.6-1.3.9-2 .9-1 0-1.7-.5-2-1.4-.1-.3-.2-.8-.2-1.3s.1-1 .2-1.5.4-1 .6-1.5c.3-.5.6-.9.9-1.3.4-.4.7-.8 1.1-1 .8-.6 1.6-.9 2.3-.9s1.2.3 1.6.8c1-3.4 1.7-5.4 2.2-6 .2-.3.4-.4.7-.4.4 0 .7.1.9.3.1.1.1.1.1.2s0 .2-.1.4-.2.5-.4 1c-.5 1.3-.9 2.3-1.1 2.9-.5 1.6-.9 2.7-1.1 3.3l-.5 1.6c-.4 1.4-.6 2.3-.6 2.7s.1.6.4.6c.3 0 .5 0 .6-.1l.3-.2c.4-.1.5-.1.5-.1zm-5.9.5c.6 0 1.3-.6 2-1.7.8-1.2 1.3-2.5 1.7-3.9 0-.4-.2-.7-.5-.9-.1-.1-.3-.1-.5-.1s-.5.1-.7.2c-.3.2-.5.4-.8.6s-.5.6-.7.9c-.2.3-.4.7-.6 1.1-.4.8-.5 1.7-.5 2.5 0 .9.2 1.3.6 1.3zM170.8 198.4c.1 0 .2.1.2.3 0 .3-.1.5-.4.8-.3.4-.8.6-1.4.6-.7 0-1.1-.3-1.4-.8-.1-.2-.1-.4-.1-.7s0-.6.1-.9c.1-.3.2-.7.4-1 .1-.4.3-.7.5-1.1l.5-1.1c.3-.8.5-1.3.5-1.6s0-.4-.1-.5l-.2-.2-.2-.1c-.1 0-.1-.1-.1-.2s0-.2.1-.3.2-.2.3-.2c.3-.1.6-.2.9-.2.8 0 1.3.2 1.3.7s-.1 1.1-.4 1.8c-.3.7-.5 1.2-.7 1.6l-.5 1.2c-.4.9-.6 1.5-.6 1.9 0 .3.1.4.4.4.2 0 .4 0 .6-.1.2-.3.3-.3.3-.3zm1.8-9.3c-.1.1-.3.2-.4.3s-.3.1-.5.2-.3 0-.5-.1-.3-.2-.4-.3c-.2-.3-.4-.6-.4-.9 0-.3 0-.5.1-.7.1-.1.2-.3.4-.4.3-.2.5-.3.8-.3.2 0 .4 0 .6.1s.3.1.4.2c.3.2.4.4.4.7s0 .5-.1.7c-.2.2-.3.4-.4.5zM179.1 192.8c-.2 0-.4.2-.8.5s-.6.6-.8.9l-.7.9-1.4 1.8-.8 1.6-.5 1c-.1.2-.2.4-.3.5s-.2.2-.4.2-.3 0-.4-.1-.3-.1-.4-.2c-.2-.2-.3-.4-.3-.6 0-.1.1-.3.2-.5l.3-.7c.1-.2.2-.5.4-.8l.5-1.2c.7-1.7 1-2.8 1-3.3 0-.3-.1-.5-.3-.6l-.2-.1c-.1 0-.1-.1-.1-.2s0-.2.1-.3.2-.2.3-.2c.3-.1.5-.2.8-.2s.5 0 .6.1.3.1.4.2c.2.2.3.4.3.6 0 .2 0 .4-.1.7-.1.2-.1.4-.2.7-.1.2-.2.4-.3.7-.1.2-.2.4-.2.6l-.2.4c0 .1-.1.1 0 .1.6-.9 1.1-1.4 1.3-1.7l.6-.7c.4-.5.8-.9 1-1 .5-.3.9-.5 1.2-.5s.5 0 .7.1.4.2.5.3c.3.3.5.7.5 1.1 0 .5-.1.9-.3 1.4s-.4.9-.5 1.2-.3.6-.4.9c-.4 1-.6 1.6-.6 2.1 0 .2.2.3.5.3.2 0 .5-.1.7-.2.2-.1.3-.2.4-.2.1 0 .2.1.2.2 0 .5-.3.9-.8 1.3-.3.2-.7.4-1 .4s-.5 0-.7-.1-.4-.2-.5-.3c-.3-.3-.5-.7-.5-1.3 0-.7.2-1.5.6-2.5.3-.7.5-1.1.6-1.4l.3-.6c.2-.4.3-.7.3-.9s-.2-.4-.6-.4zM189.4 197.7c0 .5.2.8.6.8.3 0 .5 0 .6-.1.2-.1.3-.1.3-.1.1 0 .2.1.2.2 0 .5-.3.9-.8 1.3s-1.1.5-1.7.3c-.4-.1-.6-.4-.8-.8-.1-.2-.1-.4-.1-.6 0-.3 0-.6.1-.9-.5 1.1-1.2 1.8-2 2.2-.3.2-.6.2-1 .2s-.7-.1-.9-.2c-.3-.1-.5-.3-.7-.6-.4-.5-.5-1.2-.5-2 0-1 .3-2 .9-3 .5-.9 1.2-1.7 2-2.2.8-.6 1.5-.9 2.2-.9s1.2.3 1.7 1c.4-.6.7-1 1-1s.6.1.7.2c.3.2.4.4.3.6-1.4 2.9-2.2 4.8-2.2 5.5.1-.1.1 0 .1.1zm-4.7.1c0 .7.2 1 .7 1 .3 0 .8-.3 1.2-.9.7-.8 1.4-2 1.9-3.4.2-.4.3-.9.4-1.3 0-.4-.2-.7-.5-.9-.1-.1-.3-.1-.5-.1s-.4.1-.7.2-.5.4-.8.6c-.3.3-.5.6-.7.9-.2.4-.4.7-.6 1.1-.3 1-.4 1.9-.4 2.8zM197.3 197.8c.2 0 .2.1.2.3s-.1.4-.2.5c-.2.3-.5.6-.9.9-.5.3-1.1.5-1.6.5-.9 0-1.5-.4-1.7-1.2-.3-1 .1-3 1.3-6.2-.7-.1-1-.2-1.1-.3v-.2c0-.1 0-.1.1-.2s.1-.2.2-.2c.2-.2.4-.2.6-.2h.7c.6-1.4 1.1-2.3 1.3-2.5.1-.1.3-.1.4-.1s.3 0 .4.1c.1 0 .2.1.3.2.2.2.3.4.3.6 0 .1 0 .2-.1.4l-.6 1.4h2c.2 0 .2.1.2.2 0 .8-.9 1.1-2.7 1.1h-.1l-.6 1.5c-.7 1.8-1 3-1 3.7 0 .2 0 .4.1.5s.3.2.5.2.5 0 .7-.1.4-.2.5-.3c.2-.1.3-.2.4-.3.2-.3.3-.3.4-.3zM198.7 197c0-.5.1-1 .2-1.4.1-.5.3-.9.6-1.3.2-.4.5-.8.8-1.2s.7-.7 1.1-1c.8-.6 1.6-.9 2.5-.9 1 0 1.6.4 2 1.2.1.3.2.6.2 1s-.1.7-.2 1c-.1.3-.3.6-.6.9-.2.3-.5.5-.9.7-.3.2-.7.4-1.1.5-.8.3-1.7.4-2.6.4v.4c0 .2 0 .3.1.5 0 .2.1.4.2.5.2.3.5.5.9.5.7 0 1.3-.2 1.9-.6.2-.1.4-.3.5-.4.1-.1.3-.2.4-.2.1 0 .2.1.3.2.1.1.1.3.1.4 0 .3-.1.6-.3.8-.7.7-1.8 1.1-3.2 1.1-.8 0-1.5-.3-2-.8-.7-.5-.9-1.3-.9-2.3zm5-4.7c-.6 0-1.2.4-1.7 1.2-.5.7-.8 1.5-1.1 2.5 1-.1 1.8-.5 2.5-1.1.6-.6 1-1.2 1-1.8-.1-.5-.3-.8-.7-.8zM206.5 198.5c0-.2 0-.3.1-.5s.2-.3.3-.4c.2-.2.5-.3.8-.3.2 0 .3.1.3.4 0 .6.2 1 .6 1.2.1.1.3.1.4.1s.3 0 .4-.1.2-.1.3-.2c.2-.2.3-.4.3-.6 0-.2-.1-.4-.2-.6-.1-.2-.2-.4-.4-.6l-.5-.7c-.7-.9-1-1.8-1-2.5 0-.6.3-1.2.8-1.7.6-.6 1.4-.9 2.4-.9.8 0 1.5.2 2 .6.4.3.6.7.6 1.2s-.2.8-.5 1.1c-.3.2-.6.3-.9.3-.1 0-.2-.1-.3-.2s-.1-.2 0-.4c0-.1.1-.3.1-.4s0-.3-.1-.4-.1-.2-.2-.3c-.2-.2-.4-.3-.6-.3-.2 0-.4 0-.5.1-.1 0-.3.1-.4.2-.2.2-.3.5-.3.8s.1.6.2.8.2.4.4.7.3.4.5.7c.2.2.3.5.5.7.4.6.5 1.1.5 1.5s-.1.8-.3 1.1-.4.5-.7.8c-.6.5-1.3.7-2.1.7-.7 0-1.3-.2-1.7-.5-.6-.6-.8-1-.8-1.4z"/></g><g><circle fill="none" stroke="#36CC89" stroke-width="4" stroke-miterlimit="10" stroke-dasharray="15.7562,7.8781" cx="167.1" cy="197.2" r="81.3"/></g><g fill="#40B481"><path d="M137.5 97.8l-.1.8c0 .8.3 1.4.8 1.7.2.1.4.2.7.2s.5 0 .7-.1c.2-.1.4-.2.5-.4.3-.3.4-.7.4-1.1s-.1-.8-.2-1.1c-.2-.3-.4-.6-.6-1l-.8-1c-.7-.8-1.1-1.5-1.3-2.1-.2-.6-.3-1.2-.3-1.8s.1-1.1.2-1.5c.1-.5.3-.9.6-1.4.2-.4.5-.8.9-1.2s.7-.7 1.1-.9c.8-.6 1.7-.9 2.5-.9s1.5.1 1.9.3.8.5 1.1.9c.5.7.8 1.5.8 2.4 0 .9-.2 1.7-.7 2.5-.5.7-1 1.2-1.5 1.3-.1.1-.3.1-.5.1s-.4 0-.5-.1c-.1-.1-.3-.2-.4-.3-.2-.2-.4-.5-.4-.8 0-.2.1-.3.2-.4.5-.3 1-.7 1.3-1.2.4-.6.6-1.1.6-1.7 0-.6-.1-1-.4-1.3-.3-.3-.7-.4-1.2-.4s-.9.1-1.3.3c-.4.2-.7.5-1 .9-.6.8-.9 1.7-.9 2.8 0 .7.3 1.5.8 2.3.2.3.4.7.7 1 .2.3.5.7.7 1 .5.8.7 1.6.7 2.2s-.1 1.2-.4 1.6c-.2.4-.5.8-.9 1.2-.8.7-1.8 1.1-2.8 1.1-1 0-1.8-.3-2.3-.9-.4-.5-.7-1-.7-1.6 0-.6.2-1.1.5-1.5.3-.3.5-.5.8-.6.4.1.7.3.7.7zM151.4 99.1c.2 0 .3.1.3.4 0 .2-.1.4-.2.6-.2.4-.5.8-1.1 1.1-.6.4-1.2.6-1.9.6-1.1 0-1.8-.5-2.1-1.5-.3-1.2.2-3.6 1.6-7.4-.8-.1-1.2-.2-1.3-.4v-.2c0-.1 0-.2.1-.2s.1-.2.2-.3c.2-.2.5-.3.7-.3h.8c.7-1.7 1.3-2.7 1.6-2.9.1-.1.3-.2.5-.2s.3 0 .5.1.2.1.3.2c.2.2.3.4.3.7 0 .1 0 .3-.1.5l-.8 1.6h2.3c.2 0 .3.1.3.2 0 .9-1.1 1.3-3.2 1.3h-.1l-.7 1.8c-.8 2.1-1.2 3.6-1.2 4.4 0 .2.1.4.2.6.1.1.3.2.6.2s.6-.1.8-.2.5-.2.6-.3c.2-.1.3-.2.5-.3s.4-.1.5-.1zM153.1 98.2c0-.6.1-1.2.3-1.7.2-.5.4-1.1.7-1.6s.6-1 1-1.4c.4-.5.8-.8 1.2-1.2 1-.7 1.9-1.1 2.9-1.1 1.2 0 1.9.5 2.3 1.4.1.3.2.7.2 1.2 0 .4-.1.9-.3 1.2-.2.4-.4.7-.7 1-.3.3-.6.6-1 .8-.4.2-.8.5-1.3.6-1 .3-2 .5-3.1.5 0 .1 0 .2-.1.4s0 .4.1.6.1.4.2.6c.2.4.6.6 1.1.6.8 0 1.6-.2 2.3-.7.3-.2.5-.3.6-.5s.3-.2.4-.2c.1 0 .2.1.3.2.1.1.1.3.1.5 0 .4-.1.7-.3.9-.9.9-2.1 1.3-3.8 1.3-1 0-1.8-.3-2.4-.9-.4-.4-.8-1.3-.7-2.5zm5.9-5.6c-.7 0-1.4.5-2.1 1.5-.6.8-1 1.8-1.3 3 1.1-.1 2.1-.6 2.9-1.3.8-.7 1.1-1.4 1.1-2.1.1-.7-.1-1.1-.6-1.1zM170.1 93.2c-.2 0-.5.2-.9.6-.4.4-.7.8-1 1.1l-.9 1-1.7 2.1c-.4.7-.7 1.4-.9 1.9l-.5 1.2c-.1.3-.3.5-.4.6s-.2.2-.4.2-.4 0-.5-.1c-.2-.1-.3-.1-.4-.2-.3-.2-.4-.5-.4-.7 0-.1.1-.3.2-.6l.4-.8c.1-.2.3-.6.4-.9l.6-1.4c.8-2 1.2-3.3 1.2-3.9 0-.3-.1-.5-.3-.7l-.2-.1c-.1 0-.1-.1-.1-.2s0-.2.1-.3.2-.2.4-.3c.3-.2.6-.2.9-.2s.5 0 .7.1c.2.1.3.2.4.3.3.2.4.5.4.7s0 .5-.1.8c-.1.3-.1.5-.2.8-.1.3-.2.5-.3.8s-.2.5-.3.7l-.2.4-.1-.1c.8-1 1.2-1.7 1.5-2l.7-.9c.5-.6.9-1 1.2-1.2.6-.4 1.1-.6 1.4-.6.3 0 .6 0 .9.1.2.1.4.2.6.4.4.3.6.8.6 1.3s-.1 1.1-.4 1.7c-.2.6-.5 1.1-.6 1.4-.2.4-.3.7-.5 1.1-.5 1.1-.8 2-.8 2.5 0 .2.2.3.5.3s.5-.1.8-.2c.2-.1.4-.2.5-.2.1 0 .2.1.2.2 0 .6-.3 1.1-.9 1.5-.4.3-.8.4-1.1.4-.3 0-.6 0-.9-.1-.2-.1-.4-.2-.6-.4-.4-.4-.6-.9-.6-1.5 0-.8.2-1.8.7-2.9.4-.8.6-1.4.8-1.7l.3-.7c.2-.4.3-.8.3-1s-.1-.3-.5-.3zM174.4 98.3c0-.6.1-1.2.3-1.8.2-.6.4-1.1.7-1.7s.6-1 1-1.4c.4-.4.8-.8 1.3-1.1 1-.7 2-1 3.1-1s1.9.4 2.3 1.3c.1.3.2.7.2 1.1s-.1.8-.2 1.1c-.1.3-.3.6-.5.9-.4.6-.8.9-1.2.9-.5 0-.8-.1-1-.4-.2-.2-.3-.5-.2-.8 0-.1.1-.2.2-.2s.2-.2.4-.3c.4-.5.7-1 .7-1.6 0-.4-.2-.6-.8-.6-.6 0-1.2.3-1.8 1-.9.9-1.5 2.1-1.9 3.6-.3 1.3-.3 2.2.2 2.8.3.3.6.5 1.1.5.8 0 1.5-.3 2.2-.8.2-.2.4-.3.5-.5.1-.2.3-.3.4-.3s.2.1.3.2.1.3.1.4c0 .4-.2.8-.5 1.2-.9.9-2 1.3-3.3 1.3-1.1 0-2-.3-2.6-.9-.7-.9-1-1.8-1-2.9zM187.5 99.9c.2 0 .3.1.3.3 0 .3-.1.6-.4.9-.4.5-1 .7-1.6.7-.8 0-1.3-.3-1.6-1-.1-.2-.2-.5-.2-.8 0-.3.1-.7.2-1.1s.3-.8.4-1.2c.2-.4.3-.9.5-1.3l.5-1.3c.4-1 .6-1.6.6-1.9s0-.5-.1-.6c-.1-.1-.1-.2-.2-.2l-.2-.1c-.1 0-.1-.1-.1-.2s0-.2.1-.3c.1-.1.2-.2.4-.3.3-.2.7-.2 1.1-.2 1 0 1.5.3 1.5.8 0 .6-.2 1.3-.5 2.1s-.6 1.4-.8 1.9l-.6 1.4c-.4 1-.7 1.8-.7 2.2 0 .3.1.4.4.4.3 0 .5 0 .7-.1.2-.1.3-.1.3-.1zm2.1-11c-.1.2-.3.3-.5.4s-.4.2-.6.2c-.2 0-.4 0-.6-.1-.2-.1-.3-.2-.5-.4-.3-.3-.4-.7-.4-1s.1-.6.2-.8c.1-.2.3-.3.4-.4.3-.2.6-.3.9-.3.3 0 .5 0 .7.1s.3.1.4.2c.3.2.5.5.5.8 0 .3 0 .6-.1.8-.1.2-.2.3-.4.5zM190.6 101.4c-.2-.2-.3-.4-.4-.7-.1-.3-.2-.6-.2-1s.1-.8.2-1.5c.2-.6.4-1.3.6-2.1l.9-2.5c1.2-3.5 1.9-6.2 2.1-8.2.1-.6.3-.9.8-.9.3 0 .6.1.8.2.4.3.6.6.6 1s-.1.8-.2 1.3-.3 1.1-.4 1.7c-.2.6-.4 1.3-.6 2l-1.4 4.1c-.8 2.3-1.2 3.9-1.2 4.5 0 .4.1.5.4.5.3 0 .5-.1.8-.2s.4-.2.5-.2c.1 0 .2.1.2.2 0 .6-.3 1.1-.9 1.5-.4.3-.8.4-1.1.4s-.6 0-.8-.1c-.3.3-.5.2-.7 0z"/></g></svg>