<svg xmlns="http://www.w3.org/2000/svg" width="28" height="27.3"><path fill="#31A571" d="M26.1 7c-1.3-2.1-3-3.8-5.1-5.1S16.5 0 14 0 9.1.6 7 1.9C4.8 3.1 3.1 4.8 1.9 7 .6 9.1 0 11.5 0 14c0 3.1.9 5.8 2.7 8.2s4.1 4.1 6.9 5.1c.3.1.6 0 .7-.1.2-.1.2-.3.2-.5v-1-1.6l-.4.1c-.3 0-.6.1-1 .1s-.8 0-1.3-.1c-.4-.1-.8-.3-1.2-.5-.4-.3-.6-.7-.8-1.1l-.2-.4c-.1-.6-.3-.9-.6-1.2s-.5-.6-.8-.7l-.1-.1c-.1 0-.1-.1-.2-.2s-.1-.2-.2-.3c0-.1 0-.2.1-.2.1-.1.3-.1.5-.1l.4.1c.2 0 .5.2.9.4s.7.6.9.9c.3.5.6.9 1 1.1.4.3.8.4 1.2.4.4 0 .7 0 1-.1s.6-.2.8-.3c.1-.8.4-1.4.9-1.9-.7-.1-1.3-.2-1.9-.3-.6-.1-1.1-.4-1.7-.7-.6-.3-1.1-.7-1.5-1.2s-.7-1.1-1-1.9c-.2-.8-.4-1.7-.4-2.7 0-1.5.5-2.7 1.4-3.8-.2-1-.2-2.2.3-3.6.4-.1.9 0 1.6.2.7.3 1.2.5 1.5.7s.6.4.8.5c1.1-.3 2.3-.5 3.5-.5s2.4.2 3.5.5l.7-.4c.5-.3 1-.6 1.7-.8.6-.2 1.1-.3 1.5-.2.5 1.4.6 2.6.1 3.7 1 1 1.4 2.3 1.4 3.8 0 1-.1 1.9-.4 2.7-.2.8-.6 1.4-1 1.9s-.9.9-1.5 1.2c-.6.3-1.2.6-1.7.7-.6.1-1.2.3-1.9.3.6.5.9 1.4.9 2.6v3.8c0 .2.1.4.2.5.2.1.4.2.7.1 2.8-.9 5.1-2.6 6.9-5.1 2-2.2 2.9-5 2.9-8 0-2.5-.6-4.9-1.9-7z"/></svg>