<?xml version="1.0" encoding="utf-8"?>
<!-- Generator: Adobe Illustrator 18.0.0, SVG Export Plug-In . SVG Version: 6.00 Build 0)  -->
<!DOCTYPE svg PUBLIC "-//W3C//DTD SVG 1.1//EN" "http://www.w3.org/Graphics/SVG/1.1/DTD/svg11.dtd">
<svg version="1.1" id="Layer_1" xmlns="http://www.w3.org/2000/svg" xmlns:xlink="http://www.w3.org/1999/xlink" x="0px" y="0px"
	 width="28px" height="27.3px" viewBox="0 0 28 27.3" enable-background="new 0 0 28 27.3" xml:space="preserve">
<g>
	<path fill="#31A571" d="M26.1,7c-1.3-2.1-3-3.8-5.1-5.1S16.5,0,14,0S9.1,0.6,7,1.9C4.8,3.1,3.1,4.8,1.9,7C0.6,9.1,0,11.5,0,14
		c0,3.1,0.9,5.8,2.7,8.2s4.1,4.1,6.9,5.1c0.3,0.1,0.6,0,0.7-0.1c0.2-0.1,0.2-0.3,0.2-0.5c0,0,0-0.4,0-1s0-1.2,0-1.6l-0.4,0.1
		c-0.3,0-0.6,0.1-1,0.1s-0.8,0-1.3-0.1c-0.4-0.1-0.8-0.3-1.2-0.5C6.2,23.4,6,23,5.8,22.6l-0.2-0.4C5.5,21.6,5.3,21.3,5,21
		s-0.5-0.6-0.8-0.7l-0.1-0.1C4,20.2,4,20.1,3.9,20s-0.1-0.2-0.2-0.3c0-0.1,0-0.2,0.1-0.2c0.1-0.1,0.3-0.1,0.5-0.1l0.4,0.1
		c0.2,0,0.5,0.2,0.9,0.4c0.4,0.2,0.7,0.6,0.9,0.9c0.3,0.5,0.6,0.9,1,1.1c0.4,0.3,0.8,0.4,1.2,0.4c0.4,0,0.7,0,1-0.1s0.6-0.2,0.8-0.3
		c0.1-0.8,0.4-1.4,0.9-1.9c-0.7-0.1-1.3-0.2-1.9-0.3c-0.6-0.1-1.1-0.4-1.7-0.7c-0.6-0.3-1.1-0.7-1.5-1.2s-0.7-1.1-1-1.9
		c-0.2-0.8-0.4-1.7-0.4-2.7c0-1.5,0.5-2.7,1.4-3.8c-0.2-1-0.2-2.2,0.3-3.6C7,5.7,7.5,5.8,8.2,6c0.7,0.3,1.2,0.5,1.5,0.7
		s0.6,0.4,0.8,0.5c1.1-0.3,2.3-0.5,3.5-0.5s2.4,0.2,3.5,0.5l0.7-0.4c0.5-0.3,1-0.6,1.7-0.8c0.6-0.2,1.1-0.3,1.5-0.2
		c0.5,1.4,0.6,2.6,0.1,3.7c1,1,1.4,2.3,1.4,3.8c0,1-0.1,1.9-0.4,2.7c-0.2,0.8-0.6,1.4-1,1.9s-0.9,0.9-1.5,1.2
		c-0.6,0.3-1.2,0.6-1.7,0.7c-0.6,0.1-1.2,0.3-1.9,0.3c0.6,0.5,0.9,1.4,0.9,2.6v3.8c0,0.2,0.1,0.4,0.2,0.5c0.2,0.1,0.4,0.2,0.7,0.1
		c2.8-0.9,5.1-2.6,6.9-5.1c2-2.2,2.9-5,2.9-8C28,11.5,27.4,9.1,26.1,7L26.1,7z"/>
</g>
</svg>
