<?xml version="1.0" encoding="utf-8"?>
<!-- Generator: Adobe Illustrator 18.0.0, SVG Export Plug-In . SVG Version: 6.00 Build 0)  -->
<!DOCTYPE svg PUBLIC "-//W3C//DTD SVG 1.1//EN" "http://www.w3.org/Graphics/SVG/1.1/DTD/svg11.dtd">
<svg version="1.1" id="Layer_1" xmlns="http://www.w3.org/2000/svg" xmlns:xlink="http://www.w3.org/1999/xlink" x="0px" y="0px"
	 width="137px" height="134.5px" viewBox="0 0 137 134.5" enable-background="new 0 0 137 134.5" xml:space="preserve">
<rect x="307.9" y="172.8" display="none" fill="#FFFFFF" stroke="#231F20" stroke-width="20" stroke-miterlimit="10" width="74.8" height="74.8"/>
<line display="none" fill="#FFFFFF" stroke="#231F20" stroke-width="20" stroke-miterlimit="10" x1="307.9" y1="171.7" x2="307.9" y2="142.3"/>
<line display="none" fill="#FFFFFF" stroke="#231F20" stroke-width="20" stroke-miterlimit="10" x1="275.5" y1="171.7" x2="304.9" y2="171.7"/>
<line display="none" fill="#FFFFFF" stroke="#231F20" stroke-width="20" stroke-miterlimit="10" x1="382.6" y1="247.6" x2="382.6" y2="276.9"/>
<line display="none" fill="#FFFFFF" stroke="#231F20" stroke-width="20" stroke-miterlimit="10" x1="415" y1="247.6" x2="385.6" y2="247.6"/>
<rect x="330.6" y="195.6" display="none" fill="#231F20" width="29.3" height="29.3"/>
<polygon display="none" fill="#0C0C0C" points="498.2,153 498.2,219.3 564.5,219.3 489.2,229.7 "/>
<polygon display="none" fill="#0C0C0C" points="538.5,243.7 538.5,177.3 472.2,177.3 547.5,167 "/>
<polygon display="none" fill="#0C0C0C" points="503.5,181.3 503.5,213.7 535.9,181.3 "/>
<polygon fill="#FFFFFF" points="30,32 0,36.1 29.2,36.1 "/>
<g>
	<polygon fill="#FFFFFF" points="38.6,30.8 34.9,31.3 34.3,36.1 38.6,36.1 	"/>
	<polygon fill="#FFFFFF" points="111.8,20.8 42.6,30.3 43.1,36.1 98.4,36.1 98.4,134.5 	"/>
</g>
<polygon fill="#FFFFFF" points="92.3,98.4 38.6,98.4 38.6,0 25.2,113.8 91.7,104.6 "/>
<g>
	<polygon fill="#FFFFFF" points="108.5,102.3 137,98.4 108.9,98.4 	"/>
	<polygon fill="#FFFFFF" points="102.7,98.4 98.4,98.4 98.4,103.7 102.1,103.2 	"/>
</g>
<polygon fill="#FFFFFF" points="46.5,42 46.5,71.9 80.1,49.5 46.5,83.1 46.5,90 94.5,42 "/>
<polygon opacity="0.2" fill="#FFFFFF" points="55.4,25 117,15.1 108.5,83.8 122.7,8.9 "/>
<polygon opacity="0.2" fill="#FFFFFF" points="80.2,109.7 18.6,119.6 27.1,50.8 12.8,125.8 "/>
</svg>
