<svg xmlns="http://www.w3.org/2000/svg" width="137" height="134.5"><path fill="#FFF" d="M30 32L0 36.1h29.2z"/><g fill="#FFF"><path d="M38.6 30.8l-3.7.5-.6 4.8h4.3zM111.8 20.8l-69.2 9.5.5 5.8h55.3v98.4z"/></g><path fill="#FFF" d="M92.3 98.4H38.6V0L25.2 113.8l66.5-9.2z"/><g fill="#FFF"><path d="M108.5 102.3l28.5-3.9h-28.1zM102.7 98.4h-4.3v5.3l3.7-.5z"/></g><path fill="#FFF" d="M46.5 42v29.9l33.6-22.4-33.6 33.6V90l48-48z"/><path opacity=".2" fill="#FFF" d="M55.4 25l61.6-9.9-8.5 68.7 14.2-74.9zM80.2 109.7l-61.6 9.9 8.5-68.8-14.3 75z"/></svg>