<svg xmlns="http://www.w3.org/2000/svg" width="280.1" height="321.3"><g fill="none" stroke="#F2F2F2" stroke-width="2" stroke-miterlimit="10"><path d="M231.1 264.5v1.5h-1.5"/><path stroke-dasharray="2.9545,2.9545" d="M226.6 266h-158"/><path d="M67.1 266h-1.5v-1.5"/><path stroke-dasharray="2.9545,2.9545" d="M65.6 261.6V103.5"/><path d="M65.6 102v-1.5h1.5"/><path stroke-dasharray="2.9545,2.9545" d="M70 100.5h158.1"/><path d="M229.6 100.5h1.5v1.5"/><path stroke-dasharray="2.9545,2.9545" d="M231.1 105v158.1"/></g><g fill="none" stroke="#F2F2F2" stroke-width="2" stroke-miterlimit="10"><path d="M169.7 201.3v1.5h-1.5"/><path stroke-dasharray="2.9545,2.9545" d="M165.3 202.8H7.2"/><path d="M5.7 202.8H4.2v-1.5"/><path stroke-dasharray="2.9545,2.9545" d="M4.2 198.3v-158"/><path d="M4.2 38.8v-1.5h1.5"/><path stroke-dasharray="2.9545,2.9545" d="M8.7 37.3h158.1"/><path d="M168.2 37.3h1.5v1.5"/><path stroke-dasharray="2.9545,2.9545" d="M169.7 41.8v158"/></g><circle fill="none" stroke="#36CC89" stroke-width="4" stroke-miterlimit="10" stroke-dasharray="15.7562,7.8781" cx="148.3" cy="183.3" r="82.8"/><g fill="#B9B9B9"><path d="M198.3 89.3c.2 0 .2.1.2.3 0 .2 0 .4-.1.5s-.2.3-.3.4c-.1.1-.2.2-.4.3-.4.2-.8.4-1.2.3s-.7-.1-1-.2c-.2-.1-.4-.3-.6-.5-.4-.4-.5-1-.5-1.7 0-.8.2-1.7.5-2.9.3-1.1.6-2.1.9-2.9.3-.8.6-1.6.9-2.3l.8-2.1c-.9.8-2.1 2.5-3.5 5l-2.2 4.1c-1.2 2.2-2 3.2-2.5 3.2s-.8-.2-1-.6c-.2-.4-.2-1.1-.2-2.1s.1-1.9.3-2.8c.2-.9.4-1.8.6-2.6.4-1.5 1-3 1.6-4.4-.6.3-1.4 1.1-2.1 2.4-.6 1-1 1.7-1.3 2.1l-2.4 4.3c-1 1.8-1.8 2.8-2.4 3.2-.4.3-.9.4-1.4.4-.4 0-.7-.1-.9-.4-.1-.1-.1-.2-.1-.3 0-.1 0-.1.1-.2.4-.1.6-.2.8-.3.2-.1.3-.2.5-.3.2-.1.4-.4.7-.7.3-.4.6-.8 1-1.4.3-.5.7-1.1 1.1-1.8l1.2-2.1c1.1-2 2.2-3.7 3.4-4.9.4-.4.8-.8 1.2-1 .4-.3.9-.5 1.4-.6h.4c.1 0 .3 0 .4.1.2 0 .3.1.4.2.3.2.3.4.2.7-.1.2-.1.5-.3.8L192 80c-1.2 3.1-1.8 6-2 8.6.3-.5.7-1.1 1-1.8l1-2 1.1-2c1.7-3.1 3.3-4.8 4.7-5.2.3-.1.5-.1.7-.1.2 0 .4 0 .5.1.1.1.2.1.3.2.2.2.3.4.2.6-.1.2-.2.5-.3.8l-1.4 3.8-.5 1.5c-.5 1.7-.9 3.1-1 4 0 .4 0 .7.1.9.1.2.3.3.5.3h.5c.1 0 .2-.1.3-.1l.2-.1c.3-.2.4-.2.4-.2zM200.8 90.5c-.3-.2-.4-.6-.6-.9-.1-.4-.2-.8-.2-1.3s.1-1 .2-1.5.3-1 .6-1.5c.2-.5.5-.9.9-1.3.3-.4.7-.8 1.1-1.1.9-.7 1.8-1 2.8-1 1.2 0 2.1.6 2.5 1.7.3.8.3 1.7 0 2.9-.3 1-.7 2-1.4 2.8-.7.9-1.5 1.5-2.4 1.8-.5.2-.9.3-1.4.3-.4 0-.8-.1-1.2-.2-.4-.3-.7-.5-.9-.7zm1.8-4.4c-.2.4-.3.9-.4 1.4-.1.5-.2.9-.2 1.3s.1.7.2 1c.1.2.3.4.6.4s.6-.1.8-.3c.3-.2.5-.4.8-.7.3-.3.5-.7.7-1.1.2-.4.4-.8.6-1.3.4-1 .6-1.8.6-2.6 0-.7-.1-1.1-.4-1.3-.1-.1-.3-.1-.5-.1s-.4.1-.7.3c-.3.2-.5.4-.8.7-.3.3-.5.6-.7 1-.2.5-.4.9-.6 1.3zM209.5 90.3c-.1-.2-.1-.4-.1-.7 0-.3 0-.6.1-.9.1-.3.2-.7.3-1 .1-.3.3-.7.5-1l.5-1c.6-1.4.8-2.2.7-2.4-.1-.1-.2-.2-.4-.3-.1 0-.1-.1-.1-.2s0-.2.1-.3c.1-.1.2-.2.4-.2.3-.1.6-.2.9-.2.3 0 .5 0 .7.1.2.1.3.1.4.2.2.2.3.4.3.7 0 .3-.1.6-.2 1s-.3.7-.4 1.1c-.2.4-.4.8-.5 1.2l-.5 1.2c-.4.9-.6 1.4-.6 1.7 0 .6.2.8.6.8 1 0 2-.6 2.9-1.8.5-.7.9-1.4 1.1-2.2.1-.4.2-.7.2-1.1v-.8c0-.2-.1-.4-.1-.6-.1-.3-.2-.5-.4-.8-.1-.2-.1-.3.2-.5.3-.2.6-.3 1.1-.3.3 0 .6.1.8.4.3.3.4.8.4 1.5 0 .6-.1 1.2-.3 1.9-.2.6-.5 1.2-.8 1.7-.3.6-.7 1.1-1.2 1.5-.4.5-.9.9-1.4 1.2-1.1.8-2.2 1.1-3.3 1.1-1.1 0-1.6-.3-1.9-1zM219.1 88.2c0-.5.1-1 .3-1.5.2-.5.4-.9.6-1.4.3-.4.6-.9.9-1.3.3-.4.7-.7 1.1-1 .9-.6 1.7-.9 2.6-.9 1 0 1.7.4 2 1.3.1.3.2.6.2 1s-.1.8-.2 1.1c-.1.3-.4.6-.6.9-.3.3-.6.5-.9.7-.4.2-.7.4-1.2.5-.9.3-1.8.4-2.8.4v1c0 .2.1.4.2.6.2.4.5.5.9.6.7 0 1.4-.2 2.1-.6.2-.1.4-.3.6-.4.1-.1.3-.2.4-.2.1 0 .2.1.3.2.1.1.1.3.1.4 0 .3-.1.6-.3.8-.8.7-1.9 1.1-3.4 1.1-.9 0-1.6-.3-2.1-.8-.6-.7-.9-1.5-.8-2.5zm5.3-4.9c-.6 0-1.2.4-1.8 1.3-.5.7-.9 1.6-1.2 2.6 1-.1 1.9-.5 2.6-1.2.7-.6 1-1.3 1-1.9 0-.5-.2-.8-.6-.8zM233.5 88.4c0-.5.1-1 .3-1.5.2-.5.4-.9.6-1.4.3-.4.6-.9.9-1.3.3-.4.7-.7 1.1-1 .9-.6 1.7-.9 2.6-.9 1 0 1.7.4 2 1.3.1.3.2.6.2 1s-.1.8-.2 1.1c-.1.3-.4.6-.6.9-.3.3-.6.5-.9.7-.4.2-.7.4-1.2.5-.9.3-1.8.4-2.8.4v1c0 .2.1.4.2.6.2.4.5.5.9.6.7 0 1.4-.2 2.1-.6.2-.1.4-.3.6-.4.1-.1.3-.2.4-.2.1 0 .2.1.3.2.1.1.1.3.1.4 0 .3-.1.6-.3.8-.8.7-1.9 1.1-3.4 1.1-.9 0-1.6-.3-2.1-.8-.6-.7-.9-1.5-.8-2.5zm5.3-5c-.6 0-1.2.4-1.8 1.3-.5.7-.9 1.6-1.2 2.6 1-.1 1.9-.5 2.6-1.2.7-.6 1-1.3 1-1.9 0-.5-.2-.8-.6-.8zM242.1 90.8c-.1-.2-.1-.4-.1-.7 0-.3 0-.6.1-.9.1-.3.2-.7.3-1 .1-.3.3-.7.5-1l.5-1c.6-1.4.8-2.2.7-2.4-.1-.1-.2-.2-.4-.3-.1 0-.1-.1-.1-.2s0-.2.1-.3c.1-.1.2-.2.4-.2.3-.1.6-.2.9-.2.3 0 .5 0 .7.1.2.1.3.1.4.2.2.2.3.4.3.7s-.1.6-.2 1-.3.7-.4 1.1c-.2.4-.4.8-.5 1.2l-.5 1.2c-.4.9-.6 1.4-.6 1.7 0 .6.2.8.6.8 1 0 2-.6 2.9-1.8.5-.7.9-1.4 1.1-2.2.1-.4.2-.7.2-1.1v-.8c0-.2-.1-.4-.1-.6-.1-.3-.2-.5-.4-.8-.1-.2-.1-.3.2-.5.3-.2.6-.3 1.1-.3.3 0 .6.1.8.4.3.3.4.8.4 1.5 0 .6-.1 1.2-.3 1.9-.2.6-.5 1.2-.8 1.7s-.7 1.1-1.2 1.5c-.4.5-.9.9-1.4 1.2-1.1.8-2.2 1.1-3.3 1.1-1.1-.1-1.6-.4-1.9-1zM251.7 88.6c0-.5.1-1 .3-1.5.2-.5.4-.9.6-1.4.3-.4.6-.9.9-1.3.3-.4.7-.7 1.1-1 .9-.6 1.7-.9 2.6-.9 1 0 1.7.4 2 1.3.1.3.2.6.2 1s-.1.8-.2 1.1c-.1.3-.4.6-.6.9-.3.3-.6.5-.9.7-.4.2-.7.4-1.2.5-.9.3-1.8.4-2.8.4v1c0 .2.1.4.2.6.2.4.5.5.9.6.7 0 1.4-.2 2.1-.6.2-.1.4-.3.6-.4.1-.1.3-.2.4-.2.1 0 .2.1.3.2.1.1.1.3.1.4 0 .3-.1.6-.3.8-.8.8-1.9 1.1-3.4 1.1-.9 0-1.6-.3-2.1-.8-.6-.6-.9-1.5-.8-2.5zm5.3-4.9c-.6 0-1.2.4-1.8 1.3-.5.7-.9 1.6-1.2 2.6 1-.1 1.9-.5 2.6-1.2.7-.6 1-1.3 1-1.9 0-.5-.2-.8-.6-.8zM266.9 84.3c-.2 0-.5.2-.8.5-.3.4-.6.7-.9 1l-.8.9-1.5 1.9c-.4.7-.6 1.2-.8 1.6l-.5 1c-.1.3-.2.4-.3.5-.1.1-.2.2-.4.2s-.3 0-.5-.1c-.1-.1-.3-.1-.4-.2-.2-.2-.3-.4-.3-.6 0-.1.1-.3.2-.5l.4-.7c.1-.2.2-.5.4-.8l.5-1.2c.7-1.8 1.1-2.9 1.1-3.4 0-.3-.1-.5-.3-.6l-.2-.1c-.1 0-.1-.1-.1-.2s0-.2.1-.3c.1-.1.2-.2.3-.2.3-.1.5-.2.8-.2.3 0 .5 0 .6.1.2.1.3.1.4.2.2.2.3.4.3.7 0 .2 0 .5-.1.7-.1.2-.1.5-.2.7-.1.2-.2.5-.3.7l-.3.6-.2.4c0 .1-.1.1 0 .1.7-.9 1.1-1.5 1.3-1.8l.6-.8c.5-.5.8-.9 1.1-1.1.5-.4 1-.5 1.3-.5.3 0 .6 0 .8.1.2.1.4.2.5.3.3.3.5.7.5 1.2s-.1 1-.3 1.5-.4.9-.6 1.3c-.2.3-.3.6-.5 1-.5 1-.7 1.7-.7 2.2 0 .2.2.3.5.3s.5 0 .7-.2c.2-.1.3-.2.4-.2.1 0 .2.1.2.2 0 .5-.3 1-.8 1.3-.4.2-.7.4-1 .4-.3 0-.6 0-.8-.1-.2-.1-.4-.2-.5-.3-.4-.3-.5-.8-.5-1.3 0-.7.2-1.6.7-2.6.3-.7.6-1.2.7-1.5l.3-.6c.2-.4.3-.7.3-.9.1-.5-.1-.6-.4-.6zM276 89.7c.2 0 .3.1.3.4 0 .2-.1.4-.2.6-.2.3-.5.7-1 1-.6.3-1.1.5-1.7.5-1 0-1.6-.5-1.8-1.3-.3-1 .2-3.2 1.5-6.5-.7-.1-1.1-.2-1.1-.4v-.2c0-.1 0-.1.1-.2s.1-.2.2-.2c.2-.2.4-.3.6-.3h.7c.7-1.5 1.1-2.4 1.4-2.6.1-.1.3-.1.4-.1.2 0 .3 0 .4.1.1 0 .2.1.3.2.2.2.3.4.3.6 0 .1 0 .3-.1.4l-.7 1.4h2c.1 0 .3.1.3.2 0 .8-1 1.2-2.8 1.2h-.1l-.6 1.6c-.7 1.9-1.1 3.2-1.1 3.9 0 .2 0 .4.1.5.1.1.3.2.5.2.3 0 .5 0 .7-.1l.6-.3c.2-.1.3-.2.4-.3.2-.3.3-.3.4-.3z"/></g><g fill="#8F8F8F"><path d="M58.1 68.7h.6c.2 0 .4-.1.5-.1v.9c-.1.1-.3.1-.6.2-.3 0-.5.1-.7.1-1.6 0-2.3-.8-2.3-2.5v-4.8h-1.2v-.6l1.2-.5.5-1.7h.7v1.9h2.3v.9h-2.3v4.7c0 .5.1.9.3 1.1s.6.4 1 .4zM67.8 65.6c0 1.3-.3 2.3-1 3.1-.7.7-1.6 1.1-2.7 1.1-.7 0-1.4-.2-1.9-.5s-1-.8-1.3-1.5-.5-1.4-.5-2.2c0-1.3.3-2.3 1-3.1.7-.7 1.6-1.1 2.7-1.1s2 .4 2.7 1.1c.6.8 1 1.8 1 3.1zm-6.2 0c0 1 .2 1.8.6 2.3s1 .8 1.8.8 1.4-.3 1.8-.8c.4-.5.6-1.3.6-2.3 0-1-.2-1.8-.6-2.3-.4-.5-1-.8-1.8-.8s-1.4.3-1.8.8-.6 1.2-.6 2.3zM73.6 69.8c-.5 0-1-.1-1.4-.3-.4-.2-.8-.5-1.1-.9H71c.1.5.1.9.1 1.3v3.3h-1.2V61.6h1l.2 1.1h.1c.3-.4.7-.8 1.1-1s.9-.3 1.4-.3c1.1 0 1.9.4 2.5 1.1.6.7.9 1.7.9 3.1 0 1.3-.3 2.3-.9 3.1-.7.7-1.5 1.1-2.6 1.1zm-.1-7.3c-.8 0-1.4.2-1.8.7s-.6 1.2-.6 2.2v.3c0 1.1.2 1.9.6 2.4.4.5 1 .7 1.8.7.7 0 1.2-.3 1.6-.8.4-.6.6-1.3.6-2.3 0-1-.2-1.8-.6-2.3-.4-.7-.9-.9-1.6-.9z"/></g><path fill="none" stroke="#36CC89" stroke-width="2" stroke-miterlimit="10" d="M65.6 41v14.4M65.6 77.6v14.8"/><g fill="#8F8F8F"><path d="M23.6 103.5h-1.2V92.1h1.2v11.4zM29.5 103.7c-1.2 0-2.1-.4-2.8-1.1s-1-1.7-1-3 .3-2.3 1-3.1c.6-.8 1.5-1.1 2.6-1.1 1 0 1.8.3 2.4 1 .6.7.9 1.5.9 2.6v.8H27c0 .9.3 1.7.7 2.1.5.5 1.1.7 1.9.7.9 0 1.7-.2 2.6-.5v1.1c-.4.2-.8.3-1.2.4-.5 0-.9.1-1.5.1zm-.3-7.3c-.6 0-1.2.2-1.5.6s-.6 1-.7 1.7h4.2c0-.8-.2-1.4-.5-1.8s-.9-.5-1.5-.5zM38.2 96.4h-2v7.1H35v-7.1h-1.4v-.5l1.4-.4V95c0-2 .9-3 2.6-3 .4 0 .9.1 1.5.3l-.3 1c-.5-.2-.9-.2-1.2-.2-.5 0-.8.2-1 .5s-.3.8-.3 1.5v.5h2v.8zM42.2 102.7h.6c.2 0 .4-.1.5-.1v.9c-.1.1-.3.1-.6.2-.3 0-.5.1-.7.1-1.6 0-2.3-.8-2.3-2.5v-4.8h-1.1v-.6l1.1-.5.5-1.7h.8v1.9h2.3v.9H41v4.7c0 .5.1.9.3 1.1s.5.4.9.4z"/></g><path fill="none" stroke="#36CC89" stroke-width="2" stroke-miterlimit="10" d="M17.6 99.6H8.3M57.5 99.6h-9.4"/><circle fill="#D2F0E2" cx="5.2" cy="38.5" r="5.2"/><circle fill="#36CC89" cx="65.6" cy="100.3" r="5.2"/></svg>