<svg xmlns="http://www.w3.org/2000/svg" width="1337.4" height="94.5"><path fill="#36AA76" d="M.7 0L.5 2.2l260 50.8-58.7 35.7 189.3-43.3 65.9 25 123.7-17.1-12.3 13.3 7.3-1.3c116.6-20.5 139.1-24.8 143.6-25.9 8.2.8 120.9 8.6 125.7 8.9l.7.1L906.4 15l-26.1 28L937 59.8l116.3-5.8-5.3 16 69.1-19 44.2 23.1L1331.1 0H.7z"/><path fill="#43B582" d="M927.3 12.3l-29 27.5 44.5 8.5-27-14z"/><path fill="#2FA36F" d="M392.6 30.5l68.7 24.6 118.6-24.6-117.3 12.3z"/><path fill="#012D1A" d="M1324.9 0l-163.6 71.3-44-23-65.5 18 5-15-119.5 6-52.5-15.5 34-36.5-73.5 40.5s-121.4-8.4-126-9c-1.6.9-144 26-144 26l12-13-130 18-66-25-175 40 51-31L2.1 0H.5L0 4.7l253.7 49.5-40 24.3-26.4 16 30.1-6.9L391 48l64.6 24.5 1.2.5 1.3-.2 116.2-16.1-2.5 2.7-10 10.9 14.6-2.6c.4-.1 36-6.3 71.4-12.6 52.8-9.4 67.5-12.1 72-13.2 11.4 1 113.3 8.1 125.3 8.9l1.5.1 1.3-.7L894 24.8l-12.7 13.6-5.5 5.9 7.8 2.3 52.5 15.5.8.2h.9l112.2-5.6-2.7 8.1-3 8.9 9-2.5 63.6-17.5 42.3 22.1 2.1 1.1 2.2-1 164.1-71.5 10-4.4h-12.7z"/></svg>