<svg xmlns="http://www.w3.org/2000/svg" width="392.5" height="422"><path fill="#F9F7F2" d="M227.2 54.2c2.4-1.9 4.7-3.9 6.9-6.1-1-.8-2-1.6-3.1-2.4-4.1 6.8-9.3 12.7-15.6 17.5.8 1 1.6 2 2.4 3.1 13.9-12.1 27.1-24.8 39.5-38.3-1-.8-2-1.6-3.1-2.4-14.2 19.3-29.3 38-45.2 56-1.7 1.8 1 4.6 2.7 2.7 9.3-10.2 18.6-20.3 27.9-30.6 4.6-5.1 9.3-10.2 13.9-15.3 2.4-2.5 4.6-5.1 7-7.7 2.4-2.7 4.8-6 8.5-7.1-.6-1-1.2-2.2-1.9-3.2-21 26-43.1 51.2-64.8 76.5-1.5 1.7.3 4 2.4 3.1 7.3-3.5 12.8-9.5 18.5-15.1 7.2-7.1 14.2-14.2 21.3-21.5 13.5-14.1 26.9-28.4 39.9-43-1-.8-2-1.6-3.1-2.4-10.7 17.2-23.1 33.1-36.5 48.2-6.6 7.4-13.4 14.7-20.3 21.8-6.8 7.2-14.3 13.9-19.4 22.4-1 1.7 1 3.5 2.6 2.6 39-19 56.2-62.3 88-89.6l-2.7-2.7c-16.2 16.2-29.3 34.8-43.2 52.8-7.1 9.2-14.4 18.1-22.4 26.5-4 4.2-8.3 8.1-12.7 12-3.8 3.3-7 6.8-8.8 11.5-.7 1.8 1.5 2.8 2.9 2.2 46.1-19.8 52.4-79.3 93.3-105.2-.8-1-1.6-2-2.4-3.1-15 19.4-30.6 38.5-45 58.3-6.8 9.4-12.7 19.6-17.6 30-2.4 5.3-5.1 10-9.3 14.1-3.8 3.7-8.6 6.4-13.3 9.1-2.2 1.3-.3 4.5 1.9 3.3 9.9-4.7 16.6-13.3 22.8-22 7.8-10.8 15.8-21.4 24.5-31.5 17.6-20.6 36.9-39.7 56.2-58.8 1.5-1.4-.1-3.7-1.9-3.2-17.6 3.8-28 22.1-37.8 35.5-12.8 17.9-25.2 36.1-37.1 54.5-1.4 2.1 2 4 3.3 1.9 11.1-17 22.5-33.7 34.4-50.2 5.7-7.9 11.4-16 17.6-23.5 5.6-6.6 12.2-12.4 20.8-14.3-.6-1-1.2-2.2-1.9-3.2-18.5 18.3-37 36.7-54.2 56.3-8.5 9.7-16.5 19.8-24 30.3-6.9 9.6-13.5 19.8-24.5 25.1.6 1.1 1.3 2.3 1.9 3.3 8.5-5.1 16.3-10.3 21.3-19.1 2.8-5 4.9-10.3 7.6-15.4 3-5.6 6.3-11 9.9-16.2 7-10.4 15-20.1 22.7-30 8.1-10.5 16.2-21 24.4-31.5 1.2-1.7-.3-4.4-2.4-3.1-40.7 25.9-47.3 85.6-93.1 105.2 1 .7 1.9 1.5 2.9 2.2 2.1-5.3 6.8-8.9 11-12.7 4-3.6 7.8-7.4 11.5-11.3 7.5-7.9 14.3-16.5 21-25.2 13.7-17.7 26.6-36.2 42.5-52 1.8-1.8-.9-4.4-2.7-2.7-31.5 27.1-48.5 70.1-87.2 88.9l2.6 2.6c5.2-8.6 13-15.5 19.9-22.7 6.9-7.2 13.7-14.5 20.3-21.9 13.3-14.9 25.6-30.7 36.1-47.8 1.1-1.8-1.6-4-3.1-2.4-12.7 14.1-25.6 28.1-38.8 41.8-6.6 6.8-13.3 13.6-20 20.3-6.1 6.2-12.1 13.1-20.2 16.9.8 1 1.6 2 2.4 3.1C226.9 74 249 48.9 270 22.8c1.1-1.4.2-3.8-1.9-3.2-5.4 1.5-8.9 6.6-12.5 10.6-5.1 5.5-10 11.1-15.1 16.6-10.4 11.5-20.8 23-31.3 34.5l2.7 2.7c15.9-18 31.2-37 45.6-56.5 1.3-1.8-1.6-3.9-3.1-2.4C242 38.6 228.8 51.4 215 63.4c-1.7 1.4.6 4.4 2.4 3.1 6.8-5.2 12.6-11.5 17-18.9 1.1-1.9-1.5-3.9-3.1-2.4-2.2 2.2-4.5 4.2-6.9 6.1-1.9 1.7.9 4.4 2.8 2.9z"/><path fill="#F9F7F2" d="M214.1 146.1c19.7-20.2 39.2-40.5 58.7-60.9 10-10.4 19.8-20.8 29.7-31.3 8.6-9.1 18.2-18 24.2-29.2 1.1-2.1-1.5-3.9-3.2-2.4C311.4 32.4 299 42.2 287.4 53c-5.2 4.9-10.1 10.2-14.4 15.9-4.9 6.4-8.3 13.6-11.9 20.7-6.7 13.5-15.7 25.4-26.7 35.6-8.1 7.5-22.7 14.4-23 27.1 0 1.9 2.2 2.4 3.5 1.5 24.3-19.1 44.5-41.7 63.3-65.9 17.6-22.5 35.5-45.9 59.9-61.4-.8-1-1.7-2.1-2.4-3.2-10.7 10-19.6 20.1-26.3 33.2-7 13.5-16.6 25.1-26.6 36.5-19.7 22.6-41.5 43.3-64.8 62.1-1.7 1.3.1 3.9 2 3.4 12.3-3.6 22-12.2 31.2-21 11-10.5 21.7-21.3 32.3-32.3 20.6-21.7 40-44.4 58.3-67.9-1-.8-2.1-1.7-3.2-2.4-5.9 11.5-11.9 23.1-19.2 33.8-8.4 12.1-19.1 22.3-29.3 32.8-20.3 21-40.8 41.9-61.1 62.9-1.6 1.6.5 4.6 2.4 3.2 22.4-16.2 42.2-35.5 61-55.6 20.1-21.5 39.7-43.5 59.4-65.3-1.1-.7-2.3-1.3-3.4-2-6.8 29-33.3 48-53.5 67.7-21.2 20.7-40.9 43-59 66.4-1.3 1.7.4 4.7 2.4 3.2 21.7-16.6 40.5-36.2 59-56.2 9.4-10.1 18.8-20.3 28.5-30.1 10-10.1 20.5-22.3 34.1-27.7-.7-1.1-1.3-2.3-2-3.4-7.6 6.1-15.2 12.2-21.7 19.4-6.6 7.2-12.2 15.5-18.5 23.1-12.6 15.5-26.5 29.9-41.4 43.2-1.9 1.7 1 4.6 2.9 2.9 14.8-13.4 28.7-27.8 41.4-43.2 6.3-7.6 12-15.7 18.5-23.1 6.5-7.3 14.1-13.4 21.7-19.4 1.6-1.2-.1-4.1-2-3.4-12.1 4.8-21.3 14.3-30.4 23.2-10.2 10.2-20 20.7-29.8 31.2-19.7 21.1-39.4 42.4-62.4 60 .8 1 1.7 2.1 2.4 3.2 18.8-24.3 39.3-47.3 61.4-68.6 20.2-19.6 45.5-38.4 52.2-67.3.4-1.9-2-3.6-3.4-2-19.4 21.4-38.7 43-58.3 64.2-18.9 20.3-38.7 39.9-61.3 56.2.8 1 1.7 2.1 2.4 3.2 20.8-21.4 41.6-42.7 62.4-64.1 9.7-10 19.7-19.8 27.9-31.1 7.9-10.9 14.1-23.1 20.2-35.1 1-1.9-1.7-4.4-3.2-2.4-17.6 22.7-36.4 44.6-56.2 65.6-9.7 10.3-19.7 20.3-29.8 30.1-10 9.7-20.3 20.3-34.1 24.4.7 1.1 1.3 2.3 2 3.4 23-18.4 44.3-38.9 63.8-60.9 9.4-10.7 19.1-21.7 26-34.2 3.8-6.8 7-13.7 11.8-19.9 4.8-6.1 10.5-11.4 16.2-16.8 1.7-1.6-.5-4.5-2.4-3.2-24 15.3-41.7 37.6-59 59.8-19.6 25.1-40.1 48.4-65.1 68.1 1.1.5 2.4 1 3.5 1.5.2-6.7 6.1-11.4 10.9-15.3 5.2-4.2 10.3-8.2 15-12.9 10-9.9 17.7-21.4 23.9-33.9 3.3-6.6 6.7-13.2 11.1-19.3 4.4-5.9 9.6-11.2 14.9-16.2 11.2-10.4 23.3-19.9 35-29.7-1-.8-2.1-1.7-3.2-2.4-6 11.4-16 20.3-24.7 29.6-9.5 10-19 20-28.6 30-19.5 20.3-39 40.7-58.7 60.9-1.8 1.6 1.1 4.5 2.9 2.7z"/><path fill="#F9F7F2" d="M256.1 176.5c10-6.9 18.1-16.2 26.5-24.9 9.5-9.8 19.2-19.4 28.8-29 19.7-19.7 39.8-39 60.1-58.1-1.1-.7-2.3-1.3-3.4-2-.5 3.3-2.6 5.5-4.8 7.9-2.6 2.9-5.2 5.8-7.9 8.6-4.9 5.3-9.8 10.7-14.8 15.9-9.9 10.6-19.9 21-30 31.3s-20.4 20.4-30.8 30.5c-5.2 5-10.5 10-15.7 14.9-4.3 4-8.6 7.8-10.7 13.4-.4 1.2.7 2.6 2 2.6 12.1 0 21.6-7.5 29.8-15.5 5.2-5 10.1-10.2 15.2-15.3 5-5 10.1-9.9 14.5-15.5 4.1-5.4 7-11.4 11.6-16.5 5.1-5.8 10.4-11.4 15.7-16.9 10.3-10.7 21-21.2 32-31.3l-2.9-2.9c-20.9 21.5-41.7 42.9-63.9 62.9-18.8 16.9-38.7 33.9-49.4 57.3-.6 1.3.1 3.1 1.7 3.1 6.1-.2 10.5-3.9 15.1-7.5 5.5-4.3 11-8.6 16.4-13.1 11.2-9.2 22-18.8 32.2-29 10-10 19.1-20.6 27.4-32 8.3-11.4 14.1-26.2 25.8-34.6-.8-1-1.7-2.1-2.4-3.2-8.9 10-19.4 18-27.8 28.4-8 9.9-14.8 20.7-22.4 30.8-14.2 19-36.3 33.2-44.7 56.2-.5 1.5 1.1 3 2.5 2.5 9.6-3 17.3-9.3 24.5-16.2 8.7-8.4 17.4-16.9 25.7-25.9 15.6-16.8 28.8-35.9 46.1-51.1 1.7-1.6-.5-4.4-2.4-3.2-14.4 8.8-24.8 22.2-35.8 34.6-5.9 6.7-12.4 12.7-19.3 18.5-6.1 5.2-11.3 11.6-11.5 19.9 0 1 1 2.1 2 2 17.3-1 29.5-13.5 39.7-26.2 12.2-15.1 23.4-31.1 34.8-46.8 1.4-1.8-1.7-4.3-3.2-2.4-19 23.7-39.4 46.1-61 67.3-1.9 1.8 1 4.7 2.9 2.9 21.7-21.1 42.1-43.6 61-67.3-1-.8-2.1-1.7-3.2-2.4-10.2 14.1-20.3 28.3-31.1 42.1-10.1 13-22.1 27.9-39.9 28.9l2 2c.3-8.9 7.4-14.7 13.7-19.9 6.1-5.1 11.5-10.7 16.8-16.7 10.5-11.9 20.4-24.5 34.1-32.9-.8-1-1.7-2.1-2.4-3.2-17 14.5-29.7 32.5-44.3 48.7-7.9 8.7-16.4 17-24.8 25.3-7.5 7.4-15.4 14.9-25.8 18.1l2.5 2.5c4.1-11.3 12-20.2 20.3-28.6 8-8.2 16.2-16.2 23.1-25.4 7.9-10.2 14.7-21.1 22.7-31.3 8.3-10.5 19-18.4 27.8-28.4 1.5-1.7-.5-4.6-2.4-3.2-10.1 7.2-15.5 18.6-22.2 28.7-7.8 11.9-16.9 22.8-26.7 33.1-9.6 10.1-19.9 19.6-30.6 28.6-5.3 4.5-10.7 8.9-16.2 13.3-5.3 4.3-12.1 11.6-19.2 11.9.6 1 1.1 2 1.7 3.1 10.8-23.6 31-40.4 49.9-57.5 21.8-19.7 42.4-40.9 62.9-61.9 1.8-1.9-1-4.6-2.9-2.9-10.2 9.3-20.1 19-29.7 28.9-9.3 9.5-19.6 19.1-26.4 30.7-7 11.8-17.9 21-27.5 30.6-8.8 8.9-18.8 19.7-32.3 19.7.7.9 1.3 1.7 2 2.6 2.4-6.1 8.6-10.6 13.3-14.9 5.2-5 10.5-10 15.6-15 10.4-10 20.6-20.3 30.7-30.6s20.1-20.8 30-31.4c4.9-5.2 9.8-10.6 14.7-16 3.8-4.2 9.4-8.7 10.3-14.6.3-1.9-1.8-3.5-3.4-2-19.5 18.3-38.7 36.9-57.7 55.6-9.7 9.6-19.3 19.3-28.9 29-8.9 9.1-17.5 19.4-28 26.7-1.9 1.6.1 5.1 2.3 3.6z"/><path fill="#F9F7F2" d="M309.1 187.5c23.8-25.2 49-49 75.4-71.4-1-.8-2.1-1.7-3.2-2.4-16.4 27.7-40.3 49.7-63.8 71.2-1.7 1.6.5 4.4 2.4 3.2 10.7-6.1 19.2-13.8 26-24 7-10.6 13-23.2 25.3-28.4l-2.5-2.5c-4.2 16.3-13.5 30.7-26.7 41.2-2.1 1.7.9 4.5 2.9 2.9 13.6-10.9 23.3-26 27.8-43 .3-1.3-1-3.1-2.5-2.5-11 4.6-17.7 14.1-23.8 24-3.6 5.8-7.2 11.4-11.8 16.4-4.8 5.1-10.7 9.1-16.8 12.5.8 1 1.7 2.1 2.4 3.2 23.8-21.7 47.9-44 64.5-72.1 1.2-2.1-1.5-3.9-3.2-2.4-26.4 22.4-51.5 46.2-75.4 71.4-1.7 1.6 1.2 4.6 3 2.7z"/><path fill="#F9F7F2" d="M303.4 194.9c10.8-6.3 21.5-12.9 31.9-19.9 1.8-1.2.7-4.6-1.6-3.8-2.9 1.2-5.9 2.4-8.7 3.6.7 1.1 1.3 2.3 2 3.4 2-2.2 3.8-4.5 5.3-7 1.8-3.1 2.9-6.6 5.9-8.9 2.1-1.6.1-5.1-2.1-3.5-5.5 4.1-7.3 11.5-12.1 16.5-1.3 1.4 0 4.2 2 3.4 2.9-1.2 5.9-2.4 8.7-3.6-.5-1.2-1-2.4-1.6-3.8-10.4 7-21 13.6-31.9 19.9-2.2 1.5-.2 5 2.2 3.7z"/><path fill="#FCFBFA" d="M35.9 271.4c2.4-1.9 4.7-3.9 6.9-6.1-1-.8-2-1.6-3.1-2.4-4.1 6.8-9.3 12.7-15.6 17.5.8 1 1.6 2 2.4 3.1 13.9-12.1 27.1-24.8 39.5-38.3-1-.8-2-1.6-3.1-2.4-14.2 19.3-29.3 38-45.2 56-1.7 1.8 1 4.6 2.7 2.7 9.3-10.2 18.6-20.3 27.9-30.6 4.6-5.1 9.3-10.2 13.9-15.3 2.4-2.5 4.6-5.1 7-7.7 2.4-2.7 4.8-6 8.5-7.1-.6-1-1.2-2.2-1.9-3.2-21 26-43.1 51.2-64.8 76.5-1.5 1.7.3 4 2.4 3.1 7.3-3.5 12.8-9.5 18.5-15.1C39 295 46 287.8 53.1 280.6c13.5-14.1 26.9-28.4 39.9-43-1-.8-2-1.6-3.1-2.4-10.7 17.2-23.1 33.1-36.5 48.2-6.6 7.4-13.4 14.7-20.3 21.8-6.8 7.2-14.3 13.9-19.4 22.4-1 1.7 1 3.5 2.6 2.6 39-19 56.2-62.3 88-89.6l-2.7-2.7c-16.2 16.2-29.3 34.8-43.2 52.8-7.1 9.2-14.4 18.1-22.4 26.5-4 4.2-8.3 8.1-12.7 12-3.8 3.3-7 6.8-8.8 11.5-.7 1.8 1.5 2.8 2.9 2.2 46.1-19.8 52.4-79.3 93.3-105.2-.8-1-1.6-2-2.4-3.1-15 19.4-30.6 38.5-45 58.3-6.8 9.4-12.7 19.6-17.6 30-2.4 5.3-5.1 10-9.3 14.1-3.8 3.7-8.6 6.4-13.3 9.1-2.2 1.3-.3 4.5 1.9 3.3 9.9-4.7 16.6-13.3 22.8-22 7.8-10.8 15.8-21.4 24.5-31.5 17.6-20.6 36.9-39.7 56.2-58.8 1.5-1.4-.1-3.7-1.9-3.2-17.6 3.8-28 22.1-37.8 35.5-12.8 17.9-25.2 36.1-37.1 54.5-1.4 2.1 2 4 3.3 1.9 11.1-17 22.5-33.7 34.4-50.2 5.7-7.9 11.4-16 17.6-23.5 5.6-6.6 12.2-12.4 20.8-14.3-.6-1-1.2-2.2-1.9-3.2-18.5 18.3-37 36.7-54.2 56.3-8.5 9.7-16.5 19.8-24 30.3-6.9 9.6-13.5 19.8-24.5 25.1.6 1.1 1.3 2.3 1.9 3.3 8.5-5.1 16.3-10.3 21.3-19.1 2.8-5 4.9-10.3 7.6-15.4 3-5.6 6.3-11 9.9-16.2 7-10.4 15-20.1 22.7-30 8.1-10.5 16.2-21 24.4-31.5 1.2-1.7-.3-4.4-2.4-3.1-40.8 26-47.5 85.7-93.2 105.3 1 .7 1.9 1.5 2.9 2.2 2.1-5.3 6.8-8.9 11-12.7 4-3.6 7.8-7.4 11.5-11.3 7.5-7.9 14.3-16.5 21-25.2 13.7-17.7 26.6-36.2 42.5-52 1.8-1.8-.9-4.4-2.7-2.7C70 265.1 53.1 308.2 14.4 327l2.6 2.6c5.2-8.6 13-15.5 19.9-22.7 6.9-7.2 13.7-14.5 20.3-21.9 13.3-14.9 25.6-30.7 36.1-47.8 1.1-1.8-1.6-4-3.1-2.4-12.7 14.1-25.6 28.1-38.8 41.8-6.6 6.8-13.3 13.6-20 20.3-6.1 6.2-12.1 13.1-20.2 16.9.8 1 1.6 2 2.4 3.1 21.8-25.4 43.9-50.5 64.9-76.6 1.1-1.4.2-3.8-1.9-3.2-5.4 1.5-8.9 6.6-12.5 10.6-5.1 5.5-10 11.1-15.1 16.6-10.4 11.5-20.8 23-31.3 34.5l2.7 2.7c16.1-18.3 31.4-37.2 45.8-56.7 1.3-1.8-1.6-3.9-3.1-2.4-12.4 13.5-25.6 26.3-39.4 38.3-1.7 1.4.6 4.4 2.4 3.1 6.8-5.2 12.6-11.5 17-18.9 1.1-1.9-1.5-3.9-3.1-2.4-2.2 2.2-4.5 4.2-6.9 6.1-1.9 1.6.9 4.3 2.8 2.8z"/><path fill="#FCFBFA" d="M22.8 363.3c19.7-20.2 39.2-40.5 58.7-60.9 10-10.4 19.8-20.8 29.7-31.3 8.6-9.1 18.2-18 24.2-29.2 1.1-2.1-1.5-3.9-3.2-2.4-12.1 10.1-24.5 19.9-36.1 30.7-5.2 4.9-10.1 10.2-14.4 15.9-4.9 6.4-8.3 13.6-11.9 20.7-6.8 13.5-15.7 25.5-26.8 35.7-8.1 7.5-22.7 14.4-23 27.1 0 1.9 2.2 2.4 3.5 1.5C47.8 352 68 329.4 86.8 305.2c17.6-22.5 35.5-45.9 59.9-61.4-.8-1-1.7-2.1-2.4-3.2-10.7 10-19.6 20.1-26.3 33.2-7 13.5-16.6 25.1-26.6 36.5-19.7 22.6-41.5 43.3-64.8 62.1-1.7 1.3.1 3.9 2 3.4 12.3-3.6 22-12.2 31.2-21 11-10.5 21.7-21.3 32.3-32.3 20.6-21.7 40-44.4 58.3-67.9-1-.8-2.1-1.7-3.2-2.4-5.9 11.5-11.9 23.1-19.2 33.8-8.4 12.1-19.1 22.3-29.3 32.8-20.3 21-40.8 41.9-61.1 62.9-1.6 1.6.5 4.6 2.4 3.2 22.4-16.2 42.2-35.5 61-55.6 20.1-21.5 39.7-43.5 59.4-65.3-1.1-.7-2.3-1.3-3.4-2-6.8 29-33.3 48-53.5 67.7-21.2 20.7-40.9 43-59 66.4-1.3 1.7.4 4.7 2.4 3.2 21.7-16.6 40.5-36.2 59-56.2 9.4-10.1 18.8-20.3 28.5-30.1 10-10.1 20.5-22.3 34.1-27.7-.7-1.1-1.3-2.3-2-3.4-7.6 6.1-15.2 12.2-21.7 19.4-6.6 7.2-12.2 15.5-18.5 23.1-12.6 15.5-26.5 29.9-41.4 43.2-1.9 1.7 1 4.6 2.9 2.9 14.8-13.4 28.7-27.8 41.4-43.2 6.3-7.6 12-15.7 18.5-23.1 6.5-7.3 14.1-13.4 21.7-19.4 1.6-1.2-.1-4.1-2-3.4-12.1 4.8-21.3 14.3-30.4 23.2-10.2 10.2-20 20.7-29.8 31.2-19.7 21.1-39.4 42.4-62.4 60 .8 1 1.7 2.1 2.4 3.2 18.8-24.3 39.3-47.3 61.4-68.6 20.2-19.6 45.5-38.4 52.2-67.3.4-1.9-2-3.6-3.4-2-19.4 21.4-38.7 43-58.3 64.2-18.9 20.3-38.7 39.9-61.3 56.2.8 1 1.7 2.1 2.4 3.2 20.8-21.4 41.6-42.7 62.4-64.1 9.7-10 19.7-19.8 27.9-31.1 7.9-10.9 14.1-23.1 20.2-35.1 1-1.9-1.7-4.4-3.2-2.4-17.6 22.7-36.4 44.6-56.2 65.6-9.7 10.3-19.7 20.3-29.8 30.1-10 9.7-20.3 20.3-34.1 24.4.7 1.1 1.3 2.3 2 3.4 23-18.4 44.3-38.9 63.8-60.9 9.4-10.7 19.1-21.7 26-34.2 3.8-6.8 7-13.7 11.8-19.9 4.8-6.1 10.5-11.4 16.2-16.8 1.7-1.6-.5-4.5-2.4-3.2-24 15.3-41.7 37.6-59 59.8-19.6 25.1-40.1 48.4-65.1 68.1 1.1.5 2.4 1 3.5 1.5.2-6.7 6.1-11.4 10.9-15.3 5.2-4.2 10.3-8.2 15-12.9 10-9.9 17.7-21.4 23.9-33.9 3.3-6.6 6.7-13.2 11.1-19.3 4.4-5.9 9.6-11.2 14.9-16.2 11.2-10.4 23.3-19.9 35-29.7-1-.8-2.1-1.7-3.2-2.4-6 11.4-16 20.3-24.7 29.6-9.5 10-19 20-28.6 30-19.5 20.3-39 40.7-58.7 60.9-1.7 1.5 1.2 4.4 3 2.6z"/><path fill="#FCFBFA" d="M64.7 393.8c10-6.9 18.1-16.2 26.5-24.9 9.5-9.8 19.2-19.4 28.8-29 19.7-19.7 39.8-39 60.1-58.1-1.1-.7-2.3-1.3-3.4-2-.5 3.3-2.6 5.5-4.8 7.9-2.6 2.9-5.2 5.8-7.9 8.6-4.9 5.3-9.8 10.7-14.8 15.9-9.9 10.6-19.9 21-30 31.3-10.1 10.3-20.4 20.4-30.8 30.5-5.2 5-10.5 10-15.7 14.9-4.3 4-8.6 7.8-10.7 13.4-.4 1.2.7 2.6 2 2.6 12.1 0 21.6-7.5 29.8-15.5 5.2-5 10.1-10.2 15.2-15.3 5-5 10.1-9.9 14.5-15.5 4.1-5.4 7-11.4 11.6-16.5 5.1-5.8 10.4-11.4 15.7-16.9 10.3-10.7 21-21.2 32-31.3l-2.9-2.9c-20.9 21.5-41.7 42.9-63.9 62.9-18.8 16.9-38.7 33.9-49.4 57.3-.6 1.3.1 3.1 1.7 3.1 6.1-.2 10.5-3.9 15.1-7.5 5.5-4.3 11-8.6 16.4-13.1 11.2-9.2 22-18.8 32.2-29 10-10 19.1-20.6 27.4-32 8.3-11.4 14.1-26.2 25.8-34.6-.8-1-1.7-2.1-2.4-3.2-8.9 10-19.4 18-27.8 28.4-8 9.9-14.8 20.7-22.4 30.8-14.2 19-36.3 33.2-44.7 56.2-.5 1.5 1.1 3 2.5 2.5 9.6-3 17.3-9.3 24.5-16.2 8.7-8.4 17.4-16.9 25.7-25.9 15.6-16.8 28.8-35.9 46.1-51.1 1.7-1.6-.5-4.4-2.4-3.2-14.4 8.8-24.8 22.2-35.8 34.6-5.9 6.7-12.4 12.7-19.3 18.5-6.1 5.2-11.3 11.6-11.5 19.9 0 1 1 2.1 2 2 17.3-1 29.5-13.5 39.7-26.2 12.2-15.1 23.4-31.1 34.8-46.8 1.4-1.8-1.7-4.3-3.2-2.4-19 23.7-39.4 46.1-61 67.3-1.9 1.8 1 4.7 2.9 2.9 21.7-21.1 42.1-43.6 61-67.3-1-.8-2.1-1.7-3.2-2.4-10.2 14.1-20.3 28.3-31.1 42.1-10.1 13-22.1 27.9-39.9 28.9l2 2c.3-8.9 7.4-14.7 13.7-19.9 6.1-5.1 11.5-10.7 16.8-16.7 10.5-11.9 20.4-24.5 34.1-32.9-.8-1-1.7-2.1-2.4-3.2-16.5 14.4-29.3 32.4-43.8 48.6-7.9 8.7-16.4 17-24.8 25.3-7.5 7.4-15.4 14.9-25.8 18.1l2.5 2.5c4.1-11.3 12-20.2 20.3-28.6 8-8.2 16.2-16.2 23.1-25.4 7.9-10.2 14.7-21.1 22.7-31.3 8.3-10.5 19-18.4 27.8-28.4 1.5-1.7-.5-4.6-2.4-3.2-10.1 7.2-15.5 18.6-22.2 28.7-7.8 11.9-16.9 22.8-26.7 33.1-9.6 10.1-19.9 19.6-30.6 28.6-5.3 4.5-10.7 8.9-16.2 13.3-5.3 4.3-12.1 11.6-19.2 11.9.6 1 1.1 2 1.7 3.1 10.8-23.6 31-40.4 49.9-57.5 21.8-19.7 42.4-40.9 62.9-61.9 1.8-1.9-1-4.6-2.9-2.9-10.2 9.3-20.1 19-29.7 28.9-9.3 9.5-19.6 19.1-26.4 30.7-7 11.8-17.9 21-27.5 30.6-8.8 8.9-18.8 19.7-32.3 19.7.7.9 1.3 1.7 2 2.6 2.4-6.1 8.6-10.6 13.3-14.9 5.2-5 10.5-10 15.6-15 10.4-10 20.6-20.3 30.7-30.6 10.1-10.3 20.1-20.8 30-31.4 4.9-5.2 9.8-10.6 14.7-16 3.8-4.2 9.4-8.7 10.3-14.6.3-1.9-1.8-3.5-3.4-2-19.5 18.3-38.7 36.9-57.7 55.6-9.7 9.6-19.3 19.3-28.9 29-8.9 9.1-17.5 19.4-28 26.7-2.4 1.7-.4 5.2 1.8 3.7z"/><path fill="#FCFBFA" d="M117.7 404.7c23.8-25.2 49-49 75.4-71.4-1-.8-2.1-1.7-3.2-2.4-16.4 27.7-40.3 49.7-63.8 71.2-1.7 1.6.5 4.4 2.4 3.2 10.7-6.1 19.2-13.8 26-24 7-10.6 13-23.2 25.3-28.4l-2.5-2.5c-4.2 16.3-13.5 30.7-26.7 41.2-2.1 1.7.9 4.5 2.9 2.9 13.6-10.9 23.3-26 27.8-43 .3-1.3-1-3.1-2.5-2.5-11 4.6-17.7 14.1-23.8 24-3.6 5.8-7.2 11.4-11.8 16.4-4.8 5.1-10.7 9.1-16.8 12.5.8 1 1.7 2.1 2.4 3.2 23.8-21.7 47.9-44 64.5-72.1 1.2-2.1-1.5-3.9-3.2-2.4-26.4 22.4-51.5 46.2-75.4 71.4-1.6 1.6 1.3 4.6 3 2.7z"/><path fill="#FCFBFA" d="M112 412.1c10.8-6.3 21.5-12.9 31.9-19.9 1.8-1.2.7-4.6-1.6-3.8-2.9 1.2-5.9 2.4-8.7 3.6.7 1.1 1.3 2.3 2 3.4 2-2.2 3.8-4.5 5.3-7 1.8-3.1 2.9-6.6 5.9-8.9 2.1-1.6.1-5.1-2.1-3.5-5.5 4.1-7.3 11.5-12.1 16.5-1.3 1.4 0 4.2 2 3.4 2.9-1.2 5.9-2.4 8.7-3.6-.5-1.2-1-2.4-1.6-3.8-10.4 7-21 13.6-31.9 19.9-2.1 1.5-.1 5 2.2 3.7z"/><path fill="none" stroke="#EAEAEA" stroke-width="1.819" stroke-miterlimit="10" stroke-dasharray="3.638" d="M6.3 228.1h192v192H6.3z"/><circle fill="none" stroke="#F7E7BF" stroke-width="3.638" stroke-miterlimit="10" stroke-dasharray="9.094" cx="102.3" cy="324.1" r="96"/><path fill="none" stroke="#EAEAEA" stroke-width="1.819" stroke-miterlimit="10" stroke-dasharray="3.638" d="M198.7 10.9h192v192h-192v-192"/><circle fill="none" stroke="#FCC515" stroke-width="3.638" stroke-miterlimit="10" stroke-dasharray="9.094" cx="294.7" cy="106.9" r="96"/><g fill="#F7E7BF"><path d="M73.2 315.4c0-.6-.4-1-1.1-1-1.4 0-2.8.7-3.9 2-.7.8-1.2 1.6-1.5 2.5-.1.4-.2.8-.2 1.2s0 .6.1.8c.1.2.2.4.3.5.3.3.6.4.9.3.4-.2.7-.2 1-.2s.5 0 .7.1c.2.1.3.2.4.3.2.2.3.4.3.6 0 .4-.1.6-.4.6-.4 0-.8.1-1.2.3-.4.2-.9.4-1.3.7-.4.3-.8.6-1.2 1-.8.8-1.2 1.7-1.2 2.5 0 .4.1.7.3.9.3.4.7.5 1.1.5s.9-.1 1.3-.3.8-.4 1.1-.6c.5-.4 1-.8 1.5-1.4.2-.3.5-.4.6-.4.2 0 .3.1.4.3.1.2.1.4.1.7 0 .5-.1.9-.3 1.1-.2.2-.4.5-.7.7s-.6.5-1 .7c-.9.5-2 .7-3 .7-1.8 0-3.1-.6-3.7-1.8-.2-.4-.4-.9-.4-1.4 0-.5.1-.9.2-1.3s.3-.8.5-1.1c.2-.3.5-.7.7-.9.3-.3.5-.5.8-.7.5-.4 1-.6 1.3-.7-.9-.3-1.4-1-1.7-2-.1-.3-.1-.7-.1-1.2s.1-1 .3-1.5c.2-.5.4-1.1.7-1.6.3-.5.7-1 1.1-1.4.4-.4.9-.8 1.4-1.1 1.1-.7 2.3-1 3.6-1 1.3 0 2.3.3 3 1 .5.5.8 1.2.8 2 0 .9-.4 1.9-1.2 2.8-.5.6-.9 1-1.3 1.2s-.7.3-.9.3-.4 0-.6-.1c-.2-.1-.3-.2-.5-.3-.3-.3-.5-.5-.5-.8 0-.3.1-.5.3-.6l1-.7c1.5-.7 2.1-1.5 2.1-2.2zM74.6 330.1c-.2-.2-.3-.4-.5-.8-.1-.3-.2-.7-.2-1.1 0-.4.1-.9.3-1.6s.4-1.5.7-2.3l1-2.8c1.4-3.9 2.1-7 2.3-9.1.1-.6.4-1 .9-1 .3 0 .6.1.9.2.4.3.6.7.6 1.1 0 .4-.1.9-.2 1.5s-.3 1.2-.5 1.9-.4 1.4-.7 2.2l-1.6 4.6c-.9 2.6-1.3 4.3-1.3 5.1 0 .4.2.6.5.6s.6-.1.9-.2c.3-.1.4-.2.5-.2.2 0 .2.1.2.2 0 .7-.3 1.2-1 1.7-.5.3-.9.5-1.3.5s-.7 0-.9-.1c-.2-.1-.4-.2-.6-.4zM80.7 326.5c0-.7.1-1.3.3-1.9.2-.6.4-1.2.8-1.7.3-.6.7-1.1 1.1-1.6.4-.5.9-.9 1.4-1.3 1.1-.8 2.2-1.2 3.3-1.2 1.3 0 2.2.5 2.6 1.6.2.4.2.8.2 1.3s-.1 1-.3 1.4c-.2.4-.4.8-.8 1.1-.3.3-.7.7-1.1.9-.4.3-.9.5-1.4.7-1.1.4-2.2.6-3.4.6 0 .1 0 .3-.1.5 0 .2 0 .4.1.7.1.3.1.5.3.7.3.5.7.7 1.2.7.9 0 1.7-.3 2.6-.8.3-.2.5-.4.7-.5.2-.2.3-.3.5-.3.1 0 .3.1.4.2.1.2.2.3.2.5 0 .4-.1.7-.3 1-1 1-2.4 1.4-4.2 1.4-1.1 0-2-.3-2.7-1-1.1-.6-1.5-1.7-1.4-3zm6.6-6.2c-.8 0-1.6.5-2.3 1.6-.6.9-1.1 2-1.5 3.3 1.3-.1 2.4-.6 3.3-1.5.9-.8 1.3-1.6 1.3-2.3s-.3-1.1-.8-1.1zM100 320.9c-.4 0-1.2.6-2.4 1.9-.9 1-1.5 1.7-1.9 2.2l-1 1.3c-.4.8-.8 1.5-1 2.1l-.6 1.3c-.2.3-.3.6-.4.7-.1.1-.3.2-.5.2s-.4 0-.6-.1c-.2-.1-.3-.2-.5-.3-.3-.2-.4-.5-.4-.8 0-.1.1-.3.2-.7l.4-.9c.1-.3.3-.6.5-1l.6-1.6c.9-2.2 1.3-3.7 1.3-4.3 0-.3-.1-.6-.3-.8l-.2-.2c-.1-.1-.1-.1-.1-.3s.1-.3.2-.4c.1-.1.2-.2.4-.3.3-.2.7-.3 1-.3s.6 0 .8.1.4.2.5.3c.3.3.4.5.4.8s0 .6-.1.9l-.3.9c-.1.3-.2.6-.4.9-.3.7-.5 1-.6 1.2l-.1.2c1.4-1.8 2.2-2.8 2.5-3.2.6-.7 1-1.1 1.4-1.4.6-.4 1.2-.7 1.7-.7s1 .2 1.3.5c.3.3.5.8.5 1.3s-.1 1-.4 1.7c-.2.6-.4 1.1-.5 1.3l1.7-2.2.9-1.1c.6-.6 1-1 1.5-1.2.4-.2.8-.3 1-.3s.5 0 .8.1c.3.1.5.2.7.4.4.4.6.9.6 1.5s-.1 1.2-.4 1.8-.5 1.1-.7 1.5l-.6 1.2c-.6 1.2-.8 2.1-.8 2.7 0 .4.2.6.5.6s.6-.1.9-.2c.3-.1.4-.2.5-.2.2 0 .2.1.2.2 0 .7-.3 1.2-1 1.7-.5.3-.9.5-1.3.5s-.7 0-.9-.1c-.2-.1-.4-.2-.6-.4-.4-.4-.6-1-.6-1.6s.1-1.3.2-1.8c.2-.6.4-1.1.6-1.6.2-.5.5-1 .7-1.4l.5-1c.2-.5.4-.9.4-1.2 0-.3-.2-.4-.5-.4-.4 0-1.1.7-2.2 2-.8 1-1.4 1.8-1.7 2.3l-.8 1.1c-.4.8-.8 1.5-1 2.1l-.6 1.3c-.1.3-.3.6-.4.7s-.3.2-.4.2-.4 0-.5-.1c-.2-.1-.3-.1-.5-.2-.3-.2-.4-.5-.4-.7 0-.2.1-.6.2-1 .2-.4.4-.9.6-1.4l1.6-3.4c.6-1.2.8-2 .8-2.4.1-.3-.1-.5-.4-.5zm1.2 3.2zM110.5 326.5c0-.7.1-1.3.3-1.9.2-.6.4-1.2.8-1.7.3-.6.7-1.1 1.1-1.6.4-.5.9-.9 1.4-1.3 1.1-.8 2.2-1.2 3.3-1.2 1.3 0 2.2.5 2.6 1.6.2.4.2.8.2 1.3s-.1 1-.3 1.4c-.2.4-.4.8-.8 1.1-.3.3-.7.7-1.1.9-.4.3-.9.5-1.4.7-1.1.4-2.2.6-3.4.6 0 .1 0 .3-.1.5 0 .2 0 .4.1.7.1.3.1.5.3.7.3.5.7.7 1.2.7.9 0 1.7-.3 2.6-.8.3-.2.5-.4.7-.5.2-.2.3-.3.5-.3.1 0 .3.1.4.2.1.2.2.3.2.5 0 .4-.1.7-.3 1-1 1-2.4 1.4-4.2 1.4-1.1 0-2-.3-2.7-1-1.1-.6-1.4-1.7-1.4-3zm6.6-6.2c-.8 0-1.6.5-2.3 1.6-.6.9-1.1 2-1.5 3.3 1.3-.1 2.4-.6 3.3-1.5.9-.8 1.3-1.6 1.3-2.3s-.3-1.1-.8-1.1zM129.5 320.9c-.2 0-.6.2-1 .7-.4.5-.8.9-1.1 1.2l-1 1.2-1.9 2.4c-.4.8-.8 1.5-1 2.1l-.6 1.3c-.2.3-.3.6-.4.7-.1.1-.3.2-.5.2s-.4 0-.6-.1c-.2-.1-.3-.2-.5-.3-.3-.2-.4-.5-.4-.8 0-.1.1-.3.2-.7l.4-.9c.1-.3.3-.6.5-1l.6-1.6c.9-2.2 1.3-3.7 1.3-4.3 0-.3-.1-.6-.3-.8l-.2-.2c-.1-.1-.1-.1-.1-.3s.1-.3.2-.4c.1-.1.2-.2.4-.3.3-.2.7-.3 1-.3s.6 0 .8.1c.2.1.3.2.5.3.3.3.4.5.4.8s0 .6-.1.9l-.3.9-.3.9c-.1.3-.2.5-.3.7l-.2.5c-.1.1-.1.2 0 .1.8-1.2 1.4-1.9 1.7-2.2l.8-1c.6-.7 1-1.1 1.4-1.3.7-.5 1.2-.7 1.6-.7s.7 0 1 .1c.3.1.5.2.7.4.4.4.6.9.6 1.5s-.1 1.2-.4 1.9-.5 1.2-.7 1.6l-.6 1.2c-.6 1.3-.8 2.2-.8 2.8 0 .3.2.4.6.4.3 0 .6-.1.9-.2s.4-.2.5-.2c.2 0 .2.1.2.2 0 .7-.3 1.2-1 1.7-.5.3-.9.5-1.3.5s-.7 0-1-.1c-.3-.1-.5-.2-.7-.4-.4-.4-.7-1-.7-1.7 0-.9.3-2 .8-3.3.4-.9.7-1.5.8-1.8l.4-.8c.2-.5.4-.9.4-1.1-.1-.3-.3-.5-.7-.5zM140.9 327.5c.2 0 .3.1.3.4 0 .2-.1.5-.2.7-.2.4-.6.9-1.2 1.2-.7.4-1.4.7-2.1.7-1.2 0-2-.5-2.3-1.6-.4-1.3.2-4 1.7-8.2-.9-.1-1.3-.2-1.4-.5v-.2c0-.1 0-.2.1-.3l.3-.3c.3-.2.5-.3.8-.3h.9c.8-1.9 1.4-3 1.7-3.3.2-.1.4-.2.6-.2.2 0 .4 0 .5.1.1.1.3.1.4.2.2.2.4.5.4.8 0 .2 0 .3-.1.5l-.8 1.8h2.5c.2 0 .3.1.3.2 0 1-1.2 1.5-3.5 1.5h-.1l-.8 2c-.9 2.4-1.3 4-1.3 5 0 .3.1.5.2.6.1.1.3.2.7.2.3 0 .6-.1.9-.2.3-.1.5-.2.7-.4.2-.1.4-.3.5-.4.1.1.2 0 .3 0z"/></g><g fill="#19A8F7"><path d="M327.1 123.9l-13.5 13.5c3.6 3.6 9.6 3.5 13.3-.2 3.7-3.8 3.8-9.7.2-13.3zM313.7 124.1c-3.7 3.7-3.8 9.7-.2 13.3l13.5-13.5c-3.6-3.7-9.5-3.6-13.3.2z"/></g><path d="M366 169.5l-44.7-41V189l13.5-13 7.9 18.2 12.6-5.6-7.9-18.2 18.6-.9z"/><path fill="#FFF" d="M350.2 186.7l-5.6 2.3-8.4-19.5-10.7 10.2v-42.4l31.2 28.9-15.4.9z"/><path fill="none" stroke="#36CC89" stroke-width="1.819" stroke-miterlimit="10" stroke-dasharray="3.638" d="M5.5 9.1h192.4v218.3"/><ellipse fill="#36CC89" cx="197.9" cy="9.1" rx="5.5" ry="5.7"/><path fill="none" stroke="#C8EDDB" stroke-width="1.819" stroke-miterlimit="10" stroke-dasharray="3.638" d="M185.9 228.3H5.5V9.1"/><path fill="#FFF" d="M74.9 1.9h41.4v14.4H74.9zM187.3 101.3h19.2V143h-19.2z"/><g fill="#36CC89"><path d="M86.7 14h-1.3V1.6h1.3V14zM93.2 14.2c-1.3 0-2.3-.4-3.1-1.2-.7-.8-1.1-1.9-1.1-3.3s.3-2.5 1-3.4c.7-.8 1.6-1.2 2.8-1.2 1.1 0 2 .4 2.6 1.1.6.7 1 1.7 1 2.9v.8h-6c0 1 .3 1.8.8 2.3.5.5 1.2.8 2.1.8.9 0 1.9-.2 2.8-.6v1.2c-.5.2-.9.3-1.3.4-.5.1-1 .2-1.6.2zm-.4-8c-.7 0-1.3.2-1.7.7-.4.5-.7 1.1-.7 1.9H95c0-.8-.2-1.5-.6-1.9-.3-.5-.9-.7-1.6-.7zM102.6 6.3h-2.2V14h-1.3V6.3h-1.6v-.6l1.6-.5v-.5c0-2.2.9-3.2 2.8-3.2.5 0 1 .1 1.6.3l-.3 1.1c-.5-.2-.9-.2-1.3-.2-.5 0-.9.2-1.1.5s-.4.9-.4 1.6v.6h2.2v.9zM107.1 13.1c.2 0 .5 0 .7-.1.2 0 .4-.1.5-.1v1c-.1.1-.4.1-.6.2s-.5.1-.8.1c-1.7 0-2.5-.9-2.5-2.7V6.3h-1.3v-.6l1.3-.6.6-1.9h.8v2h2.5v1h-2.5v5.2c0 .5.1.9.4 1.2.1.4.4.5.9.5z"/></g><g fill="#36CC89"><path d="M199.4 128.7c0-.2 0-.5-.1-.7 0-.2-.1-.4-.1-.5h1c.1.1.1.4.2.6 0 .3.1.5.1.8 0 1.7-.9 2.5-2.7 2.5h-5.2v1.3h-.6l-.6-1.3-1.9-.6v-.8h2v-2.5h1v2.5h5.2c.5 0 .9-.1 1.2-.4.4-.1.5-.4.5-.9zM196 118.2c1.4 0 2.5.4 3.3 1.1.8.7 1.2 1.7 1.2 3 0 .8-.2 1.5-.6 2.1-.4.6-.9 1.1-1.6 1.4-.7.3-1.5.5-2.4.5-1.4 0-2.5-.4-3.3-1.1-.8-.7-1.2-1.7-1.2-3 0-1.2.4-2.2 1.2-2.9s2-1.1 3.4-1.1zm0 6.7c1.1 0 2-.2 2.6-.7.6-.4.9-1.1.9-2s-.3-1.5-.9-2c-.6-.5-1.4-.7-2.6-.7-1.1 0-2 .2-2.5.7s-.9 1.1-.9 2c0 .9.3 1.5.9 2s1.3.7 2.5.7zM200.5 111.8c0 .6-.1 1.1-.3 1.6-.2.5-.5.9-1 1.2v.1c.5-.1 1-.1 1.5-.1h3.6v1.3h-12.7v-1.1l1.2-.2v-.1c-.5-.3-.8-.7-1-1.2-.2-.5-.3-1-.3-1.6 0-1.2.4-2.1 1.2-2.7.8-.6 1.9-.9 3.3-.9s2.6.3 3.4 1c.7.7 1.1 1.6 1.1 2.7zm-7.9.2c0 .9.2 1.5.7 1.9.5.4 1.3.6 2.4.6h.3c1.2 0 2.1-.2 2.6-.6s.8-1.1.8-2c0-.8-.3-1.3-.9-1.8-.6-.4-1.5-.6-2.5-.6-1.1 0-1.9.2-2.5.6-.6.5-.9 1.1-.9 1.9z"/></g><ellipse fill="#C8EDDB" cx="5.5" cy="229.2" rx="5.5" ry="5.7"/></svg>