<svg xmlns="http://www.w3.org/2000/svg" width="456.7" height="394.1"><path fill="none" stroke="#19A8F7" stroke-width="1.819" stroke-miterlimit="10" stroke-dasharray="7.275" d="M377.1 119.4H.9M377.1 28.7v49.8"/><path fill="none" stroke="#C6C6C6" stroke-width="1.819" stroke-miterlimit="10" d="M.9 28.7h454.9v364.4H.9z"/><path fill="none" stroke="#EAEAEA" stroke-width="1.819" stroke-miterlimit="10" stroke-dasharray="3.638" d="M51.2 160h192v192h-192z"/><circle fill="#F96816" cx="166.8" cy="279.5" r="7.2"/><circle fill="#19A8F7" cx="374.7" cy="117" r="7.2"/><circle fill="none" stroke="#FCC515" stroke-width="3.638" stroke-miterlimit="10" stroke-dasharray="9.094" cx="147.2" cy="256.1" r="96"/><path fill="none" stroke="#F96816" stroke-width="1.819" stroke-miterlimit="10" stroke-dasharray="3.638" d="M149.1 278.5H51.2M243.2 278.5h-54.3M166.8 244.6V160"/><path fill="none" stroke="#F96816" stroke-width="1.942" stroke-miterlimit="10" stroke-dasharray="3.884" d="M166.8 350.1v-58.2"/><path fill="#FFF" d="M84 263.4h37.5v28.4H84z"/><g fill="#C6C6C6"><path d="M9.4 17.8c-1 .9-1.8 1.4-2.4 1.4-.6 0-1-.3-1.2-.9-.1-.2-.1-.4-.1-.6 0-.5.1-1 .2-1.4.1-.5.2-.9.4-1.3l1-2.6c.4-1 .6-1.8.7-2.2.1-.4.1-.7 0-.8L7.6 9c-.1-.1-.3-.3-.4-.3S7 8.5 7 8.3c0-.1.1-.2.2-.3.1-.1.3-.2.4-.3.4-.2.7-.3 1.1-.3s.7 0 .9.1c.2.1.4.2.5.3.3.2.4.5.4.9s-.1.7-.2 1.2-.3.9-.4 1.4l-.6 1.5-.6 1.6c-.5 1.3-.8 2.2-.9 2.8.7-.2 1.6-1.1 2.8-2.6C12 13 13.1 11.1 14.1 9c.1-.3.3-.4.4-.5.3-.1.6-.2 1-.2.7 0 1 .2 1 .6 0 .2 0 .5-.2.8s-.3.5-.3.7l-.4.9c-.9 1.8-1.3 3.2-1.3 4.4 0 .8.2 1.3.6 1.6.1.1.3.1.6.1.2 0 .5-.1.9-.3.3-.2.7-.4 1-.7.3-.3.6-.7.9-1.1s.5-.9.7-1.3c.4-1 .6-1.9.6-2.6 0-1.3-.2-2.3-.7-2.9-.2-.2-.1-.4.1-.7.3-.3.7-.4 1.3-.4.7 0 1.2.4 1.5 1.2.1.3.2.8.2 1.4s-.1 1.3-.3 2.1c-.2.8-.5 1.5-.9 2.2-.4.7-.8 1.4-1.3 2-.5.6-1 1.1-1.5 1.6-1.1 1-2.2 1.4-3.2 1.4-1.7 0-2.5-1.1-2.5-3.3 0-.5 0-1 .1-1.5-1 1.3-2 2.4-3 3.3zM26.8 17c.2 0 .3.1.3.4 0 .3-.2.7-.5 1.1-.5.5-1.1.8-1.8.8-.9 0-1.5-.4-1.8-1.1-.1-.2-.2-.6-.2-.9s.1-.7.2-1.2c.1-.4.3-.9.5-1.4l.6-1.5.6-1.4c.4-1.1.7-1.8.7-2.1s0-.6-.1-.7c-.1-.1-.1-.2-.2-.3l-.2-.2c-.1-.1-.1-.1-.1-.3 0-.1.1-.3.2-.4s.2-.2.4-.3c.3-.2.7-.3 1.2-.3 1.1 0 1.7.3 1.7.9 0 .7-.2 1.5-.5 2.3-.4.9-.7 1.6-.9 2.1l-.9 1.8c-.5 1.1-.7 2-.7 2.5 0 .3.2.5.5.5s.6 0 .7-.1.3-.2.3-.2zm2.4-12.3c-.2.2-.4.3-.6.4-.2.1-.4.2-.7.2-.2 0-.5 0-.7-.1-.2-.1-.3-.2-.5-.4-.3-.4-.5-.8-.5-1.1s.1-.7.2-.9c.1-.2.3-.3.5-.5.4-.2.7-.4 1-.4s.6 0 .7.1c.2 0 .3.1.5.2.4.2.6.6.6.9 0 .4-.1.7-.2.9s-.2.5-.3.7zM37.8 9.5c-.2 0-.6.2-1 .7-.4.4-.8.9-1.1 1.2l-1 1.2-1.9 2.4c-.4.8-.8 1.5-1 2.1l-.6 1.3c-.2.3-.3.6-.4.7-.1.1-.3.2-.5.2s-.4 0-.6-.1c-.2-.1-.3-.2-.5-.3-.3-.2-.4-.5-.4-.8 0-.1.1-.3.2-.7l.4-.9c.1-.3.3-.6.5-1l.6-1.6c.9-2.2 1.3-3.7 1.3-4.3 0-.3-.1-.6-.3-.8l-.2-.2c-.1-.1-.1-.1-.1-.3 0-.1.1-.3.2-.4s.2-.2.4-.3c.3-.2.7-.3 1-.3s.6 0 .8.1c.2.1.3.2.5.3.3.3.4.5.4.8s0 .6-.1.9l-.3.9c-.1.3-.1.7-.2.9-.1.3-.2.5-.3.7l-.2.5c-.1.1-.1.2 0 .1.8-1.2 1.4-1.9 1.7-2.2l.8-1c.6-.7 1-1.1 1.4-1.3.7-.5 1.2-.7 1.6-.7s.7 0 1 .1c.3.1.5.2.7.4.2.5.4 1 .4 1.6s-.1 1.2-.4 1.9-.5 1.2-.7 1.6l-.6 1.2c-.6 1.3-.8 2.2-.8 2.8 0 .3.2.4.6.4.3 0 .6-.1.9-.2.3-.1.4-.2.5-.2.2 0 .2.1.2.2 0 .7-.3 1.2-1 1.7-.5.3-.9.5-1.3.5s-.7 0-1-.1c-.3-.1-.5-.2-.7-.4-.4-.4-.7-1-.7-1.7 0-.9.3-2 .8-3.3.4-.9.7-1.5.8-1.8l.4-.8c.2-.5.4-.9.4-1.1s-.1-.6-.6-.6zM54 16.8c.2 0 .2.1.2.2 0 .6-.3 1.2-1 1.7-.4.3-.9.5-1.3.5s-.7 0-.9-.1c-.2-.1-.4-.2-.6-.4-.4-.5-.6-1.1-.6-1.9 0-.2 0-.4.1-.8-.6.9-1.1 1.6-1.6 2-.9.8-1.7 1.2-2.6 1.2-1.3 0-2.2-.6-2.6-1.8-.2-.4-.2-1-.2-1.7s.1-1.4.3-2c.2-.7.5-1.3.8-2 .4-.6.8-1.2 1.2-1.7.5-.5 1-1 1.5-1.4 1.1-.8 2.1-1.2 3-1.2s1.6.4 2.1 1.1c1.3-4.5 2.3-7.2 3-8 .2-.3.5-.5.8-.5.5 0 .9.1 1.2.4.1.1.1.2.1.3s0 .3-.2.6-.3.7-.5 1.3c-.7 1.8-1.1 3.1-1.4 3.9-.7 2.1-1.2 3.6-1.4 4.4l-.6 2.1c-.6 1.8-.8 3-.8 3.5s.2.8.6.8c.3 0 .6 0 .8-.1l.4-.2c.1-.2.1-.2.2-.2zm-7.8.7c.8 0 1.7-.8 2.7-2.3 1-1.6 1.8-3.3 2.2-5.1 0-.5-.2-.9-.6-1.1-.1-.1-.3-.1-.6-.1s-.6.1-1 .3c-.4.2-.7.5-1.1.8s-.7.7-1 1.2-.6.9-.8 1.5c-.5 1.1-.7 2.2-.7 3.3s.3 1.5.9 1.5zM56.7 18.3c-.3-.3-.6-.7-.7-1.1-.2-.5-.3-1-.3-1.6 0-.6.1-1.3.2-1.9.2-.6.4-1.3.7-1.9.3-.6.7-1.2 1.1-1.7.4-.5.9-1 1.4-1.4 1.1-.8 2.2-1.3 3.4-1.3 1.6 0 2.6.7 3.2 2.1.4 1 .4 2.2.1 3.6-.3 1.3-.9 2.5-1.7 3.6-.8 1.1-1.8 1.8-3 2.3-.6.2-1.1.3-1.7.3s-1-.1-1.5-.2c-.5-.2-.9-.5-1.2-.8zm2.1-5.5c-.2.6-.4 1.1-.5 1.7-.1.6-.2 1.1-.2 1.7 0 .5.1.9.2 1.2s.4.4.8.4.7-.1 1-.4c.3-.2.7-.6 1-.9.3-.4.6-.8.9-1.4s.5-1 .7-1.6c.5-1.2.7-2.3.7-3.2 0-.8-.2-1.4-.5-1.6-.1-.1-.3-.1-.6-.1-.2 0-.5.1-.8.3-.3.2-.6.5-1 .9-.3.4-.6.8-.9 1.3s-.5 1.2-.8 1.7zM71.3 17.8c-1 .9-1.8 1.4-2.4 1.4-.6 0-1-.3-1.2-.9-.1-.2-.1-.4-.1-.6 0-.5.1-1 .2-1.4.2-.5.3-.9.5-1.3l1-2.6c.4-1 .6-1.8.7-2.2.1-.4.1-.7 0-.8-.1-.1-.2-.3-.4-.4s-.3-.2-.4-.3-.2-.2-.2-.3c0-.1.1-.3.2-.4.1-.1.3-.2.4-.3.4-.2.7-.3 1.1-.3s.7 0 .9.1c.2.1.4.2.5.3.3.2.4.5.4.9s-.1.7-.2 1.2-.3.9-.4 1.4l-.6 1.5-.6 1.6c-.5 1.3-.8 2.2-.9 2.8.7-.2 1.6-1.1 2.8-2.6C73.9 13 75 11.1 76 9c.1-.3.3-.4.4-.5.3-.1.6-.2 1-.2.7 0 1 .2 1 .6 0 .2 0 .5-.2.8s-.3.5-.3.7l-.4.9c-.9 1.8-1.3 3.2-1.3 4.4 0 .8.2 1.3.6 1.6.1.1.3.1.6.1.2 0 .5-.1.9-.3s.7-.4 1-.7c.3-.3.6-.7.9-1.1s.5-.9.7-1.3c.4-1 .6-1.9.6-2.6 0-1.3-.2-2.3-.7-2.9-.2-.2-.1-.4.1-.7.3-.3.7-.4 1.3-.4.7 0 1.2.4 1.5 1.2.1.3.2.8.2 1.4s-.1 1.3-.3 2.1c-.2.8-.5 1.5-.9 2.2-.4.7-.8 1.4-1.3 2-.5.6-1 1.1-1.5 1.6-1.1 1-2.2 1.4-3.2 1.4-1.7 0-2.5-1.1-2.5-3.3 0-.5 0-1 .1-1.5-1 1.3-2 2.4-3 3.3z"/></g><path fill="#FFF" d="M184.8 263.4H223v28.4h-38.2z"/><g fill="#F96816"><path d="M190.7 275.1c.4 0 .7 0 1 .1l-.2 1.2c-.4-.1-.7-.1-1-.1-.7 0-1.3.3-1.8.9-.5.6-.8 1.3-.8 2.2v4.7h-1.3v-8.8h1.1l.2 1.6h.1c.3-.6.7-1 1.2-1.3.4-.4 1-.5 1.5-.5zM193.3 272.9c0-.3.1-.5.2-.7.1-.1.3-.2.6-.2.2 0 .4.1.6.2.2.1.2.4.2.7 0 .3-.1.5-.2.7-.2.1-.3.2-.6.2-.2 0-.4-.1-.6-.2s-.2-.4-.2-.7zm1.4 11.1h-1.3v-8.8h1.3v8.8zM204.7 275.2v.8l-1.6.2c.1.2.3.4.4.7s.2.6.2 1c0 .9-.3 1.5-.9 2.1-.6.5-1.4.8-2.4.8-.3 0-.5 0-.7-.1-.6.3-.8.7-.8 1.1 0 .2.1.4.3.5.2.1.5.2 1 .2h1.5c.9 0 1.7.2 2.2.6s.8 1 .8 1.7c0 1-.4 1.7-1.2 2.2-.8.5-1.9.8-3.4.8-1.1 0-2-.2-2.6-.6-.6-.4-.9-1-.9-1.8 0-.5.2-1 .5-1.4.3-.4.8-.7 1.4-.8-.2-.1-.4-.3-.6-.5-.2-.2-.2-.5-.2-.7 0-.3.1-.6.3-.8.2-.2.4-.5.8-.7-.5-.2-.8-.5-1.1-1s-.4-1-.4-1.5c0-1 .3-1.7.9-2.2s1.4-.8 2.4-.8c.5 0 .9.1 1.2.2h2.9zm-7 10.3c0 .5.2.8.6 1.1.4.2 1 .4 1.7.4 1.1 0 1.9-.2 2.5-.5.5-.3.8-.8.8-1.4 0-.5-.1-.8-.4-1s-.8-.3-1.7-.3h-1.6c-.6 0-1.1.1-1.4.4-.3.3-.5.7-.5 1.3zm.7-7.5c0 .6.2 1.1.5 1.4.3.3.8.5 1.4.5 1.3 0 1.9-.6 1.9-1.9 0-1.3-.7-2-2-2-.6 0-1.1.2-1.4.5-.2.4-.4.9-.4 1.5zM212.5 284v-5.7c0-.7-.2-1.2-.5-1.6-.3-.4-.8-.5-1.5-.5-.9 0-1.6.3-2 .8s-.6 1.3-.6 2.5v4.6h-1.3v-12.4h1.3v3.8c0 .5 0 .8-.1 1.1h.1c.3-.4.6-.8 1.1-1s1-.4 1.7-.4c1.1 0 1.9.3 2.4.8s.8 1.3.8 2.4v5.7h-1.4zM219.4 283.1c.2 0 .5 0 .7-.1.2 0 .4-.1.5-.1v1c-.1.1-.4.1-.6.2-.3 0-.5.1-.8.1-1.7 0-2.5-.9-2.5-2.7v-5.2h-1.3v-.6l1.3-.6.6-1.9h.8v2h2.5v1H218v5.2c0 .5.1.9.4 1.2.2.3.5.5 1 .5z"/></g><g fill="#F96816"><path d="M95.9 284h-1.3v-12.4h1.3V284zM102.4 284.1c-1.3 0-2.3-.4-3.1-1.2-.7-.8-1.1-1.9-1.1-3.3s.3-2.5 1-3.4c.7-.8 1.6-1.2 2.8-1.2 1.1 0 2 .4 2.6 1.1.6.7 1 1.7 1 2.9v.8h-6c0 1 .3 1.8.8 2.3.5.5 1.2.8 2.1.8.9 0 1.9-.2 2.8-.6v1.2c-.5.2-.9.3-1.3.4-.5.2-1 .2-1.6.2zm-.4-7.9c-.7 0-1.3.2-1.7.7-.4.5-.7 1.1-.7 1.9h4.6c0-.8-.2-1.5-.6-1.9-.4-.5-.9-.7-1.6-.7zM111.8 276.3h-2.2v7.7h-1.3v-7.7h-1.6v-.6l1.6-.5v-.5c0-2.2.9-3.2 2.8-3.2.5 0 1 .1 1.6.3l-.3 1.1c-.5-.2-.9-.2-1.3-.2-.5 0-.9.2-1.1.5s-.4.9-.4 1.6v.6h2.2v.9zM116.2 283.1c.2 0 .5 0 .7-.1.2 0 .4-.1.5-.1v1c-.1.1-.4.1-.6.2-.3 0-.5.1-.8.1-1.7 0-2.5-.9-2.5-2.7v-5.2h-1.3v-.6l1.3-.6.6-1.9h.8v2h2.5v1h-2.5v5.2c0 .5.1.9.4 1.2.1.3.5.5.9.5z"/></g><path fill="#FFF" d="M172.4 103.1h51.1v28.4h-51.1z"/><g fill="#19A8F7"><path d="M188.2 123.6h-1.3v-12.4h1.3v12.4zM194.7 123.8c-1.3 0-2.3-.4-3.1-1.2s-1.1-1.9-1.1-3.3.3-2.5 1-3.4c.7-.8 1.6-1.2 2.8-1.2 1.1 0 2 .4 2.6 1.1.6.7 1 1.7 1 2.9v.8h-6c0 1 .3 1.8.8 2.3s1.2.8 2.1.8c.9 0 1.9-.2 2.8-.6v1.2c-.5.2-.9.3-1.3.4-.5.1-1 .2-1.6.2zm-.4-8c-.7 0-1.3.2-1.7.7-.4.5-.7 1.1-.7 1.9h4.6c0-.8-.2-1.5-.6-1.9-.3-.5-.9-.7-1.6-.7zM204.1 115.9h-2.2v7.7h-1.3v-7.7H199v-.6l1.6-.5v-.5c0-2.2.9-3.2 2.8-3.2.5 0 1 .1 1.6.3l-.3 1.1c-.5-.2-.9-.2-1.3-.2-.5 0-.9.2-1.1.5-.2.3-.4.9-.4 1.6v.6h2.2v.9zM208.6 122.7c.2 0 .5 0 .7-.1.2 0 .4-.1.5-.1v1c-.1.1-.4.1-.6.2-.3 0-.5.1-.8.1-1.7 0-2.5-.9-2.5-2.7v-5.2h-1.3v-.6l1.3-.6.6-1.9h.8v2h2.5v1h-2.5v5.2c0 .5.1.9.4 1.2.1.3.4.5.9.5z"/></g><path fill="#FFF" d="M365.3 36.5h24.5v37.1h-24.5z"/><g fill="#19A8F7"><path d="M374.1 46.6c0 .2 0 .5.1.7 0 .2.1.4.1.5h-1c-.1-.1-.1-.4-.2-.6s-.1-.5-.1-.8c0-1.7.9-2.5 2.7-2.5h5.2v-1.3h.6l.6 1.3 1.9.6v.8h-2v2.5h-1v-2.5h-5.2c-.5 0-.9.1-1.2.4-.4.1-.5.4-.5.9zM377.5 57.1c-1.4 0-2.5-.4-3.3-1.1s-1.2-1.7-1.2-3c0-.8.2-1.5.6-2.1.4-.6.9-1.1 1.6-1.4.7-.3 1.5-.5 2.4-.5 1.4 0 2.5.4 3.3 1.1.8.7 1.2 1.7 1.2 3 0 1.2-.4 2.2-1.2 2.9s-2 1.1-3.4 1.1zm0-6.7c-1.1 0-2 .2-2.6.7s-.9 1.1-.9 2 .3 1.5.9 2c.6.5 1.4.7 2.6.7 1.1 0 2-.2 2.5-.7s.9-1.1.9-2c0-.9-.3-1.5-.9-2-.5-.5-1.4-.7-2.5-.7zM373 63.5c0-.6.1-1.1.3-1.6.2-.5.5-.9 1-1.2v-.1c-.5.1-1 .1-1.5.1h-3.6v-1.3h12.7v1.1l-1.2.2v.1c.5.3.8.7 1 1.2.2.5.3 1 .3 1.6 0 1.2-.4 2.1-1.2 2.7s-1.9.9-3.3.9-2.6-.3-3.4-1c-.7-.7-1.1-1.6-1.1-2.7zm7.9-.2c0-.9-.2-1.5-.7-1.9-.5-.4-1.3-.6-2.4-.6h-.3c-1.2 0-2.1.2-2.6.6-.5.4-.8 1.1-.8 2 0 .8.3 1.3.9 1.8.6.4 1.5.6 2.5.6 1.1 0 1.9-.2 2.5-.6.6-.5.9-1.1.9-1.9z"/></g><path fill="#FFF" d="M152.6 203H181v35.6h-28.4z"/><g fill="#F96816"><path d="M170.4 228.2c0-.2 0-.5-.1-.7 0-.2-.1-.4-.1-.5h1c.1.1.1.4.2.6 0 .3.1.5.1.8 0 1.7-.9 2.5-2.7 2.5h-5.2v1.3h-.6l-.6-1.3-1.9-.6v-.8h2V227h1v2.5h5.2c.5 0 .9-.1 1.2-.4.3-.1.5-.5.5-.9zM166.9 217.7c1.4 0 2.5.4 3.3 1.1.8.7 1.2 1.7 1.2 3 0 .8-.2 1.5-.6 2.1-.4.6-.9 1.1-1.6 1.4-.7.3-1.5.5-2.4.5-1.4 0-2.5-.4-3.3-1.1-.8-.7-1.2-1.7-1.2-3 0-1.2.4-2.2 1.2-2.9.9-.7 2-1.1 3.4-1.1zm0 6.7c1.1 0 2-.2 2.6-.7.6-.4.9-1.1.9-2 0-.9-.3-1.5-.9-2-.6-.5-1.4-.7-2.6-.7-1.1 0-2 .2-2.5.7s-.9 1.1-.9 2c0 .9.3 1.5.9 2 .5.4 1.4.7 2.5.7zM171.5 211.3c0 .6-.1 1.1-.3 1.6-.2.5-.5.9-1 1.2v.1c.5-.1 1-.1 1.5-.1h3.6v1.3h-12.7v-1.1l1.2-.2v-.1c-.5-.3-.8-.7-1-1.2-.2-.5-.3-1-.3-1.6 0-1.2.4-2.1 1.2-2.7.8-.6 1.9-.9 3.3-.9s2.6.3 3.4 1c.7.7 1.1 1.6 1.1 2.7zm-8 .2c0 .9.2 1.5.7 1.9.5.4 1.3.6 2.4.6h.3c1.2 0 2.1-.2 2.6-.6.5-.4.8-1.1.8-2 0-.8-.3-1.3-.9-1.8-.6-.4-1.5-.6-2.5-.6-1.1 0-1.9.2-2.5.6-.6.5-.9 1.1-.9 1.9z"/></g><g fill="#FCC515"><path d="M63 135.2c0-.6-.4-1-1.1-1-1.4 0-2.8.7-3.9 2-.7.8-1.2 1.6-1.5 2.5-.1.4-.2.8-.2 1.2s0 .6.1.8c.1.2.2.4.3.5.3.3.6.4.9.3.4-.2.7-.2 1-.2s.5 0 .7.1c.2.1.3.2.4.3.2.2.3.4.3.6 0 .4-.1.6-.4.6-.4 0-.8.1-1.2.3-.4.2-.9.4-1.3.7s-.8.6-1.2 1c-.8.8-1.2 1.7-1.2 2.5 0 .4.1.7.3.9.3.4.7.5 1.1.5s.9-.1 1.3-.3.8-.4 1.1-.6c.5-.4 1-.8 1.5-1.4.2-.3.5-.4.6-.4.2 0 .3.1.4.3.1.2.1.4.1.7 0 .5-.1.9-.3 1.1-.2.2-.4.5-.7.7-.3.2-.6.5-1 .7-.9.5-2 .7-3 .7-1.8 0-3.1-.6-3.7-1.8-.2-.4-.4-.9-.4-1.4 0-.5.1-.9.2-1.3s.3-.8.5-1.1c.2-.3.5-.7.7-.9.3-.3.5-.5.8-.7.5-.4 1-.6 1.3-.7-.9-.3-1.4-1-1.7-2-.1-.3-.1-.7-.1-1.2s.1-1 .3-1.5c.2-.5.4-1.1.7-1.6.3-.5.7-1 1.1-1.4.4-.4.9-.8 1.4-1.1 1.1-.7 2.3-1 3.6-1 1.3 0 2.3.3 3 1 .5.5.8 1.2.8 2 0 .9-.4 1.9-1.2 2.8-.5.6-.9 1-1.3 1.2s-.7.3-.9.3c-.2 0-.4 0-.6-.1-.2-.1-.3-.2-.5-.3-.3-.3-.5-.5-.5-.8 0-.3.1-.5.3-.6l1-.7c1.5-.7 2.1-1.5 2.1-2.2zM64.4 149.9c-.2-.2-.3-.4-.5-.8-.1-.3-.2-.7-.2-1.1 0-.4.1-.9.3-1.6.2-.7.4-1.5.7-2.3l1-2.8c1.4-3.9 2.1-7 2.3-9.1.1-.6.4-1 .9-1 .3 0 .6.1.9.3.4.3.6.7.6 1.1 0 .4-.1.9-.2 1.5s-.3 1.2-.5 1.9-.4 1.4-.7 2.2l-1.6 4.6c-.9 2.6-1.3 4.3-1.3 5.1 0 .4.2.6.5.6s.6-.1.9-.2c.3-.1.4-.2.5-.2.2 0 .2.1.2.2 0 .7-.3 1.2-1 1.7-.5.3-.9.5-1.3.5s-.7 0-.9-.1c-.2-.2-.4-.3-.6-.5zM70.4 146.3c0-.7.1-1.3.3-1.9s.4-1.2.8-1.7c.3-.6.7-1.1 1.1-1.6.4-.5.9-.9 1.4-1.3 1.1-.8 2.2-1.2 3.3-1.2 1.3 0 2.2.5 2.6 1.6.2.4.2.8.2 1.3s-.1 1-.3 1.4c-.2.4-.4.8-.8 1.1-.3.3-.7.7-1.1.9s-.9.5-1.4.7c-1.1.4-2.2.6-3.4.6 0 .1 0 .3-.1.5 0 .2 0 .4.1.7.1.3.1.5.3.7.3.5.7.7 1.2.7.9 0 1.7-.3 2.6-.8.3-.2.5-.4.7-.5.2-.2.3-.3.5-.3.1 0 .3.1.4.2.1.2.2.3.2.5 0 .4-.1.7-.3 1-1 1-2.4 1.4-4.2 1.4-1.1 0-2-.3-2.7-1-1-.6-1.4-1.7-1.4-3zm6.7-6.2c-.8 0-1.6.5-2.3 1.6-.6.9-1.1 2-1.5 3.3 1.3-.1 2.4-.6 3.3-1.5.9-.8 1.3-1.6 1.3-2.3-.1-.7-.3-1.1-.8-1.1zM89.8 140.7c-.4 0-1.2.6-2.4 1.9-.9 1-1.5 1.7-1.9 2.2l-1 1.3c-.4.8-.8 1.5-1 2.1l-.6 1.3c-.2.3-.3.6-.4.7-.1.1-.3.2-.5.2s-.4 0-.6-.1-.3-.2-.5-.3c-.3-.2-.4-.5-.4-.8 0-.1.1-.3.2-.7l.4-.9c.1-.3.3-.6.5-1l.6-1.6c.9-2.2 1.3-3.7 1.3-4.3 0-.3-.1-.6-.3-.8l-.2-.2c-.1-.1-.1-.1-.1-.3 0-.1.1-.3.2-.4.1-.1.2-.2.4-.3.3-.2.7-.3 1-.3s.6 0 .8.1.4.2.5.3c.3.3.4.5.4.8s0 .6-.1.9l-.3.9c-.1.3-.2.6-.4.9l-.6 1.2c-.1.1-.1.2-.1.2 1.4-1.8 2.2-2.8 2.5-3.2.6-.7 1-1.1 1.4-1.4.6-.4 1.2-.7 1.7-.7s1 .2 1.3.5c.3.3.5.8.5 1.3s-.1 1-.4 1.7-.4 1.1-.5 1.3l1.7-2.2.9-1.1c.6-.6 1-1 1.5-1.2s.8-.3 1-.3.5 0 .8.1c.3.1.5.2.7.4.4.4.6.9.6 1.5s-.1 1.2-.4 1.8-.5 1.1-.7 1.5l-.6 1.2c-.6 1.2-.8 2.1-.8 2.7 0 .4.2.6.5.6s.6-.1.9-.2c.3-.1.4-.2.5-.2.2 0 .2.1.2.2 0 .7-.3 1.2-1 1.7-.5.3-.9.5-1.3.5s-.7 0-.9-.1c-.2-.1-.4-.2-.6-.4-.4-.4-.6-1-.6-1.6s.1-1.3.2-1.8c.2-.6.4-1.1.6-1.6s.5-1 .7-1.4l.5-1c.2-.5.4-.9.4-1.2 0-.3-.2-.4-.5-.4-.4 0-1.1.7-2.2 2-.8 1-1.4 1.8-1.7 2.3l-.8 1.1c-.4.8-.8 1.5-1 2.1l-.6 1.3c-.1.3-.3.6-.4.7s-.3.2-.4.2-.4 0-.5-.1c-.2-.1-.3-.1-.5-.2-.3-.2-.4-.5-.4-.7 0-.2.1-.6.2-1 .2-.4.4-.9.6-1.4l1.6-3.4c.6-1.2.8-2 .8-2.4s-.1-.5-.4-.5zm1.1 3.2s.1 0 0 0zM100.3 146.3c0-.7.1-1.3.3-1.9s.4-1.2.8-1.7c.3-.6.7-1.1 1.1-1.6.4-.5.9-.9 1.4-1.3 1.1-.8 2.2-1.2 3.3-1.2 1.3 0 2.2.5 2.6 1.6.2.4.2.8.2 1.3s-.1 1-.3 1.4c-.2.4-.4.8-.8 1.1-.3.3-.7.7-1.1.9s-.9.5-1.4.7c-1.1.4-2.2.6-3.4.6 0 .1 0 .3-.1.5 0 .2 0 .4.1.7.1.3.1.5.3.7.3.5.7.7 1.2.7.9 0 1.7-.3 2.6-.8.3-.2.5-.4.7-.5.2-.2.3-.3.5-.3.1 0 .3.1.4.2.1.2.2.3.2.5 0 .4-.1.7-.3 1-1 1-2.4 1.4-4.2 1.4-1.1 0-2-.3-2.7-1-1.1-.6-1.4-1.7-1.4-3zm6.6-6.2c-.8 0-1.6.5-2.3 1.6-.6.9-1.1 2-1.5 3.3 1.3-.1 2.4-.6 3.3-1.5.9-.8 1.3-1.6 1.3-2.3 0-.7-.3-1.1-.8-1.1zM119.3 140.7c-.2 0-.6.2-1 .7-.4.4-.8.9-1.1 1.2l-1 1.2-1.9 2.4c-.4.8-.8 1.5-1 2.1l-.6 1.3c-.2.3-.3.6-.4.7-.1.1-.3.2-.5.2s-.4 0-.6-.1-.3-.2-.5-.3c-.3-.2-.4-.5-.4-.8 0-.1.1-.3.2-.7l.4-.9c.1-.3.3-.6.5-1l.6-1.6c.9-2.2 1.3-3.7 1.3-4.3 0-.3-.1-.6-.3-.8l-.2-.2c-.1-.1-.1-.1-.1-.3 0-.1.1-.3.2-.4.1-.1.2-.2.4-.3.3-.2.7-.3 1-.3.3 0 .6 0 .8.1.2.1.3.2.5.3.3.3.4.5.4.8s0 .6-.1.9l-.3.9-.3.9c-.1.3-.2.5-.3.7l-.2.5c-.1.1-.1.2 0 .1.8-1.2 1.4-1.9 1.7-2.2l.8-1c.6-.7 1-1.1 1.4-1.3.7-.5 1.2-.7 1.6-.7.4 0 .7 0 1 .1.3.1.5.2.7.4.4.4.6.9.6 1.5s-.1 1.2-.4 1.9-.5 1.2-.7 1.6l-.6 1.2c-.6 1.3-.8 2.2-.8 2.8 0 .3.2.4.6.4.3 0 .6-.1.9-.2.3-.1.4-.2.5-.2.2 0 .2.1.2.2 0 .7-.3 1.2-1 1.7-.5.3-.9.5-1.3.5s-.7 0-1-.1c-.3-.1-.5-.2-.7-.4-.4-.4-.7-1-.7-1.7 0-.9.3-2 .8-3.3.4-.9.7-1.5.8-1.8l.4-.8c.2-.5.4-.9.4-1.1s-.3-.5-.7-.5zM130.7 147.3c.2 0 .3.1.3.4 0 .3-.1.5-.2.7-.2.4-.6.9-1.2 1.2-.7.4-1.4.7-2.1.7-1.2 0-2-.5-2.3-1.6-.4-1.3.2-4 1.7-8.2-.9-.1-1.3-.2-1.4-.5v-.2c0-.1 0-.2.1-.3l.3-.3c.3-.2.5-.3.8-.3h.9c.8-1.9 1.4-3 1.7-3.3.2-.1.4-.2.6-.2s.4 0 .5.1c.1.1.3.1.4.2.2.2.4.5.4.8 0 .2 0 .3-.1.5l-.8 1.8h2.5c.2 0 .3.1.3.2 0 1-1.2 1.5-3.5 1.5h-.1l-.8 2c-.9 2.4-1.3 4-1.3 5 0 .3.1.5.2.6.1.1.3.2.7.2.3 0 .6-.1.9-.2.3-.1.5-.2.7-.4.2-.1.4-.3.5-.4s.2 0 .3 0z"/></g><g fill="#F96816"><path d="M139.7 260.9c0-1 .3-2.6.9-4.7-1.8 0-3.2.1-4.2.2-.3.5-.6 1-.8 1.5l-.7 1.4c-.9 1.8-1.8 3-2.5 3.6-.6.5-1.2.7-1.8.7-.5 0-.8-.2-1.1-.5-.1-.1-.1-.3-.2-.4 0-.1 0-.2.1-.2.9-.3 1.6-.8 2.1-1.5.5-.6 1-1.3 1.4-2.2l1.3-2.3-.7.1c-.5.1-.7 0-.7-.2s.1-.4.4-.6c.5-.4.9-.6 1.4-.7l.5-.1c1.2-2 2.2-3.5 2.8-4.3.7-.8 1.3-1.5 1.8-2s1.1-1 1.7-1.4c1.3-.9 2.6-1.3 3.9-1.3.4 0 .6.1.8.2.2.2.3.5.2.8s-.2.7-.4 1.2c-1.2 3.3-1.9 5.3-2.2 6.1h.5c.8 0 1.3.1 1.4.2v.3c0 .2 0 .3-.1.5s-.2.3-.4.5c-.4.3-1.1.4-2 .5-.5 1.8-.8 3-.9 3.7-.1.7 0 1.1.1 1.4.1.2.3.4.5.4s.4 0 .5-.1c.1 0 .3-.1.4-.1l.3-.1c.1 0 .2-.1.2-.1l.2.2c.1.1.1.2.1.4s-.1.4-.2.6c-.1.2-.3.4-.5.6-.5.4-1.1.6-1.8.6-1 0-1.7-.5-2-1.4-.1-.3-.2-.6-.2-.8v-.7zm-2.3-6.3c1.3-.2 2.6-.3 3.7-.3.2-.6.4-1.3.7-1.9l.7-1.8c.2-.6.5-1.1.7-1.6l.7-1.4c-1.6.4-3.1 1.8-4.7 4.1-.3.5-.6 1-1 1.5l-.8 1.4zM154.5 253.9c-.2 0-.6.2-1 .7s-.8.9-1.1 1.2l-1 1.2-1.9 2.4c-.4.8-.8 1.5-1 2.1l-.6 1.3c-.2.3-.3.6-.4.7s-.3.2-.5.2-.4 0-.6-.1c-.2-.1-.3-.2-.5-.3-.3-.2-.4-.5-.4-.8 0-.1.1-.3.2-.7l.4-.9c.1-.3.3-.6.5-1l.6-1.6c.9-2.2 1.3-3.7 1.3-4.3 0-.3-.1-.6-.3-.8l-.2-.2c-.1-.1-.1-.1-.1-.3 0-.1.1-.3.2-.4.1-.1.2-.2.4-.3.3-.2.7-.3 1-.3s.6 0 .8.1c.2.1.3.2.5.3.3.3.4.5.4.8s0 .6-.1.9l-.3.9-.3.9c-.1.3-.2.5-.3.7l-.2.5c-.1.1-.1.2 0 .1.8-1.2 1.4-1.9 1.7-2.2l.8-1c.6-.7 1-1.1 1.4-1.3.7-.5 1.2-.7 1.6-.7.4 0 .7 0 1 .1.3.1.5.2.7.4.4.4.6.9.6 1.5s-.1 1.2-.4 1.9-.5 1.2-.7 1.6l-.6 1.2c-.6 1.3-.8 2.2-.8 2.8 0 .3.2.4.6.4.3 0 .6-.1.9-.2.3-.1.4-.2.5-.2.2 0 .2.1.2.2 0 .7-.3 1.2-1 1.7-.5.3-.9.5-1.3.5s-.7 0-1-.1-.5-.2-.7-.4c-.4-.4-.7-1-.7-1.7 0-.9.3-2 .8-3.3.4-.9.7-1.5.8-1.8l.4-.8c.2-.5.4-.9.4-1.1s-.3-.5-.7-.5zM159.3 259.5c0-.7.1-1.3.3-2s.4-1.3.8-1.9c.3-.6.7-1.1 1.1-1.6.4-.5.9-.9 1.4-1.3 1.1-.7 2.2-1.1 3.4-1.1 1.2 0 2.1.5 2.5 1.5.2.4.2.8.2 1.2 0 .4-.1.9-.2 1.2-.1.4-.3.7-.5 1-.5.7-.9 1-1.4 1-.5 0-.9-.1-1.2-.4-.2-.2-.3-.5-.2-.9 0-.1.1-.2.2-.3.1-.1.3-.2.4-.4.5-.5.7-1.1.8-1.8 0-.5-.3-.7-.9-.7-.6 0-1.3.4-2 1.1-1 1-1.7 2.4-2.1 4-.4 1.4-.3 2.4.2 3.1.3.4.7.6 1.2.6.9 0 1.7-.3 2.5-.9l.6-.6c.2-.2.3-.3.4-.3.1 0 .2.1.3.2.1.1.1.3.1.5 0 .4-.2.9-.6 1.3-1 1-2.3 1.5-3.7 1.5-1.2 0-2.2-.4-2.9-1.1-.4-.6-.7-1.6-.7-2.9zM178.3 253.9c-.4 0-1.2.6-2.2 1.9l-.9 1.2-1.8 2.4c-.4.8-.8 1.5-1 2.1l-.6 1.3c-.2.3-.3.6-.4.7s-.3.2-.5.2-.4 0-.6-.1c-.2-.1-.3-.2-.5-.3-.3-.2-.4-.5-.4-.8 0-.1.1-.3.2-.7l.5-.9c1.4-2.9 2.7-6.6 3.8-11.1.4-1.6.7-3.1.9-4.4.1-.6.4-1 .9-1 .3 0 .6.1.9.3.4.3.6.7.6 1 0 .4-.1.8-.2 1.2s-.2 1-.4 1.5c-.1.5-.3 1.1-.5 1.7-.5 1.5-.9 2.6-1.1 3.3-.7 2-1.2 3.2-1.4 3.6.1-.1.3-.3.4-.6 1.4-1.8 2.2-2.9 2.5-3.2.3-.4.6-.6.8-.8.5-.4 1.1-.6 1.8-.6.6 0 1.1.2 1.4.6.3.4.5.8.5 1.3s-.1.9-.2 1.2c-.1.4-.2.7-.4 1.1-.2.4-.3.8-.5 1.2l-.6 1.2c-.5 1.2-.8 2.1-.8 2.7 0 .4.2.6.5.6s.6-.1.9-.2c.3-.1.4-.2.5-.2.2 0 .2.1.2.2 0 .7-.3 1.2-1 1.7-.5.3-.9.5-1.3.5s-.7 0-1-.1c-.3-.1-.5-.2-.7-.4-.4-.4-.7-1-.7-1.8 0-.9.3-1.9.8-3.2l1.2-2.6c.2-.5.4-.9.4-1.1s.3-.6 0-.6zM184.1 262.7c-.3-.3-.6-.7-.7-1.1-.2-.5-.3-1-.3-1.6 0-.6.1-1.3.2-1.9s.4-1.3.7-1.9c.3-.6.7-1.2 1.1-1.7.4-.5.9-1 1.4-1.4 1.1-.8 2.2-1.3 3.4-1.3 1.6 0 2.6.7 3.2 2.1.4 1 .4 2.2.1 3.6-.3 1.3-.9 2.5-1.7 3.6-.8 1.1-1.8 1.8-3 2.3-.6.2-1.1.3-1.7.3-.6 0-1-.1-1.5-.2s-.9-.5-1.2-.8zm2.1-5.5c-.2.6-.4 1.1-.5 1.7-.1.6-.2 1.1-.2 1.7 0 .5.1.9.2 1.2.2.3.4.4.8.4s.7-.1 1-.4c.3-.2.7-.6 1-.9.3-.4.6-.8.9-1.4s.5-1 .7-1.6c.5-1.2.7-2.3.7-3.2 0-.8-.2-1.4-.5-1.6-.1-.1-.3-.1-.6-.1-.2 0-.5.1-.8.3s-.6.5-1 .9c-.3.4-.6.8-.9 1.3s-.5 1.1-.8 1.7zM195 263.2c-.2-.1-.3-.2-.4-.4-.1-.1-.1-.3-.1-.4 0-.1 0-.2.1-.4 0-.1.1-.3.2-.5 1.5-3.8 2.3-6.3 2.3-7.6 0-.4-.1-.6-.4-.8l-.2-.2c-.1-.1-.1-.1-.1-.3 0-.1 0-.3.1-.4.1-.1.2-.2.4-.3.3-.2.7-.3 1-.3s.6 0 .8.1c.2.1.4.2.5.3.3.3.4.6.4.9s0 .6-.1.9l-.3.9c-.1.3-.2.6-.3.8-.1.3-.2.5-.2.6-.1.3-.1.4-.1.5.2-.2.3-.3.3-.5l.4-.8c1-1.8 1.9-2.9 2.9-3.5.3-.2.6-.2 1-.2s.7.1.9.4c.2.3.4.6.4.9 0 .3 0 .6-.1.8-.1.2-.1.4-.3.6-.2.4-.6.6-.9.6-.1 0-.2 0-.3-.1l-.2-.2c-.2-.2-.5-.3-.7-.3s-.5.2-.8.5c-.3.3-.7.7-1 1.2-1.2 1.6-2.2 3.3-2.9 5.3l-.5 1.3c-.1.3-.2.6-.3.7-.1.1-.2.2-.4.2s-.4 0-.6-.1c-.2 0-.3-.1-.5-.2z"/></g><g fill="#19A8F7"><path d="M338.2 100c-.6.8-1.1 1.5-1.7 2.1s-1.1.8-1.6.8c-.3 0-.4-.1-.6-.2-.2-.2-.3-.4-.3-.6 0-.2.1-.3.2-.4 1.1-.8 2.4-3.2 3.8-7.3l.7-1.9c.8-2.2 1.4-3.5 2-4 .2-.1.4-.2.6-.2.2 0 .4 0 .5.1.2.1.3.1.4.2.3.2.4.5.4.8 0 .1-.1.3-.2.5s-.2.5-.4.8l-1.4 4c1.8-.3 3.3-1.1 4.5-2.3 1.1-1.1 1.7-2.3 1.7-3.4s-.5-1.8-1.5-2.2c-.3-.1-.7-.2-1.2-.2s-.9.1-1.4.2c-.5.1-.9.3-1.4.4-.9.4-1.7.8-2.2 1.3-.2.1-.3.2-.5.2s-.4 0-.5-.1c-.2-.1-.3-.2-.4-.3-.3-.3-.4-.5-.4-.8 0-.3.1-.5.3-.7.2-.2.5-.4.8-.6.3-.2.7-.3 1.1-.5.4-.1.9-.3 1.3-.4.9-.2 1.8-.3 2.7-.3s1.7.1 2.5.3 1.4.5 1.8.9c1 .8 1.5 1.7 1.5 2.9v.2c-.1 1.4-.6 2.7-1.6 3.8-.9.9-2 1.7-3.4 2.2-1.3.5-2.5.7-3.6.7h-.6c-.7 1.9-1.3 3.2-1.9 4zM349.6 102c-.3-.3-.6-.7-.7-1.1-.2-.5-.3-1-.3-1.6 0-.6.1-1.3.2-1.9s.4-1.3.7-1.9c.3-.6.7-1.2 1.1-1.7.4-.5.9-1 1.4-1.4 1.1-.8 2.2-1.3 3.4-1.3 1.6 0 2.6.7 3.2 2.1.4 1 .4 2.2.1 3.6-.3 1.3-.9 2.5-1.7 3.6-.8 1.1-1.8 1.8-3 2.3-.6.2-1.1.3-1.7.3-.6 0-1-.1-1.5-.2-.5-.3-.8-.5-1.2-.8zm2.2-5.5c-.2.6-.4 1.1-.5 1.7-.1.6-.2 1.1-.2 1.7s.1.9.2 1.2c.2.3.4.4.8.4s.7-.1 1-.4.7-.6 1-.9c.3-.4.6-.8.9-1.4s.5-1 .7-1.6c.5-1.2.7-2.3.7-3.2 0-.8-.2-1.4-.5-1.6-.1-.1-.3-.1-.6-.1-.2 0-.5.1-.8.3s-.6.5-1 .9c-.3.4-.6.8-.9 1.3s-.6 1.2-.8 1.7zM360 100.8c0-.2.1-.5.2-.7s.2-.4.4-.5c.3-.3.6-.4 1-.4.3 0 .5.2.5.5 0 .8.3 1.3.8 1.6.2.1.4.2.6.2s.4 0 .5-.1c.1 0 .3-.1.4-.2.3-.2.4-.5.4-.8s-.1-.6-.2-.8c-.1-.3-.3-.5-.5-.8l-.6-.9c-.9-1.2-1.4-2.3-1.4-3.3 0-.8.4-1.6 1.1-2.3.8-.8 1.9-1.2 3.1-1.2 1.1 0 2 .3 2.6.8.5.4.8 1 .8 1.5 0 .6-.2 1.1-.7 1.4-.4.3-.8.4-1.2.4-.2 0-.3-.1-.4-.3-.1-.1-.1-.3-.1-.5s.1-.4.1-.6c0-.2 0-.4-.1-.6-.1-.2-.2-.3-.3-.4-.3-.2-.5-.4-.8-.4s-.5 0-.7.1c-.2.1-.4.2-.5.3-.3.3-.4.6-.4 1s.1.7.2 1 .3.6.5.9.4.6.7.9l.6.9c.5.8.7 1.4.7 2 0 .6-.1 1.1-.4 1.4-.2.4-.6.7-.9 1-.8.6-1.7.9-2.8.9-1 0-1.7-.2-2.3-.7-.7-.3-.9-.8-.9-1.3zM374.1 100.7c.2 0 .3.1.3.4 0 .3-.2.7-.5 1.1-.5.5-1.1.8-1.8.8-.9 0-1.5-.4-1.8-1.1-.1-.2-.2-.6-.2-.9s.1-.7.2-1.2c.1-.4.3-.9.5-1.4l.6-1.5.6-1.4c.4-1.1.7-1.8.7-2.1s0-.6-.1-.7c-.1-.1-.1-.2-.2-.3l-.2-.2c-.1-.1-.1-.1-.1-.3 0-.1.1-.3.2-.4.1-.1.2-.2.4-.3.3-.2.7-.3 1.2-.3 1.1 0 1.7.3 1.7.9 0 .7-.2 1.5-.5 2.3-.4.9-.7 1.6-.9 2.1l-.7 1.6c-.5 1.1-.7 2-.7 2.5 0 .3.2.5.5.5s.6 0 .7-.1.1 0 .1 0zm2.4-12.3c-.2.2-.4.3-.6.4-.2.1-.4.2-.7.2-.2 0-.5 0-.7-.1s-.4-.2-.5-.4c-.3-.4-.5-.8-.5-1.1s.1-.7.2-.9c.1-.2.3-.3.5-.5.4-.2.7-.4 1-.4s.6 0 .7.1c.2 0 .3.1.5.2.4.2.6.6.6.9 0 .4-.1.7-.2.9 0 .3-.2.5-.3.7zM383.6 99.8c.2 0 .3.1.3.4 0 .2-.1.5-.2.7-.2.4-.6.9-1.2 1.2-.7.4-1.4.7-2.1.7-1.2 0-2-.5-2.3-1.6-.4-1.3.2-4 1.7-8.2-.9-.1-1.3-.2-1.4-.5v-.2c0-.1 0-.2.1-.3l.3-.3c.3-.2.5-.3.8-.3h.9c.8-1.9 1.4-3 1.7-3.3.2-.1.4-.2.6-.2s.4 0 .5.1c.1.1.3.1.4.2.2.2.4.5.4.8 0 .2 0 .3-.1.5l-.8 1.8h2.5c.2 0 .3.1.3.2 0 1-1.2 1.5-3.5 1.5h-.1l-.8 2c-.9 2.4-1.3 4-1.3 5 0 .3.1.5.2.6.1.1.3.2.7.2.3 0 .6-.1.9-.2.3-.1.5-.2.7-.4.2-.1.4-.3.5-.4 0 .1.2 0 .3 0zM389.1 100.7c.2 0 .3.1.3.4 0 .3-.2.7-.5 1.1-.5.5-1.1.8-1.8.8-.9 0-1.5-.4-1.8-1.1-.1-.2-.2-.6-.2-.9s.1-.7.2-1.2c.1-.4.3-.9.5-1.4l.6-1.5.6-1.4c.4-1.1.7-1.8.7-2.1s0-.6-.1-.7c-.1-.1-.1-.2-.2-.3l-.2-.2c-.1-.1-.1-.1-.1-.3 0-.1.1-.3.2-.4.1-.1.2-.2.4-.3.3-.2.7-.3 1.2-.3 1.1 0 1.7.3 1.7.9 0 .7-.2 1.5-.5 2.3-.4.9-.7 1.6-.9 2.1l-.7 1.6c-.5 1.1-.7 2-.7 2.5 0 .3.2.5.5.5s.6 0 .7-.1 0 0 .1 0zm2.3-12.3c-.2.2-.4.3-.6.4-.2.1-.4.2-.7.2-.2 0-.5 0-.7-.1s-.4-.2-.5-.4c-.3-.4-.5-.8-.5-1.1s.1-.7.2-.9c.1-.2.3-.3.5-.5.4-.2.7-.4 1-.4s.6 0 .7.1c.2 0 .3.1.5.2.4.2.6.6.6.9 0 .4-.1.7-.2.9 0 .3-.1.5-.3.7zM393 102c-.3-.3-.6-.7-.7-1.1-.2-.5-.3-1-.3-1.6 0-.6.1-1.3.2-1.9s.4-1.3.7-1.9c.3-.6.7-1.2 1.1-1.7.4-.5.9-1 1.4-1.4 1.1-.8 2.2-1.3 3.4-1.3 1.6 0 2.6.7 3.2 2.1.4 1 .4 2.2.1 3.6-.3 1.3-.9 2.5-1.7 3.6-.8 1.1-1.8 1.8-3 2.3-.6.2-1.1.3-1.7.3-.6 0-1-.1-1.5-.2-.5-.3-.9-.5-1.2-.8zm2.2-5.5c-.2.6-.4 1.1-.5 1.7-.1.6-.2 1.1-.2 1.7s.1.9.2 1.2c.2.3.4.4.8.4s.7-.1 1-.4.7-.6 1-.9c.3-.4.6-.8.9-1.4s.5-1 .7-1.6c.5-1.2.7-2.3.7-3.2 0-.8-.2-1.4-.5-1.6-.1-.1-.3-.1-.6-.1-.2 0-.5.1-.8.3s-.6.5-1 .9c-.3.4-.6.8-.9 1.3s-.6 1.2-.8 1.7zM412 93.2c-.2 0-.6.2-1 .7s-.8.9-1.1 1.2l-1 1.2-1.9 2.4c-.4.8-.8 1.5-1 2.1l-.6 1.3c-.2.3-.3.6-.4.7s-.3.2-.5.2-.4 0-.6-.1c-.2-.1-.3-.2-.5-.3-.3-.2-.4-.5-.4-.8 0-.1.1-.3.2-.7l.4-.9c.1-.3.3-.6.5-1l.6-1.6c.9-2.2 1.3-3.7 1.3-4.3 0-.3-.1-.6-.3-.8l-.2-.2c-.1-.1-.1-.1-.1-.3 0-.1.1-.3.2-.4.1-.1.2-.2.4-.3.3-.2.7-.3 1-.3s.6 0 .8.1c.2.1.3.2.5.3.3.3.4.5.4.8s0 .6-.1.9l-.3.9-.3.9c-.1.3-.2.5-.3.7l-.2.5c-.1.1-.1.2 0 .1.8-1.2 1.4-1.9 1.7-2.2l.8-1c.6-.7 1-1.1 1.4-1.3.7-.5 1.2-.7 1.6-.7.4 0 .7 0 1 .1s.5.2.7.4c.4.4.6.9.6 1.5s-.1 1.2-.4 1.9-.5 1.2-.7 1.6l-.6 1.2c-.6 1.3-.8 2.2-.8 2.8 0 .3.2.4.6.4.3 0 .6-.1.9-.2.3-.1.4-.2.5-.2.2 0 .2.1.2.2 0 .7-.3 1.2-1 1.7-.5.3-.9.5-1.3.5s-.7 0-1-.1-.5-.2-.7-.4c-.4-.4-.7-1-.7-1.7 0-.9.3-2 .8-3.3.4-.9.7-1.5.8-1.8l.4-.8c.2-.5.4-.9.4-1.1s-.2-.5-.7-.5z"/></g><path fill="#FFF" d="M174.2 300.3l-6.4 6.1v-27.2l20 18.5-8.8.6 4.3 10-4.6 2z"/><path fill="#C6C6C6" d="M168.8 281.5l16.6 15.4-7.9.5 4.5 10.4-2.7 1.2-4.7-10.4-5.7 5.5v-22.6m-2.1-4.6v31.8l3.4-3.2 3.7-3.5 3.5 7.8.8 1.8 1.8-.8 2.7-1.2 1.8-.8-.8-1.8-3.3-7.8 5.1-.3 4.7-.3-3.4-3.2-16.6-15.4-3.4-3.1z"/><g><path fill="#FFF" d="M383 138.2l-6.4 6.1v-27.2l20 18.5-8.9.6 4.3 10-4.5 2z"/><path fill="#212121" d="M377.6 119.4l16.6 15.4-7.9.5 4.5 10.4-2.7 1.2-4.7-10.4-5.7 5.5v-22.6m-2.1-4.6v31.8l3.4-3.2 3.7-3.5 3.5 7.8.8 1.8 1.8-.8 2.7-1.2 1.8-.8-.8-1.8-3.3-7.8 5.1-.3 4.7-.3-3.4-3.2-16.6-15.4-3.4-3.1z"/></g></svg>