<?xml version="1.0" encoding="utf-8"?>
<!-- Generator: Adobe Illustrator 18.0.0, SVG Export Plug-In . SVG Version: 6.00 Build 0)  -->
<!DOCTYPE svg PUBLIC "-//W3C//DTD SVG 1.1//EN" "http://www.w3.org/Graphics/SVG/1.1/DTD/svg11.dtd">
<svg version="1.1" id="Layer_1" xmlns="http://www.w3.org/2000/svg" xmlns:xlink="http://www.w3.org/1999/xlink" x="0px" y="0px"
	 width="498.6px" height="462.9px" viewBox="0 0 498.6 462.9" enable-background="new 0 0 498.6 462.9" xml:space="preserve">
<g>
	<g>
		<g>
			<g>
				<path fill="#FCFBFA" d="M334.3,162.7c2.4-1.9,4.7-3.9,6.9-6.1c-1-0.8-2-1.6-3.1-2.4c-4.1,6.8-9.3,12.7-15.6,17.5
					c0.8,1,1.6,2,2.4,3.1c13.9-12.1,27.1-24.8,39.5-38.3c-1-0.8-2-1.6-3.1-2.4c-14.2,19.3-29.3,38-45.2,56c-1.7,1.8,1,4.6,2.7,2.7
					c9.3-10.2,18.6-20.3,27.9-30.6c4.6-5.1,9.3-10.2,13.9-15.3c2.4-2.5,4.6-5.1,7-7.7c2.4-2.7,4.8-6,8.5-7.1c-0.6-1-1.2-2.2-1.9-3.2
					c-21,26-43.1,51.2-64.8,76.5c-1.5,1.7,0.3,4,2.4,3.1c7.3-3.5,12.8-9.5,18.5-15.1c7.2-7.1,14.2-14.2,21.3-21.5
					c13.5-14.1,26.9-28.4,39.9-43c-1-0.8-2-1.6-3.1-2.4c-10.7,17.2-23.1,33.1-36.5,48.2c-6.6,7.4-13.4,14.7-20.3,21.8
					c-6.8,7.2-14.3,13.9-19.4,22.4c-1,1.7,1,3.5,2.6,2.6c39-19,56.2-62.3,88-89.6c-0.9-0.9-1.8-1.8-2.7-2.7
					c-16.2,16.2-29.3,34.8-43.2,52.8c-7.1,9.2-14.4,18.1-22.4,26.5c-4,4.2-8.3,8.1-12.7,12c-3.8,3.3-7,6.8-8.8,11.5
					c-0.7,1.8,1.5,2.8,2.9,2.2c46.1-19.8,52.4-79.3,93.3-105.2c-0.8-1-1.6-2-2.4-3.1c-15,19.4-30.6,38.5-45,58.3
					c-6.8,9.4-12.7,19.6-17.6,30c-2.4,5.3-5.1,10-9.3,14.1c-3.8,3.7-8.6,6.4-13.3,9.1c-2.2,1.3-0.3,4.5,1.9,3.3
					c9.9-4.7,16.6-13.3,22.8-22c7.8-10.8,15.8-21.4,24.5-31.5c17.6-20.6,36.9-39.7,56.2-58.8c1.5-1.4-0.1-3.7-1.9-3.2
					c-17.6,3.8-28,22.1-37.8,35.5c-12.8,17.9-25.2,36.1-37.1,54.5c-1.4,2.1,2,4,3.3,1.9c11.1-17,22.5-33.7,34.4-50.2
					c5.7-7.9,11.4-16,17.6-23.5c5.6-6.6,12.2-12.4,20.8-14.3c-0.6-1-1.2-2.2-1.9-3.2c-18.5,18.3-37,36.7-54.2,56.3
					c-8.5,9.7-16.5,19.8-24,30.3c-6.9,9.6-13.5,19.8-24.5,25.1c0.6,1.1,1.3,2.3,1.9,3.3c8.5-5.1,16.3-10.3,21.3-19.1
					c2.8-5,4.9-10.3,7.6-15.4c3-5.6,6.3-11,9.9-16.2c7-10.4,15-20.1,22.7-30c8.1-10.5,16.2-21,24.4-31.5c1.2-1.7-0.3-4.4-2.4-3.1
					c-40.7,25.9-47.3,85.6-93.1,105.2c1,0.7,1.9,1.5,2.9,2.2c2.1-5.3,6.8-8.9,11-12.7c4-3.6,7.8-7.4,11.5-11.3
					c7.5-7.9,14.3-16.5,21-25.2c13.7-17.7,26.6-36.2,42.5-52c1.8-1.8-0.9-4.4-2.7-2.7c-31.5,27.1-48.5,70.1-87.2,88.9
					c0.9,0.9,1.7,1.7,2.6,2.6c5.2-8.6,13-15.5,19.9-22.7c6.9-7.2,13.7-14.5,20.3-21.9c13.3-14.9,25.6-30.7,36.1-47.8
					c1.1-1.8-1.6-4-3.1-2.4c-12.7,14.1-25.6,28.1-38.8,41.8c-6.6,6.8-13.3,13.6-20,20.3c-6.1,6.2-12.1,13.1-20.2,16.9
					c0.8,1,1.6,2,2.4,3.1c21.8-25.4,43.9-50.5,64.9-76.6c1.1-1.4,0.2-3.8-1.9-3.2c-5.4,1.5-8.9,6.6-12.5,10.6
					c-5.1,5.5-10,11.1-15.1,16.6c-10.4,11.5-20.8,23-31.3,34.5c0.9,0.9,1.8,1.8,2.7,2.7c16.1-18.3,31.4-37.2,45.8-56.7
					c1.3-1.8-1.6-3.9-3.1-2.4C349.2,147.1,336,160,322.2,172c-1.7,1.4,0.6,4.4,2.4,3.1c6.8-5.2,12.6-11.5,17-18.9
					c1.1-1.9-1.5-3.9-3.1-2.4c-2.2,2.2-4.5,4.2-6.9,6.1C329.6,161.4,332.4,164.1,334.3,162.7L334.3,162.7z"/>
			</g>
		</g>
		<g>
			<g>
				<path fill="#FCFBFA" d="M321.2,254.5c19.7-20.2,39.2-40.5,58.7-60.9c10-10.4,19.8-20.8,29.7-31.3c8.6-9.1,18.2-18,24.2-29.2
					c1.1-2.1-1.5-3.9-3.2-2.4c-12.1,10.1-24.5,19.9-36.1,30.7c-5.2,4.9-10.1,10.2-14.4,15.9c-4.9,6.4-8.3,13.6-11.9,20.7
					c-6.7,13.5-15.7,25.4-26.7,35.6c-8.1,7.5-22.7,14.4-23,27.1c0,1.9,2.2,2.4,3.5,1.5c24.3-19.1,44.5-41.7,63.3-65.9
					c17.6-22.5,35.5-45.9,59.9-61.4c-0.8-1-1.7-2.1-2.4-3.2c-10.7,10-19.6,20.1-26.3,33.2c-7,13.5-16.6,25.1-26.6,36.5
					c-19.7,22.6-41.5,43.3-64.8,62.1c-1.7,1.3,0.1,3.9,2,3.4c12.3-3.6,22-12.2,31.2-21c11-10.5,21.7-21.3,32.3-32.3
					c20.6-21.7,40-44.4,58.3-67.9c-1-0.8-2.1-1.7-3.2-2.4c-5.9,11.5-11.9,23.1-19.2,33.8c-8.4,12.1-19.1,22.3-29.3,32.8
					c-20.3,21-40.8,41.9-61.1,62.9c-1.6,1.6,0.5,4.6,2.4,3.2c22.4-16.2,42.2-35.5,61-55.6c20.1-21.5,39.7-43.5,59.4-65.3
					c-1.1-0.7-2.3-1.3-3.4-2c-6.8,29-33.3,48-53.5,67.7c-21.2,20.7-40.9,43-59,66.4c-1.3,1.7,0.4,4.7,2.4,3.2
					c21.7-16.6,40.5-36.2,59-56.2c9.4-10.1,18.8-20.3,28.5-30.1c10-10.1,20.5-22.3,34.1-27.7c-0.7-1.1-1.3-2.3-2-3.4
					c-7.6,6.1-15.2,12.2-21.7,19.4c-6.6,7.2-12.2,15.5-18.5,23.1c-12.6,15.5-26.5,29.9-41.4,43.2c-1.9,1.7,1,4.6,2.9,2.9
					c14.8-13.4,28.7-27.8,41.4-43.2c6.3-7.6,12-15.7,18.5-23.1c6.5-7.3,14.1-13.4,21.7-19.4c1.6-1.2-0.1-4.1-2-3.4
					c-12.1,4.8-21.3,14.3-30.4,23.2c-10.2,10.2-20,20.7-29.8,31.2c-19.7,21.1-39.4,42.4-62.4,60c0.8,1,1.7,2.1,2.4,3.2
					c18.8-24.3,39.3-47.3,61.4-68.6c20.2-19.6,45.5-38.4,52.2-67.3c0.4-1.9-2-3.6-3.4-2c-19.4,21.4-38.7,43-58.3,64.2
					c-18.9,20.3-38.7,39.9-61.3,56.2c0.8,1,1.7,2.1,2.4,3.2c20.8-21.4,41.6-42.7,62.4-64.1c9.7-10,19.7-19.8,27.9-31.1
					c7.9-10.9,14.1-23.1,20.2-35.1c1-1.9-1.7-4.4-3.2-2.4c-17.6,22.7-36.4,44.6-56.2,65.6c-9.7,10.3-19.7,20.3-29.8,30.1
					c-10,9.7-20.3,20.3-34.1,24.4c0.7,1.1,1.3,2.3,2,3.4c23-18.4,44.3-38.9,63.8-60.9c9.4-10.7,19.1-21.7,26-34.2
					c3.8-6.8,7-13.7,11.8-19.9c4.8-6.1,10.5-11.4,16.2-16.8c1.7-1.6-0.5-4.5-2.4-3.2c-24,15.3-41.7,37.6-59,59.8
					c-19.6,25.1-40.1,48.4-65.1,68.1c1.1,0.5,2.4,1,3.5,1.5c0.2-6.7,6.1-11.4,10.9-15.3c5.2-4.2,10.3-8.2,15-12.9
					c10-9.9,17.7-21.4,23.9-33.9c3.3-6.6,6.7-13.2,11.1-19.3c4.4-5.9,9.6-11.2,14.9-16.2c11.2-10.4,23.3-19.9,35-29.7
					c-1-0.8-2.1-1.7-3.2-2.4c-6,11.4-16,20.3-24.7,29.6c-9.5,10-19,20-28.6,30c-19.5,20.3-39,40.7-58.7,60.9
					C316.5,253.5,319.4,256.4,321.2,254.5L321.2,254.5z"/>
			</g>
		</g>
		<g>
			<g>
				<path fill="#FCFBFA" d="M363.1,285c10-6.9,18.1-16.2,26.5-24.9c9.5-9.8,19.2-19.4,28.8-29c19.7-19.7,39.8-39,60.1-58.1
					c-1.1-0.7-2.3-1.3-3.4-2c-0.5,3.3-2.6,5.5-4.8,7.9c-2.6,2.9-5.2,5.8-7.9,8.6c-4.9,5.3-9.8,10.7-14.8,15.9
					c-9.9,10.6-19.9,21-30,31.3s-20.4,20.4-30.8,30.5c-5.2,5-10.5,10-15.7,14.9c-4.3,4-8.6,7.8-10.7,13.4c-0.4,1.2,0.7,2.6,2,2.6
					c12.1,0,21.6-7.5,29.8-15.5c5.2-5,10.1-10.2,15.2-15.3c5-5,10.1-9.9,14.5-15.5c4.1-5.4,7-11.4,11.6-16.5
					c5.1-5.8,10.4-11.4,15.7-16.9c10.3-10.7,21-21.2,32-31.3c-1-1-1.9-1.9-2.9-2.9c-20.9,21.5-41.7,42.9-63.9,62.9
					c-18.8,16.9-38.7,33.9-49.4,57.3c-0.6,1.3,0.1,3.1,1.7,3.1c6.1-0.2,10.5-3.9,15.1-7.5c5.5-4.3,11-8.6,16.4-13.1
					c11.2-9.2,22-18.8,32.2-29c10-10,19.1-20.6,27.4-32c8.3-11.4,14.1-26.2,25.8-34.6c-0.8-1-1.7-2.1-2.4-3.2
					c-8.9,10-19.4,18-27.8,28.4c-8,9.9-14.8,20.7-22.4,30.8c-14.2,19-36.3,33.2-44.7,56.2c-0.5,1.5,1.1,3,2.5,2.5
					c9.6-3,17.3-9.3,24.5-16.2c8.7-8.4,17.4-16.9,25.7-25.9c15.6-16.8,28.8-35.9,46.1-51.1c1.7-1.6-0.5-4.4-2.4-3.2
					c-14.4,8.8-24.8,22.2-35.8,34.6c-5.9,6.7-12.4,12.7-19.3,18.5c-6.1,5.2-11.3,11.6-11.5,19.9c0,1,1,2.1,2,2
					c17.3-1,29.5-13.5,39.7-26.2c12.2-15.1,23.4-31.1,34.8-46.8c1.4-1.8-1.7-4.3-3.2-2.4c-19,23.7-39.4,46.1-61,67.3
					c-1.9,1.8,1,4.7,2.9,2.9c21.7-21.1,42.1-43.6,61-67.3c-1-0.8-2.1-1.7-3.2-2.4c-10.2,14.1-20.3,28.3-31.1,42.1
					c-10.1,13-22.1,27.9-39.9,28.9c0.7,0.7,1.4,1.4,2,2c0.3-8.9,7.4-14.7,13.7-19.9c6.1-5.1,11.5-10.7,16.8-16.7
					c10.5-11.9,20.4-24.5,34.1-32.9c-0.8-1-1.7-2.1-2.4-3.2c-16.5,14.4-29.3,32.4-43.8,48.6c-7.9,8.7-16.4,17-24.8,25.3
					c-7.5,7.4-15.4,14.9-25.8,18.1c0.9,0.9,1.7,1.7,2.5,2.5c4.1-11.3,12-20.2,20.3-28.6c8-8.2,16.2-16.2,23.1-25.4
					c7.9-10.2,14.7-21.1,22.7-31.3c8.3-10.5,19-18.4,27.8-28.4c1.5-1.7-0.5-4.6-2.4-3.2c-10.1,7.2-15.5,18.6-22.2,28.7
					c-7.8,11.9-16.9,22.8-26.7,33.1c-9.6,10.1-19.9,19.6-30.6,28.6c-5.3,4.5-10.7,8.9-16.2,13.3c-5.3,4.3-12.1,11.6-19.2,11.9
					c0.6,1,1.1,2,1.7,3.1c10.8-23.6,31-40.4,49.9-57.5c21.8-19.7,42.4-40.9,62.9-61.9c1.8-1.9-1-4.6-2.9-2.9
					c-10.2,9.3-20.1,19-29.7,28.9c-9.3,9.5-19.6,19.1-26.4,30.7c-7,11.8-17.9,21-27.5,30.6c-8.8,8.9-18.8,19.7-32.3,19.7
					c0.7,0.9,1.3,1.7,2,2.6c2.4-6.1,8.6-10.6,13.3-14.9c5.2-5,10.5-10,15.6-15c10.4-10,20.6-20.3,30.7-30.6
					c10.1-10.3,20.1-20.8,30-31.4c4.9-5.2,9.8-10.6,14.7-16c3.8-4.2,9.4-8.7,10.3-14.6c0.3-1.9-1.8-3.5-3.4-2
					c-19.5,18.3-38.7,36.9-57.7,55.6c-9.7,9.6-19.3,19.3-28.9,29c-8.9,9.1-17.5,19.4-28,26.7C358.9,283,360.9,286.5,363.1,285
					L363.1,285z"/>
			</g>
		</g>
		<g>
			<g>
				<path fill="#FCFBFA" d="M416.1,295.9c23.8-25.2,49-49,75.4-71.4c-1-0.8-2.1-1.7-3.2-2.4c-16.4,27.7-40.3,49.7-63.8,71.2
					c-1.7,1.6,0.5,4.4,2.4,3.2c10.7-6.1,19.2-13.8,26-24c7-10.6,13-23.2,25.3-28.4c-0.9-0.9-1.7-1.7-2.5-2.5
					c-4.2,16.3-13.5,30.7-26.7,41.2c-2.1,1.7,0.9,4.5,2.9,2.9c13.6-10.9,23.3-26,27.8-43c0.3-1.3-1-3.1-2.5-2.5
					c-11,4.6-17.7,14.1-23.8,24c-3.6,5.8-7.2,11.4-11.8,16.4c-4.8,5.1-10.7,9.1-16.8,12.5c0.8,1,1.7,2.1,2.4,3.2
					c23.8-21.7,47.9-44,64.5-72.1c1.2-2.1-1.5-3.9-3.2-2.4c-26.4,22.4-51.5,46.2-75.4,71.4C411.5,294.9,414.4,297.9,416.1,295.9
					L416.1,295.9z"/>
			</g>
		</g>
	</g>
	<g>
		<g>
			<path fill="#FCFBFA" d="M410.5,303.4c10.8-6.3,21.5-12.9,31.9-19.9c1.8-1.2,0.7-4.6-1.6-3.8c-2.9,1.2-5.9,2.4-8.7,3.6
				c0.7,1.1,1.3,2.3,2,3.4c2-2.2,3.8-4.5,5.3-7c1.8-3.1,2.9-6.6,5.9-8.9c2.1-1.6,0.1-5.1-2.1-3.5c-5.5,4.1-7.3,11.5-12.1,16.5
				c-1.3,1.4,0,4.2,2,3.4c2.9-1.2,5.9-2.4,8.7-3.6c-0.5-1.2-1-2.4-1.6-3.8c-10.4,7-21,13.6-31.9,19.9
				C406.1,301.2,408.1,304.7,410.5,303.4L410.5,303.4z"/>
		</g>
	</g>
</g>
<g>
	<g>
		<g>
			<g>
				<g>
					<path fill="#F9F7F2" d="M210.7,45.1c2.4-1.9,4.7-3.9,6.9-6.1c-1-0.8-2-1.6-3.1-2.4c-4.1,6.8-9.3,12.7-15.6,17.5
						c0.8,1,1.6,2,2.4,3.1c13.9-12.1,27.1-24.8,39.5-38.3c-1-0.8-2-1.6-3.1-2.4c-14.2,19.3-29.3,38-45.2,56c-1.7,1.8,1,4.6,2.7,2.7
						c9.3-10.2,18.6-20.3,27.9-30.6c4.6-5.1,9.3-10.2,13.9-15.3c2.4-2.5,4.6-5.1,7-7.7c2.4-2.7,4.8-6,8.5-7.1
						c-0.6-1-1.2-2.2-1.9-3.2c-21,26-43.1,51.2-64.8,76.5c-1.5,1.7,0.3,4,2.4,3.1c7.3-3.5,12.8-9.5,18.5-15.1
						c7.2-7.1,14.2-14.2,21.3-21.5c13.5-14.1,26.9-28.4,39.9-43c-1-0.8-2-1.6-3.1-2.4c-10.7,17.2-23.1,33.1-36.5,48.2
						c-6.6,7.4-13.4,14.7-20.3,21.8c-6.8,7.2-14.3,13.9-19.4,22.4c-1,1.7,1,3.5,2.6,2.6c39-19,56.2-62.3,88-89.6
						c-0.9-0.9-1.8-1.8-2.7-2.7c-16.2,16.2-29.3,34.8-43.2,52.8c-7.1,9.2-14.4,18.1-22.4,26.5c-4,4.2-8.3,8.1-12.7,12
						c-3.8,3.3-7,6.8-8.8,11.5c-0.7,1.8,1.5,2.8,2.9,2.2c46.1-19.8,52.4-79.3,93.3-105.2c-0.8-1-1.6-2-2.4-3.1
						c-15,19.4-30.6,38.5-45,58.3c-6.8,9.4-12.7,19.6-17.6,30c-2.4,5.3-5.1,10-9.3,14.1c-3.8,3.7-8.6,6.4-13.3,9.1
						c-2.2,1.3-0.3,4.5,1.9,3.3c9.9-4.7,16.6-13.3,22.8-22c7.8-10.8,15.8-21.4,24.5-31.5C264.6,49.1,284,30,303.2,10.9
						c1.5-1.4-0.1-3.7-1.9-3.2c-17.6,3.8-28,22.1-37.8,35.5c-12.8,17.9-25.2,36.1-37.1,54.5c-1.4,2.1,2,4,3.3,1.9
						c11.1-17,22.5-33.7,34.4-50.2c5.7-7.9,11.4-16,17.6-23.5c5.6-6.6,12.2-12.4,20.8-14.3c-0.6-1-1.2-2.2-1.9-3.2
						c-18.5,18.3-37,36.7-54.2,56.3c-8.5,9.7-16.5,19.8-24,30.3c-6.9,9.6-13.5,19.8-24.5,25.1c0.6,1.1,1.3,2.3,1.9,3.3
						c8.5-5.1,16.3-10.3,21.3-19.1c2.8-5,4.9-10.3,7.6-15.4c3-5.6,6.3-11,9.9-16.2c7-10.4,15-20.1,22.7-30
						c8.1-10.5,16.2-21,24.4-31.5c1.2-1.7-0.3-4.4-2.4-3.1C242.6,34,236,93.7,190.2,113.3c1,0.7,1.9,1.5,2.9,2.2
						c2.1-5.3,6.8-8.9,11-12.7c4-3.6,7.8-7.4,11.5-11.3c7.5-7.9,14.3-16.5,21-25.2c13.7-17.7,26.6-36.2,42.5-52
						c1.8-1.8-0.9-4.4-2.7-2.7c-31.5,27.1-48.5,70.1-87.2,88.9c0.9,0.9,1.7,1.7,2.6,2.6c5.2-8.6,13-15.5,19.9-22.7
						c6.9-7.2,13.7-14.5,20.3-21.9c13.3-14.9,25.6-30.7,36.1-47.8c1.1-1.8-1.6-4-3.1-2.4c-12.7,14.1-25.6,28.1-38.8,41.8
						c-6.6,6.8-13.3,13.6-20,20.3c-6.1,6.2-12.1,13.1-20.2,16.9c0.8,1,1.6,2,2.4,3.1c21.8-25.4,43.9-50.5,64.9-76.6
						c1.1-1.4,0.2-3.8-1.9-3.2c-5.4,1.5-8.9,6.6-12.5,10.6c-5.1,5.5-10,11.1-15.1,16.6c-10.4,11.5-20.8,23-31.3,34.5
						c0.9,0.9,1.8,1.8,2.7,2.7c16.1-18.3,31.4-37.2,45.8-56.7c1.3-1.8-1.6-3.9-3.1-2.4c-12.4,13.5-25.6,26.3-39.4,38.3
						c-1.7,1.4,0.6,4.4,2.4,3.1c6.8-5.2,12.6-11.5,17-18.9c1.1-1.9-1.5-3.9-3.1-2.4c-2.2,2.2-4.5,4.2-6.9,6.1
						C206,43.9,208.8,46.6,210.7,45.1L210.7,45.1z"/>
				</g>
			</g>
			<g>
				<g>
					<path fill="#F9F7F2" d="M197.6,137c19.7-20.2,39.2-40.5,58.7-60.9c10-10.4,19.8-20.8,29.7-31.3c8.6-9.1,18.2-18,24.2-29.2
						c1.1-2.1-1.5-3.9-3.2-2.4c-12.1,10.1-24.5,19.9-36.1,30.7c-5.2,4.9-10.1,10.2-14.4,15.9c-4.9,6.4-8.3,13.6-11.9,20.7
						c-6.7,13.5-15.7,25.4-26.7,35.6c-8.1,7.5-22.7,14.4-23,27.1c0,1.9,2.2,2.4,3.5,1.5c24.3-19.1,44.5-41.7,63.3-65.9
						c17.6-22.5,35.5-45.9,59.9-61.4c-0.8-1-1.7-2.1-2.4-3.2c-10.7,10-19.6,20.1-26.3,33.2c-7,13.5-16.6,25.1-26.6,36.5
						c-19.7,22.6-41.5,43.3-64.8,62.1c-1.7,1.3,0.1,3.9,2,3.4c12.3-3.6,22-12.2,31.2-21c11-10.5,21.7-21.3,32.3-32.3
						c20.6-21.7,40-44.4,58.3-67.9c-1-0.8-2.1-1.7-3.2-2.4c-5.9,11.5-11.9,23.1-19.2,33.8c-8.4,12.1-19.1,22.3-29.3,32.8
						c-20.3,21-40.8,41.9-61.1,62.9c-1.6,1.6,0.5,4.6,2.4,3.2c22.4-16.2,42.2-35.5,61-55.6c20.1-21.5,39.7-43.5,59.4-65.3
						c-1.1-0.7-2.3-1.3-3.4-2c-6.8,29-33.3,48-53.5,67.7c-21.2,20.7-40.9,43-59,66.4c-1.3,1.7,0.4,4.7,2.4,3.2
						c21.7-16.6,40.5-36.2,59-56.2c9.4-10.1,18.8-20.3,28.5-30.1c10-10.1,20.5-22.3,34.1-27.7c-0.7-1.1-1.3-2.3-2-3.4
						c-7.6,6.1-15.2,12.2-21.7,19.4c-6.6,7.2-12.2,15.5-18.5,23.1c-12.6,15.5-26.5,29.9-41.4,43.2c-1.9,1.7,1,4.6,2.9,2.9
						c14.8-13.4,28.7-27.8,41.4-43.2c6.3-7.6,12-15.7,18.5-23.1c6.5-7.3,14.1-13.4,21.7-19.4c1.6-1.2-0.1-4.1-2-3.4
						c-12.1,4.8-21.3,14.3-30.4,23.2c-10.2,10.2-20,20.7-29.8,31.2c-19.7,21.1-39.4,42.4-62.4,60c0.8,1,1.7,2.1,2.4,3.2
						c18.8-24.3,39.3-47.3,61.4-68.6c20.2-19.6,45.5-38.4,52.2-67.3c0.4-1.9-2-3.6-3.4-2c-19.4,21.4-38.7,43-58.3,64.2
						c-18.9,20.3-38.7,39.9-61.3,56.2c0.8,1,1.7,2.1,2.4,3.2c20.8-21.4,41.6-42.7,62.4-64.1c9.7-10,19.7-19.8,27.9-31.1
						c7.9-10.9,14.1-23.1,20.2-35.1c1-1.9-1.7-4.4-3.2-2.4c-17.6,22.7-36.4,44.6-56.2,65.6c-9.7,10.3-19.7,20.3-29.8,30.1
						c-10,9.7-20.3,20.3-34.1,24.4c0.7,1.1,1.3,2.3,2,3.4c23-18.4,44.3-38.9,63.8-60.9c9.4-10.7,19.1-21.7,26-34.2
						c3.8-6.8,7-13.7,11.8-19.9c4.8-6.1,10.5-11.4,16.2-16.8c1.7-1.6-0.5-4.5-2.4-3.2c-24,15.3-41.7,37.6-59,59.8
						c-19.6,25.1-40.1,48.4-65.1,68.1c1.1,0.5,2.4,1,3.5,1.5c0.2-6.7,6.1-11.4,10.9-15.3c5.2-4.2,10.3-8.2,15-12.9
						c10-9.9,17.7-21.4,23.9-33.9c3.3-6.6,6.7-13.2,11.1-19.3c4.4-5.9,9.6-11.2,14.9-16.2c11.2-10.4,23.3-19.9,35-29.7
						c-1-0.8-2.1-1.7-3.2-2.4c-6,11.4-16,20.3-24.7,29.6c-9.5,10-19,20-28.6,30c-19.5,20.3-39,40.7-58.7,60.9
						C192.9,135.9,195.8,138.8,197.6,137L197.6,137z"/>
				</g>
			</g>
			<g>
				<g>
					<path fill="#F9F7F2" d="M239.5,167.5c10-6.9,18.1-16.2,26.5-24.9c9.5-9.8,19.2-19.4,28.8-29c19.7-19.7,39.8-39,60.1-58.1
						c-1.1-0.7-2.3-1.3-3.4-2c-0.5,3.3-2.6,5.5-4.8,7.9c-2.6,2.9-5.2,5.8-7.9,8.6c-4.9,5.3-9.8,10.7-14.8,15.9
						c-9.9,10.6-19.9,21-30,31.3s-20.4,20.4-30.8,30.5c-5.2,5-10.5,10-15.7,14.9c-4.3,4-8.6,7.8-10.7,13.4c-0.4,1.2,0.7,2.6,2,2.6
						c12.1,0,21.6-7.5,29.8-15.5c5.2-5,10.1-10.2,15.2-15.3c5-5,10.1-9.9,14.5-15.5c4.1-5.4,7-11.4,11.6-16.5
						c5.1-5.8,10.4-11.4,15.7-16.9c10.3-10.7,21-21.2,32-31.3c-1-1-1.9-1.9-2.9-2.9c-20.9,21.5-41.7,42.9-63.9,62.9
						c-18.8,16.9-38.7,33.9-49.4,57.3c-0.6,1.3,0.1,3.1,1.7,3.1c6.1-0.2,10.5-3.9,15.1-7.5c5.5-4.3,11-8.6,16.4-13.1
						c11.2-9.2,22-18.8,32.2-29c10-10,19.1-20.6,27.4-32c8.3-11.4,14.1-26.2,25.8-34.6c-0.8-1-1.7-2.1-2.4-3.2
						c-8.9,10-19.4,18-27.8,28.4c-8,9.9-14.8,20.7-22.4,30.8c-14.2,19-36.3,33.2-44.7,56.2c-0.5,1.5,1.1,3,2.5,2.5
						c9.6-3,17.3-9.3,24.5-16.2c8.7-8.4,17.4-16.9,25.7-25.9c15.6-16.8,28.8-35.9,46.1-51.1c1.7-1.6-0.5-4.4-2.4-3.2
						c-14.4,8.8-24.8,22.2-35.8,34.6c-5.9,6.7-12.4,12.7-19.3,18.5c-6.1,5.2-11.3,11.6-11.5,19.9c0,1,1,2.1,2,2
						c17.3-1,29.5-13.5,39.7-26.2c12.2-15.1,23.4-31.1,34.8-46.8c1.4-1.8-1.7-4.3-3.2-2.4c-19,23.7-39.4,46.1-61,67.3
						c-1.9,1.8,1,4.7,2.9,2.9c21.7-21.1,42.1-43.6,61-67.3c-1-0.8-2.1-1.7-3.2-2.4c-10.2,14.1-20.3,28.3-31.1,42.1
						c-10.1,13-22.1,27.9-39.9,28.9c0.7,0.7,1.4,1.4,2,2c0.3-8.9,7.4-14.7,13.7-19.9c6.1-5.1,11.5-10.7,16.8-16.7
						c10.5-11.9,20.4-24.5,34.1-32.9c-0.8-1-1.7-2.1-2.4-3.2c-16.5,14.4-29.3,32.4-43.8,48.6c-7.9,8.7-16.4,17-24.8,25.3
						c-7.5,7.4-15.4,14.9-25.8,18.1c0.9,0.9,1.7,1.7,2.5,2.5c4.1-11.3,12-20.2,20.3-28.6c8-8.2,16.2-16.2,23.1-25.4
						c7.9-10.2,14.7-21.1,22.7-31.3c8.3-10.5,19-18.4,27.8-28.4c1.5-1.7-0.5-4.6-2.4-3.2c-10.1,7.2-15.5,18.6-22.2,28.7
						c-7.8,11.9-16.9,22.8-26.7,33.1c-9.6,10.1-19.9,19.6-30.6,28.6c-5.3,4.5-10.7,8.9-16.2,13.3c-5.3,4.3-12.1,11.6-19.2,11.9
						c0.6,1,1.1,2,1.7,3.1c10.8-23.6,31-40.4,49.9-57.5c21.8-19.7,42.4-40.9,62.9-61.9c1.8-1.9-1-4.6-2.9-2.9
						c-10.2,9.3-20.1,19-29.7,28.9c-9.3,9.5-19.6,19.1-26.4,30.7c-7,11.8-17.9,21-27.5,30.6c-8.8,8.9-18.8,19.7-32.3,19.7
						c0.7,0.9,1.3,1.7,2,2.6c2.4-6.1,8.6-10.6,13.3-14.9c5.2-5,10.5-10,15.6-15c10.4-10,20.6-20.3,30.7-30.6s20.1-20.8,30-31.4
						c4.9-5.2,9.8-10.6,14.7-16c3.8-4.2,9.4-8.7,10.3-14.6c0.3-1.9-1.8-3.5-3.4-2c-19.5,18.3-38.7,36.9-57.7,55.6
						c-9.7,9.6-19.3,19.3-28.9,29c-8.9,9.1-17.5,19.4-28,26.7C235.3,165.4,237.3,168.9,239.5,167.5L239.5,167.5z"/>
				</g>
			</g>
			<g>
				<g>
					<path fill="#F9F7F2" d="M292.5,178.4c23.8-25.2,49-49,75.4-71.4c-1-0.8-2.1-1.7-3.2-2.4c-16.4,27.7-40.3,49.7-63.8,71.2
						c-1.7,1.6,0.5,4.4,2.4,3.2c10.7-6.1,19.2-13.8,26-24c7-10.6,13-23.2,25.3-28.4c-0.9-0.9-1.7-1.7-2.5-2.5
						c-4.2,16.3-13.5,30.7-26.7,41.2c-2.1,1.7,0.9,4.5,2.9,2.9c13.6-10.9,23.3-26,27.8-43c0.3-1.3-1-3.1-2.5-2.5
						c-11,4.6-17.7,14.1-23.8,24c-3.6,5.8-7.2,11.4-11.8,16.4c-4.8,5.1-10.7,9.1-16.8,12.5c0.8,1,1.7,2.1,2.4,3.2
						c23.8-21.7,47.9-44,64.5-72.1c1.2-2.1-1.5-3.9-3.2-2.4c-26.4,22.4-51.5,46.2-75.4,71.4C287.9,177.3,290.8,180.3,292.5,178.4
						L292.5,178.4z"/>
				</g>
			</g>
		</g>
		<g>
			<g>
				<path fill="#F9F7F2" d="M286.9,185.8c10.8-6.3,21.5-12.9,31.9-19.9c1.8-1.2,0.7-4.6-1.6-3.8c-2.9,1.2-5.9,2.4-8.7,3.6
					c0.7,1.1,1.3,2.3,2,3.4c2-2.2,3.8-4.5,5.3-7c1.8-3.1,2.9-6.6,5.9-8.9c2.1-1.6,0.1-5.1-2.1-3.5c-5.5,4.1-7.3,11.5-12.1,16.5
					c-1.3,1.4,0,4.2,2,3.4c2.9-1.2,5.9-2.4,8.7-3.6c-0.5-1.2-1-2.4-1.6-3.8c-10.4,7-21,13.6-31.9,19.9
					C282.5,183.6,284.5,187.1,286.9,185.8L286.9,185.8z"/>
			</g>
		</g>
	</g>
</g>
<g>
	<g>
		<g>
			<g>
				<g>
					<path fill="#FCFBFA" d="M31.4,312.4c2.4-1.9,4.7-3.9,6.9-6.1c-1-0.8-2-1.6-3.1-2.4c-4.1,6.8-9.3,12.7-15.6,17.5
						c0.8,1,1.6,2,2.4,3.1c13.9-12.1,27.1-24.8,39.5-38.3c-1-0.8-2-1.6-3.1-2.4c-14.2,19.3-29.3,38-45.2,56c-1.7,1.8,1,4.6,2.7,2.7
						c9.3-10.2,18.6-20.3,27.9-30.6c4.6-5.1,9.3-10.2,13.9-15.3c2.4-2.5,4.6-5.1,7-7.7c2.4-2.7,4.8-6,8.5-7.1
						c-0.6-1-1.2-2.2-1.9-3.2c-21,26-43.1,51.2-64.8,76.5c-1.5,1.7,0.3,4,2.4,3.1c7.3-3.5,12.8-9.5,18.5-15.1
						c7.2-7.1,14.2-14.2,21.3-21.5c13.5-14.1,26.9-28.4,39.9-43c-1-0.8-2-1.6-3.1-2.4c-10.7,17.2-23.1,33.1-36.5,48.2
						c-6.6,7.4-13.4,14.7-20.3,21.8c-6.8,7.2-14.3,13.9-19.4,22.4c-1,1.7,1,3.5,2.6,2.6c39-19,56.2-62.3,88-89.6
						c-0.9-0.9-1.8-1.8-2.7-2.7c-16.2,16.2-29.3,34.8-43.2,52.8c-7.1,9.2-14.4,18.1-22.4,26.5c-4,4.2-8.3,8.1-12.7,12
						c-3.8,3.3-7,6.8-8.8,11.5c-0.7,1.8,1.5,2.8,2.9,2.2c46.1-19.8,52.4-79.3,93.3-105.2c-0.8-1-1.6-2-2.4-3.1
						c-15,19.4-30.6,38.5-45,58.3c-6.8,9.4-12.7,19.6-17.6,30c-2.4,5.3-5.1,10-9.3,14.1c-3.8,3.7-8.6,6.4-13.3,9.1
						c-2.2,1.3-0.3,4.5,1.9,3.3c9.9-4.7,16.6-13.3,22.8-22c7.8-10.8,15.8-21.4,24.5-31.5c17.6-20.6,36.9-39.7,56.2-58.8
						c1.5-1.4-0.1-3.7-1.9-3.2c-17.6,3.8-28,22.1-37.8,35.5C71.4,328.3,59,346.5,47,364.9c-1.4,2.1,2,4,3.3,1.9
						c11.1-17,22.5-33.7,34.4-50.2c5.7-7.9,11.4-16,17.6-23.5c5.6-6.6,12.2-12.4,20.8-14.3c-0.6-1-1.2-2.2-1.9-3.2
						c-18.5,18.3-37,36.7-54.2,56.3c-8.5,9.7-16.5,19.8-24,30.3c-6.9,9.6-13.5,19.8-24.5,25.1c0.6,1.1,1.3,2.3,1.9,3.3
						c8.5-5.1,16.3-10.3,21.3-19.1c2.8-5,4.9-10.3,7.6-15.4c3-5.6,6.3-11,9.9-16.2c7-10.4,15-20.1,22.7-30
						c8.1-10.5,16.2-21,24.4-31.5c1.2-1.7-0.3-4.4-2.4-3.1c-40.7,25.9-47.3,85.6-93.1,105.2c1,0.7,1.9,1.5,2.9,2.2
						c2.1-5.3,6.8-8.9,11-12.7c4-3.6,7.8-7.4,11.5-11.3c7.5-7.9,14.3-16.5,21-25.2c13.7-17.7,26.6-36.2,42.5-52
						c1.8-1.8-0.9-4.4-2.7-2.7c-31.5,27.1-48.5,70.1-87.2,88.9c0.9,0.9,1.7,1.7,2.6,2.6c5.2-8.6,13-15.5,19.9-22.7
						c6.9-7.2,13.7-14.5,20.3-21.9C66,311,78.3,295.2,88.7,278.1c1.1-1.8-1.6-4-3.1-2.4c-12.7,14.1-25.6,28.1-38.8,41.8
						c-6.6,6.8-13.3,13.6-20,20.3c-6.1,6.2-12.1,13.1-20.2,16.9c0.8,1,1.6,2,2.4,3.1C30.9,332.4,53,307.4,74,281.3
						c1.1-1.4,0.2-3.8-1.9-3.2c-5.4,1.5-8.9,6.6-12.5,10.6c-5.1,5.5-10,11.1-15.1,16.6c-10.4,11.5-20.8,23-31.3,34.5
						c0.9,0.9,1.8,1.8,2.7,2.7c16.1-18.3,31.4-37.2,45.8-56.7c1.3-1.8-1.6-3.9-3.1-2.4c-12.4,13.5-25.6,26.3-39.4,38.3
						c-1.7,1.4,0.6,4.4,2.4,3.1c6.8-5.2,12.6-11.5,17-18.9c1.1-1.9-1.5-3.9-3.1-2.4c-2.2,2.2-4.5,4.2-6.9,6.1
						C26.6,311.1,29.4,313.8,31.4,312.4L31.4,312.4z"/>
				</g>
			</g>
			<g>
				<g>
					<path fill="#FCFBFA" d="M18.3,404.2c19.7-20.2,39.2-40.5,58.7-60.9c10-10.4,19.8-20.8,29.7-31.3c8.6-9.1,18.2-18,24.2-29.2
						c1.1-2.1-1.5-3.9-3.2-2.4c-12.1,10.1-24.5,19.9-36.1,30.7c-5.2,4.9-10.1,10.2-14.4,15.9c-4.9,6.4-8.3,13.6-11.9,20.7
						c-6.7,13.5-15.7,25.4-26.7,35.6c-8.1,7.5-22.7,14.4-23,27.1c0,1.9,2.2,2.4,3.5,1.5c24.3-19.1,44.5-41.7,63.3-65.9
						c17.6-22.5,35.5-45.9,59.9-61.4c-0.8-1-1.7-2.1-2.4-3.2c-10.7,10-19.6,20.1-26.3,33.2c-7,13.5-16.6,25.1-26.6,36.5
						c-19.7,22.6-41.5,43.3-64.8,62.1c-1.7,1.3,0.1,3.9,2,3.4c12.3-3.6,22-12.2,31.2-21c11-10.5,21.7-21.3,32.3-32.3
						c20.6-21.7,40-44.4,58.3-67.9c-1-0.8-2.1-1.7-3.2-2.4c-5.9,11.5-11.9,23.1-19.2,33.8c-8.4,12.1-19.1,22.3-29.3,32.8
						c-20.3,21-40.8,41.9-61.1,62.9c-1.6,1.6,0.5,4.6,2.4,3.2c22.4-16.2,42.2-35.5,61-55.6c20.1-21.5,39.7-43.5,59.4-65.3
						c-1.1-0.7-2.3-1.3-3.4-2c-6.8,29-33.3,48-53.5,67.7c-21.2,20.7-40.9,43-59,66.4c-1.3,1.7,0.4,4.7,2.4,3.2
						c21.7-16.6,40.5-36.2,59-56.2c9.4-10.1,18.8-20.3,28.5-30.1c10-10.1,20.5-22.3,34.1-27.7c-0.7-1.1-1.3-2.3-2-3.4
						c-7.6,6.1-15.2,12.2-21.7,19.4c-6.6,7.2-12.2,15.5-18.5,23.1c-12.6,15.5-26.5,29.9-41.4,43.2c-1.9,1.7,1,4.6,2.9,2.9
						c14.8-13.4,28.7-27.8,41.4-43.2c6.3-7.6,12-15.7,18.5-23.1c6.5-7.3,14.1-13.4,21.7-19.4c1.6-1.2-0.1-4.1-2-3.4
						c-12.1,4.8-21.3,14.3-30.4,23.2c-10.2,10.2-20,20.7-29.8,31.2c-19.7,21.1-39.4,42.4-62.4,60c0.8,1,1.7,2.1,2.4,3.2
						c18.8-24.3,39.3-47.3,61.4-68.6c20.2-19.6,45.5-38.4,52.2-67.3c0.4-1.9-2-3.6-3.4-2c-19.4,21.4-38.7,43-58.3,64.2
						c-18.9,20.3-38.7,39.9-61.3,56.2c0.8,1,1.7,2.1,2.4,3.2c20.8-21.4,41.6-42.7,62.4-64.1c9.7-10,19.7-19.8,27.9-31.1
						c7.9-10.9,14.1-23.1,20.2-35.1c1-1.9-1.7-4.4-3.2-2.4c-17.6,22.7-36.4,44.6-56.2,65.6C77,368.5,67.1,378.6,57,388.3
						c-10,9.7-20.3,20.3-34.1,24.4c0.7,1.1,1.3,2.3,2,3.4c23-18.4,44.3-38.9,63.8-60.9c9.4-10.7,19.1-21.7,26-34.2
						c3.8-6.8,7-13.7,11.8-19.9c4.8-6.1,10.5-11.4,16.2-16.8c1.7-1.6-0.5-4.5-2.4-3.2c-24,15.3-41.7,37.6-59,59.8
						C61.7,366,41.1,389.3,16.2,409c1.1,0.5,2.4,1,3.5,1.5c0.2-6.7,6.1-11.4,10.9-15.3c5.2-4.2,10.3-8.2,15-12.9
						c10-9.9,17.7-21.4,23.9-33.9c3.3-6.6,6.7-13.2,11.1-19.3c4.4-5.9,9.6-11.2,14.9-16.2c11.2-10.4,23.3-19.9,35-29.7
						c-1-0.8-2.1-1.7-3.2-2.4c-6,11.4-16,20.3-24.7,29.6c-9.5,10-19,20-28.6,30c-19.5,20.3-39,40.7-58.7,60.9
						C13.5,403.2,16.4,406.1,18.3,404.2L18.3,404.2z"/>
				</g>
			</g>
			<g>
				<g>
					<path fill="#FCFBFA" d="M60.2,434.7c10-6.9,18.1-16.2,26.5-24.9c9.5-9.8,19.2-19.4,28.8-29c19.7-19.7,39.8-39,60.1-58.1
						c-1.1-0.7-2.3-1.3-3.4-2c-0.5,3.3-2.6,5.5-4.8,7.9c-2.6,2.9-5.2,5.8-7.9,8.6c-4.9,5.3-9.8,10.7-14.8,15.9
						c-9.9,10.6-19.9,21-30,31.3s-20.4,20.4-30.8,30.5c-5.2,5-10.5,10-15.7,14.9c-4.3,4-8.6,7.8-10.7,13.4c-0.4,1.2,0.7,2.6,2,2.6
						c12.1,0,21.6-7.5,29.8-15.5c5.2-5,10.1-10.2,15.2-15.3c5-5,10.1-9.9,14.5-15.5c4.1-5.4,7-11.4,11.6-16.5
						c5.1-5.8,10.4-11.4,15.7-16.9c10.3-10.7,21-21.2,32-31.3c-1-1-1.9-1.9-2.9-2.9c-20.9,21.5-41.7,42.9-63.9,62.9
						c-18.8,16.9-38.7,33.9-49.4,57.3c-0.6,1.3,0.1,3.1,1.7,3.1c6.1-0.2,10.5-3.9,15.1-7.5c5.5-4.3,11-8.6,16.4-13.1
						c11.2-9.2,22-18.8,32.2-29c10-10,19.1-20.6,27.4-32c8.3-11.4,14.1-26.2,25.8-34.6c-0.8-1-1.7-2.1-2.4-3.2
						c-8.9,10-19.4,18-27.8,28.4c-8,9.9-14.8,20.7-22.4,30.8c-14.2,19-36.3,33.2-44.7,56.2c-0.5,1.5,1.1,3,2.5,2.5
						c9.6-3,17.3-9.3,24.5-16.2c8.7-8.4,17.4-16.9,25.7-25.9c15.6-16.8,28.8-35.9,46.1-51.1c1.7-1.6-0.5-4.4-2.4-3.2
						c-14.4,8.8-24.8,22.2-35.8,34.6c-5.9,6.7-12.4,12.7-19.3,18.5c-6.1,5.2-11.3,11.6-11.5,19.9c0,1,1,2.1,2,2
						c17.3-1,29.5-13.5,39.7-26.2c12.2-15.1,23.4-31.1,34.8-46.8c1.4-1.8-1.7-4.3-3.2-2.4c-19,23.7-39.4,46.1-61,67.3
						c-1.9,1.8,1,4.7,2.9,2.9c21.7-21.1,42.1-43.6,61-67.3c-1-0.8-2.1-1.7-3.2-2.4c-10.2,14.1-20.3,28.3-31.1,42.1
						c-10.1,13-22.1,27.9-39.9,28.9c0.7,0.7,1.4,1.4,2,2c0.3-8.9,7.4-14.7,13.7-19.9c6.1-5.1,11.5-10.7,16.8-16.7
						c10.5-11.9,20.4-24.5,34.1-32.9c-0.8-1-1.7-2.1-2.4-3.2c-16.5,14.4-29.3,32.4-43.8,48.6c-7.9,8.7-16.4,17-24.8,25.3
						c-7.5,7.4-15.4,14.9-25.8,18.1c0.9,0.9,1.7,1.7,2.5,2.5c4.1-11.3,12-20.2,20.3-28.6c8-8.2,16.2-16.2,23.1-25.4
						c7.9-10.2,14.7-21.1,22.7-31.3c8.3-10.5,19-18.4,27.8-28.4c1.5-1.7-0.5-4.6-2.4-3.2c-10.1,7.2-15.5,18.6-22.2,28.7
						c-7.8,11.9-16.9,22.8-26.7,33.1c-9.6,10.1-19.9,19.6-30.6,28.6c-5.3,4.5-10.7,8.9-16.2,13.3c-5.3,4.3-12.1,11.6-19.2,11.9
						c0.6,1,1.1,2,1.7,3.1c10.8-23.6,31-40.4,49.9-57.5c21.8-19.7,42.4-40.9,62.9-61.9c1.8-1.9-1-4.6-2.9-2.9
						c-10.2,9.3-20.1,19-29.7,28.9c-9.3,9.5-19.6,19.1-26.4,30.7c-7,11.8-17.9,21-27.5,30.6c-8.8,8.9-18.8,19.7-32.3,19.7
						c0.7,0.9,1.3,1.7,2,2.6c2.4-6.1,8.6-10.6,13.3-14.9c5.2-5,10.5-10,15.6-15c10.4-10,20.6-20.3,30.7-30.6s20.1-20.8,30-31.4
						c4.9-5.2,9.8-10.6,14.7-16c3.8-4.2,9.4-8.7,10.3-14.6c0.3-1.9-1.8-3.5-3.4-2c-19.5,18.3-38.7,36.9-57.7,55.6
						c-9.7,9.6-19.3,19.3-28.9,29c-8.9,9.1-17.5,19.4-28,26.7C56,432.7,58,436.2,60.2,434.7L60.2,434.7z"/>
				</g>
			</g>
			<g>
				<g>
					<path fill="#FCFBFA" d="M113.2,445.6c23.8-25.2,49-49,75.4-71.4c-1-0.8-2.1-1.7-3.2-2.4c-16.4,27.7-40.3,49.7-63.8,71.2
						c-1.7,1.6,0.5,4.4,2.4,3.2c10.7-6.1,19.2-13.8,26-24c7-10.6,13-23.2,25.3-28.4c-0.9-0.9-1.7-1.7-2.5-2.5
						c-4.2,16.3-13.5,30.7-26.7,41.2c-2.1,1.7,0.9,4.5,2.9,2.9c13.6-10.9,23.3-26,27.8-43c0.3-1.3-1-3.1-2.5-2.5
						c-11,4.6-17.7,14.1-23.8,24c-3.6,5.8-7.2,11.4-11.8,16.4c-4.8,5.1-10.7,9.1-16.8,12.5c0.8,1,1.7,2.1,2.4,3.2
						c23.8-21.7,47.9-44,64.5-72.1c1.2-2.1-1.5-3.9-3.2-2.4c-26.4,22.4-51.5,46.2-75.4,71.4C108.6,444.6,111.5,447.6,113.2,445.6
						L113.2,445.6z"/>
				</g>
			</g>
		</g>
		<g>
			<g>
				<path fill="#FCFBFA" d="M107.5,453.1c10.8-6.3,21.5-12.9,31.9-19.9c1.8-1.2,0.7-4.6-1.6-3.8c-2.9,1.2-5.9,2.4-8.7,3.6
					c0.7,1.1,1.3,2.3,2,3.4c2-2.2,3.8-4.5,5.3-7c1.8-3.1,2.9-6.6,5.9-8.9c2.1-1.6,0.1-5.1-2.1-3.5c-5.5,4.1-7.3,11.5-12.1,16.5
					c-1.3,1.4,0,4.2,2,3.4c2.9-1.2,5.9-2.4,8.7-3.6c-0.5-1.2-1-2.4-1.6-3.8c-10.4,7-21,13.6-31.9,19.9
					C103.2,450.9,105.2,454.4,107.5,453.1L107.5,453.1z"/>
			</g>
		</g>
	</g>
</g>
<rect x="1.8" y="269.1" fill="none" stroke="#EAEAEA" stroke-width="1.8188" stroke-miterlimit="10" stroke-dasharray="3.6376" width="192" height="192"/>
<circle fill="none" stroke="#F7E7BF" stroke-width="3.6376" stroke-miterlimit="10" stroke-dasharray="9.0939" cx="97.8" cy="365.1" r="96"/>
<polyline fill="none" stroke="#F2F2F2" stroke-width="1.8188" stroke-miterlimit="10" stroke-dasharray="3.6376" points="
	304.8,119.4 496.8,119.4 496.8,311.4 304.8,311.4 304.8,193.8 "/>
<circle fill="none" stroke="#F7E7BF" stroke-width="3.6376" stroke-miterlimit="10" stroke-dasharray="9.0939" cx="400.8" cy="215.4" r="96"/>
<polyline fill="none" stroke="#EAEAEA" stroke-width="1.8188" stroke-miterlimit="10" stroke-dasharray="3.6376" points="304.8,1.8 
	374.2,1.8 374.2,193.8 182.2,193.8 182.2,1.8 "/>
<circle fill="none" stroke="#FCC515" stroke-width="3.6376" stroke-miterlimit="10" stroke-dasharray="9.0939" cx="278.2" cy="97.8" r="96"/>
<g>
	<path fill="#F7E7BF" d="M68.7,356.4c0-0.6-0.4-1-1.1-1c-1.4,0-2.8,0.7-3.9,2c-0.7,0.8-1.2,1.6-1.5,2.5c-0.1,0.4-0.2,0.8-0.2,1.2
		s0,0.6,0.1,0.8c0.1,0.2,0.2,0.4,0.3,0.5c0.3,0.3,0.6,0.4,0.9,0.3c0.4-0.2,0.7-0.2,1-0.2s0.5,0,0.7,0.1c0.2,0.1,0.3,0.2,0.4,0.3
		c0.2,0.2,0.3,0.4,0.3,0.6c0,0.4-0.1,0.6-0.4,0.6c-0.4,0-0.8,0.1-1.2,0.3c-0.4,0.2-0.9,0.4-1.3,0.7c-0.4,0.3-0.8,0.6-1.2,1
		c-0.8,0.8-1.2,1.7-1.2,2.5c0,0.4,0.1,0.7,0.3,0.9c0.3,0.4,0.7,0.5,1.1,0.5s0.9-0.1,1.3-0.3s0.8-0.4,1.1-0.6c0.5-0.4,1-0.8,1.5-1.4
		c0.2-0.3,0.5-0.4,0.6-0.4c0.2,0,0.3,0.1,0.4,0.3c0.1,0.2,0.1,0.4,0.1,0.7c0,0.5-0.1,0.9-0.3,1.1c-0.2,0.2-0.4,0.5-0.7,0.7
		s-0.6,0.5-1,0.7c-0.9,0.5-2,0.7-3,0.7c-1.8,0-3.1-0.6-3.7-1.8c-0.2-0.4-0.4-0.9-0.4-1.4c0-0.5,0.1-0.9,0.2-1.3
		c0.1-0.4,0.3-0.8,0.5-1.1c0.2-0.3,0.5-0.7,0.7-0.9c0.3-0.3,0.5-0.5,0.8-0.7c0.5-0.4,1-0.6,1.3-0.7c-0.9-0.3-1.4-1-1.7-2
		c-0.1-0.3-0.1-0.7-0.1-1.2s0.1-1,0.3-1.5c0.2-0.5,0.4-1.1,0.7-1.6c0.3-0.5,0.7-1,1.1-1.4c0.4-0.4,0.9-0.8,1.4-1.1
		c1.1-0.7,2.3-1,3.6-1c1.3,0,2.3,0.3,3,1c0.5,0.5,0.8,1.2,0.8,2c0,0.9-0.4,1.9-1.2,2.8c-0.5,0.6-0.9,1-1.3,1.2s-0.7,0.3-0.9,0.3
		s-0.4,0-0.6-0.1c-0.2-0.1-0.3-0.2-0.5-0.3c-0.3-0.3-0.5-0.5-0.5-0.8c0-0.3,0.1-0.5,0.3-0.6l1-0.7C68.1,357.8,68.7,357,68.7,356.4z"
		/>
	<path fill="#F7E7BF" d="M70.1,371c-0.2-0.2-0.3-0.4-0.5-0.8c-0.1-0.3-0.2-0.7-0.2-1.1c0-0.4,0.1-0.9,0.3-1.6s0.4-1.5,0.7-2.3l1-2.8
		c1.4-3.9,2.1-7,2.3-9.1c0.1-0.6,0.4-1,0.9-1c0.3,0,0.6,0.1,0.9,0.2c0.4,0.3,0.6,0.7,0.6,1.1c0,0.4-0.1,0.9-0.2,1.5
		c-0.1,0.6-0.3,1.2-0.5,1.9s-0.4,1.4-0.7,2.2l-1.6,4.6c-0.9,2.6-1.3,4.3-1.3,5.1c0,0.4,0.2,0.6,0.5,0.6c0.3,0,0.6-0.1,0.9-0.2
		c0.3-0.1,0.4-0.2,0.5-0.2c0.2,0,0.2,0.1,0.2,0.2c0,0.7-0.3,1.2-1,1.7c-0.5,0.3-0.9,0.5-1.3,0.5s-0.7,0-0.9-0.1
		C70.5,371.4,70.3,371.2,70.1,371z"/>
	<path fill="#F7E7BF" d="M76.1,367.5c0-0.7,0.1-1.3,0.3-1.9c0.2-0.6,0.4-1.2,0.8-1.7c0.3-0.6,0.7-1.1,1.1-1.6
		c0.4-0.5,0.9-0.9,1.4-1.3c1.1-0.8,2.2-1.2,3.3-1.2c1.3,0,2.2,0.5,2.6,1.6c0.2,0.4,0.2,0.8,0.2,1.3c0,0.5-0.1,1-0.3,1.4
		c-0.2,0.4-0.4,0.8-0.8,1.1c-0.3,0.3-0.7,0.7-1.1,0.9c-0.4,0.3-0.9,0.5-1.4,0.7c-1.1,0.4-2.2,0.6-3.4,0.6c0,0.1,0,0.3-0.1,0.5
		c0,0.2,0,0.4,0.1,0.7c0.1,0.3,0.1,0.5,0.3,0.7c0.3,0.5,0.7,0.7,1.2,0.7c0.9,0,1.7-0.3,2.6-0.8c0.3-0.2,0.5-0.4,0.7-0.5
		c0.2-0.2,0.3-0.3,0.5-0.3c0.1,0,0.3,0.1,0.4,0.2c0.1,0.2,0.2,0.3,0.2,0.5c0,0.4-0.1,0.7-0.3,1c-1,1-2.4,1.4-4.2,1.4
		c-1.1,0-2-0.3-2.7-1C76.4,369.8,76.1,368.8,76.1,367.5z M82.8,361.2c-0.8,0-1.6,0.5-2.3,1.6c-0.6,0.9-1.1,2-1.5,3.3
		c1.3-0.1,2.4-0.6,3.3-1.5c0.9-0.8,1.3-1.6,1.3-2.3S83.3,361.2,82.8,361.2z"/>
	<path fill="#F7E7BF" d="M95.5,361.9c-0.4,0-1.2,0.6-2.4,1.9c-0.9,1-1.5,1.7-1.9,2.2l-1,1.3c-0.4,0.8-0.8,1.5-1,2.1l-0.6,1.3
		c-0.2,0.3-0.3,0.6-0.4,0.7c-0.1,0.1-0.3,0.2-0.5,0.2s-0.4,0-0.6-0.1c-0.2-0.1-0.3-0.2-0.5-0.3c-0.3-0.2-0.4-0.5-0.4-0.8
		c0-0.1,0.1-0.3,0.2-0.7l0.4-0.9c0.1-0.3,0.3-0.6,0.5-1l0.6-1.6c0.9-2.2,1.3-3.7,1.3-4.3c0-0.3-0.1-0.6-0.3-0.8l-0.2-0.2
		c-0.1-0.1-0.1-0.1-0.1-0.3s0.1-0.3,0.2-0.4c0.1-0.1,0.2-0.2,0.4-0.3c0.3-0.2,0.7-0.3,1-0.3s0.6,0,0.8,0.1s0.4,0.2,0.5,0.3
		c0.3,0.3,0.4,0.5,0.4,0.8s0,0.6-0.1,0.9c-0.1,0.3-0.2,0.6-0.3,0.9c-0.1,0.3-0.2,0.6-0.4,0.9c-0.3,0.7-0.5,1-0.6,1.2
		s-0.1,0.2-0.1,0.2c1.4-1.8,2.2-2.8,2.5-3.2c0.6-0.7,1-1.1,1.4-1.4c0.6-0.4,1.2-0.7,1.7-0.7c0.5,0,1,0.2,1.3,0.5
		c0.3,0.3,0.5,0.8,0.5,1.3c0,0.5-0.1,1-0.4,1.7c-0.2,0.6-0.4,1.1-0.5,1.3l1.7-2.2l0.9-1.1c0.6-0.6,1-1,1.5-1.2
		c0.4-0.2,0.8-0.3,1-0.3s0.5,0,0.8,0.1c0.3,0.1,0.5,0.2,0.7,0.4c0.4,0.4,0.6,0.9,0.6,1.5c0,0.6-0.1,1.2-0.4,1.8s-0.5,1.1-0.7,1.5
		c-0.2,0.4-0.4,0.8-0.6,1.2c-0.6,1.2-0.8,2.1-0.8,2.7c0,0.4,0.2,0.6,0.5,0.6c0.3,0,0.6-0.1,0.9-0.2c0.3-0.1,0.4-0.2,0.5-0.2
		c0.2,0,0.2,0.1,0.2,0.2c0,0.7-0.3,1.2-1,1.7c-0.5,0.3-0.9,0.5-1.3,0.5s-0.7,0-0.9-0.1c-0.2-0.1-0.4-0.2-0.6-0.4
		c-0.4-0.4-0.6-1-0.6-1.6s0.1-1.3,0.2-1.8c0.2-0.6,0.4-1.1,0.6-1.6c0.2-0.5,0.5-1,0.7-1.4s0.4-0.8,0.5-1c0.2-0.5,0.4-0.9,0.4-1.2
		c0-0.3-0.2-0.4-0.5-0.4c-0.4,0-1.1,0.7-2.2,2c-0.8,1-1.4,1.8-1.7,2.3l-0.8,1.1c-0.4,0.8-0.8,1.5-1,2.1l-0.6,1.3
		c-0.1,0.3-0.3,0.6-0.4,0.7s-0.3,0.2-0.4,0.2s-0.4,0-0.5-0.1c-0.2-0.1-0.3-0.1-0.5-0.2c-0.3-0.2-0.4-0.5-0.4-0.7
		c0-0.2,0.1-0.6,0.2-1c0.2-0.4,0.4-0.9,0.6-1.4l1.6-3.4c0.6-1.2,0.8-2,0.8-2.4C96,362,95.8,361.9,95.5,361.9z M96.6,365.1
		C96.6,365.1,96.6,365.1,96.6,365.1L96.6,365.1C96.6,365.1,96.6,365.1,96.6,365.1z"/>
	<path fill="#F7E7BF" d="M106,367.5c0-0.7,0.1-1.3,0.3-1.9c0.2-0.6,0.4-1.2,0.8-1.7c0.3-0.6,0.7-1.1,1.1-1.6
		c0.4-0.5,0.9-0.9,1.4-1.3c1.1-0.8,2.2-1.2,3.3-1.2c1.3,0,2.2,0.5,2.6,1.6c0.2,0.4,0.2,0.8,0.2,1.3c0,0.5-0.1,1-0.3,1.4
		c-0.2,0.4-0.4,0.8-0.8,1.1c-0.3,0.3-0.7,0.7-1.1,0.9c-0.4,0.3-0.9,0.5-1.4,0.7c-1.1,0.4-2.2,0.6-3.4,0.6c0,0.1,0,0.3-0.1,0.5
		c0,0.2,0,0.4,0.1,0.7c0.1,0.3,0.1,0.5,0.3,0.7c0.3,0.5,0.7,0.7,1.2,0.7c0.9,0,1.7-0.3,2.6-0.8c0.3-0.2,0.5-0.4,0.7-0.5
		c0.2-0.2,0.3-0.3,0.5-0.3c0.1,0,0.3,0.1,0.4,0.2c0.1,0.2,0.2,0.3,0.2,0.5c0,0.4-0.1,0.7-0.3,1c-1,1-2.4,1.4-4.2,1.4
		c-1.1,0-2-0.3-2.7-1C106.3,369.8,105.9,368.8,106,367.5z M112.6,361.2c-0.8,0-1.6,0.5-2.3,1.6c-0.6,0.9-1.1,2-1.5,3.3
		c1.3-0.1,2.4-0.6,3.3-1.5c0.9-0.8,1.3-1.6,1.3-2.3S113.1,361.2,112.6,361.2z"/>
	<path fill="#F7E7BF" d="M125,361.9c-0.2,0-0.6,0.2-1,0.7c-0.4,0.5-0.8,0.9-1.1,1.2l-1,1.2l-1.9,2.4c-0.4,0.8-0.8,1.5-1,2.1
		l-0.6,1.3c-0.2,0.3-0.3,0.6-0.4,0.7c-0.1,0.1-0.3,0.2-0.5,0.2s-0.4,0-0.6-0.1c-0.2-0.1-0.3-0.2-0.5-0.3c-0.3-0.2-0.4-0.5-0.4-0.8
		c0-0.1,0.1-0.3,0.2-0.7l0.4-0.9c0.1-0.3,0.3-0.6,0.5-1l0.6-1.6c0.9-2.2,1.3-3.7,1.3-4.3c0-0.3-0.1-0.6-0.3-0.8l-0.2-0.2
		c-0.1-0.1-0.1-0.1-0.1-0.3s0.1-0.3,0.2-0.4c0.1-0.1,0.2-0.2,0.4-0.3c0.3-0.2,0.7-0.3,1-0.3s0.6,0,0.8,0.1c0.2,0.1,0.3,0.2,0.5,0.3
		c0.3,0.3,0.4,0.5,0.4,0.8s0,0.6-0.1,0.9c-0.1,0.3-0.2,0.6-0.3,0.9c-0.1,0.3-0.2,0.6-0.3,0.9c-0.1,0.3-0.2,0.5-0.3,0.7l-0.2,0.5
		c-0.1,0.1-0.1,0.2,0,0.1c0.8-1.2,1.4-1.9,1.7-2.2l0.8-1c0.6-0.7,1-1.1,1.4-1.3c0.7-0.5,1.2-0.7,1.6-0.7s0.7,0,1,0.1
		c0.3,0.1,0.5,0.2,0.7,0.4c0.4,0.4,0.6,0.9,0.6,1.5s-0.1,1.2-0.4,1.9s-0.5,1.2-0.7,1.6s-0.4,0.8-0.6,1.2c-0.6,1.3-0.8,2.2-0.8,2.8
		c0,0.3,0.2,0.4,0.6,0.4c0.3,0,0.6-0.1,0.9-0.2s0.4-0.2,0.5-0.2c0.2,0,0.2,0.1,0.2,0.2c0,0.7-0.3,1.2-1,1.7
		c-0.5,0.3-0.9,0.5-1.3,0.5s-0.7,0-1-0.1c-0.3-0.1-0.5-0.2-0.7-0.4c-0.4-0.4-0.7-1-0.7-1.7c0-0.9,0.3-2,0.8-3.3
		c0.4-0.9,0.7-1.5,0.8-1.8l0.4-0.8c0.2-0.5,0.4-0.9,0.4-1.1C125.6,362,125.4,361.9,125,361.9z"/>
	<path fill="#F7E7BF" d="M136.4,368.5c0.2,0,0.3,0.1,0.3,0.4c0,0.2-0.1,0.5-0.2,0.7c-0.2,0.4-0.6,0.9-1.2,1.2
		c-0.7,0.4-1.4,0.7-2.1,0.7c-1.2,0-2-0.5-2.3-1.6c-0.4-1.3,0.2-4,1.7-8.2c-0.9-0.1-1.3-0.2-1.4-0.5c0-0.1,0-0.1,0-0.2s0-0.2,0.1-0.3
		c0.1-0.1,0.2-0.2,0.3-0.3c0.3-0.2,0.5-0.3,0.8-0.3h0.9c0.8-1.9,1.4-3,1.7-3.3c0.2-0.1,0.4-0.2,0.6-0.2c0.2,0,0.4,0,0.5,0.1
		c0.1,0.1,0.3,0.1,0.4,0.2c0.2,0.2,0.4,0.5,0.4,0.8c0,0.2,0,0.3-0.1,0.5l-0.8,1.8h0.3c0.5,0,0.8,0,1.1,0l0.6,0c0.1,0,0.3,0,0.5,0
		c0.2,0,0.3,0.1,0.3,0.2c0,1-1.2,1.5-3.5,1.5h-0.1l-0.8,2c-0.9,2.4-1.3,4-1.3,5c0,0.3,0.1,0.5,0.2,0.6c0.1,0.1,0.3,0.2,0.7,0.2
		c0.3,0,0.6-0.1,0.9-0.2c0.3-0.1,0.5-0.2,0.7-0.4c0.2-0.1,0.4-0.3,0.5-0.4C136.2,368.6,136.3,368.5,136.4,368.5z"/>
</g>
<line fill="none" stroke="#F96816" stroke-width="2" stroke-miterlimit="10" stroke-dasharray="3.6376" x1="230.4" y1="119.9" x2="182.2" y2="119.9"/>
<line fill="none" stroke="#F96816" stroke-width="2" stroke-miterlimit="10" stroke-dasharray="3.6376" x1="304.8" y1="119.9" x2="270.2" y2="119.9"/>
<line fill="none" stroke="#F96816" stroke-width="2.4544" stroke-miterlimit="10" stroke-dasharray="4.4641" x1="302.9" y1="45.7" x2="302.9" y2="1.8"/>
<line fill="none" stroke="#F96816" stroke-width="2.4544" stroke-miterlimit="10" stroke-dasharray="4.4641" x1="302.9" y1="113.9" x2="302.9" y2="84.7"/>
<g>
	<path fill="#F96816" d="M306.3,72.5c0-0.2,0-0.5-0.1-0.7c0-0.2-0.1-0.4-0.1-0.5h1c0.1,0.1,0.1,0.4,0.2,0.6c0,0.3,0.1,0.5,0.1,0.8
		c0,1.7-0.9,2.5-2.7,2.5h-5.2v1.3h-0.6l-0.6-1.3l-1.9-0.6v-0.8h2v-2.5h1v2.5h5.2c0.5,0,0.9-0.1,1.2-0.4
		C306.1,73.2,306.3,72.9,306.3,72.5z"/>
	<path fill="#F96816" d="M302.8,61.9c1.4,0,2.5,0.4,3.3,1.1c0.8,0.7,1.2,1.7,1.2,3c0,0.8-0.2,1.5-0.6,2.1c-0.4,0.6-0.9,1.1-1.6,1.4
		c-0.7,0.3-1.5,0.5-2.4,0.5c-1.4,0-2.5-0.4-3.3-1.1c-0.8-0.7-1.2-1.7-1.2-3c0-1.2,0.4-2.2,1.2-2.9S301.4,61.9,302.8,61.9z
		 M302.8,68.6c1.1,0,2-0.2,2.6-0.7c0.6-0.4,0.9-1.1,0.9-2s-0.3-1.5-0.9-2c-0.6-0.5-1.4-0.7-2.6-0.7c-1.1,0-2,0.2-2.5,0.7
		c-0.6,0.5-0.9,1.1-0.9,2c0,0.9,0.3,1.5,0.9,2S301.7,68.6,302.8,68.6z"/>
	<path fill="#F96816" d="M307.4,55.5c0,0.6-0.1,1.1-0.3,1.6c-0.2,0.5-0.5,0.9-1,1.2v0.1c0.5-0.1,1-0.1,1.5-0.1h3.6v1.3h-12.7v-1.1
		l1.2-0.2v-0.1c-0.5-0.3-0.8-0.7-1-1.2c-0.2-0.5-0.3-1-0.3-1.6c0-1.2,0.4-2.1,1.2-2.7c0.8-0.6,1.9-0.9,3.3-0.9c1.4,0,2.6,0.3,3.4,1
		C307,53.5,307.4,54.4,307.4,55.5z M299.4,55.7c0,0.9,0.2,1.5,0.7,1.9c0.5,0.4,1.3,0.6,2.4,0.6h0.3c1.2,0,2.1-0.2,2.6-0.6
		s0.8-1.1,0.8-2c0-0.8-0.3-1.3-0.9-1.8c-0.6-0.4-1.5-0.6-2.5-0.6c-1.1,0-1.9,0.2-2.5,0.6C299.7,54.4,299.4,55,299.4,55.7z"/>
</g>
<g>
	<path fill="#F96816" d="M239.9,125.6h-1.3v-12.4h1.3V125.6z"/>
	<path fill="#F96816" d="M246.4,125.7c-1.3,0-2.3-0.4-3.1-1.2c-0.7-0.8-1.1-1.9-1.1-3.3c0-1.4,0.3-2.5,1-3.4s1.6-1.2,2.8-1.2
		c1.1,0,2,0.4,2.6,1.1s1,1.7,1,2.9v0.8h-6c0,1,0.3,1.8,0.8,2.3c0.5,0.5,1.2,0.8,2.1,0.8c0.9,0,1.9-0.2,2.8-0.6v1.2
		c-0.5,0.2-0.9,0.3-1.3,0.4C247.5,125.7,247,125.7,246.4,125.7z M246,117.8c-0.7,0-1.3,0.2-1.7,0.7c-0.4,0.5-0.7,1.1-0.7,1.9h4.6
		c0-0.8-0.2-1.5-0.6-1.9C247.3,118,246.7,117.8,246,117.8z"/>
	<path fill="#F96816" d="M255.8,117.8h-2.2v7.7h-1.3v-7.7h-1.6v-0.6l1.6-0.5v-0.5c0-2.2,0.9-3.2,2.8-3.2c0.5,0,1,0.1,1.6,0.3
		l-0.3,1.1c-0.5-0.2-0.9-0.2-1.3-0.2c-0.5,0-0.9,0.2-1.1,0.5c-0.2,0.3-0.4,0.9-0.4,1.6v0.6h2.2V117.8z"/>
	<path fill="#F96816" d="M260.3,124.6c0.2,0,0.5,0,0.7-0.1c0.2,0,0.4-0.1,0.5-0.1v1c-0.1,0.1-0.4,0.1-0.6,0.2
		c-0.3,0-0.5,0.1-0.8,0.1c-1.7,0-2.5-0.9-2.5-2.7v-5.2h-1.3v-0.6l1.3-0.6l0.6-1.9h0.8v2h2.5v1h-2.5v5.2c0,0.5,0.1,0.9,0.4,1.2
		C259.5,124.5,259.8,124.6,260.3,124.6z"/>
</g>
<g>
	<path fill="#19A8F7" d="M310.5,114.8L297,128.3c3.6,3.6,9.6,3.5,13.3-0.2C314.1,124.4,314.1,118.4,310.5,114.8z"/>
	<path fill="#F96816" d="M297.2,115c-3.7,3.7-3.8,9.7-0.2,13.3l13.5-13.5C306.9,111.2,300.9,111.2,297.2,115z"/>
</g>
<path d="M349.5,160.4l-44.7-41V180l13.5-13l7.9,18.2l12.6-5.6l-7.9-18.2L349.5,160.4z"/>
<polygon fill="#FFFFFF" points="333.7,177.6 328.1,180 319.7,160.4 309,170.6 309,128.2 340.2,157.1 324.8,158.1 "/>
</svg>
