<?xml version="1.0" encoding="utf-8"?>
<!-- Generator: Adobe Illustrator 18.0.0, SVG Export Plug-In . SVG Version: 6.00 Build 0)  -->
<!DOCTYPE svg PUBLIC "-//W3C//DTD SVG 1.1//EN" "http://www.w3.org/Graphics/SVG/1.1/DTD/svg11.dtd">
<svg version="1.1" id="Layer_1" xmlns="http://www.w3.org/2000/svg" xmlns:xlink="http://www.w3.org/1999/xlink" x="0px" y="0px"
	 width="339.9px" height="302px" viewBox="0 0 339.9 302" enable-background="new 0 0 339.9 302" xml:space="preserve">
<g>
	<path fill="#40B481" d="M1.8,14v-0.4c0-2.4,0.6-4.8,1.8-6.9c1-2,2.4-3.7,4-4.8C9.2,0.6,10.7,0,12.2,0c1.1,0,2,0.4,2.8,1.1
		c0.5,0.6,0.9,1.5,0.9,2.5c0,1.3-0.4,2.4-1.3,3.5c-0.5,0.6-1,1.1-1.6,1.5C12.7,8.8,12.5,9,12.2,9s-0.6,0-0.8-0.1
		c-0.1-0.1-0.4-0.3-0.5-0.4c-0.4-0.4-0.5-0.6-0.5-0.9s0.1-0.4,0.3-0.5c1.4-1,2.3-2,2.8-3c0.1-0.4,0.3-0.8,0.3-1.1
		c0-0.8-0.4-1.1-1.1-1.1c-1.1,0-2.4,0.6-3.7,1.9c-1.3,1.1-2.1,2.6-3,4.4c-0.9,1.9-1.3,3.5-1.3,5v0.5c0,1.9,0.4,3,1.1,3.7
		c0.3,0.3,0.6,0.4,1,0.4s0.8,0,1.1-0.1c0.4-0.1,0.6-0.3,1-0.4c0.5-0.3,1.3-0.8,2.1-1.5c0.3-0.3,0.5-0.1,0.6,0.1
		c0.1,0.3,0.3,0.5,0.3,0.8c0,0.5-0.1,0.8-0.3,1c-0.1,0.3-0.3,0.1-0.6,0.4c-0.4,0.3-0.6,0.5-1.1,0.6c-1,0.5-2,0.6-3,0.6
		s-1.8,0-2.4-0.3s-1.1-0.6-1.5-1C2.1,16.9,1.8,15.6,1.8,14z"/>
	<path fill="#40B481" d="M14.9,18.9c-0.1-0.1-0.3-0.3-0.4-0.4c-0.1-0.1-0.1-0.4-0.1-0.5s0-0.3,0.1-0.4s0.1-0.4,0.3-0.6
		c1.6-4.2,2.5-6.9,2.5-8.3c0-0.4-0.1-0.6-0.4-0.9l-0.3-0.1c-0.1,0-0.1-0.1-0.1-0.3s0-0.3,0.1-0.4c0.1-0.1,0.3-0.3,0.4-0.4
		c0.4-0.1,0.8-0.3,1.1-0.3c0.4,0,0.6,0,0.9,0.1c0.3,0.1,0.4,0.3,0.5,0.4C19.8,7.2,20,7.6,20,7.8s0,0.6-0.1,1c-0.1,0.4-0.1,0.6-0.3,1
		c-0.1,0.4-0.3,0.6-0.4,0.9C19.2,11,19,11.2,19,11.3c-0.1,0.3-0.1,0.5-0.1,0.5c0.3-0.1,0.4-0.4,0.4-0.5l0.5-0.9
		c1-1.9,2.1-3.2,3.2-3.8c0.3-0.1,0.6-0.3,1-0.3s0.8,0.1,1,0.4c0.3,0.3,0.4,0.6,0.4,1c0,0.4,0,0.6-0.1,0.9C25.1,9,25.1,9.2,25,9.3
		c-0.3,0.5-0.5,0.8-0.9,0.8c-0.1,0-0.3,0-0.3-0.1l-0.3-0.3c-0.3-0.3-0.5-0.4-0.8-0.4s-0.5,0.1-0.9,0.5c-0.4,0.4-0.8,0.8-1.1,1.3
		c-1.3,1.8-2.4,3.7-3.2,5.8l-0.8,1.4c-0.1,0.4-0.3,0.6-0.4,0.8c-0.1,0.1-0.3,0.3-0.5,0.3s-0.4,0-0.6-0.1C15.1,19,15,18.9,14.9,18.9z
		"/>
	<path fill="#40B481" d="M26.2,18.3c-0.4-0.4-0.6-0.8-0.8-1.3c-0.1-0.5-0.3-1.1-0.3-1.8s0.1-1.4,0.3-2.1c0.1-0.8,0.4-1.4,0.8-2
		s0.8-1.3,1.1-1.9c0.4-0.6,1-1.1,1.5-1.5c1.3-0.9,2.4-1.4,3.8-1.4c1.6,0,2.8,0.8,3.4,2.3c0.4,1.1,0.5,2.4,0.1,3.9
		c-0.4,1.4-1,2.6-1.9,3.9c-0.9,1.1-2,2-3.3,2.5c-0.6,0.3-1.3,0.4-1.9,0.4S28,19.2,27.5,19C27,18.9,26.6,18.7,26.2,18.3z M28.6,12.4
		c-0.3,0.6-0.5,1.3-0.6,1.9c-0.1,0.6-0.3,1.3-0.3,1.8c0,0.5,0.1,1,0.3,1.4c0.1,0.4,0.5,0.5,0.8,0.5s0.8-0.1,1.1-0.4
		c0.4-0.3,0.8-0.6,1-1c0.3-0.4,0.6-0.9,1-1.5c0.4-0.6,0.6-1.1,0.8-1.8c0.5-1.3,0.8-2.5,0.8-3.5c0-0.9-0.1-1.5-0.5-1.8
		c-0.1-0.1-0.4-0.1-0.6-0.1s-0.6,0.1-0.9,0.4s-0.6,0.5-0.9,1c-0.3,0.5-0.8,0.9-1,1.4C29.3,11.1,28.9,11.7,28.6,12.4z"/>
	<path fill="#40B481" d="M40.3,18c0,0.1-0.3,0.8-0.5,1.9c-0.3,1.1-0.6,2.1-0.9,2.8c-0.5,1.5-0.9,2.5-1.3,2.9c-0.3,0.3-0.6,0.5-1,0.5
		c-0.5,0-0.9-0.3-1-0.6c-0.1-0.1-0.1-0.3-0.1-0.4c0-0.1,0.1-0.5,0.4-1c0.6-1.4,1.5-4,2.6-7.9c0.4-1.6,0.8-2.6,0.9-3.2l0.4-1.5
		c0.3-1,0.4-1.8,0.5-2c0.1-0.3,0-0.6-0.1-0.8C40.1,8.6,40,8.4,40,8.3s-0.4-0.5-0.5-0.6c-0.1-0.1-0.1-0.1-0.1-0.3
		c0-0.1,0.1-0.3,0.3-0.4c0.1-0.1,0.3-0.3,0.5-0.4c0.4-0.1,0.8-0.3,1.1-0.3s0.6,0,0.9,0.1c0.3,0.1,0.4,0.3,0.5,0.4
		C42.9,7.3,43,7.6,43,7.8c-0.1,0.6-0.1,1.1-0.3,1.6c1.4-2,2.9-3,4.4-3c1.4,0,2.4,0.8,2.8,2.1c0.1,0.5,0.3,1.1,0.3,1.9
		c0,0.8-0.1,1.5-0.4,2.1c-0.3,0.6-0.5,1.4-0.9,2.1c-0.4,0.8-0.8,1.3-1.3,1.8c-0.5,0.5-1,1-1.6,1.4c-1.1,0.9-2.3,1.3-3.4,1.3
		S40.9,18.8,40.3,18z M42.2,12.7c-0.3,0.6-0.5,1.1-0.8,1.8s-0.3,1.1-0.3,1.6c0,0.5,0.1,0.9,0.3,1.1c0.1,0.3,0.5,0.5,0.9,0.5
		c0.4,0,0.8-0.1,1.3-0.4s0.8-0.5,1.1-0.9c0.4-0.4,0.8-0.8,1-1.3c0.3-0.5,0.6-1,0.9-1.6c0.5-1.3,0.8-2.4,0.8-3.4c0-0.6-0.1-1-0.3-1.4
		c-0.1-0.4-0.4-0.5-0.8-0.5c-0.4,0-0.6,0.1-1,0.4c-0.4,0.3-0.8,0.6-1.1,1c-0.4,0.4-0.8,0.9-1.1,1.4C42.7,11.6,42.5,12.1,42.2,12.7z"
		/>
	<path fill="#40B481" d="M54.2,18c0,0.1-0.3,0.8-0.5,1.9c-0.3,1.1-0.6,2.1-0.9,2.8c-0.5,1.5-0.9,2.5-1.3,2.9c-0.3,0.3-0.6,0.5-1,0.5
		c-0.5,0-0.9-0.3-1-0.6c-0.1-0.1-0.1-0.3-0.1-0.4c0-0.1,0.1-0.5,0.4-1c0.6-1.4,1.5-4,2.6-7.9c0.4-1.6,0.8-2.6,0.9-3.2l0.4-1.5
		c0.3-1,0.4-1.8,0.5-2c0.1-0.3,0-0.6-0.1-0.8c-0.1-0.1-0.3-0.3-0.3-0.4s-0.4-0.5-0.5-0.6c-0.1-0.1-0.1-0.1-0.1-0.3
		c0-0.1,0.1-0.3,0.3-0.4c0.1-0.1,0.3-0.3,0.5-0.4c0.4-0.1,0.8-0.3,1.1-0.3s0.6,0,0.9,0.1c0.3,0.1,0.4,0.3,0.5,0.4
		c0.3,0.4,0.4,0.6,0.4,0.9c-0.1,0.6-0.1,1.1-0.3,1.6c1.4-2,2.9-3,4.4-3c1.4,0,2.4,0.8,2.8,2.1c0.1,0.5,0.3,1.1,0.3,1.9
		c0,0.8-0.1,1.5-0.4,2.1c-0.3,0.6-0.5,1.4-0.9,2.1c-0.4,0.8-0.8,1.3-1.3,1.8c-0.5,0.5-1,1-1.6,1.4c-1.1,0.9-2.3,1.3-3.4,1.3
		S54.7,18.8,54.2,18z M56.1,12.7c-0.3,0.6-0.5,1.1-0.8,1.8s-0.3,1.1-0.3,1.6c0,0.5,0.1,0.9,0.3,1.1c0.1,0.3,0.5,0.5,0.9,0.5
		c0.4,0,0.8-0.1,1.3-0.4s0.8-0.5,1.1-0.9c0.4-0.4,0.8-0.8,1-1.3c0.3-0.5,0.6-1,0.9-1.6c0.5-1.3,0.8-2.4,0.8-3.4c0-0.6-0.1-1-0.3-1.4
		c-0.1-0.4-0.4-0.5-0.8-0.5c-0.4,0-0.5,0-0.9,0.3c-0.4,0.3-0.8,0.6-1.1,1s-0.8,0.9-1.1,1.4S56.4,12.1,56.1,12.7z"/>
	<path fill="#40B481" d="M65.9,14.9c0-0.8,0.1-1.4,0.4-2c0.3-0.6,0.5-1.3,0.9-1.9c0.4-0.6,0.8-1.1,1.3-1.8c0.5-0.6,1-1,1.5-1.4
		c1.1-0.9,2.4-1.3,3.5-1.3c1.4,0,2.4,0.6,2.8,1.8c0.1,0.4,0.3,0.9,0.3,1.4s-0.1,0.9-0.4,1.3c-0.3,0.4-0.5,0.9-0.8,1.3
		c-0.3,0.4-0.8,0.8-1.3,1c-0.5,0.3-1,0.5-1.5,0.8c-1.1,0.4-2.4,0.6-3.8,0.6c0,0.1,0,0.3,0,0.5c0,0.3,0,0.5,0.1,0.8
		c0.1,0.3,0.1,0.5,0.3,0.8c0.3,0.5,0.8,0.8,1.3,0.8c1,0,1.9-0.3,2.8-0.9c0.4-0.1,0.6-0.4,0.8-0.6s0.4-0.3,0.5-0.3
		c0.1,0,0.3,0.1,0.4,0.3C75,16,75,16.3,75,16.5c0,0.4-0.1,0.8-0.4,1.1c-1,1-2.5,1.5-4.7,1.5c-1.3,0-2.1-0.4-2.9-1.1
		C66.3,17.4,65.9,16.3,65.9,14.9z M73.1,8.1c-0.9,0-1.6,0.6-2.5,1.8c-0.6,1-1.3,2.3-1.6,3.7c1.4-0.1,2.5-0.6,3.5-1.6
		c0.9-0.9,1.4-1.8,1.4-2.5C73.9,8.6,73.8,8.1,73.1,8.1z"/>
	<path fill="#40B481" d="M77.8,18.9c-0.1-0.1-0.3-0.3-0.4-0.4c-0.1-0.1-0.1-0.3-0.1-0.4c0-0.1,0-0.3,0.1-0.4
		c0.1-0.1,0.1-0.4,0.3-0.6c1.6-4.2,2.5-6.9,2.5-8.3c0-0.4-0.1-0.6-0.4-0.9l-0.3-0.1c-0.1,0-0.1-0.1-0.1-0.3c0-0.1,0-0.3,0.1-0.4
		c0.1-0.1,0.3-0.3,0.4-0.4c0.4-0.1,0.8-0.3,1.1-0.3s0.6,0,0.9,0.1c0.3,0.1,0.4,0.3,0.5,0.4C82.7,7.3,83,7.7,83,7.9
		c0,0.3,0,0.6-0.1,1c-0.1,0.4-0.3,0.5-0.4,0.9c-0.1,0.4-0.3,0.6-0.4,0.9C82,11,82,11.2,82,11.3c-0.1,0.3-0.1,0.5-0.1,0.5
		c0.3-0.1,0.4-0.4,0.4-0.5l0.5-0.9c1-1.9,2.1-3.2,3.2-3.8c0.3-0.1,0.6-0.3,1-0.3c0.4,0,0.8,0.1,1,0.4c0.3,0.3,0.4,0.6,0.4,1
		c0,0.4,0,0.6-0.1,0.9C88,9,88,9.2,87.9,9.3c-0.3,0.5-0.5,0.8-0.9,0.8c-0.1,0-0.3,0-0.3-0.1l-0.3-0.3c-0.3-0.3-0.5-0.4-0.8-0.4
		s-0.8,0.1-1,0.5c-0.3,0.4-0.8,0.8-1.1,1.3c-1.3,1.8-2.4,3.7-3.2,5.8l-0.5,1.4c-0.1,0.4-0.3,0.6-0.4,0.8c-0.1,0.1-0.3,0.3-0.5,0.3
		c-0.3,0-0.4,0-0.6-0.1C78.2,19,77.9,18.9,77.8,18.9z"/>
</g>
<g>
	<path fill="#969696" d="M123.8,160.4v-0.2c0.1-1.7,0.5-3.3,1.3-4.8c0.7-1.4,1.7-2.5,2.8-3.4c1.1-0.8,2.2-1.3,3.2-1.3
		c0.8,0,1.4,0.3,1.9,0.8c0.4,0.5,0.6,1.1,0.6,1.8c0,0.8-0.3,1.7-0.9,2.5c-0.4,0.5-0.7,0.8-1.1,1c-0.2,0.1-0.4,0.2-0.5,0.2
		c-0.2,0-0.3,0-0.5-0.1c-0.1-0.1-0.3-0.2-0.4-0.3c-0.2-0.2-0.3-0.4-0.3-0.6c0-0.2,0-0.3,0.1-0.4c0.9-0.7,1.6-1.4,1.9-2.1
		c0.1-0.3,0.2-0.5,0.2-0.8c0-0.6-0.3-0.8-0.8-0.8c-0.8,0-1.7,0.4-2.5,1.3c-0.8,0.8-1.5,1.9-2.1,3.1c-0.6,1.3-0.9,2.5-0.9,3.5v0.3
		c0,1.3,0.3,2.1,0.8,2.5c0.2,0.1,0.4,0.2,0.7,0.2s0.5,0,0.8-0.1c0.2-0.1,0.5-0.2,0.7-0.3c0.4-0.2,0.9-0.5,1.5-1
		c0.2-0.1,0.3-0.1,0.5,0.1c0.1,0.1,0.2,0.3,0.2,0.5c0,0.3,0,0.5-0.1,0.7c-0.1,0.1-0.2,0.3-0.5,0.4c-0.2,0.2-0.5,0.3-0.8,0.4
		c-0.7,0.3-1.4,0.5-2.1,0.5s-1.2-0.1-1.7-0.3c-0.4-0.2-0.8-0.4-1.1-0.7C124.1,162.5,123.8,161.6,123.8,160.4z"/>
	<path fill="#969696" d="M133.8,163.4c-0.2-0.2-0.4-0.5-0.6-0.9c-0.1-0.4-0.2-0.8-0.2-1.2s0.1-1,0.2-1.5c0.1-0.5,0.3-1,0.5-1.4
		c0.2-0.5,0.5-0.9,0.8-1.3c0.3-0.4,0.7-0.7,1-1c0.8-0.6,1.7-1,2.6-1c1.2,0,2,0.5,2.4,1.6c0.3,0.7,0.3,1.7,0.1,2.7s-0.7,1.9-1.3,2.7
		s-1.4,1.4-2.2,1.7c-0.4,0.2-0.9,0.3-1.3,0.3s-0.8-0.1-1.1-0.2S134,163.7,133.8,163.4z M135.4,159.3c-0.2,0.4-0.3,0.9-0.4,1.3
		c-0.1,0.4-0.1,0.9-0.1,1.3c0,0.4,0.1,0.7,0.2,0.9c0.1,0.2,0.3,0.3,0.6,0.3s0.5-0.1,0.8-0.3s0.5-0.4,0.7-0.7s0.5-0.6,0.7-1
		s0.4-0.8,0.6-1.2c0.3-0.9,0.5-1.7,0.5-2.5c0-0.6-0.1-1-0.4-1.2c-0.1-0.1-0.2-0.1-0.4-0.1s-0.4,0.1-0.6,0.3
		c-0.2,0.2-0.5,0.4-0.7,0.7s-0.5,0.6-0.7,1S135.6,158.9,135.4,159.3z"/>
	<path fill="#969696" d="M142.8,163.4c-0.2-0.2-0.4-0.5-0.6-0.9c-0.1-0.4-0.2-0.8-0.2-1.2s0.1-1,0.2-1.5c0.1-0.5,0.3-1,0.5-1.4
		c0.2-0.5,0.5-0.9,0.8-1.3c0.3-0.4,0.7-0.7,1-1c0.8-0.6,1.7-1,2.6-1c1.2,0,2,0.5,2.4,1.6c0.3,0.7,0.3,1.7,0.1,2.7s-0.7,1.9-1.3,2.7
		s-1.4,1.4-2.2,1.7c-0.4,0.2-0.9,0.3-1.3,0.3s-0.8-0.1-1.1-0.2S143,163.7,142.8,163.4z M144.4,159.3c-0.2,0.4-0.3,0.9-0.4,1.3
		c-0.1,0.4-0.1,0.9-0.1,1.3c0,0.4,0.1,0.7,0.2,0.9c0.1,0.2,0.3,0.3,0.6,0.3s0.5-0.1,0.8-0.3s0.5-0.4,0.7-0.7s0.5-0.6,0.7-1
		s0.4-0.8,0.6-1.2c0.3-0.9,0.5-1.7,0.5-2.5c0-0.6-0.1-1-0.4-1.2c-0.1-0.1-0.2-0.1-0.4-0.1s-0.4,0.1-0.6,0.3
		c-0.2,0.2-0.5,0.4-0.7,0.7s-0.5,0.6-0.7,1S144.6,158.9,144.4,159.3z"/>
	<path fill="#969696" d="M151,163.8c-0.1-0.1-0.2-0.2-0.3-0.3s-0.1-0.2-0.1-0.3s0-0.2,0-0.3s0.1-0.2,0.1-0.4
		c1.2-2.9,1.7-4.8,1.7-5.8c0-0.3-0.1-0.5-0.3-0.6l-0.2-0.1c-0.1,0-0.1-0.1-0.1-0.2s0-0.2,0.1-0.3s0.2-0.2,0.3-0.2
		c0.2-0.1,0.5-0.2,0.8-0.2s0.5,0,0.6,0.1s0.3,0.1,0.4,0.2c0.2,0.2,0.3,0.4,0.3,0.7s0,0.5-0.1,0.7s-0.1,0.5-0.2,0.7
		c-0.1,0.2-0.1,0.4-0.2,0.6c-0.1,0.2-0.1,0.4-0.1,0.5c0,0.2-0.1,0.3-0.1,0.4c0.1-0.1,0.2-0.2,0.2-0.4l0.3-0.6
		c0.7-1.3,1.5-2.2,2.2-2.7c0.2-0.1,0.5-0.2,0.7-0.2s0.5,0.1,0.7,0.3s0.3,0.4,0.3,0.7c0,0.2,0,0.4-0.1,0.6c0,0.2-0.1,0.3-0.2,0.5
		c-0.2,0.3-0.4,0.5-0.7,0.5c-0.1,0-0.1,0-0.2-0.1l-0.2-0.2c-0.2-0.2-0.4-0.2-0.5-0.2s-0.4,0.1-0.6,0.3s-0.5,0.5-0.8,0.9
		c-0.9,1.2-1.6,2.5-2.2,4l-0.4,1c-0.1,0.2-0.2,0.4-0.3,0.5s-0.2,0.2-0.3,0.2s-0.3,0-0.4-0.1S151.2,163.9,151,163.8z"/>
	<path fill="#969696" d="M166.7,162.3c0.1,0,0.2,0.1,0.2,0.2c0,0.5-0.3,0.9-0.8,1.3c-0.3,0.2-0.7,0.4-1,0.4s-0.5,0-0.7-0.1
		s-0.3-0.2-0.5-0.3c-0.3-0.3-0.5-0.8-0.5-1.4c0-0.1,0-0.3,0.1-0.6c-0.5,0.7-0.9,1.2-1.2,1.5c-0.7,0.6-1.3,0.9-2,0.9
		c-1,0-1.7-0.5-2-1.4c-0.1-0.3-0.2-0.8-0.2-1.3s0.1-1,0.2-1.5s0.4-1,0.6-1.5c0.3-0.5,0.6-0.9,0.9-1.3c0.4-0.4,0.7-0.8,1.1-1
		c0.8-0.6,1.6-0.9,2.3-0.9s1.2,0.3,1.6,0.8c1-3.4,1.7-5.4,2.2-6c0.2-0.3,0.4-0.4,0.7-0.4c0.4,0,0.7,0.1,0.9,0.3
		c0.1,0.1,0.1,0.1,0.1,0.2s0,0.2-0.1,0.4s-0.2,0.5-0.4,1c-0.5,1.3-0.9,2.3-1.1,2.9c-0.5,1.6-0.9,2.7-1.1,3.3l-0.5,1.6
		c-0.4,1.4-0.6,2.3-0.6,2.7s0.1,0.6,0.4,0.6c0.3,0,0.5,0,0.6-0.1l0.3-0.2C166.6,162.3,166.7,162.3,166.7,162.3z M160.8,162.8
		c0.6,0,1.3-0.6,2-1.7c0.8-1.2,1.3-2.5,1.7-3.9c0-0.4-0.2-0.7-0.5-0.9c-0.1-0.1-0.3-0.1-0.5-0.1s-0.5,0.1-0.7,0.2
		c-0.3,0.2-0.5,0.4-0.8,0.6s-0.5,0.6-0.7,0.9c-0.2,0.3-0.4,0.7-0.6,1.1c-0.4,0.8-0.5,1.7-0.5,2.5
		C160.2,162.4,160.4,162.8,160.8,162.8z"/>
	<path fill="#969696" d="M170.8,162.4c0.1,0,0.2,0.1,0.2,0.3c0,0.3-0.1,0.5-0.4,0.8c-0.3,0.4-0.8,0.6-1.4,0.6
		c-0.7,0-1.1-0.3-1.4-0.8c-0.1-0.2-0.1-0.4-0.1-0.7s0-0.6,0.1-0.9c0.1-0.3,0.2-0.7,0.4-1c0.1-0.4,0.3-0.7,0.5-1.1l0.5-1.1
		c0.3-0.8,0.5-1.3,0.5-1.6s0-0.4-0.1-0.5s-0.1-0.1-0.2-0.2l-0.2-0.1c-0.1,0-0.1-0.1-0.1-0.2s0-0.2,0.1-0.3s0.2-0.2,0.3-0.2
		c0.3-0.1,0.6-0.2,0.9-0.2c0.8,0,1.3,0.2,1.3,0.7s-0.1,1.1-0.4,1.8c-0.3,0.7-0.5,1.2-0.7,1.6l-0.5,1.2c-0.4,0.9-0.6,1.5-0.6,1.9
		c0,0.3,0.1,0.4,0.4,0.4c0.2,0,0.4,0,0.6-0.1C170.7,162.4,170.8,162.4,170.8,162.4z M172.6,153.1c-0.1,0.1-0.3,0.2-0.4,0.3
		s-0.3,0.1-0.5,0.2s-0.3,0-0.5-0.1s-0.3-0.2-0.4-0.3c-0.2-0.3-0.4-0.6-0.4-0.9c0-0.3,0-0.5,0.1-0.7c0.1-0.1,0.2-0.3,0.4-0.4
		c0.3-0.2,0.5-0.3,0.8-0.3c0.2,0,0.4,0,0.6,0.1s0.3,0.1,0.4,0.2c0.3,0.2,0.4,0.4,0.4,0.7s0,0.5-0.1,0.7
		C172.8,152.8,172.7,153,172.6,153.1z"/>
	<path fill="#969696" d="M179.1,156.8c-0.2,0-0.4,0.2-0.8,0.5s-0.6,0.6-0.8,0.9l-0.7,0.9l-1.4,1.8c-0.3,0.6-0.6,1.2-0.8,1.6l-0.5,1
		c-0.1,0.2-0.2,0.4-0.3,0.5s-0.2,0.2-0.4,0.2s-0.3,0-0.4-0.1s-0.3-0.1-0.4-0.2c-0.2-0.2-0.3-0.4-0.3-0.6c0-0.1,0.1-0.3,0.2-0.5
		l0.3-0.7c0.1-0.2,0.2-0.5,0.4-0.8l0.5-1.2c0.7-1.7,1-2.8,1-3.3c0-0.3-0.1-0.5-0.3-0.6l-0.2-0.1c-0.1,0-0.1-0.1-0.1-0.2
		s0-0.2,0.1-0.3s0.2-0.2,0.3-0.2c0.3-0.1,0.5-0.2,0.8-0.2s0.5,0,0.6,0.1s0.3,0.1,0.4,0.2c0.2,0.2,0.3,0.4,0.3,0.6
		c0,0.2,0,0.4-0.1,0.7c-0.1,0.2-0.1,0.4-0.2,0.7c-0.1,0.2-0.2,0.4-0.3,0.7c-0.1,0.2-0.2,0.4-0.2,0.6l-0.2,0.4c0,0.1-0.1,0.1,0,0.1
		c0.6-0.9,1.1-1.4,1.3-1.7l0.6-0.7c0.4-0.5,0.8-0.9,1-1c0.5-0.3,0.9-0.5,1.2-0.5s0.5,0,0.7,0.1s0.4,0.2,0.5,0.3
		c0.3,0.3,0.5,0.7,0.5,1.1c0,0.5-0.1,0.9-0.3,1.4s-0.4,0.9-0.5,1.2s-0.3,0.6-0.4,0.9c-0.4,1-0.6,1.6-0.6,2.1c0,0.2,0.2,0.3,0.5,0.3
		c0.2,0,0.5-0.1,0.7-0.2c0.2-0.1,0.3-0.2,0.4-0.2c0.1,0,0.2,0.1,0.2,0.2c0,0.5-0.3,0.9-0.8,1.3c-0.3,0.2-0.7,0.4-1,0.4
		s-0.5,0-0.7-0.1s-0.4-0.2-0.5-0.3c-0.3-0.3-0.5-0.7-0.5-1.3c0-0.7,0.2-1.5,0.6-2.5c0.3-0.7,0.5-1.1,0.6-1.4l0.3-0.6
		c0.2-0.4,0.3-0.7,0.3-0.9S179.5,156.8,179.1,156.8z"/>
	<path fill="#969696" d="M189.4,161.7c0,0.5,0.2,0.8,0.6,0.8c0.3,0,0.5,0,0.6-0.1c0.2-0.1,0.3-0.1,0.3-0.1c0.1,0,0.2,0.1,0.2,0.2
		c0,0.5-0.3,0.9-0.8,1.3c-0.5,0.4-1.1,0.5-1.7,0.3c-0.4-0.1-0.6-0.4-0.8-0.8c-0.1-0.2-0.1-0.4-0.1-0.6c0-0.3,0-0.6,0.1-0.9
		c-0.5,1.1-1.2,1.8-2,2.2c-0.3,0.2-0.6,0.2-1,0.2s-0.7-0.1-0.9-0.2c-0.3-0.1-0.5-0.3-0.7-0.6c-0.4-0.5-0.5-1.2-0.5-2
		c0-1,0.3-2,0.9-3c0.5-0.9,1.2-1.7,2-2.2c0.8-0.6,1.5-0.9,2.2-0.9s1.2,0.3,1.7,1c0.4-0.6,0.7-1,1-1s0.6,0.1,0.7,0.2
		c0.3,0.2,0.4,0.4,0.3,0.6c-1.4,2.9-2.2,4.8-2.2,5.5C189.4,161.5,189.4,161.6,189.4,161.7z M184.7,161.8c0,0.7,0.2,1,0.7,1
		c0.3,0,0.8-0.3,1.2-0.9c0.7-0.8,1.4-2,1.9-3.4c0.2-0.4,0.3-0.9,0.4-1.3c0-0.4-0.2-0.7-0.5-0.9c-0.1-0.1-0.3-0.1-0.5-0.1
		s-0.4,0.1-0.7,0.2s-0.5,0.4-0.8,0.6c-0.3,0.3-0.5,0.6-0.7,0.9c-0.2,0.4-0.4,0.7-0.6,1.1C184.8,160,184.7,160.9,184.7,161.8z"/>
	<path fill="#969696" d="M197.3,161.8c0.2,0,0.2,0.1,0.2,0.3s-0.1,0.4-0.2,0.5c-0.2,0.3-0.5,0.6-0.9,0.9c-0.5,0.3-1.1,0.5-1.6,0.5
		c-0.9,0-1.5-0.4-1.7-1.2c-0.3-1,0.1-3,1.3-6.2c-0.7-0.1-1-0.2-1.1-0.3c0-0.1,0-0.1,0-0.2c0-0.1,0-0.1,0.1-0.2
		c0.1-0.1,0.1-0.2,0.2-0.2c0.2-0.2,0.4-0.2,0.6-0.2h0.7c0.6-1.4,1.1-2.3,1.3-2.5c0.1-0.1,0.3-0.1,0.4-0.1s0.3,0,0.4,0.1
		c0.1,0,0.2,0.1,0.3,0.2c0.2,0.2,0.3,0.4,0.3,0.6c0,0.1,0,0.2-0.1,0.4l-0.6,1.4h0.2c0.4,0,0.6,0,0.9,0h0.5c0.1,0,0.2,0,0.4,0
		s0.2,0.1,0.2,0.2c0,0.8-0.9,1.1-2.7,1.1h-0.1l-0.6,1.5c-0.7,1.8-1,3-1,3.7c0,0.2,0,0.4,0.1,0.5s0.3,0.2,0.5,0.2s0.5,0,0.7-0.1
		s0.4-0.2,0.5-0.3c0.2-0.1,0.3-0.2,0.4-0.3C197.1,161.8,197.2,161.8,197.3,161.8z"/>
	<path fill="#969696" d="M198.7,161c0-0.5,0.1-1,0.2-1.4c0.1-0.5,0.3-0.9,0.6-1.3c0.2-0.4,0.5-0.8,0.8-1.2s0.7-0.7,1.1-1
		c0.8-0.6,1.6-0.9,2.5-0.9c1,0,1.6,0.4,2,1.2c0.1,0.3,0.2,0.6,0.2,1s-0.1,0.7-0.2,1c-0.1,0.3-0.3,0.6-0.6,0.9
		c-0.2,0.3-0.5,0.5-0.9,0.7c-0.3,0.2-0.7,0.4-1.1,0.5c-0.8,0.3-1.7,0.4-2.6,0.4c0,0.1,0,0.2,0,0.4s0,0.3,0.1,0.5
		c0,0.2,0.1,0.4,0.2,0.5c0.2,0.3,0.5,0.5,0.9,0.5c0.7,0,1.3-0.2,1.9-0.6c0.2-0.1,0.4-0.3,0.5-0.4c0.1-0.1,0.3-0.2,0.4-0.2
		c0.1,0,0.2,0.1,0.3,0.2c0.1,0.1,0.1,0.3,0.1,0.4c0,0.3-0.1,0.6-0.3,0.8c-0.7,0.7-1.8,1.1-3.2,1.1c-0.8,0-1.5-0.3-2-0.8
		C198.9,162.8,198.7,162,198.7,161z M203.7,156.3c-0.6,0-1.2,0.4-1.7,1.2c-0.5,0.7-0.8,1.5-1.1,2.5c1-0.1,1.8-0.5,2.5-1.1
		c0.6-0.6,1-1.2,1-1.8C204.3,156.6,204.1,156.3,203.7,156.3z"/>
	<path fill="#969696" d="M206.5,162.5c0-0.2,0-0.3,0.1-0.5s0.2-0.3,0.3-0.4c0.2-0.2,0.5-0.3,0.8-0.3c0.2,0,0.3,0.1,0.3,0.4
		c0,0.6,0.2,1,0.6,1.2c0.1,0.1,0.3,0.1,0.4,0.1s0.3,0,0.4-0.1s0.2-0.1,0.3-0.2c0.2-0.2,0.3-0.4,0.3-0.6c0-0.2-0.1-0.4-0.2-0.6
		c-0.1-0.2-0.2-0.4-0.4-0.6l-0.5-0.7c-0.7-0.9-1-1.8-1-2.5c0-0.6,0.3-1.2,0.8-1.7c0.6-0.6,1.4-0.9,2.4-0.9c0.8,0,1.5,0.2,2,0.6
		c0.4,0.3,0.6,0.7,0.6,1.2s-0.2,0.8-0.5,1.1c-0.3,0.2-0.6,0.3-0.9,0.3c-0.1,0-0.2-0.1-0.3-0.2s-0.1-0.2,0-0.4c0-0.1,0.1-0.3,0.1-0.4
		s0-0.3-0.1-0.4s-0.1-0.2-0.2-0.3c-0.2-0.2-0.4-0.3-0.6-0.3c-0.2,0-0.4,0-0.5,0.1c-0.1,0-0.3,0.1-0.4,0.2c-0.2,0.2-0.3,0.5-0.3,0.8
		s0.1,0.6,0.2,0.8s0.2,0.4,0.4,0.7s0.3,0.4,0.5,0.7c0.2,0.2,0.3,0.5,0.5,0.7c0.4,0.6,0.5,1.1,0.5,1.5s-0.1,0.8-0.3,1.1
		s-0.4,0.5-0.7,0.8c-0.6,0.5-1.3,0.7-2.1,0.7c-0.7,0-1.3-0.2-1.7-0.5C206.7,163.3,206.5,162.9,206.5,162.5z"/>
</g>
<g>
	<g>
		<rect x="296.1" y="30.1" fill="#5B74BC" width="2" height="1.2"/>
	</g>
	<g>
		<path fill="#5B74BC" d="M298.1,296.2h-2v-2.4h2V296.2z M298.1,291.4h-2V289h2V291.4z M298.1,286.6h-2v-2.4h2V286.6z M298.1,281.8
			h-2v-2.4h2V281.8z M298.1,277h-2v-2.4h2V277z M298.1,272.1h-2v-2.4h2V272.1z M298.1,267.3h-2v-2.4h2V267.3z M298.1,262.5h-2v-2.4
			h2V262.5z M298.1,257.7h-2v-2.4h2V257.7z M298.1,252.9h-2v-2.4h2V252.9z M298.1,248.1h-2v-2.4h2V248.1z M298.1,243.2h-2v-2.4h2
			V243.2z M298.1,238.5h-2v-2.4h2V238.5z M298.1,233.7h-2v-2.4h2V233.7z M298.1,228.8h-2v-2.4h2V228.8z M298.1,224h-2v-2.4h2V224z
			 M298.1,219.1h-2v-2.4h2V219.1z M298.1,214.4h-2V212h2V214.4z M298.1,209.6h-2v-2.4h2V209.6z M298.1,204.7h-2v-2.4h2V204.7z
			 M298.1,199.9h-2v-2.4h2V199.9z M298.1,195.1h-2v-2.4h2V195.1z M298.1,190.3h-2v-2.4h2V190.3z M298.1,185.5h-2v-2.4h2V185.5z
			 M298.1,180.7h-2v-2.4h2V180.7z M298.1,175.8h-2v-2.4h2V175.8z M298.1,171h-2v-2.4h2V171z M298.1,166.2h-2v-2.4h2V166.2z
			 M298.1,161.4h-2V159h2V161.4z M298.1,156.6h-2v-2.4h2V156.6z M298.1,151.7h-2v-2.4h2V151.7z M298.1,146.9h-2v-2.4h2V146.9z
			 M298.1,142.1h-2v-2.4h2V142.1z M298.1,137.3h-2v-2.4h2V137.3z M298.1,132.5h-2v-2.4h2V132.5z M298.1,127.7h-2v-2.4h2V127.7z
			 M298.1,122.8h-2v-2.4h2V122.8z M298.1,118h-2v-2.4h2V118z M298.1,113.2h-2v-2.4h2V113.2z M298.1,108.4h-2V106h2V108.4z
			 M298.1,103.6h-2v-2.4h2V103.6z M298.1,98.7h-2v-2.4h2V98.7z M298.1,93.9h-2v-2.4h2V93.9z M298.1,89.2h-2v-2.4h2V89.2z
			 M298.1,84.3h-2v-2.4h2V84.3z M298.1,79.5h-2v-2.4h2V79.5z M298.1,74.7h-2v-2.4h2V74.7z M298.1,69.8h-2v-2.4h2V69.8z M298.1,65.1
			h-2v-2.4h2V65.1z M298.1,60.3h-2v-2.4h2V60.3z M298.1,55.4h-2V53h2V55.4z M298.1,50.6h-2v-2.4h2V50.6z M298.1,45.8h-2v-2.4h2V45.8
			z M298.1,41h-2v-2.4h2V41z M298.1,36.2h-2v-2.4h2V36.2z"/>
	</g>
	<g>
		<rect x="296.1" y="298.6" fill="#5B74BC" width="2" height="1.2"/>
	</g>
</g>
<g>
	<g>
		<rect x="300.4" y="30.1" fill="#7C7C7C" width="2" height="1.2"/>
	</g>
	<g>
		<rect x="300.4" y="298.6" fill="#7C7C7C" width="2" height="1.2"/>
	</g>
</g>
<g>
	<g>
		<rect x="38.5" y="298.6" fill="#5B74BC" width="2" height="1.2"/>
	</g>
	<g>
		<path fill="#5B74BC" d="M40.5,296.2h-2v-2.4h2V296.2z M40.5,291.4h-2V289h2V291.4z M40.5,286.6h-2v-2.4h2V286.6z M40.5,281.8h-2
			v-2.4h2V281.8z M40.5,277h-2v-2.4h2V277z M40.5,272.1h-2v-2.4h2V272.1z M40.5,267.3h-2v-2.4h2V267.3z M40.5,262.5h-2v-2.4h2V262.5
			z M40.5,257.7h-2v-2.4h2V257.7z M40.5,252.9h-2v-2.4h2V252.9z M40.5,248.1h-2v-2.4h2V248.1z M40.5,243.2h-2v-2.4h2V243.2z
			 M40.5,238.5h-2v-2.4h2V238.5z M40.5,233.7h-2v-2.4h2V233.7z M40.5,228.8h-2v-2.4h2V228.8z M40.5,224h-2v-2.4h2V224z M40.5,219.1
			h-2v-2.4h2V219.1z M40.5,214.4h-2V212h2V214.4z M40.5,209.6h-2v-2.4h2V209.6z M40.5,204.7h-2v-2.4h2V204.7z M40.5,199.9h-2v-2.4h2
			V199.9z M40.5,195.1h-2v-2.4h2V195.1z M40.5,190.3h-2v-2.4h2V190.3z M40.5,185.5h-2v-2.4h2V185.5z M40.5,180.7h-2v-2.4h2V180.7z
			 M40.5,175.8h-2v-2.4h2V175.8z M40.5,171h-2v-2.4h2V171z M40.5,166.2h-2v-2.4h2V166.2z M40.5,161.4h-2V159h2V161.4z M40.5,156.6
			h-2v-2.4h2V156.6z M40.5,151.7h-2v-2.4h2V151.7z M40.5,146.9h-2v-2.4h2V146.9z M40.5,142.1h-2v-2.4h2V142.1z M40.5,137.3h-2v-2.4
			h2V137.3z M40.5,132.5h-2v-2.4h2V132.5z M40.5,127.7h-2v-2.4h2V127.7z M40.5,122.8h-2v-2.4h2V122.8z M40.5,118h-2v-2.4h2V118z
			 M40.5,113.2h-2v-2.4h2V113.2z M40.5,108.4h-2V106h2V108.4z M40.5,103.6h-2v-2.4h2V103.6z M40.5,98.7h-2v-2.4h2V98.7z M40.5,93.9
			h-2v-2.4h2V93.9z M40.5,89.2h-2v-2.4h2V89.2z M40.5,84.3h-2v-2.4h2V84.3z M40.5,79.5h-2v-2.4h2V79.5z M40.5,74.7h-2v-2.4h2V74.7z
			 M40.5,69.8h-2v-2.4h2V69.8z M40.5,65.1h-2v-2.4h2V65.1z M40.5,60.3h-2v-2.4h2V60.3z M40.5,55.4h-2V53h2V55.4z M40.5,50.6h-2v-2.4
			h2V50.6z M40.5,45.8h-2v-2.4h2V45.8z M40.5,41h-2v-2.4h2V41z M40.5,36.2h-2v-2.4h2V36.2z"/>
	</g>
	<g>
		<rect x="38.5" y="30.1" fill="#5B74BC" width="2" height="1.2"/>
	</g>
</g>
<g>
	<g>
		<polygon fill="#DBDBDB" points="250.8,244.6 248.3,244.6 248.3,242.6 248.8,242.6 248.8,242.1 250.8,242.1 		"/>
	</g>
	<g>
		<path fill="#DBDBDB" d="M245.3,244.6h-3v-2h3V244.6z M239.4,244.6h-3v-2h3V244.6z M233.5,244.6h-3v-2h3V244.6z M227.6,244.6h-3v-2
			h3V244.6z M221.7,244.6h-3v-2h3V244.6z M215.8,244.6h-3v-2h3V244.6z M209.9,244.6h-3v-2h3V244.6z M204,244.6h-3v-2h3V244.6z
			 M198.1,244.6h-3v-2h3V244.6z M192.2,244.6h-3v-2h3V244.6z M186.3,244.6h-3v-2h3V244.6z M180.3,244.6h-3v-2h3V244.6z M174.4,244.6
			h-3v-2h3V244.6z M168.5,244.6h-3v-2h3V244.6z M162.6,244.6h-3v-2h3V244.6z M156.7,244.6h-3v-2h3V244.6z M150.8,244.6h-3v-2h3
			V244.6z M144.9,244.6h-3v-2h3V244.6z M139,244.6h-3v-2h3V244.6z M133.1,244.6h-3v-2h3V244.6z M127.2,244.6h-3v-2h3V244.6z
			 M121.3,244.6h-3v-2h3V244.6z M115.3,244.6h-3v-2h3V244.6z M109.4,244.6h-3v-2h3V244.6z M103.5,244.6h-3v-2h3V244.6z M97.6,244.6
			h-3v-2h3V244.6z M91.7,244.6h-3v-2h3V244.6z"/>
	</g>
	<g>
		<polygon fill="#DBDBDB" points="85.8,244.6 83.3,244.6 83.3,242.1 85.3,242.1 85.3,242.6 85.8,242.6 		"/>
	</g>
	<g>
		<path fill="#DBDBDB" d="M85.3,239.2h-2v-3h2V239.2z M85.3,233.3h-2v-3h2V233.3z M85.3,227.4h-2v-3h2V227.4z M85.3,221.5h-2v-3h2
			V221.5z M85.3,215.6h-2v-3h2V215.6z M85.3,209.6h-2v-3h2V209.6z M85.3,203.7h-2v-3h2V203.7z M85.3,197.8h-2v-3h2V197.8z
			 M85.3,191.9h-2v-3h2V191.9z M85.3,186h-2v-3h2V186z M85.3,180.1h-2v-3h2V180.1z M85.3,174.2h-2v-3h2V174.2z M85.3,168.3h-2v-3h2
			V168.3z M85.3,162.4h-2v-3h2V162.4z M85.3,156.5h-2v-3h2V156.5z M85.3,150.6h-2v-3h2V150.6z M85.3,144.6h-2v-3h2V144.6z
			 M85.3,138.7h-2v-3h2V138.7z M85.3,132.8h-2v-3h2V132.8z M85.3,126.9h-2v-3h2V126.9z M85.3,121h-2v-3h2V121z M85.3,115.1h-2v-3h2
			V115.1z M85.3,109.2h-2v-3h2V109.2z M85.3,103.3h-2v-3h2V103.3z M85.3,97.4h-2v-3h2V97.4z M85.3,91.5h-2v-3h2V91.5z M85.3,85.6h-2
			v-3h2V85.6z"/>
	</g>
	<g>
		<polygon fill="#DBDBDB" points="85.3,79.6 83.3,79.6 83.3,77.1 85.8,77.1 85.8,79.1 85.3,79.1 		"/>
	</g>
	<g>
		<path fill="#DBDBDB" d="M245.3,79.1h-3v-2h3V79.1z M239.4,79.1h-3v-2h3V79.1z M233.5,79.1h-3v-2h3V79.1z M227.6,79.1h-3v-2h3V79.1
			z M221.7,79.1h-3v-2h3V79.1z M215.8,79.1h-3v-2h3V79.1z M209.9,79.1h-3v-2h3V79.1z M204,79.1h-3v-2h3V79.1z M198.1,79.1h-3v-2h3
			V79.1z M192.2,79.1h-3v-2h3V79.1z M186.3,79.1h-3v-2h3V79.1z M180.3,79.1h-3v-2h3V79.1z M174.4,79.1h-3v-2h3V79.1z M168.5,79.1h-3
			v-2h3V79.1z M162.6,79.1h-3v-2h3V79.1z M156.7,79.1h-3v-2h3V79.1z M150.8,79.1h-3v-2h3V79.1z M144.9,79.1h-3v-2h3V79.1z M139,79.1
			h-3v-2h3V79.1z M133.1,79.1h-3v-2h3V79.1z M127.2,79.1h-3v-2h3V79.1z M121.3,79.1h-3v-2h3V79.1z M115.3,79.1h-3v-2h3V79.1z
			 M109.4,79.1h-3v-2h3V79.1z M103.5,79.1h-3v-2h3V79.1z M97.6,79.1h-3v-2h3V79.1z M91.7,79.1h-3v-2h3V79.1z"/>
	</g>
	<g>
		<polygon fill="#DBDBDB" points="250.8,79.6 248.8,79.6 248.8,79.1 248.3,79.1 248.3,77.1 250.8,77.1 		"/>
	</g>
	<g>
		<path fill="#DBDBDB" d="M250.8,239.2h-2v-3h2V239.2z M250.8,233.3h-2v-3h2V233.3z M250.8,227.4h-2v-3h2V227.4z M250.8,221.5h-2v-3
			h2V221.5z M250.8,215.6h-2v-3h2V215.6z M250.8,209.6h-2v-3h2V209.6z M250.8,203.7h-2v-3h2V203.7z M250.8,197.8h-2v-3h2V197.8z
			 M250.8,191.9h-2v-3h2V191.9z M250.8,186h-2v-3h2V186z M250.8,180.1h-2v-3h2V180.1z M250.8,174.2h-2v-3h2V174.2z M250.8,168.3h-2
			v-3h2V168.3z M250.8,162.4h-2v-3h2V162.4z M250.8,156.5h-2v-3h2V156.5z M250.8,150.6h-2v-3h2V150.6z M250.8,144.6h-2v-3h2V144.6z
			 M250.8,138.7h-2v-3h2V138.7z M250.8,132.8h-2v-3h2V132.8z M250.8,126.9h-2v-3h2V126.9z M250.8,121h-2v-3h2V121z M250.8,115.1h-2
			v-3h2V115.1z M250.8,109.2h-2v-3h2V109.2z M250.8,103.3h-2v-3h2V103.3z M250.8,97.4h-2v-3h2V97.4z M250.8,91.5h-2v-3h2V91.5z
			 M250.8,85.6h-2v-3h2V85.6z"/>
	</g>
</g>
<g>
	<g>
		<polyline fill="none" stroke="#40B481" stroke-width="1.7885" stroke-miterlimit="10" points="339,299.7 339,301.1 337.6,301.1 		
			"/>
		
			<line fill="none" stroke="#40B481" stroke-width="1.7885" stroke-miterlimit="10" stroke-dasharray="2.6832,2.6832" x1="335" y1="301.1" x2="3.6" y2="301.1"/>
		<polyline fill="none" stroke="#40B481" stroke-width="1.7885" stroke-miterlimit="10" points="2.2,301.1 0.9,301.1 0.9,299.7 		
			"/>
		
			<line fill="none" stroke="#40B481" stroke-width="1.7885" stroke-miterlimit="10" stroke-dasharray="2.6563,2.6563" x1="0.9" y1="297.1" x2="0.9" y2="32.8"/>
		<polyline fill="none" stroke="#40B481" stroke-width="1.7885" stroke-miterlimit="10" points="0.9,31.4 0.9,30.1 2.2,30.1 		"/>
		
			<line fill="none" stroke="#40B481" stroke-width="1.7885" stroke-miterlimit="10" stroke-dasharray="2.6832,2.6832" x1="4.9" y1="30.1" x2="336.3" y2="30.1"/>
		<polyline fill="none" stroke="#40B481" stroke-width="1.7885" stroke-miterlimit="10" points="337.6,30.1 339,30.1 339,31.4 		"/>
		
			<line fill="none" stroke="#40B481" stroke-width="1.7885" stroke-miterlimit="10" stroke-dasharray="2.6563,2.6563" x1="339" y1="34.1" x2="339" y2="298.4"/>
	</g>
</g>
<g>
	
		<circle fill="none" stroke="#36CC89" stroke-width="4" stroke-miterlimit="10" stroke-dasharray="15.7562,7.8781" cx="167.1" cy="161.2" r="81.3"/>
</g>
<g>
	<path fill="#40B481" d="M137.5,61.8l-0.1,0.8c0,0.8,0.3,1.4,0.8,1.7c0.2,0.1,0.4,0.2,0.7,0.2s0.5,0,0.7-0.1
		c0.2-0.1,0.4-0.2,0.5-0.4c0.3-0.3,0.4-0.7,0.4-1.1s-0.1-0.8-0.2-1.1c-0.2-0.3-0.4-0.6-0.6-1l-0.8-1c-0.7-0.8-1.1-1.5-1.3-2.1
		c-0.2-0.6-0.3-1.2-0.3-1.8s0.1-1.1,0.2-1.5c0.1-0.5,0.3-0.9,0.6-1.4c0.2-0.4,0.5-0.8,0.9-1.2s0.7-0.7,1.1-0.9
		c0.8-0.6,1.7-0.9,2.5-0.9s1.5,0.1,1.9,0.3s0.8,0.5,1.1,0.9c0.5,0.7,0.8,1.5,0.8,2.4c0,0.9-0.2,1.7-0.7,2.5c-0.5,0.7-1,1.2-1.5,1.3
		c-0.1,0.1-0.3,0.1-0.5,0.1c-0.2,0-0.4,0-0.5-0.1c-0.1-0.1-0.3-0.2-0.4-0.3c-0.2-0.2-0.4-0.5-0.4-0.8c0-0.2,0.1-0.3,0.2-0.4
		c0.5-0.3,1-0.7,1.3-1.2c0.4-0.6,0.6-1.1,0.6-1.7c0-0.6-0.1-1-0.4-1.3c-0.3-0.3-0.7-0.4-1.2-0.4s-0.9,0.1-1.3,0.3
		c-0.4,0.2-0.7,0.5-1,0.9c-0.6,0.8-0.9,1.7-0.9,2.8c0,0.7,0.3,1.5,0.8,2.3c0.2,0.3,0.4,0.7,0.7,1c0.2,0.3,0.5,0.7,0.7,1
		c0.5,0.8,0.7,1.6,0.7,2.2s-0.1,1.2-0.4,1.6c-0.2,0.4-0.5,0.8-0.9,1.2c-0.8,0.7-1.8,1.1-2.8,1.1c-1,0-1.8-0.3-2.3-0.9
		c-0.4-0.5-0.7-1-0.7-1.6c0-0.6,0.2-1.1,0.5-1.5c0.3-0.3,0.5-0.5,0.8-0.6C137.2,61.2,137.5,61.3,137.5,61.8z"/>
	<path fill="#40B481" d="M151.4,63.1c0.2,0,0.3,0.1,0.3,0.4c0,0.2-0.1,0.4-0.2,0.6c-0.2,0.4-0.5,0.8-1.1,1.1
		c-0.6,0.4-1.2,0.6-1.9,0.6c-1.1,0-1.8-0.5-2.1-1.5c-0.3-1.2,0.2-3.6,1.6-7.4c-0.8-0.1-1.2-0.2-1.3-0.4c0-0.1,0-0.1,0-0.2
		c0-0.1,0-0.2,0.1-0.2s0.1-0.2,0.2-0.3c0.2-0.2,0.5-0.3,0.7-0.3h0.8c0.7-1.7,1.3-2.7,1.6-2.9c0.1-0.1,0.3-0.2,0.5-0.2s0.3,0,0.5,0.1
		s0.2,0.1,0.3,0.2c0.2,0.2,0.3,0.4,0.3,0.7c0,0.1,0,0.3-0.1,0.5l-0.8,1.6h0.2c0.4,0,0.8,0,1,0l0.6,0c0.1,0,0.3,0,0.5,0
		s0.3,0.1,0.3,0.2c0,0.9-1.1,1.3-3.2,1.3h-0.1l-0.7,1.8c-0.8,2.1-1.2,3.6-1.2,4.4c0,0.2,0.1,0.4,0.2,0.6c0.1,0.1,0.3,0.2,0.6,0.2
		s0.6-0.1,0.8-0.2s0.5-0.2,0.6-0.3c0.2-0.1,0.3-0.2,0.5-0.3S151.3,63.1,151.4,63.1z"/>
	<path fill="#40B481" d="M153.1,62.2c0-0.6,0.1-1.2,0.3-1.7c0.2-0.5,0.4-1.1,0.7-1.6s0.6-1,1-1.4c0.4-0.5,0.8-0.8,1.2-1.2
		c1-0.7,1.9-1.1,2.9-1.1c1.2,0,1.9,0.5,2.3,1.4c0.1,0.3,0.2,0.7,0.2,1.2c0,0.4-0.1,0.9-0.3,1.2c-0.2,0.4-0.4,0.7-0.7,1
		c-0.3,0.3-0.6,0.6-1,0.8c-0.4,0.2-0.8,0.5-1.3,0.6c-1,0.3-2,0.5-3.1,0.5c0,0.1,0,0.2-0.1,0.4s0,0.4,0.1,0.6s0.1,0.4,0.2,0.6
		c0.2,0.4,0.6,0.6,1.1,0.6c0.8,0,1.6-0.2,2.3-0.7c0.3-0.2,0.5-0.3,0.6-0.5s0.3-0.2,0.4-0.2c0.1,0,0.2,0.1,0.3,0.2
		c0.1,0.1,0.1,0.3,0.1,0.5c0,0.4-0.1,0.7-0.3,0.9c-0.9,0.9-2.1,1.3-3.8,1.3c-1,0-1.8-0.3-2.4-0.9C153.4,64.3,153,63.4,153.1,62.2z
		 M159,56.6c-0.7,0-1.4,0.5-2.1,1.5c-0.6,0.8-1,1.8-1.3,3c1.1-0.1,2.1-0.6,2.9-1.3c0.8-0.7,1.1-1.4,1.1-2.1
		C159.7,57,159.5,56.6,159,56.6z"/>
	<path fill="#40B481" d="M170.1,57.2c-0.2,0-0.5,0.2-0.9,0.6c-0.4,0.4-0.7,0.8-1,1.1l-0.9,1l-1.7,2.1c-0.4,0.7-0.7,1.4-0.9,1.9
		l-0.5,1.2c-0.1,0.3-0.3,0.5-0.4,0.6s-0.2,0.2-0.4,0.2c-0.2,0-0.4,0-0.5-0.1c-0.2-0.1-0.3-0.1-0.4-0.2c-0.3-0.2-0.4-0.5-0.4-0.7
		c0-0.1,0.1-0.3,0.2-0.6l0.4-0.8c0.1-0.2,0.3-0.6,0.4-0.9l0.6-1.4c0.8-2,1.2-3.3,1.2-3.9c0-0.3-0.1-0.5-0.3-0.7l-0.2-0.1
		c-0.1,0-0.1-0.1-0.1-0.2c0-0.1,0-0.2,0.1-0.3s0.2-0.2,0.4-0.3c0.3-0.2,0.6-0.2,0.9-0.2s0.5,0,0.7,0.1c0.2,0.1,0.3,0.2,0.4,0.3
		c0.3,0.2,0.4,0.5,0.4,0.7s0,0.5-0.1,0.8c-0.1,0.3-0.1,0.5-0.2,0.8c-0.1,0.3-0.2,0.5-0.3,0.8s-0.2,0.5-0.3,0.7l-0.2,0.4
		C166,60,166,60,166,60c0.8-1,1.2-1.7,1.5-2l0.7-0.9c0.5-0.6,0.9-1,1.2-1.2c0.6-0.4,1.1-0.6,1.4-0.6c0.3,0,0.6,0,0.9,0.1
		c0.2,0.1,0.4,0.2,0.6,0.4c0.4,0.3,0.6,0.8,0.6,1.3s-0.1,1.1-0.4,1.7c-0.2,0.6-0.5,1.1-0.6,1.4c-0.2,0.4-0.3,0.7-0.5,1.1
		c-0.5,1.1-0.8,2-0.8,2.5c0,0.2,0.2,0.3,0.5,0.3c0.3,0,0.5-0.1,0.8-0.2c0.2-0.1,0.4-0.2,0.5-0.2c0.1,0,0.2,0.1,0.2,0.2
		c0,0.6-0.3,1.1-0.9,1.5c-0.4,0.3-0.8,0.4-1.1,0.4c-0.3,0-0.6,0-0.9-0.1c-0.2-0.1-0.4-0.2-0.6-0.4c-0.4-0.4-0.6-0.9-0.6-1.5
		c0-0.8,0.2-1.8,0.7-2.9c0.4-0.8,0.6-1.4,0.8-1.7l0.3-0.7c0.2-0.4,0.3-0.8,0.3-1S170.5,57.2,170.1,57.2z"/>
	<path fill="#40B481" d="M174.4,62.3c0-0.6,0.1-1.2,0.3-1.8c0.2-0.6,0.4-1.1,0.7-1.7s0.6-1,1-1.4c0.4-0.4,0.8-0.8,1.3-1.1
		c1-0.7,2-1,3.1-1c1.1,0,1.9,0.4,2.3,1.3c0.1,0.3,0.2,0.7,0.2,1.1s-0.1,0.8-0.2,1.1c-0.1,0.3-0.3,0.6-0.5,0.9
		c-0.4,0.6-0.8,0.9-1.2,0.9c-0.5,0-0.8-0.1-1-0.4c-0.2-0.2-0.3-0.5-0.2-0.8c0-0.1,0.1-0.2,0.2-0.2s0.2-0.2,0.4-0.3
		c0.4-0.5,0.7-1,0.7-1.6c0-0.4-0.2-0.6-0.8-0.6c-0.6,0-1.2,0.3-1.8,1c-0.9,0.9-1.5,2.1-1.9,3.6c-0.3,1.3-0.3,2.2,0.2,2.8
		c0.3,0.3,0.6,0.5,1.1,0.5c0.8,0,1.5-0.3,2.2-0.8c0.2-0.2,0.4-0.3,0.5-0.5c0.1-0.2,0.3-0.3,0.4-0.3s0.2,0.1,0.3,0.2s0.1,0.3,0.1,0.4
		c0,0.4-0.2,0.8-0.5,1.2c-0.9,0.9-2,1.3-3.3,1.3c-1.1,0-2-0.3-2.6-0.9C174.7,64.3,174.4,63.4,174.4,62.3z"/>
	<path fill="#40B481" d="M187.5,63.9c0.2,0,0.3,0.1,0.3,0.3c0,0.3-0.1,0.6-0.4,0.9c-0.4,0.5-1,0.7-1.6,0.7c-0.8,0-1.3-0.3-1.6-1
		c-0.1-0.2-0.2-0.5-0.2-0.8c0-0.3,0.1-0.7,0.2-1.1s0.3-0.8,0.4-1.2c0.2-0.4,0.3-0.9,0.5-1.3l0.5-1.3c0.4-1,0.6-1.6,0.6-1.9
		s0-0.5-0.1-0.6c-0.1-0.1-0.1-0.2-0.2-0.2l-0.2-0.1c-0.1,0-0.1-0.1-0.1-0.2c0-0.1,0-0.2,0.1-0.3c0.1-0.1,0.2-0.2,0.4-0.3
		c0.3-0.2,0.7-0.2,1.1-0.2c1,0,1.5,0.3,1.5,0.8c0,0.6-0.2,1.3-0.5,2.1c-0.3,0.8-0.6,1.4-0.8,1.9l-0.6,1.4c-0.4,1-0.7,1.8-0.7,2.2
		c0,0.3,0.1,0.4,0.4,0.4c0.3,0,0.5,0,0.7-0.1C187.4,63.9,187.5,63.9,187.5,63.9z M189.6,52.9c-0.1,0.2-0.3,0.3-0.5,0.4
		s-0.4,0.2-0.6,0.2c-0.2,0-0.4,0-0.6-0.1c-0.2-0.1-0.3-0.2-0.5-0.4c-0.3-0.3-0.4-0.7-0.4-1s0.1-0.6,0.2-0.8c0.1-0.2,0.3-0.3,0.4-0.4
		c0.3-0.2,0.6-0.3,0.9-0.3c0.3,0,0.5,0,0.7,0.1s0.3,0.1,0.4,0.2c0.3,0.2,0.5,0.5,0.5,0.8c0,0.3,0,0.6-0.1,0.8
		C189.9,52.5,189.8,52.7,189.6,52.9z"/>
	<path fill="#40B481" d="M190.6,65.4c-0.2-0.2-0.3-0.4-0.4-0.7c-0.1-0.3-0.2-0.6-0.2-1s0.1-0.8,0.2-1.5c0.2-0.6,0.4-1.3,0.6-2.1
		l0.9-2.5c1.2-3.5,1.9-6.2,2.1-8.2c0.1-0.6,0.3-0.9,0.8-0.9c0.3,0,0.6,0.1,0.8,0.2c0.4,0.3,0.6,0.6,0.6,1c0,0.4-0.1,0.8-0.2,1.3
		c-0.1,0.5-0.3,1.1-0.4,1.7c-0.2,0.6-0.4,1.3-0.6,2l-1.4,4.1c-0.8,2.3-1.2,3.9-1.2,4.5c0,0.4,0.1,0.5,0.4,0.5c0.3,0,0.5-0.1,0.8-0.2
		s0.4-0.2,0.5-0.2c0.1,0,0.2,0.1,0.2,0.2c0,0.6-0.3,1.1-0.9,1.5c-0.4,0.3-0.8,0.4-1.1,0.4s-0.6,0-0.8-0.1
		C191,65.7,190.8,65.6,190.6,65.4z"/>
</g>
</svg>
