<svg xmlns="http://www.w3.org/2000/svg" width="339.9" height="374.9"><path fill="#C5D4E2" d="M99 332.2c-.3 0-.6-.1-.7-.3-.2-.1-.3-.4-.4-.8-.3-4.9 36.8-46.3 97.9-113.9 44.5-49.2 94.7-104.9 97.4-112.3-7.1 3.7-56 60.8-99.3 111.3-59.5 69.5-96 111.7-100.8 112-.4 0-.7-.1-.8-.3-1-.9-2.5-2.2 29.5-39.4 18.9-22 45-51.3 70.2-79.6 45.6-51.3 97.2-109.3 99.6-116.7-7.1 3.4-58.8 63.7-104.5 117.1-62.5 73.1-100.9 117.5-106 117.8-.4 0-.7-.1-.8-.3-1.1-1-2.5-2.3 31.1-40.9 19.9-22.8 47.4-53.3 73.9-82.8 48.2-53.5 102.7-114 104.9-121.4-7.2 3.1-61.4 66.5-109.4 122.6C115.5 281 75.4 327.4 70 327.8c-.4 0-.7-.1-.9-.3-.2-.1-.3-.4-.4-.8-.1-1.2 1.8-4.1 5.4-8.9-6.9 7.1-11.2 10.9-12.7 11-.4 0-.7-.1-.9-.3-1.1-1-2.7-2.4 33-43.6 21.1-24.4 50.3-57 78.5-88.5C223.6 139 281.8 74.1 283.7 66.6c-7.3 2.9-65.7 71.1-117.3 131.4C96.3 279.9 53.3 329.7 47.7 330c-.4 0-.7-.1-.9-.3-1.1-1-2.7-2.4 33.5-44.3 21.4-24.8 51-57.9 79.6-89.9C212 137.1 271 71.1 272.9 63.6c-7.2 3-63.5 68.8-113.4 127.1C91.6 269.8 50 317.9 44.5 318.3c-.4 0-.7-.1-.9-.3-1.1-1-2.6-2.3 31.3-41.7 20.1-23.3 47.8-54.4 74.6-84.5 48.6-54.6 103.6-116.4 105.8-123.9-7.1 3.3-59.9 64.9-106.5 119.4C85.1 261.8 46 307 40.9 307.3c-.4 0-.7-.1-.8-.3-1.1-.9-2.5-2.2 30.1-40.2 19.3-22.5 45.9-52.4 71.6-81.4C188.3 133 240.9 73.7 243.4 66.1c-7 3.5-56.5 61.3-100.3 112.5C82.9 248.8 46 291.5 41.2 291.8c-.4 0-.7-.1-.8-.3-.1-.1-.3-.4-.4-.8-.1-2 6-9.9 17.3-23.2-9.2 10-14.9 15.4-16.6 15.5-.4 0-.7-.1-.8-.3-1-.9-2.3-2.1 26.8-36 17.1-20.1 40.8-46.9 63.7-72.8 41.1-46.4 87.4-98.9 90.3-106.4-6.8 3.9-49.5 53.8-87.4 98.1-52.5 61.3-84.6 98.6-89 98.8-.4 0-.7-.1-.8-.3-.1-.1-.3-.4-.3-.8-.1-1.7 4.8-8.2 14-19.1-6.8 7.2-11 11.1-12.3 11.1-.4 0-.6-.1-.8-.3-1-.9-2.1-1.9 23.7-32.1 15.2-17.8 36.2-41.5 56.6-64.5 36-40.7 76.6-86.6 80-94-6.7 4.4-44.8 48.9-78.6 88.3-47.3 55.3-76.4 88.9-80.3 89.2-.4 0-.6-.1-.8-.3-.9-.8-1.9-1.8 21.5-29.5C80 195.8 99.1 174 117.5 153c32.4-36.9 68.8-78.5 72.5-85.9-6.7 4.7-42.1 46-73.6 82.8-44.5 51.9-71.7 83.5-75.4 83.7-.4 0-.6-.1-.8-.2-.9-.8-1.9-1.7 20.7-28.6 13.3-15.8 31.6-36.9 49.4-57.3 30.9-35.6 65.8-75.7 69.7-83.2-6.6 4.9-39.3 43-68.3 76.9-45.3 52.8-66.9 77.7-70.2 77.9-.3 0-.5-.1-.7-.2-.9-.8-1.8-1.6 18.4-25.7 11.8-14.1 28.2-33 44-51.2 27.2-31.4 57.9-66.7 62-74-6.4 5-34.7 38.1-59.9 67.6-39.9 46.6-59 68.6-62 68.8-.3 0-.5-.1-.7-.2-.8-.8-1.6-1.5 16.8-23.2 10.8-12.7 25.7-29.7 40.1-46.1 24.4-27.8 51.8-59.1 56.2-66.3-6.3 5.2-31.7 34.9-54.3 61.4-36.3 42.5-53.7 62.5-56.5 62.7-.3 0-.5-.1-.7-.2-.8-.8-1.6-1.4 15.7-21.7 10.1-11.8 24-27.6 37.4-42.9 22.5-25.5 47.7-54.1 52.3-61.4-6.5 5.6-30.8 34-52.4 59.3C61.9 167 45 186.4 42.4 186.6c-.3 0-.5-.1-.7-.2-.8-.7-1.5-1.3 14.3-20.4 9.2-11.1 22-25.9 34.3-40.3 20.3-23.7 43.1-50.2 47.7-57.3-6.1 5.4-27 29.9-45.8 51.8-31 36.2-45.8 53.3-48.2 53.4-.3 0-.5-.1-.7-.2-1.4-1.3 2.6-6.8 42.9-54.3 17.5-20.7 37.1-43.8 41.8-50.8-5.9 5.5-24 26.6-40.2 45.6-28.1 32.9-40.6 47.3-42.8 47.4-.3 0-.5-.1-.7-.2-1.3-1.2 1.8-5.8 35.2-48.2 14.1-17.8 29.8-37.7 34.1-44.4-5.5 5.4-21.2 23.7-35.3 40-27 31.5-36.3 42-38.1 42.1-.2 0-.5-.1-.6-.2-1.2-1.1 1.7-5.2 33.5-43.3C86 92 100.1 75.2 105 68.4c-5.4 5.6-18 20.2-28.4 32.4-22.9 26.8-30.3 35.1-31.9 35.2-.2 0-.5-.1-.6-.2-1.1-1-.2-2.6 27-36.1C80.1 88.4 91 75 95.7 68.6 90.4 74.2 79.8 86.5 70.9 97c-20.7 24.1-27.3 31.6-28.7 31.7-.2 0-.5-.1-.6-.2-1-.9-.3-2.4 23.5-33.3C72.8 85 82 73 86.2 66.9c-4.5 4.8-12.7 14.4-19.6 22.5-18.3 21.3-22.5 25.9-23.6 26-.2 0-.5-.1-.6-.2-.9-.8-1.1-1 18.2-26.3 5.3-6.9 11.4-15 15-20-3.7 4.1-9.1 10.5-13.9 16-14.8 17.2-17.8 20.5-18.8 20.6-.2 0-.4-.1-.6-.2-.8-.7-1-.9 15.1-22.1 3.7-4.8 7.9-10.3 10.9-14.4-2.5 2.9-5.6 6.5-8.4 9.8-12 14-13.6 15.6-14.3 15.6-.2 0-.4-.1-.6-.2-.7-.6-.8-.7 8.8-14.8 1.8-2.6 3.7-5.4 5.3-7.9-1.5 1.7-3.1 3.6-4.6 5.3-8.2 9.7-9.2 10.6-9.8 10.6-.2 0-.4-.1-.6-.2-.6-.5-.7-.6 5.3-12.8 1.3-2.8 2.9-5.9 4-8.3-1.4 1.6-3.2 3.6-4.8 5.5-7.4 8.5-7.5 8.5-8 8.6-.2 0-.4-.1-.6-.2-.4-.3-.4-.4.2-6.6.1-1.3.3-2.8.4-4h-.2v-.7l.4-.4-.4.4-.5-.5c.1-.1.3-.3.5-.6.7-.8.7-.8 1.1-.9.2 0 .4.1.5.2.4.3.4.3-.2 6.6-.1 1.3-.3 2.9-.4 4 1.5-1.6 4-4.5 6.1-7 7.4-8.5 7.5-8.5 8-8.6.2 0 .4.1.6.2.6.5.7.6-5.3 12.8-1.4 2.9-3.1 6.3-4.1 8.6 1.9-2.1 4.5-5.2 6.8-7.9 8.2-9.7 9.2-10.6 9.8-10.6.2 0 .4.1.6.2.7 1 .7 1-8.9 15.1-1.9 2.8-4.1 6-5.8 8.5 2.7-3.1 6.4-7.3 9.6-11C70.9 63.5 72.4 62 73.2 61.9c.2 0 .4.1.6.2.8.7 1 .9-15.1 22-3.9 5.2-8.4 11.1-11.5 15.3 3.7-4.1 8.9-10.2 13.4-15.5 14.8-17.2 17.8-20.5 18.8-20.6.2 0 .4.1.6.2.9.8 1.1 1-18.2 26.3-5.5 7.2-11.9 15.6-15.5 20.6 4.5-4.9 12.4-14.2 19.2-22 18.3-21.3 22.5-25.9 23.6-26 .2 0 .5.1.6.2 1 .9.3 2.4-23.5 33.3-8 10.4-17.5 22.8-21.5 28.7 5.1-5.3 16-18 25.1-28.7 20.7-24.1 27.3-31.6 28.7-31.7.2 0 .5.1.6.2 1.1 1 .2 2.6-27 36.1-9.4 11.5-20.5 25.3-25 31.5 5.5-5.7 17.9-20.2 28.2-32.3 22.9-26.8 30.3-35.1 31.9-35.2.2 0 .5.1.6.2 1.2 1.1-1.7 5.2-33.5 43.3-12.9 15.4-27.1 32.5-31.8 39.1 5.9-5.9 21.1-23.6 34.8-39.6 27-31.5 36.3-42 38.1-42.1.2 0 .5.1.6.2 1.3 1.2-1.8 5.8-35.2 48.2-14.3 18.1-30.3 38.4-34.3 44.7 5.8-5.4 24-26.6 40.2-45.7 28.3-32.8 40.8-47.2 43-47.3.3 0 .5.1.7.2 1.4 1.3-2.6 6.8-42.9 54.3-17.7 20.8-37.4 44.1-41.9 50.9 6.2-5.6 27-30 45.7-51.8 31-36.2 45.8-53.3 48.2-53.4.3 0 .5.1.7.2.8.7 1.5 1.3-14.3 20.4-9.2 11.1-22 25.9-34.3 40.3C71.1 150.4 48.2 177 43.8 184c6.5-5.6 30.8-34 52.4-59.3C131.5 83.6 148.4 64.2 151 64c.3 0 .5.1.7.2.8.8 1.6 1.4-15.7 21.7-10.1 11.8-24 27.6-37.4 42.9-22.6 25.7-47.9 54.5-52.4 61.5 6.4-5.4 31.7-35 54.2-61.3 36.3-42.5 53.7-62.5 56.5-62.7.3 0 .5.1.7.2.8.8 1.6 1.5-16.8 23.2-10.8 12.7-25.7 29.7-40.1 46.1-24.5 27.9-52 59.3-56.3 66.4 6.6-5.3 34.8-38.2 59.8-67.5 39.9-46.6 59-68.6 62-68.8.3 0 .5.1.7.2.9.8 1.8 1.6-18.4 25.7-11.8 14.1-28.2 33-44 51.2-27.3 31.5-58 66.9-62 74.1 6.8-5.1 39.3-43.1 68.2-76.8 45.3-52.8 66.9-77.7 70.2-77.9.3 0 .5.1.7.2.9.8 1.9 1.7-20.7 28.6-13.3 15.8-31.6 36.9-49.4 57.3-31.1 35.7-66 76-69.7 83.3 6.7-4.7 42.1-46.1 73.5-82.7 44.5-51.9 71.7-83.5 75.4-83.7.4 0 .6.1.8.2.9.8 1.9 1.8-21.5 29.5-13.8 16.3-32.9 38.1-51.3 59.1-32.5 37-69 78.8-72.5 86 6.8-4.5 44.8-48.9 78.5-88.3C172 96.6 201.1 63 205 62.7c.4 0 .6.1.8.3 1 .9 2.1 1.9-23.7 32.1-15.2 17.8-36.2 41.5-56.6 64.5-36.1 40.8-76.8 86.8-80 94.1 6.9-4.3 48.1-52.4 84.7-95.1 50.9-59.5 82.2-95.7 86.4-95.9.4 0 .6.1.8.3.1.1.3.4.3.8.1 1.5-3.9 6.9-11.4 15.9 8.3-8.9 13.4-13.7 14.9-13.8.4 0 .7.1.8.3 1 .9 2.3 2.1-26.8 36-17.2 20.1-40.8 46.9-63.7 72.8-41.1 46.5-87.5 99-90.4 106.4 7-3.8 53.9-58.6 95.4-107 57.2-66.9 92.3-107.5 97-107.8.4 0 .7.1.8.3s.3.4.4.8c.1 1.8-4.8 8.3-14 19.3 13-14.4 20.9-22.2 23-22.4.4 0 .7.1.8.3 1.1.9 2.5 2.2-30.1 40.2-19.3 22.5-45.9 52.4-71.6 81.4-46.6 52.4-99.2 111.8-101.6 119.2 7.1-3.3 59.9-64.9 106.5-119.4 63.8-74.5 102.9-119.7 108-120.1.4 0 .7.1.8.3 1.1 1 2.6 2.3-31.3 41.7-20.1 23.3-47.8 54.4-74.6 84.5C102 247.4 47 309.3 44.9 316.7c7.3-3.1 63.6-68.9 113.4-127C226.1 110.5 267.6 62.3 273.1 62c.4 0 .7.1.9.3 1.1 1 2.7 2.4-33.5 44.3-21.4 24.8-51 57.9-79.6 89.9-52.2 58.4-111.2 124.5-113 132 7.2-2.8 65.7-71.1 117.3-131.4C235.4 115.1 278.3 65.4 284 65c.4 0 .7.1.9.3 1.1 1 2.7 2.4-33 43.6-21.1 24.4-50.3 57-78.6 88.5-51.4 57.4-109.6 122.3-111.5 129.8 7.2-2.9 63.6-68.9 113.5-127.2 67.9-79.3 109.4-127.5 115-127.8.4 0 .7.1.9.3.2.1.3.4.4.8.1 1.5-3 6-8.9 13.3 4.2-4.1 6.9-6.2 8-6.3.4 0 .7.1.9.3 1.1 1 2.5 2.3-31.1 40.9-19.9 22.8-47.4 53.3-73.9 82.8-48.3 53.4-102.7 113.8-105 121.3 7.1-3.3 58.7-63.7 104.5-117.1C248.6 135.4 286.9 91 292 90.7c.4 0 .7.1.8.3 1 .9 2.5 2.2-29.5 39.4-18.9 22-45 51.3-70.2 79.7-45.6 51.2-97 109.1-99.6 116.6 7-3.6 55.9-60.7 99.3-111.3 59.5-69.5 96-111.7 100.8-112 .4 0 .7.1.8.3.2.1.3.4.4.8.3 4.9-36.8 46.3-97.9 113.9-44.4 49.2-94.6 104.7-97.4 112.3 7-3.9 54.4-59.1 96.3-108 57.8-67.5 93.3-108.4 97.9-108.7.4 0 .7.1.8.3 1 .9 2.3 2.1-27.1 36.1-17.3 19.8-41.2 46.6-64.4 72.6-41.5 46.5-88.3 98.9-91.3 106.5 6.9-4 50.4-54.8 88.9-99.8 53.4-62.4 86.2-100.3 90.5-100.5.4 0 .6.1.8.3.1.1.3.4.3.8.1 2-6.7 10.7-19.2 25.2 11-12.1 17.7-18.7 19.4-18.9.4 0 .6.1.8.3 1 .9 2.1 1.9-23.6 32.3-15.1 17.9-36 41.9-56.3 65-35.8 41-76.2 87.3-79.6 94.8 6.7-4.4 44.9-49 78.8-88.5 47.5-55.4 76.6-89.1 80.5-89.4.4 0 .6.1.8.3.9.8 2 1.8-21.6 29.8-13.8 16.5-33 38.6-51.5 59.9-32.5 37.4-69 79.6-72.7 87 6.6-4.7 41.2-45 71.8-80.8 43.5-50.7 70.1-81.6 73.7-81.8.3 0 .5.1.7.2.9.8 1.8 1.7-19.9 27.1-12.8 15-30.4 34.9-47.5 54.3-29.6 33.5-62.9 71.2-66.9 78.6 6.6-4.9 37.8-41.4 65.5-73.9 43.5-50.8 64.3-74.7 67.5-74.9.3 0 .5.1.7.2.9.8 1.7 1.6-18.4 25.4-11.8 14-28.1 32.7-43.9 50.7-27.1 31-57.6 65.9-61.8 73.3 6.5-5.1 35.3-38.7 60.9-68.6 40.5-47.3 59.9-69.6 62.9-69.8.3 0 .5.1.7.2.9.8 1.7 1.5-17.4 23.9-11.2 13.1-26.6 30.7-41.6 47.6-25.4 28.8-53.9 61.1-58.3 68.5 6.5-5.4 33.3-36.6 57.1-64.4 38.2-44.6 56.5-65.6 59.3-65.7.3 0 .5.1.7.2.9.8 1.6 1.4-16.1 22.4-10.4 12.2-24.7 28.6-38.5 44.4-23.2 26.5-49.2 56.3-53.8 63.6 6.4-5.5 30.7-33.9 52.3-59.1 35.2-41 52-60.4 54.6-60.6.3 0 .5.1.7.2.8.7 1.5 1.3-14.2 20.5-9.1 11.2-21.8 26.1-34 40.6-20.1 23.8-42.7 50.5-47.3 57.7 6.2-5.6 27.8-30.8 47.1-53.3 31.9-37.2 47.2-54.8 49.6-54.9.3 0 .5.1.7.2 1.4 1.3-2.4 6.7-40.8 53.6-16.7 20.4-35.3 43.1-39.8 50.1 5.7-5.4 22.9-25.5 38.4-43.6 27-31.5 39-45.3 41.1-45.5.2 0 .5.1.7.2 1.3 1.2-1.9 5.6-36.5 46.2-14.2 16.6-30 35.2-34.9 42 5.8-5.7 20.5-23 33.8-38.5 26.2-30.6 35.2-40.8 37-40.9.2 0 .5.1.6.2 1.2 1.1-1.3 4.8-31.1 42-11.9 14.8-25 31.3-29.5 37.8 5-5.1 16.6-18.7 26.2-30 21.1-24.7 27.9-32.4 29.5-32.5.2 0 .5.1.6.2 1.1 1 .2 2.6-27.1 35.1-8.8 10.5-19.3 23-24.2 29.4 5.4-5.8 15.6-17.7 25-28.6 21.2-24.7 28-32.4 29.5-32.5.2 0 .5.1.6.2 1 .9.4 2.3-22.6 33-7.6 10.1-16.6 22.2-20.5 28.1 4.2-4.6 12.1-13.8 18.8-21.5 17.5-20.4 21.5-24.8 22.6-24.8.2 0 .5.1.6.2.8.8 1 .9-16.4 24.5-4.7 6.3-10.1 13.7-13.4 18.4 3.2-3.6 7.9-9.1 12-13.9 13.1-15.3 15.7-18.2 16.7-18.3.2 0 .4.1.6.2.8.7.9.8-11.6 19.8-3.2 4.9-6.9 10.5-9.2 14.3 2.5-2.8 5.9-6.8 8.9-10.3 11.1-12.9 12.4-14.2 13.1-14.3.2 0 .4.1.6.2.7.6.7.7-7.6 14.7-1.8 3-3.8 6.4-5.3 9 .9-1.1 1.9-2.2 2.8-3.3 6.1-7.1 6.4-7.4 6.9-7.4.2 0 .4.1.6.2.3.3.4.3.5 7.5 0 1.8.1 4 .1 5.3h.1v.7l-.3.7.1-.2.5.5c-.1.1-.2.2-.3.4-.5.6-.6.7-.9.7-.2 0-.4-.1-.6-.2-.3-.3-.4-.3-.5-7.5 0-1.9-.1-4-.1-5.4-1.2 1.3-3.4 3.9-5.2 6-6.1 7.1-6.4 7.4-6.9 7.4-.2 0-.4-.1-.6-.2-.7-.6-.7-.7 7.6-14.7 1.9-3.2 4.1-6.9 5.7-9.6-2.5 2.8-6.2 7.1-9.3 10.7-11.1 12.9-12.4 14.2-13.1 14.3-.2 0-.4-.1-.6-.2-.8-.7-.9-.8 11.6-19.8 3.4-5.1 7.3-11.1 9.6-14.8-3.2 3.5-8.4 9.6-12.9 14.9-13.1 15.3-15.7 18.2-16.7 18.3-.2 0-.4-.1-.6-.2-.8-.8-1-.9 16.4-24.5 4.9-6.6 10.6-14.3 13.8-19-4.3 4.7-11.9 13.5-18.3 21-17.5 20.4-21.5 24.8-22.6 24.8-.2 0-.5-.1-.6-.2-1-.9-.4-2.3 22.6-33 7.8-10.4 17.1-22.9 20.9-28.6-5 5.2-16 18.1-26 29.7-21.2 24.7-28 32.4-29.5 32.5-.2 0-.5-.1-.6-.2-1.1-1-.2-2.6 27.1-35.1 9.1-10.8 19.9-23.7 24.6-29.9-5.4 5.7-16.2 18.4-25.4 29.1-21.1 24.7-27.9 32.4-29.5 32.5-.2 0-.5-.1-.6-.2-1.2-1.1 1.3-4.8 31.1-42 12-15.1 25.4-31.8 29.7-38.1-5.6 5.5-20.6 23-34 38.7-26.2 30.6-35.2 40.8-37 40.9-.2 0-.5-.1-.6-.2-1.3-1.2 1.9-5.6 36.5-46.2 14.3-16.8 30.3-35.6 35.1-42.3-6.1 5.9-22.9 25.6-38 43.2-27 31.5-39 45.3-41.1 45.5-.2 0-.5-.1-.7-.2-1.4-1.3 2.4-6.7 40.8-53.6 16.8-20.5 35.6-43.5 39.9-50.3-6.3 5.7-27.8 30.8-47 53.2-31.9 37.2-47.2 54.8-49.6 54.9-.3 0-.5-.1-.7-.2-.8-.7-1.5-1.3 14.2-20.5 9.1-11.2 21.8-26.1 34-40.6 20.3-24 43-50.9 47.4-57.9-6.4 5.6-30.7 33.9-52.3 59.1-35.2 41-52 60.4-54.6 60.6-.3 0-.5-.1-.7-.2-.9-.8-1.6-1.4 16.1-22.4 10.4-12.2 24.7-28.6 38.5-44.4 23.3-26.6 49.4-56.5 53.9-63.7-6.6 5.5-33.3 36.7-57 64.4-38.2 44.6-56.5 65.6-59.3 65.7-.3 0-.5-.1-.7-.2-.9-.8-1.7-1.5 17.4-23.9 11.2-13.1 26.6-30.7 41.6-47.6 25.5-28.9 54.1-61.4 58.4-68.6-6.6 5.3-35.3 38.8-60.8 68.6-40.5 47.3-59.9 69.6-62.9 69.8-.3 0-.5-.1-.7-.2-.9-.8-1.7-1.6 18.4-25.4 11.8-14 28.2-32.7 43.9-50.7 27.2-31.1 57.8-66.2 61.9-73.4-6.6 5.1-37.8 41.5-65.5 73.8-43.5 50.8-64.3 74.7-67.5 74.9-.3 0-.5-.1-.7-.2-.9-.8-1.8-1.7 19.9-27.1 12.8-15 30.4-34.9 47.5-54.3 29.7-33.6 63-71.4 66.9-78.7-6.8 5-41.2 45.1-71.8 80.8-43.5 50.7-70.1 81.6-73.7 81.8-.3 0-.5-.1-.7-.2-.9-.8-2-1.8 21.6-29.8 13.8-16.5 33-38.6 51.5-59.9 32.6-37.5 69.3-79.8 72.7-87.1-6.9 4.6-44.9 49.1-78.7 88.5-47.5 55.5-76.6 89.1-80.5 89.4-.4 0-.6-.1-.8-.3-1-.9-2.1-1.9 23.6-32.3 15.1-17.9 36-41.9 56.3-65 35.9-41.1 76.4-87.5 79.6-94.8-6.9 4.3-48.2 52.5-84.9 95.3-51.1 59.6-82.4 95.9-86.5 96.1-.4 0-.6-.1-.8-.3-.1-.1-.3-.4-.3-.8-.1-1.8 5.8-9.5 16.8-22.4-14.3 16-22.9 24.7-25 24.9-.4 0-.6-.1-.8-.3-1-.9-2.3-2.1 27.1-36.1 17.3-20.1 41.3-46.9 64.4-72.9 41.5-46.5 88.4-99.1 91.3-106.5-7.1 4-54.4 59.1-96.3 108-57.8 67.3-93.2 108.3-97.9 108.6.1 0 0 0 0 0zm148.6-148.1c-11.8 13.2-25.6 28.5-41.3 45.8-38.5 42.5-81.9 90.5-85.3 98 6.9-4.3 48.2-52.5 84.9-95.3 15.9-18.5 29.9-34.8 41.7-48.5zm-40-13.1c-8.4 9.2-17.4 19.1-26.9 29.4C130 255.9 72.6 318.6 70.4 326.2c7.1-3.1 61.4-66.5 109.4-122.6 9.8-11.6 19.1-22.4 27.8-32.6zm-24-41.9c-13.1 14.6-28.4 31.5-45.7 50.6C94 228 44.4 282.7 41.6 290.1c7.2-3.7 56.6-61.4 100.3-112.5 15.5-18.1 29.5-34.3 41.7-48.5zm107 1.8c-7 4.2-50.4 54.9-88.8 99.8-16 18.7-30.1 35.2-42.2 49.1 12.7-14.2 28.1-31.3 45.7-50.8 38.5-42.7 82-90.7 85.3-98.1zM164 127.6c-9.8 10.9-20.9 23.1-33 36.5-38.9 42.9-82.8 91.3-86 98.7 6.9-4.1 49.5-53.9 87.3-98.1 11.6-13.6 22.2-26 31.7-37.1zm126-53.8c-7.2 3-63.6 68.9-113.5 127.2-9.5 11.1-18.6 21.7-27 31.5 9.4-10.3 19.5-21.3 30.2-33C230.4 144 287.9 81.2 290 73.8zm-56.9-5.6c-7 3.8-53.9 58.6-95.4 107-15.5 18.1-29.4 34.3-41.5 48.3 11.9-13.2 25.5-28.3 40.6-44.9 43.9-48.3 93.4-102.9 96.3-110.4zM216 64.5c-6.9 4.2-48.1 52.4-84.7 95.1-11.9 13.9-22.7 26.5-32.4 37.7 9.3-10.4 19.7-21.8 31-34.3 38.9-42.7 82.7-91 86.1-98.5z"/><path fill="#FFF" d="M253.2 239.8c-.2-.1-.4-.2-.6-.2-.4 0-1.1.6-3.9 3.6.4-.7.2-.9-.1-1.1 1.2-1.5 1.5-2.1 1.5-2.5 0-.2-.1-.4-.3-.6-.2-.1-.4-.2-.6-.2-.3 0-.8.3-1.7 1.2 7.2-8.6 7-8.9 6.3-9.4-.2-.1-.4-.2-.6-.2-.4 0-1 .5-2.4 1.9-.1-.1-.3-.1-.5-.1-.8 0-2.8 2-9.9 10.2 7-8.3 8.8-10.7 8.9-11.6 3.5-3.9 4.5-5.4 4.5-6 0-.2-.1-.4-.3-.6-.2-.1-.4-.2-.6-.2-.3 0-.9.4-1.9 1.4.2-.3.2-.5.2-.7.5-.7.7-1.1.7-1.4 0-.2-.1-.4-.3-.6-.1-.1-.4-.2-.6-.2.8-1.1 1.1-1.7 1.1-2 0-.1 0-.3-.1-.4 1.2-1.5 1.7-2.3 1.7-2.7 0-.2-.1-.4-.3-.6-.2-.1-.4-.2-.6-.2-.8 0-3.1 2.3-8.8 8.8 3.3-3.9 5-6.1 6-7.5.3-.4.7-.8.9-1.1 2.2-2.6 3-3.9 3-4.4 0-.2-.1-.5-.3-.6-.2-.1-.4-.2-.6-.2-.1 0-.2 0-.3.1 0-.1-.1-.2-.2-.3-.2-.1-.4-.2-.6-.2-.4 0-1.3.7-2.8 2.2 0-.1-.1-.1-.2-.2-.2-.1-.4-.2-.6-.2-.3 0-.8.3-1.6 1 6.4-7.6 6.5-8.4 5.8-9-.2-.1-.4-.2-.6-.2-.5 0-1.4.8-3.1 2.5 3.4-4.2 3.6-5.1 3.2-5.6.2-.3.3-.6.2-.8 0-.2-.1-.5-.3-.6-.2-.1-.5-.2-.6-.2h-.2c.2-.4.3-.7.3-.9 0-.2-.1-.4-.2-.6.4-.6.6-1 .6-1.3 0-.2-.1-.5-.3-.6s-.4-.2-.6-.2c-.4 0-1.1.5-2.3 1.7 2-2.5 2.8-3.9 2.8-4.4 0-.2-.1-.5-.3-.6-.2-.2-.4-.2-.7-.2-.3 0-.6.2-1.2.7.1-.3.2-.5.2-.7 0-.1 0-.3-.1-.4 2.3-2.9 3.4-4.5 3.4-5.2 0-.2-.1-.5-.3-.6-.2-.1-.4-.2-.6-.2 1.6-2.1 2.4-3.4 2.4-3.9 0-.3-.1-.5-.3-.6-.2-.2-.4-.2-.7-.2-.2 0-.6.2-1.1.6l-.1-.1c-.2-.2-.4-.2-.7-.2-.2 0-.4.1-.6.3 1.4-1.8 2.1-3 2-3.5 0-.3-.1-.5-.3-.6-.2-.2-.4-.2-.7-.2-.2 0-.5.2-1 .5-.2-.1-.4-.1-.5-.1-.4 0-1 .5-2 1.3h-.1c-.4 0-1 .5-2 1.3 2.5-3.2 3.7-5 3.7-5.7 0-.3-.1-.5-.3-.6-.2-.2-.4-.2-.7-.2-.2 0-.5.1-.8.4 1.9-2.5 2.9-4 2.8-4.6 0-.3-.1-.5-.3-.6-.2-.2-.4-.2-.7-.2-.2 0-.5.1-.9.4 1.4-1.8 2-3 2-3.5 0-.3-.1-.5-.3-.6-.2-.2-.4-.3-.7-.2-.1 0-.3.1-.4.1.8-1.1 1.1-1.9 1.1-2.3v-.2c1.6-2.1 2.3-3.4 2.3-3.9 0-.3-.1-.5-.3-.7-.2-.2-.4-.2-.7-.2-.2 0-.6.2-1.1.5.9-1.4 1.4-2.2 1.4-2.7 0-.3-.1-.5-.3-.7-.2-.2-.4-.2-.7-.2-.3 0-.7.3-1.3.7.2-.3.2-.6.2-.8 0-.3-.1-.5-.3-.7.3-.6.5-1 .5-1.3 0-.3-.1-.5-.3-.7-.1-.1-.3-.2-.4-.2 1.5-2 2.3-3.3 2.2-3.9 0-.3-.1-.5-.3-.7-.1-.1-.3-.2-.4-.2.6-.9.9-1.6.9-1.9 0-.3-.1-.5-.3-.7l-.1-.1c1.7-2.2 2.5-3.6 2.4-4.2 0-.3-.1-.5-.3-.7-.2-.2-.4-.3-.7-.2-.2 0-.6.2-1.1.5 1-1.5 1.5-2.4 1.5-2.9 0-.3-.1-.5-.3-.7-.1-.1-.3-.2-.5-.2.4-.7.6-1.3.6-1.6 0-.2-.1-.4-.2-.6.1-.2.1-.4.1-.5 0-.3-.1-.5-.3-.7s-.4-.3-.7-.2c-.3 0-.6.2-1.1.5 1.8-2.4 2.7-3.9 2.7-4.6 0-.3-.1-.5-.3-.7.1-.3.2-.5.2-.7 0-.3-.1-.5-.3-.7-.2-.1-.4-.2-.6-.2.4-.7.6-1.3.6-1.6 0-.3-.1-.5-.3-.7-.2-.2-.5-.3-.7-.2-.1 0-.3.1-.4.1 1.3-1.9 2-3.1 2-3.7 0-.4-.2-.6-.3-.7 0 0-.1 0-.1-.1.6-.9.8-1.5.8-1.9 0-.4-.2-.6-.3-.7-.1-.1-.3-.2-.4-.2v-.1c0-.4-.2-.6-.3-.7-.2-.2-.5-.3-.7-.2-.4 0-1.1.5-2.2 1.3 0-.1-.1-.1-.1-.1-.2-.2-.5-.3-.8-.2h-.1c1-1.5 1.6-2.6 1.6-3.1.4-.7.5-1.1.5-1.4 0-.4-.2-.6-.3-.7-.1-.1-.4-.3-.8-.2-.3 0-.9.3-1.6.9 2.3-3 3.5-4.9 3.5-5.7 0-.4-.2-.6-.3-.7-.1-.1-.4-.3-.8-.3-.3 0-.9.3-1.7.9h-.3c-.4 0-1.1.4-2.1 1.2l-.2-.2c-.1-.1-.4-.3-.8-.3-.7 0-2.2 1.2-4.5 3.4v-.2-.2c.2-.5.4-.9.4-1.1 0-.4-.2-.6-.3-.7-.1-.1-.2-.2-.4-.2v-.2c0-.4-.2-.6-.3-.7-.1-.1-.4-.3-.8-.3-.3 0-.7.2-1.2.5.1-.2.1-.3.1-.5 0-.4-.2-.6-.3-.7-.1-.1-.4-.3-.8-.2-.6 0-2 1.1-4.1 3-.1-.1-.4-.3-.7-.2-.3 0-.8.3-1.4.7.7-1.1 1-1.9 1-2.3 0-.4-.2-.6-.3-.7-.2-.2-.5-.3-.8-.2-.4 0-1.1.5-2.2 1.3 0-.4-.2-.6-.3-.7-.2-.2-.5-.3-.8-.2-.3 0-.8.3-1.5.8-.2-.1-.4-.2-.7-.2-.5 0-1.4.7-2.8 1.9 0 0 0-.1-.1-.1-.2-.2-.5-.3-.8-.2-.3 0-.8.3-1.5.8.1-.3.2-.5.2-.7 0-.4-.2-.6-.3-.7-.2-.2-.5-.3-.7-.2-.6 0-1.7.8-3.3 2.3.7-1.1 1.1-1.9 1.1-2.3 0-.3-.1-.5-.3-.7-.2-.2-.5-.3-.7-.2-.4 0-1 .4-1.8 1h-.2c-.4 0-.9.3-1.7 1 .5-.8.7-1.4.7-1.8 0-.3-.1-.5-.3-.7-.2-.2-.5-.3-.7-.2-.5 0-1.3.6-2.5 1.6.3-.5.4-.9.4-1.2 0-.3-.1-.5-.3-.7s-.4-.3-.7-.2c-.6 0-1.8 1-3.8 2.8.1-.3.2-.5.2-.7 0-.3-.1-.5-.3-.7-.2-.2-.5-.3-.7-.2-.4 0-1.2.5-2.3 1.4.6-.9.8-1.6.8-1.9 0-.3-.1-.5-.3-.7-.2-.2-.4-.3-.7-.2-.7 0-2.1 1.2-4.5 3.5.1-.2.1-.4.1-.5 0-.3-.1-.5-.3-.7-.2-.2-.4-.3-.7-.2-.5 0-1.5.8-3.1 2.2.4-.7.6-1.2.6-1.5 0-.3-.1-.5-.3-.7-.2-.2-.5-.3-.7-.2-.4 0-1.1.5-2.2 1.4 0-.2-.1-.4-.3-.6-.2-.2-.4-.2-.7-.2-.1 0-.2 0-.3.1 0-.2-.1-.3-.3-.4-.2-.2-.4-.2-.7-.2-.4 0-1 .4-1.9 1.2.7-1 1-1.7 1-2.1 0-.3-.1-.5-.3-.7-.2-.2-.4-.2-.7-.2-.6 0-2 1.1-4.2 3.3-.9.8-2.2 2-3.7 3.6.2-.4.3-.7.3-.9 0-.2-.1-.3-.1-.4 1.8-2.4 2.7-3.8 2.7-4.4 0-.3-.1-.5-.3-.7-.2-.2-.4-.2-.7-.2-.5 0-1.7.9-3.6 2.7-.5.1-1.5.8-3 2.2 0-.2-.1-.4-.3-.6-.1-.1-.2-.2-.4-.2 1.3-1.7 1.9-2.8 1.9-3.3 0-.3-.1-.5-.3-.6-.2-.2-.4-.2-.7-.2-.7 0-2.7 1.7-6 5.3.9-1.2 1.3-2 1.2-2.4 0-.3-.1-.5-.3-.6-.2-.2-.4-.2-.7-.2-.7 0-2.7 1.8-6.2 5.4 1.4-2.1 1.1-2.4.7-2.7-.1-.1-.2-.1-.3-.2.3-.5.4-.9.4-1.1 0-.2-.1-.5-.3-.6-.2-.2-.4-.2-.7-.2-.5 0-1.6.9-3.5 2.7-.2-.2-.4-.2-.7-.2-.6 0-1.8 1.1-3.9 3.2 2.9-3.7 3.1-4.7 2.5-5.2-.2-.2-.4-.2-.7-.2-.6 0-1.9 1.1-4.2 3.5v-.2c0-.2-.1-.4-.2-.5.6-.9.9-1.4.9-1.7 0-.2-.1-.5-.3-.6-.2-.2-.4-.2-.6-.2-.2 0-.5.2-1 .5 0-.1-.1-.2-.2-.3-.2-.1-.4-.2-.6-.2h-.1c.8-1.2 1.2-1.9 1.2-2.3 0-.2-.1-.5-.3-.6-.2-.1-.4-.2-.6-.2-.7 0-2.3 1.5-5.7 5.1h-.2c-.1 0-.2 0-.3.1 1.3-1.7 1.9-2.7 1.8-3.1 0-.2-.1-.5-.3-.6-.1-.1-.4-.2-.6-.2-.5 0-1.4.8-3.2 2.6h-.3c-.4 0-1 .5-2.1 1.5 2.7-3.5 2.6-4.1 2.1-4.5-.2-.1-.4-.2-.6-.2-.3 0-.9.4-1.8 1.2.4-.9.3-1.1 0-1.4-.2-.1-.4-.2-.6-.2-.6 0-2.2 1.5-5.6 5.2.3-.6 0-.8-.2-1-.1-.1-.2-.1-.3-.2.1-.2.1-.3.1-.5s-.1-.4-.3-.6c-.1-.1-.4-.2-.6-.2h-.1c1.6-2.1 1.3-2.4.9-2.7-.2-.1-.4-.2-.6-.2-.8.1-3.3 2.5-11.7 12.1 5.7-6.8 5.4-7.1 4.8-7.7-.2-.1-.4-.2-.6-.2-.5 0-1.5.8-3.9 3.5 5.7-6.8 5.4-7.1 4.8-7.6-.2-.1-.4-.2-.6-.2-.7 0-2.7 2-9.6 9.9 5.8-7 5.5-7.2 4.9-7.8-.1-.1-.4-.2-.6-.2-.3 0-.7.3-1.5 1 .8-1.2.5-1.4.2-1.7-.2-.1-.4-.2-.6-.2-.2 0-.5.2-1.1.7v-.2c0-.2-.1-.4-.3-.6-.2-.1-.4-.2-.6-.2-.6 0-1.8 1.1-8.7 9 3.9-4.8 3.7-5 3.1-5.5-.2-.1-.4-.2-.6-.2-.1 0-.3.1-.5.2.2-.3.3-.6.3-.8.5-.6.6-.9.6-1.2 0-.2-.1-.4-.3-.6-.2-.1-.4-.2-.6-.2-.4 0-1 .4-3.1 2.7-.7.4-2.1 1.9-6.5 7 4.2-5.2 4-5.4 3.4-5.9-.1-.1-.4-.2-.6-.2l-.1-.1c-.1-.1-.3-.2-.5-.2 3.2-4 3-4.1 2.5-4.6-.2-.1-.4-.2-.6-.2-.4 0-.8.2-3.9 3.8l-.1-.1c-.2-.1-.4-.2-.6-.2-.4 0-.8.2-3.9 3.8.6-.8.7-1.2.7-1.5 1-1.2 1.1-1.5 1.1-1.7 0-.2-.1-.4-.3-.5-.2-.1-.4-.2-.6-.2-.3 0-.4 0-1.3 1 .1-.3-.1-.4-.3-.6-.2-.1-.4-.2-.6-.2-.3 0-.5 0-1.9 1.6 0 0-.1-.1-.2-.1-.2-.1-.4-.2-.6-.2-.4 0-.5 0-2.4 2.3 2.7-4.5 2.7-4.6 2.2-5.1-.1-.1-.3-.2-.6-.2-.4 0-.5 0-4.8 5.1-.1.1-.1.2-.2.2 2.1-3.8 2.1-3.8 1.6-4.2-.2-.1-.4-.2-.6-.2-.3 0-.4 0-1.3 1.2.2-.9.1-.9-.2-1.2-.1-.1-.4-.2-.5-.2-.3 0-.3 0-1.7 1.6-.5.6-1.1 1.2-1.2 1.3l.5.5v.7c.3 0 .3 0 1-.8-.2.9-.1 1 .1 1.2.1.1.3.2.4.2 0 .1-.1.1-.1.2-2.7 4.8-2.7 4.8-2.1 5.3.1.1.4.2.6.2.4 0 .5 0 4.4-4.5-2.9 4.8-2.9 4.8-2.3 5.3l.1.1c-.9 1.3-.8 1.4-.4 1.8.1.1.4.2.6.2h.1c-.4.6-.5.9-.5 1.2-3 3.3-3.1 3.6-3.1 4.1 0 .2.1.4.3.5.2.1.4.2.6.2.3 0 .5 0 2.4-2.2-.2.4-.4.6-.5.8-2.2 2.5-2.3 2.8-2.3 3.2 0 .2.1.4.3.5.2.1.4.2.6.2.4 0 .6-.2 2.6-2.3.1.1.3.2.5.2h.1c-2.3 2.8-2.3 3.2-1.9 3.6-.8 1.1-.6 1.3-.2 1.6.2.1.4.2.6.2.4 0 .9-.4 2.9-2.6-3.2 4-3.5 4.7-3.2 5.2-.2.3-.2.5-.2.6 0 .2.1.4.3.6.1.1.4.2.6.2.2 0 .4-.1.8-.4-.4.7-.2.9.1 1.1.2.1.4.2.6.2.2 0 .5-.1 1-.6-5 6.1-4.8 6.3-4.2 6.8-1.5 1.9-2 2.7-2 3.1 0 .2.1.4.3.6.2.1.4.2.6.2.4 0 1.2-.7 3.9-3.6-4.1 4.9-3.8 5.2-3.3 5.7.1.1.4.2.6.2.6 0 2.1-1.4 7.1-7.1-5.7 6.8-5.4 7.1-4.8 7.6.2.1.4.2.6.2.5 0 1.6-.9 4.4-4-6.3 7.5-6 7.8-5.4 8.4.1.1.4.2.6.2.4 0 1.2-.6 2.7-2.2-6 7.1-5.7 7.4-5.1 8 .2.1.4.2.6.2.2 0 .4-.1.8-.4-.4.8-.2 1 .1 1.2 0 0 .1.1.2.1-.3.5-.5.9-.4 1.1 0 .2.1.4.3.6.2.1.4.2.6.2.1 0 .3-.1.6-.3-2.1 2.7-1.8 3-1.4 3.4.2.1.4.2.6.2.3 0 .7-.3 1.5-1-.6 1.1-.5 1.4-.1 1.7.1.1.4.2.6.2.2 0 .5-.2.9-.5-4.7 5.6-5.3 6.9-5 7.5-1 1.3-1.4 2-1.3 2.4 0 .2.1.5.3.6.1.1.4.2.6.2.2 0 .4-.1.8-.4-.6 1-.9 1.5-.9 1.9 0 .2.1.5.3.6.1.1.4.2.6.2.5 0 1.4-.7 3-2.3h.1c-3.3 4-4.7 6-4.7 6.7 0 .2.1.5.3.6.2.1.4.2.6.2.3 0 .7-.3 1.3-.8.2.1.3.1.5.1.1 0 .3-.1.5-.2h.2c.2 0 .5-.2 1-.5.2.2.4.2.7.2.1 0 .2 0 .3-.1-1.3 1.7-1.9 2.7-1.8 3.2 0 .2.1.5.3.6.2.2.4.2.7.2.5 0 1.4-.7 3-2.3-3.6 4.5-4.1 5.7-3.6 6.3-2.4 2.9-3.5 4.6-3.5 5.2 0 .2.1.5.3.6.2.2.4.2.7.2.5 0 1.5-.8 3.2-2.4.2.2.4.2.7.2.3 0 .8-.3 1.5-.9-5 6.1-4.6 6.5-4 7 .2.2.4.2.7.2.4 0 1-.5 2-1.3-2.5 3.2-3.7 5-3.7 5.7 0 .3.1.5.3.6.2.2.4.2.7.2.2 0 .6-.2 1.1-.5v.3c0 .3.1.5.3.6.1.1.1.1.2.1-3 3.7-4.5 5.8-4.4 6.5 0 .3.1.5.3.6.2.2.4.2.7.2h.1c-1 1.4-1.5 2.3-1.5 2.8 0 .3.1.5.3.7s.4.3.7.2c.5 0 1.5-.8 3-2.2-.6.9-.9 1.6-.9 1.9 0 .3.1.5.3.7.2.2.4.2.7.2.2 0 .6-.2 1.1-.5-2.7 3.4-4 5.4-4 6.1 0 .2.1.4.2.5-1.2 1.6-1.8 2.7-1.7 3.2 0 .3.1.5.3.7.2.2.4.2.7.2.5 0 1.7-.9 3.6-2.7.1.1.1.3.3.4.2.2.4.2.7.2.2 0 .5-.2.9-.4-.5.6-.9 1.2-1.2 1.7-1.8 2.4-2.7 3.8-2.7 4.5 0 .3.1.5.3.7.2.2.4.3.7.2.3 0 .9-.3 1.6-.9-.3.5-.4.9-.4 1.1 0 .3.1.5.3.7.2.2.4.3.7.2h.2c-3 3.8-4.5 6-4.4 6.9 0 .3.1.5.3.7.2.2.4.2.7.2.3 0 .9-.3 1.7-1-.6 1-.9 1.6-.9 2 0 .3.1.5.3.7.2.2.5.3.7.2.1 0 .2 0 .3-.1-1.7 2.3-2.6 3.8-2.5 4.4 0 .3.1.5.3.7.2.2.5.3.7.2.3 0 .7-.2 1.3-.6-1.1 1.4-1.8 2.5-2.2 3.3-1.6 2.2-2.4 3.6-2.4 4.2 0 .3.1.5.3.7.2.2.5.3.7.2.7 0 2.1-1.1 4.4-3.3-.5.8-.7 1.4-.7 1.7 0 .3.1.5.3.7.2.2.5.3.7.2h.2c-.9 1.4-1.4 2.3-1.3 2.7 0 .4.2.6.3.7l.1.1c-1 1.5-1.6 2.5-1.5 3 0 .3.2.6.3.7 0 .1.1.2.1.3-1.8 2.4-2.7 3.9-2.7 4.6 0 .3.1.5.2.6-.6.9-.9 1.6-.9 2 0 .4.2.6.3.7.2.2.5.3.8.2.2 0 .4-.1.6-.2-1.4 2-2.1 3.2-2.1 3.8 0 .4.2.6.3.7s.4.3.8.2c.1 0 .3-.1.5-.2 0 .4.2.6.3.7s.4.3.8.2c.8-.1 2.8-1.7 6-4.8 0 .1.1.1.1.2-.5.8-.7 1.4-.7 1.7 0 .4.2.6.3.7.1.1.4.3.8.3.8 0 2.5-1.4 5.2-4-.5.9-.8 1.5-.7 1.8 0 .4.2.6.3.7.1.1.4.3.8.3.2 0 .4-.1.6-.2l.1.1c.1.1.2.2.4.2-.6.9-.8 1.6-.8 1.9 0 .4.2.6.3.7.1.1.4.3.8.2.7 0 2.3-1.2 4.7-3.5 0 .2-.1.3-.1.4 0 .4.2.6.3.7.1.1.4.3.8.2.7 0 2.2-1.2 4.4-3.3.2-.2.5-.4.8-.6 0 .1-.1.3-.1.4 0 .3.1.5.2.6-1.6 2.2-2.5 3.7-2.4 4.3 0 .4.2.6.3.7.2.2.4.2.7.2h.1c.5 0 1.4-.6 2.7-1.7.2.1.3.1.5.1.5 0 1.4-.6 2.7-1.8.2.2.4.2.7.2.4 0 .9-.3 1.7-.9-.4.7-.5 1.1-.5 1.4 0 .4.2.6.3.7.2.2.5.3.7.2h.2c0 .2.1.4.3.6.2.2.4.3.7.2.4 0 1-.4 1.8-1 .1.1.1.3.2.3.2.2.5.3.7.2.8-.1 2.7-1.6 5.9-4.8v.2c0 .1 0 .2.1.3-.4.7-.6 1.1-.5 1.4 0 .3.1.5.3.7s.5.3.7.2c.4 0 1.1-.4 2.1-1.3.1.1.1.2.2.3.2.2.5.3.7.2.3 0 .7-.2 1.2-.6-.8 1.3-1.2 2.1-1.2 2.5 0 .3.1.5.3.7.2.2.4.2.7.2.2 0 .6-.2 1.1-.5 0 .2.1.5.3.6.2.2.4.2.7.2.8-.1 2.7-1.6 5.8-4.8.2.1.4.2.6.2-1 1.5-1.5 2.5-1.5 2.9 0 .3.1.5.3.7.2.2.4.3.7.2.7 0 2.2-1.3 4.7-3.7h.2c.4 0 1.1-.4 2-1.3 0 .1-.1.2 0 .3 0 .3.1.5.3.7.2.2.4.3.7.2h.1c-1.5 1.9-2.2 3.1-2.2 3.7 0 .3.1.5.3.7.2.2.4.2.7.2.4 0 1-.4 1.9-1.2l.1.1c.2.2.4.3.7.2.4 0 1.2-.6 2.5-1.7 0 .2-.1.3-.1.4 0 .3.1.5.3.7.2.2.4.2.7.2.5 0 1.6-.9 3.4-2.6-.2.4-.4.8-.3 1 0 .3.1.5.3.7.2.2.4.3.7.2.5 0 1.4-.7 2.9-2.1-.5.8-.8 1.4-.7 1.7 0 .3.1.5.3.6.2.2.4.2.7.2.7 0 2.3-1.4 5-4.2-1 1.4-1.5 2.4-1.5 2.8 0 .2.1.3.2.5-.1.2-.1.4-.1.6 0 .3.1.5.3.6.2.2.4.2.7.2.2 0 .6-.2 1.1-.6-.2.4-.3.6-.3.8 0 .3.1.5.3.6s.4.2.7.2c.6 0 2-1.2 4.4-3.6-.1.2-.1.4-.1.5 0 .3.1.5.3.6.2.2.4.2.7.2.2 0 .5-.2 1-.5-.3.5-.4.8-.4 1 0 .3.1.5.3.6.2.2.4.2.7.2.4 0 1.2-.6 2.4-1.7.2.2.4.2.6.2.3 0 .9-.3 1.7-1 .1 0 .1 0 .2-.1v.2c0 .2.1.5.3.6.2.2.4.2.7.2.4 0 1-.5 2-1.4-.8 1.2-1.2 1.9-1.1 2.2 0 .2.1.5.3.6.2.2.4.2.7.2.3 0 .8-.3 1.5-.9 0 0 .1 0 .1-.1l.1.1c.2.1.4.2.6.2.5 0 1.6-.9 3.7-3-.6.9-.9 1.4-.9 1.7 0 .2.1.5.3.6.2.1.5.2.6.2.7 0 2.7-1.8 6.8-6.3-2.2 2.9-2.1 3.4-1.6 3.8.2.1.4.2.6.2.4 0 1.2-.6 2.6-1.9-4.1 5.1-4.1 5.8-3.5 6.3.1.1.4.2.6.2.3 0 1-.4 2-1.4 0 .1.1.2.2.3.2.1.4.2.6.2h.1v.2c0 .2.1.5.3.6.2.1.4.2.6.2.9-.1 4-3.2 11.7-12-5.6 6.7-6.8 8.5-6.8 9.3-.4.6-.5.9-.5 1.1 0 .2.1.4.3.6.2.1.4.2.6.2.3 0 .7-.3 1.4-.9.4 0 1.2-.6 2.9-2.3 0 .2.1.3.3.5.2.1.4.2.6.2.4 0 1.3-.7 3-2.5.3-.1.7-.4 1.3-1-.3.6-.3.9-.1 1.1-.1.3-.2.5-.2.6 0 .2.1.4.3.6.2.1.4.2.6.2.7 0 2.1-1.4 6.4-6.2-7.5 9-7.2 9.2-6.6 9.8.2.1.4.2.6.2.5 0 1.4-.8 3.8-3.4.1.1.3.1.4.1.7 0 2.6-1.9 9.3-9.5-5.9 7-5.9 7.6-5.3 8.1-1.9 2.3-2.5 3.2-2.5 3.6 0 .2.1.4.3.6.2.1.4.2.6.2.4 0 .9-.4 2.5-2.1-.4.7-.2.9.1 1.2.2.1.4.2.6.2.6 0 1.7-1 7.7-7.9-3.1 3.8-2.8 4.1-2.3 4.5.2.1.4.2.6.2.5 0 1.2-.6 4.6-4.5-6.4 7.9-6.3 8.1-5.6 8.6.2.1.4.2.6.2.6 0 1.7-1.1 9.6-10.2-5 6.2-4.8 6.3-4.2 6.9.1.1.4.2.6.2.1 0 .2 0 .4-.1-1.1 1.5-.9 1.6-.5 2 .2.1.4.2.6.2.4 0 .8-.2 4.2-4.1.1.1.1.2.3.3.2.1.4.2.6.2.6 0 1-.4 8.2-8.8-6.8 9.3-6.7 9.3-6.1 9.9.2.1.4.2.6.2.3 0 .5 0 1.8-1.6.1 0 .2.1.3 0h.1c-1.3 1.8-1.1 2-.7 2.3.2.1.4.2.6.2.4 0 .5 0 4-4.2-1 2.1-1 2.1-.5 2.5.1.1.3.2.6.2.4 0 .5 0 2.9-2.9-3.1 5.4-3.1 5.4-2.5 5.9.2.1.4.2.6.2.4 0 .4 0 1.9-1.8 0 .5.1.6.3.7.1.1.3.2.5.2.3 0 .5-.2.7-.5.1-.1.1-.1.1-.2l-.2-.2c0-.1 0-.6.1-1 .1-1.4.1-1.5-.2-1.8-.1-.1-.3-.2-.4-.2.2-.4.4-.7.6-1.1 3.3-5.8 3.3-5.8 2.7-6.3-.1-.1-.4-.2-.6-.2-.4 0-.5 0-3.6 3.7 1-2 .9-2.1.5-2.5-.2-.1-.4-.2-.6-.2 1.3-1.9 1.6-2.4 1.5-2.7 2.8-3.3 2.7-3.4 2.2-3.9-.2-.1-.4-.2-.6-.2-.4 0-.6 0-4.3 4.4 6.3-8.7 6.3-8.7 5.6-9.3-.1-.1-.3-.2-.5-.2.2-.5.1-.7-.2-.9 0 0-.1 0-.1-.1.3-.6.1-.8-.1-1-.2-.1-.4-.2-.6-.2-.1 0-.2 0-.3.1l-.1-.1c-.2-.1-.4-.2-.6-.2-.4 0-.7.2-2.6 2.3 4-5 3.8-5.1 3.2-5.6-.2-.1-.4-.2-.6-.2-.6 0-1.5.8-7 7.3 7.6-9.2 7.4-9.4 6.7-10-.2-.1-.4-.2-.6-.2-.2 0-.4.1-.7.3 4.8-5.7 4.6-5.9 4-6.5zM82.1 256.7l.6-.9h.4c-.3.3-.7.6-1 .9zm166.7-66.2c-.5.6-1.1 1.3-1.7 2.1-.4.3-.9.8-1.5 1.3 1.2-1.3 2.3-2.4 3.2-3.4zM220.1 228c3.7-4.4 7.5-8.7 11-12.8 6.4-7 10.8-12 13.6-15.4 1-1.1 2-2.1 2.8-2.9-4.8 6.1-16.1 18.6-27.4 31.1zm8.5.1c-2.6 2.9-5.3 5.9-7.8 8.7 1.4-1.6 2.7-3.2 4.1-4.7 1.3-1.4 2.5-2.7 3.7-4zm-7.4-9.5c.2-.2.4-.5.6-.7.9-1 1.8-2 2.7-2.9l-3.3 3.6zm-16.2 6.2c-.4.4-.7.8-1.1 1.2 17.2-20.1 36.5-42.6 43-48.8-5.2 7.1-24.5 28.5-41.9 47.6zm-5.6 8.9c-3.3 3.6-6.4 6.9-9.3 10 4.8-5.4 9.9-10.9 14.8-16.4l-.2.2c-1.8 2-3.6 4.1-5.3 6.2zm2.4 8.3c-.6.7-1.2 1.4-1.7 2-3.4 3.7-6.5 7.1-9.3 10.1 3.5-3.8 7.2-7.9 11-12.1zm10.9-50.7l-10.2 11.1c2.6-3.1 5.3-6.2 7.9-9.2 4.2-4.5 8-8.7 11.6-12.6-2.9 3.3-5.9 6.8-9.3 10.7zm3.9.6c-4.2 4.6-8.5 9.3-12.9 14.1.6-.8 1.3-1.5 1.9-2.3 3.9-4.2 7.6-8.1 11-11.8zm-13.4 6.8c1.5-1.8 3-3.5 4.5-5.2 2.2-2.3 4.2-4.6 6.3-6.8-1.5 1.7-3 3.5-4.6 5.4-2.1 2.2-4.2 4.4-6.2 6.6zm3.4-6.2c-1.5 1.6-2.9 3.2-4.4 4.7 6.3-7.3 12.5-14.5 18.4-21.3 3.8-4.2 7.3-8.1 10.5-11.6-6.5 7.3-14.6 16.7-24.5 28.2zm18.6 4.8c9.4-10.8 17.5-20 21.8-24.3-3.6 4.5-11.9 13.6-21.8 24.3zm-18 17c6.1-7.1 12.2-14.2 17.9-20.8 8-8.8 14.1-15.7 18.3-20.6 2-2.2 3.7-3.9 4.9-5-4.9 6.7-23.4 27-41.1 46.4zm-1-2.4c.6-.7 1.3-1.5 1.9-2.2 3-3.2 5.8-6.2 8.4-9-3.3 3.7-6.8 7.5-10.3 11.2zm43.6-54.5c-.9 1.3-2.4 3.2-4.4 5.5-5 5.1-13.4 14.6-25.7 28.8-4.1 4.5-8.4 9.2-12.7 13.8 4.7-5.5 9.4-10.9 13.8-16.1 11.6-12.7 19.6-21.7 24.3-27.4 2-2 3.6-3.6 4.7-4.6zm-.7-7.5c.2-.1.3-.3.4-.4-.8 1.2-2.2 3-4.1 5.3-.6.6-1.4 1.3-2.2 2.2 2.5-2.9 4.4-5.3 5.9-7.1zm-1.2-.9l.3-.3-.3.3zm1.1-3.6c-2.3 1.9-6.5 6.2-12.5 12.9 3.5-4 6.5-7.4 8.9-10.3 2.8-3 5-5.2 6.4-6.4-.6.9-1.6 2.2-2.8 3.8zm1.7-6.8c.2-.2.4-.3.5-.5-1.1 1.7-3.6 4.9-7.1 9-5.6 5.9-13.7 15.1-24.7 27.8-8.2 9-17.1 18.7-25.7 28.1 4.2-4.9 8.4-9.9 12.6-14.7 24.4-26.3 38.9-42.3 44.4-49.7zm-162.5 119c.6-.8 1.2-1.6 2-2.6l.5-.5c-.9 1.1-1.8 2.2-2.5 3.1zm.4 6.6l-.8.8c.1-.2.3-.3.4-.5.1-.1.3-.2.4-.3zm.6-10.2c-1 .9-1.7 1.6-2.3 2.1.9-1.5 3-4.2 6-7.8 6.3-6.5 16.4-18 30.8-34.6 8.4-9.2 17.4-19 26.2-28.5-6.1 7.2-12.4 14.5-18.5 21.6-20.7 22.3-35.3 38.5-42.2 47.2zm2.9-8.8c4.5-5.2 11-12.5 18.7-20.7-7.5 8.5-14 15.8-18.7 20.7zm63.2-50.9c-.4.5-.8 1-1.3 1.5-1.7 1.9-3.5 3.7-5.1 5.5 2.1-2.3 4.3-4.7 6.4-7zm-2.6-14.5c.3-.3.5-.6.8-.9.9-.9 1.7-1.8 2.6-2.7-1.2 1.2-2.3 2.4-3.4 3.6zm-20.3 28c5.2-5.6 10.5-11.4 15.7-17-2.7 3.2-5.4 6.3-8.1 9.5-5.6 6-10.8 11.6-15.6 16.8 2.5-3 5.2-6.1 8-9.3zm10.5 6c5-5.4 10.1-10.9 15.2-16.4l-3.9 4.5c-5 5.3-9.7 10.4-14.1 15.1.9-1 1.8-2.1 2.8-3.2zm.3 6.3c7.8-8.4 15.8-17.2 23.7-25.7-1.8 2.1-3.6 4.1-5.3 6.2-7.4 7.9-14.3 15.3-20.5 22 .7-.8 1.4-1.7 2.1-2.5zm30.5-20c-2.9 3.4-5.8 6.7-8.7 10.1-5.6 6-10.8 11.6-15.7 16.9 2.7-3.1 5.4-6.3 8.3-9.7 5.4-5.6 10.8-11.5 16.1-17.3zm-5.3-16c.2-.3.4-.5.7-.8 2.4-2.6 4.8-5.1 7.1-7.6l-7.8 8.4zM180 178c-3.4 3.6-6.7 7.3-10 10.9.6-.7 1.3-1.5 1.9-2.2 2.8-3 5.5-5.9 8.1-8.7zm-6.1 17.3c-.5.5-.9 1.1-1.4 1.6-1.9 2-3.8 4-5.6 5.9 2.4-2.5 4.7-5 7-7.5zm-2.9 14.8c-4.6 5.4-9.2 10.7-13.7 15.9-.2.3-.5.5-.7.8 4.4-5.1 9-10.5 14-16.2.1-.2.2-.3.4-.5zM156.5 240c-10.4 11.4-17.9 19.8-22.7 25.5-1.3 1.4-2.5 2.6-3.5 3.7 5.2-6.4 14.9-17 26.2-29.2zm18.2-17.6c1.9-2 3.8-4.1 5.7-6.1-6.2 7.2-12.4 14.5-18.3 21.2-4 4.4-7.7 8.4-10.9 12.1 6.5-7.4 14.3-16.5 23.5-27.2zm.5-30.7c.6-.7 1.3-1.5 1.9-2.2 2.5-2.6 4.9-5.2 7.2-7.7-3 3.3-6.1 6.7-9.1 9.9zM183 162c-8.1 8.8-16.5 17.9-24.7 26.8 2.5-2.9 5.1-5.9 7.6-8.9 8.1-8.7 15.5-16.6 22.2-23.8-1.7 2-3.4 3.9-5.1 5.9zm-18.6 12c3.6-4.2 7.3-8.5 10.9-12.7 1.4-1.5 2.7-3 4.1-4.4-3.7 4.3-7.6 8.9-11.8 13.7-1 1.1-2.1 2.2-3.2 3.4zm30.9 10c7.6-8.2 14.6-15.7 20.9-22.6-2.4 2.8-5 5.7-7.6 8.8-7.2 7.9-14.8 16.1-22.2 24.1 3-3.4 6-6.9 8.9-10.3zm-6.1.4c3.8-4.4 7.6-8.8 11.3-13.2l3.3-3.6c-3.9 4.5-8 9.3-12.3 14.3-.8.8-1.6 1.6-2.3 2.5zm28.1-28.2c.2-.2.3-.4.5-.5l.3-.3c-.2.2-.3.4-.5.6-.1 0-.2.1-.3.2zm29.3-32.7c-.4.4-.7.9-1.1 1.3-.8.8-1.7 1.8-2.7 2.8.3-.3.6-.7.9-1 1-1.1 2-2.1 2.9-3.1zm-.6-3.3c.1-.1.2-.3.3-.4.4-.4.8-.8 1.2-1.1-.4.5-.9 1-1.5 1.5zm1.4 6.5c-.3.4-.7.8-1.1 1.3l-.1.1c.5-.5.9-1 1.2-1.4zm.2 12.3c-1.3 1.6-2.9 3.4-4.7 5.5-3.2 3.4-7.2 7.8-12 13.3-2.5 2.7-5.2 5.6-8 8.6 10.4-12 19.4-22 24.7-27.4zm-14.7-27.6c.3-.4.5-.8.7-1.2 1.5-1.4 2.6-2.5 3.4-3-.3.6-.8 1.3-1.5 2.2-.9.9-2 1.9-3.2 3.1.3-.4.5-.8.6-1.1zm-5.9-3.3c.1-.1.3-.2.4-.3-.1.2-.3.5-.5.7v-.1-.1c.1-.1.1-.2.1-.2zm.6 2.1c1.3-1.3 2.4-2.2 3.1-2.8-.7 1.2-2.3 3.4-4.6 6.2-.6.6-1.3 1.3-2 2.1 2.2-2.8 3.4-4.7 3.5-5.5zm10.2 14.8c4.5-4.8 7.9-8.4 10-10.2-1.6 2.1-4.1 5.2-7.4 8.9-4.8 5-11.3 12.2-19.4 21.5-5.4 5.9-11.3 12.2-17.4 18.8 4.7-5.5 9.3-10.8 13.7-15.8 8.4-9.4 15.3-17.2 20.5-23.2zm-16.2-2c-2.4 2.7-5 5.7-8 8.9 2.9-3.2 5.6-6.2 8-8.9zm-4.2-9c.2-.2.3-.4.4-.6.8-.8 1.6-1.5 2.2-2.1-.8.8-1.6 1.7-2.6 2.7zm1.7-4.9c-.5.8-1.3 1.9-2.3 3.3-7.6 7.5-22.2 24.2-42.6 47.9-5.1 5.6-10.4 11.3-15.6 16.9 7.2-8.5 14.6-17 21.6-25.1 15.1-16.5 25.3-28 30.9-34.9 3.7-4.1 6.5-6.9 8-8.1zm-29.7 28.2c7.5-8.6 14-15.8 18.7-20.7-4.5 5.1-11.1 12.4-18.7 20.7zm22.3-29.7c-.9 1.4-2.6 3.7-5.1 6.7-6.4 6.7-16.5 18.1-30.6 34.5-7.9 8.7-16.4 17.9-24.7 27 8-9.4 16.3-19 24.1-28 14.1-15.5 23.9-26.4 29.5-33.3 3-3.4 5.4-5.8 6.8-6.9zm-3.2-.5c-.8 1.3-2.5 3.5-4.8 6.3-6.4 6.7-16.1 17.8-29.6 33.4-7.7 8.4-15.9 17.4-24.1 26.2 8.5-9.9 17.2-20.1 25.3-29.5 11.1-12.2 19.1-21.2 24.1-27.3 4.3-4.5 7.4-7.7 9.1-9.1zm-4.7 1.2c-.9 1.4-2.7 3.7-5.2 6.8-5.8 6.2-13.8 15.3-24.2 27.4-8.5 9.4-18 19.7-27.1 29.7 9.4-11 19.1-22.3 27.8-32.3 8.5-9.4 15-16.7 19.7-22.2 4.1-4.7 7.2-7.9 9-9.4zm-2.5-1.4c-1.2 1.9-3.9 5.2-7.7 9.7-4.9 5.3-11.4 12.7-19.7 22.2-8.7 9.6-18.4 20.2-27.9 30.6 7.6-8.9 15.5-18.1 22.8-26.6 11.2-12.4 19.1-21.2 23.6-26.8 4-4.4 7.1-7.6 8.9-9.1zm-6.7 3.8c-4.7 6-17 19.5-31.3 34.7 14.2-16.5 26.6-30.5 31.3-34.7zm-6.1 1.9c1.5-1.6 2.8-2.8 3.7-3.6-4.8 7-28.2 32.8-50.2 56.8 5.3-6.2 10.7-12.5 16-18.6 15.9-17.5 26-28.8 30.5-34.6zm-45.2 66c-8 9.4-16.3 19-24 27.9-13.5 14.8-23.2 25.6-29.2 32.8-1.9 2-3.4 3.5-4.5 4.3 1.1-1.7 3.4-4.6 6.6-8.4 5.5-5.9 13.3-14.7 23.8-26.8 8.5-9.4 18-19.8 27.3-29.8zm-33.5 12.6c-9 10.4-16.8 19.2-21.4 23.9 3.7-4.6 11.7-13.5 21.4-23.9zm-21 13.1l-1.2 1.2c.6-.8 1.5-1.9 2.5-3.1 4.5-4.7 11.2-12.4 20.8-23.4 2.8-3 5.6-6.2 8.5-9.3-3.7 4.3-7.4 8.6-10.9 12.6-8.6 9.4-15.2 16.7-19.7 22zm43-34.2c-2.6 3-5.2 6.1-7.8 9.1-11.3 12.1-20.3 21.9-27.2 29.6 9.4-10.7 22.4-24.9 35-38.7zm-13.7 20.2c3.8-4.2 7.8-8.5 11.7-12.8-10 11.7-19.9 23.2-27.9 32.2-.5.6-1 1.2-1.5 1.7-6.2 6.9-11 12.1-13.5 14.3.3-.5.7-1 1.2-1.6 6.1-6.3 15.9-17.4 30-33.8zm19.5-13.5c-8.5 10-17.2 20-24.9 28.9-8.2 9-14.7 16.3-19.6 22-2.6 2.8-4.6 4.8-5.9 5.9.9-1.3 2.5-3.4 4.7-6 5.4-5.7 13.3-14.7 24.1-27.2 6.8-7.5 14.3-15.6 21.6-23.6zm-4.1-15.2c2.8-3.3 5.7-6.6 8.5-9.9 9.3-10 16.9-18.3 23-25-8.6 9.8-20.3 22.6-31.5 34.9zm4.9-11.9c3.4-4 6.9-8 10.2-11.8 10-11 17.2-19 21.7-24.3l1.4-1.4c-.7.9-1.6 2-2.7 3.3-4.6 4.9-11 12.2-19.4 22-3.6 3.9-7.4 8.1-11.2 12.2zm18.6-3.9c-.1.1-.1.2-.2.3-3.6 3.9-7.3 7.9-11 11.9.4-.5.8-.9 1.2-1.4 3.6-3.8 6.9-7.4 10-10.8zm21.5-37.2l.7-.7c-.3.3-.6.7-.9 1.1.1-.1.2-.3.2-.4zm4 1.8c-3.5 4.4-11.6 13.4-21.4 24 8.8-10.2 16.6-19 21.4-24zm-9.8-2.2c-.9 1.2-2.2 2.7-3.7 4.6-4.2 4.3-11.3 12.2-21.5 24.1-2.3 2.5-4.7 5.1-7.1 7.7 13.7-16 26.9-31.2 32.3-36.4zm-5.8 2c-5.3 7.1-23.1 26.8-39.6 45 15.7-18.4 33.2-38.8 39.6-45zm-8.5 5.4c-6.4 7.8-19.7 22.6-32.4 36.6 3.8-4.4 7.7-9 11.5-13.4 9.8-10.6 16.6-18.2 20.9-23.2zm-13.7-3.6c.6-.6 1.1-1.2 1.6-1.8-.7.8-1.4 1.7-2.2 2.7.2-.4.5-.7.6-.9zm9-.2c-5.3 6.8-19.2 22.3-32.1 36.6 12.4-14.4 26-30.4 32.1-36.6zm-18.4.9c-3.6 4.3-8.7 10.1-14.1 16.2 5.2-6.1 10.3-12.1 14.1-16.2zm-13.9 38.2c-4.4 5.2-9 10.5-13.3 15.5-6.4 7-11.6 12.6-15.6 17.2 6.9-8.2 18.4-20.9 28.9-32.7zm-16.3-1.8c-.5.6-1.1 1.2-1.6 1.9-.5.5-1 1.1-1.5 1.6 1-1.2 2.1-2.3 3.1-3.5zm5.6 9.7c-9 10.4-17.4 20.2-22.1 25 4.3-5.2 13-14.9 22.1-25zm-23.8 33.8c-.6.7-1.2 1.3-1.7 1.8.7-.9 1.6-1.9 2.6-3.1.2-.2.4-.3.5-.5-.6.7-1.1 1.3-1.4 1.8zm37.3-36.1c.3-.3.5-.6.8-.9-15.3 17.9-32 37.3-38.3 43.6 5.3-7 22.2-25.8 37.5-42.7zm2.7 1.4c.5-.5.9-1 1.4-1.6-6.2 7.2-12.6 14.7-18.6 21.7-9.7 10.6-16.5 18.2-20.5 23.2-1.4 1.5-2.6 2.7-3.5 3.6 5.3-7.3 24.2-28.1 41.2-46.9zm-43.8 58.8c.4-.6.9-1.2 1.6-2 .9-.7 2.3-2 4.1-3.8-2.5 2.5-4.4 4.5-5.7 5.8zm-.6 11c.3-.5.7-1 1.2-1.6.8-.6 2.1-1.7 3.6-3.3l-.2.2c-1.9 2.1-3.5 3.7-4.6 4.7zm35-31.6c-2.6 3-5.1 5.9-7.6 8.7-6.6 7.3-11.8 13.2-15.8 17.8-3.4 3.8-6.1 6.5-7.8 7.9 5-6.2 17.2-19.4 31.2-34.4zm-33.7 45.4c1.5-2.3 5.3-7 10.7-13.1 4.6-4.9 11-12.1 19.4-21.7 8.6-9.5 18.2-19.9 27.4-29.9-8.8 10.3-18 21-26.4 30.6-10.7 11.8-18.6 20.6-23.8 26.8-3.3 3.5-5.8 6.1-7.3 7.3zm.6 7.4c1.1-1.7 3.5-4.8 7-8.9 5.9-6 15.4-16.8 29.1-32.6 7.7-8.4 15.9-17.3 23.9-26-8.1 9.4-16.4 19.1-24.1 28-14 15.3-23.8 26.4-29.7 33.4-2.8 3-4.9 5.1-6.2 6.1zM83.1 271c.8-.5 2-1.4 3.6-2.9-1.8 1.8-3.2 3.1-4.1 3.8.2-.3.3-.6.5-.9zm-.9 5.5c.5-.9 1.5-2.4 3-4.3-.2.4-.3.7-.3 1v.1c-.7.9-1.3 1.7-1.7 2.4-.4.3-.7.6-1 .8zm7.9-5.1c-2.8 2.9-5 5-6.2 5.9.1-.2.2-.4.4-.6 1.1-.9 2.4-2.2 4.1-3.8.6-.5 1.2-1.1 2-1.8-.2.1-.2.2-.3.3zm.3 4c.1-.2.3-.5.5-.8.5-.3 1.1-.7 1.8-1.4 0 0 0 .1.1.1-1 1-1.8 1.6-2.4 2.1zm4.2-3.9s.1-.1.1-.2c.4-.4.8-.8 1.3-1.2l-1.4 1.4zm2.8 5.7c.3-.6.8-1.4 1.6-2.3.4-.4.9-.8 1.5-1.3.1 0 .3.1.5.1s.4-.1.6-.2c-1.9 1.7-3.3 3-4.2 3.7zm-4.2-11.6c4.4-5.1 10.2-11.5 16.7-18.6-6.4 7.2-12.1 13.6-16.7 18.6zm9.9 9.4c.3-.5.7-1.2 1.3-2v.3c0 .2.1.4.1.5-.5.5-1 .9-1.4 1.2zm5.5 1.1c-.5.5-1 .8-1.3 1.1.5-.8 1.2-1.9 2.3-3.2.1-.1.3-.2.4-.3-.7 1-1.2 1.8-1.4 2.4zm7.7-.8l-.2.2c.3-.5.8-1.2 1.4-2v.1c-.5.6-.9 1.2-1.2 1.7zm.3-7.4c-.8.9-1.6 1.7-2.4 2.5.9-1.1 1.8-2.2 2.9-3.5.6-.6 1.2-1.3 1.8-1.9-.8 1-1.6 2-2.3 2.9zm-3.6-2.7c-2.5 2.7-4.7 5-6.5 6.7 3.7-5.8 22.5-26.3 44.3-49.7-2.4 2.8-4.8 5.5-7.1 8.2-14.3 15.7-24.8 27.5-30.7 34.8zm16.8 7.8c.1-.1.1-.2.2-.4 2.6-2.5 6.3-6.4 11.1-11.8-1.9 2.2-3.6 4.1-5 5.9-2.8 3-4.9 5.2-6.3 6.3zm3.3 3.1c.2-.3.4-.5.6-.8 1.5-1.4 3.4-3.4 5.7-5.9-.4.6-.8 1.1-1 1.5-2.3 2.4-4.1 4.2-5.3 5.2zm8.7-3.5c-1.1 1.1-2 2-2.7 2.6.7-1.1 1.9-2.6 3.5-4.5l1.1-1.1c-1.1 1.4-1.7 2.4-1.9 3zm-.8-2.4c.2-.2.4-.4.5-.6-.1.1-.1.2-.2.3 0 .1-.2.2-.3.3zm-8.4 4.1c-.7.6-1.2 1.2-1.7 1.5 1.1-1.6 3.3-4.5 6.4-8.2 5.7-6 14.3-15.7 25.9-29.2 7.9-8.7 16.5-18.1 25-27.2-4.1 4.8-8.3 9.7-12.5 14.5-24.3 26.4-38.4 42-43.1 48.6zm44.9-45.6c2.2-2.4 4.5-4.9 6.8-7.3-3.2 3.7-6.4 7.5-9.5 11.1-3 3.3-5.8 6.3-8.5 9.2 3.4-4 7.2-8.3 11.2-13zm-6.4 4.7c1.8-2.1 3.7-4.3 5.7-6.6 1.5-1.6 3.1-3.3 4.6-5-1.7 2-3.4 4-5.1 5.9-1.7 2-3.5 3.9-5.2 5.7zm4.7.1c3.2-3.5 6.6-7.1 9.9-10.7-.3.4-.7.8-1 1.2-3.2 3.3-6.1 6.5-8.9 9.5zm-28.6 37.8c.7-1 1.7-2.3 3-3.9 5.4-5.7 13.6-15 25-28.2 5-5.5 10.3-11.2 15.5-17-4.4 5.2-8.9 10.4-13.2 15.4-12.8 14-21.4 23.7-26.1 29.5-1.7 1.8-3.2 3.3-4.2 4.2zm5.1 3.1c1-1.3 2.5-3.2 4.4-5.5 4.5-4.9 10.6-11.8 18.5-20.9 5.6-6.1 11.7-12.8 17.8-19.4-17.3 20.1-34.8 40.4-40.7 45.8zm7.2-4.4c4.5-5.2 12-13.4 20.6-22.6-9.4 10.9-17.4 19.8-21 23.2.1-.2.3-.4.4-.6zm14.8 3.2c-.2.3-.5.5-.7.7.7-.9 1.5-1.9 2.5-3-.8.9-1.4 1.7-1.8 2.3zm-14.6.8c4.9-6.7 22.6-26.2 39.8-45.1-16.4 19.2-33.7 39.4-39.8 45.1zm20.4-2.4c.3-.4.7-.8 1.1-1.3 3.2-3.4 8-8.8 14.8-16.7 1.1-1.2 2.1-2.4 3.2-3.6-7.9 9.2-15 17.3-19.1 21.6zm14.7 1.4c4.6-5.5 12.4-14.4 20.5-23.5-7.4 8.7-15.5 18-20.5 23.5zm.1-4.2c5-6.1 14.3-16.6 23-26.3-8.5 9.8-17.7 20.5-23 26.3zm27.7-21c.5-.6 1-1.1 1.5-1.7.4-.4.8-.9 1.2-1.3-.3.3-.6.7-.9 1-1.5 1.8-3 3.4-4.4 5 .8-1 1.7-2 2.6-3zm3.2-1.3c-1.3 1.5-2.7 3.1-4 4.7-.5.6-1 1.1-1.5 1.7 1.8-2 3.5-4 5.2-6 .3-.4.7-.8 1-1.1-.2.1-.5.4-.7.7zm-1.1-9.8c8.5-9.9 17.7-20.6 23.1-26.4-4.9 5.9-14 16.2-23.1 26.4z"/><g fill="#40B481"><path d="M1.8 45.1v-.4c0-2.4.6-4.8 1.8-6.9 1-2 2.4-3.7 4-4.8 1.6-1.3 3.2-1.9 4.7-1.9 1.1 0 2 .4 2.8 1.1.5.6.9 1.5.9 2.5 0 1.3-.4 2.4-1.3 3.5-.5.6-1 1.1-1.6 1.5-.3.1-.5.3-.8.3s-.6 0-.8-.1c-.1-.1-.4-.3-.5-.4-.4-.4-.5-.6-.5-.9s.1-.4.3-.5c1.4-1 2.3-2 2.8-3 .1-.4.3-.8.3-1.1 0-.8-.4-1.1-1.1-1.1-1.1 0-2.4.6-3.7 1.9-1.3 1.1-2.1 2.6-3 4.4-.9 1.9-1.3 3.5-1.3 5v.5c0 1.9.4 3 1.1 3.7.3.3.6.4 1 .4s.8 0 1.1-.1c.4-.1.6-.3 1-.4.5-.3 1.3-.8 2.1-1.5.3-.3.5-.1.6.1s.3.5.3.8c0 .5-.1.8-.3 1-.1.3-.3.1-.6.4s-.6.5-1.1.6c-1 .5-2 .6-3 .6s-1.8 0-2.4-.3-1.2-.6-1.6-1c-.9-1-1.2-2.3-1.2-3.9zM14.9 50l-.4-.4c-.1-.1-.1-.4-.1-.5s0-.3.1-.4.1-.4.3-.6c1.6-4.2 2.5-6.9 2.5-8.3 0-.4-.1-.6-.4-.9l-.3-.1c-.1 0-.1-.1-.1-.3 0-.1 0-.3.1-.4l.4-.4c.4-.1.8-.3 1.1-.3.4 0 .6 0 .9.1.3.1.4.3.5.4.3.3.5.6.5.9 0 .3 0 .6-.1 1s-.1.6-.3 1c-.1.4-.3.6-.4.9 0 .3-.2.6-.2.7-.1.3-.1.5-.1.5.3-.1.4-.4.4-.5l.5-.9c1-1.9 2.1-3.2 3.2-3.8.3-.1.6-.3 1-.3s.8.1 1 .4c.3.3.4.6.4 1s0 .6-.1.9c-.1.3-.1.5-.3.6-.3.5-.5.8-.9.8-.1 0-.3 0-.3-.1l-.3-.3c-.3-.3-.5-.4-.8-.4s-.5.1-.9.5-.8.8-1.1 1.3c-1.3 1.8-2.4 3.7-3.2 5.8l-.8 1.4c-.1.4-.3.6-.4.8-.1.1-.3.3-.5.3s-.4 0-.6-.1c-.1-.2-.2-.3-.3-.3zM26.2 49.4c-.4-.4-.6-.8-.8-1.3-.1-.5-.3-1.1-.3-1.8s.1-1.4.3-2.1c.1-.8.4-1.4.8-2s.8-1.3 1.1-1.9c.4-.6 1-1.1 1.5-1.5 1.3-.9 2.4-1.4 3.8-1.4 1.6 0 2.8.8 3.4 2.3.4 1.1.5 2.4.1 3.9-.4 1.4-1 2.6-1.9 3.9-.9 1.1-2 2-3.3 2.5-.6.3-1.3.4-1.9.4s-1.1-.1-1.6-.3c-.4-.1-.8-.4-1.2-.7zm2.4-6c-.3.6-.5 1.3-.6 1.9-.1.6-.3 1.3-.3 1.8s.1 1 .3 1.4c.1.4.5.5.8.5s.8-.1 1.1-.4c.4-.3.8-.6 1-1 .3-.4.6-.9 1-1.5s.6-1.1.8-1.8c.5-1.3.8-2.5.8-3.5 0-.9-.1-1.5-.5-1.8-.1-.1-.4-.1-.6-.1-.3 0-.6.1-.9.4-.3.3-.6.5-.9 1-.3.5-.8.9-1 1.4-.3.5-.7 1.1-1 1.7zM40.3 49.1c0 .1-.3.8-.5 1.9-.3 1.1-.6 2.1-.9 2.8-.5 1.5-.9 2.5-1.3 2.9-.3.3-.6.5-1 .5-.5 0-.9-.3-1-.6-.1-.1-.1-.3-.1-.4 0-.1.1-.5.4-1 .6-1.4 1.5-4 2.6-7.9.4-1.6.8-2.6.9-3.2l.4-1.5c.3-1 .4-1.8.5-2 .1-.3 0-.6-.1-.8-.1-.1-.3-.3-.3-.4s-.4-.5-.5-.6c-.1-.1-.1-.1-.1-.3 0-.1.1-.3.3-.4.1-.1.3-.3.5-.4.4-.1.8-.3 1.1-.3.4 0 .6 0 .9.1.3.1.4.3.5.4.3.4.4.6.4.9-.1.6-.1 1.1-.3 1.6 1.4-2 2.9-3 4.4-3 1.4 0 2.4.8 2.8 2.1.1.5.3 1.1.3 1.9 0 .8-.1 1.5-.4 2.1-.3.6-.5 1.4-.9 2.1-.4.8-.8 1.3-1.3 1.8s-1 1-1.6 1.4c-1.1.9-2.3 1.3-3.4 1.3s-1.7-.2-2.3-1zm1.9-5.3c-.3.6-.5 1.1-.8 1.8-.3.6-.3 1.1-.3 1.6s.1.9.3 1.1c.1.3.5.5.9.5s.8-.1 1.3-.4.8-.5 1.1-.9c.4-.4.8-.8 1-1.3.3-.5.6-1 .9-1.6.5-1.3.8-2.4.8-3.4 0-.6-.1-1-.3-1.4-.1-.4-.4-.5-.8-.5s-.6.1-1 .4c-.4.3-.8.6-1.1 1s-.8.9-1.1 1.4-.6 1.1-.9 1.7zM54.2 49.1c0 .1-.3.8-.5 1.9-.3 1.1-.6 2.1-.9 2.8-.5 1.5-.9 2.5-1.3 2.9-.3.3-.6.5-1 .5-.5 0-.9-.3-1-.6-.1-.1-.1-.3-.1-.4 0-.1.1-.5.4-1 .6-1.4 1.5-4 2.6-7.9.4-1.6.8-2.6.9-3.2l.4-1.5c.3-1 .4-1.8.5-2 .1-.3 0-.6-.1-.8-.1-.1-.3-.3-.3-.4s-.4-.5-.5-.6c-.1-.1-.1-.1-.1-.3 0-.1.1-.3.3-.4.1-.1.3-.3.5-.4.4-.1.8-.3 1.1-.3.4 0 .6 0 .9.1.3.1.4.3.5.4.3.4.4.6.4.9-.1.6-.1 1.1-.3 1.6 1.4-2 2.9-3 4.4-3 1.4 0 2.4.8 2.8 2.1.1.5.3 1.1.3 1.9 0 .8-.1 1.5-.4 2.1-.3.6-.5 1.4-.9 2.1-.4.8-.8 1.3-1.3 1.8s-1 1-1.6 1.4c-1.1.9-2.3 1.3-3.4 1.3s-1.8-.2-2.3-1zm1.9-5.3c-.3.6-.5 1.1-.8 1.8-.3.6-.3 1.1-.3 1.6s.1.9.3 1.1c.1.3.5.5.9.5s.8-.1 1.3-.4.8-.5 1.1-.9c.4-.4.8-.8 1-1.3.3-.5.6-1 .9-1.6.5-1.3.8-2.4.8-3.4 0-.6-.1-1-.3-1.4-.1-.4-.4-.5-.8-.5s-.5 0-.9.3-.8.6-1.1 1-.8.9-1.1 1.4c-.4.6-.7 1.2-1 1.8zM65.9 46c0-.8.1-1.4.4-2 .3-.6.5-1.3.9-1.9s.8-1.1 1.3-1.8c.5-.6 1-1 1.5-1.4 1.1-.9 2.4-1.3 3.5-1.3 1.4 0 2.4.6 2.8 1.8.1.4.3.9.3 1.4 0 .5-.1.9-.4 1.3s-.5.9-.8 1.3-.8.8-1.3 1c-.5.3-1 .5-1.5.8-1.1.4-2.4.6-3.8.6v.5c0 .2 0 .5.1.8.1.3.1.5.3.8.3.5.8.8 1.3.8 1 0 1.9-.3 2.8-.9.4-.1.6-.4.8-.6s.4-.3.5-.3.3.1.4.3c.1.1.1.4.1.6 0 .4-.1.8-.4 1.1-1 1-2.5 1.5-4.7 1.5-1.3 0-2.1-.4-2.9-1.1-.8-.8-1.2-2-1.2-3.3zm7.2-6.9c-.9 0-1.6.6-2.5 1.8-.6 1-1.3 2.3-1.6 3.7 1.4-.1 2.5-.6 3.5-1.6.9-.9 1.4-1.8 1.4-2.5s-.1-1.4-.8-1.4zM77.8 50l-.4-.4c-.1-.1-.1-.3-.1-.4 0-.1 0-.3.1-.4.1-.1.1-.4.3-.6 1.6-4.2 2.5-6.9 2.5-8.3 0-.4-.1-.6-.4-.9l-.3-.1c-.1 0-.1-.1-.1-.3 0-.1 0-.3.1-.4l.4-.4c.4-.1.8-.3 1.1-.3.4 0 .6 0 .9.1.3.1.4.3.5.4.3.3.5.6.5.9s0 .6-.1 1-.3.5-.4.9-.3.6-.4.9v.7c-.1.3-.1.5-.1.5.3-.1.4-.4.4-.5l.5-.9c1-1.9 2.1-3.2 3.2-3.8.3-.1.6-.3 1-.3s.8.1 1 .4c.3.3.4.6.4 1s0 .6-.1.9-.1.5-.3.6c-.3.5-.5.8-.9.8-.1 0-.3 0-.3-.1l-.3-.3c-.3-.3-.5-.4-.8-.4s-.8.1-1 .5-.8.8-1.1 1.3c-1.3 1.8-2.4 3.7-3.2 5.8l-.5 1.4c-.1.4-.3.6-.4.8s-.3.3-.5.3c-.3 0-.4 0-.6-.1-.2-.2-.5-.3-.6-.3z"/></g><g fill="#969696"><path d="M123.8 191.5v-.2c.1-1.7.5-3.3 1.3-4.8.7-1.4 1.7-2.5 2.8-3.4 1.1-.8 2.2-1.3 3.2-1.3.8 0 1.4.3 1.9.8.4.5.6 1.1.6 1.8 0 .8-.3 1.7-.9 2.5-.4.5-.7.8-1.1 1-.2.1-.4.2-.5.2-.2 0-.3 0-.5-.1-.1-.1-.3-.2-.4-.3-.2-.2-.3-.4-.3-.6 0-.2 0-.3.1-.4.9-.7 1.6-1.4 1.9-2.1.1-.3.2-.5.2-.8 0-.6-.3-.8-.8-.8-.8 0-1.7.4-2.5 1.3-.8.8-1.5 1.9-2.1 3.1-.6 1.3-.9 2.5-.9 3.5v.3c0 1.3.3 2.1.8 2.5.2.1.4.2.7.2s.5 0 .8-.1c.2-.1.5-.2.7-.3.4-.2.9-.5 1.5-1 .2-.1.3-.1.5.1.1.1.2.3.2.5 0 .3 0 .5-.1.7-.1.1-.2.3-.5.4-.2.2-.5.3-.8.4-.7.3-1.4.5-2.1.5-.7 0-1.2-.1-1.7-.3-.4-.2-.8-.4-1.1-.7-.6-.5-.9-1.4-.9-2.6zM133.8 194.5c-.2-.2-.4-.5-.6-.9-.1-.4-.2-.8-.2-1.2s.1-1 .2-1.5.3-1 .5-1.4c.2-.5.5-.9.8-1.3.3-.4.7-.7 1-1 .8-.6 1.7-1 2.6-1 1.2 0 2 .5 2.4 1.6.3.7.3 1.7.1 2.7s-.7 1.9-1.3 2.7-1.4 1.4-2.2 1.7c-.4.2-.9.3-1.3.3s-.8-.1-1.1-.2-.7-.2-.9-.5zm1.6-4.1c-.2.4-.3.9-.4 1.3-.1.4-.1.9-.1 1.3s.1.7.2.9c.1.2.3.3.6.3s.5-.1.8-.3.5-.4.7-.7.5-.6.7-1l.6-1.2c.3-.9.5-1.7.5-2.5 0-.6-.1-1-.4-1.2-.1-.1-.2-.1-.4-.1s-.4.1-.6.3c-.2.2-.5.4-.7.7s-.5.6-.7 1-.6.8-.8 1.2zM142.8 194.5c-.2-.2-.4-.5-.6-.9-.1-.4-.2-.8-.2-1.2s.1-1 .2-1.5.3-1 .5-1.4c.2-.5.5-.9.8-1.3.3-.4.7-.7 1-1 .8-.6 1.7-1 2.6-1 1.2 0 2 .5 2.4 1.6.3.7.3 1.7.1 2.7s-.7 1.9-1.3 2.7-1.4 1.4-2.2 1.7c-.4.2-.9.3-1.3.3s-.8-.1-1.1-.2-.7-.2-.9-.5zm1.6-4.1c-.2.4-.3.9-.4 1.3-.1.4-.1.9-.1 1.3s.1.7.2.9c.1.2.3.3.6.3s.5-.1.8-.3.5-.4.7-.7.5-.6.7-1l.6-1.2c.3-.9.5-1.7.5-2.5 0-.6-.1-1-.4-1.2-.1-.1-.2-.1-.4-.1s-.4.1-.6.3c-.2.2-.5.4-.7.7s-.5.6-.7 1-.6.8-.8 1.2zM151 194.9l-.3-.3c-.1-.1-.1-.2-.1-.3v-.3c0-.1.1-.2.1-.4 1.2-2.9 1.7-4.8 1.7-5.8 0-.3-.1-.5-.3-.6l-.2-.1c-.1 0-.1-.1-.1-.2s0-.2.1-.3.2-.2.3-.2c.2-.1.5-.2.8-.2s.5 0 .6.1.3.1.4.2c.2.2.3.4.3.7s0 .5-.1.7-.1.5-.2.7c-.1.2-.1.4-.2.6-.1.2-.1.4-.1.5 0 .2-.1.3-.1.4.1-.1.2-.2.2-.4l.3-.6c.7-1.3 1.5-2.2 2.2-2.7.2-.1.5-.2.7-.2s.5.1.7.3.3.4.3.7c0 .2 0 .4-.1.6 0 .2-.1.3-.2.5-.2.3-.4.5-.7.5-.1 0-.1 0-.2-.1l-.2-.2c-.2-.2-.4-.2-.5-.2s-.4.1-.6.3-.5.5-.8.9c-.9 1.2-1.6 2.5-2.2 4l-.4 1c-.1.2-.2.4-.3.5s-.2.2-.3.2-.3 0-.4-.1.1-.1-.1-.2zM166.7 193.4c.1 0 .2.1.2.2 0 .5-.3.9-.8 1.3-.3.2-.7.4-1 .4s-.5 0-.7-.1-.3-.2-.5-.3c-.3-.3-.5-.8-.5-1.4 0-.1 0-.3.1-.6-.5.7-.9 1.2-1.2 1.5-.7.6-1.3.9-2 .9-1 0-1.7-.5-2-1.4-.1-.3-.2-.8-.2-1.3s.1-1 .2-1.5.4-1 .6-1.5c.3-.5.6-.9.9-1.3.4-.4.7-.8 1.1-1 .8-.6 1.6-.9 2.3-.9s1.2.3 1.6.8c1-3.4 1.7-5.4 2.2-6 .2-.3.4-.4.7-.4.4 0 .7.1.9.3.1.1.1.1.1.2s0 .2-.1.4-.2.5-.4 1c-.5 1.3-.9 2.3-1.1 2.9-.5 1.6-.9 2.7-1.1 3.3l-.5 1.6c-.4 1.4-.6 2.3-.6 2.7s.1.6.4.6c.3 0 .5 0 .6-.1l.3-.2c.4-.1.5-.1.5-.1zm-5.9.5c.6 0 1.3-.6 2-1.7.8-1.2 1.3-2.5 1.7-3.9 0-.4-.2-.7-.5-.9-.1-.1-.3-.1-.5-.1s-.5.1-.7.2c-.3.2-.5.4-.8.6s-.5.6-.7.9c-.2.3-.4.7-.6 1.1-.4.8-.5 1.7-.5 2.5 0 .9.2 1.3.6 1.3zM170.8 193.5c.1 0 .2.1.2.3 0 .3-.1.5-.4.8-.3.4-.8.6-1.4.6-.7 0-1.1-.3-1.4-.8-.1-.2-.1-.4-.1-.7s0-.6.1-.9c.1-.3.2-.7.4-1 .1-.4.3-.7.5-1.1l.5-1.1c.3-.8.5-1.3.5-1.6s0-.4-.1-.5l-.2-.2-.2-.1c-.1 0-.1-.1-.1-.2s0-.2.1-.3.2-.2.3-.2c.3-.1.6-.2.9-.2.8 0 1.3.2 1.3.7s-.1 1.1-.4 1.8c-.3.7-.5 1.2-.7 1.6l-.5 1.2c-.4.9-.6 1.5-.6 1.9 0 .3.1.4.4.4.2 0 .4 0 .6-.1.2-.3.3-.3.3-.3zm1.8-9.3c-.1.1-.3.2-.4.3s-.3.1-.5.2-.3 0-.5-.1-.3-.2-.4-.3c-.2-.3-.4-.6-.4-.9 0-.3 0-.5.1-.7.1-.1.2-.3.4-.4.3-.2.5-.3.8-.3.2 0 .4 0 .6.1s.3.1.4.2c.3.2.4.4.4.7s0 .5-.1.7c-.2.2-.3.4-.4.5zM179.1 187.9c-.2 0-.4.2-.8.5s-.6.6-.8.9l-.7.9-1.4 1.8-.8 1.6-.5 1c-.1.2-.2.4-.3.5s-.2.2-.4.2-.3 0-.4-.1-.3-.1-.4-.2c-.2-.2-.3-.4-.3-.6 0-.1.1-.3.2-.5l.3-.7c.1-.2.2-.5.4-.8l.5-1.2c.7-1.7 1-2.8 1-3.3 0-.3-.1-.5-.3-.6l-.2-.1c-.1 0-.1-.1-.1-.2s0-.2.1-.3.2-.2.3-.2c.3-.1.5-.2.8-.2s.5 0 .6.1.3.1.4.2c.2.2.3.4.3.6 0 .2 0 .4-.1.7-.1.2-.1.4-.2.7-.1.2-.2.4-.3.7-.1.2-.2.4-.2.6l-.2.4c0 .1-.1.1 0 .1.6-.9 1.1-1.4 1.3-1.7l.6-.7c.4-.5.8-.9 1-1 .5-.3.9-.5 1.2-.5s.5 0 .7.1.4.2.5.3c.3.3.5.7.5 1.1 0 .5-.1.9-.3 1.4s-.4.9-.5 1.2-.3.6-.4.9c-.4 1-.6 1.6-.6 2.1 0 .2.2.3.5.3.2 0 .5-.1.7-.2.2-.1.3-.2.4-.2.1 0 .2.1.2.2 0 .5-.3.9-.8 1.3-.3.2-.7.4-1 .4s-.5 0-.7-.1-.4-.2-.5-.3c-.3-.3-.5-.7-.5-1.3 0-.7.2-1.5.6-2.5.3-.7.5-1.1.6-1.4l.3-.6c.2-.4.3-.7.3-.9s-.2-.4-.6-.4zM189.4 192.8c0 .5.2.8.6.8.3 0 .5 0 .6-.1.2-.1.3-.1.3-.1.1 0 .2.1.2.2 0 .5-.3.9-.8 1.3s-1.1.5-1.7.3c-.4-.1-.6-.4-.8-.8-.1-.2-.1-.4-.1-.6 0-.3 0-.6.1-.9-.5 1.1-1.2 1.8-2 2.2-.3.2-.6.2-1 .2s-.7-.1-.9-.2c-.3-.1-.5-.3-.7-.6-.4-.5-.5-1.2-.5-2 0-1 .3-2 .9-3 .5-.9 1.2-1.7 2-2.2.8-.6 1.5-.9 2.2-.9s1.2.3 1.7 1c.4-.6.7-1 1-1s.6.1.7.2c.3.2.4.4.3.6-1.4 2.9-2.2 4.8-2.2 5.5.1-.1.1 0 .1.1zm-4.7.1c0 .7.2 1 .7 1 .3 0 .8-.3 1.2-.9.7-.8 1.4-2 1.9-3.4.2-.4.3-.9.4-1.3 0-.4-.2-.7-.5-.9-.1-.1-.3-.1-.5-.1s-.4.1-.7.2-.5.4-.8.6c-.3.3-.5.6-.7.9-.2.4-.4.7-.6 1.1-.3 1-.4 1.9-.4 2.8zM197.3 192.9c.2 0 .2.1.2.3s-.1.4-.2.5c-.2.3-.5.6-.9.9-.5.3-1.1.5-1.6.5-.9 0-1.5-.4-1.7-1.2-.3-1 .1-3 1.3-6.2-.7-.1-1-.2-1.1-.3v-.2c0-.1 0-.1.1-.2s.1-.2.2-.2c.2-.2.4-.2.6-.2h.7c.6-1.4 1.1-2.3 1.3-2.5.1-.1.3-.1.4-.1s.3 0 .4.1c.1 0 .2.1.3.2.2.2.3.4.3.6 0 .1 0 .2-.1.4l-.6 1.4h2c.2 0 .2.1.2.2 0 .8-.9 1.1-2.7 1.1h-.1l-.6 1.5c-.7 1.8-1 3-1 3.7 0 .2 0 .4.1.5s.3.2.5.2.5 0 .7-.1.4-.2.5-.3c.2-.1.3-.2.4-.3.2-.3.3-.3.4-.3zM198.7 192.1c0-.5.1-1 .2-1.4.1-.5.3-.9.6-1.3.2-.4.5-.8.8-1.2s.7-.7 1.1-1c.8-.6 1.6-.9 2.5-.9 1 0 1.6.4 2 1.2.1.3.2.6.2 1s-.1.7-.2 1c-.1.3-.3.6-.6.9-.2.3-.5.5-.9.7-.3.2-.7.4-1.1.5-.8.3-1.7.4-2.6.4v.4c0 .2 0 .3.1.5 0 .2.1.4.2.5.2.3.5.5.9.5.7 0 1.3-.2 1.9-.6.2-.1.4-.3.5-.4.1-.1.3-.2.4-.2.1 0 .2.1.3.2.1.1.1.3.1.4 0 .3-.1.6-.3.8-.7.7-1.8 1.1-3.2 1.1-.8 0-1.5-.3-2-.8-.7-.5-.9-1.3-.9-2.3zm5-4.7c-.6 0-1.2.4-1.7 1.2-.5.7-.8 1.5-1.1 2.5 1-.1 1.8-.5 2.5-1.1.6-.6 1-1.2 1-1.8-.1-.5-.3-.8-.7-.8zM206.5 193.6c0-.2 0-.3.1-.5s.2-.3.3-.4c.2-.2.5-.3.8-.3.2 0 .3.1.3.4 0 .6.2 1 .6 1.2.1.1.3.1.4.1s.3 0 .4-.1.2-.1.3-.2c.2-.2.3-.4.3-.6 0-.2-.1-.4-.2-.6-.1-.2-.2-.4-.4-.6l-.5-.7c-.7-.9-1-1.8-1-2.5 0-.6.3-1.2.8-1.7.6-.6 1.4-.9 2.4-.9.8 0 1.5.2 2 .6.4.3.6.7.6 1.2s-.2.8-.5 1.1c-.3.2-.6.3-.9.3-.1 0-.2-.1-.3-.2s-.1-.2 0-.4c0-.1.1-.3.1-.4s0-.3-.1-.4-.1-.2-.2-.3c-.2-.2-.4-.3-.6-.3-.2 0-.4 0-.5.1-.1 0-.3.1-.4.2-.2.2-.3.5-.3.8s.1.6.2.8.2.4.4.7.3.4.5.7c.2.2.3.5.5.7.4.6.5 1.1.5 1.5s-.1.8-.3 1.1-.4.5-.7.8c-.6.5-1.3.7-2.1.7-.7 0-1.3-.2-1.7-.5-.6-.6-.8-1-.8-1.4z"/></g><g fill="#5B74BC"><path d="M309.3 150.6c.3-.1.7-.2 1.1-.2s1 .1 1.6.2c.6.1 1.3.3 2 .5 1.6.5 3.1 1.3 4.4 2.2.2.2.3.3.3.5s0 .3-.1.5-.2.3-.3.4c-.3.3-.5.4-.6.3-1.3-.8-2.4-1.4-3.4-1.9.1 1.3.5 2.4 1.2 3.3.8 1 1.7 1.6 2.8 1.6.7 0 1.2-.4 1.4-1.1.1-.2.1-.5.1-.8s0-.6-.1-1c-.1-.3-.2-.7-.3-1-.2-.6-.5-1.2-.9-1.7-.1-.1-.2-.3-.2-.4s0-.3.1-.4c.1-.1.1-.3.2-.4.4-.4.7-.4 1.1.2.6.8.9 2 1.1 3.6v1.2c0 .5-.1 1-.2 1.5-.2.5-.4.9-.6 1.2-.5.6-1.2.9-2.1.9-.8 0-1.6-.3-2.4-1-.7-.6-1.3-1.4-1.8-2.3-.2.4-.5.8-.8 1-.4.2-.7.3-1.2.3-.4 0-.8-.1-1.1-.2-.3-.2-.7-.4-.9-.6-.3-.3-.5-.6-.7-.9-.2-.3-.4-.7-.5-1.1-.3-.8-.4-1.5-.4-2.3-.2-1 .3-1.8 1.2-2.1zm3.6 2c-1-.4-2-.6-2.7-.7-.4 0-.7.1-.9.3-.2.2-.3.5-.3.8s.1.7.2 1.1.4.7.6 1c.6.7 1.3 1.1 2 1.1s1.1-.3 1.4-.9c.1-.2.1-.4.1-.6 0-.3-.1-.6-.2-1.1-.1-.5-.2-.8-.2-1zM308.6 160.4c.2-.2.5-.4.8-.5s.7-.2 1.2-.2.9.1 1.4.2c.5.1.9.3 1.4.5.4.2.9.5 1.2.8.4.3.7.6 1 1 .6.8.9 1.6.9 2.5 0 1.1-.5 1.9-1.5 2.3-.7.3-1.6.3-2.6 0-.9-.2-1.8-.7-2.6-1.3-.8-.6-1.4-1.3-1.7-2.2-.2-.4-.2-.8-.2-1.2s.1-.8.2-1.1c.1-.3.3-.5.5-.8zm4 1.6c-.4-.2-.8-.3-1.3-.4-.4-.1-.8-.1-1.2-.1-.4 0-.7.1-.9.2-.2.1-.3.3-.3.6s.1.5.3.8c.2.2.4.5.7.7s.6.5 1 .7.8.4 1.2.5c.9.3 1.7.5 2.4.5.6 0 1-.1 1.2-.4.1-.1.1-.2.1-.4s-.1-.4-.2-.6c-.2-.2-.4-.5-.7-.7s-.6-.5-1-.7-.9-.5-1.3-.7zM309.7 176.1c0 .1-.1.2-.2.2-.5 0-.9-.2-1.2-.7-.2-.3-.3-.7-.3-1.1 0-.4.1-.6.2-.8.3-.3.7-.5 1.1-.5.5 0 1.4.2 2.5.7-1.2-.9-1.9-1.4-2.3-1.8-.4-.3-.7-.6-.9-.9-.5-.6-.7-1.1-.7-1.5 0-.7.3-1.1.9-1.4.2-.1.4-.1.6-.1s.5 0 .8.1l.9.3c.3.1.6.3 1 .4l1 .4c1.3.6 2 .8 2.3.6.1-.1.2-.2.3-.4 0-.1.1-.1.2-.1s.2 0 .3.1c.1.1.2.2.2.3.1.3.2.5.2.8s0 .5-.1.6-.1.3-.2.3c-.2.2-.4.3-.6.3s-.5 0-.7-.1l-.9-.3c-.3-.1-.7-.2-1-.4-.9-.4-1.5-.6-1.8-.8l-.6-.3c-.4-.2-.7-.3-.8-.3s-.3 0-.3.1c-.1 0-.1.1-.1.3 0 .1.1.3.2.5s.3.4.5.6.4.4.7.6c.3.2.5.4.8.6.6.4 1 .7 1.4.9 2.1 1.2 3.2 1.8 3.3 1.9.2.2.4.4.4.5 0 .2 0 .3-.1.5 0 .1-.1.3-.2.4-.2.2-.3.3-.5.2-2.8-1.4-4.6-2.1-5.3-2.2h-.5c-.4 0-.6.1-.6.4 0 .2 0 .4.1.6-.1.4 0 .5 0 .5zM315 183.8c0-.2-.2-.4-.5-.7s-.6-.6-.9-.8l-.8-.8-1.7-1.4c-.6-.3-1.1-.6-1.5-.8l-1-.4c-.2-.1-.4-.2-.5-.3s-.1-.2-.1-.3 0-.3.1-.4c.1-.1.1-.3.2-.4.2-.2.4-.3.6-.3.1 0 .2.1.5.2l.7.3c.2.1.5.2.8.3l1.1.5c1.6.7 2.7 1 3.2 1 .3 0 .4-.1.6-.2l.1-.2c0-.1.1-.1.2-.1s.2 0 .3.1c.1.1.2.2.2.3.1.2.2.5.2.8s0 .4-.1.6-.1.3-.2.3c-.2.2-.4.3-.6.3s-.4 0-.6-.1-.4-.1-.6-.2l-.6-.3c-.2-.1-.4-.2-.5-.2l-.4-.2c-.1 0-.1-.1-.1 0 .9.6 1.4 1 1.6 1.2l.7.6c.5.4.8.8 1 1 .3.5.5.9.5 1.2s0 .5-.1.7-.2.4-.3.5c-.3.3-.6.5-1.1.5s-.9-.1-1.4-.3-.9-.4-1.2-.5c-.3-.1-.6-.3-.9-.4-.9-.4-1.6-.6-2-.6-.2 0-.3.1-.3.4 0 .2 0 .4.1.6.1.2.1.3.1.4 0 .1-.1.2-.2.2-.5 0-.9-.3-1.2-.8-.2-.3-.3-.6-.3-.9s0-.5.1-.7.2-.4.3-.5c.3-.3.7-.5 1.2-.5.6 0 1.4.2 2.4.6.7.3 1.1.5 1.4.6l.6.3c.4.2.6.3.8.3s.1-.2.1-.5zM309.7 195.6c0 .1-.1.2-.2.2-.5 0-.9-.2-1.2-.7-.2-.3-.3-.6-.3-.9 0-.3 0-.5.1-.7s.2-.3.3-.5c.3-.3.8-.5 1.4-.5.1 0 .3 0 .6.1-.7-.4-1.2-.8-1.5-1.2-.6-.6-.9-1.3-.9-1.9 0-1 .4-1.6 1.3-1.9.3-.1.7-.2 1.2-.2s1 .1 1.5.2 1 .4 1.4.6c.5.3.9.6 1.3.9.4.3.7.7 1 1.1.6.8.9 1.5.9 2.2s-.3 1.2-.8 1.6c3.3 1 5.2 1.7 5.8 2.2.2.2.4.4.4.6 0 .4-.1.7-.3.9-.1.1-.1.1-.2.1s-.2 0-.4-.1-.5-.2-.9-.4c-1.3-.5-2.3-.8-2.9-1-1.5-.5-2.6-.9-3.2-1l-1.5-.5c-1.4-.4-2.2-.6-2.6-.6s-.6.1-.6.4c0 .2 0 .4.1.6l.1.3c.1 0 .1.1.1.1zm-.5-5.7c0 .6.6 1.2 1.7 2 1.2.8 2.4 1.3 3.8 1.6.4 0 .7-.2.8-.5.1-.1.1-.3.1-.5s-.1-.4-.2-.7-.3-.5-.6-.8c-.2-.3-.5-.5-.9-.7-.3-.2-.7-.4-1.1-.6-.8-.3-1.6-.5-2.4-.5-.8.1-1.2.3-1.2.7zM310.2 203.2c-.5 0-.8.2-.8.5 0 .2 0 .5.1.6.1.2.1.3.1.3 0 .1-.1.2-.2.2-.5 0-.9-.2-1.2-.7-.4-.5-.4-1.1-.3-1.6.1-.4.4-.6.8-.8.2-.1.4-.1.6-.1.3 0 .6 0 .9.1-1.1-.5-1.8-1.2-2.2-1.9-.2-.3-.2-.6-.2-1s.1-.6.2-.9c.1-.3.3-.5.6-.6.5-.4 1.2-.5 2-.5 1 0 2 .3 2.9.9.9.5 1.6 1.1 2.2 1.9.6.8.9 1.5.9 2.2s-.3 1.2-.9 1.6c.6.4.9.7.9 1s-.1.6-.2.7c-.2.3-.4.4-.6.3-2.8-1.4-4.6-2.1-5.3-2.1 0-.1-.2-.1-.3-.1zm0-4.6c-.7 0-1 .2-1 .6 0 .3.3.7.8 1.2.8.7 1.9 1.3 3.3 1.9.4.2.9.3 1.3.4.4 0 .7-.2.8-.5.1-.1.1-.2.1-.4s-.1-.4-.2-.7-.3-.5-.6-.8c-.2-.2-.5-.5-.9-.7-.3-.2-.7-.4-1.1-.6-.8-.2-1.7-.4-2.5-.4zM308.2 206l.3-.3c.1-.1.2-.1.3-.1h.3c.1 0 .2.1.4.1 2.8 1.1 4.6 1.7 5.6 1.7.3 0 .5-.1.6-.3l.1-.2s.1-.1.2-.1.2 0 .3.1.2.2.2.3c.1.2.2.5.2.7 0 .3 0 .4-.1.6-.1.1-.1.3-.2.4-.2.2-.4.3-.6.3s-.4 0-.7-.1c-.2-.1-.4-.1-.7-.2-.2-.1-.4-.1-.6-.2-.2-.1-.3-.1-.4-.1-.2 0-.3-.1-.4 0 .1.1.2.2.3.2l.6.3c1.3.7 2.2 1.4 2.6 2.1.1.2.2.4.2.7s-.1.5-.3.7c-.2.2-.4.3-.7.3h-.6c-.2 0-.3-.1-.4-.2-.3-.2-.5-.4-.5-.7 0-.1 0-.1.1-.2l.2-.2c.2-.2.2-.4.2-.5 0-.2-.1-.4-.3-.6-.2-.2-.5-.5-.9-.8-1.2-.9-2.5-1.6-3.9-2.1l-1-.4c-.2-.1-.4-.2-.5-.2-.1-.1-.2-.2-.2-.3s0-.3.1-.4c.1 0 .1-.1.2-.3zM309.6 215.7c0 .1-.1.2-.3.2-.2 0-.5-.1-.8-.3-.4-.3-.6-.8-.6-1.3 0-.6.3-1.1.8-1.3.2-.1.4-.1.7-.1s.5 0 .9.1c.3.1.7.2 1 .3.4.1.7.3 1.1.4l1 .4c.8.3 1.3.5 1.5.5s.4 0 .5-.1l.2-.2.1-.2c0-.1.1-.1.2-.1s.2 0 .3.1c.1.1.2.2.2.3.1.2.2.5.2.9 0 .8-.2 1.2-.6 1.2-.5 0-1.1-.1-1.7-.4-.6-.3-1.2-.5-1.5-.7l-1.1-.5c-.8-.4-1.4-.5-1.8-.5-.2 0-.4.1-.4.4 0 .2 0 .4.1.5s0 .4 0 .4zm9 1.7c-.1-.1-.2-.3-.3-.4-.1-.2-.1-.3-.1-.5s0-.3.1-.5.2-.3.3-.4c.3-.2.6-.4.8-.4s.5 0 .6.1.3.2.3.3c.2.3.3.5.3.8v.5c0 .1-.1.3-.2.4-.2.3-.4.4-.7.4-.3 0-.5 0-.7-.1-.2 0-.3-.1-.4-.2zM310.9 217.9c.5 0 .9.1 1.4.2.4.1.9.3 1.3.6.4.2.8.5 1.2.8.4.3.7.7 1 1 .6.8.9 1.6.9 2.4 0 .9-.4 1.6-1.2 1.9-.3.1-.6.2-.9.2-.4 0-.7-.1-1-.2-.3-.1-.6-.3-.8-.6-.3-.2-.5-.5-.7-.8s-.4-.7-.5-1.1c-.3-.8-.4-1.6-.4-2.5h-.8c-.2 0-.4.1-.5.2-.3.2-.5.5-.5.9 0 .6.2 1.3.6 1.9.1.2.3.4.4.5s.2.3.2.4-.1.2-.2.3-.3.1-.4.1c-.3 0-.5-.1-.8-.2-.7-.7-1-1.7-1-3.1 0-.8.2-1.5.7-2 .3-.7 1.1-.9 2-.9zm4.6 4.8c0-.6-.4-1.1-1.2-1.7-.7-.5-1.5-.8-2.4-1.1.1.9.5 1.7 1.1 2.4.6.6 1.2.9 1.7.9s.8-.1.8-.5zM309.5 225.4c.2 0 .3 0 .5.1.1.1.3.2.4.3.2.2.3.5.3.7s-.1.3-.3.3c-.6 0-1 .2-1.2.6-.1.1-.1.3-.1.4v.4c0 .1.1.2.2.3.2.2.4.3.6.3s.4 0 .6-.1.4-.2.6-.4l.7-.5c.9-.7 1.7-1 2.4-1 .6 0 1.2.3 1.7.8.6.6.9 1.4.9 2.3 0 .8-.2 1.5-.6 1.9-.3.4-.7.6-1.1.6s-.8-.2-1-.5-.3-.6-.3-.9c0-.1.1-.2.2-.3s.2-.1.4 0 .3.1.4.1.3 0 .4-.1.2-.1.3-.2c.2-.2.3-.4.3-.6 0-.2 0-.4-.1-.5 0-.1-.1-.3-.2-.4-.2-.2-.4-.3-.7-.3-.3 0-.5 0-.8.1s-.4.2-.6.4c-.2.1-.4.3-.6.5s-.4.3-.7.5c-.6.3-1 .5-1.5.5-.4 0-.8-.1-1.1-.3-.3-.2-.5-.4-.7-.7-.4-.6-.7-1.3-.7-2s.2-1.3.5-1.7c.2-.4.5-.6.9-.6z"/></g><path fill="#5B74BC" d="M296.1 61.2h2v1.2h-2zM298.1 327.3h-2v-2.4h2v2.4zm0-4.8h-2v-2.4h2v2.4zm0-4.8h-2v-2.4h2v2.4zm0-4.8h-2v-2.4h2v2.4zm0-4.8h-2v-2.4h2v2.4zm0-4.9h-2v-2.4h2v2.4zm0-4.8h-2V296h2v2.4zm0-4.8h-2v-2.4h2v2.4zm0-4.8h-2v-2.4h2v2.4zm0-4.8h-2v-2.4h2v2.4zm0-4.8h-2v-2.4h2v2.4zm0-4.9h-2v-2.4h2v2.4zm0-4.8h-2v-2.4h2v2.4zm0-4.8h-2v-2.4h2v2.4zm0-4.8h-2v-2.4h2v2.4zm0-4.8h-2v-2.4h2v2.4zm0-4.9h-2v-2.4h2v2.4zm0-4.8h-2V243h2v2.4zm0-4.8h-2v-2.4h2v2.4zm0-4.8h-2v-2.4h2v2.4zm0-4.8h-2v-2.4h2v2.4zm0-4.8h-2v-2.4h2v2.4zm0-4.9h-2v-2.4h2v2.4zm0-4.8h-2v-2.4h2v2.4zm0-4.7h-2v-2.4h2v2.4zm0-4.9h-2v-2.4h2v2.4zm0-4.8h-2v-2.4h2v2.4zm0-4.8h-2v-2.4h2v2.4zm0-4.9h-2V190h2v2.4zm0-4.7h-2v-2.4h2v2.4zm0-4.9h-2v-2.4h2v2.4zm0-4.8h-2v-2.4h2v2.4zm0-4.8h-2v-2.4h2v2.4zm0-4.9h-2V166h2v2.3zm0-4.7h-2v-2.4h2v2.4zm0-4.8h-2v-2.4h2v2.4zm0-4.9h-2v-2.4h2v2.4zm0-4.8h-2v-2.4h2v2.4zm0-4.8h-2v-2.4h2v2.4zm0-4.8h-2v-2.4h2v2.4zm0-4.8h-2v-2.4h2v2.4zm0-4.9h-2v-2.4h2v2.4zm0-4.8h-2v-2.4h2v2.4zm0-4.8h-2v-2.4h2v2.4zm0-4.8h-2V113h2v2.4zm0-4.8h-2v-2.4h2v2.4zm0-4.8h-2v-2.4h2v2.4zm0-4.9h-2v-2.4h2v2.4zm0-4.8h-2v-2.4h2v2.4zm0-4.8h-2V89h2v2.3zm0-4.8h-2v-2.4h2v2.4zm0-4.8h-2v-2.4h2v2.4zm0-4.8h-2v-2.4h2v2.4zm0-4.9h-2v-2.4h2V72zm0-4.8h-2v-2.4h2v2.4zM296.1 329.7h2v1.2h-2zM38.5 329.7h2v1.2h-2zM40.5 327.3h-2v-2.4h2v2.4zm0-4.8h-2v-2.4h2v2.4zm0-4.8h-2v-2.4h2v2.4zm0-4.8h-2v-2.4h2v2.4zm0-4.8h-2v-2.4h2v2.4zm0-4.9h-2v-2.4h2v2.4zm0-4.8h-2V296h2v2.4zm0-4.8h-2v-2.4h2v2.4zm0-4.8h-2v-2.4h2v2.4zm0-4.8h-2v-2.4h2v2.4zm0-4.8h-2v-2.4h2v2.4zm0-4.9h-2v-2.4h2v2.4zm0-4.8h-2v-2.4h2v2.4zm0-4.8h-2v-2.4h2v2.4zm0-4.8h-2v-2.4h2v2.4zm0-4.8h-2v-2.4h2v2.4zm0-4.9h-2v-2.4h2v2.4zm0-4.8h-2V243h2v2.4zm0-4.8h-2v-2.4h2v2.4zm0-4.8h-2v-2.4h2v2.4zm0-4.8h-2v-2.4h2v2.4zm0-4.8h-2v-2.4h2v2.4zm0-4.9h-2v-2.4h2v2.4zm0-4.8h-2v-2.4h2v2.4zm0-4.7h-2v-2.4h2v2.4zm0-4.9h-2v-2.4h2v2.4zm0-4.8h-2v-2.4h2v2.4zm0-4.8h-2v-2.4h2v2.4zm0-4.9h-2V190h2v2.4zm0-4.7h-2v-2.4h2v2.4zm0-4.9h-2v-2.4h2v2.4zm0-4.8h-2v-2.4h2v2.4zm0-4.8h-2v-2.4h2v2.4zm0-4.9h-2V166h2v2.3zm0-4.7h-2v-2.4h2v2.4zm0-4.8h-2v-2.4h2v2.4zm0-4.9h-2v-2.4h2v2.4zm0-4.8h-2v-2.4h2v2.4zm0-4.8h-2v-2.4h2v2.4zm0-4.8h-2v-2.4h2v2.4zm0-4.8h-2v-2.4h2v2.4zm0-4.9h-2v-2.4h2v2.4zm0-4.8h-2v-2.4h2v2.4zm0-4.8h-2v-2.4h2v2.4zm0-4.8h-2V113h2v2.4zm0-4.8h-2v-2.4h2v2.4zm0-4.8h-2v-2.4h2v2.4zm0-4.9h-2v-2.4h2v2.4zm0-4.8h-2v-2.4h2v2.4zm0-4.8h-2V89h2v2.3zm0-4.8h-2v-2.4h2v2.4zm0-4.8h-2v-2.4h2v2.4zm0-4.8h-2v-2.4h2v2.4zm0-4.9h-2v-2.4h2V72zm0-4.8h-2v-2.4h2v2.4zM38.5 61.2h2v1.2h-2z"/><path fill="#DBDBDB" d="M250.8 275.7h-2.5v-2h.5v-.5h2zM245.3 275.7h-3v-2h3v2zm-5.9 0h-3v-2h3v2zm-5.9 0h-3v-2h3v2zm-5.9 0h-3v-2h3v2zm-5.9 0h-3v-2h3v2zm-5.9 0h-3v-2h3v2zm-5.9 0h-3v-2h3v2zm-5.9 0h-3v-2h3v2zm-5.9 0h-3v-2h3v2zm-5.9 0h-3v-2h3v2zm-5.9 0h-3v-2h3v2zm-6 0h-3v-2h3v2zm-5.9 0h-3v-2h3v2zm-5.9 0h-3v-2h3v2zm-5.9 0h-3v-2h3v2zm-5.9 0h-3v-2h3v2zm-5.9 0h-3v-2h3v2zm-5.9 0h-3v-2h3v2zm-5.9 0h-3v-2h3v2zm-5.9 0h-3v-2h3v2zm-5.9 0h-3v-2h3v2zm-5.9 0h-3v-2h3v2zm-6 0h-3v-2h3v2zm-5.9 0h-3v-2h3v2zm-5.9 0h-3v-2h3v2zm-5.9 0h-3v-2h3v2zm-5.9 0h-3v-2h3v2zM85.8 275.7h-2.5v-2.5h2v.5h.5zM85.3 270.3h-2v-3h2v3zm0-5.9h-2v-3h2v3zm0-5.9h-2v-3h2v3zm0-5.9h-2v-3h2v3zm0-5.9h-2v-3h2v3zm0-6h-2v-3h2v3zm0-5.9h-2v-3h2v3zm0-5.9h-2v-3h2v3zm0-5.9h-2v-3h2v3zm0-5.9h-2v-3h2v3zm0-5.9h-2v-3h2v3zm0-5.9h-2v-3h2v3zm0-5.9h-2v-3h2v3zm0-5.9h-2v-3h2v3zm0-5.9h-2v-3h2v3zm0-5.9h-2v-3h2v3zm0-6h-2v-3h2v3zm0-5.9h-2v-3h2v3zm0-5.9h-2v-3h2v3zm0-5.9h-2v-3h2v3zm0-5.9h-2v-3h2v3zm0-5.9h-2v-3h2v3zm0-5.9h-2v-3h2v3zm0-5.9h-2v-3h2v3zm0-5.9h-2v-3h2v3zm0-5.9h-2v-3h2v3zm0-5.9h-2v-3h2v3zM85.3 110.7h-2v-2.5h2.5v2h-.5zM245.3 110.2h-3v-2h3v2zm-5.9 0h-3v-2h3v2zm-5.9 0h-3v-2h3v2zm-5.9 0h-3v-2h3v2zm-5.9 0h-3v-2h3v2zm-5.9 0h-3v-2h3v2zm-5.9 0h-3v-2h3v2zm-5.9 0h-3v-2h3v2zm-5.9 0h-3v-2h3v2zm-5.9 0h-3v-2h3v2zm-5.9 0h-3v-2h3v2zm-6 0h-3v-2h3v2zm-5.9 0h-3v-2h3v2zm-5.9 0h-3v-2h3v2zm-5.9 0h-3v-2h3v2zm-5.9 0h-3v-2h3v2zm-5.9 0h-3v-2h3v2zm-5.9 0h-3v-2h3v2zm-5.9 0h-3v-2h3v2zm-5.9 0h-3v-2h3v2zm-5.9 0h-3v-2h3v2zm-5.9 0h-3v-2h3v2zm-6 0h-3v-2h3v2zm-5.9 0h-3v-2h3v2zm-5.9 0h-3v-2h3v2zm-5.9 0h-3v-2h3v2zm-5.9 0h-3v-2h3v2zM250.8 110.7h-2v-.5h-.5v-2h2.5zM250.8 270.3h-2v-3h2v3zm0-5.9h-2v-3h2v3zm0-5.9h-2v-3h2v3zm0-5.9h-2v-3h2v3zm0-5.9h-2v-3h2v3zm0-6h-2v-3h2v3zm0-5.9h-2v-3h2v3zm0-5.9h-2v-3h2v3zm0-5.9h-2v-3h2v3zm0-5.9h-2v-3h2v3zm0-5.9h-2v-3h2v3zm0-5.9h-2v-3h2v3zm0-5.9h-2v-3h2v3zm0-5.9h-2v-3h2v3zm0-5.9h-2v-3h2v3zm0-5.9h-2v-3h2v3zm0-6h-2v-3h2v3zm0-5.9h-2v-3h2v3zm0-5.9h-2v-3h2v3zm0-5.9h-2v-3h2v3zm0-5.9h-2v-3h2v3zm0-5.9h-2v-3h2v3zm0-5.9h-2v-3h2v3zm0-5.9h-2v-3h2v3zm0-5.9h-2v-3h2v3zm0-5.9h-2v-3h2v3zm0-5.9h-2v-3h2v3z"/><g><g fill="none" stroke="#40B481" stroke-width="1.788" stroke-miterlimit="10"><path d="M339 330.8v1.3h-1.4"/><path stroke-dasharray="2.6832,2.6832" d="M335 332.1H3.6"/><path d="M2.2 332.1H.9v-1.3"/><path stroke-dasharray="2.6563,2.6563" d="M.9 328.2V63.9"/><path d="M.9 62.5v-1.3h1.3"/><path stroke-dasharray="2.6832,2.6832" d="M4.9 61.2h331.4"/><path d="M337.6 61.2h1.4v1.3"/><path stroke-dasharray="2.6563,2.6563" d="M339 65.2v264.3"/></g></g><g><g fill="none" stroke="#7C7C7C" stroke-width="2.05" stroke-miterlimit="10"><path d="M26.9 325.1v-1.5"/><path stroke-dasharray="3.0714,3.0714" d="M26.9 320.5V70.2"/><path d="M26.9 68.7v-1.6"/></g></g><g><g fill="none" stroke="#7C7C7C" stroke-width="2.05" stroke-miterlimit="10"><path d="M309 339.5v1.5"/><path stroke-dasharray="2.8496,2.8496" d="M309 343.9v27"/><path d="M309 372.4v1.5h-1.6"/><path stroke-dasharray="3.066,3.066" d="M304.4 373.9H30"/><path d="M28.4 373.9h-1.5v-1.5"/><path stroke-dasharray="2.8798,2.8798" d="M26.9 369.5v-27.4"/><path d="M26.9 340.7v-1.6"/></g></g><g><g fill="none" stroke="#7C7C7C" stroke-width="2.05" stroke-miterlimit="10"><path d="M309 246.1v1.6"/><path stroke-dasharray="2.9836,2.9836" d="M309 250.7v70.1"/><path d="M309 322.3v1.5"/></g></g><g><g fill="none" stroke="#7C7C7C" stroke-width="2.05" stroke-miterlimit="10"><path d="M309 67.8v1.6"/><path stroke-dasharray="3.1234,3.1234" d="M309 72.5v60.9"/><path d="M309 134.9v1.6"/></g></g><g><g fill="none" stroke="#7C7C7C" stroke-width="2.05" stroke-miterlimit="10"><path d="M26.9 31.5v-1.6"/><path stroke-dasharray="2.4579,2.4579" d="M26.9 27.5v-3.7"/><path d="M26.9 22.6V21h1.5"/><path stroke-dasharray="3.066,3.066" d="M31.5 21h274.4"/><path d="M307.4 21h1.6v1.6"/><path stroke-dasharray="3.3379,3.3379" d="M309 25.9v25"/><path d="M309 52.6v1.5"/></g></g><g fill="#7C7C7C"><path d="M25.8 13c1-.8 2.1-2.7 3.1-5.8.6-1.8 1-3.4 1.3-4.9.1-.4.1-.7.1-.9-.2 0-.5.1-.7.2l-.7.4c-.2.1-.4 0-.7-.2s-.4-.6-.4-.8c0-.2.1-.3.3-.4l.6-.3c.5-.2.9-.3 1.2-.3s.6 0 .9.1c.3.1.5.1.7.3.5.3.7.7.7 1.2 0 .9-.3 2.4-.9 4.5-1 3.3-2.1 5.7-3.5 7-.4.4-.7.6-1.1.8-.1 0-.2.1-.3.1s-.2 0-.3-.1c-.1 0-.2-.1-.2-.1-.1-.1-.2-.2-.2-.4s0-.4.1-.4zM39.2 6.3c-.3 0-1 .5-1.9 1.5-.7.8-1.2 1.4-1.5 1.7l-.8 1-.8 1.6-.5 1c-.1.3-.2.4-.3.5-.1.1-.2.2-.4.2s-.3 0-.5-.1c-.1-.1-.3-.1-.4-.2-.2-.2-.3-.4-.3-.6 0-.1.1-.3.2-.5l.3-.7c.1-.2.2-.5.4-.8l.5-1.2c.7-1.7 1-2.9 1-3.4 0-.3-.1-.5-.3-.6l-.2-.1c-.1 0-.1-.1-.1-.2s0-.2.1-.3c.3-.1.4-.2.5-.3.3-.1.5-.2.8-.2.3 0 .5 0 .6.1.2.1.3.1.4.2.2.2.3.4.3.6 0 .2 0 .5-.1.7-.1.2-.1.5-.2.7-.1.2-.2.5-.3.7-.2.5-.4.8-.4.9s-.1.2 0 .1c1.1-1.4 1.7-2.2 1.9-2.5.5-.5.8-.9 1.1-1.1.5-.3.9-.5 1.3-.5s.7.1 1 .4.4.7.4 1.1c0 .4-.1.8-.3 1.3-.2.5-.3.9-.4 1.1l1.3-1.7.7-.9c.4-.5.8-.8 1.2-1 .3-.2.6-.2.8-.2s.4 0 .6.1.4.2.5.3c.3.3.5.7.5 1.2s-.1.9-.3 1.4c-.2.5-.4.9-.6 1.2-.2.3-.3.6-.5.9-.4.9-.6 1.6-.6 2.1 0 .3.1.5.4.5.2 0 .5-.1.7-.2s.3-.2.4-.2c.1 0 .2.1.2.2 0 .5-.3 1-.8 1.3-.4.2-.7.4-1 .4-.3 0-.5 0-.7-.1s-.3-.2-.5-.3c-.3-.3-.5-.8-.5-1.3s.1-1 .2-1.4c.1-.4.3-.8.5-1.3.2-.4.4-.8.5-1.1.2-.3.3-.6.4-.8.2-.4.3-.7.3-.9 0-.2-.1-.3-.4-.3-.3 0-.9.5-1.7 1.6-.6.8-1.1 1.4-1.3 1.8l-.6.8-.8 1.6-.5 1c-.1.3-.2.4-.3.5-.1.1-.2.2-.3.2-.1 0-.3 0-.4-.1-.1 0-.3-.1-.4-.2-.2-.2-.3-.4-.3-.5s.1-.5.2-.8c.1-.3.3-.7.5-1.1l1.2-2.6c.4-1 .7-1.6.7-1.9s-.2-.3-.4-.3zm.8 2.5zM54.1 11.4c0 .5.2.8.6.8.3 0 .5 0 .7-.1.2-.1.3-.1.4-.1.1 0 .2.1.2.2 0 .5-.3.9-.8 1.3-.6.4-1.1.5-1.7.3-.4-.1-.7-.4-.9-.9-.1-.2-.1-.4-.1-.6 0-.3 0-.6.1-1-.5 1.1-1.2 1.9-2 2.3-.3.2-.7.2-1 .2s-.7-.1-1-.2c-.3-.2-.5-.4-.7-.6-.4-.6-.6-1.3-.5-2.1 0-1.1.3-2.1.9-3.1.5-.9 1.2-1.7 2-2.3.8-.6 1.6-.9 2.3-.9.7 0 1.3.3 1.7 1 .4-.7.8-1 1.1-1 .3 0 .6.1.8.2.3.2.4.4.3.6-1.5 3-2.2 4.9-2.3 5.7-.1.1-.1.2-.1.3zm-4.9.1c0 .7.2 1.1.7 1.1.3 0 .8-.3 1.3-.9.7-.9 1.4-2 2-3.5.2-.5.3-.9.5-1.4 0-.4-.2-.7-.5-.9-.1-.1-.3-.1-.5-.1s-.5.1-.7.2c-.3.2-.6.4-.8.6-.3.3-.5.6-.7.9l-.6 1.2c-.5 1-.7 1.9-.7 2.8zM62.3 11.8c-.9 1.3-1.9 2-3 2-1 0-1.7-.5-2-1.6-.1-.4-.2-.8-.2-1.3s.1-1.1.2-1.6l.6-1.5c.2-.5.6-.9.9-1.3.4-.4.7-.7 1.1-1 .8-.6 1.7-.9 2.5-.9s1.4.4 1.8 1.2c.1-.1.1-.2.2-.2.1-.1.1-.2.2-.2.2-.2.3-.2.4-.2.1 0 .2 0 .4.1.1 0 .2.1.4.2.3.2.4.3.3.5-.3.7-.6 1.4-.8 2.1L64 12c-1 3.2-2.3 5.2-3.9 6.1-.4.2-.8.4-1.1.4h-.7c-.1 0-.3-.1-.4-.2-.2-.1-.3-.3-.3-.4 0-.2.1-.3.4-.4.3 0 .6-.2.9-.3s.6-.4.9-.6c1.1-.9 1.9-2.5 2.5-4.8zm-2.7-3c-.2.4-.3.9-.4 1.3-.1.4-.1.8-.1 1.1v.6c0 .1.1.3.1.4.1.2.3.4.5.4s.5-.1.7-.2c.2-.2.5-.4.7-.7.2-.3.5-.6.7-1 .2-.4.5-.8.7-1.2.5-1 .8-1.9 1-2.8 0-.2-.1-.3-.3-.5-.3-.3-.6-.5-.9-.5-.3 0-.5.1-.8.3-.3.2-.5.4-.8.7s-.5.6-.7 1c0 .2-.2.6-.4 1.1zM66.7 10.7c0-.5.1-1 .3-1.5.1-.5.3-.9.6-1.4s.5-.9.9-1.2c.3-.4.7-.7 1.1-1 .8-.6 1.7-.9 2.6-.9 1 0 1.7.4 2 1.2.1.3.2.6.2 1s-.1.7-.2 1.1c-.1.3-.3.6-.6.9-.3.3-.5.5-.9.7-.3.2-.7.4-1.1.5-.8.3-1.7.4-2.7.5v.4c0 .2 0 .4.1.6 0 .2.1.4.2.5.2.4.5.5.9.5.7 0 1.4-.2 2-.6.2-.1.4-.3.6-.4.1-.1.3-.2.4-.2s.2.1.3.2c.1.1.1.3.1.4 0 .3-.1.6-.3.8-.7.7-1.9 1.1-3.3 1.1-.9 0-1.6-.3-2.1-.8-.8-.6-1.1-1.4-1.1-2.4zm5.2-4.9c-.6 0-1.2.4-1.8 1.3-.5.7-.9 1.6-1.2 2.6 1-.1 1.8-.5 2.6-1.2.7-.6 1-1.2 1-1.8 0-.6-.2-.9-.6-.9z"/></g><g><g fill="none" stroke="#FFF" stroke-width=".605" stroke-linecap="round" stroke-linejoin="round"><path d="M121.9 94.3c.1.1 16.2-18.3 16.3-18.1.4.4-15.8 16.9-15.4 17.2.1.1 14.2-16 14.3-15.9M124.2 85.8s12-13.4 12-13.3c.4.4-12.8 16.7-12.4 17.1.1.1 14.8-16.6 14.9-16.6.4.4-15 16.3-14.6 16.6.1.1 13.2-14.9 13.3-14.8"/><path d="M116.1 86.8s12.4-13.9 12.5-13.9c.3.3-10.6 13-10.3 13.3 0 0 10.9-12.3 11-12.2.4.3-12.1 15.3-11.7 15.6.1.1 14.4-16.1 14.4-16 .5.4-16 19.7-15.5 20.1.1.1 13.3-15 13.4-14.9.4.4-14.2 16.2-13.8 16.5.1.1 13-14.6 13-14.5.4.3-13.1 15.5-12.8 15.8 0 0 11.9-13.4 12-13.3.4.3-13.5 14.7-13.1 15.1 0 0 12.2-13.7 12.3-13.6.3.3-10.6 13.2-10.3 13.5.3.3 20.2-23 20.5-22.8.6.5-21.8 23.3-21.3 23.8.3.2 20.2-23 20.5-22.7.5.5-19.3 20.9-18.7 21.4.3.2 20.2-22.9 20.4-22.7M127.4 89.7l9.9-11c.3.3-10.8 13.9-10.5 14.2.1.1 14.3-16 14.3-15.9.5.4-16.1 19.8-15.6 20.2.1.1 14.1-15.8 14.2-15.8.4.4-14.5 15.5-14.1 15.8.1.1 12.4-13.9 12.5-13.8.4.3-13 13.9-12.6 14.2.1.1 13.6-15.2 13.7-15.2.4.3-13.5 14.3-13.1 14.7.1.1 12.5-14 12.6-14 .4.3-13.8 15.6-13.4 15.9 0 0 13.5-15.1 13.5-15 .3.3-10.7 13.5-10.3 13.8L139.1 86"/><path d="M127.6 86.9s12.2-13.6 12.3-13.6c.3.3-10.9 13.3-10.5 13.5 0 0 10.9-12.2 11-12.2.3.3-11.5 13.5-11.1 13.8L142 74.2M129.9 97.4L142 83.9c.4.3-11.5 15.2-11.1 15.6 0 0 13.2-14.7 13.3-14.7.3.3-9.1 12.1-8.8 12.4l10.4-11.6"/><path d="M135 90l10.3-11.4c.3.3-9.7 12.7-9.4 13 0 0 13.1-14.6 13.1-14.5.4.3-12.3 15-11.9 15.4 0 0 12.2-13.6 12.2-13.5"/><path d="M131.9 91.5L144 78c.3.3-11.4 13.9-11.1 14.2 0 0 10.9-12.2 10.9-12.1.4.3-11.8 15.1-11.5 15.4 0 0 13.2-14.8 13.3-14.8.4.3-11.6 15-11.3 15.3l11.2-12.5c.3.3-11.7 12.6-11.3 12.9 0 0 11.8-13.2 11.9-13.2M140.3 89.7l9.9-11c.3.3-10.8 13.9-10.5 14.2.1.1 14.3-16 14.3-15.9.5.4-16.1 19.8-15.6 20.2.1.1 14.1-15.8 14.2-15.8.4.4-14.5 15.5-14.1 15.8.1.1 12.4-13.9 12.5-13.8.4.3-13 13.9-12.6 14.2.1.1 13.6-15.2 13.7-15.2.4.3-13.5 14.3-13.1 14.7.1.1 12.5-14 12.6-14 .4.3-13.8 15.6-13.4 15.9 0 0 13.5-15.1 13.5-15 .3.3-10.7 13.5-10.3 13.8L152 86"/><path d="M140.4 86.9s12.2-13.6 12.3-13.6c.3.3-10.9 13.3-10.5 13.5 0 0 10.9-12.2 11-12.2.3.3-11.5 13.5-11.1 13.8l12.7-14.2M148 91.5s12.6-14.1 12.6-14c.4.3-12.2 16-11.8 16.3l14.1-15.7c.4.4-14.3 16.9-13.9 17.2.1.1 12.8-14.4 12.9-14.3"/><path d="M146.1 85.4l12.5-13.9c.4.3-12.2 14.7-11.9 15 .1.1 11.6-13 11.6-12.9.4.4-14.5 17.9-14 18.2.1.1 14.4-16.2 14.5-16.1.4.4-15.1 18.7-14.6 19.1.1.1 14.5-16.4 14.7-16.3.4.4-15.1 17.1-14.7 17.5.1.1 12.3-13.8 12.4-13.8.4.3-12.1 14.5-11.8 14.8 0 0 11.1-12.4 11.2-12.4.3.3-12.6 13.8-12.3 14.1l11.8-13.1c.3.3-9.6 12.2-9.4 12.4 0 0 11.4-12.7 11.4-12.6.3.3-12.5 13.4-12.1 13.7l11.7-13c.3.2-9.7 11.3-9.5 11.5.1.1 15.9-17.9 16-17.7.4.4-14.7 17-14.3 17.4.1 0 11.7-13.1 11.8-13.1"/><path d="M155.8 85.4l12.5-13.9c.4.3-12.2 14.7-11.9 15 .1.1 11.6-13.1 11.7-13 .4.4-14.4 17.8-14 18.2.1.1 14.6-16.4 14.7-16.3.5.4-15.5 19.1-15 19.6.1.1 12.4-13.9 12.5-13.8.4.3-13.2 15.1-12.8 15.4.1.1 12.7-14.3 12.8-14.2.4.3-12.6 14.9-12.2 15.2 0 0 11.6-13 11.6-12.9.4.3-13 14.2-12.7 14.6 0 0 12.1-13.5 12.1-13.4.3.3-9.6 12.1-9.3 12.3l11.1-12.3M161.8 92s12.9-14.5 13-14.4c.4.3-12.7 16-12.3 16.3.1.1 14.4-16.1 14.5-16.1"/><path d="M161 94.8l10.5-11.7c.3.2-8.6 11.5-8.3 11.8.1.1 14.2-15.9 14.2-15.8.4.3-13.5 14.8-13.2 15.1 0 0 13-14.5 13-14.4"/><path d="M158.8 93.1c.1 0 13.4-15 13.4-14.9.4.4-13.5 16.1-13.1 16.4.1.1 14.4-16.3 14.5-16.1.5.4-15.7 19.2-15.2 19.6l13.1-14.6c.3.3-10.8 14.2-10.5 14.5 0 0 10.6-11.9 10.7-11.8.3.3-10.1 11.8-9.8 12l11.7-13c.3.3-9.7 11.8-9.4 12.1 0 0 11.2-12.5 11.2-12.4.3.3-12.3 13.4-12 13.7l11.2-12.4M177.1 96.8c.1.1 13.6-15.3 13.7-15.2.4.4-13.7 17.6-13.3 18 0 0 13.7-15.3 13.8-15.3.3.3-10.8 12.8-10.5 13.1l10-11.1M177.4 90.2l10.3-11.5c.3.3-9.6 12.6-9.3 12.8L192 76.4c.5.4-15.9 18.9-15.4 19.4.1.1 16.1-18.1 16.2-18"/><path d="M172.6 93.6c.1.1 14-15.6 14-15.6.4.4-14 16.5-13.6 16.9.1.1 12.1-13.6 12.1-13.5.4.4-13.4 16.7-13 17.1l13.2-14.7c.3.3-10.6 14-10.3 14.3.2.1 15.4-17.4 15.6-17.3.4.4-15.6 16.9-15.2 17.3.1.1 15.2-17.1 15.3-17M187 92.3l13.2-14.7c.4.3-12.6 15.1-12.3 15.4l13.2-14.7M186.5 91.5c.1.1 11.5-12.9 11.6-12.9.4.3-13 13.9-12.7 14.2.1.1 14.7-16.4 14.7-16.4"/><path d="M182.7 90.9l12.1-13.5c.3.3-10.7 13.1-10.4 13.4 0 0 10.8-12.1 10.9-12.1.4.4-13.7 17.1-13.3 17.5.1.1 14.4-16.2 14.5-16.1.4.4-14 17.6-13.6 18 0 0 11.5-12.9 11.6-12.8.3.3-11.4 12.8-11.1 13.1l10.9-12.1M193.2 92s12.9-14.5 13-14.4c.4.3-12.7 16-12.3 16.3.1.1 14.4-16.1 14.5-16.1"/><path d="M192.4 94.8l10.5-11.7c.3.2-8.6 11.5-8.3 11.8.1.1 14.2-15.9 14.2-15.8.4.3-13.5 14.8-13.2 15.1 0 0 13-14.5 13-14.4"/><path d="M190.1 93.1c.1 0 13.4-15 13.4-14.9.4.4-13.5 16.1-13.1 16.4.1.1 14.4-16.3 14.5-16.1.5.4-15.7 19.2-15.2 19.6l13.1-14.6c.3.3-10.8 14.2-10.5 14.5 0 0 10.6-11.9 10.7-11.8.3.3-10.1 11.8-9.8 12l11.7-13c.3.3-9.7 11.8-9.4 12.1 0 0 11.2-12.5 11.2-12.4.3.3-12.3 13.4-12 13.7l11.2-12.4M202.9 96.8c.1.1 13.6-15.3 13.7-15.2.4.4-13.7 17.6-13.3 18 0 0 13.7-15.3 13.8-15.3.3.3-10.8 12.8-10.5 13.1l10-11.1M203.2 90.2l10.3-11.5c.3.3-9.6 12.6-9.3 12.8l13.6-15.1c.5.4-15.9 18.9-15.4 19.4.1.1 16.1-18.1 16.2-18"/><path d="M198.4 93.6c.1.1 14-15.6 14-15.6.4.4-14 16.5-13.6 16.9.1.1 12.1-13.6 12.1-13.5.4.4-13.4 16.7-13 17.1l13.2-14.7c.3.3-10.6 14-10.3 14.3.2.1 15.4-17.4 15.6-17.3.4.4-15.6 16.9-15.2 17.3.1.1 15.2-17.1 15.3-17"/></g><g fill="#80ACD8"><path d="M121.6 91.7c-.1-.3-.2-.5-.3-.8-.1-.3-.1-.6-.1-.9s.1-.7.2-1.3c.1-.5.3-1.1.4-1.6s.4-1.2.7-1.8c.3-.6.5-1.2.8-1.8.6-1.2 1.2-2.2 1.7-3.1h-.1c-.7 0-1.4.2-2 .5-.1.1-.3.2-.4.2-.3 0-.6-.1-.8-.4-.6-.6-.2-1.2 1.1-1.6.6-.2 1.1-.3 1.5-.3s.7.1.9.2.4.3.6.4c.3.3.4.5.6.8.1.3.2.5.2.7s-.1.4-.2.8c-.1.3-.3.7-.4 1l-.6 1.2c-.2.4-.4.8-.6 1.3-.2.4-.4.9-.6 1.3-.2.4-.4.9-.6 1.3-.4 1-.5 1.8-.5 2.4 0 .4 0 .7.1 1 .3-.4.6-.8 1-1.3l1.2-1.4c1.4-1.5 2.4-2.6 2.8-3.1 1-1.2 1.8-2.3 2.3-3.4.2-.4.3-.8.3-1.1 0-.6-.2-1.1-.5-1.4-.1-.1-.1-.3 0-.5s.2-.3.3-.4c.2-.2.5-.3.8-.3.3 0 .5.1.7.2.2.1.4.3.5.5.3.4.4.8.4 1.3s-.1 1.1-.3 1.7c-.2.6-.5 1.2-.9 1.7s-.8 1.1-1.3 1.7c-.5.5-.9 1-1.4 1.5l-2.7 2.5c-.8.8-1.3 1.4-1.6 1.7-.5.6-.9 1-1 1.1-.1.2-.3.3-.4.3-.1 0-.3.1-.5.1s-.4-.1-.6-.3-.5-.4-.7-.6zM134 90.9c.2 0 .2.1.2.3 0 .3-.1.5-.4.8-.4.4-.8.6-1.4.6-.7 0-1.2-.3-1.4-.8-.1-.2-.1-.4-.1-.7 0-.3 0-.6.1-.9.1-.3.2-.7.4-1.1s.3-.8.5-1.1l.5-1.1c.3-.8.5-1.4.5-1.6 0-.3 0-.4-.1-.5-.1-.1-.1-.2-.2-.2l-.2-.1c-.1 0-.1-.1-.1-.2s0-.2.1-.3c.1-.1.2-.2.3-.2.3-.1.6-.2.9-.2.9 0 1.3.2 1.3.7 0 .5-.1 1.1-.4 1.8-.3.7-.5 1.2-.7 1.7l-.5 1.2c-.4.9-.6 1.5-.6 1.9 0 .3.1.4.4.4.3 0 .4 0 .6-.1s.3-.3.3-.3zm1.8-9.6c-.1.1-.3.3-.4.3-.2.1-.3.1-.5.2-.2 0-.4 0-.5-.1-.2-.1-.3-.2-.4-.3-.3-.3-.4-.6-.4-.9 0-.3 0-.5.1-.7.1-.2.2-.3.4-.4.3-.2.6-.3.8-.3s.4 0 .6.1c.1 0 .3.1.4.2.3.2.4.4.4.7 0 .3 0 .5-.1.7-.1.2-.2.3-.4.5zM135.8 91c0-.2 0-.4.1-.5.1-.2.2-.3.3-.4.2-.2.5-.3.8-.3.2 0 .4.1.4.4 0 .6.2 1 .6 1.3.1.1.3.1.5.1s.3 0 .4-.1c.1 0 .2-.1.3-.2.2-.2.3-.4.3-.6 0-.2-.1-.5-.2-.7-.1-.2-.2-.4-.4-.6l-.5-.7c-.7-.9-1.1-1.8-1.1-2.6 0-.7.3-1.3.8-1.8.6-.6 1.5-.9 2.5-.9.9 0 1.6.2 2 .6.4.3.6.7.6 1.2s-.2.8-.5 1.1c-.3.2-.6.3-1 .3-.1 0-.3-.1-.3-.2-.1-.1-.1-.2 0-.4 0-.1.1-.3.1-.5s0-.3-.1-.4c-.1-.1-.1-.3-.2-.3-.2-.2-.4-.3-.7-.3-.2 0-.4 0-.6.1-.1.1-.3.1-.4.2-.2.2-.3.5-.3.8s.1.6.2.8c.1.2.2.4.4.7.2.2.3.5.5.7.2.2.4.5.5.7.4.6.6 1.1.6 1.6s-.1.8-.3 1.1c-.2.3-.4.6-.7.8-.6.5-1.4.7-2.2.7-.8 0-1.4-.2-1.8-.5-.4-.5-.6-.8-.6-1.2zM146.9 90.9c.2 0 .2.1.2.3 0 .3-.1.5-.4.8-.4.4-.8.6-1.4.6-.7 0-1.2-.3-1.4-.8-.1-.2-.1-.4-.1-.7 0-.3 0-.6.1-.9.1-.3.2-.7.4-1.1s.3-.8.5-1.1l.5-1.1c.3-.8.5-1.4.5-1.6 0-.3 0-.4-.1-.5-.1-.1-.1-.2-.2-.2l-.2-.1c-.1 0-.1-.1-.1-.2s0-.2.1-.3c.1-.1.2-.2.3-.2.3-.1.6-.2.9-.2.9 0 1.3.2 1.3.7 0 .5-.1 1.1-.4 1.8-.3.7-.5 1.2-.7 1.7l-.5 1.2c-.4.9-.6 1.5-.6 1.9 0 .3.1.4.4.4.3 0 .4 0 .6-.1s.2-.3.3-.3zm1.8-9.6c-.1.1-.3.3-.4.3-.2.1-.3.1-.5.2-.2 0-.4 0-.5-.1-.2-.1-.3-.2-.4-.3-.3-.3-.4-.6-.4-.9 0-.3 0-.5.1-.7.1-.2.2-.3.4-.4.3-.2.6-.3.8-.3s.4 0 .6.1c.1 0 .3.1.4.2.3.2.4.4.4.7 0 .3 0 .5-.1.7-.2.2-.3.3-.4.5zM149.2 90c0-.3 0-.7.1-1 0-.3.1-.6.2-.9.1-.3.2-.6.3-1l1-3c.8-2.5 1.3-4.4 1.5-5.8.1-.5.3-.7.7-.7.2 0 .5.1.6.2.3.3.5.5.5.8 0 .3 0 .6-.1 1s-.2.7-.3 1.1c-.1.4-.2.8-.4 1.3-.4 1.2-.7 2-.9 2.5l-.5 1.3c.5-.8.9-1.3 1.3-1.6.6-.6 1.3-.9 2-.9 1 0 1.7.5 2.1 1.6.1.4.2.8.2 1.4s-.1 1.1-.2 1.7c-.2.5-.4 1.1-.7 1.5-.3.5-.6.9-1 1.3s-.8.7-1.2 1c-.9.6-1.7.8-2.5.8s-1.5-.2-1.9-.7c-.6-.5-.8-1.2-.8-1.9zm2.5 1.5c.6 0 1.1-.2 1.7-.7.9-.8 1.5-1.8 1.8-3.2.1-.5.2-.9.2-1.4 0-.5-.1-.8-.2-1-.1-.2-.3-.3-.5-.3s-.5.1-.7.3c-.3.2-.5.4-.8.7-.3.3-.6.7-.8 1.1-.3.4-.5.8-.7 1.3-.5 1-.7 1.8-.7 2.4-.2.4.1.8.7.8zM159.1 92.2c-.1-.2-.3-.3-.4-.6-.1-.2-.1-.5-.1-.8s.1-.7.2-1.3c.1-.5.3-1.1.6-1.8l.7-2.2c1.1-3.1 1.7-5.4 1.8-7.1.1-.5.3-.7.7-.7.3 0 .5.1.7.2.3.3.5.5.5.9 0 .3-.1.7-.2 1.2s-.2 1-.4 1.5-.3 1.1-.5 1.7l-1.2 3.6c-.7 2-1.1 3.4-1.1 4 0 .3.1.5.4.5.2 0 .5-.1.7-.2s.3-.2.4-.2c.1 0 .2.1.2.2 0 .5-.3 1-.8 1.3-.4.2-.7.4-1 .4-.3 0-.5 0-.7-.1s-.4-.4-.5-.5zM163.8 89.4c0-.5.1-1 .3-1.5.1-.5.3-.9.6-1.4s.5-.9.9-1.2c.3-.4.7-.7 1.1-1 .8-.6 1.7-.9 2.6-.9 1 0 1.7.4 2 1.2.1.3.2.6.2 1s-.1.7-.2 1.1-.3.6-.6.9c-.3.3-.5.5-.9.7-.3.2-.7.4-1.1.5-.8.3-1.7.4-2.7.5v.4c0 .2 0 .4.1.6 0 .2.1.4.2.5.2.4.5.5.9.5.7 0 1.4-.2 2-.6.2-.1.4-.3.6-.4.1-.1.3-.2.4-.2s.2.1.3.2c.1.1.1.3.1.4 0 .3-.1.6-.3.8-.7.7-1.9 1.1-3.3 1.1-.9 0-1.6-.3-2.1-.8-.8-.6-1.1-1.4-1.1-2.4zm5.2-4.9c-.6 0-1.2.4-1.8 1.3-.5.7-.9 1.6-1.2 2.6 1-.1 1.8-.5 2.6-1.2.7-.6 1-1.2 1-1.8 0-.6-.2-.9-.6-.9zM184.7 90.2c0 .5.2.8.6.8.3 0 .5 0 .7-.1.2-.1.3-.1.4-.1.1 0 .2.1.2.2 0 .5-.3.9-.8 1.3-.6.4-1.1.5-1.7.3-.4-.1-.7-.4-.9-.9-.1-.2-.1-.4-.1-.6 0-.3 0-.6.1-1-.5 1.1-1.2 1.9-2 2.3-.3.2-.7.2-1 .2s-.7-.1-1-.2c-.3-.2-.5-.4-.7-.6-.4-.6-.6-1.3-.5-2.1 0-1.1.3-2.1.9-3.1.5-.9 1.2-1.7 2-2.3.8-.6 1.6-.9 2.3-.9s1.3.3 1.7 1c.4-.7.8-1 1.1-1 .3 0 .6.1.8.2.3.2.4.4.3.6-1.5 3-2.2 4.9-2.3 5.7-.1 0-.1.1-.1.3zm-4.9 0c0 .7.2 1.1.7 1.1.3 0 .8-.3 1.3-.9.7-.9 1.4-2 2-3.5.2-.5.3-.9.5-1.4 0-.4-.2-.7-.5-.9-.1-.1-.3-.1-.5-.1s-.5.1-.7.2c-.3.2-.6.4-.8.6s-.5.6-.7.9-.4.8-.6 1.2c-.5 1-.7 1.9-.7 2.8zM187.7 92.3l-.3-.3c-.1-.1-.1-.2-.1-.3v-.3c0-.1.1-.3.2-.4 1.2-3 1.8-5 1.8-6 0-.3-.1-.5-.3-.6l-.2-.1c-.1 0-.1-.1-.1-.2s0-.2.1-.3c.1-.1.2-.2.3-.2.3-.1.5-.2.8-.2.3 0 .5 0 .6.1.2.1.3.1.4.2.2.2.3.4.3.7s0 .5-.1.7c-.1.2-.1.5-.2.7-.1.2-.2.5-.2.7-.1.2-.1.4-.2.5 0 .2-.1.3-.1.4.1-.1.2-.2.3-.4l.3-.7c.8-1.4 1.5-2.3 2.3-2.7.2-.1.5-.2.8-.2.3 0 .5.1.7.3.2.2.3.4.3.7s0 .5-.1.6c0 .2-.1.3-.2.5-.2.3-.4.5-.7.5-.1 0-.1 0-.2-.1l-.2-.2c-.2-.2-.4-.3-.6-.3-.2 0-.4.1-.7.4s-.5.5-.8.9c-.9 1.2-1.7 2.6-2.3 4.1l-.4 1c-.1.3-.2.4-.3.5-.1.1-.2.2-.3.2-.2 0-.3 0-.5-.1s0 0-.1-.1zM195.2 89.4c0-.5.1-1 .3-1.5.1-.5.3-.9.6-1.4s.5-.9.9-1.2c.3-.4.7-.7 1.1-1 .8-.6 1.7-.9 2.6-.9 1 0 1.7.4 2 1.2.1.3.2.6.2 1s-.1.7-.2 1.1-.3.6-.6.9c-.3.3-.5.5-.9.7-.3.2-.7.4-1.1.5-.8.3-1.7.4-2.7.5v.4c0 .2 0 .4.1.6 0 .2.1.4.2.5.2.4.5.5.9.5.7 0 1.4-.2 2-.6.2-.1.4-.3.6-.4.1-.1.3-.2.4-.2s.2.1.3.2.1.3.1.4c0 .3-.1.6-.3.8-.7.7-1.9 1.1-3.3 1.1-.9 0-1.6-.3-2.1-.8-.9-.6-1.2-1.4-1.1-2.4zm5.1-4.9c-.6 0-1.2.4-1.8 1.3-.5.7-.9 1.6-1.2 2.6 1-.1 1.8-.5 2.6-1.2.7-.6 1-1.2 1-1.8 0-.6-.2-.9-.6-.9zM210.5 90.2c0 .5.2.8.6.8.3 0 .5 0 .7-.1.2-.1.3-.1.4-.1.1 0 .2.1.2.2 0 .5-.3.9-.8 1.3-.6.4-1.1.5-1.7.3-.4-.1-.7-.4-.9-.9-.1-.2-.1-.4-.1-.6 0-.3 0-.6.1-1-.5 1.1-1.2 1.9-2 2.3-.3.2-.7.2-1 .2s-.7-.1-1-.2c-.3-.2-.5-.4-.7-.6-.4-.6-.6-1.3-.5-2.1 0-1.1.3-2.1.9-3.1.5-.9 1.2-1.7 2-2.3.8-.6 1.6-.9 2.3-.9s1.3.3 1.7 1c.4-.7.8-1 1.1-1 .3 0 .6.1.8.2.3.2.4.4.3.6-1.5 3-2.2 4.9-2.3 5.7-.1 0-.1.1-.1.3zm-4.9 0c0 .7.2 1.1.7 1.1.3 0 .8-.3 1.3-.9.7-.9 1.4-2 2-3.5.2-.5.3-.9.5-1.4 0-.4-.2-.7-.5-.9-.1-.1-.3-.1-.5-.1s-.5.1-.7.2c-.3.2-.6.4-.8.6s-.5.6-.7.9-.4.8-.6 1.2c-.6 1-.7 1.9-.7 2.8z"/></g></g></svg>